<svg xmlns="http://www.w3.org/2000/svg" width="43.233" height="41.792" viewBox="0 0 43.233 41.792">
  <g id="online-course" transform="translate(0)">
    <path id="Path_195" data-name="Path 195" d="M24.97,20.97a.725.725,0,0,1-.307-.068L12.414,15.137a.721.721,0,0,1,0-1.3L24.663,8.068a.721.721,0,0,1,.614,0l12.249,5.764a.721.721,0,0,1,0,1.3L25.277,20.9A.725.725,0,0,1,24.97,20.97ZM14.413,14.485,24.97,19.453l10.557-4.968L24.97,9.517Z" transform="translate(-3.353 -2.236)" fill="#fff"/>
    <path id="Path_196" data-name="Path 196" d="M26.367,29.628a.722.722,0,0,1-.322-.076L17.4,25.229a.721.721,0,0,1-.4-.645v-5.51a.721.721,0,0,1,1.027-.652l8.34,3.925,8.34-3.925a.721.721,0,0,1,1.028.652v5.51a.721.721,0,0,1-.4.645l-8.647,4.323A.722.722,0,0,1,26.367,29.628Zm-7.926-5.489L26.367,28.1l7.926-3.963V20.209l-7.619,3.585a.721.721,0,0,1-.614,0l-7.619-3.585Z" transform="translate(-4.751 -5.129)" fill="#fff"/>
    <path id="Path_197" data-name="Path 197" d="M41.97,17.441H29.721a.721.721,0,0,1,0-1.441H41.97a.721.721,0,1,1,0,1.441Z" transform="translate(-8.104 -4.471)" fill="#fff"/>
    <path id="Path_198" data-name="Path 198" d="M46.721,23.926A.721.721,0,0,1,46,23.206V16.721a.721.721,0,1,1,1.441,0v6.485A.721.721,0,0,1,46.721,23.926Z" transform="translate(-12.855 -4.471)" fill="#fff"/>
    <path id="Path_199" data-name="Path 199" d="M29.721,18.323A.721.721,0,0,1,29,17.6V14.721a.721.721,0,1,1,1.441,0V17.6A.721.721,0,0,1,29.721,18.323Z" transform="translate(-8.104 -3.912)" fill="#fff"/>
    <path id="Path_200" data-name="Path 200" d="M44.72,28.6a.721.721,0,0,1-.6-1.12l1.441-2.162a.721.721,0,1,1,1.2.8L45.32,28.282A.72.72,0,0,1,44.72,28.6Z" transform="translate(-12.296 -6.986)" fill="#fff"/>
    <path id="Path_201" data-name="Path 201" d="M48.162,28.6a.72.72,0,0,1-.6-.321L46.121,26.12a.721.721,0,0,1,1.2-.8l1.441,2.162a.721.721,0,0,1-.6,1.12Z" transform="translate(-12.855 -6.986)" fill="#fff"/>
    <path id="Path_202" data-name="Path 202" d="M29.721,27.6A.721.721,0,0,1,29,26.882V24.721a.721.721,0,1,1,1.441,0v2.162A.721.721,0,0,1,29.721,27.6Z" transform="translate(-8.104 -6.707)" fill="#fff"/>
    <path id="Path_203" data-name="Path 203" d="M42.512,27.381H.721A.721.721,0,0,1,0,26.66V2.883A2.886,2.886,0,0,1,2.883,0H40.35a2.886,2.886,0,0,1,2.883,2.883V26.66A.721.721,0,0,1,42.512,27.381ZM1.441,25.94H41.792V2.883A1.443,1.443,0,0,0,40.35,1.441H2.883A1.443,1.443,0,0,0,1.441,2.883Z" transform="translate(0 0)" fill="#fff"/>
    <path id="Path_204" data-name="Path 204" d="M40.35,43.206H2.883A2.886,2.886,0,0,1,0,40.323v-3.6A.721.721,0,0,1,.721,36H42.512a.721.721,0,0,1,.721.721v3.6A2.886,2.886,0,0,1,40.35,43.206ZM1.441,37.441v2.881a1.443,1.443,0,0,0,1.442,1.442H40.35a1.443,1.443,0,0,0,1.442-1.442V37.441Z" transform="translate(0 -10.06)" fill="#fff"/>
    <path id="Path_205" data-name="Path 205" d="M31.044,41.441H26.721a.721.721,0,0,1,0-1.441h4.323a.721.721,0,0,1,0,1.441Z" transform="translate(-7.266 -11.178)" fill="#fff"/>
    <path id="Path_206" data-name="Path 206" d="M40.748,28.5H4.721A.721.721,0,0,1,4,27.778V4.721A.721.721,0,0,1,4.721,4H40.748a.721.721,0,0,1,.721.721V27.778A.721.721,0,0,1,40.748,28.5ZM5.441,27.058H40.028V5.441H5.441Z" transform="translate(-1.118 -1.118)" fill="#fff"/>
    <path id="Path_207" data-name="Path 207" d="M34.9,56.323H16.162a2.162,2.162,0,0,1,0-4.323H34.9a2.162,2.162,0,0,1,0,4.323ZM16.162,53.441a.721.721,0,0,0,0,1.441H34.9a.721.721,0,0,0,0-1.441Z" transform="translate(-3.912 -14.531)" fill="#fff"/>
    <path id="Path_208" data-name="Path 208" d="M34.573,51.206H18.721a.721.721,0,1,1,0-1.441c2.391,0,3.6-1.7,3.6-5.044A.721.721,0,0,1,23.044,44h7.205a.721.721,0,0,1,.721.721c0,3.347,1.212,5.044,3.6,5.044a.721.721,0,0,1,0,1.441ZM22.23,49.764h8.833a6.9,6.9,0,0,1-1.515-4.323h-5.8A6.9,6.9,0,0,1,22.23,49.764Z" transform="translate(-5.03 -12.296)" fill="#fff"/>
  </g>
</svg>
