<svg id="phone-white" xmlns="http://www.w3.org/2000/svg" width="27" height="27" viewBox="0 0 27 27">
  <path id="Path_2778" data-name="Path 2778" d="M26.48,21.471l-2.994-2L20.824,17.7a1.179,1.179,0,0,0-1.583.257L17.6,20.071a1.17,1.17,0,0,1-1.5.311,19.172,19.172,0,0,1-5.353-4.127,19.309,19.309,0,0,1-4.127-5.349,1.17,1.17,0,0,1,.314-1.493L9.048,7.763a1.179,1.179,0,0,0,.257-1.583L7.584,3.6,5.533.524A1.179,1.179,0,0,0,3.946.165L1.58,1.587a2.889,2.889,0,0,0-1.311,1.7C-.377,5.642-.508,10.846,7.83,19.172s13.536,8.2,15.887,7.561a2.888,2.888,0,0,0,1.7-1.313l1.419-2.364A1.179,1.179,0,0,0,26.48,21.471Z" transform="translate(-0.001 0.002)" fill="#fff"/>
  <path id="Path_2779" data-name="Path 2779" d="M282.955,62.723a7.921,7.921,0,0,1,7.914,7.915.466.466,0,0,0,.932,0,8.855,8.855,0,0,0-8.846-8.846.466.466,0,1,0,0,.93Z" transform="translate(-267.591 -58.531)" fill="#fff"/>
  <path id="Path_2780" data-name="Path 2780" d="M282.951,115.69a5.131,5.131,0,0,1,5.116,5.116.466.466,0,1,0,.932,0,6.059,6.059,0,0,0-6.059-6.059.466.466,0,1,0,0,.932Z" transform="translate(-267.586 -108.704)" fill="#fff"/>
  <path id="Path_2781" data-name="Path 2781" d="M282.955,168.654a2.331,2.331,0,0,1,2.328,2.328.466.466,0,1,0,.932,0,3.262,3.262,0,0,0-3.26-3.258.466.466,0,1,0,0,.93Z" transform="translate(-267.591 -158.876)" fill="#fff"/>
</svg>
