<svg xmlns="http://www.w3.org/2000/svg" width="23.306" height="33.889" viewBox="0 0 23.306 33.889">
  <g id="pin" transform="translate(-0.001)">
    <path id="Path_18724" data-name="Path 18724" d="M101.655,5.8A11.5,11.5,0,0,0,91.881,0H91.36a11.5,11.5,0,0,0-9.774,5.8,11.8,11.8,0,0,0-.154,11.657l8.4,15.384.012.02a2.044,2.044,0,0,0,3.545,0l.012-.02,8.4-15.384A11.8,11.8,0,0,0,101.656,5.8ZM91.621,15.359a4.767,4.767,0,1,1,4.767-4.767,4.767,4.767,0,0,1-4.767,4.767Z" transform="translate(-79.968)" fill="#fff"/>
  </g>
</svg>
