<svg id="call" xmlns="http://www.w3.org/2000/svg" width="23.002" height="22.999" viewBox="0 0 23.002 22.999">
  <path id="Shape" d="M10.528,13.515a9.282,9.282,0,0,1-2.8-5.271.789.789,0,0,1,.227-.657L9.728,5.811a.794.794,0,0,0,.112-.986L7.006.433A.794.794,0,0,0,5.979.144L1.437,2.28A.789.789,0,0,0,1,3.071a21.956,21.956,0,0,0,6.686,13.28,21.954,21.954,0,0,0,13.281,6.686.789.789,0,0,0,.788-.436l2.136-4.542a.794.794,0,0,0-.288-1.026L19.209,14.2a.794.794,0,0,0-.986.111l-1.776,1.777a.789.789,0,0,1-.657.227A9.282,9.282,0,0,1,10.528,13.515Z" transform="translate(-0.995 -0.042)" fill="#fff"/>
  <path id="Shape-2" data-name="Shape" d="M33.651,16.242a.6.6,0,0,1-.595-.595,4.466,4.466,0,0,0-4.461-4.461.595.595,0,0,1,0-1.189,5.657,5.657,0,0,1,5.648,5.653A.6.6,0,0,1,33.651,16.242Z" transform="translate(-15.772 -5.472)" fill="#fff"/>
  <path id="Shape-3" data-name="Shape" d="M36.625,9.22a.6.6,0,0,1-.595-.595,7.444,7.444,0,0,0-7.436-7.436.595.595,0,0,1,0-1.189A8.635,8.635,0,0,1,37.22,8.625a.6.6,0,0,1-.595.595Z" transform="translate(-14.218)" fill="#fff"/>
</svg>
