<svg xmlns="http://www.w3.org/2000/svg" width="81.643" height="81.643" viewBox="0 0 81.643 81.643">
  <g id="access" transform="translate(-13.549 -10.628)">
    <path id="Path_28476" data-name="Path 28476" d="M40.822,0A40.822,40.822,0,1,1,0,40.822,40.822,40.822,0,0,1,40.822,0Z" transform="translate(13.549 10.628)" fill="#fff"/>
    <g id="access-2" data-name="access" transform="translate(27.549 33.843)">
      <path id="Path_28498" data-name="Path 28498" d="M335.81,48.219h-6.665a5.839,5.839,0,0,0-5.832,5.832v2.9a5.855,5.855,0,0,0,4.23,5.607l1.6.457V81.157l3.333,2.222,3.333-2.222V79.533l-1.321-1.321,1.666-1.666-1.666-1.666,1.321-1.321V63.01l1.6-.457a5.855,5.855,0,0,0,4.23-5.607v-2.9a5.839,5.839,0,0,0-5.832-5.832Zm1.666,9.165a1.667,1.667,0,0,1-1.666,1.666h-6.665a1.667,1.667,0,0,1-1.666-1.666V54.051a1.667,1.667,0,0,1,1.666-1.666h6.665a1.667,1.667,0,0,1,1.666,1.666Zm0,0" transform="translate(-289.642 -43.057)" fill="#0064d8"/>
      <path id="Path_28499" data-name="Path 28499" d="M79.844,140.592,72,132.749l7.843-7.843,7.843,7.843Zm0,0" transform="translate(-64.502 -111.758)" fill="#0064d8"/>
      <path id="Path_28500" data-name="Path 28500" d="M46.168,8.495H39.5a2.5,2.5,0,0,0-2.5,2.5v.668a6.973,6.973,0,0,1-3.017-1.817,7.677,7.677,0,0,1-1.125-1.438c.127-.112.253-.223.376-.345a6.671,6.671,0,0,0,2.1-4.39A6.905,6.905,0,0,1,38.174,5.32,5.69,5.69,0,0,1,39.5,5.162h.784a9.6,9.6,0,0,0-.755-.862,8.394,8.394,0,0,0-4.178-2.356c-.136-.027-.268-.043-.4-.061a3.118,3.118,0,0,0-.56-.776c-1.625-1.625-4.68-1.118-6.954,1.156a7.33,7.33,0,0,0-1.895,3.1,7.322,7.322,0,0,0-3.1,1.9c-.11.11-.212.223-.313.336a4.85,4.85,0,0,0-6.053.653L0,24.324,12.009,36.333,28.083,20.26a4.856,4.856,0,0,0,0-6.867l-.1-.1c.085-.078.172-.152.254-.234a7.328,7.328,0,0,0,1.9-3.108,6.456,6.456,0,0,0,1.358-.567,9.528,9.528,0,0,0,1.316,1.638A8.354,8.354,0,0,0,37,13.386v.941a2.5,2.5,0,0,0,2.5,2.5h6.665a2.5,2.5,0,0,0,2.5-2.5V10.994a2.5,2.5,0,0,0-2.5-2.5ZM32.153,6.777A2.746,2.746,0,0,1,32.6,4.09a2.023,2.023,0,0,1,1.062-.538,4.965,4.965,0,0,1-1.509,3.224ZM2.356,24.324,3.678,23l9.653,9.653-1.321,1.321ZM26.9,19.081l-12.4,12.4L4.856,21.825l12.4-12.4a3.276,3.276,0,0,1,3.887-.463c-1.089,1.927-1.1,4.007.146,5.25l1.178-1.178c-.624-.625-.581-1.775-.026-2.934L26.9,14.571a3.19,3.19,0,0,1,0,4.511Zm.157-7.2c-.083.083-.177.146-.264.225L23.39,8.7c.077-.086.146-.176.229-.259a6.068,6.068,0,0,1,1.744-1.222,3.157,3.157,0,0,0,2.924,2.912,6.08,6.08,0,0,1-1.226,1.751Zm-.045-5.042a1.725,1.725,0,0,1,1.2.445,1.723,1.723,0,0,1,.445,1.2,1.72,1.72,0,0,1-1.2-.445,1.728,1.728,0,0,1-.445-1.2Zm3.3,1.266A3.177,3.177,0,0,0,27.4,5.185a6.08,6.08,0,0,1,1.221-1.744c1.39-1.391,3.211-1.956,4.252-1.4a3.6,3.6,0,0,0-1.446.872,4.592,4.592,0,0,0-.677,4.975C30.6,7.97,30.458,8.039,30.315,8.1ZM39.5,10.161h.77a2.01,2.01,0,0,1-.534,1.071,2.036,2.036,0,0,1-1.07.538v-.776a.834.834,0,0,1,.833-.833ZM47,14.327a.834.834,0,0,1-.833.833H39.5a.834.834,0,0,1-.833-.833v-.872a3.761,3.761,0,0,0,2.248-1.045l-.589-.589.59.589a3.779,3.779,0,0,0,1.047-2.248h4.2a.834.834,0,0,1,.833.833Zm0,0" transform="translate(0 0)" fill="#262d3f"/>
    </g>
  </g>
</svg>
