<svg xmlns="http://www.w3.org/2000/svg" xmlns:xlink="http://www.w3.org/1999/xlink" width="25" height="25" viewBox="0 0 25 25">
  <defs>
    <linearGradient id="linear-gradient" x1="0.5" x2="0.5" y2="1" gradientUnits="objectBoundingBox">
      <stop offset="0" stop-color="#0064d8"/>
      <stop offset="1" stop-color="#00326c"/>
    </linearGradient>
  </defs>
  <g id="administration" transform="translate(0 0)">
    <path id="Path_29168" data-name="Path 29168" d="M14.16,25H10.84a.978.978,0,0,1-.977-.977V22.566a10.316,10.316,0,0,1-2.615-1.085L6.216,22.513a.978.978,0,0,1-1.381,0L2.487,20.165a.978.978,0,0,1,0-1.381l1.032-1.032a10.315,10.315,0,0,1-1.085-2.615H.977A.978.978,0,0,1,0,14.16V10.84a.978.978,0,0,1,.977-.977H2.431a10.315,10.315,0,0,1,1.083-2.62L2.487,6.216a.978.978,0,0,1,0-1.381L4.835,2.487a.978.978,0,0,1,1.381,0L7.24,3.511A10.315,10.315,0,0,1,9.863,2.422V.976A.978.978,0,0,1,10.84,0h3.32a.978.978,0,0,1,.977.977V2.419a10.32,10.32,0,0,1,2.628,1.088l1.019-1.019a.978.978,0,0,1,1.381,0l2.348,2.348a.978.978,0,0,1,0,1.381L21.494,7.235a10.32,10.32,0,0,1,1.088,2.628h1.442A.978.978,0,0,1,25,10.84v3.32a.978.978,0,0,1-.977.977H22.578a10.322,10.322,0,0,1-1.089,2.623l1.024,1.024a.978.978,0,0,1,0,1.381l-2.348,2.348a.978.978,0,0,1-1.381,0l-1.027-1.027a10.321,10.321,0,0,1-2.62,1.083v1.455A.978.978,0,0,1,14.16,25ZM7.175,20.375a.488.488,0,0,1,.263.077,9.349,9.349,0,0,0,3.02,1.252.488.488,0,0,1,.383.477v1.842h3.32V22.184a.488.488,0,0,1,.383-.477,9.357,9.357,0,0,0,3.024-1.25.488.488,0,0,1,.608.067l1.3,1.3,2.348-2.348-1.3-1.3a.488.488,0,0,1-.066-.608,9.356,9.356,0,0,0,1.257-3.027.488.488,0,0,1,.477-.383h1.83V10.84H22.2a.488.488,0,0,1-.477-.383,9.35,9.35,0,0,0-1.255-3.032.489.489,0,0,1,.066-.608l1.291-1.291L19.474,3.178,18.183,4.469a.489.489,0,0,1-.608.066A9.354,9.354,0,0,0,14.544,3.28.488.488,0,0,1,14.16,2.8V.976H10.84v1.83a.488.488,0,0,1-.383.477A9.354,9.354,0,0,0,7.43,4.54a.488.488,0,0,1-.608-.066l-1.3-1.3L3.178,5.525l1.3,1.3a.488.488,0,0,1,.067.607,9.357,9.357,0,0,0-1.25,3.024.488.488,0,0,1-.477.383H.977v3.32H2.819a.489.489,0,0,1,.477.383,9.352,9.352,0,0,0,1.252,3.02.488.488,0,0,1-.066.608l-1.3,1.3,2.348,2.348,1.3-1.3a.488.488,0,0,1,.345-.143Zm0,0" fill="url(#linear-gradient)"/>
    <path id="Path_29169" data-name="Path 29169" d="M117.193,124.273a7.128,7.128,0,1,1,3.485-13.347.488.488,0,1,1-.478.852,6.152,6.152,0,1,0,2.5,2.62.488.488,0,1,1,.874-.436,7.126,7.126,0,0,1-6.38,10.311Zm0,0" transform="translate(-104.693 -104.647)" fill="url(#linear-gradient)"/>
    <path id="Path_29170" data-name="Path 29170" d="M344.84,152.989a.489.489,0,1,1,.345-.143A.491.491,0,0,1,344.84,152.989Zm0,0" transform="translate(-327.538 -144.59)" fill="url(#linear-gradient)"/>
    <path id="Path_29171" data-name="Path 29171" d="M172.225,189.526a.488.488,0,0,1-.345-.143l-3.088-3.088a.488.488,0,0,1,0-.69l1.751-1.752a.489.489,0,0,1,.691,0l.991.991,2.37-2.369a.488.488,0,0,1,.69,0l1.752,1.752a.488.488,0,0,1,0,.69l-4.466,4.466A.489.489,0,0,1,172.225,189.526Zm-2.4-3.576,2.4,2.4L176,184.572l-1.061-1.061-2.369,2.369a.488.488,0,0,1-.691,0l-.991-.991Zm0,0" transform="translate(-160.414 -173.429)" fill="url(#linear-gradient)"/>
  </g>
</svg>
