<svg xmlns="http://www.w3.org/2000/svg" width="81.643" height="81.643" viewBox="0 0 81.643 81.643">
  <g id="affordable" transform="translate(-13.549 -10.628)">
    <path id="Path_28476" data-name="Path 28476" d="M40.822,0A40.822,40.822,0,1,1,0,40.822,40.822,40.822,0,0,1,40.822,0Z" transform="translate(13.549 10.628)" fill="#fff"/>
    <g id="open-book_1_" data-name="open-book (1)" transform="translate(31.549 26.749)">
      <g id="Group_7643" data-name="Group 7643" transform="translate(0.389 0.672)">
        <path id="Path_28489" data-name="Path 28489" d="M56.858,27.22V11.653A17.343,17.343,0,0,0,49.853,10.1,50.231,50.231,0,0,0,37.4,11.653V45.9a50.231,50.231,0,0,1,12.453-1.557A17.343,17.343,0,0,1,56.858,45.9a24.125,24.125,0,0,1,7.783-1.557A40.442,40.442,0,0,1,76.317,45.9V11.653a11.3,11.3,0,0,0-4.67-.778V3.87c-6.227,2.335-14.788,7.783-14.788,7.783Z" transform="translate(-34.287 -3.87)" fill="#fff"/>
        <path id="Path_28490" data-name="Path 28490" d="M48.411,131.87v30.355a3.123,3.123,0,0,1-3.113,3.113H25.839v-3.113a24.125,24.125,0,0,1,7.783-1.557A40.442,40.442,0,0,1,45.3,162.225V131.87ZM25.839,162.225v3.113H6.38a3.122,3.122,0,0,1-3.113-3.113V131.87H6.38v30.355a50.231,50.231,0,0,1,12.453-1.557A17.345,17.345,0,0,1,25.839,162.225Z" transform="translate(-3.267 -120.195)" fill="#0064d8"/>
      </g>
      <path id="Path_28491" data-name="Path 28491" d="M42.42,46.2H3.5A3.488,3.488,0,0,1,0,42.7V12.347a.368.368,0,0,1,.389-.389.368.368,0,0,1,.389.389V42.7A2.758,2.758,0,0,0,3.5,45.427H22.572V42.936a17.893,17.893,0,0,0-6.616-1.4A51.569,51.569,0,0,0,3.581,43.092a.468.468,0,0,1-.311-.078.4.4,0,0,1-.156-.311V8.455a.4.4,0,0,1,.311-.389A52.908,52.908,0,0,1,15.956,6.51a16.49,16.49,0,0,1,7.161,1.635.417.417,0,0,1,.234.311V38.888a90.629,90.629,0,0,1,14.01-6.616V1.217A77.767,77.767,0,0,0,25.53,7.21a.4.4,0,0,1-.389-.7A73.364,73.364,0,0,1,37.672.283c.156-.078.234,0,.389.078a.4.4,0,0,1,.156.311V32.584a.428.428,0,0,1-.234.389,84.119,84.119,0,0,0-14.711,7.005.354.354,0,0,1-.389,0,.417.417,0,0,1-.234-.311V8.767a17.893,17.893,0,0,0-6.616-1.4A50.428,50.428,0,0,0,3.97,8.845V42.313a50.83,50.83,0,0,1,12.064-1.479,16.259,16.259,0,0,1,7.005,1.557,23.672,23.672,0,0,1,7.783-1.557,43.184,43.184,0,0,1,11.286,1.4V8.845a10.806,10.806,0,0,0-1.323-.234c-.234-.078-.389-.234-.311-.467a.343.343,0,0,1,.467-.311c1.012.156,1.635.311,1.635.311a.517.517,0,0,1,.311.389V42.78a.4.4,0,0,1-.156.311.583.583,0,0,1-.389.078,40.6,40.6,0,0,0-11.519-1.557,24.947,24.947,0,0,0-7.394,1.4V45.5H42.5a2.758,2.758,0,0,0,2.724-2.724V12.425a.389.389,0,1,1,.778,0V42.78A3.593,3.593,0,0,1,42.42,46.2ZM8.173,34.53a.4.4,0,0,1-.389-.311c-.078-.234.078-.389.311-.467a24,24,0,0,1,10.274-.389.4.4,0,0,1-.156.778,22.349,22.349,0,0,0-9.963.389Zm18.68-3.113c-.156,0-.311-.078-.311-.234a.516.516,0,0,1,.156-.545,62,62,0,0,1,7.083-3.113.369.369,0,1,1,.234.7,51.07,51.07,0,0,0-6.927,3.113A.286.286,0,0,1,26.853,31.416ZM8.173,29.86a.4.4,0,0,1-.389-.311c-.078-.234.078-.389.311-.467a24,24,0,0,1,10.274-.389.4.4,0,0,1-.156.778,22.349,22.349,0,0,0-9.963.389Zm18.68-3.113c-.156,0-.311-.078-.311-.234a.516.516,0,0,1,.156-.545,62,62,0,0,1,7.083-3.113.369.369,0,0,1,.234.7,51.07,51.07,0,0,0-6.927,3.113A.286.286,0,0,1,26.853,26.746ZM8.173,25.19a.4.4,0,0,1-.389-.311c-.078-.234.078-.389.311-.467a24,24,0,0,1,10.274-.389.4.4,0,1,1-.156.778,22.349,22.349,0,0,0-9.963.389Zm18.68-3.113c-.156,0-.311-.078-.311-.233A.516.516,0,0,1,26.7,21.3a62,62,0,0,1,7.083-3.113.369.369,0,0,1,.234.7A51.071,51.071,0,0,0,27.086,22,.286.286,0,0,1,26.853,22.076ZM8.173,20.52a.4.4,0,0,1-.389-.311c-.078-.234.078-.389.311-.467a24,24,0,0,1,10.274-.389.4.4,0,1,1-.156.778,22.349,22.349,0,0,0-9.963.389Zm18.68-3.113c-.156,0-.311-.078-.311-.234a.516.516,0,0,1,.156-.545,62,62,0,0,1,7.083-3.113.369.369,0,0,1,.234.7,51.069,51.069,0,0,0-6.927,3.113A.286.286,0,0,1,26.853,17.406ZM8.173,15.85a.4.4,0,0,1-.389-.311c-.078-.234.078-.389.311-.467a24,24,0,0,1,10.274-.389.4.4,0,1,1-.156.778,22.349,22.349,0,0,0-9.963.389Zm18.68-3.113c-.156,0-.311-.078-.311-.234a.516.516,0,0,1,.156-.545A62,62,0,0,1,33.78,8.845a.369.369,0,0,1,.234.7,51.07,51.07,0,0,0-6.927,3.113A.286.286,0,0,1,26.853,12.736Z" fill="#262d3f"/>
    </g>
  </g>
</svg>
