<svg xmlns="http://www.w3.org/2000/svg" width="16" height="15.031" viewBox="0 0 16 15.031">
  <g id="book-now" transform="translate(-1537 -2120)">
    <g id="booking" transform="translate(1537 2120)">
      <path id="Path_28294" data-name="Path 28294" d="M12.71,15.5H3.29a3.29,3.29,0,0,0-.02,6.581H4.748V19.5a2.1,2.1,0,0,1,2.094-2.094h0A2.1,2.1,0,0,1,8.936,19.5v2.578H12.71a3.29,3.29,0,0,0,0-6.581Zm.931,2.831-1.875,1.875a.469.469,0,0,1-.663,0l-.937-.937a.469.469,0,0,1,.663-.663l.606.606,1.544-1.544a.469.469,0,1,1,.663.663Z" transform="translate(0 -15.5)" fill="#181818"/>
      <path id="Path_28295" data-name="Path 28295" d="M95,111.634l-3.018-.314v-3.584a1.156,1.156,0,0,0-2.312,0v6H89.66l-1.141-.953a1.112,1.112,0,1,0-1.425,1.707l2.317,1.933h6.823V113.03A1.406,1.406,0,0,0,95,111.634Z" transform="translate(-83.984 -103.735)" fill="#181818"/>
      <path id="Path_28296" data-name="Path 28296" d="M181.95,452.438a.469.469,0,0,0,.469.469h5.625a.469.469,0,0,0,.469-.469V451.5H181.95Z" transform="translate(-176.264 -437.875)" fill="#181818"/>
    </g>
  </g>
</svg>
