<svg xmlns="http://www.w3.org/2000/svg" width="26.333" height="24.739" viewBox="0 0 26.333 24.739">
  <g id="buy" transform="translate(0 -15.5)">
    <path id="Path_28294" data-name="Path 28294" d="M20.918,15.5H5.415a5.415,5.415,0,0,0-.032,10.83H7.815V22.088a3.45,3.45,0,0,1,3.446-3.446h.008a3.451,3.451,0,0,1,3.439,3.446V26.33h6.211a5.415,5.415,0,0,0,0-10.83Zm1.532,4.66-3.086,3.086a.771.771,0,0,1-1.091,0L16.731,21.7a.771.771,0,1,1,1.091-1.091l1,1,2.54-2.54A.771.771,0,1,1,22.45,20.16Z" transform="translate(0 0)" fill="#fff"/>
    <path id="Path_28295" data-name="Path 28295" d="M100.365,114.9l-4.966-.516v-5.9a1.9,1.9,0,1,0-3.806,0v9.871h-.017L89.7,116.786a1.83,1.83,0,1,0-2.346,2.81l3.813,3.182h11.229v-5.583A2.314,2.314,0,0,0,100.365,114.9Z" transform="translate(-82.235 -86.396)" fill="#fff"/>
    <path id="Path_28296" data-name="Path 28296" d="M181.95,453.043a.772.772,0,0,0,.771.771h9.258a.771.771,0,0,0,.771-.771V451.5h-10.8Z" transform="translate(-172.592 -413.576)" fill="#fff"/>
  </g>
</svg>
