<svg xmlns="http://www.w3.org/2000/svg" width="29" height="26.583" viewBox="0 0 29 26.583">
  <g id="checkmark" transform="translate(0 -0.004)">
    <path id="Path_54" data-name="Path 54" d="M17.365,17.973a3.623,3.623,0,0,1-5.126,0L7.1,12.837a3.624,3.624,0,1,1,5.126-5.126L14.8,10.283l7.1-7.1A13.222,13.222,0,1,0,25.987,9.35Zm0,0" fill="#1c2848"/>
    <path id="Path_55" data-name="Path 55" d="M155.672,36.737a1.2,1.2,0,0,1-.854-.354l-5.135-5.135a1.208,1.208,0,1,1,1.708-1.708l4.281,4.281,12.135-12.135a1.208,1.208,0,0,1,1.708,1.709l-12.99,12.989a1.2,1.2,0,0,1-.854.354Zm0,0" transform="translate(-140.87 -20.119)" fill="#0064d8"/>
  </g>
</svg>
