<svg xmlns="http://www.w3.org/2000/svg" width="24.75" height="24.75" viewBox="0 0 24.75 24.75">
  <g id="check" transform="translate(0.5 0.5)">
    <path id="Path_29051" data-name="Path 29051" d="M11.875,23.75A11.875,11.875,0,1,1,23.75,11.875,11.875,11.875,0,0,1,11.875,23.75Zm0-22.266A10.391,10.391,0,1,0,22.266,11.875,10.391,10.391,0,0,0,11.875,1.484Zm0,0" fill="#fff" stroke="#fff" stroke-width="1"/>
    <path id="Path_29052" data-name="Path 29052" d="M99.9,154.238a.742.742,0,0,1-.525-.217l-2.969-2.969A.742.742,0,0,1,97.456,150l2.444,2.444,9.176-9.176a.742.742,0,0,1,1.049,1.049l-9.7,9.7a.742.742,0,0,1-.525.217Zm0,0" transform="translate(-91.735 -136.425)" fill="#fff" stroke="#fff" stroke-width="1"/>
  </g>
</svg>
