<svg xmlns="http://www.w3.org/2000/svg" xmlns:xlink="http://www.w3.org/1999/xlink" width="143.452" height="148.519" viewBox="0 0 143.452 148.519">
  <defs>
    <filter id="Path_28364" x="0" y="10" width="143.452" height="138.519" filterUnits="userSpaceOnUse">
      <feOffset dy="3" input="SourceAlpha"/>
      <feGaussianBlur stdDeviation="3" result="blur"/>
      <feFlood flood-opacity="0.161"/>
      <feComposite operator="in" in2="blur"/>
      <feComposite in="SourceGraphic"/>
    </filter>
  </defs>
  <g id="classroom-gray" transform="translate(-166 -2231)">
    <g id="Group_7444" data-name="Group 7444" transform="translate(3.415 119)">
      <g id="Group_7443" data-name="Group 7443">
        <g id="Untitled-1_2_" data-name="Untitled-1 (2)" transform="translate(150.159 2110.959)">
          <g id="Layer_1" data-name="Layer 1" transform="translate(12.841 1.041)">
            <g id="Group_8318" data-name="Group 8318">
              <path id="Path_28363" data-name="Path 28363" d="M1033.782,568.079c-14.311,13.521-43.368,12.56-57.929,0-10.532-9.15-5.372-19.432-9.927-30.478-5.688-13.732-11.968-22.3-3.686-37.443,5.661-10.348,16.747-18.577,28.609-19.854,14.3-1.527,21.065,6.7,26.752,18.234,3.357,6.859,5.569,12.863,11.757,17.695,5.622,4.41,13.626,5.859,17.339,12.428C1053.82,541.261,1042.037,558.955,1033.782,568.079Z" transform="translate(-907.639 -480.121)" fill="silver" opacity="0.6"/>
              <g transform="matrix(1, 0, 0, 1, -0.41, 0)" filter="url(#Path_28364)">
                <path id="Path_28364-2" data-name="Path 28364" d="M1041.759,551.1c.961,22.961-31.518,73.293-60.562,60.443-16.918-7.491-9.071-30.5-31.281-27.937-8.61,1-14.561,5.714-22.474-.237-5.714-4.292-8.834-13.468-10.164-20.064-6.5-32.256,21.289-71.647,55.611-70.173,15.535.671,32.137,8.242,44.895,16.826C1034.531,521.238,1040.969,531.981,1041.759,551.1Z" transform="translate(-907.33 -477.09)" fill="#f5f5f5"/>
              </g>
            </g>
          </g>
        </g>
      </g>
    </g>
    <g id="meeting" transform="translate(208 2265)">
      <g id="Group_7455" data-name="Group 7455" transform="translate(1.113 17.113)">
        <path id="Path_28366" data-name="Path 28366" d="M170,26h36.961V59.4H170Z" transform="translate(-152.188 -26)" fill="#fff"/>
        <path id="Path_28377" data-name="Path 28377" d="M3,0A3.279,3.279,0,0,1,6,3.5,3.279,3.279,0,0,1,3,7,3.279,3.279,0,0,1,0,3.5,3.279,3.279,0,0,1,3,0Z" transform="translate(5.887 1.887)" fill="#eac6bb"/>
        <path id="Path_28367" data-name="Path 28367" d="M14.453,166.078V146.039A4.453,4.453,0,0,1,10,141.586V130.453A4.453,4.453,0,0,1,14.453,126H41.84a4.453,4.453,0,0,1-4.453,4.453H23.359v35.625Z" transform="translate(-10 -114.867)" fill="#fff"/>
        <path id="Path_28368" data-name="Path 28368" d="M377.586,450.453H362A4.453,4.453,0,0,1,366.453,446h6.68A4.453,4.453,0,0,1,377.586,450.453Z" transform="translate(-322.813 -399.242)" fill="#0064d8"/>
        <path id="Path_28369" data-name="Path 28369" d="M191.586,450.453H176A4.453,4.453,0,0,1,180.453,446h6.68A4.453,4.453,0,0,1,191.586,450.453Z" transform="translate(-157.52 -399.242)" fill="#0064d8"/>
        <g id="Group_7454" data-name="Group 7454" transform="translate(22.357 38.004)">
          <ellipse id="Ellipse_29" data-name="Ellipse 29" cx="3" cy="3.5" rx="3" ry="3.5" transform="translate(21.529 -0.118)" fill="silver"/>
          <ellipse id="Ellipse_30" data-name="Ellipse 30" cx="4" cy="3.5" rx="4" ry="3.5" transform="translate(-0.471 -0.118)" fill="silver"/>
        </g>
      </g>
      <g id="Group_7457" data-name="Group 7457">
        <g id="Group_7458" data-name="Group 7458">
          <rect id="Rectangle_464" data-name="Rectangle 464" width="37" height="6" transform="translate(19 17)" fill="#0064d8"/>
          <g id="Group_7456" data-name="Group 7456" transform="translate(0 16)">
            <path id="Path_28370" data-name="Path 28370" d="M242.7,109.361h3.992l-.326.326a1.113,1.113,0,0,0,1.575,1.575l2.227-2.227a1.113,1.113,0,0,0,0-1.575l-2.227-2.227a1.113,1.113,0,0,0-1.575,1.575l.326.326H242.7a1.115,1.115,0,0,1-1.113-1.113,3.326,3.326,0,0,0-.853-2.227,3.326,3.326,0,0,0,.853-2.227,1.115,1.115,0,0,1,1.113-1.113h3.992l-.326.326a1.113,1.113,0,0,0,1.575,1.575l2.227-2.227a1.113,1.113,0,0,0,0-1.575l-2.227-2.227a1.113,1.113,0,0,0-1.575,1.575l.326.326H242.7a3.344,3.344,0,0,0-3.34,3.34,1.115,1.115,0,0,1-1.113,1.113,3.344,3.344,0,0,0-3.34,3.34v4.453a1.113,1.113,0,0,1-2.227,0,3.344,3.344,0,0,0-3.34-3.34h-2.227a1.113,1.113,0,1,0,0,2.227h2.227a1.115,1.115,0,0,1,1.113,1.113,3.34,3.34,0,0,0,6.68,0v-4.453a1.113,1.113,0,1,1,2.227,0A3.344,3.344,0,0,0,242.7,109.361Z" transform="translate(-200.84 -87.096)"/>
            <path id="Path_28371" data-name="Path 28371" d="M58.906,40.453a4.453,4.453,0,1,0-4.453,4.453A4.458,4.458,0,0,0,58.906,40.453ZM54.453,42.68a2.227,2.227,0,1,1,2.227-2.227A2.229,2.229,0,0,1,54.453,42.68Z" transform="translate(-44.434 -33.773)"/>
            <path id="Path_28372" data-name="Path 28372" d="M178.246,436h-6.68A5.573,5.573,0,0,0,166,441.566a1.113,1.113,0,0,0,1.113,1.113H182.7a1.113,1.113,0,0,0,1.113-1.113A5.573,5.573,0,0,0,178.246,436Zm-9.829,4.453a3.346,3.346,0,0,1,3.149-2.227h6.68a3.346,3.346,0,0,1,3.149,2.227Z" transform="translate(-147.52 -389.242)"/>
            <path id="Path_28373" data-name="Path 28373" d="M214.906,360.453a4.453,4.453,0,1,0-4.453,4.453A4.458,4.458,0,0,0,214.906,360.453Zm-4.453,2.227a2.227,2.227,0,1,1,2.227-2.227A2.229,2.229,0,0,1,210.453,362.68Z" transform="translate(-183.066 -318.148)"/>
            <path id="Path_28374" data-name="Path 28374" d="M364.246,436h-6.68A5.573,5.573,0,0,0,352,441.566a1.113,1.113,0,0,0,1.113,1.113H368.7a1.113,1.113,0,0,0,1.113-1.113A5.573,5.573,0,0,0,364.246,436Zm-9.829,4.453a3.346,3.346,0,0,1,3.149-2.227h6.68a3.346,3.346,0,0,1,3.149,2.227Z" transform="translate(-312.813 -389.242)"/>
            <path id="Path_28375" data-name="Path 28375" d="M400.906,360.453a4.453,4.453,0,1,0-4.453,4.453A4.458,4.458,0,0,0,400.906,360.453Zm-4.453,2.227a2.227,2.227,0,1,1,2.227-2.227A2.229,2.229,0,0,1,396.453,362.68Z" transform="translate(-348.359 -318.148)"/>
            <path id="Path_28376" data-name="Path 28376" d="M55.887,16H18.926a1.113,1.113,0,0,0-1.113,1.113v10.02H5.566A5.573,5.573,0,0,0,0,32.7V43.832a5.576,5.576,0,0,0,4.453,5.455V68.324a1.113,1.113,0,0,0,1.113,1.113h8.906a1.113,1.113,0,0,0,1.113-1.113V33.812h2.227v16.7a1.113,1.113,0,0,0,1.113,1.113H32.4a1.113,1.113,0,0,0,0-2.227H20.039V33.812H28.5a5.573,5.573,0,0,0,5.566-5.566,1.113,1.113,0,0,0-1.113-1.113H20.039V18.227H54.773V49.4H42.416a1.113,1.113,0,0,0,0,2.227H55.887A1.113,1.113,0,0,0,57,50.512v-33.4A1.113,1.113,0,0,0,55.887,16ZM28.5,31.586H14.473A1.113,1.113,0,0,0,13.359,32.7V67.211H11.133V48.285a1.113,1.113,0,0,0-2.227,0V67.211H6.68V34.926a1.113,1.113,0,1,0-2.227,0V46.98a3.345,3.345,0,0,1-2.227-3.148V32.7a3.345,3.345,0,0,1,3.34-3.341H31.649A3.345,3.345,0,0,1,28.5,31.586Z" transform="translate(0 -16)"/>
            <circle id="Ellipse_31" data-name="Ellipse 31" cx="1" cy="1" r="1" transform="translate(37 34)"/>
          </g>
        </g>
      </g>
    </g>
  </g>
</svg>
