<svg xmlns="http://www.w3.org/2000/svg" xmlns:xlink="http://www.w3.org/1999/xlink" width="61.516" height="59.466" viewBox="0 0 61.516 59.466">
  <defs>
    <linearGradient id="linear-gradient" x1="0.5" x2="0.5" y2="1" gradientUnits="objectBoundingBox">
      <stop offset="0" stop-color="#0064d8"/>
      <stop offset="1" stop-color="#00326c"/>
    </linearGradient>
  </defs>
  <g id="control" transform="translate(-3 -3)">
    <path id="Path_28558" data-name="Path 28558" d="M60.384,50.051H54.232a1.026,1.026,0,0,1-1.025-1.025V48H51.156v1.025A3.08,3.08,0,0,0,54.232,52.1h6.152a1.025,1.025,0,0,1,0,2.051H44.9a5.121,5.121,0,0,1,.1,1.025,3.041,3.041,0,0,1-.189,1.025H60.384a3.076,3.076,0,1,0,0-6.152Z" transform="translate(1.057 1.137)" fill="url(#linear-gradient)"/>
    <path id="Path_28559" data-name="Path 28559" d="M40.081,52H38.273a4.855,4.855,0,0,0-1.489.245,3.51,3.51,0,0,1,2.272,3.275A3.4,3.4,0,0,1,39,56.1h3.129a1.026,1.026,0,0,0,1.025-1.025A3.079,3.079,0,0,0,40.081,52Z" transform="translate(0.854 1.238)" fill="url(#linear-gradient)"/>
    <path id="Path_28560" data-name="Path 28560" d="M62.112,43.076V40H18.4a5.461,5.461,0,0,1-1.4.749V42.29a12.09,12.09,0,0,1,6.652,3.86H59.036A3.078,3.078,0,0,0,62.112,43.076ZM51.859,44.1H49.809V42.051h2.051Zm4.1,0H53.91V42.051H55.96Zm2.051-2.051h2.051V44.1H58.011Z" transform="translate(0.354 0.935)" fill="#1c2848"/>
    <path id="Path_28561" data-name="Path 28561" d="M12.744,24.749a3.06,3.06,0,0,1,2.752-1.7h1.632a3.079,3.079,0,0,0-2.9-2.05h-4.1A5.132,5.132,0,0,0,5,26.126v1.024h6.543Z" transform="translate(0.051 0.455)" fill="url(#linear-gradient)"/>
    <path id="Path_28562" data-name="Path 28562" d="M38.368,50.051h1.809a5.122,5.122,0,0,1,1.025.1V48H33v4.589A6.973,6.973,0,0,1,38.368,50.051Z" transform="translate(0.758 1.137)" fill="url(#linear-gradient)"/>
    <path id="Path_28563" data-name="Path 28563" d="M24.9,59.287l-.849-1.866,1.364-.62-.608-4.252A9.956,9.956,0,0,0,5,53.956V61.43H20.423a8.468,8.468,0,0,1-2.624-4L16.321,52.5l1.964-.589,1.478,4.928a6.446,6.446,0,0,0,8.84,4.016l3.572-1.624-1.2-2.7Z" transform="translate(0.051 1.036)" fill="url(#linear-gradient)"/>
    <path id="Path_28564" data-name="Path 28564" d="M35.652,54a1.529,1.529,0,0,0-.648.131l-2.848,1.295,1.2,2.7,2.9-1.32A1.47,1.47,0,0,0,35.652,54Z" transform="translate(0.737 1.289)" fill="url(#linear-gradient)"/>
    <path id="Path_28565" data-name="Path 28565" d="M5,29v2.744A7.953,7.953,0,0,0,9.1,38.7v-3.12l-.662-.662a4.775,4.775,0,0,1-1.388-3.352A4.7,4.7,0,0,1,7.81,29Z" transform="translate(0.051 0.657)" fill="url(#linear-gradient)"/>
    <path id="Path_28566" data-name="Path 28566" d="M18.085,21.329a5.083,5.083,0,0,1,.836,1.9h2.153a3.076,3.076,0,1,1,0,6.152H19.131l.759,7.586a4.272,4.272,0,0,1-.172,1.642H62.084V17.076a3.069,3.069,0,0,0-2.115-2.907A11.274,11.274,0,0,1,37.53,14H22.916a11.191,11.191,0,0,1-4.831,7.329ZM60.034,36.556H42.6V34.505h17.43ZM38.5,26.3H60.034v2.051H38.5Zm0,4.1H60.034v2.051H38.5Zm0,4.1h2.051v2.051H38.5Zm-3.076,1.025h-8.2V29.379h8.2ZM26.2,16.051H36.453V18.1H26.2Zm0,4.1H36.453V22.2H26.2Zm0,4.1H36.453V26.3H26.2Z" transform="translate(0.381 0.278)" fill="url(#linear-gradient)"/>
    <path id="Path_28567" data-name="Path 28567" d="M7.3,20.009a7.132,7.132,0,0,1,2.874-.6h4.1a5.078,5.078,0,0,1,2.642.744A9.226,9.226,0,1,0,7.3,20.009ZM5.051,11.2H8.76l1.226,2.454,3.267-9.8,2.79,8.368H19.4v2.051h-4.84l-1.311-3.935L10.368,19,7.493,13.253H5.051Z" fill="#1c2848"/>
    <path id="Path_28568" data-name="Path 28568" d="M48.227,22.455A9.227,9.227,0,1,0,39,13.227,9.238,9.238,0,0,0,48.227,22.455ZM46.177,8.1h8.2v2.051h-8.2Zm0,4.1h8.2v2.051h-8.2Zm0,4.1h8.2v2.051h-8.2Zm-4.1-8.2h2.051v2.051H42.076Zm0,4.1h2.051v2.051H42.076Zm0,4.1h2.051v2.051H42.076Z" transform="translate(0.91 0.025)" fill="url(#linear-gradient)"/>
    <path id="Path_28569" data-name="Path 28569" d="M14.855,42.329c.1,0,.2.011.3.013V39.479l.774-.2a4.205,4.205,0,0,0,1.508-.686,2.229,2.229,0,0,0,.645-1.807L17.3,29H10.451l-.663.663A2.673,2.673,0,0,0,9,31.563a2.707,2.707,0,0,0,.787,1.9l1.263,1.263v8.23a11.928,11.928,0,0,1,3.8-.628Z" transform="translate(0.152 0.657)" fill="url(#linear-gradient)"/>
    <path id="Path_28570" data-name="Path 28570" d="M14.36,25.566l-.742,1.484h7.569a1.025,1.025,0,0,0,0-2.051h-5.91A1.018,1.018,0,0,0,14.36,25.566Z" transform="translate(0.268 0.556)" fill="url(#linear-gradient)"/>
  </g>
</svg>
