<svg xmlns="http://www.w3.org/2000/svg" width="29.5" height="29.505" viewBox="0 0 29.5 29.505">
  <g id="content" transform="translate(0.25 0.255)">
    <path id="Path_398" data-name="Path 398" d="M290.182,198.9a.483.483,0,0,0,.651.212,41.429,41.429,0,0,1,4.277-1.9.483.483,0,0,0-.29-.922,41.452,41.452,0,0,0-4.423,1.963.483.483,0,0,0-.214.651Z" transform="translate(-273.695 -185.149)" fill="#fff" stroke="#fff" stroke-width="0.5"/>
    <path id="Path_399" data-name="Path 399" d="M290.614,96.768a.483.483,0,0,0,.219-.052,41.436,41.436,0,0,1,4.277-1.9.483.483,0,1,0-.29-.922,41.456,41.456,0,0,0-4.423,1.963.483.483,0,0,0,.219.914Z" transform="translate(-273.695 -88.55)" fill="#fff" stroke="#fff" stroke-width="0.5"/>
    <path id="Path_400" data-name="Path 400" d="M28.517,7.25a.483.483,0,0,0-.483.483v18.85a1.45,1.45,0,0,1-1.45,1.45h-11.6V26.922a14.243,14.243,0,0,1,4.35-.822,24.93,24.93,0,0,1,7.1.942.483.483,0,0,0,.636-.458V5.317a.483.483,0,0,0-.379-.472s-.379-.084-1.027-.2a.483.483,0,0,0-.175.95c.247.045.454.085.614.118V25.94a27.3,27.3,0,0,0-6.767-.807,15.184,15.184,0,0,0-4.814.926,11.323,11.323,0,0,0-4.369-.926,32.571,32.571,0,0,0-7.25.828V5.691a31.814,31.814,0,0,1,7.25-.857,10.48,10.48,0,0,1,3.867.8V24.65a.483.483,0,0,0,.732.414,55.335,55.335,0,0,1,9.087-4.306.483.483,0,0,0,.332-.458V.483a.483.483,0,0,0-.653-.452A51.415,51.415,0,0,0,15.694,3.94a.483.483,0,0,0,.512.82A51.66,51.66,0,0,1,23.2,1.19V19.954a54.165,54.165,0,0,0-8.217,3.856V5.317a.483.483,0,0,0-.268-.432A11.192,11.192,0,0,0,10.15,3.867a31.369,31.369,0,0,0-7.865.986.483.483,0,0,0-.352.464V26.583a.483.483,0,0,0,.483.483.476.476,0,0,0,.132-.019,31.048,31.048,0,0,1,7.6-.947,10.456,10.456,0,0,1,3.867.8v1.137H2.417a1.45,1.45,0,0,1-1.45-1.45V7.733a.483.483,0,0,0-.967,0v18.85A2.417,2.417,0,0,0,2.417,29H26.583A2.417,2.417,0,0,0,29,26.583V7.733A.483.483,0,0,0,28.517,7.25Z" transform="translate(0 0)" fill="#fff" stroke="#fff" stroke-width="0.5"/>
    <path id="Path_401" data-name="Path 401" d="M290.182,147.7a.483.483,0,0,0,.651.211,41.442,41.442,0,0,1,4.277-1.9.483.483,0,0,0-.29-.922,41.462,41.462,0,0,0-4.423,1.963.483.483,0,0,0-.214.652Z" transform="translate(-273.695 -136.849)" fill="#fff" stroke="#fff" stroke-width="0.5"/>
    <path id="Path_402" data-name="Path 402" d="M290.182,250.1a.483.483,0,0,0,.651.212,41.433,41.433,0,0,1,4.277-1.9.483.483,0,0,0-.29-.922,41.441,41.441,0,0,0-4.423,1.963.483.483,0,0,0-.214.651Z" transform="translate(-273.695 -233.449)" fill="#fff" stroke="#fff" stroke-width="0.5"/>
    <path id="Path_403" data-name="Path 403" d="M92.21,153.913a15.339,15.339,0,0,0-6.518.23.483.483,0,0,0,.125.95.491.491,0,0,0,.126-.016,14.567,14.567,0,0,1,6.047-.223.483.483,0,1,0,.22-.941Z" transform="translate(-80.498 -144.943)" fill="#fff" stroke="#fff" stroke-width="0.5"/>
    <path id="Path_404" data-name="Path 404" d="M92.21,205.117a15.349,15.349,0,0,0-6.518.23.483.483,0,0,0,.125.95.492.492,0,0,0,.126-.016,14.565,14.565,0,0,1,6.047-.222.483.483,0,1,0,.22-.941Z" transform="translate(-80.498 -193.247)" fill="#fff" stroke="#fff" stroke-width="0.5"/>
    <path id="Path_405" data-name="Path 405" d="M290.182,301.3a.483.483,0,0,0,.651.212,41.43,41.43,0,0,1,4.277-1.9.483.483,0,0,0-.29-.922,41.435,41.435,0,0,0-4.423,1.963.483.483,0,0,0-.214.651Z" transform="translate(-273.695 -281.75)" fill="#fff" stroke="#fff" stroke-width="0.5"/>
    <path id="Path_406" data-name="Path 406" d="M92.21,256.315a15.34,15.34,0,0,0-6.518.23.483.483,0,0,0,.125.951.5.5,0,0,0,.126-.017,14.565,14.565,0,0,1,6.047-.223.483.483,0,1,0,.22-.941Z" transform="translate(-80.498 -241.545)" fill="#fff" stroke="#fff" stroke-width="0.5"/>
    <path id="Path_407" data-name="Path 407" d="M92.21,358.713a15.338,15.338,0,0,0-6.518.23.483.483,0,0,0,.125.951.493.493,0,0,0,.126-.017,14.566,14.566,0,0,1,6.047-.223.483.483,0,1,0,.22-.941Z" transform="translate(-80.498 -338.143)" fill="#fff" stroke="#fff" stroke-width="0.5"/>
    <path id="Path_408" data-name="Path 408" d="M92.21,307.512a15.33,15.33,0,0,0-6.518.23.483.483,0,0,0,.125.951.491.491,0,0,0,.126-.017,14.567,14.567,0,0,1,6.047-.222.483.483,0,1,0,.22-.941Z" transform="translate(-80.498 -289.842)" fill="#fff" stroke="#fff" stroke-width="0.5"/>
  </g>
</svg>
