<svg xmlns="http://www.w3.org/2000/svg" width="47.167" height="44.219" viewBox="0 0 47.167 44.219">
  <g id="course-classroom" transform="translate(0 -16)">
    <g id="Group_7455" data-name="Group 7455" transform="translate(0.921 16.921)">
      <path id="Path_28366" data-name="Path 28366" d="M170,26h30.585V53.637H170Z" transform="translate(-155.26 -26)" fill="#fff"/>
      <path id="Path_28377" data-name="Path 28377" d="M2.482,0A2.713,2.713,0,0,1,4.965,2.9a2.713,2.713,0,0,1-2.482,2.9A2.713,2.713,0,0,1,0,2.9,2.713,2.713,0,0,1,2.482,0Z" transform="translate(4.871 1.561)" fill="#eac6bb"/>
      <path id="Path_28367" data-name="Path 28367" d="M13.685,159.164V142.582A3.685,3.685,0,0,1,10,138.9v-9.212A3.685,3.685,0,0,1,13.685,126H36.347a3.685,3.685,0,0,1-3.685,3.685H21.055v29.479Z" transform="translate(-10 -116.788)" fill="#fff"/>
      <path id="Path_28368" data-name="Path 28368" d="M374.9,449.685H362A3.685,3.685,0,0,1,365.685,446h5.527A3.685,3.685,0,0,1,374.9,449.685Z" transform="translate(-329.573 -407.309)" fill="#0064d8"/>
      <path id="Path_28369" data-name="Path 28369" d="M188.9,449.685H176A3.685,3.685,0,0,1,179.685,446h5.527A3.685,3.685,0,0,1,188.9,449.685Z" transform="translate(-160.708 -407.309)" fill="#0064d8"/>
      <g id="Group_7454" data-name="Group 7454" transform="translate(18.111 31.351)">
        <ellipse id="Ellipse_29" data-name="Ellipse 29" cx="2.482" cy="2.896" rx="2.482" ry="2.896" transform="translate(18.205 0)" fill="silver"/>
        <ellipse id="Ellipse_30" data-name="Ellipse 30" cx="3.31" cy="2.896" rx="3.31" ry="2.896" transform="translate(0 0)" fill="silver"/>
      </g>
    </g>
    <g id="Group_7457" data-name="Group 7457" transform="translate(0 16)">
      <g id="Group_7458" data-name="Group 7458">
        <rect id="Rectangle_464" data-name="Rectangle 464" width="30.617" height="4.965" transform="translate(15.722 0.827)" fill="#0064d8"/>
        <g id="Group_7456" data-name="Group 7456">
          <path id="Path_28370" data-name="Path 28370" d="M239.818,107.057h3.3l-.27.27a.921.921,0,0,0,1.3,1.3L246,106.787a.921.921,0,0,0,0-1.3l-1.842-1.842a.921.921,0,1,0-1.3,1.3l.27.27h-3.3a.922.922,0,0,1-.921-.921,2.752,2.752,0,0,0-.706-1.842,2.752,2.752,0,0,0,.706-1.842.922.922,0,0,1,.921-.921h3.3l-.27.27a.921.921,0,0,0,1.3,1.3L246,99.417a.921.921,0,0,0,0-1.3l-1.842-1.842a.921.921,0,0,0-1.3,1.3l.27.27h-3.3a2.767,2.767,0,0,0-2.764,2.764.922.922,0,0,1-.921.921,2.767,2.767,0,0,0-2.764,2.764v3.685a.921.921,0,1,1-1.842,0,2.767,2.767,0,0,0-2.764-2.764h-1.842a.921.921,0,0,0,0,1.842h1.842a.922.922,0,0,1,.921.921,2.764,2.764,0,0,0,5.527,0v-3.685a.921.921,0,0,1,1.842,0A2.767,2.767,0,0,0,239.818,107.057Z" transform="translate(-205.18 -88.632)"/>
          <path id="Path_28371" data-name="Path 28371" d="M57.37,39.685a3.685,3.685,0,1,0-3.685,3.685A3.689,3.689,0,0,0,57.37,39.685Zm-3.685,1.842a1.842,1.842,0,1,1,1.842-1.842A1.845,1.845,0,0,1,53.685,41.527Z" transform="translate(-45.394 -34.158)"/>
          <path id="Path_28372" data-name="Path 28372" d="M176.133,436h-5.527A4.611,4.611,0,0,0,166,440.606a.921.921,0,0,0,.921.921h12.9a.921.921,0,0,0,.921-.921A4.611,4.611,0,0,0,176.133,436ZM168,439.685a2.768,2.768,0,0,1,2.606-1.842h5.527a2.768,2.768,0,0,1,2.606,1.842Z" transform="translate(-150.708 -397.309)"/>
          <path id="Path_28373" data-name="Path 28373" d="M213.37,359.685a3.685,3.685,0,1,0-3.685,3.685A3.689,3.689,0,0,0,213.37,359.685Zm-3.685,1.842a1.842,1.842,0,1,1,1.842-1.842A1.845,1.845,0,0,1,209.685,361.527Z" transform="translate(-187.023 -324.678)"/>
          <path id="Path_28374" data-name="Path 28374" d="M362.133,436h-5.527A4.611,4.611,0,0,0,352,440.606a.921.921,0,0,0,.921.921h12.9a.921.921,0,0,0,.921-.921A4.611,4.611,0,0,0,362.133,436ZM354,439.685a2.768,2.768,0,0,1,2.606-1.842h5.527a2.768,2.768,0,0,1,2.606,1.842Z" transform="translate(-319.573 -397.309)"/>
          <path id="Path_28375" data-name="Path 28375" d="M399.37,359.685a3.685,3.685,0,1,0-3.685,3.685A3.689,3.689,0,0,0,399.37,359.685Zm-3.685,1.842a1.842,1.842,0,1,1,1.842-1.842A1.845,1.845,0,0,1,395.685,361.527Z" transform="translate(-355.888 -324.678)"/>
          <path id="Path_28376" data-name="Path 28376" d="M46.245,16H15.661a.921.921,0,0,0-.921.921v8.291H4.606A4.611,4.611,0,0,0,0,29.818v9.212a4.614,4.614,0,0,0,3.685,4.514V59.3a.921.921,0,0,0,.921.921h7.37A.921.921,0,0,0,12.9,59.3V30.74H14.74V44.558a.921.921,0,0,0,.921.921H26.808a.921.921,0,1,0,0-1.842H16.582V30.74h7a4.611,4.611,0,0,0,4.606-4.606.921.921,0,0,0-.921-.921H16.582v-7.37H45.324V43.637H35.1a.921.921,0,0,0,0,1.842H46.245a.921.921,0,0,0,.921-.921V16.921A.921.921,0,0,0,46.245,16ZM23.583,28.9H11.976a.921.921,0,0,0-.921.921V58.376H9.212V42.715a.921.921,0,0,0-1.842,0V58.376H5.527V31.661a.921.921,0,0,0-1.842,0v9.975a2.768,2.768,0,0,1-1.842-2.605V29.818a2.768,2.768,0,0,1,2.764-2.765H26.189A2.768,2.768,0,0,1,23.583,28.9Z" transform="translate(0 -16)"/>
          <circle id="Ellipse_31" data-name="Ellipse 31" cx="0.827" cy="0.827" r="0.827" transform="translate(30.617 28.135)"/>
        </g>
      </g>
    </g>
  </g>
</svg>
