<svg id="course-online" xmlns="http://www.w3.org/2000/svg" width="49.885" height="49.885" viewBox="0 0 49.885 49.885">
  <g id="Group_7466" data-name="Group 7466" transform="translate(0.731 0.731)">
    <g id="Group_7464" data-name="Group 7464">
      <g id="Group_7459" data-name="Group 7459" transform="translate(0 4.194)">
        <path id="Path_28378" data-name="Path 28378" d="M53,83.908H10.423A2.923,2.923,0,0,1,7.5,80.985V53.468a2.923,2.923,0,0,1,2.923-2.923H53a2.923,2.923,0,0,1,2.923,2.923V80.985A2.923,2.923,0,0,1,53,83.908Z" transform="translate(-7.5 -50.545)" fill="silver"/>
        <path id="Path_28379" data-name="Path 28379" d="M447.423,50.545H444.5a2.923,2.923,0,0,1,2.923,2.923V80.985a2.923,2.923,0,0,1-2.923,2.923h2.923a2.923,2.923,0,0,0,2.923-2.923V53.468A2.923,2.923,0,0,0,447.423,50.545Z" transform="translate(-401.922 -50.545)" fill="silver"/>
        <path id="Path_28380" data-name="Path 28380" d="M37.5,106.21V80.935a.39.39,0,0,1,.39-.39h41.8a.39.39,0,0,1,.39.39V106.21a.39.39,0,0,1-.39.39H37.89A.39.39,0,0,1,37.5,106.21Z" transform="translate(-34.577 -77.622)" fill="#fff"/>
        <path id="Path_28381" data-name="Path 28381" d="M443.423,80.545H440.5a.39.39,0,0,1,.39.39V106.21a.39.39,0,0,1-.39.39h2.923a.39.39,0,0,0,.39-.39V80.935A.39.39,0,0,0,443.423,80.545Z" transform="translate(-398.312 -77.622)" fill="#fff"/>
        <path id="Path_28382" data-name="Path 28382" d="M216.111,403.829h-9.654l1.461-10.867h6.731Z" transform="translate(-187.072 -359.599)" fill="silver"/>
        <path id="Path_28383" data-name="Path 28383" d="M263.466,392.962h-2.923L262,403.829h2.923Z" transform="translate(-235.888 -359.599)" fill="silver"/>
        <path id="Path_28384" data-name="Path 28384" d="M193.951,450.986l1.029,3.711a.779.779,0,0,1-.751.988h-13.2a.779.779,0,0,1-.751-.988l1.029-3.711a.78.78,0,0,1,.751-.571H193.2A.779.779,0,0,1,193.951,450.986Z" transform="translate(-163.416 -411.455)" fill="silver"/>
        <path id="Path_28385" data-name="Path 28385" d="M287.889,454.7l-1.029-3.711a.779.779,0,0,0-.751-.571h-2.923a.779.779,0,0,1,.751.571l1.029,3.711a.779.779,0,0,1-.751.988h2.923A.779.779,0,0,0,287.889,454.7Z" transform="translate(-256.325 -411.455)" fill="silver"/>
      </g>
      <path id="Path_28386" data-name="Path 28386" d="M97.01,67.5h30.982V94.826H97.01Z" transform="translate(-88.289 -61.654)" fill="#fff"/>
      <path id="Path_28387" data-name="Path 28387" d="M375.913,7.5H372.99a1.169,1.169,0,0,1,1.169,1.169v32h2.923v-32A1.169,1.169,0,0,0,375.913,7.5Z" transform="translate(-337.379 -7.5)" fill="#fff"/>
      <path id="Path_28388" data-name="Path 28388" d="M126.822,7.5H98.179A1.169,1.169,0,0,0,97.01,8.669v4.677h30.982V8.669A1.169,1.169,0,0,0,126.822,7.5Z" transform="translate(-88.289 -7.5)" fill="silver"/>
      <path id="Path_28389" data-name="Path 28389" d="M375.913,7.5H372.99a1.169,1.169,0,0,1,1.169,1.169v4.677h2.923V8.669A1.169,1.169,0,0,0,375.913,7.5Z" transform="translate(-337.379 -7.5)" fill="#405972"/>
      <g id="Group_7463" data-name="Group 7463" transform="translate(15.92 8.94)">
        <path id="Path_28390" data-name="Path 28390" d="M187.481,226.5v-5.053a4.051,4.051,0,0,0-2.568-3.77l-1.974-.776a2.041,2.041,0,0,1-1.294-1.9v-1.614h-4.911V215a2.041,2.041,0,0,1-1.294,1.9l-1.974.776a4.051,4.051,0,0,0-2.568,3.77V226.5" transform="translate(-170.898 -202.267)" fill="#0064d8"/>
        <g id="Group_7460" data-name="Group 7460" transform="translate(7.824 11.12)">
          <path id="Path_28391" data-name="Path 28391" d="M257.391,217.676l-1.974-.776a2.041,2.041,0,0,1-1.294-1.9v-1.614H251.2v3.075a2.041,2.041,0,0,0,1.294,1.9l1.974.776a4.051,4.051,0,0,1,2.568,3.77V226.5h2.923v-5.053A4.051,4.051,0,0,0,257.391,217.676Z" transform="translate(-251.2 -213.387)" fill="#0064d8"/>
        </g>
        <path id="Path_28392" data-name="Path 28392" d="M223.8,218.412a4.489,4.489,0,0,0,3.476-1.643c-.625-.36-2.482-1.031-2.482-1.767v-1.614h-3.449V215a2.041,2.041,0,0,1-1.021,1.767A4.489,4.489,0,0,0,223.8,218.412Z" transform="translate(-215.507 -202.267)" fill="#f2ccbc"/>
        <path id="Path_28393" data-name="Path 28393" d="M252.451,218.344a4.494,4.494,0,0,0,2.692-1.575A2.039,2.039,0,0,1,254.122,215v-1.614H251.2v3.075A2.04,2.04,0,0,0,252.451,218.344Z" transform="translate(-243.375 -202.267)" fill="#ecad9a"/>
        <path id="Path_28394" data-name="Path 28394" d="M214.665,123.977c-.154,0-.416.495-.566.48a4.474,4.474,0,0,1-4.016-4.451v-1.941l1.461-3.516c0-1.293,1.048-.879,2.341-.879h2.8c1.293,0,.879-.414.879.879l1.462,3.516v1.941a4.47,4.47,0,0,1-2.019,3.741,4.539,4.539,0,0,1-2.347.231Z" transform="translate(-206.264 -112.208)" fill="#fff"/>
        <g id="Group_7461" data-name="Group 7461" transform="translate(5.837 1.399)">
          <path id="Path_28395" data-name="Path 28395" d="M236.269,114.548c0-1.293.413-.879-.879-.879l-.582,2.933V120a3.583,3.583,0,0,1-.849,2.622,3.72,3.72,0,0,1-3.157,1.119,4.554,4.554,0,0,0,1.768.681,5.317,5.317,0,0,0,.688.053A4.474,4.474,0,0,0,237.73,120v-1.941Z" transform="translate(-230.801 -113.606)" fill="#fff"/>
        </g>
        <path id="Path_28396" data-name="Path 28396" d="M219.029,101.593a2.341,2.341,0,0,0-2.341-2.341h-4.266a2.341,2.341,0,0,0-2.341,2.341v3.516a8.282,8.282,0,0,0,4.026-.373,8.07,8.07,0,0,0,1.845-.944.193.193,0,0,1,.272.053,2.838,2.838,0,0,0,2.805,1.264Z" transform="translate(-206.263 -99.252)" fill="#fff"/>
        <g id="Group_7462" data-name="Group 7462" transform="translate(7.502)">
          <path id="Path_28397" data-name="Path 28397" d="M250.817,99.252h-2.923a2.341,2.341,0,0,1,2.341,2.341v2.17a.19.19,0,0,1,.118.081,2.838,2.838,0,0,0,2.805,1.264v-3.516A2.341,2.341,0,0,0,250.817,99.252Z" transform="translate(-247.894 -99.252)" fill="#fff"/>
        </g>
      </g>
    </g>
    <path id="Path_28398" data-name="Path 28398" d="M337.016,37.5h12a2.271,2.271,0,0,1,2.271,2.271v5.177a2.271,2.271,0,0,1-2.271,2.271h-6.736a.53.53,0,0,0-.375.155l-2.192,2.192a.3.3,0,0,1-.517-.214v-1.6a.53.53,0,0,0-.53-.53h-1.649a2.271,2.271,0,0,1-2.271-2.271V39.771a2.271,2.271,0,0,1,2.271-2.271Z" transform="translate(-302.861 -34.577)" fill="#fff"/>
    <g id="Group_7465" data-name="Group 7465" transform="translate(43.23 2.923)">
      <path id="Path_28399" data-name="Path 28399" d="M454.116,37.5h-2.923a2.271,2.271,0,0,1,2.271,2.271v5.177a2.271,2.271,0,0,1-2.271,2.271h2.923a2.271,2.271,0,0,0,2.271-2.271V39.771a2.271,2.271,0,0,0-2.271-2.271Z" transform="translate(-451.193 -37.5)" fill="#fff"/>
    </g>
  </g>
  <path id="Path_28400" data-name="Path 28400" d="M15.3,2.923a.731.731,0,1,0,.731.731A.731.731,0,0,0,15.3,2.923Zm2.923,0a.731.731,0,1,0,.731.731A.731.731,0,0,0,18.221,2.923Zm-5.846,0a.731.731,0,1,0,.731.731A.731.731,0,0,0,12.375,2.923Zm34.509,0H41.164V1.9a1.9,1.9,0,0,0-1.9-1.9H10.621a1.9,1.9,0,0,0-1.9,1.9V4.193H3.654A3.658,3.658,0,0,0,0,7.847V35.364a3.658,3.658,0,0,0,3.654,3.654H20.742l-.557,4.137h-.814a1.515,1.515,0,0,0-1.455,1.107l-1.029,3.711a1.51,1.51,0,0,0,1.455,1.914h13.2A1.51,1.51,0,0,0,33,47.972L31.97,44.261a1.514,1.514,0,0,0-1.455-1.107H29.7l-.557-4.137H46.232a3.658,3.658,0,0,0,3.654-3.654V5.925a3.005,3.005,0,0,0-3-3Zm-36.7,4.384H22.02a.731.731,0,1,0,0-1.461H10.183V1.9a.439.439,0,0,1,.438-.438H39.264A.439.439,0,0,1,39.7,1.9V2.923H34.886a3,3,0,0,0-3,2.923H25.43a.731.731,0,1,0,0,1.461h6.454V11.1a3,3,0,0,0,3,3h1.448v1.4a1.034,1.034,0,0,0,1.764.731l1.6-1.6V26.037a.731.731,0,1,0,1.461,0V14.1H45.5V33.172H41.164V29.447a.731.731,0,1,0-1.461,0v3.725H33.965V28.85a4.754,4.754,0,0,0-3.031-4.45l-1.974-.777a1.3,1.3,0,0,1-.831-1.219v-.826a5.2,5.2,0,0,0,2.019-4.111V12.011A3.075,3.075,0,0,0,27.076,8.94H22.81a3.075,3.075,0,0,0-3.071,3.071v5.456a5.2,5.2,0,0,0,2.019,4.111V22.4a1.3,1.3,0,0,1-.831,1.219l-1.974.777a4.754,4.754,0,0,0-3.032,4.45v4.322H10.183ZM28.85,30.42a.731.731,0,0,0-.731.731v2.021H21.766V31.151a.731.731,0,1,0-1.461,0v2.021H17.382V28.85a3.3,3.3,0,0,1,2.105-3.09l1.8-.707a5.228,5.228,0,0,0,7.316,0l1.8.707a3.3,3.3,0,0,1,2.1,3.09v4.322H29.58V31.151a.731.731,0,0,0-.731-.731Zm-7.1-14.066a8.9,8.9,0,0,0,2.994-.512,8.781,8.781,0,0,0,1.585-.754,3.544,3.544,0,0,0,2.361,1.185v1.194a3.743,3.743,0,0,1-7.486,0V16.336c.183.011.365.018.547.018ZM21.2,14.873V12.011a1.612,1.612,0,0,1,1.61-1.61h4.266a1.612,1.612,0,0,1,1.61,1.61V14.8a2.087,2.087,0,0,1-.609-.186,2.128,2.128,0,0,1-.854-.754.924.924,0,0,0-1.3-.256,7.344,7.344,0,0,1-1.678.859A7.5,7.5,0,0,1,21.2,14.873Zm6.143,9.347a3.763,3.763,0,0,1-4.8,0,2.758,2.758,0,0,0,.676-1.815v-.027a5.19,5.19,0,0,0,3.449,0V22.4A2.758,2.758,0,0,0,27.343,24.22Zm3.172,20.4a.049.049,0,0,1,.047.036h0l1.029,3.711a.054.054,0,0,1-.047.062h-13.2a.054.054,0,0,1-.047-.062l1.029-3.711a.049.049,0,0,1,.047-.036H30.515ZM21.66,43.154l.557-4.137h5.453l.557,4.137Zm26.764-7.79a2.195,2.195,0,0,1-2.192,2.192H3.654a2.195,2.195,0,0,1-2.192-2.192V7.847A2.195,2.195,0,0,1,3.654,5.655H8.721V7.116H4.043a1.122,1.122,0,0,0-1.12,1.12V33.513a1.122,1.122,0,0,0,1.12,1.12h41.8a1.122,1.122,0,0,0,1.12-1.12V14.1a2.982,2.982,0,0,0,1.461-.424ZM8.721,8.578V33.172H4.384V8.578Zm39.7,2.523a1.542,1.542,0,0,1-1.54,1.54H40.148a1.252,1.252,0,0,0-.891.369L37.8,14.472V13.9a1.262,1.262,0,0,0-1.261-1.261H34.886a1.542,1.542,0,0,1-1.54-1.54V5.925a1.542,1.542,0,0,1,1.54-1.54h12a1.542,1.542,0,0,1,1.54,1.54ZM45.848,9.244H35.921a.731.731,0,1,0,0,1.461h9.927a.731.731,0,1,0,0-1.461Zm0-2.923H35.921a.731.731,0,1,0,0,1.461h9.927a.731.731,0,1,0,0-1.461Z" transform="translate(0)"/>
</svg>
