<svg xmlns="http://www.w3.org/2000/svg" width="54.349" height="53.5" viewBox="0 0 54.349 53.5">
  <g id="course-virtual" transform="translate(-714 -2231)">
    <g id="Group_7423" data-name="Group 7423" transform="translate(742.324 2231.629)">
      <path id="Path_28359" data-name="Path 28359" d="M0,0H3.147V3.147H0Z" transform="translate(0 3.776)" fill="#0064d8"/>
      <rect id="Rectangle_457" data-name="Rectangle 457" width="8.182" height="8.812" transform="translate(7.553 0)" fill="#fff"/>
      <rect id="Rectangle_458" data-name="Rectangle 458" width="4.406" height="4.406" transform="translate(13.847 11.959)" fill="#0064d8"/>
    </g>
    <rect id="Rectangle_459" data-name="Rectangle 459" width="12.588" height="2.518" transform="translate(754.912 2254.918)" fill="#ccd1d9"/>
    <rect id="Rectangle_460" data-name="Rectangle 460" width="12.588" height="9.441" transform="translate(754.912 2257.435)" fill="#fff"/>
    <g id="Group_7756" data-name="Group 7756">
      <path id="Path_28301" data-name="Path 28301" d="M146.19,389.7l2.548-.849,2.548.849,1.7-1.7h3.4a5.088,5.088,0,0,1,5.1,5.1v5.1a1.7,1.7,0,0,1-1.7,1.7H137.7a1.7,1.7,0,0,1-1.7-1.7v-5.1a5.088,5.088,0,0,1,5.1-5.1h3.4Z" transform="translate(592.437 1883.762)" fill="#0064d8"/>
      <path id="Path_28302" data-name="Path 28302" d="M299.4,388H296a5.088,5.088,0,0,1,5.1,5.1v5.1a1.7,1.7,0,0,1-1.7,1.7h3.4a1.7,1.7,0,0,0,1.7-1.7v-5.1A5.088,5.088,0,0,0,299.4,388Z" transform="translate(449.421 1883.762)" fill="#0064d8"/>
      <path id="Path_28303" data-name="Path 28303" d="M220.246,365.967l-2.548.849-1.7-1.7V362.4a9.355,9.355,0,0,0,8.492,0v2.717l-1.7,1.7Z" transform="translate(520.929 1906.645)" fill="#f5f7fa"/>
      <path id="Path_28304" data-name="Path 28304" d="M186.683,230.548v3.4a9.341,9.341,0,1,1-18.683,0v-3.4L170.548,228a14.437,14.437,0,0,0,13.587,0Z" transform="translate(563.833 2026.778)" fill="#eac6bb"/>
      <path id="Path_28305" data-name="Path 28305" d="M248.492,228s-.311.167-.849.4v5.547a9.348,9.348,0,0,1-5.1,8.322,9.191,9.191,0,0,1-2.548.848,9.313,9.313,0,0,0,11.04-9.171v-3.4Z" transform="translate(499.476 2026.778)" fill="#d3b1a9"/>
      <path id="Path_28306" data-name="Path 28306" d="M170.548,149.341,168,151.889v-4.246A7.638,7.638,0,0,1,175.643,140h6.794v3.4a4.242,4.242,0,0,1,4.246,4.246v4.246l-2.548-2.548a14.437,14.437,0,0,1-13.587,0Z" transform="translate(563.833 2105.437)" fill="silver"/>
      <path id="Path_28307" data-name="Path 28307" d="M275.4,143.4V140H272v5.1c2.344,0,4.246,1.044,4.246,3.4v1.247c.538-.23.849-.4.849-.4l2.548,2.548v-4.246A4.242,4.242,0,0,0,275.4,143.4Z" transform="translate(470.873 2105.437)" fill="silver"/>
      <path id="Path_28308" data-name="Path 28308" d="M34.548,308l1.647,2.2-.8,1.2H32Z" transform="translate(685.397 1955.27)" fill="#0064d8"/>
      <path id="Path_28309" data-name="Path 28309" d="M67.4,292l3.4,5.1H64l.8-1.2Z" transform="translate(656.794 1969.571)" fill="#0064d8"/>
      <path id="Path_28310" data-name="Path 28310" d="M20.738,244v10.19l-3.4-5.1-2.6,3.9-1.647-2.2-2.548,3.4H8V244Z" transform="translate(706.849 2012.476)" fill="#fff"/>
      <g id="Group_7424" data-name="Group 7424" transform="translate(716.988 2235.246)">
        <path id="Path_28311" data-name="Path 28311" d="M103.2,47.387l-.017.009H97.7a1.7,1.7,0,1,1,0-3.4h3.091A7.523,7.523,0,0,1,103.2,47.387Z" transform="translate(-88.798 -44)" fill="#0064d8"/>
        <path id="Path_28312" data-name="Path 28312" d="M31.957,124a1.7,1.7,0,1,1,0,3.4H30.565a7.564,7.564,0,0,1-2.413-3.4Z" transform="translate(-28.152 -115.508)" fill="#0064d8"/>
      </g>
      <path id="Path_28313" data-name="Path 28313" d="M31.643,28a7.57,7.57,0,0,1,4.79,1.7H33.341a1.7,1.7,0,1,0,0,3.4h5.486l.018-.009a7.51,7.51,0,0,1,.441,2.557,7.632,7.632,0,0,1-12.432,5.944h1.393a1.7,1.7,0,0,0,0-3.4h-3.8A7.4,7.4,0,0,1,24,35.643,7.643,7.643,0,0,1,31.643,28Z" transform="translate(692.548 2205.548)" fill="#fff"/>
      <path id="Path_28314" data-name="Path 28314" d="M128.849,386.793a.848.848,0,0,1-.849-.849A5.951,5.951,0,0,1,133.944,380a.849.849,0,0,1,0,1.7,4.25,4.25,0,0,0-4.246,4.245A.848.848,0,0,1,128.849,386.793Z" transform="translate(599.587 1890.913)"/>
      <path id="Path_28315" data-name="Path 28315" d="M180.246,381.7h-3.4a.849.849,0,1,1,0-1.7h3.4a.849.849,0,1,1,0,1.7Z" transform="translate(556.683 1890.913)"/>
      <path id="Path_28316" data-name="Path 28316" d="M128.849,436.839a.848.848,0,0,1-.849-.849v-4.852a.849.849,0,1,1,1.7,0v4.852A.848.848,0,0,1,128.849,436.839Z" transform="translate(599.587 1845.963)"/>
      <path id="Path_28317" data-name="Path 28317" d="M325.944,386.793a.848.848,0,0,1-.849-.849,4.25,4.25,0,0,0-4.246-4.245.849.849,0,1,1,0-1.7,5.951,5.951,0,0,1,5.944,5.944A.848.848,0,0,1,325.944,386.793Z" transform="translate(427.968 1890.913)"/>
      <path id="Path_28318" data-name="Path 28318" d="M288.849,381.7a.849.849,0,0,1,0-1.7h3.4a.849.849,0,1,1,0,1.7Z" transform="translate(456.571 1890.913)"/>
      <path id="Path_28319" data-name="Path 28319" d="M368.849,436.839a.848.848,0,0,1-.849-.849v-4.852a.849.849,0,1,1,1.7,0v4.852A.848.848,0,0,1,368.849,436.839Z" transform="translate(385.064 1845.963)"/>
      <path id="Path_28320" data-name="Path 28320" d="M166.929,493.7H144.849a.849.849,0,1,1,0-1.7h22.079a.849.849,0,0,1,0,1.7Z" transform="translate(585.286 1790.802)"/>
      <path id="Path_28321" data-name="Path 28321" d="M208.849,358.817a.848.848,0,0,1-.849-.849v-2.718a.849.849,0,0,1,1.7,0v2.718A.848.848,0,0,1,208.849,358.817Z" transform="translate(528.079 1913.795)"/>
      <path id="Path_28322" data-name="Path 28322" d="M288.849,358.816a.848.848,0,0,1-.849-.849v-2.717a.849.849,0,0,1,1.7,0v2.717A.848.848,0,0,1,288.849,358.816Z" transform="translate(456.571 1913.795)"/>
      <path id="Path_28323" data-name="Path 28323" d="M170.19,287.04A10.2,10.2,0,0,1,160,276.849a.849.849,0,1,1,1.7,0,8.492,8.492,0,1,0,16.984,0,.849.849,0,1,1,1.7,0A10.2,10.2,0,0,1,170.19,287.04Z" transform="translate(570.984 1983.873)"/>
      <path id="Path_28324" data-name="Path 28324" d="M160.849,213.342a.848.848,0,0,1-.849-.849v-7.644a.849.849,0,1,1,1.7,0v7.644A.848.848,0,0,1,160.849,213.342Z" transform="translate(570.984 2048.23)"/>
      <path id="Path_28325" data-name="Path 28325" d="M336.849,213.343a.848.848,0,0,1-.849-.849v-7.645a.849.849,0,0,1,1.7,0v7.645A.848.848,0,0,1,336.849,213.343Z" transform="translate(413.667 2048.23)"/>
      <path id="Path_28326" data-name="Path 28326" d="M301.1,169.944a.848.848,0,0,1-.849-.849,3.4,3.4,0,0,0-3.4-3.4.849.849,0,0,1,0-1.7,5.1,5.1,0,0,1,5.1,5.1A.848.848,0,0,1,301.1,169.944Z" transform="translate(449.421 2083.984)"/>
      <path id="Path_28327" data-name="Path 28327" d="M296.849,137.1a.848.848,0,0,1-.849-.849v-3.4a.849.849,0,1,1,1.7,0v3.4A.848.848,0,0,1,296.849,137.1Z" transform="translate(449.421 2112.587)"/>
      <path id="Path_28328" data-name="Path 28328" d="M239.643,133.7h-6.794a.849.849,0,0,1,0-1.7h6.794a.849.849,0,0,1,0,1.7Z" transform="translate(506.627 2112.587)"/>
      <path id="Path_28329" data-name="Path 28329" d="M160.849,141.348A.848.848,0,0,1,160,140.5a8.5,8.5,0,0,1,8.492-8.491.849.849,0,0,1,0,1.7A6.8,6.8,0,0,0,161.7,140.5.848.848,0,0,1,160.849,141.348Z" transform="translate(570.984 2112.58)"/>
      <path id="Path_28330" data-name="Path 28330" d="M315.4,224.244a.847.847,0,0,1-.6-.249l-2.548-2.548a.849.849,0,0,1,1.2-1.2L316,222.795a.849.849,0,0,1-.6,1.45Z" transform="translate(435.121 2033.93)"/>
      <path id="Path_28331" data-name="Path 28331" d="M191.642,223.392a16.856,16.856,0,0,1-7.2-1.8.849.849,0,0,1,.8-1.5,13.586,13.586,0,0,0,12.783,0,.849.849,0,1,1,.8,1.5A16.826,16.826,0,0,1,191.642,223.392Z" transform="translate(549.533 2033.933)"/>
      <path id="Path_28332" data-name="Path 28332" d="M160.847,224.244a.849.849,0,0,1-.6-1.45l2.548-2.548a.849.849,0,1,1,1.2,1.2L161.448,224A.847.847,0,0,1,160.847,224.244Z" transform="translate(570.986 2033.93)"/>
      <path id="Path_28333" data-name="Path 28333" d="M210.546,383.4a.847.847,0,0,1-.6-.249l-1.7-1.7a.849.849,0,0,1,1.2-1.2l1.7,1.7a.849.849,0,0,1-.6,1.45Z" transform="translate(528.081 1890.907)"/>
      <path id="Path_28334" data-name="Path 28334" d="M224.851,390.539a.849.849,0,0,1-.268-1.655l2.548-.849a.849.849,0,0,1,.538,1.611l-2.548.849A.859.859,0,0,1,224.851,390.539Z" transform="translate(513.776 1883.77)"/>
      <path id="Path_28335" data-name="Path 28335" d="M272.847,383.4a.849.849,0,0,1-.6-1.45l1.7-1.7a.849.849,0,0,1,1.2,1.2l-1.7,1.7A.847.847,0,0,1,272.847,383.4Z" transform="translate(470.875 1890.907)"/>
      <path id="Path_28336" data-name="Path 28336" d="M251.4,390.54a.85.85,0,0,1-.268-.044l-2.548-.849a.849.849,0,0,1,.538-1.611l2.548.849a.849.849,0,0,1-.269,1.655Z" transform="translate(492.323 1883.77)"/>
      <path id="Path_28337" data-name="Path 28337" d="M352.849,479.4a.849.849,0,1,1,0-1.7.849.849,0,0,0,.849-.849.849.849,0,1,1,1.7,0A2.551,2.551,0,0,1,352.849,479.4Z" transform="translate(399.365 1805.103)"/>
      <path id="Path_28338" data-name="Path 28338" d="M130.548,479.4A2.551,2.551,0,0,1,128,476.849a.849.849,0,1,1,1.7,0,.85.85,0,0,0,.849.849.849.849,0,1,1,0,1.7Z" transform="translate(599.587 1805.103)"/>
      <path id="Path_28339" data-name="Path 28339" d="M389.587,233.587H376.849a.848.848,0,0,1-.849-.849V220.849a.848.848,0,0,1,.849-.849h12.738a.848.848,0,0,1,.849.849v11.889A.848.848,0,0,1,389.587,233.587Zm-11.889-1.7h11.04V221.7H377.7Z" transform="translate(377.913 2033.929)"/>
      <path id="Path_28340" data-name="Path 28340" d="M389.587,245.7H376.849a.849.849,0,1,1,0-1.7h12.738a.849.849,0,0,1,0,1.7Z" transform="translate(377.913 2012.476)"/>
      <path id="Path_28341" data-name="Path 28341" d="M415.387,277.7h-5.874a.849.849,0,0,1,0-1.7h5.874a.849.849,0,0,1,0,1.7Z" transform="translate(348.716 1983.873)"/>
      <path id="Path_28342" data-name="Path 28342" d="M412.84,301.7h-3.326a.849.849,0,1,1,0-1.7h3.326a.849.849,0,1,1,0,1.7Z" transform="translate(348.716 1962.421)"/>
      <path id="Path_28343" data-name="Path 28343" d="M24.492,36.984a8.492,8.492,0,1,1,8.492-8.492A8.5,8.5,0,0,1,24.492,36.984Zm0-15.286a6.794,6.794,0,1,0,6.794,6.794A6.8,6.8,0,0,0,24.492,21.7Z" transform="translate(699.698 2212.698)"/>
      <path id="Path_28344" data-name="Path 28344" d="M90.548,41.1a2.548,2.548,0,1,1,0-5.1.849.849,0,0,1,0,1.7.849.849,0,0,0,0,1.7.849.849,0,0,1,0,1.7Z" transform="translate(635.341 2198.397)"/>
      <path id="Path_28345" data-name="Path 28345" d="M107.955,37.7h-3.106a.849.849,0,1,1,0-1.7h3.106a.849.849,0,0,1,0,1.7Z" transform="translate(621.04 2198.397)"/>
      <path id="Path_28346" data-name="Path 28346" d="M110.335,69.7h-5.486a.849.849,0,1,1,0-1.7h5.486a.849.849,0,1,1,0,1.7Z" transform="translate(621.04 2169.794)"/>
      <path id="Path_28347" data-name="Path 28347" d="M56.849,121.1a.849.849,0,1,1,0-1.7.849.849,0,1,0,0-1.7.849.849,0,1,1,0-1.7,2.548,2.548,0,0,1,0,5.1Z" transform="translate(663.944 2126.889)"/>
      <path id="Path_28348" data-name="Path 28348" d="M45.007,149.7H43.6a.849.849,0,0,1,0-1.7h1.406a.849.849,0,0,1,0,1.7Z" transform="translate(675.786 2098.286)"/>
      <path id="Path_28349" data-name="Path 28349" d="M24.764,117.7h-3.81a.849.849,0,0,1,0-1.7h3.81a.849.849,0,0,1,0,1.7Z" transform="translate(696.03 2126.889)"/>
      <path id="Path_28350" data-name="Path 28350" d="M13.587,247.889H.849A.848.848,0,0,1,0,247.04v-10.19A.848.848,0,0,1,.849,236H13.587a.848.848,0,0,1,.849.849v10.19A.848.848,0,0,1,13.587,247.889ZM1.7,246.19h11.04V237.7H1.7Z" transform="translate(714 2019.627)"/>
      <path id="Path_28351" data-name="Path 28351" d="M24.846,305.1a.849.849,0,0,1-.679-1.358l2.548-3.4a.849.849,0,1,1,1.358,1.018l-2.548,3.4A.844.844,0,0,1,24.846,305.1Z" transform="translate(692.55 1962.413)"/>
      <path id="Path_28352" data-name="Path 28352" d="M50.5,303.9a.848.848,0,0,1-.68-.34l-1.648-2.2a.849.849,0,1,1,1.358-1.018l1.648,2.2A.849.849,0,0,1,50.5,303.9Z" transform="translate(671.095 1962.418)"/>
      <path id="Path_28353" data-name="Path 28353" d="M56.844,290.79a.849.849,0,0,1-.706-1.321l3.4-5.1a.849.849,0,1,1,1.413.943l-3.4,5.1A.848.848,0,0,1,56.844,290.79Z" transform="translate(663.949 1976.726)"/>
      <path id="Path_28354" data-name="Path 28354" d="M92.243,290.79a.848.848,0,0,1-.707-.378l-3.4-5.1a.849.849,0,1,1,1.413-.943l3.4,5.1a.849.849,0,0,1-.706,1.321Z" transform="translate(635.345 1976.726)"/>
      <path id="Path_28355" data-name="Path 28355" d="M33.053,269.7a.849.849,0,0,1-.009-1.7h.009a.849.849,0,0,1,0,1.7Z" transform="translate(685.218 1991.024)"/>
      <path id="Path_28356" data-name="Path 28356" d="M337.341,14.19h-8.492a.848.848,0,0,1-.849-.849V4.849A.848.848,0,0,1,328.849,4h8.492a.848.848,0,0,1,.849.849v8.492A.848.848,0,0,1,337.341,14.19Zm-7.643-1.7h6.794V5.7H329.7Z" transform="translate(420.818 2227)"/>
      <path id="Path_28357" data-name="Path 28357" d="M397.1,121.944h-4.246A.848.848,0,0,1,392,121.1v-4.246a.848.848,0,0,1,.849-.849H397.1a.848.848,0,0,1,.849.849V121.1A.848.848,0,0,1,397.1,121.944Zm-3.4-1.7h2.548V117.7H393.7Z" transform="translate(363.611 2126.889)"/>
      <path id="Path_28358" data-name="Path 28358" d="M260.246,41.1h-3.4a.848.848,0,0,1-.849-.849v-3.4a.848.848,0,0,1,.849-.849h3.4a.848.848,0,0,1,.849.849v3.4A.848.848,0,0,1,260.246,41.1ZM257.7,39.4h1.7V37.7h-1.7Z" transform="translate(485.175 2198.397)"/>
    </g>
  </g>
</svg>
