<svg xmlns="http://www.w3.org/2000/svg" xmlns:xlink="http://www.w3.org/1999/xlink" width="21" height="25.546" viewBox="0 0 21 25.546">
  <defs>
    <linearGradient id="linear-gradient" x1="0.5" x2="0.5" y2="1" gradientUnits="objectBoundingBox">
      <stop offset="0" stop-color="#0064d8"/>
      <stop offset="1" stop-color="#00326c"/>
    </linearGradient>
  </defs>
  <g id="days" transform="translate(-45.558)">
    <path id="Path_29165" data-name="Path 29165" d="M59.928,14.951v4.077a.375.375,0,1,0,.75,0V14.68a.375.375,0,0,0-.268-.359,4.233,4.233,0,0,1-2.151-1.493,4.161,4.161,0,0,1-.849-2.532,4.2,4.2,0,0,1,5.457-4.008A4.41,4.41,0,0,1,62.343,7.5a1.663,1.663,0,1,0,.591.469,5.16,5.16,0,0,0,.631-1.393,4.206,4.206,0,0,1,1.292,1.055.375.375,0,0,0,.58-.476,4.951,4.951,0,0,0-1.717-1.34A5.165,5.165,0,1,0,53.94,7.4a4.965,4.965,0,0,0-.186,5.247l-3.44,3.44a.375.375,0,0,0,.53.53l3.651-3.651a.375.375,0,0,0,.047-.473,4.2,4.2,0,0,1,4.466-6.41,4.988,4.988,0,0,0-1.289,1.154,2.95,2.95,0,0,0-.2,5.836c.047.069.1.137.146.2a4.976,4.976,0,0,0,1.065,1.035,4.2,4.2,0,0,1-3.011-.644.375.375,0,0,0-.473.047l-3.436,3.436a.375.375,0,0,0,0,.53l.812.812a.529.529,0,1,1-.749.749l-.812-.812a.375.375,0,0,0-.53,0l-.973.973a.377.377,0,0,0,0,.53l.812.812a.529.529,0,1,1-.749.749l-.812-.812a.375.375,0,0,0-.53,0L47.211,21.75A.529.529,0,1,1,46.463,21l3.32-3.32a.375.375,0,0,0-.53-.53l-3.32,3.32a1.279,1.279,0,0,0,1.809,1.809l.8-.8.547.547A1.279,1.279,0,0,0,50.9,20.219l-.547-.547.442-.442.547.547a1.279,1.279,0,1,0,1.809-1.809L52.6,17.42l2.961-2.961a4.957,4.957,0,0,0,4.1.388c.086.037.172.072.26.1Zm1.708-6.857a.905.905,0,0,1,.236.032,4.409,4.409,0,0,1-1.143.906c0-.01,0-.02,0-.029A.91.91,0,0,1,61.636,8.094ZM62.545,9a.908.908,0,0,1-1.484.7,5.159,5.159,0,0,0,1.391-1.1A.9.9,0,0,1,62.545,9Zm-8-2.329c-.023.023-.046.048-.068.071a4.416,4.416,0,1,1,8.539-1.579c0,.127-.006.252-.017.377a4.96,4.96,0,0,0-3.012.078A4.967,4.967,0,0,0,54.54,6.674Zm2.6,1.489a4.909,4.909,0,0,0-.359,1.03,4.393,4.393,0,0,1-.541-.29,2.194,2.194,0,0,1,.9-.74Zm-.66,3.567a2.2,2.2,0,0,1-.563-2.146,5.132,5.132,0,0,0,.751.376c-.007.111-.012.223-.012.336a4.927,4.927,0,0,0,.346,1.822,2.2,2.2,0,0,1-.522-.388Z" fill="url(#linear-gradient)"/>
    <path id="Path_29166" data-name="Path 29166" d="M339.872,166.985a.375.375,0,0,0-.7.263,4.2,4.2,0,0,1-2.632,5.462.375.375,0,0,0-.259.356v2.082l-1.062.824a.377.377,0,0,0,0,.593l.825.64-.825.64a.377.377,0,0,0,0,.593l.825.64-.825.64a.377.377,0,0,0,0,.593l1.062.824v.9l-1.032,1.022-.944-1.013v-3.093a.375.375,0,0,0-.75,0v3.24a.375.375,0,0,0,.1.256l1.309,1.4a.377.377,0,0,0,.538.011l1.418-1.4a.375.375,0,0,0,.111-.266v-1.24a.375.375,0,0,0-.145-.3l-.825-.64.825-.64a.377.377,0,0,0,0-.593l-.825-.64.825-.64a.377.377,0,0,0,0-.593l-.825-.64.825-.64a.375.375,0,0,0,.145-.3v-2a4.955,4.955,0,0,0,2.843-6.345Z" transform="translate(-273.625 -158.421)" fill="url(#linear-gradient)"/>
  </g>
</svg>
