<svg xmlns="http://www.w3.org/2000/svg" width="86.678" height="83.181" viewBox="0 0 86.678 83.181">
  <g id="diploma_1_" data-name="diploma (1)" transform="translate(0.5 0.5)">
    <path id="Path_13782" data-name="Path 13782" d="M209.136,296.568a8.568,8.568,0,1,0-8.568,8.568A8.568,8.568,0,0,0,209.136,296.568Zm-8.568,5.712a5.712,5.712,0,1,1,5.712-5.712A5.712,5.712,0,0,1,200.568,302.28Zm0,0" transform="translate(-157.729 -236.593)" fill="#fff" stroke="#fff" stroke-width="1"/>
    <path id="Path_13783" data-name="Path 13783" d="M159.643,277.392l-9.368-9.368c.25-.222.542-.455.791-.653,1.119-.884,2.512-1.985,2.512-3.664s-1.394-2.78-2.512-3.664a5.678,5.678,0,0,1-1.32-1.254,5.562,5.562,0,0,1,.029-1.925c.163-1.461.349-3.119-.8-4.264s-2.8-.964-4.264-.8a5.52,5.52,0,0,1-1.924.029,5.643,5.643,0,0,1-1.255-1.32c-.884-1.119-1.985-2.511-3.664-2.511s-2.78,1.394-3.664,2.511a5.679,5.679,0,0,1-1.254,1.32,5.562,5.562,0,0,1-1.925-.029c-1.461-.166-3.12-.349-4.264.8s-.962,2.8-.8,4.264a5.554,5.554,0,0,1,.029,1.924,5.643,5.643,0,0,1-1.32,1.255c-1.119.884-2.511,1.985-2.511,3.664s1.394,2.78,2.511,3.664c.249.2.542.429.791.653l-9.368,9.368a1.428,1.428,0,0,0,.73,2.41l4.121.827.827,4.121a1.432,1.432,0,0,0,2.416.73l9.368-9.368c.223.25.455.542.653.791.879,1.119,1.979,2.512,3.658,2.512s2.78-1.394,3.664-2.512c.2-.249.429-.542.653-.791l9.368,9.368a1.428,1.428,0,0,0,2.41-.73l.827-4.121,4.121-.827a1.428,1.428,0,0,0,.73-2.41Zm-35.591,4.184-.49-2.447a1.427,1.427,0,0,0-1.12-1.119l-2.44-.49,5.855-5.854a3.377,3.377,0,0,0,4.048,4.05Zm15.246-6.445c-.367.464-1.128,1.428-1.428,1.428s-1.058-.964-1.428-1.428a6.509,6.509,0,0,0-2.4-2.185,4.35,4.35,0,0,0-1.694-.294,14.654,14.654,0,0,0-1.639.123,5.533,5.533,0,0,1-1.923.026,5.27,5.27,0,0,1,.015-1.933,6.732,6.732,0,0,0-.172-3.334,6.522,6.522,0,0,0-2.184-2.4c-.464-.367-1.428-1.128-1.428-1.428s.964-1.058,1.428-1.428a6.509,6.509,0,0,0,2.184-2.4,6.727,6.727,0,0,0,.172-3.333,5.483,5.483,0,0,1-.026-1.923,5.3,5.3,0,0,1,1.933.015,6.684,6.684,0,0,0,3.334-.172,6.521,6.521,0,0,0,2.4-2.184c.367-.464,1.128-1.428,1.428-1.428s1.058.964,1.428,1.428a6.508,6.508,0,0,0,2.4,2.184,6.711,6.711,0,0,0,3.333.172,5.482,5.482,0,0,1,1.923-.026,5.27,5.27,0,0,1-.015,1.933,6.732,6.732,0,0,0,.172,3.334,6.522,6.522,0,0,0,2.184,2.4c.464.367,1.428,1.128,1.428,1.428s-.964,1.058-1.428,1.428a6.508,6.508,0,0,0-2.184,2.4,6.727,6.727,0,0,0-.172,3.333,5.483,5.483,0,0,1,.026,1.923,5.364,5.364,0,0,1-1.933-.015,6.732,6.732,0,0,0-3.334.172A6.522,6.522,0,0,0,139.3,275.131Zm13.994,2.885a1.427,1.427,0,0,0-1.119,1.12l-.49,2.44-5.854-5.855a3.378,3.378,0,0,0,4.048-4.05l5.854,5.854Zm0,0" transform="translate(-95.032 -203.733)" fill="#fff" stroke="#fff" stroke-width="1"/>
    <path id="Path_13784" data-name="Path 13784" d="M78.538,61.4H61.4V58.547H78.538a4.284,4.284,0,0,0,4.284-4.284V7.14a4.284,4.284,0,0,0-4.284-4.284H7.14A4.284,4.284,0,0,0,2.856,7.14V54.263A4.284,4.284,0,0,0,7.14,58.547H24.177V61.4H7.14A7.148,7.148,0,0,1,0,54.263V7.14A7.148,7.148,0,0,1,7.14,0h71.4a7.148,7.148,0,0,1,7.14,7.14V54.263A7.148,7.148,0,0,1,78.538,61.4Zm0,0" fill="#fff" stroke="#fff" stroke-width="1"/>
    <path id="Path_13785" data-name="Path 13785" d="M34.856,40.568H32v-7.14A1.428,1.428,0,0,1,33.428,32h7.14v2.856H34.856Zm0,0" transform="translate(-26.288 -26.288)" fill="#fff" stroke="#fff" stroke-width="1"/>
    <path id="Path_13786" data-name="Path 13786" d="M408.568,40.568h-2.856V34.856H400V32h7.14a1.428,1.428,0,0,1,1.428,1.428Zm0,0" transform="translate(-328.602 -26.288)" fill="#fff" stroke="#fff" stroke-width="1"/>
    <path id="Path_13787" data-name="Path 13787" d="M40.568,272.568h-7.14A1.428,1.428,0,0,1,32,271.14V264h2.856v5.712h5.712Zm0,0" transform="translate(-26.288 -216.877)" fill="#fff" stroke="#fff" stroke-width="1"/>
    <path id="Path_13788" data-name="Path 13788" d="M407.14,272.568H400v-2.856h5.712V264h2.856v7.14A1.428,1.428,0,0,1,407.14,272.568Zm0,0" transform="translate(-328.602 -216.877)" fill="#fff" stroke="#fff" stroke-width="1"/>
    <path id="Path_13789" data-name="Path 13789" d="M171.7,64.568H137.428A1.428,1.428,0,0,1,136,63.14V57.428A1.428,1.428,0,0,1,137.428,56H171.7a1.428,1.428,0,0,1,1.428,1.428V63.14A1.428,1.428,0,0,1,171.7,64.568Zm-32.843-2.856h31.415V58.856H138.856Zm0,0" transform="translate(-111.725 -46.004)" fill="#fff" stroke="#fff" stroke-width="1"/>
    <path id="Path_13790" data-name="Path 13790" d="M128,136h39.983v2.856H128Zm0,0" transform="translate(-105.153 -111.725)" fill="#fff" stroke="#fff" stroke-width="1"/>
    <path id="Path_13791" data-name="Path 13791" d="M96,168h51.407v2.856H96Zm0,0" transform="translate(-78.864 -138.013)" fill="#fff" stroke="#fff" stroke-width="1"/>
    <path id="Path_13792" data-name="Path 13792" d="M160,200h28.559v2.856H160Zm0,0" transform="translate(-131.441 -164.301)" fill="#fff" stroke="#fff" stroke-width="1"/>
  </g>
</svg>
