<svg xmlns="http://www.w3.org/2000/svg" width="95" height="75" viewBox="0 0 95 75">
  <g id="dotted-box" transform="translate(-1135 -783)" opacity="0.1">
    <circle id="Ellipse_32" data-name="Ellipse 32" cx="7.5" cy="7.5" r="7.5" transform="translate(1135 783)" fill="#0064d8"/>
    <circle id="Ellipse_33" data-name="Ellipse 33" cx="7.5" cy="7.5" r="7.5" transform="translate(1155 783)" fill="#0064d8"/>
    <circle id="Ellipse_34" data-name="Ellipse 34" cx="7.5" cy="7.5" r="7.5" transform="translate(1175 783)" fill="#0064d8"/>
    <circle id="Ellipse_35" data-name="Ellipse 35" cx="7.5" cy="7.5" r="7.5" transform="translate(1195 783)" fill="#0064d8"/>
    <circle id="Ellipse_36" data-name="Ellipse 36" cx="7.5" cy="7.5" r="7.5" transform="translate(1215 783)" fill="#0064d8"/>
    <circle id="Ellipse_37" data-name="Ellipse 37" cx="7.5" cy="7.5" r="7.5" transform="translate(1215 803)" fill="#0064d8"/>
    <circle id="Ellipse_38" data-name="Ellipse 38" cx="7.5" cy="7.5" r="7.5" transform="translate(1195 803)" fill="#0064d8"/>
    <circle id="Ellipse_39" data-name="Ellipse 39" cx="7.5" cy="7.5" r="7.5" transform="translate(1175 803)" fill="#0064d8"/>
    <circle id="Ellipse_40" data-name="Ellipse 40" cx="7.5" cy="7.5" r="7.5" transform="translate(1155 803)" fill="#0064d8"/>
    <circle id="Ellipse_41" data-name="Ellipse 41" cx="7.5" cy="7.5" r="7.5" transform="translate(1135 803)" fill="#0064d8"/>
    <circle id="Ellipse_42" data-name="Ellipse 42" cx="7.5" cy="7.5" r="7.5" transform="translate(1135 823)" fill="#0064d8"/>
    <circle id="Ellipse_43" data-name="Ellipse 43" cx="7.5" cy="7.5" r="7.5" transform="translate(1135 823)" fill="#0064d8"/>
    <circle id="Ellipse_44" data-name="Ellipse 44" cx="7.5" cy="7.5" r="7.5" transform="translate(1155 823)" fill="#0064d8"/>
    <circle id="Ellipse_45" data-name="Ellipse 45" cx="7.5" cy="7.5" r="7.5" transform="translate(1175 823)" fill="#0064d8"/>
    <circle id="Ellipse_46" data-name="Ellipse 46" cx="7.5" cy="7.5" r="7.5" transform="translate(1195 823)" fill="#0064d8"/>
    <circle id="Ellipse_47" data-name="Ellipse 47" cx="7.5" cy="7.5" r="7.5" transform="translate(1215 823)" fill="#0064d8"/>
    <circle id="Ellipse_48" data-name="Ellipse 48" cx="7.5" cy="7.5" r="7.5" transform="translate(1215 843)" fill="#0064d8"/>
    <circle id="Ellipse_49" data-name="Ellipse 49" cx="7.5" cy="7.5" r="7.5" transform="translate(1195 843)" fill="#0064d8"/>
    <circle id="Ellipse_50" data-name="Ellipse 50" cx="7.5" cy="7.5" r="7.5" transform="translate(1175 843)" fill="#0064d8"/>
    <circle id="Ellipse_51" data-name="Ellipse 51" cx="7.5" cy="7.5" r="7.5" transform="translate(1155 843)" fill="#0064d8"/>
    <circle id="Ellipse_52" data-name="Ellipse 52" cx="7.5" cy="7.5" r="7.5" transform="translate(1135 843)" fill="#0064d8"/>
  </g>
</svg>
