<svg xmlns="http://www.w3.org/2000/svg" width="22.755" height="17.333" viewBox="0 0 22.755 17.333">
  <g id="email-black" transform="translate(0 -61)">
    <g id="Group_7414" data-name="Group 7414" transform="translate(1.143 61)">
      <g id="Group_7413" data-name="Group 7413" transform="translate(0 0)">
        <path id="Path_28297" data-name="Path 28297" d="M45.333,61H26.578a1.977,1.977,0,0,0-.857.2l10.19,10.19L38.2,69.2h0L46.19,61.2A1.977,1.977,0,0,0,45.333,61Z" transform="translate(-25.721 -61)" fill="#181818"/>
      </g>
    </g>
    <g id="Group_7416" data-name="Group 7416" transform="translate(15.032 62.143)">
      <g id="Group_7415" data-name="Group 7415" transform="translate(0 0)">
        <path id="Path_28298" data-name="Path 28298" d="M345.737,86.728l-7.524,7.523,7.523,7.523a1.976,1.976,0,0,0,.2-.857V87.585A1.977,1.977,0,0,0,345.737,86.728Z" transform="translate(-338.213 -86.728)" fill="#181818"/>
      </g>
    </g>
    <g id="Group_7418" data-name="Group 7418" transform="translate(0 62.143)">
      <g id="Group_7417" data-name="Group 7417" transform="translate(0 0)">
        <path id="Path_28299" data-name="Path 28299" d="M.2,86.721a1.977,1.977,0,0,0-.2.857v13.333a1.977,1.977,0,0,0,.2.857l7.524-7.523Z" transform="translate(0 -86.721)" fill="#181818"/>
      </g>
    </g>
    <g id="Group_7420" data-name="Group 7420" transform="translate(1.143 70.609)">
      <g id="Group_7419" data-name="Group 7419">
        <path id="Path_28300" data-name="Path 28300" d="M38.66,277.211l-2.284,2.2a.666.666,0,0,1-.943,0l-2.2-2.2-7.524,7.523a1.976,1.976,0,0,0,.857.2H45.327a1.977,1.977,0,0,0,.857-.2Z" transform="translate(-25.714 -277.211)" fill="#181818"/>
      </g>
    </g>
  </g>
</svg>
