<svg xmlns="http://www.w3.org/2000/svg" xmlns:xlink="http://www.w3.org/1999/xlink" width="52.667" height="65.769" viewBox="0 0 52.667 65.769">
  <defs>
    <linearGradient id="linear-gradient" x1="0.5" x2="0.5" y2="1" gradientUnits="objectBoundingBox">
      <stop offset="0" stop-color="#0064d8"/>
      <stop offset="1" stop-color="#00326c"/>
    </linearGradient>
  </defs>
  <g id="exam" transform="translate(-51)">
    <path id="Path_29064" data-name="Path 29064" d="M365.139,9.215v12.4H376.38Z" transform="translate(-273.786 -8.031)" fill="url(#linear-gradient)"/>
    <path id="Path_29065" data-name="Path 29065" d="M89.426,17.442A1.927,1.927,0,0,1,87.5,15.515V0H56.539A5.545,5.545,0,0,0,51,5.539V60.23a5.545,5.545,0,0,0,5.539,5.539H98.128a5.545,5.545,0,0,0,5.539-5.539V17.442Zm-1.647,9.174a1.927,1.927,0,0,1,2.725,0l1.127,1.127L95.673,23.7A1.927,1.927,0,1,1,98.4,26.427l-5.4,5.4a1.926,1.926,0,0,1-2.725,0l-2.49-2.49a1.927,1.927,0,0,1,0-2.725Zm0,13.1a1.927,1.927,0,0,1,2.725,0l1.127,1.127,4.042-4.042A1.927,1.927,0,0,1,98.4,39.531l-5.4,5.4a1.926,1.926,0,0,1-2.725,0l-2.49-2.49a1.927,1.927,0,0,1,0-2.725ZM60.449,6.555h6.031a1.927,1.927,0,0,1,0,3.854H60.449a1.927,1.927,0,1,1,0-3.854Zm0,6.693H73.559a1.927,1.927,0,1,1,0,3.854H60.449a1.927,1.927,0,1,1,0-3.854ZM80.35,55.91h-19.9a1.927,1.927,0,0,1,0-3.854h19.9a1.927,1.927,0,1,1,0,3.854Zm0-12.65h-19.9a1.927,1.927,0,0,1,0-3.854h19.9a1.927,1.927,0,1,1,0,3.854Zm0-13.1h-19.9a1.927,1.927,0,0,1,0-3.854h19.9a1.927,1.927,0,1,1,0,3.854ZM98.4,52.181l-5.4,5.4a1.926,1.926,0,0,1-2.725,0l-2.49-2.49A1.927,1.927,0,0,1,90.5,52.37L91.631,53.5l4.042-4.042A1.927,1.927,0,1,1,98.4,52.181Z" fill="url(#linear-gradient)"/>
  </g>
</svg>
