<svg xmlns="http://www.w3.org/2000/svg" xmlns:xlink="http://www.w3.org/1999/xlink" width="56.193" height="56.193" viewBox="0 0 56.193 56.193">
  <defs>
    <linearGradient id="linear-gradient" x1="0.5" x2="0.5" y2="1" gradientUnits="objectBoundingBox">
      <stop offset="0" stop-color="#0064d8"/>
      <stop offset="1" stop-color="#00326c"/>
    </linearGradient>
  </defs>
  <g id="exam_prepration_tips" data-name="exam prepration tips" transform="translate(0 0.001)">
    <path id="Path_25968" data-name="Path 25968" d="M321.012,82.021a1.6,1.6,0,0,0-1.541-2.013h-.314a1.6,1.6,0,0,0-1.541,1.18L316.5,85.3l3.323,1.107Zm0,0" transform="translate(-278.174 -70.319)" fill="url(#linear-gradient)"/>
    <path id="Path_25969" data-name="Path 25969" d="M311.761,140.315l-3.323-1.107-.535,1.977,3.323,1.107Zm0,0" transform="translate(-270.614 -122.35)" fill="url(#linear-gradient)"/>
    <path id="Path_25970" data-name="Path 25970" d="M32,85.813H53.314V80H32Zm17.439-3.875h1.938v1.938H49.439Zm-3.875,0H47.5v1.938H45.564Zm-3.875,0h1.938v1.938H41.688Zm-3.875,0h1.938v1.938H37.813Zm-3.875,0h1.938v1.938H33.938Zm0,0" transform="translate(-28.125 -70.312)" fill="url(#linear-gradient)"/>
    <path id="Path_25971" data-name="Path 25971" d="M126.283,20.328l2.693-9.967a3.541,3.541,0,0,1,3.412-2.612h.314a3.537,3.537,0,0,1,3.412,4.458l-4.032,14.919h.075a4.831,4.831,0,0,1,2.687.814l2.1,1.4V0H104V3.875h22.283Zm0,0" transform="translate(-91.405)" fill="url(#linear-gradient)"/>
    <path id="Path_25972" data-name="Path 25972" d="M274.036,171.008l-4.09,15.137h3.622l3.792-14.03Zm0,0" transform="translate(-237.254 -150.299)" fill="url(#linear-gradient)"/>
    <path id="Path_25973" data-name="Path 25973" d="M317.124,281.938a.969.969,0,0,0,0-1.938h-.174l-.524,1.938Zm0,0" transform="translate(-278.105 -246.091)" fill="url(#linear-gradient)"/>
    <path id="Path_25974" data-name="Path 25974" d="M189.129,240h-1.581a2.927,2.927,0,0,0-2.055.851l-6.982,6.983a1.086,1.086,0,0,0,.768,1.854,1.1,1.1,0,0,0,.768-.319l5.045-5.045a4.8,4.8,0,0,1,3.247-1.4Zm0,0" transform="translate(-156.612 -210.936)" fill="url(#linear-gradient)"/>
    <path id="Path_25975" data-name="Path 25975" d="M32.025,90.629l-.3,1.2-1.879-.47.3-1.215a3.512,3.512,0,0,1-1.664-3.976l.366-1.356h-3.4a1.94,1.94,0,0,1-1.938-1.938c0-.047.013-.092.015-.14a3.016,3.016,0,0,1-3-5.023l1.62-1.619H18.408V74.159h5.678l1.938-1.938H18.408V70.283h9.651a4.791,4.791,0,0,1,2.878-.969h2V48H0V98.38H32.94V90.544a3.519,3.519,0,0,1-.729.085ZM31,68.346H18.408V66.408H31ZM1.937,49.938h25.19v9.688H1.937ZM7.75,73.591,5.128,70.968,6.5,69.6,7.75,70.851l9-9,1.37,1.37Zm10.373,6.1L7.75,90.061,5.128,87.439l1.37-1.37L7.75,87.321l9-9ZM1.937,65.439H9.688v1.938H3.875v7.751h7.751V71.252h1.938v5.813H1.937Zm11.626,28.1H1.937V81.909H9.688v1.938H3.875V91.6h7.751V87.722h1.938Zm13.564,1.938H16.47V93.535H27.127Zm3.875,0H29.065V93.535H31Zm0,0" transform="translate(0 -42.188)" fill="url(#linear-gradient)"/>
    <path id="Path_25976" data-name="Path 25976" d="M250.758,352l-.5,1.861a1.6,1.6,0,0,0,1.541,2.013h.314a1.6,1.6,0,0,0,1.541-1.181l.722-2.672c-.188-.007-.376-.021-.565-.021Zm0,0" transform="translate(-219.9 -309.372)" fill="url(#linear-gradient)"/>
    <path id="Path_25977" data-name="Path 25977" d="M239.432,282.7l.5-1.833a2.915,2.915,0,0,0-1.329.746l-1.086,1.087Zm0,0" transform="translate(-208.748 -246.85)" fill="url(#linear-gradient)"/>
    <path id="Path_25978" data-name="Path 25978" d="M236.556,245.813a4.839,4.839,0,0,1-2.687-.814l-6.766-4.511a2.9,2.9,0,0,0-1.613-.488h-.6l-.794,2.941a2.9,2.9,0,0,1-.34,5.779H213.1a2.91,2.91,0,0,0-2.907,2.907h8.454a14.5,14.5,0,0,1,4.6.747l1.633.544a12.671,12.671,0,0,0,7.045.27l4.507-1.126a14.527,14.527,0,0,1,3.529-.435h.969v-5.813Zm0,0" transform="translate(-184.737 -210.936)" fill="url(#linear-gradient)"/>
    <path id="Path_25979" data-name="Path 25979" d="M292.65,355.082l-1.632-.544a12.682,12.682,0,0,0-1.48-.386l-.793,2.938a3.5,3.5,0,0,1-.745,1.382v3.17h10.657v-5.9c-.468.045-.936.086-1.406.086A14.5,14.5,0,0,1,292.65,355.082Zm0,0" transform="translate(-253.122 -311.264)" fill="url(#linear-gradient)"/>
  </g>
</svg>
