<svg xmlns="http://www.w3.org/2000/svg" width="26.509" height="32.195" viewBox="0 0 26.509 32.195">
  <g id="faq" transform="translate(0.259 0.25)">
    <path id="Path_28499" data-name="Path 28499" d="M69.089,23.83a3.778,3.778,0,0,0,.522-1.92V20.318A3.779,3.779,0,0,0,69,18.26a10.205,10.205,0,0,0,3-7.117A10.339,10.339,0,0,0,68.154,3.23,14.1,14.1,0,0,0,59,0,14.757,14.757,0,0,0,52.71,1.388a.619.619,0,0,0,.531,1.119A13.511,13.511,0,0,1,59,1.238c6.486,0,11.762,4.443,11.762,9.9a8.967,8.967,0,0,1-2.591,6.2,3.8,3.8,0,0,0-6.164,2.977v.4A13.865,13.865,0,0,1,59,21.047a13.48,13.48,0,0,1-5.879-1.326.619.619,0,0,0-.307-.062l-.031,0a.62.62,0,0,0-.125.02l-.927.249-4.112,1.1-.008,0a.29.29,0,0,1-.285-.076.281.281,0,0,1-.077-.282q.629-2.347,1.259-4.694a.619.619,0,0,0-.064-.473,8.55,8.55,0,0,1-1.206-4.369,8.772,8.772,0,0,1,1.89-5.383A.619.619,0,0,0,48.147,5,10,10,0,0,0,46,11.143a9.74,9.74,0,0,0,1.246,4.767q-.6,2.224-1.193,4.449a1.513,1.513,0,0,0,.4,1.483,1.535,1.535,0,0,0,1.486.387l4.109-1.1.729-.2A14.761,14.761,0,0,0,59,22.285a15.143,15.143,0,0,0,3.009-.3,3.777,3.777,0,0,0,.52,1.845,6.247,6.247,0,0,0-1.952,1.945,6.153,6.153,0,0,0-.958,3.3v2a.619.619,0,0,0,.619.619H71.38A.619.619,0,0,0,72,31.076v-2a6.153,6.153,0,0,0-.956-3.295,6.247,6.247,0,0,0-1.954-1.948Zm-5.845-3.512a2.565,2.565,0,1,1,5.129,0V21.91a2.565,2.565,0,0,1-5.129,0Zm7.517,10.139h-9.9V29.073a4.93,4.93,0,0,1,2.474-4.282,3.791,3.791,0,0,0,4.956,0,4.931,4.931,0,0,1,2.474,4.282Z" transform="translate(-45.999 0)" fill="#fff" stroke="#fff" stroke-width="0.5"/>
    <path id="Path_28500" data-name="Path 28500" d="M133.237,122.546a.619.619,0,0,0,.619-.619.929.929,0,1,1,1.579.663,3.212,3.212,0,0,0-1.269,2.152.619.619,0,1,0,1.238,0c0-.276.229-.6.906-1.276a2.167,2.167,0,1,0-3.692-1.539A.619.619,0,0,0,133.237,122.546Z" transform="translate(-127.256 -112.346)" fill="#fff" stroke="#fff" stroke-width="0.5"/>
    <path id="Path_28501" data-name="Path 28501" d="M158.237,220.23a.619.619,0,0,0-.619.619h0a.619.619,0,1,0,.619-.619Z" transform="translate(-150.708 -206.597)" fill="#fff" stroke="#fff" stroke-width="0.5"/>
    <path id="Path_28502" data-name="Path 28502" d="M227.408,121h8.209a.619.619,0,1,0,0-1.238h-8.209a.619.619,0,1,0,0,1.238Z" transform="translate(-215.597 -112.349)" fill="#fff" stroke="#fff" stroke-width="0.5"/>
    <path id="Path_28503" data-name="Path 28503" d="M227.408,171.238h8.209a.619.619,0,1,0,0-1.238h-8.209a.619.619,0,1,0,0,1.238Z" transform="translate(-215.597 -159.476)" fill="#fff" stroke="#fff" stroke-width="0.5"/>
    <path id="Path_28504" data-name="Path 28504" d="M227.408,221.475h8.209a.619.619,0,1,0,0-1.238h-8.209a.619.619,0,1,0,0,1.238Z" transform="translate(-215.597 -206.603)" fill="#fff" stroke="#fff" stroke-width="0.5"/>
    <path id="Path_28505" data-name="Path 28505" d="M111,46.293a.619.619,0,1,0,0-1.238h0a.619.619,0,0,0,0,1.238Z" transform="translate(-106.394 -42.266)" fill="#fff" stroke="#fff" stroke-width="0.5"/>
  </g>
</svg>
