<svg xmlns="http://www.w3.org/2000/svg" width="16.341" height="16.049" viewBox="0 0 16.341 16.049">
  <g id="foundation-call" transform="translate(0)">
    <path id="Path_28420" data-name="Path 28420" d="M43.191,35.381a4.64,4.64,0,0,0,2.184.681,1.279,1.279,0,0,0,.614-.122l1.649-.952a1.077,1.077,0,0,0,.393-1.469l-1.061-1.837a1.083,1.083,0,0,0-.655-.5,1.06,1.06,0,0,0-.82.1l-.937.541,0,0a1.39,1.39,0,0,1-.988.063c-.659-.167-1.691-.794-2.867-2.832-1.106-1.915-1.154-3.085-1-3.729a1.448,1.448,0,0,1,.577-.921h0l.937-.541a1.061,1.061,0,0,0,.5-.659,1.081,1.081,0,0,0-.108-.818l-1.06-1.837a1.083,1.083,0,0,0-1.469-.394l-1.649.952a3.309,3.309,0,0,0-.937,2.664A13.505,13.505,0,0,0,38.548,30.3,13.742,13.742,0,0,0,43.191,35.381Z" transform="translate(-36.487 -20.012)" fill="#fff"/>
    <path id="Path_28421" data-name="Path 28421" d="M366,324.837a1.341,1.341,0,0,1,1.156,2,.223.223,0,0,0,.389.22A1.787,1.787,0,0,0,366,324.39a.223.223,0,1,0,0,.447Z" transform="translate(-353.519 -313.06)" fill="#fff"/>
    <path id="Path_28422" data-name="Path 28422" d="M353.081,301.107a.223.223,0,0,0,.316-.015,2.831,2.831,0,0,0-2.7-4.671.223.223,0,0,0,.1.436,2.384,2.384,0,0,1,2.271,3.934A.223.223,0,0,0,353.081,301.107Z" transform="translate(-338.835 -286.07)" fill="#fff"/>
    <path id="Path_28423" data-name="Path 28423" d="M336.322,268.952a3.427,3.427,0,0,1,3.345,5.793.223.223,0,1,0,.3.329,3.873,3.873,0,0,0-3.781-6.549.223.223,0,1,0,.134.426Z" transform="translate(-324.881 -259.104)" fill="#fff"/>
  </g>
</svg>
