<svg xmlns="http://www.w3.org/2000/svg" xmlns:xlink="http://www.w3.org/1999/xlink" width="25" height="25" viewBox="0 0 25 25">
  <defs>
    <linearGradient id="linear-gradient" x1="0.5" x2="0.5" y2="1" gradientUnits="objectBoundingBox">
      <stop offset="0" stop-color="#0064d8"/>
      <stop offset="1" stop-color="#00326c"/>
    </linearGradient>
  </defs>
  <g id="hours" transform="translate(-2 -2)">
    <path id="Path_29153" data-name="Path 29153" d="M24.131,17.617V6.1a2.052,2.052,0,0,0-2.049-2.049h-.82V3.23a1.23,1.23,0,0,0-2.459,0v.82H16.754V3.23a1.23,1.23,0,0,0-2.459,0v.82H11.836V3.23a1.23,1.23,0,0,0-2.459,0v.82H7.328V3.23a1.23,1.23,0,1,0-2.459,0v.82h-.82A2.052,2.052,0,0,0,2,6.1V22.492a2.052,2.052,0,0,0,2.049,2.049h13.78a4.914,4.914,0,1,0,6.3-6.924ZM19.623,3.23a.41.41,0,1,1,.82,0V5.689a.41.41,0,0,1-.82,0Zm-4.508,0a.41.41,0,1,1,.82,0V5.689a.41.41,0,1,1-.82,0Zm-4.918,0a.41.41,0,1,1,.82,0V5.689a.41.41,0,1,1-.82,0Zm-4.508,0a.41.41,0,1,1,.82,0V5.689a.41.41,0,0,1-.82,0ZM4.049,4.869h.82v.82a1.23,1.23,0,0,0,2.459,0v-.82H9.377v.82a1.23,1.23,0,0,0,2.459,0v-.82H14.3v.82a1.23,1.23,0,0,0,2.459,0v-.82H18.8v.82a1.23,1.23,0,0,0,2.459,0v-.82h.82a1.231,1.231,0,0,1,1.23,1.23V8.148H2.82V6.1A1.231,1.231,0,0,1,4.049,4.869Zm0,18.852a1.231,1.231,0,0,1-1.23-1.23V8.967H23.311v8.359a4.68,4.68,0,0,0-2.049-.088V15.115a.41.41,0,0,0-.41-.41H18.393a.41.41,0,0,0-.41.41v2.459a.41.41,0,0,0,.41.41h.976a4.89,4.89,0,0,0-1.918,5.738Zm16.393-6.557H18.8V15.525h1.639Zm1.639,9.016a4.1,4.1,0,1,1,4.1-4.1A4.1,4.1,0,0,1,22.082,26.18Z" fill="url(#linear-gradient)"/>
    <path id="Path_29154" data-name="Path 29154" d="M48.09,45.573V43h-.82v2.573a.783.783,0,0,0-.4.827l-1.5,1.2.512.64,1.5-1.2a.817.817,0,0,0,.706-1.468Z" transform="translate(-25.598 -24.197)" fill="url(#linear-gradient)"/>
    <path id="Path_29155" data-name="Path 29155" d="M10.869,22H8.41a.41.41,0,0,0-.41.41v2.459a.41.41,0,0,0,.41.41h2.459a.41.41,0,0,0,.41-.41V22.41A.41.41,0,0,0,10.869,22Zm-.41,2.459H8.82V22.82h1.639Z" transform="translate(-3.541 -11.803)" fill="url(#linear-gradient)"/>
    <path id="Path_29156" data-name="Path 29156" d="M21.869,22H19.41a.41.41,0,0,0-.41.41v2.459a.41.41,0,0,0,.41.41h2.459a.41.41,0,0,0,.41-.41V22.41A.41.41,0,0,0,21.869,22Zm-.41,2.459H19.82V22.82h1.639Z" transform="translate(-10.033 -11.803)" fill="url(#linear-gradient)"/>
    <path id="Path_29157" data-name="Path 29157" d="M32.869,22H30.41a.41.41,0,0,0-.41.41v2.459a.41.41,0,0,0,.41.41h2.459a.41.41,0,0,0,.41-.41V22.41A.41.41,0,0,0,32.869,22Zm-.41,2.459H30.82V22.82h1.639Z" transform="translate(-16.525 -11.803)" fill="url(#linear-gradient)"/>
    <path id="Path_29158" data-name="Path 29158" d="M41.41,25.279h2.459a.41.41,0,0,0,.41-.41V22.41a.41.41,0,0,0-.41-.41H41.41a.41.41,0,0,0-.41.41v2.459A.41.41,0,0,0,41.41,25.279Zm.41-2.459h1.639v1.639H41.82Z" transform="translate(-23.016 -11.803)" fill="url(#linear-gradient)"/>
    <path id="Path_29159" data-name="Path 29159" d="M10.869,33H8.41a.41.41,0,0,0-.41.41v2.459a.41.41,0,0,0,.41.41h2.459a.41.41,0,0,0,.41-.41V33.41A.41.41,0,0,0,10.869,33Zm-.41,2.459H8.82V33.82h1.639Z" transform="translate(-3.541 -18.295)" fill="url(#linear-gradient)"/>
    <path id="Path_29160" data-name="Path 29160" d="M21.869,33H19.41a.41.41,0,0,0-.41.41v2.459a.41.41,0,0,0,.41.41h2.459a.41.41,0,0,0,.41-.41V33.41A.41.41,0,0,0,21.869,33Zm-.41,2.459H19.82V33.82h1.639Z" transform="translate(-10.033 -18.295)" fill="url(#linear-gradient)"/>
    <path id="Path_29161" data-name="Path 29161" d="M32.869,33H30.41a.41.41,0,0,0-.41.41v2.459a.41.41,0,0,0,.41.41h2.459a.41.41,0,0,0,.41-.41V33.41A.41.41,0,0,0,32.869,33Zm-.41,2.459H30.82V33.82h1.639Z" transform="translate(-16.525 -18.295)" fill="url(#linear-gradient)"/>
    <path id="Path_29162" data-name="Path 29162" d="M10.869,44H8.41a.41.41,0,0,0-.41.41v2.459a.41.41,0,0,0,.41.41h2.459a.41.41,0,0,0,.41-.41V44.41A.41.41,0,0,0,10.869,44Zm-.41,2.459H8.82V44.82h1.639Z" transform="translate(-3.541 -24.787)" fill="url(#linear-gradient)"/>
    <path id="Path_29163" data-name="Path 29163" d="M21.869,44H19.41a.41.41,0,0,0-.41.41v2.459a.41.41,0,0,0,.41.41h2.459a.41.41,0,0,0,.41-.41V44.41A.41.41,0,0,0,21.869,44Zm-.41,2.459H19.82V44.82h1.639Z" transform="translate(-10.033 -24.787)" fill="url(#linear-gradient)"/>
    <path id="Path_29164" data-name="Path 29164" d="M32.869,44H30.41a.41.41,0,0,0-.41.41v2.459a.41.41,0,0,0,.41.41h2.459a.41.41,0,0,0,.41-.41V44.41A.41.41,0,0,0,32.869,44Zm-.41,2.459H30.82V44.82h1.639Z" transform="translate(-16.525 -24.787)" fill="url(#linear-gradient)"/>
  </g>
</svg>
