<svg xmlns="http://www.w3.org/2000/svg" width="88.82" height="83.596" viewBox="0 0 88.82 83.596">
  <g id="immigration" transform="translate(0.5 0.5)">
    <path id="Path_13793" data-name="Path 13793" d="M93.179,27.921H87.215V25.7a1.071,1.071,0,0,0-1.071-1.071H53.812A1.071,1.071,0,0,0,52.741,25.7v2.216H44.992a4.646,4.646,0,0,0-4.641,4.641v7.717A15.852,15.852,0,0,0,14.834,52.851v4.8a3.829,3.829,0,0,0-2.459,2.725,4.8,4.8,0,0,0,2.935,5.614v1.024a15.578,15.578,0,0,0,8.067,13.637v4.7l-8.449,3.606-.058.027A8.911,8.911,0,0,0,10,96.178c0,.029,0,.059,0,.089v9.892a1.071,1.071,0,0,0,1.071,1.071H51.548a1.071,1.071,0,0,0,1.071-1.071V96.433h40.56a4.646,4.646,0,0,0,4.641-4.641V32.562A4.646,4.646,0,0,0,93.179,27.921Zm-38.3-1.145H85.073v4H54.883ZM16.976,52.851a13.718,13.718,0,0,1,27.437,0v4.876c-2.654.287-10.755.72-17.261-3.594,4.47-.6,9.919-1.968,13.96-5.067a1.071,1.071,0,1,0-1.3-1.7C32.458,53,19.324,52.41,19.193,52.4a1.072,1.072,0,0,0-1.125,1L17.747,58.7l-.7-.359a.136.136,0,0,1-.071-.093Zm.476,14.164V65.18a1.071,1.071,0,0,0-.886-1.055,2.65,2.65,0,0,1-2.111-3.238,1.669,1.669,0,0,1,.954-1.158,2.261,2.261,0,0,0,.66.516l1.749.9a1.37,1.37,0,0,0,1.992-1.11c0-.007,0-.013,0-.02l.331-5.441c.875.008,2.227-.006,3.872-.121,8.747,7.441,21.126,5.363,21.656,5.27a1.067,1.067,0,0,0,.317-.112A1.7,1.7,0,0,1,47.3,60.887a2.65,2.65,0,0,1-2.111,3.238A1.071,1.071,0,0,0,44.3,65.18v1.835a13.424,13.424,0,1,1-26.849,0Zm22.9,12.341V85.83l-1.11-.473v-5.22Q39.815,79.771,40.352,79.356ZM37.1,81.283v3.845a15.244,15.244,0,0,1-11.581,0v-3.5A15.563,15.563,0,0,0,37.1,81.283Zm13.377,23.806H12.142V96.312A6.758,6.758,0,0,1,15.8,90.92l8.918-3.806a17.376,17.376,0,0,0,13.182,0L46.82,90.92a6.757,6.757,0,0,1,3.657,5.392Zm45.2-13.3a2.5,2.5,0,0,1-2.5,2.5H52.241a8.915,8.915,0,0,0-4.492-5.3l-.058-.027-5.2-2.218v-9.38a15.5,15.5,0,0,0,3.949-10.35V65.991a4.8,4.8,0,0,0,2.935-5.614,3.838,3.838,0,0,0-2.823-2.838V52.851a15.8,15.8,0,0,0-4.061-10.588v-9.7a2.5,2.5,0,0,1,2.5-2.5h7.749v1.779a1.071,1.071,0,0,0,1.071,1.071H86.144a1.071,1.071,0,0,0,1.071-1.071V30.063h5.964a2.5,2.5,0,0,1,2.5,2.5Z" transform="translate(-10 -24.634)" fill="#fff" stroke="#fff" stroke-width="1"/>
    <path id="Path_13794" data-name="Path 13794" d="M405.619,221.686h-7.83a1.071,1.071,0,1,0,0,2.142h7.83a1.071,1.071,0,1,0,0-2.142Z" transform="translate(-327.69 -186.513)" fill="#fff" stroke="#fff" stroke-width="1"/>
    <path id="Path_13795" data-name="Path 13795" d="M357.228,223.828h2.627a1.071,1.071,0,0,0,0-2.142h-2.627a1.071,1.071,0,0,0,0,2.142Z" transform="translate(-294.369 -186.513)" fill="#fff" stroke="#fff" stroke-width="1"/>
    <path id="Path_13796" data-name="Path 13796" d="M429.419,286.582H426.76a1.071,1.071,0,0,0,0,2.142h2.659a1.071,1.071,0,0,0,0-2.142Z" transform="translate(-351.49 -239.825)" fill="#fff" stroke="#fff" stroke-width="1"/>
    <path id="Path_13797" data-name="Path 13797" d="M340.732,288.724a1.071,1.071,0,0,0,0-2.142H326.549a1.071,1.071,0,0,0,0,2.142Z" transform="translate(-269.166 -239.825)" fill="#fff" stroke="#fff" stroke-width="1"/>
    <path id="Path_13798" data-name="Path 13798" d="M301.1,286.582h-.957a1.071,1.071,0,0,0,0,2.142h.957a1.071,1.071,0,0,0,0-2.142Z" transform="translate(-247.477 -239.825)" fill="#fff" stroke="#fff" stroke-width="1"/>
    <path id="Path_13799" data-name="Path 13799" d="M240.283,286.582a1.071,1.071,0,1,0,0,2.142h6.072a1.071,1.071,0,0,0,0-2.142Z" transform="translate(-198.299 -239.825)" fill="#fff" stroke="#fff" stroke-width="1"/>
    <path id="Path_13800" data-name="Path 13800" d="M413.449,346.563H407.32a1.071,1.071,0,0,0,0,2.142h6.129a1.071,1.071,0,0,0,0-2.142Z" transform="translate(-335.52 -289.1)" fill="#fff" stroke="#fff" stroke-width="1"/>
    <path id="Path_13801" data-name="Path 13801" d="M382.241,346.563h-.77a1.071,1.071,0,1,0,0,2.142h.769a1.071,1.071,0,0,0,0-2.142Z" transform="translate(-314.285 -289.1)" fill="#fff" stroke="#fff" stroke-width="1"/>
    <path id="Path_13802" data-name="Path 13802" d="M337.792,346.563h-5.821a1.071,1.071,0,0,0,0,2.142h5.822a1.071,1.071,0,0,0,0-2.142Z" transform="translate(-273.621 -289.1)" fill="#fff" stroke="#fff" stroke-width="1"/>
    <path id="Path_13803" data-name="Path 13803" d="M251.925,346.563H240.283a1.071,1.071,0,1,0,0,2.142h11.642a1.071,1.071,0,1,0,0-2.142Z" transform="translate(-198.299 -289.1)" fill="#fff" stroke="#fff" stroke-width="1"/>
    <path id="Path_13804" data-name="Path 13804" d="M438.474,170.6h-.691a1.071,1.071,0,0,0,0,2.142h.691a1.071,1.071,0,1,0,0-2.142Z" transform="translate(-360.546 -144.546)" fill="#fff" stroke="#fff" stroke-width="1"/>
    <path id="Path_13805" data-name="Path 13805" d="M369.41,172.742H377a1.071,1.071,0,0,0,0-2.142H369.41a1.071,1.071,0,1,0,0,2.142Z" transform="translate(-304.377 -144.546)" fill="#fff" stroke="#fff" stroke-width="1"/>
    <path id="Path_13806" data-name="Path 13806" d="M406.44,120.6h-7.652a1.071,1.071,0,1,0,0,2.142h7.652a1.071,1.071,0,1,0,0-2.142Z" transform="translate(-328.511 -103.47)" fill="#fff" stroke="#fff" stroke-width="1"/>
    <path id="Path_13807" data-name="Path 13807" d="M369.41,122.742h.631a1.071,1.071,0,1,0,0-2.142h-.631a1.071,1.071,0,1,0,0,2.142Z" transform="translate(-304.377 -103.47)" fill="#fff" stroke="#fff" stroke-width="1"/>
    <path id="Path_13808" data-name="Path 13808" d="M233.656,129.481A11.781,11.781,0,1,0,221.875,117.7,11.781,11.781,0,0,0,233.656,129.481Zm0-21.42a9.639,9.639,0,1,1-9.639,9.639A9.639,9.639,0,0,1,233.656,108.062Z" transform="translate(-184.056 -91.411)" fill="#fff" stroke="#fff" stroke-width="1"/>
    <path id="Path_13809" data-name="Path 13809" d="M254.773,153.657a1.071,1.071,0,0,0,1.515,0l7.824-7.824a1.071,1.071,0,1,0-1.515-1.515l-7.066,7.067-2.3-2.3a1.071,1.071,0,1,0-1.515,1.514Z" transform="translate(-208.316 -122.697)" fill="#fff" stroke="#fff" stroke-width="1"/>
  </g>
</svg>
