<svg xmlns="http://www.w3.org/2000/svg" width="22.341" height="31" viewBox="0 0 22.341 31">
  <g id="included" transform="translate(-71.504)">
    <path id="Path_28506" data-name="Path 28506" d="M92.332,0H73.018A1.515,1.515,0,0,0,71.5,1.514c0,.066,0,21.773,0,22.384a.908.908,0,0,0,.236.611h0c.056.061,5.906,5.925,6.1,6.071a.907.907,0,0,0,.765.42H92.332a1.515,1.515,0,0,0,1.514-1.514V1.514A1.515,1.515,0,0,0,92.332,0ZM77.7,27.9,74.6,24.805H77.7Zm14.33,1.284H79.515V23.9a.908.908,0,0,0-.908-.908H73.321V1.816H92.029V29.184Z" fill="#fff"/>
    <path id="Path_28508" data-name="Path 28508" d="M256.348,64.8H257.6v1.254a.908.908,0,0,0,1.816,0V64.8h1.2a.908.908,0,0,0,0-1.816h-1.2v-1.2a.908.908,0,0,0-1.816,0v1.2h-1.254a.908.908,0,1,0,0,1.816Z" transform="translate(-175.827 -54.223)" fill="#fff"/>
    <path id="Path_28509" data-name="Path 28509" d="M147.908,279.816h11.383a.908.908,0,0,0,0-1.816H147.908a.908.908,0,0,0,0,1.816Z" transform="translate(-70.925 -261.168)" fill="#fff"/>
    <path id="Path_28510" data-name="Path 28510" d="M247.6,379.685h-5.691a.908.908,0,1,0,0,1.816H247.6a.908.908,0,0,0,0-1.816Z" transform="translate(-159.238 -356.696)" fill="#fff"/>
  </g>
</svg>
