<svg xmlns="http://www.w3.org/2000/svg" width="33.74" height="25.14" viewBox="0 0 33.74 25.14">
  <g id="learn" transform="translate(0 0)">
    <path id="Path_1839" data-name="Path 1839" d="M137.792,82.783a8.762,8.762,0,1,0-8.086-5.409A8.762,8.762,0,0,0,137.792,82.783Z" transform="translate(-120.514 -65.258)" fill="#fff"/>
    <path id="Path_1840" data-name="Path 1840" d="M350.579,280.49l-6.065-6.066a10.755,10.755,0,0,1-4.351,4.407l6.037,6.039a3.1,3.1,0,1,0,4.378-4.379Z" transform="translate(-317.746 -260.636)" fill="#fff"/>
    <path id="Path_1841" data-name="Path 1841" d="M.991,216.891H5.2a.988.988,0,1,0,0-1.977H.991a.988.988,0,1,0,0,1.977Z" transform="translate(-0.003 -205.047)" fill="#fff"/>
    <path id="Path_1842" data-name="Path 1842" d="M.991,280.891h5.8a.988.988,0,1,0,0-1.977H.991a.988.988,0,1,0,0,1.977Z" transform="translate(-0.003 -264.83)" fill="#fff"/>
    <path id="Path_1843" data-name="Path 1843" d="M.991,344.891H11a.988.988,0,0,0,0-1.977H.991a.988.988,0,1,0,0,1.977Z" transform="translate(-0.003 -324.614)" fill="#fff"/>
    <path id="Path_1844" data-name="Path 1844" d="M22.6,406.914H.991a.988.988,0,1,0,0,1.977H22.6a.988.988,0,1,0,0-1.977Z" transform="translate(-0.003 -384.398)" fill="#fff"/>
  </g>
</svg>
