<svg xmlns="http://www.w3.org/2000/svg" xmlns:xlink="http://www.w3.org/1999/xlink" width="143.452" height="148.276" viewBox="0 0 143.452 148.276">
  <defs>
    <filter id="Path_28364" x="0" y="9.757" width="143.452" height="138.519" filterUnits="userSpaceOnUse">
      <feOffset dy="3" input="SourceAlpha"/>
      <feGaussianBlur stdDeviation="3" result="blur"/>
      <feFlood flood-opacity="0.161"/>
      <feComposite operator="in" in2="blur"/>
      <feComposite in="SourceGraphic"/>
    </filter>
  </defs>
  <g id="online-gray" transform="translate(-362.415 -2231)">
    <path id="Path_28363" data-name="Path 28363" d="M1033.782,568.079c-14.311,13.521-43.368,12.56-57.929,0-10.532-9.15-5.372-19.432-9.927-30.478-5.688-13.732-11.968-22.3-3.686-37.443,5.661-10.348,16.747-18.577,28.609-19.854,14.3-1.527,21.065,6.7,26.752,18.234,3.357,6.859,5.569,12.863,11.757,17.695,5.622,4.41,13.626,5.859,17.339,12.428C1053.82,541.261,1042.037,558.955,1033.782,568.079Z" transform="translate(-544.81 1750.879)" fill="silver" opacity="0.6"/>
    <g id="Group_8319" data-name="Group 8319">
      <g transform="matrix(1, 0, 0, 1, 362.41, 2231)" filter="url(#Path_28364)">
        <path id="Path_28364-2" data-name="Path 28364" d="M1041.759,551.1c.961,22.961-31.518,73.293-60.562,60.443-16.918-7.491-9.071-30.5-31.281-27.937-8.61,1-14.561,5.714-22.474-.237-5.714-4.292-8.834-13.468-10.164-20.064-6.5-32.256,21.289-71.647,55.611-70.173,15.535.671,32.137,8.242,44.895,16.826C1034.531,521.238,1040.969,531.981,1041.759,551.1Z" transform="translate(-907.33 -477.33)" fill="#f5f5f5"/>
      </g>
      <g id="online-class" transform="translate(406 2277)">
        <g id="Group_7466" data-name="Group 7466" transform="translate(0.812 0.812)">
          <g id="Group_7464" data-name="Group 7464">
            <g id="Group_7459" data-name="Group 7459" transform="translate(0 4.661)">
              <path id="Path_28378" data-name="Path 28378" d="M58.065,87.621H10.748A3.248,3.248,0,0,1,7.5,84.372V53.793a3.248,3.248,0,0,1,3.248-3.248H58.065a3.248,3.248,0,0,1,3.248,3.248V84.372A3.248,3.248,0,0,1,58.065,87.621Z" transform="translate(-7.5 -50.545)" fill="silver"/>
              <path id="Path_28379" data-name="Path 28379" d="M447.748,50.545H444.5a3.248,3.248,0,0,1,3.248,3.248V84.372a3.248,3.248,0,0,1-3.248,3.248h3.248A3.248,3.248,0,0,0,451,84.372V53.793a3.248,3.248,0,0,0-3.248-3.248Z" transform="translate(-397.183 -50.545)" fill="silver"/>
              <path id="Path_28380" data-name="Path 28380" d="M37.5,109.067V80.978a.433.433,0,0,1,.433-.433H84.384a.433.433,0,0,1,.433.433v28.089a.433.433,0,0,1-.433.433H37.933A.433.433,0,0,1,37.5,109.067Z" transform="translate(-34.252 -77.297)" fill="#fff"/>
              <path id="Path_28381" data-name="Path 28381" d="M443.748,80.545H440.5a.433.433,0,0,1,.433.433v28.089a.433.433,0,0,1-.433.433h3.248a.433.433,0,0,0,.433-.433V80.978A.433.433,0,0,0,443.748,80.545Z" transform="translate(-393.616 -77.297)" fill="#fff"/>
              <path id="Path_28382" data-name="Path 28382" d="M217.186,405.039H206.457l1.624-12.077h7.48Z" transform="translate(-184.915 -355.886)" fill="silver"/>
              <path id="Path_28383" data-name="Path 28383" d="M263.791,392.962h-3.248l1.624,12.077h3.248Z" transform="translate(-233.144 -355.886)" fill="silver"/>
              <path id="Path_28384" data-name="Path 28384" d="M195.476,451.05l1.144,4.124a.866.866,0,0,1-.835,1.1H181.114a.866.866,0,0,1-.835-1.1l1.144-4.124a.866.866,0,0,1,.835-.635h12.384A.866.866,0,0,1,195.476,451.05Z" transform="translate(-161.543 -407.119)" fill="silver"/>
              <path id="Path_28385" data-name="Path 28385" d="M288.413,455.173l-1.144-4.124a.866.866,0,0,0-.835-.635h-3.248a.866.866,0,0,1,.835.635l1.144,4.124a.866.866,0,0,1-.835,1.1h3.248A.866.866,0,0,0,288.413,455.173Z" transform="translate(-253.336 -407.119)" fill="silver"/>
            </g>
            <path id="Path_28386" data-name="Path 28386" d="M97.01,67.5h34.43V97.867H97.01Z" transform="translate(-87.318 -61.003)" fill="#fff"/>
            <path id="Path_28387" data-name="Path 28387" d="M376.238,7.5H372.99a1.3,1.3,0,0,1,1.3,1.3V44.364h3.248V8.8A1.3,1.3,0,0,0,376.238,7.5Z" transform="translate(-333.416 -7.5)" fill="#fff"/>
            <path id="Path_28388" data-name="Path 28388" d="M130.14,7.5H98.309a1.3,1.3,0,0,0-1.3,1.3V14h34.43V8.8A1.3,1.3,0,0,0,130.14,7.5Z" transform="translate(-87.318 -7.5)" fill="silver"/>
            <path id="Path_28389" data-name="Path 28389" d="M376.238,7.5H372.99a1.3,1.3,0,0,1,1.3,1.3V14h3.248V8.8A1.3,1.3,0,0,0,376.238,7.5Z" transform="translate(-333.416 -7.5)" fill="#405972"/>
            <g id="Group_7463" data-name="Group 7463" transform="translate(17.692 9.935)">
              <path id="Path_28390" data-name="Path 28390" d="M189.327,227.959v-5.616a4.5,4.5,0,0,0-2.854-4.189l-2.194-.863a2.268,2.268,0,0,1-1.438-2.11v-1.793h-5.457v1.793a2.268,2.268,0,0,1-1.438,2.11l-2.194.863a4.5,4.5,0,0,0-2.854,4.189v5.616" transform="translate(-170.898 -201.03)" fill="#0064d8"/>
              <g id="Group_7460" data-name="Group 7460" transform="translate(8.695 12.358)">
                <path id="Path_28391" data-name="Path 28391" d="M258.08,218.153l-2.194-.863a2.268,2.268,0,0,1-1.438-2.11v-1.793H251.2V216.8a2.268,2.268,0,0,0,1.438,2.11l2.194.863a4.5,4.5,0,0,1,2.854,4.189v3.991h3.248v-5.616A4.5,4.5,0,0,0,258.08,218.153Z" transform="translate(-251.2 -213.387)" fill="#0064d8"/>
              </g>
              <path id="Path_28392" data-name="Path 28392" d="M224.185,218.971a4.989,4.989,0,0,0,3.863-1.826c-.695-.4-2.759-1.146-2.759-1.964v-1.793h-3.833v1.793a2.268,2.268,0,0,1-1.135,1.964A4.988,4.988,0,0,0,224.185,218.971Z" transform="translate(-214.971 -201.029)" fill="#f2ccbc"/>
              <path id="Path_28393" data-name="Path 28393" d="M252.591,218.9a5,5,0,0,0,2.991-1.75,2.266,2.266,0,0,1-1.135-1.964v-1.793H251.2v3.417A2.267,2.267,0,0,0,252.591,218.9Z" transform="translate(-242.504 -201.03)" fill="#ecad9a"/>
              <path id="Path_28394" data-name="Path 28394" d="M215.175,125.131c-.172,0-.462.55-.629.533a4.972,4.972,0,0,1-4.463-4.946v-2.157l1.624-3.907c0-1.437,1.165-.977,2.6-.977h3.117c1.437,0,.977-.46.977.977l1.624,3.907v2.157a4.968,4.968,0,0,1-2.243,4.157,5.045,5.045,0,0,1-2.608.256Z" transform="translate(-205.839 -112.053)" fill="#fff"/>
              <g id="Group_7461" data-name="Group 7461" transform="translate(6.486 1.554)">
                <path id="Path_28395" data-name="Path 28395" d="M236.877,114.653c0-1.437.46-.977-.977-.977l-.647,3.26v3.781a3.982,3.982,0,0,1-.943,2.913,4.134,4.134,0,0,1-3.509,1.243,5.061,5.061,0,0,0,1.964.756,5.909,5.909,0,0,0,.764.059,4.972,4.972,0,0,0,4.972-4.972V118.56Z" transform="translate(-230.801 -113.606)" fill="#fff"/>
              </g>
              <path id="Path_28396" data-name="Path 28396" d="M220.025,101.853a2.6,2.6,0,0,0-2.6-2.6h-4.741a2.6,2.6,0,0,0-2.6,2.6v3.907a9.2,9.2,0,0,0,4.474-.414,8.968,8.968,0,0,0,2.051-1.049.215.215,0,0,1,.3.058,3.154,3.154,0,0,0,3.117,1.405Z" transform="translate(-205.838 -99.252)" fill="#fff"/>
              <g id="Group_7462" data-name="Group 7462" transform="translate(8.337)">
                <path id="Path_28397" data-name="Path 28397" d="M251.142,99.252h-3.248a2.6,2.6,0,0,1,2.6,2.6v2.411a.211.211,0,0,1,.131.091,3.154,3.154,0,0,0,3.117,1.405v-3.907A2.6,2.6,0,0,0,251.142,99.252Z" transform="translate(-247.894 -99.252)" fill="#fff"/>
              </g>
            </g>
          </g>
          <path id="Path_28398" data-name="Path 28398" d="M337.269,37.5H350.6a2.524,2.524,0,0,1,2.524,2.524v5.753A2.524,2.524,0,0,1,350.6,48.3h-7.486a.589.589,0,0,0-.416.172l-2.436,2.436a.336.336,0,0,1-.574-.238V48.889a.589.589,0,0,0-.589-.589h-1.832a2.524,2.524,0,0,1-2.524-2.524V40.024a2.524,2.524,0,0,1,2.524-2.524Z" transform="translate(-299.312 -34.252)" fill="#fff"/>
          <g id="Group_7465" data-name="Group 7465" transform="translate(48.041 3.248)">
            <path id="Path_28399" data-name="Path 28399" d="M454.441,37.5h-3.248a2.524,2.524,0,0,1,2.524,2.524v5.753a2.524,2.524,0,0,1-2.524,2.524h3.248a2.524,2.524,0,0,0,2.524-2.524V40.024a2.524,2.524,0,0,0-2.524-2.524Z" transform="translate(-451.193 -37.5)" fill="#fff"/>
          </g>
        </g>
        <path id="Path_28400" data-name="Path 28400" d="M17,3.248a.812.812,0,1,0,.812.812A.812.812,0,0,0,17,3.248Zm3.248,0a.812.812,0,1,0,.812.812A.812.812,0,0,0,20.249,3.248Zm-6.5,0a.812.812,0,1,0,.812.812A.812.812,0,0,0,13.752,3.248Zm38.35,0H45.746V2.111A2.114,2.114,0,0,0,43.634,0H11.8A2.114,2.114,0,0,0,9.692,2.111V4.66H4.06A4.065,4.065,0,0,0,0,8.721V39.3a4.065,4.065,0,0,0,4.06,4.06H23.05l-.618,4.6h-.9a1.683,1.683,0,0,0-1.617,1.23l-1.144,4.124a1.678,1.678,0,0,0,1.617,2.127H35.054a1.678,1.678,0,0,0,1.617-2.127l-1.144-4.124a1.683,1.683,0,0,0-1.617-1.23h-.9l-.618-4.6h18.99a4.065,4.065,0,0,0,4.06-4.06V6.584A3.339,3.339,0,0,0,52.1,3.248ZM11.316,8.121H24.47a.812.812,0,1,0,0-1.624H11.316V2.111a.488.488,0,0,1,.487-.487H43.634a.488.488,0,0,1,.487.487V3.248H38.769A3.339,3.339,0,0,0,35.435,6.5H28.26a.812.812,0,1,0,0,1.624h7.173v4.216a3.339,3.339,0,0,0,3.336,3.336h1.609v1.558a1.149,1.149,0,0,0,1.961.812l1.783-1.783V28.935a.812.812,0,0,0,1.624,0V15.672h4.819V36.864H45.746V32.724a.812.812,0,0,0-1.624,0v4.139H37.745v-4.8a5.283,5.283,0,0,0-3.369-4.945l-2.194-.863A1.447,1.447,0,0,1,31.26,24.9V23.98A5.776,5.776,0,0,0,33.5,19.412V13.348A3.417,3.417,0,0,0,30.09,9.935H25.348a3.417,3.417,0,0,0-3.413,3.413v6.064a5.776,5.776,0,0,0,2.243,4.569V24.9a1.447,1.447,0,0,1-.923,1.355l-2.193.863a5.283,5.283,0,0,0-3.369,4.945v4.8H11.316ZM32.061,33.806a.812.812,0,0,0-.812.812v2.246h-7.06V34.618a.812.812,0,0,0-1.624,0v2.246H19.317v-4.8a3.668,3.668,0,0,1,2.339-3.433l2-.786a5.809,5.809,0,0,0,8.13,0l2,.786a3.668,3.668,0,0,1,2.339,3.433v4.8H32.873V34.618a.812.812,0,0,0-.812-.812ZM24.167,18.174a9.892,9.892,0,0,0,3.327-.569,9.758,9.758,0,0,0,1.761-.838,3.938,3.938,0,0,0,2.623,1.317v1.327a4.16,4.16,0,0,1-8.32,0V18.154c.2.012.406.02.608.02Zm-.608-1.647v-3.18a1.791,1.791,0,0,1,1.789-1.789h4.741a1.791,1.791,0,0,1,1.789,1.789v3.1a2.319,2.319,0,0,1-.676-.206,2.365,2.365,0,0,1-.949-.838,1.027,1.027,0,0,0-1.441-.285,8.161,8.161,0,0,1-1.865.954A8.332,8.332,0,0,1,23.559,16.528Zm6.827,10.388a4.181,4.181,0,0,1-5.335,0A3.065,3.065,0,0,0,25.8,24.9v-.03a5.767,5.767,0,0,0,3.833,0v.03A3.065,3.065,0,0,0,30.386,26.915Zm3.525,22.666a.054.054,0,0,1,.052.04h0l1.144,4.124a.06.06,0,0,1-.052.069H20.383a.06.06,0,0,1-.052-.069l1.144-4.124a.054.054,0,0,1,.052-.04H33.911Zm-9.84-1.624.618-4.6h6.059l.618,4.6ZM53.813,39.3a2.439,2.439,0,0,1-2.436,2.436H4.06A2.439,2.439,0,0,1,1.624,39.3V8.721A2.439,2.439,0,0,1,4.06,6.284H9.692V7.909h-5.2A1.247,1.247,0,0,0,3.248,9.154V37.243a1.247,1.247,0,0,0,1.245,1.245H50.944a1.247,1.247,0,0,0,1.245-1.245V15.67a3.314,3.314,0,0,0,1.624-.472ZM9.692,9.533V36.864H4.872V9.533Zm44.122,2.8A1.713,1.713,0,0,1,52.1,14.048H44.616a1.391,1.391,0,0,0-.991.41L42,16.083v-.633a1.4,1.4,0,0,0-1.4-1.4H38.769a1.713,1.713,0,0,1-1.712-1.712V6.584a1.713,1.713,0,0,1,1.712-1.712H52.1a1.713,1.713,0,0,1,1.712,1.711Zm-2.862-2.064H39.919a.812.812,0,1,0,0,1.624H50.951a.812.812,0,1,0,0-1.624Zm0-3.248H39.919a.812.812,0,1,0,0,1.624H50.951a.812.812,0,1,0,0-1.624Z" transform="translate(0)"/>
      </g>
    </g>
  </g>
</svg>
