<svg xmlns="http://www.w3.org/2000/svg" xmlns:xlink="http://www.w3.org/1999/xlink" width="143.451" height="148.28" viewBox="0 0 143.451 148.28">
  <defs>
    <filter id="Path_28364" x="0" y="9.761" width="143.451" height="138.519" filterUnits="userSpaceOnUse">
      <feOffset dy="3" input="SourceAlpha"/>
      <feGaussianBlur stdDeviation="3" result="blur"/>
      <feFlood flood-color="#e7e7e7"/>
      <feComposite operator="in" in2="blur"/>
      <feComposite in="SourceGraphic"/>
    </filter>
  </defs>
  <g id="onsite-gray" transform="translate(-357.41 -2378)">
    <path id="Path_28363" data-name="Path 28363" d="M1033.78,568.079c-14.311,13.521-43.368,12.56-57.929,0-10.532-9.15-5.372-19.432-9.927-30.478-5.688-13.732-11.968-22.3-3.686-37.443,5.661-10.348,16.747-18.577,28.609-19.854,14.3-1.527,21.065,6.7,26.752,18.234,3.357,6.859,5.569,12.863,11.757,17.7,5.622,4.41,13.626,5.859,17.339,12.428C1053.82,541.261,1042.04,558.955,1033.78,568.079Z" transform="translate(-549.81 1897.879)" fill="silver" opacity="0.6"/>
    <g id="Group_8324" data-name="Group 8324">
      <g transform="matrix(1, 0, 0, 1, 357.41, 2378)" filter="url(#Path_28364)">
        <path id="Path_28364-2" data-name="Path 28364" d="M1041.76,551.1c.961,22.961-31.518,73.293-60.562,60.443-16.918-7.491-9.071-30.5-31.281-27.937-8.61,1-14.561,5.714-22.474-.237-5.714-4.292-8.834-13.468-10.164-20.064-6.5-32.256,21.289-71.647,55.611-70.173,15.535.671,32.137,8.242,44.9,16.826C1034.53,521.238,1040.97,531.981,1041.76,551.1Z" transform="translate(-907.33 -477.33)" fill="#f5f5f5"/>
      </g>
      <g id="Flat" transform="translate(399 2416)">
        <rect id="Rectangle_465" data-name="Rectangle 465" width="13" height="32" rx="1" transform="translate(42 26)" fill="#fff" stroke="#181818" stroke-width="1"/>
        <rect id="Rectangle_466" data-name="Rectangle 466" width="5" height="6" rx="1" transform="translate(47 30)" fill="#181818"/>
        <rect id="Rectangle_467" data-name="Rectangle 467" width="5" height="6" rx="1" transform="translate(47 37)" fill="#181818"/>
        <rect id="Rectangle_468" data-name="Rectangle 468" width="13" height="32" rx="1" transform="translate(5 26)" fill="#fff" stroke="#181818" stroke-width="1"/>
        <rect id="Rectangle_469" data-name="Rectangle 469" width="5" height="6" rx="1" transform="translate(8 30)" fill="#181818"/>
        <rect id="Rectangle_470" data-name="Rectangle 470" width="5" height="6" rx="1" transform="translate(8 37)" fill="#181818"/>
        <path id="Path_28408" data-name="Path 28408" d="M1,0H27a1,1,0,0,1,1,1V41a1,1,0,0,1-1,1H1a1,1,0,0,1-1-1V1A1,1,0,0,1,1,0Z" transform="translate(16 16)" fill="#0064d8"/>
        <g id="Group_7467" data-name="Group 7467" transform="translate(18.8 19.733)">
          <rect id="Rectangle_472" data-name="Rectangle 472" width="5" height="5" rx="1" transform="translate(0.2 0.267)" fill="#fff"/>
          <rect id="Rectangle_473" data-name="Rectangle 473" width="6" height="5" rx="1" transform="translate(8.2 0.267)" fill="#fff"/>
          <rect id="Rectangle_474" data-name="Rectangle 474" width="5" height="5" rx="1" transform="translate(17.2 0.267)" fill="#fff"/>
          <rect id="Rectangle_475" data-name="Rectangle 475" width="5" height="6" rx="1" transform="translate(0.2 7.267)" fill="#fff"/>
          <rect id="Rectangle_476" data-name="Rectangle 476" width="6" height="6" rx="1" transform="translate(8.2 7.267)" fill="#fff"/>
          <rect id="Rectangle_477" data-name="Rectangle 477" width="5" height="6" rx="1" transform="translate(17.2 7.267)" fill="#fff"/>
          <rect id="Rectangle_478" data-name="Rectangle 478" width="5" height="5" rx="1" transform="translate(0.2 15.267)" fill="#fff"/>
          <rect id="Rectangle_479" data-name="Rectangle 479" width="6" height="5" rx="1" transform="translate(8.2 15.267)" fill="#fff"/>
          <rect id="Rectangle_480" data-name="Rectangle 480" width="5" height="5" rx="1" transform="translate(17.2 15.267)" fill="#fff"/>
        </g>
        <path id="Path_28401" data-name="Path 28401" d="M38.867,46.867H23.933a.934.934,0,1,1,0-1.867H38.867a.933.933,0,1,1,0,1.867Z" transform="translate(-1.4 -2.867)" fill="#2980b9"/>
        <path id="Path_28402" data-name="Path 28402" d="M26,46H37.2V60H26Z" transform="translate(-1.6 -2.933)" fill="#fff"/>
        <path id="Path_28403" data-name="Path 28403" d="M37.133,45h-11.2a.933.933,0,0,0-.933.933v14a.933.933,0,0,0,.933.933h11.2a.933.933,0,0,0,.933-.933v-14A.933.933,0,0,0,37.133,45ZM26.867,46.867H30.6V59H26.867ZM36.2,59H32.467V46.867H36.2Z" transform="translate(-1.533 -2.867)" fill="#2980b9"/>
        <path id="Path_28404" data-name="Path 28404" d="M57.067,61.867H2.933a.934.934,0,0,1,0-1.867H57.067a.933.933,0,1,1,0,1.867Z" transform="translate(0 -3.867)" fill="#333"/>
        <path id="Path_28405" data-name="Path 28405" d="M34.629,14.407a.94.94,0,0,1-.328-.06,7.324,7.324,0,0,0-5.15,0A.933.933,0,1,1,28.5,12.6a9.2,9.2,0,0,1,6.461,0,.933.933,0,0,1-.328,1.808Z" transform="translate(-1.726 -0.668)" fill="#181818"/>
        <path id="Path_28406" data-name="Path 28406" d="M37.113,10.247a.933.933,0,0,1-.428-.1,11.2,11.2,0,0,0-10.3,0,.933.933,0,0,1-.859-1.657,13.067,13.067,0,0,1,12.021,0,.933.933,0,0,1-.43,1.761Z" transform="translate(-1.533 -0.335)" fill="#181818"/>
        <path id="Path_28407" data-name="Path 28407" d="M39.55,6.17a.933.933,0,0,1-.483-.135,14.833,14.833,0,0,0-15.439,0,.935.935,0,0,1-.969-1.6,16.7,16.7,0,0,1,17.377,0A.933.933,0,0,1,39.55,6.17Z" transform="translate(-1.347)" fill="#181818"/>
      </g>
    </g>
  </g>
</svg>
