<svg xmlns="http://www.w3.org/2000/svg" xmlns:xlink="http://www.w3.org/1999/xlink" width="200" height="200" viewBox="0 0 200 200">
  <defs>
    <filter id="Ellipse_42" x="0" y="0" width="200" height="200" filterUnits="userSpaceOnUse">
      <feOffset input="SourceAlpha"/>
      <feGaussianBlur stdDeviation="10" result="blur"/>
      <feFlood flood-opacity="0.161"/>
      <feComposite operator="in" in2="blur"/>
      <feComposite in="SourceGraphic"/>
    </filter>
    <linearGradient id="linear-gradient" x1="0.5" x2="0.5" y2="1" gradientUnits="objectBoundingBox">
      <stop offset="0" stop-color="#0064d8"/>
      <stop offset="1" stop-color="#00326c"/>
    </linearGradient>
  </defs>
  <g id="points" transform="translate(-268 -3071)">
    <g transform="matrix(1, 0, 0, 1, 268, 3071)" filter="url(#Ellipse_42)">
      <circle id="Ellipse_42-2" data-name="Ellipse 42" cx="70" cy="70" r="70" transform="translate(30 30)" fill="#fff"/>
    </g>
    <g id="points-2" data-name="points" transform="translate(337 3140)">
      <g id="Group_7693" data-name="Group 7693" transform="translate(0 43.836)">
        <path id="Path_29074" data-name="Path 29074" d="M136.723,455.633h-7.167L128.344,452h-17.15l-1.211,3.633h-7.167a1.816,1.816,0,1,0,0,3.633h33.906a1.816,1.816,0,0,0,0-3.633Z" transform="translate(-88.77 -441.102)" fill="url(#linear-gradient)"/>
        <path id="Path_29075" data-name="Path 29075" d="M0,363.816a5.455,5.455,0,0,0,5.449,5.449h51.1A5.455,5.455,0,0,0,62,363.816V362H0Z" transform="translate(0 -362)" fill="url(#linear-gradient)"/>
      </g>
      <g id="Group_7694" data-name="Group 7694" transform="translate(0 9.93)">
        <path id="Path_29076" data-name="Path 29076" d="M56.551,82H52.191v18.527a1.816,1.816,0,0,1-1.816,1.816H35.844a3.031,3.031,0,0,0-3.027,3.027,1.816,1.816,0,0,1-3.633,0,3.031,3.031,0,0,0-3.027-3.027H11.625a1.816,1.816,0,0,1-1.816-1.816V82H5.449A5.455,5.455,0,0,0,0,87.449v24.824H62V87.449A5.455,5.455,0,0,0,56.551,82Z" transform="translate(0 -82)" fill="url(#linear-gradient)"/>
      </g>
      <g id="Group_7695" data-name="Group 7695" transform="translate(13.441)">
        <path id="Path_29077" data-name="Path 29077" d="M122.5,0h-9.687A1.816,1.816,0,0,0,111,1.816V26.641h12.715a6.621,6.621,0,0,1,3.027.729V4.238A4.238,4.238,0,0,0,122.5,0Zm-1.211,21.8h-4.844a1.816,1.816,0,0,1,0-3.633h4.844a1.816,1.816,0,0,1,0,3.633Zm0-6.66h-4.844a1.816,1.816,0,0,1,0-3.633h4.844a1.816,1.816,0,0,1,0,3.633Zm0-6.66h-4.844a1.816,1.816,0,0,1,0-3.633h4.844a1.816,1.816,0,0,1,0,3.633Z" transform="translate(-111)" fill="url(#linear-gradient)"/>
        <path id="Path_29078" data-name="Path 29078" d="M284.926,0h-9.687A4.238,4.238,0,0,0,271,4.238V27.369a6.621,6.621,0,0,1,3.027-.729h12.715V1.816A1.816,1.816,0,0,0,284.926,0Zm-3.633,21.8h-4.844a1.816,1.816,0,0,1,0-3.633h4.844a1.816,1.816,0,0,1,0,3.633Zm0-6.66h-4.844a1.816,1.816,0,0,1,0-3.633h4.844a1.816,1.816,0,0,1,0,3.633Zm0-6.66h-4.844a1.816,1.816,0,0,1,0-3.633h4.844a1.816,1.816,0,0,1,0,3.633Z" transform="translate(-251.625)" fill="url(#linear-gradient)"/>
      </g>
    </g>
  </g>
</svg>
