<svg id="help" xmlns="http://www.w3.org/2000/svg" width="32" height="32" viewBox="0 0 32 32">
  <path id="Path_8726" data-name="Path 8726" d="M218.262,207.919a10.375,10.375,0,0,0-5.69-9.239,14.109,14.109,0,0,1-13.893,13.893,10.347,10.347,0,0,0,14.5,4.252l5.035,1.393-1.393-5.035A10.307,10.307,0,0,0,218.262,207.919Zm0,0" transform="translate(-186.262 -186.262)" fill="#fff"/>
  <path id="Path_8727" data-name="Path 8727" d="M24.437,12.219A12.219,12.219,0,1,0,1.694,18.429L.045,24.392l5.963-1.649A12.221,12.221,0,0,0,24.437,12.219ZM10.344,9.375H8.469a3.75,3.75,0,1,1,6.28,2.767L13.156,13.6v1.462H11.281V12.775l2.2-2.016a1.856,1.856,0,0,0,.61-1.384,1.875,1.875,0,1,0-3.75,0Zm.938,7.562h1.875v1.875H11.281Zm0,0" transform="translate(0)" fill="#fff"/>
</svg>
