<svg id="refreshment" xmlns="http://www.w3.org/2000/svg" xmlns:xlink="http://www.w3.org/1999/xlink" width="81.096" height="81.096" viewBox="0 0 81.096 81.096">
  <defs>
    <linearGradient id="linear-gradient" x1="0.5" x2="0.5" y2="1" gradientUnits="objectBoundingBox">
      <stop offset="0" stop-color="#0064d8"/>
      <stop offset="1" stop-color="#00326c"/>
    </linearGradient>
  </defs>
  <g id="Group_6795" data-name="Group 6795">
    <path id="Path_25932" data-name="Path 25932" d="M64.023,29.813A34.174,34.174,0,0,0,49.3,94.84l1.07-20.682s-2.013-.661-2.454-.876c-4.27-1.881-7.373-7.42-7.373-14.608,0-7.844,6.083-14.6,11.965-14.656h.022c5.883.056,11.966,6.812,11.966,14.656,0,7.188-3.106,12.725-7.368,14.608-.033.015-2.474.9-2.474.9l1.2,23a33.522,33.522,0,0,0,19.045-.77l1.059-20.494a10.987,10.987,0,0,1-6.665-4.621c-1.849-2.769,1.423-27.279,1.423-27.279h2.128v23H74.96v-23h2.312v23h2.1v-23h2.4v23h2.111v-23h1.633s3.272,24.51,1.421,27.279A11.018,11.018,0,0,1,80.345,75.9l-.094.035.921,17.629A34.178,34.178,0,0,0,64.023,29.813Z" transform="translate(-23.473 -23.463)" fill="url(#linear-gradient)"/>
    <path id="Path_25933" data-name="Path 25933" d="M93.525,143.316a9.83,9.83,0,0,1,.295-.981.447.447,0,0,0-.249-.5.409.409,0,0,0-.537.116s-.234.373-.573.923a9.909,9.909,0,0,0-.963,2.174,17.979,17.979,0,0,0-.659,3.155,15.051,15.051,0,0,0-.048,1.829,8.657,8.657,0,0,0,.35,1.939c.672,1.909,1.189,3.758,3.056,5.582a10.522,10.522,0,0,0,1.635,1.324l.155.109c.094.062.184.119.273.171a3.136,3.136,0,0,0,.658.272.4.4,0,0,0,.449-.188.4.4,0,0,0-.132-.475,4.277,4.277,0,0,1-.486-.532,9.666,9.666,0,0,1-.626-.859c-.167-.243-.364-.517-.547-.785a27.676,27.676,0,0,1-2.159-5.311,7.065,7.065,0,0,1-.3-1.463,14.931,14.931,0,0,1-.085-1.563,20.649,20.649,0,0,1,.129-2.9A11.327,11.327,0,0,1,93.525,143.316Z" transform="translate(-71.445 -111.582)" fill="url(#linear-gradient)"/>
    <path id="Path_25934" data-name="Path 25934" d="M40.55,0A40.548,40.548,0,1,0,81.1,40.548,40.6,40.6,0,0,0,40.55,0Zm0,78.071A37.526,37.526,0,1,1,78.077,40.548,37.569,37.569,0,0,1,40.55,78.071Z" fill="url(#linear-gradient)"/>
  </g>
</svg>
