<svg xmlns="http://www.w3.org/2000/svg" width="81.643" height="81.643" viewBox="0 0 81.643 81.643">
  <g id="skilled" transform="translate(19 20.372)">
    <g id="Group_7636" data-name="Group 7636" transform="translate(3.707 28.067)">
      <g id="Group_7635" data-name="Group 7635">
        <path id="Path_28477" data-name="Path 28477" d="M13.12,53.18H5V45.06a4.06,4.06,0,0,1,8.12,0Z" transform="translate(-5 -41)" fill="#0064d8"/>
      </g>
      <path id="Path_28476" data-name="Path 28476" d="M40.822,0A40.822,40.822,0,1,1,0,40.822,40.822,40.822,0,0,1,40.822,0Z" transform="translate(-22.707 -48.439)" fill="#fff"/>
    </g>
    <g id="Group_7638" data-name="Group 7638" transform="translate(15.887 28.067)">
      <g id="Group_7637" data-name="Group 7637">
        <path id="Path_28478" data-name="Path 28478" d="M29.508,50.474h-4.9l-.633-1.265A9.324,9.324,0,0,1,23,45.06a4.06,4.06,0,0,1,8.12,0,9.324,9.324,0,0,1-.979,4.148Z" transform="translate(-23 -41)" fill="#0064d8"/>
      </g>
    </g>
    <g id="Group_7640" data-name="Group 7640" transform="translate(28.067 28.067)">
      <g id="Group_7639" data-name="Group 7639">
        <path id="Path_28479" data-name="Path 28479" d="M47.508,50.474h-4.9l-.633-1.265A9.323,9.323,0,0,1,41,45.06a4.06,4.06,0,0,1,8.12,0,9.323,9.323,0,0,1-.979,4.148Z" transform="translate(-41 -41)" fill="#0064d8"/>
      </g>
    </g>
    <g id="Group_7641" data-name="Group 7641" transform="translate(28.067 1)">
      <path id="Path_28480" data-name="Path 28480" d="M52.118,3.046a7.529,7.529,0,0,0-9.034-.972A4.316,4.316,0,0,0,41,5.754v.139a4.429,4.429,0,0,0,.743,2.459l.094.141a1.349,1.349,0,0,1,1.193-.727h1.353v0H44.5a4.618,4.618,0,0,0,3.267-1.353,4.619,4.619,0,0,0,3.267,1.353h.116v0H52.5a1.347,1.347,0,0,1,1.193.727l.094-.141a4.433,4.433,0,0,0,.743-2.46V5.737a2.71,2.71,0,0,0-2.416-2.691Z" transform="translate(-41 -1)" fill="#0064d8"/>
    </g>
    <g id="Group_7642" data-name="Group 7642" transform="translate(1 1)">
      <path id="Path_28481" data-name="Path 28481" d="M49.937,1h-.132c.044,0,.088.005.132.006Z" transform="translate(-16.78 -1)"/>
      <path id="Path_28482" data-name="Path 28482" d="M5,29H6.353v1.353H5Z" transform="translate(-2.293 -10.053)" fill="#262d3f"/>
      <path id="Path_28483" data-name="Path 28483" d="M9,29h6.09v1.353H9Z" transform="translate(-3.587 -10.053)" fill="#262d3f"/>
      <path id="Path_28484" data-name="Path 28484" d="M41.17,15.689a3.977,3.977,0,0,0-1.436-.595l-2.194-.439V13.486a4.052,4.052,0,0,0,1.292-2.336h.738a2.03,2.03,0,1,0,0-4.06h-.677v0H38.1A3.916,3.916,0,0,1,35.312,5.93l-.478-.479-.478.479a3.917,3.917,0,0,1-2.789,1.155h-.793v0H30.1a2.03,2.03,0,1,0,0,4.06h.738a4.052,4.052,0,0,0,1.292,2.336v1.169l-2.636.527a4.059,4.059,0,0,0-.481.127l-1.462.488-5.265-4.68a2.543,2.543,0,0,0-1.694-.644h-.122a2.55,2.55,0,0,0-1.705,4.444l4.624,4.161a6.012,6.012,0,0,0,5.484,1.365l1.229-.307v2.517H2.353V2.353H29.747a4.2,4.2,0,0,1,.4-.28A7.53,7.53,0,0,1,34.025,1H1V24.007H30.1v4.61a4.022,4.022,0,0,1,1.353-.488V26.714h6.767v9.474H35.246c-.014.029-.024.06-.038.088l-.633,1.265h-.528l2.105.7a2.027,2.027,0,0,1,1.389,1.926V41.6H26.714V40.168A2.027,2.027,0,0,1,28.1,38.242l2.105-.7h-.528l-.536-1.072-1.469.49a3.373,3.373,0,0,0-1.637,1.185A3.373,3.373,0,0,0,24.4,36.959l-1.469-.49L22.4,37.541h-.528l2.105.7a2.027,2.027,0,0,1,1.389,1.926V41.6H14.534V40.168a2.027,2.027,0,0,1,1.389-1.926l2.105-.7H17.5l-.536-1.072-1.469.49a3.37,3.37,0,0,0-1.529,1.058,3.378,3.378,0,0,0-1.3-1.152l-.836-.418v1.513l.231.116A2.02,2.02,0,0,1,13.18,39.89V41.6H2.353V39.89a2.019,2.019,0,0,1,1.122-1.816l.231-.116V36.446l-.836.418A3.365,3.365,0,0,0,1,39.89v3.064H38.894V40.168a3.372,3.372,0,0,0-1.263-2.628h1.94V29.183a2.344,2.344,0,0,0,1.015.238,2.371,2.371,0,0,0,2.368-2.368V19.021a4,4,0,0,0-1.784-3.332Zm-1.6-7.246a.677.677,0,1,1,0,1.353h-.677V8.443Zm-10.15.677a.677.677,0,0,1,.677-.677h.677V9.8H30.1A.677.677,0,0,1,29.421,9.12Zm2.707-.711a5.241,5.241,0,0,0,2.707-1.1,5.247,5.247,0,0,0,2.707,1.1v2.059a2.707,2.707,0,0,1-5.413,0Zm2.707,6.119a4.044,4.044,0,0,0,1.353-.237V15.1l-.213.642a1.2,1.2,0,0,1-2.28,0l-.214-.643v-.808A4.044,4.044,0,0,0,34.834,14.529ZM19.27,13.023a1.2,1.2,0,0,1,1.2-1.2h.122a1.19,1.19,0,0,1,.794.3l1.439,1.279-1.76,1.76-1.4-1.257A1.194,1.194,0,0,1,19.27,13.023ZM31.451,25.36V19.55a2.967,2.967,0,0,0-.875-2.113l-.957.958a1.613,1.613,0,0,1,.283.4l-1.361.34a4.711,4.711,0,0,1-4.25-1.058l-2.22-2,1.765-1.766,3.4,3.02,2.205-.735a2.694,2.694,0,0,1,.319-.085l2.594-.519.06.179a2.554,2.554,0,0,0,4.847,0l.06-.179,2.151.43a2.653,2.653,0,0,1,2.132,2.6v4.986h-2.03V19.55a1.623,1.623,0,0,1,.478-1.155l-.957-.958a2.967,2.967,0,0,0-.875,2.113v5.81Zm9.135,2.707a1.016,1.016,0,0,1-1.015-1.015V25.36H41.6v1.692A1.016,1.016,0,0,1,40.586,28.067Z" transform="translate(-1 -1)" fill="#262d3f"/>
      <path id="Path_28485" data-name="Path 28485" d="M17.18,12.413H15.827V9.707H14.474v2.707H13.12V7H11.767v5.413H10.413V8.353H9.06v4.06H7.707V9.707H6.353v2.707H5v1.353H17.18Z" transform="translate(-2.293 -2.94)" fill="#262d3f"/>
      <path id="Path_28486" data-name="Path 28486" d="M5,19H6.353v1.353H5Z" transform="translate(-2.293 -6.82)" fill="#262d3f"/>
      <path id="Path_28487" data-name="Path 28487" d="M9,19h6.767v1.353H9Z" transform="translate(-3.587 -6.82)" fill="#262d3f"/>
      <path id="Path_28488" data-name="Path 28488" d="M21,19h1.353v1.353H21Z" transform="translate(-7.466 -6.82)" fill="#262d3f"/>
    </g>
  </g>
</svg>
