<svg xmlns="http://www.w3.org/2000/svg" width="33" height="31.677" viewBox="0 0 33 31.677">
  <g id="stopwatch" transform="translate(0 -10.262)">
    <g id="XMLID_386_" transform="translate(0 10.262)">
      <path id="XMLID_389_" d="M32.936,27.625A13.009,13.009,0,0,0,22.82,16.218V14.58a2.191,2.191,0,0,0-.529-4.318H17.651a2.191,2.191,0,0,0-.529,4.318v1.642a12.942,12.942,0,0,0-6.347,3.491A13.082,13.082,0,0,0,9.68,20.956l-.049,0H5.038a.645.645,0,0,0,0,1.289H8.8A12.921,12.921,0,0,0,7.659,24.72H.645a.645.645,0,1,0,0,1.289H7.3a13.105,13.105,0,0,0-.32,2.477H4.125a.645.645,0,1,0,0,1.289H7a13.086,13.086,0,0,0,.4,2.477H3.223a.645.645,0,1,0,0,1.289H7.81a13.018,13.018,0,0,0,10.884,8.335q.639.063,1.277.063a13.051,13.051,0,0,0,7.105-2.1.645.645,0,0,0-.7-1.08A11.731,11.731,0,1,1,29.828,35.3a.645.645,0,1,0,1.081.7A13.061,13.061,0,0,0,32.936,27.625ZM16.748,12.454a.9.9,0,0,1,.9-.9h4.641a.9.9,0,0,1,0,1.8H17.651A.9.9,0,0,1,16.748,12.454ZM18.411,16V14.645h3.12V16A13.133,13.133,0,0,0,18.411,16Z" transform="translate(0 -10.262)" fill="#181818"/>
      <path id="XMLID_391_" d="M436.415,425.5a.645.645,0,1,0,.456.189A.648.648,0,0,0,436.415,425.5Z" transform="translate(-407.683 -398.736)" fill="#181818"/>
      <path id="XMLID_394_" d="M164.871,144.609a10,10,0,1,0,10,10A10.01,10.01,0,0,0,164.871,144.609Zm0,18.708a8.71,8.71,0,1,1,8.71-8.71A8.719,8.719,0,0,1,164.871,163.317Z" transform="translate(-144.89 -135.95)" fill="#181818"/>
      <path id="XMLID_397_" d="M264.527,219.6l-3.192,3.192a2,2,0,0,0-1.769,0l-1.429-1.429a.645.645,0,1,0-.912.912l1.429,1.429a2,2,0,1,0,3.593,0l3.1-3.1h0l.094-.094a.645.645,0,0,0-.911-.912Zm-4.077,5.7a.714.714,0,1,1,.714-.714A.715.715,0,0,1,260.45,225.3Z" transform="translate(-240.469 -205.931)" fill="#181818"/>
      <path id="XMLID_398_" d="M398.9,289.86h-.6a.645.645,0,0,0,0,1.289h.6a.645.645,0,1,0,0-1.289Z" transform="translate(-372.025 -271.839)" fill="#181818"/>
      <path id="XMLID_399_" d="M194.324,289.616h-.6a.645.645,0,0,0,0,1.289h.6a.645.645,0,1,0,0-1.289Z" transform="translate(-180.637 -271.61)" fill="#181818"/>
      <path id="XMLID_400_" d="M300.768,184.705a.645.645,0,0,0,.645-.645v-.6a.645.645,0,1,0-1.289,0v.6A.645.645,0,0,0,300.768,184.705Z" transform="translate(-280.779 -171.697)" fill="#181818"/>
      <path id="XMLID_424_" d="M300.524,387.393a.645.645,0,0,0-.645.645v.6a.645.645,0,1,0,1.289,0v-.6A.645.645,0,0,0,300.524,387.393Z" transform="translate(-280.551 -363.085)" fill="#181818"/>
      <path id="XMLID_425_" d="M.645,351.44a.645.645,0,1,0,.456,1.1.645.645,0,0,0-.456-1.1Z" transform="translate(0 -329.45)" fill="#181818"/>
    </g>
  </g>
</svg>
