<svg xmlns="http://www.w3.org/2000/svg" xmlns:xlink="http://www.w3.org/1999/xlink" width="59.831" height="63.5" viewBox="0 0 59.831 63.5">
  <defs>
    <linearGradient id="linear-gradient" x1="0.5" x2="0.5" y2="1" gradientUnits="objectBoundingBox">
      <stop offset="0" stop-color="#0064d8"/>
      <stop offset="1" stop-color="#00326c"/>
    </linearGradient>
  </defs>
  <g id="travel" transform="translate(-27.274 -12.999)">
    <path id="Path_29025" data-name="Path 29025" d="M464.353,201.225a.9.9,0,0,0-1.293,1.041,28.193,28.193,0,0,1,.853,3.939.9.9,0,0,0,.888.772.944.944,0,0,0,.128-.009.9.9,0,0,0,.763-1.016,29.989,29.989,0,0,0-.907-4.191A.893.893,0,0,0,464.353,201.225Z" transform="translate(-378.757 -163.512)" fill="url(#linear-gradient)"/>
    <path id="Path_29026" data-name="Path 29026" d="M431.552,135.306a.833.833,0,0,0-.195,1.161,28.407,28.407,0,0,1,2.1,3.447.833.833,0,0,0,1.48-.764,30.048,30.048,0,0,0-2.229-3.649.832.832,0,0,0-1.162-.2Z" transform="translate(-351.097 -106.176)" fill="url(#linear-gradient)"/>
    <path id="Path_29027" data-name="Path 29027" d="M337.946,197.261a2.406,2.406,0,0,0-.935,1.362l-.424,1.655a2.4,2.4,0,0,0,.849,2.491,3.992,3.992,0,0,1,1.431,4l-.856,3.819a3.966,3.966,0,0,1-1.081,1.954l-.747.739a2.393,2.393,0,0,0-.7,1.969l.456,4.174a17.231,17.231,0,0,0,3.374-23.141Z" transform="translate(-267.886 -159.315)" fill="url(#linear-gradient)"/>
    <path id="Path_29028" data-name="Path 29028" d="M155.762,161.636a2.4,2.4,0,0,0,.654-1.182l.856-3.819a2.416,2.416,0,0,0-.866-2.421A3.974,3.974,0,0,1,155,150.1l.424-1.655a3.979,3.979,0,0,1,1.545-2.252l1.334-.95A17.238,17.238,0,0,0,145.941,139l.76,4.618a2.727,2.727,0,0,1-1.2,2.722l-3.031,1.985a1.151,1.151,0,0,0-.5,1.183l.407,2.134a1.16,1.16,0,0,0,.633.824l2.129,1.025a2.732,2.732,0,0,1,1.5,2.938l-.776,4.309a2.737,2.737,0,0,1-.5,1.149,2.7,2.7,0,0,1-2.174,1.093,2.8,2.8,0,0,1-.289-.015,2.7,2.7,0,0,1-2.19-1.562l-.78-1.68a1.159,1.159,0,0,0-1.048-.668H135.73a1.149,1.149,0,0,0-.664.209l-2.122,1.49a2.726,2.726,0,0,1-2.195.421l-2.438-.579a17.25,17.25,0,0,0,26.1,10.105l-.553-5.07a3.953,3.953,0,0,1,1.154-3.255Z" transform="translate(-87.823 -109.521)" fill="url(#linear-gradient)"/>
    <path id="Path_29029" data-name="Path 29029" d="M128.329,159.4l2.122-1.49a2.711,2.711,0,0,1,1.565-.495h3.156a2.734,2.734,0,0,1,2.471,1.576l.781,1.68a1.155,1.155,0,0,0,2.184-.282l.776-4.309a1.158,1.158,0,0,0-.636-1.245l-2.129-1.025a2.735,2.735,0,0,1-1.494-1.944l-.407-2.133a2.716,2.716,0,0,1,1.183-2.79l3.031-1.985a1.156,1.156,0,0,0,.507-1.154l-.8-4.884a17.265,17.265,0,0,0-16.389,19.912l3.153.746A1.153,1.153,0,0,0,128.329,159.4Z" transform="translate(-84.109 -109.448)" fill="url(#linear-gradient)"/>
    <path id="Path_29030" data-name="Path 29030" d="M305.99,32.685a1.336,1.336,0,0,0,1.058-.521.784.784,0,0,0,.126-.24l1.3-4.06,3.607-2.3a.781.781,0,0,0,.2-.182,1.34,1.34,0,0,0-1.106-2.157l-4.192-.561-2.1-1.62,2.881-3.73a1.268,1.268,0,0,0-.228-1.779l-.9-.7a1.756,1.756,0,0,0-2.22.064l-3.52,3.061-5.565-4.3a3.2,3.2,0,1,0-3.913,5.067l5.565,4.3-2.071,4.179a1.756,1.756,0,0,0,.5,2.164l.9.7a1.258,1.258,0,0,0,.772.265,1.287,1.287,0,0,0,.164-.011,1.26,1.26,0,0,0,.842-.482l2.881-3.731,2.1,1.621,1.609,3.906a1.342,1.342,0,0,0,1.309,1.045Zm-9.4-14.153a.93.93,0,1,1-.168-1.3h0A.931.931,0,0,1,296.589,18.531Zm2.295,1.773a.93.93,0,1,1-.168-1.3h0a.93.93,0,0,1,.168,1.3Zm2.295,1.773a.93.93,0,1,1-.168-1.3h0a.93.93,0,0,1,.167,1.3Zm2.295,1.772a.93.93,0,1,1-.168-1.3h0a.931.931,0,0,1,.168,1.3Z" transform="translate(-228.516)" fill="url(#linear-gradient)"/>
    <path id="Path_29031" data-name="Path 29031" d="M276.189,481.527a.764.764,0,0,0-.18.021,28.354,28.354,0,0,1-3.994.667.767.767,0,0,0,.144,1.528,29.955,29.955,0,0,0,4.21-.7.767.767,0,0,0-.181-1.513Z" transform="translate(-212.126 -407.248)" fill="url(#linear-gradient)"/>
    <path id="Path_29032" data-name="Path 29032" d="M407.953,402.841a.762.762,0,0,0-.473-.165.785.785,0,0,0-.092.005.762.762,0,0,0-.512.288,28.663,28.663,0,0,1-2.726,3,.767.767,0,0,0,1.059,1.111,30.164,30.164,0,0,0,2.872-3.158.768.768,0,0,0-.129-1.078Z" transform="translate(-327.376 -338.71)" fill="url(#linear-gradient)"/>
    <path id="Path_29033" data-name="Path 29033" d="M471.811,264.9a.768.768,0,0,0-.768.767,28.759,28.759,0,0,1-.285,4.041.767.767,0,0,0,1.52.216,30.288,30.288,0,0,0,.3-4.257A.768.768,0,0,0,471.811,264.9Z" transform="translate(-385.473 -218.954)" fill="url(#linear-gradient)"/>
    <path id="Path_29034" data-name="Path 29034" d="M202.528,482.214a28.391,28.391,0,0,1-3.994-.667.767.767,0,1,0-.361,1.492,29.938,29.938,0,0,0,4.21.7.767.767,0,1,0,.144-1.528Z" transform="translate(-148.036 -407.247)" fill="url(#linear-gradient)"/>
    <path id="Path_29035" data-name="Path 29035" d="M450.914,337.843a.768.768,0,0,0-.976.474,28.26,28.26,0,0,1-1.6,3.724.767.767,0,1,0,1.364.7,29.858,29.858,0,0,0,1.683-3.926A.767.767,0,0,0,450.914,337.843Z" transform="translate(-365.92 -282.321)" fill="url(#linear-gradient)"/>
    <path id="Path_29036" data-name="Path 29036" d="M347.14,452.416a.764.764,0,0,0-.414.122,28.384,28.384,0,0,1-3.551,1.942.767.767,0,1,0,.638,1.4,29.9,29.9,0,0,0,3.743-2.047.767.767,0,0,0-.417-1.413Z" transform="translate(-274.194 -381.945)" fill="url(#linear-gradient)"/>
    <path id="Path_29037" data-name="Path 29037" d="M40.961,338.313a.767.767,0,0,0-1.45.5,29.834,29.834,0,0,0,1.682,3.924.767.767,0,1,0,1.364-.7A28.3,28.3,0,0,1,40.961,338.313Z" transform="translate(-10.599 -282.317)" fill="url(#linear-gradient)"/>
    <path id="Path_29038" data-name="Path 29038" d="M134.371,454.467a28.433,28.433,0,0,1-3.554-1.945.763.763,0,0,0-.414-.122.776.776,0,0,0-.164.018.768.768,0,0,0-.253,1.395,29.949,29.949,0,0,0,3.747,2.049.759.759,0,0,0,.319.07.768.768,0,0,0,.32-1.465Z" transform="translate(-88.972 -381.931)" fill="url(#linear-gradient)"/>
    <path id="Path_29039" data-name="Path 29039" d="M76.31,402.952a.763.763,0,0,0-.512-.288.8.8,0,0,0-.092-.005.767.767,0,0,0-.6,1.243,30.187,30.187,0,0,0,2.871,3.158.767.767,0,1,0,1.059-1.111A28.636,28.636,0,0,1,76.31,402.952Z" transform="translate(-41.431 -338.696)" fill="url(#linear-gradient)"/>
    <path id="Path_29040" data-name="Path 29040" d="M31.885,197.528a.767.767,0,0,0,.9-.609,28.281,28.281,0,0,1,1.046-3.912.767.767,0,1,0-1.451-.5,29.859,29.859,0,0,0-1.1,4.125A.768.768,0,0,0,31.885,197.528Z" transform="translate(-3.466 -155.579)" fill="url(#linear-gradient)"/>
    <path id="Path_29041" data-name="Path 29041" d="M29.095,269.7a28.725,28.725,0,0,1-.285-4.041.767.767,0,1,0-1.535,0,30.267,30.267,0,0,0,.3,4.254.767.767,0,1,0,1.52-.215Z" transform="translate(0 -218.951)" fill="url(#linear-gradient)"/>
    <path id="Path_29042" data-name="Path 29042" d="M60.678,127.291a.768.768,0,0,0-1.078.128,30.1,30.1,0,0,0-2.4,3.534.767.767,0,1,0,1.329.769,28.5,28.5,0,0,1,2.274-3.353A.769.769,0,0,0,60.678,127.291Z" transform="translate(-25.925 -99.201)" fill="url(#linear-gradient)"/>
    <path id="Path_29043" data-name="Path 29043" d="M172.421,48.385a.763.763,0,0,0-.4-.113.777.777,0,0,0-.182.022,29.758,29.758,0,0,0-4.068,1.3.767.767,0,1,0,.571,1.425,28.271,28.271,0,0,1,3.857-1.232.767.767,0,0,0,.22-1.4Z" transform="translate(-121.703 -30.66)" fill="url(#linear-gradient)"/>
    <path id="Path_29044" data-name="Path 29044" d="M108.946,77.742a.768.768,0,0,0-1.061-.23,30.144,30.144,0,0,0-3.415,2.56.767.767,0,0,0,1.006,1.159,28.57,28.57,0,0,1,3.24-2.429A.769.769,0,0,0,108.946,77.742Z" transform="translate(-66.869 -55.969)" fill="url(#linear-gradient)"/>
    <path id="Path_29045" data-name="Path 29045" d="M240.265,42.079a.769.769,0,0,0-.477,1.34.75.75,0,0,0,.548.194q.673-.032,1.349-.032c.9,0,1.807.042,2.7.127a.767.767,0,1,0,.144-1.528A30.347,30.347,0,0,0,240.265,42.079Z" transform="translate(-184.497 -25.247)" fill="url(#linear-gradient)"/>
  </g>
</svg>
