<svg xmlns="http://www.w3.org/2000/svg" xmlns:xlink="http://www.w3.org/1999/xlink" width="143.452" height="148.276" viewBox="0 0 143.452 148.276">
  <defs>
    <filter id="Path_28364" x="0" y="9.757" width="143.452" height="138.519" filterUnits="userSpaceOnUse">
      <feOffset dy="3" input="SourceAlpha"/>
      <feGaussianBlur stdDeviation="3" result="blur"/>
      <feFlood flood-opacity="0.161"/>
      <feComposite operator="in" in2="blur"/>
      <feComposite in="SourceGraphic"/>
    </filter>
  </defs>
  <g id="virtual-blue" transform="translate(-162.585 -2112)">
    <path id="Path_28363" data-name="Path 28363" d="M1033.782,568.079c-14.311,13.521-43.368,12.56-57.929,0-10.532-9.15-5.372-19.432-9.927-30.478-5.688-13.732-11.968-22.3-3.686-37.443,5.661-10.348,16.747-18.577,28.609-19.854,14.3-1.527,21.065,6.7,26.752,18.234,3.357,6.859,5.569,12.863,11.757,17.695,5.622,4.41,13.626,5.859,17.339,12.428C1053.82,541.261,1042.037,558.955,1033.782,568.079Z" transform="translate(-744.639 1631.879)" fill="#0064d8" opacity="0.43"/>
    <g id="Group_8323" data-name="Group 8323">
      <g id="Group_8322" data-name="Group 8322">
        <g id="Group_8321" data-name="Group 8321">
          <g id="Group_8320" data-name="Group 8320">
            <g transform="matrix(1, 0, 0, 1, 162.59, 2112)" filter="url(#Path_28364)">
              <path id="Path_28364-2" data-name="Path 28364" d="M1041.759,551.1c.961,22.961-31.518,73.293-60.562,60.443-16.918-7.491-9.071-30.5-31.281-27.937-8.61,1-14.561,5.714-22.474-.237-5.714-4.292-8.834-13.468-10.164-20.064-6.5-32.256,21.289-71.647,55.611-70.173,15.535.671,32.137,8.242,44.895,16.826C1034.531,521.238,1040.969,531.981,1041.759,551.1Z" transform="translate(-907.33 -477.33)" fill="#fff"/>
            </g>
            <g id="Group_7442" data-name="Group 7442" transform="translate(-509 -79)">
              <g id="Group_7423" data-name="Group 7423" transform="translate(743.705 2231.66)">
                <path id="Path_28359" data-name="Path 28359" d="M0,0H3.3V3.3H0Z" transform="translate(0 3.961)" fill="#0064d8"/>
                <rect id="Rectangle_457" data-name="Rectangle 457" width="8.581" height="9.242" transform="translate(7.921 0)" fill="#fff"/>
                <rect id="Rectangle_458" data-name="Rectangle 458" width="4.621" height="4.621" transform="translate(14.522 12.542)" fill="#0064d8"/>
              </g>
              <rect id="Rectangle_459" data-name="Rectangle 459" width="13.202" height="2.64" transform="translate(756.907 2256.084)" fill="#ccd1d9"/>
              <rect id="Rectangle_460" data-name="Rectangle 460" width="13.202" height="9.902" transform="translate(756.907 2258.725)" fill="#fff"/>
              <path id="Path_28301" data-name="Path 28301" d="M146.688,389.781l2.672-.891,2.672.891L153.813,388h3.563a5.337,5.337,0,0,1,5.344,5.344v5.344a1.781,1.781,0,0,1-1.781,1.781H137.781A1.781,1.781,0,0,1,136,398.688v-5.344A5.337,5.337,0,0,1,141.344,388h3.563Z" transform="translate(593.141 1885.75)" fill="#0064d8"/>
              <path id="Path_28302" data-name="Path 28302" d="M299.563,388H296a5.337,5.337,0,0,1,5.344,5.344v5.344a1.781,1.781,0,0,1-1.781,1.781h3.563a1.781,1.781,0,0,0,1.781-1.781v-5.344A5.337,5.337,0,0,0,299.563,388Z" transform="translate(450.953 1885.75)" fill="#0064d8"/>
              <path id="Path_28303" data-name="Path 28303" d="M220.453,366.141l-2.672.891L216,365.25V362.4a9.812,9.812,0,0,0,8.906,0v2.85l-1.781,1.781Z" transform="translate(522.047 1908.5)" fill="#f5f7fa"/>
              <path id="Path_28304" data-name="Path 28304" d="M187.594,230.672v3.563a9.8,9.8,0,1,1-19.594,0v-3.562L170.672,228a15.141,15.141,0,0,0,14.25,0Z" transform="translate(564.703 2027.938)" fill="#fff"/>
              <path id="Path_28305" data-name="Path 28305" d="M248.906,228s-.326.175-.891.417v5.818a9.8,9.8,0,0,1-5.344,8.728,9.639,9.639,0,0,1-2.672.89,9.767,9.767,0,0,0,11.578-9.618v-3.562Z" transform="translate(500.719 2027.938)" fill="#fff"/>
              <path id="Path_28306" data-name="Path 28306" d="M170.672,149.8,168,152.469v-4.453A8.011,8.011,0,0,1,176.016,140h7.125v3.563a4.448,4.448,0,0,1,4.453,4.453v4.453l-2.672-2.672a15.141,15.141,0,0,1-14.25,0Z" transform="translate(564.703 2106.141)" fill="silver"/>
              <path id="Path_28307" data-name="Path 28307" d="M275.563,143.563V140H272v5.344c2.458,0,4.453,1.095,4.453,3.563v1.307c.565-.241.891-.417.891-.417l2.672,2.672v-4.453A4.448,4.448,0,0,0,275.563,143.563Z" transform="translate(472.281 2106.141)" fill="silver"/>
              <path id="Path_28308" data-name="Path 28308" d="M34.672,308l1.728,2.307-.837,1.256H32Z" transform="translate(685.563 1956.844)" fill="#0064d8"/>
              <path id="Path_28309" data-name="Path 28309" d="M67.563,292l3.563,5.344H64l.837-1.256Z" transform="translate(657.125 1971.062)" fill="#0064d8"/>
              <path id="Path_28310" data-name="Path 28310" d="M21.359,244v10.688L17.8,249.344l-2.725,4.088-1.728-2.307-2.672,3.563H8V244Z" transform="translate(706.891 2013.719)" fill="#fff"/>
              <g id="Group_7424" data-name="Group 7424" transform="translate(717.134 2235.453)">
                <path id="Path_28311" data-name="Path 28311" d="M103.552,47.553l-.018.01H97.781a1.781,1.781,0,0,1,0-3.562h3.242A7.89,7.89,0,0,1,103.552,47.553Z" transform="translate(-88.447 -44)" fill="#0064d8"/>
                <path id="Path_28312" data-name="Path 28312" d="M32.143,124a1.781,1.781,0,1,1,0,3.562H30.682A7.933,7.933,0,0,1,28.152,124Z" transform="translate(-28.152 -115.094)" fill="#0064d8"/>
              </g>
              <path id="Path_28313" data-name="Path 28313" d="M32.016,28a7.939,7.939,0,0,1,5.023,1.781H33.8a1.781,1.781,0,1,0,0,3.563H39.55l.019-.01a7.876,7.876,0,0,1,.462,2.682A8,8,0,0,1,26.992,42.25h1.461a1.781,1.781,0,0,0,0-3.562h-3.99A7.766,7.766,0,0,1,24,36.016,8.016,8.016,0,0,1,32.016,28Z" transform="translate(692.672 2205.672)" fill="#fff"/>
              <path id="Path_28314" data-name="Path 28314" d="M128.891,387.124a.89.89,0,0,1-.891-.891A6.242,6.242,0,0,1,134.234,380a.891.891,0,1,1,0,1.781,4.457,4.457,0,0,0-4.453,4.452A.89.89,0,0,1,128.891,387.124Z" transform="translate(600.25 1892.859)"/>
              <path id="Path_28315" data-name="Path 28315" d="M180.453,381.782h-3.562a.891.891,0,1,1,0-1.781h3.563a.891.891,0,0,1,0,1.781Z" transform="translate(557.594 1892.859)"/>
              <path id="Path_28316" data-name="Path 28316" d="M128.891,437.158a.89.89,0,0,1-.891-.891v-5.089a.891.891,0,0,1,1.781,0v5.089A.89.89,0,0,1,128.891,437.158Z" transform="translate(600.25 1848.17)"/>
              <path id="Path_28317" data-name="Path 28317" d="M326.234,387.124a.89.89,0,0,1-.891-.891,4.457,4.457,0,0,0-4.453-4.452.891.891,0,1,1,0-1.781,6.242,6.242,0,0,1,6.234,6.233A.89.89,0,0,1,326.234,387.124Z" transform="translate(429.625 1892.859)"/>
              <path id="Path_28318" data-name="Path 28318" d="M288.891,381.782a.891.891,0,0,1,0-1.781h3.563a.891.891,0,1,1,0,1.781Z" transform="translate(458.063 1892.859)"/>
              <path id="Path_28319" data-name="Path 28319" d="M368.891,437.158a.89.89,0,0,1-.891-.891v-5.089a.891.891,0,1,1,1.781,0v5.089A.89.89,0,0,1,368.891,437.158Z" transform="translate(386.969 1848.17)"/>
              <path id="Path_28320" data-name="Path 28320" d="M168.047,493.781H144.891a.891.891,0,0,1,0-1.781h23.156a.891.891,0,0,1,0,1.781Z" transform="translate(586.031 1793.328)"/>
              <path id="Path_28321" data-name="Path 28321" d="M208.891,359.032a.89.89,0,0,1-.891-.891v-2.851a.891.891,0,0,1,1.781,0v2.851A.89.89,0,0,1,208.891,359.032Z" transform="translate(529.156 1915.609)"/>
              <path id="Path_28322" data-name="Path 28322" d="M288.891,359.031a.89.89,0,0,1-.891-.891v-2.85a.891.891,0,0,1,1.781,0v2.85A.89.89,0,0,1,288.891,359.031Z" transform="translate(458.063 1915.609)"/>
              <path id="Path_28323" data-name="Path 28323" d="M170.688,287.578A10.7,10.7,0,0,1,160,276.891a.891.891,0,1,1,1.781,0,8.906,8.906,0,1,0,17.813,0,.891.891,0,0,1,1.781,0A10.7,10.7,0,0,1,170.688,287.578Z" transform="translate(571.813 1985.281)"/>
              <path id="Path_28324" data-name="Path 28324" d="M160.891,213.8a.89.89,0,0,1-.891-.891v-8.017a.891.891,0,1,1,1.781,0v8.017A.89.89,0,0,1,160.891,213.8Z" transform="translate(571.813 2049.266)"/>
              <path id="Path_28325" data-name="Path 28325" d="M336.891,213.8a.89.89,0,0,1-.891-.891v-8.017a.891.891,0,1,1,1.781,0v8.017A.89.89,0,0,1,336.891,213.8Z" transform="translate(415.406 2049.266)"/>
              <path id="Path_28326" data-name="Path 28326" d="M301.344,170.234a.89.89,0,0,1-.891-.891,3.566,3.566,0,0,0-3.562-3.562.891.891,0,0,1,0-1.781,5.349,5.349,0,0,1,5.344,5.344A.89.89,0,0,1,301.344,170.234Z" transform="translate(450.953 2084.813)"/>
              <path id="Path_28327" data-name="Path 28327" d="M296.891,137.344a.89.89,0,0,1-.891-.891v-3.563a.891.891,0,0,1,1.781,0v3.563A.89.89,0,0,1,296.891,137.344Z" transform="translate(450.953 2113.25)"/>
              <path id="Path_28328" data-name="Path 28328" d="M240.016,133.781h-7.125a.891.891,0,1,1,0-1.781h7.125a.891.891,0,0,1,0,1.781Z" transform="translate(507.828 2113.25)"/>
              <path id="Path_28329" data-name="Path 28329" d="M160.891,141.8a.89.89,0,0,1-.891-.891,8.916,8.916,0,0,1,8.906-8.905.891.891,0,0,1,0,1.781,7.133,7.133,0,0,0-7.125,7.124A.89.89,0,0,1,160.891,141.8Z" transform="translate(571.813 2113.243)"/>
              <path id="Path_28330" data-name="Path 28330" d="M315.561,224.451a.888.888,0,0,1-.63-.261l-2.672-2.672a.891.891,0,0,1,1.259-1.259l2.672,2.672a.891.891,0,0,1-.63,1.52Z" transform="translate(436.736 2035.049)"/>
              <path id="Path_28331" data-name="Path 28331" d="M192.015,223.558a17.678,17.678,0,0,1-7.547-1.887.891.891,0,0,1,.843-1.569,14.249,14.249,0,0,0,13.407,0,.89.89,0,1,1,.843,1.568A17.646,17.646,0,0,1,192.015,223.558Z" transform="translate(550.485 2035.051)"/>
              <path id="Path_28332" data-name="Path 28332" d="M160.889,224.451a.891.891,0,0,1-.63-1.52l2.672-2.672a.89.89,0,0,1,1.259,1.259l-2.672,2.672A.888.888,0,0,1,160.889,224.451Z" transform="translate(571.814 2035.049)"/>
              <path id="Path_28333" data-name="Path 28333" d="M210.67,383.568a.888.888,0,0,1-.63-.261l-1.781-1.78a.89.89,0,1,1,1.259-1.259l1.781,1.78a.891.891,0,0,1-.63,1.52Z" transform="translate(529.158 1892.854)"/>
              <path id="Path_28334" data-name="Path 28334" d="M224.892,390.664a.891.891,0,0,1-.281-1.736l2.672-.891a.891.891,0,0,1,.564,1.69l-2.672.891A.9.9,0,0,1,224.892,390.664Z" transform="translate(514.936 1885.758)"/>
              <path id="Path_28335" data-name="Path 28335" d="M272.889,383.568a.891.891,0,0,1-.63-1.52l1.781-1.78a.89.89,0,0,1,1.259,1.259l-1.781,1.78A.888.888,0,0,1,272.889,383.568Z" transform="translate(472.283 1892.854)"/>
              <path id="Path_28336" data-name="Path 28336" d="M251.565,390.664a.891.891,0,0,1-.281-.046l-2.672-.891a.891.891,0,1,1,.564-1.69l2.672.891a.891.891,0,0,1-.282,1.736Z" transform="translate(493.607 1885.758)"/>
              <path id="Path_28337" data-name="Path 28337" d="M352.891,479.563a.891.891,0,1,1,0-1.781.891.891,0,0,0,.891-.891.891.891,0,1,1,1.781,0A2.675,2.675,0,0,1,352.891,479.563Z" transform="translate(401.188 1807.547)"/>
              <path id="Path_28338" data-name="Path 28338" d="M130.672,479.563A2.675,2.675,0,0,1,128,476.891a.891.891,0,1,1,1.781,0,.891.891,0,0,0,.891.891.891.891,0,1,1,0,1.781Z" transform="translate(600.25 1807.547)"/>
              <path id="Path_28339" data-name="Path 28339" d="M390.25,234.25H376.891a.89.89,0,0,1-.891-.891V220.891a.89.89,0,0,1,.891-.891H390.25a.89.89,0,0,1,.891.891v12.469A.89.89,0,0,1,390.25,234.25Zm-12.469-1.781h11.578V221.781H377.781Z" transform="translate(379.859 2035.047)"/>
              <path id="Path_28340" data-name="Path 28340" d="M390.25,245.781H376.891a.891.891,0,1,1,0-1.781H390.25a.891.891,0,0,1,0,1.781Z" transform="translate(379.859 2013.719)"/>
              <path id="Path_28341" data-name="Path 28341" d="M415.715,277.781h-6.16a.891.891,0,1,1,0-1.781h6.16a.891.891,0,0,1,0,1.781Z" transform="translate(350.832 1985.281)"/>
              <path id="Path_28342" data-name="Path 28342" d="M413.043,301.781h-3.489a.891.891,0,1,1,0-1.781h3.489a.891.891,0,1,1,0,1.781Z" transform="translate(350.832 1963.953)"/>
              <path id="Path_28343" data-name="Path 28343" d="M24.906,37.813a8.906,8.906,0,1,1,8.906-8.906A8.916,8.916,0,0,1,24.906,37.813Zm0-16.031a7.125,7.125,0,1,0,7.125,7.125A7.133,7.133,0,0,0,24.906,21.781Z" transform="translate(699.781 2212.781)"/>
              <path id="Path_28344" data-name="Path 28344" d="M90.672,41.344a2.672,2.672,0,0,1,0-5.344.891.891,0,0,1,0,1.781.891.891,0,0,0,0,1.781.891.891,0,1,1,0,1.781Z" transform="translate(635.797 2198.563)"/>
              <path id="Path_28345" data-name="Path 28345" d="M108.148,37.781h-3.257a.891.891,0,0,1,0-1.781h3.257a.891.891,0,0,1,0,1.781Z" transform="translate(621.578 2198.563)"/>
              <path id="Path_28346" data-name="Path 28346" d="M110.644,69.781h-5.753a.891.891,0,0,1,0-1.781h5.753a.891.891,0,0,1,0,1.781Z" transform="translate(621.578 2170.125)"/>
              <path id="Path_28347" data-name="Path 28347" d="M56.891,121.344a.891.891,0,1,1,0-1.781.891.891,0,1,0,0-1.781.891.891,0,1,1,0-1.781,2.672,2.672,0,0,1,0,5.344Z" transform="translate(664.234 2127.469)"/>
              <path id="Path_28348" data-name="Path 28348" d="M45.118,149.781H43.643a.891.891,0,0,1,0-1.781h1.475a.891.891,0,0,1,0,1.781Z" transform="translate(676.007 2099.031)"/>
              <path id="Path_28349" data-name="Path 28349" d="M24.991,117.781h-4a.891.891,0,0,1,0-1.781h4a.891.891,0,0,1,0,1.781Z" transform="translate(696.134 2127.469)"/>
              <path id="Path_28350" data-name="Path 28350" d="M14.25,248.469H.891A.89.89,0,0,1,0,247.578V236.891A.89.89,0,0,1,.891,236H14.25a.89.89,0,0,1,.891.891v10.688A.89.89,0,0,1,14.25,248.469ZM1.781,246.688H13.359v-8.906H1.781Z" transform="translate(714 2020.828)"/>
              <path id="Path_28351" data-name="Path 28351" d="M24.887,305.351a.89.89,0,0,1-.712-1.424l2.672-3.562a.89.89,0,1,1,1.424,1.068L25.6,304.995A.885.885,0,0,1,24.887,305.351Z" transform="translate(692.675 1963.946)"/>
              <path id="Path_28352" data-name="Path 28352" d="M50.621,304.089a.889.889,0,0,1-.713-.356l-1.729-2.3a.89.89,0,1,1,1.424-1.068l1.729,2.3a.89.89,0,0,1-.711,1.424Z" transform="translate(671.343 1963.951)"/>
              <path id="Path_28353" data-name="Path 28353" d="M56.886,291.121a.891.891,0,0,1-.74-1.385l3.562-5.344a.891.891,0,1,1,1.482.989l-3.562,5.344A.889.889,0,0,1,56.886,291.121Z" transform="translate(664.238 1978.176)"/>
              <path id="Path_28354" data-name="Path 28354" d="M92.45,291.121a.889.889,0,0,1-.742-.4l-3.562-5.344a.891.891,0,1,1,1.482-.989l3.563,5.344a.891.891,0,0,1-.74,1.385Z" transform="translate(635.801 1978.176)"/>
              <path id="Path_28355" data-name="Path 28355" d="M33.1,269.781a.891.891,0,0,1-.01-1.781h.01a.891.891,0,0,1,0,1.781Z" transform="translate(685.385 1992.391)"/>
              <path id="Path_28356" data-name="Path 28356" d="M337.8,14.687h-8.906A.89.89,0,0,1,328,13.8V4.891A.89.89,0,0,1,328.891,4H337.8a.89.89,0,0,1,.891.891V13.8A.89.89,0,0,1,337.8,14.687Zm-8.016-1.781h7.125V5.781h-7.125Z" transform="translate(422.516 2227)"/>
              <path id="Path_28357" data-name="Path 28357" d="M397.344,122.234h-4.453a.89.89,0,0,1-.891-.891v-4.453a.89.89,0,0,1,.891-.891h4.453a.89.89,0,0,1,.891.891v4.453A.89.89,0,0,1,397.344,122.234Zm-3.562-1.781h2.672v-2.672h-2.672Z" transform="translate(365.641 2127.469)"/>
              <path id="Path_28358" data-name="Path 28358" d="M260.453,41.344h-3.562a.89.89,0,0,1-.891-.891V36.891a.89.89,0,0,1,.891-.891h3.563a.89.89,0,0,1,.891.891v3.563A.89.89,0,0,1,260.453,41.344Zm-2.672-1.781h1.781V37.781h-1.781Z" transform="translate(486.5 2198.563)"/>
            </g>
          </g>
        </g>
      </g>
    </g>
  </g>
</svg>
