<svg xmlns="http://www.w3.org/2000/svg" xmlns:xlink="http://www.w3.org/1999/xlink" width="75.508" height="48.425" viewBox="0 0 75.508 48.425">
  <defs>
    <linearGradient id="linear-gradient" x1="0.5" x2="0.5" y2="1" gradientUnits="objectBoundingBox">
      <stop offset="0" stop-color="#0064d8"/>
      <stop offset="1" stop-color="#00326c"/>
    </linearGradient>
  </defs>
  <g id="voucher" transform="translate(0 -91.82)">
    <path id="Path_29173" data-name="Path 29173" d="M0,93.295V138.77a1.475,1.475,0,0,0,1.475,1.475h26.6V91.82H1.475A1.475,1.475,0,0,0,0,93.295Zm7.751,8.419H20.217a2.212,2.212,0,1,1,0,4.424H7.751a2.212,2.212,0,1,1,0-4.424Zm0,12.106H20.217a2.212,2.212,0,1,1,0,4.424H7.751a2.212,2.212,0,1,1,0-4.424Zm0,12.106H20.217a2.212,2.212,0,1,1,0,4.424H7.751a2.212,2.212,0,1,1,0-4.424Z" transform="translate(0 0)" fill="url(#linear-gradient)"/>
    <path id="Path_29174" data-name="Path 29174" d="M291.295,172.63c-1.417,0-2.615,1.556-2.615,3.4s1.2,3.4,2.615,3.4,2.615-1.556,2.615-3.4S292.712,172.63,291.295,172.63Z" transform="translate(-246.107 -68.892)" fill="url(#linear-gradient)"/>
    <path id="Path_29175" data-name="Path 29175" d="M261.929,91.82H220.4v48.425h41.529a1.475,1.475,0,0,0,1.475-1.475V93.295A1.475,1.475,0,0,0,261.929,91.82Zm-35.884,15.315c0-4.314,3.157-7.822,7.039-7.822s7.039,3.508,7.039,7.822-3.157,7.821-7.039,7.821S226.045,111.448,226.045,107.135Zm10.317,23.844a2.213,2.213,0,0,1-2.04-3.067l10.924-26.029a2.212,2.212,0,0,1,4.079,1.712L238.4,129.624A2.213,2.213,0,0,1,236.363,130.979Zm14.389,1.773c-3.882,0-7.039-3.508-7.039-7.822s3.157-7.821,7.039-7.821,7.039,3.508,7.039,7.821S254.634,132.752,250.752,132.752Z" transform="translate(-187.896)" fill="url(#linear-gradient)"/>
    <path id="Path_29176" data-name="Path 29176" d="M411.095,293.3c-1.417,0-2.615,1.556-2.615,3.4s1.2,3.4,2.615,3.4,2.615-1.556,2.615-3.4S412.512,293.3,411.095,293.3Z" transform="translate(-348.239 -171.767)" fill="url(#linear-gradient)"/>
  </g>
</svg>
