<svg id="whiteboard" xmlns="http://www.w3.org/2000/svg" xmlns:xlink="http://www.w3.org/1999/xlink" width="61.982" height="61.982" viewBox="0 0 61.982 61.982">
  <defs>
    <linearGradient id="linear-gradient" x1="0.5" x2="0.5" y2="1" gradientUnits="objectBoundingBox">
      <stop offset="0" stop-color="#0064d8"/>
      <stop offset="1" stop-color="#00326c"/>
    </linearGradient>
  </defs>
  <path id="Path_28544" data-name="Path 28544" d="M305.937,272A1.937,1.937,0,0,0,304,273.937v1.332a.605.605,0,0,0,.605.605h8.474a.605.605,0,0,0,.605-.605v-1.332A1.937,1.937,0,0,0,311.748,272Z" transform="translate(-267.198 -239.072)" fill="#1c2848"/>
  <ellipse id="Ellipse_5" data-name="Ellipse 5" cx="1.5" cy="2" rx="1.5" ry="2" transform="translate(15 17)" fill="#1c2848"/>
  <path id="Path_28545" data-name="Path 28545" d="M59.117,17.432a1.937,1.937,0,1,0,1.937,1.937A1.94,1.94,0,0,0,59.117,17.432Zm0,0a1.937,1.937,0,1,0,1.937,1.937A1.94,1.94,0,0,0,59.117,17.432ZM84.3,0H33.937A1.937,1.937,0,0,0,32,1.937V36.2a.605.605,0,0,0,.605.605H60.449a.605.605,0,0,0,.605-.605V34.865a5.811,5.811,0,0,1,5.811-5.811h5.811a5.811,5.811,0,0,1,5.811,5.811V36.2a.605.605,0,0,0,.605.605h6.537a.605.605,0,0,0,.605-.605V1.937A1.937,1.937,0,0,0,84.3,0ZM50.4,23.243a1.94,1.94,0,0,1-3.307,1.37,5.811,5.811,0,1,1,0-10.489A1.94,1.94,0,0,1,50.4,15.5Zm6.213,1.37a1.94,1.94,0,0,1-3.307-1.37V8.716a1.937,1.937,0,1,1,3.874,0V13.89a5.811,5.811,0,1,1-.567,10.723Zm15.661-3.875a1.934,1.934,0,0,0,2.738,0,1.937,1.937,0,0,1,2.74,2.74,5.811,5.811,0,1,1,0-8.217A1.937,1.937,0,1,1,75.013,18a1.936,1.936,0,0,0-2.738,2.738ZM59.117,17.432a1.937,1.937,0,1,0,1.937,1.937A1.94,1.94,0,0,0,59.117,17.432Z" transform="translate(-28.126)" fill="url(#linear-gradient)"/>
  <path id="Path_28546" data-name="Path 28546" d="M0,336.605v5.206a1.937,1.937,0,0,0,1.937,1.937H9.054L5.886,354.837A1.937,1.937,0,1,0,9.61,355.9l.983-3.438h40.8l.983,3.438a1.937,1.937,0,1,0,3.724-1.065l-3.168-11.089h7.117a1.937,1.937,0,0,0,1.937-1.937v-5.206a.605.605,0,0,0-.605-.605H.605A.605.605,0,0,0,0,336.605ZM11.7,348.59l1.384-4.842H48.9l1.384,4.842Z" transform="translate(0 -295.324)" fill="url(#linear-gradient)"/>
</svg>
