<svg xmlns="http://www.w3.org/2000/svg" width="26.072" height="27" viewBox="0 0 26.072 27">
  <g id="enquire" transform="translate(12.992 -3.999)">
    <path id="Path_1888" data-name="Path 1888" d="M208.11,203.129a5,5,0,0,0-2.74-4.445,6.8,6.8,0,0,1-6.69,6.69,4.979,4.979,0,0,0,6.983,2.045l2.425.67-.67-2.425a4.964,4.964,0,0,0,.693-2.535Zm0,0" transform="translate(-195.031 -188.701)" fill="#fff"/>
    <path id="Path_1889" data-name="Path 1889" d="M11.768,5.884A5.885,5.885,0,1,0,.816,8.875L.022,11.747l2.872-.794a5.885,5.885,0,0,0,8.875-5.068Zm-6.79-1.37h-.9A1.806,1.806,0,1,1,7.1,5.848l-.767.7v.7h-.9v-1.1L6.49,5.181a.889.889,0,0,0,.294-.667.9.9,0,1,0-1.806,0ZM5.43,8.16h.905v.9h-.9Zm0,0" transform="translate(-2.331 4)" fill="#fff"/>
    <g id="_001-call" data-name="001-call" transform="translate(-12.993 7.544)">
      <path id="Path_1850" data-name="Path 1850" d="M309.829,386.29a.8.8,0,0,0-.519-.29.952.952,0,0,0-.575.316l-.148.148,4.611,4.611.057-.058a.542.542,0,0,1,.055-.059.725.725,0,0,0-.017-1.2l-3.45-3.446Z" transform="translate(-290.306 -370.373)" fill="#fff"/>
      <path id="Path_1851" data-name="Path 1851" d="M102.843,180.267c.46-.46.46-.74,0-1.2l-1.7-1.7-.005-.005-.293-.3-.3-.306c-.406-.42-.749-.766-1.105-1.1l-.012-.012-.02-.02a.842.842,0,0,0-.542-.284.926.926,0,0,0-.588.3l-.178.178,4.6,4.6Z" transform="translate(-95.427 -175.338)" fill="#fff"/>
      <path id="Path_1852" data-name="Path 1852" d="M67.159,205.4a27.192,27.192,0,0,0,9.036,7.078,13.035,13.035,0,0,0,4.674,1.409c.078.005.167.005.254.005a2.489,2.489,0,0,0,1.956-.819,16.334,16.334,0,0,1,1.155-1.2l-4.608-4.608-1.26,1.254a1.824,1.824,0,0,1-1.316.582,1.867,1.867,0,0,1-.85-.211c-.027-.013-.054-.029-.081-.046h-.005l-.03-.018c-.161-.1-.363-.2-.576-.308a9.008,9.008,0,0,1-.813-.445,23.373,23.373,0,0,1-5.653-5.136l-.025-.029A14.2,14.2,0,0,1,66.93,199.5q-.007-.017-.012-.034l-.019-.057V199.4a1.785,1.785,0,0,1,.427-1.914.586.586,0,0,1,.075-.074h0c.408-.366.789-.737,1.2-1.156l-4.6-4.6-1.208,1.208a2.337,2.337,0,0,0-.711,1.53,8.408,8.408,0,0,0,.668,3.68A24.871,24.871,0,0,0,67.159,205.4Z" transform="translate(-62.072 -190.442)" fill="#fff"/>
    </g>
  </g>
</svg>
