<svg xmlns="http://www.w3.org/2000/svg" width="27.569" height="21" viewBox="0 0 27.569 21">
  <g id="mail" transform="translate(0 -61)">
    <g id="Group_7775" data-name="Group 7775" transform="translate(0 61)">
      <path id="Path_28381" data-name="Path 28381" d="M25.146,61H2.423A2.427,2.427,0,0,0,0,63.423V79.577A2.427,2.427,0,0,0,2.423,82H25.146a2.427,2.427,0,0,0,2.423-2.423V63.423A2.427,2.427,0,0,0,25.146,61Zm-.335,1.615L13.836,73.591,2.765,62.615ZM1.615,79.242V63.75L9.4,71.463Zm1.142,1.142L10.542,72.6l2.728,2.7a.808.808,0,0,0,1.14,0l2.66-2.66,7.742,7.742Zm23.2-1.142L18.211,71.5l7.742-7.742Z" transform="translate(0 -61)" fill="#fff"/>
    </g>
  </g>
</svg>
