<svg xmlns="http://www.w3.org/2000/svg" xmlns:xlink="http://www.w3.org/1999/xlink" width="69" height="63" viewBox="0 0 69 63">
  <defs>
    <linearGradient id="linear-gradient" x1="0.5" x2="0.5" y2="1" gradientUnits="objectBoundingBox">
      <stop offset="0" stop-color="#0064d8"/>
      <stop offset="1" stop-color="#00326c"/>
    </linearGradient>
  </defs>
  <g id="project-bundles" transform="translate(-764 -1817)">
    <g id="Group_7654" data-name="Group 7654" transform="translate(-110 11)">
      <g id="Ellipse_4" data-name="Ellipse 4" transform="translate(909 1806)" fill="#fff" stroke="#ffd257" stroke-width="2" stroke-dasharray="5">
        <circle cx="17" cy="17" r="17" stroke="none"/>
        <circle cx="17" cy="17" r="16" fill="none"/>
      </g>
      <circle id="Ellipse_5" data-name="Ellipse 5" cx="17" cy="17" r="17" transform="translate(904 1810)" fill="#bedcfe"/>
    </g>
    <g id="stack" transform="translate(764 1830)">
      <path id="Path_29056" data-name="Path 29056" d="M17.708,26.583H7.292A7.292,7.292,0,1,1,7.292,12H48.958a1.042,1.042,0,1,1,0,2.083H7.292a5.208,5.208,0,1,0,0,10.417H17.708a1.042,1.042,0,0,1,0,2.083Z" transform="translate(0 13)" fill="url(#linear-gradient)"/>
      <path id="Path_29057" data-name="Path 29057" d="M33.792,20.083H15.042a1.042,1.042,0,0,1,0-2.083h18.75a1.042,1.042,0,1,1,0,2.083Z" transform="translate(15.167 19.5)" fill="url(#linear-gradient)"/>
      <path id="Path_29058" data-name="Path 29058" d="M32.292,20.583H1.042a1.042,1.042,0,0,1,0-2.083h31.25a5.208,5.208,0,0,0,0-10.417H1.042A1.042,1.042,0,1,1,1.042,6h31.25a7.292,7.292,0,0,1,0,14.583Z" transform="translate(0 6.5)" fill="url(#linear-gradient)"/>
      <path id="Path_29059" data-name="Path 29059" d="M43.625,14.583H10.292A7.292,7.292,0,0,1,10.292,0H43.625a1.042,1.042,0,1,1,0,2.083H10.292a5.208,5.208,0,0,0,0,10.417H43.625a1.042,1.042,0,1,1,0,2.083Z" transform="translate(3.25)" fill="url(#linear-gradient)"/>
      <path id="Path_29060" data-name="Path 29060" d="M22.042,26.583A1.042,1.042,0,0,1,21,25.542v-12.5a1.042,1.042,0,1,1,2.083,0v12.5A1.042,1.042,0,0,1,22.042,26.583Z" transform="translate(22.75 13)" fill="url(#linear-gradient)"/>
      <path id="Path_29061" data-name="Path 29061" d="M21.042,14.583A1.042,1.042,0,0,1,20,13.542V1.042a1.042,1.042,0,1,1,2.083,0v12.5A1.042,1.042,0,0,1,21.042,14.583Z" transform="translate(21.667)" fill="url(#linear-gradient)"/>
      <path id="Path_29062" data-name="Path 29062" d="M3.042,20.583A1.042,1.042,0,0,1,2,19.542V7.042a1.042,1.042,0,1,1,2.083,0v12.5A1.042,1.042,0,0,1,3.042,20.583Z" transform="translate(2.167 6.5)" fill="url(#linear-gradient)"/>
      <path id="Path_29063" data-name="Path 29063" d="M40.458,17.083H5.042a1.042,1.042,0,1,1,0-2.083H40.458a1.042,1.042,0,1,1,0,2.083Z" transform="translate(4.333 16.25)" fill="url(#linear-gradient)"/>
      <path id="Path_29064" data-name="Path 29064" d="M28.042,11.083h-25A1.042,1.042,0,1,1,3.042,9h25a1.042,1.042,0,1,1,0,2.083Z" transform="translate(2.167 9.75)" fill="url(#linear-gradient)"/>
      <path id="Path_29065" data-name="Path 29065" d="M35.125,5.083H8.042A1.042,1.042,0,0,1,8.042,3H35.125a1.042,1.042,0,1,1,0,2.083Z" transform="translate(7.583 3.25)" fill="url(#linear-gradient)"/>
      <path id="Path_29066" data-name="Path 29066" d="M21.542,33.75a1.032,1.032,0,0,1-.577-.175l-5.673-3.781L9.619,33.575A1.041,1.041,0,0,1,8,32.708V16.042a1.042,1.042,0,1,1,2.083,0V30.763l4.631-3.088a1.042,1.042,0,0,1,1.156,0L20.5,30.763V16.042a1.042,1.042,0,1,1,2.083,0V32.708a1.043,1.043,0,0,1-.55.919A1.055,1.055,0,0,1,21.542,33.75Z" transform="translate(8.667 16.25)" fill="url(#linear-gradient)"/>
    </g>
  </g>
</svg>
