<svg xmlns="http://www.w3.org/2000/svg" width="25.001" height="25" viewBox="0 0 25.001 25">
  <g id="question_" data-name="question " transform="translate(0.001 -0.001)">
    <path id="Path_8726" data-name="Path 8726" d="M213.979,205.9a8.106,8.106,0,0,0-4.445-7.218,11.023,11.023,0,0,1-10.854,10.854,8.084,8.084,0,0,0,11.328,3.322l3.934,1.088-1.088-3.934a8.052,8.052,0,0,0,1.126-4.113Zm0,0" transform="translate(-188.978 -188.978)" fill="#fff"/>
    <path id="Path_8727" data-name="Path 8727" d="M19.092,9.546A9.546,9.546,0,1,0,1.323,14.4L.035,19.057l4.659-1.288a9.548,9.548,0,0,0,14.4-8.222ZM8.081,7.325H6.616a2.93,2.93,0,1,1,4.906,2.162l-1.245,1.139v1.142H8.813V9.981l1.719-1.575a1.45,1.45,0,0,0,.477-1.081,1.465,1.465,0,0,0-2.93,0Zm.733,5.908h1.465V14.7H8.813Zm0,0" transform="translate(0 0)" fill="#fff"/>
  </g>
</svg>
