<svg xmlns="http://www.w3.org/2000/svg" width="22.669" height="25.292" viewBox="0 0 22.669 25.292">
  <g id="quote" transform="translate(-26.57)">
    <g id="Group_2" data-name="Group 2" transform="translate(26.57)">
      <g id="Group_1" data-name="Group 1">
        <path id="Path_6" data-name="Path 6" d="M118.611,200.988a.988.988,0,0,0-.988-.988H107.447a.988.988,0,1,0,0,1.976h10.176a.988.988,0,0,0,.988-.988Z" transform="translate(-102.513 -190.12)" fill="#fff"/>
        <path id="Path_7" data-name="Path 7" d="M107.447,280a.988.988,0,1,0,0,1.976h6.18a.988.988,0,0,0,0-1.976Z" transform="translate(-102.513 -266.169)" fill="#fff"/>
        <path id="Path_8" data-name="Path 8" d="M33.826,23.316h-3.3A1.978,1.978,0,0,1,28.55,21.34V3.952a1.978,1.978,0,0,1,1.976-1.976H42.668a1.978,1.978,0,0,1,1.976,1.976v6.076a.988.988,0,1,0,1.976,0V3.952A3.956,3.956,0,0,0,42.668,0H30.522A3.956,3.956,0,0,0,26.57,3.952V21.34a3.956,3.956,0,0,0,3.952,3.952h3.3a.988.988,0,0,0,0-1.976Z" transform="translate(-26.57)" fill="#fff"/>
        <path id="Path_9" data-name="Path 9" d="M254.543,272.891a2.967,2.967,0,0,0-4.191,0l-5.424,5.412a.988.988,0,0,0-.247.412L243.5,282.6a.988.988,0,0,0,1.209,1.239l3.988-1.1a.988.988,0,0,0,.434-.253l5.413-5.4A2.967,2.967,0,0,0,254.543,272.891Zm-6.625,8.012-2.006.556.587-1.933,3.66-3.652,1.4,1.4Zm5.228-5.218-.191.191-1.4-1.4.191-.19a.99.99,0,1,1,1.4,1.4Z" transform="translate(-232.743 -258.587)" fill="#fff"/>
        <path id="Path_10" data-name="Path 10" d="M117.623,120H107.447a.988.988,0,0,0,0,1.976h10.176a.988.988,0,0,0,0-1.976Z" transform="translate(-102.513 -114.072)" fill="#fff"/>
      </g>
    </g>
  </g>
</svg>
