<svg id="telephone_" data-name="telephone " xmlns="http://www.w3.org/2000/svg" width="24.493" height="24.494" viewBox="0 0 24.493 24.494">
  <g id="Group_7772" data-name="Group 7772" transform="translate(0 0)">
    <path id="Path_28380" data-name="Path 28380" d="M23.874,18.066l-3.045-3.045a2.156,2.156,0,0,0-3.045,0L16.4,16.4a1.633,1.633,0,0,1-2.307,0l-6-6a1.63,1.63,0,0,1,0-2.307L9.478,6.71a2.152,2.152,0,0,0,0-3.046L6.433.63a2.155,2.155,0,0,0-3.043,0l-1.109,1.1a7.773,7.773,0,0,0,0,10.98l9.505,9.51a7.76,7.76,0,0,0,10.98,0l1.107-1.107A2.155,2.155,0,0,0,23.874,18.066ZM4.4,1.645a.719.719,0,0,1,1.016,0L8.463,4.68a.717.717,0,0,1,0,1.015L7.956,6.2,3.9,2.145ZM12.8,21.2,3.3,11.693a6.31,6.31,0,0,1-.4-8.516L6.946,7.222a3.064,3.064,0,0,0,.133,4.193l6,6h0a3.063,3.063,0,0,0,4.193.134L21.317,21.6A6.3,6.3,0,0,1,12.8,21.2ZM22.859,20.1l-.508.508-4.06-4.06.507-.507a.719.719,0,0,1,1.015,0l3.045,3.045A.718.718,0,0,1,22.859,20.1Z" transform="translate(-0.011 0)" fill="#fff"/>
  </g>
</svg>
