<svg xmlns="http://www.w3.org/2000/svg" xmlns:xlink="http://www.w3.org/1999/xlink" width="74.781" height="70.569" viewBox="0 0 74.781 70.569">
  <defs>
    <linearGradient id="linear-gradient" x1="0.5" x2="0.5" y2="1" gradientUnits="objectBoundingBox">
      <stop offset="0" stop-color="#fff"/>
      <stop offset="1" stop-color="#0064d8"/>
    </linearGradient>
    <linearGradient id="linear-gradient-2" x1="0.5" x2="0.5" y2="1" gradientUnits="objectBoundingBox">
      <stop offset="0" stop-color="#0064d8"/>
      <stop offset="1" stop-color="#1c2848"/>
    </linearGradient>
  </defs>
  <g id="applications-white" transform="translate(-400.555 -360.665)">
    <g id="Group_80" data-name="Group 80" transform="translate(461.942 385.908)">
      <path id="Polygon_1" data-name="Polygon 1" d="M5.821,1.592a1,1,0,0,1,1.752,0L8.934,4.065a1,1,0,0,0,.394.394L11.8,5.821a1,1,0,0,1,0,1.752L9.328,8.934a1,1,0,0,0-.394.394L7.573,11.8a1,1,0,0,1-1.752,0L4.459,9.328a1,1,0,0,0-.394-.394L1.592,7.573a1,1,0,0,1,0-1.752L4.065,4.459a1,1,0,0,0,.394-.394Z" fill="#ffd73b"/>
      <path id="Polygon_2" data-name="Polygon 2" d="M2.58,1.592a1,1,0,0,1,1.752,0l.211.384a1,1,0,0,0,.394.394l.384.211a1,1,0,0,1,0,1.752l-.384.211a1,1,0,0,0-.394.394l-.211.384a1,1,0,0,1-1.752,0l-.211-.384a1,1,0,0,0-.394-.394l-.384-.211a1,1,0,0,1,0-1.752l.384-.211a1,1,0,0,0,.394-.394Z" transform="translate(3.456 3.456)" fill="#ebbb00"/>
    </g>
    <g id="Group_81" data-name="Group 81" transform="translate(403.951 424.317)">
      <path id="Polygon_1-2" data-name="Polygon 1" d="M2.565,1.592a1,1,0,0,1,1.752,0l.206.373a1,1,0,0,0,.394.394l.373.206a1,1,0,0,1,0,1.752l-.373.206a1,1,0,0,0-.394.394l-.206.373a1,1,0,0,1-1.752,0l-.206-.373a1,1,0,0,0-.394-.394l-.373-.206a1,1,0,0,1,0-1.752l.373-.206a1,1,0,0,0,.394-.394Z" transform="translate(0)" fill="#ffd73b"/>
      <path id="Polygon_2-2" data-name="Polygon 2" d="M1.232.988a.621.621,0,0,1,1.087,0h0a.621.621,0,0,0,.244.244h0a.621.621,0,0,1,0,1.087h0a.621.621,0,0,0-.244.244h0a.621.621,0,0,1-1.087,0h0A.621.621,0,0,0,.988,2.32h0a.621.621,0,0,1,0-1.087h0A.621.621,0,0,0,1.232.988Z" transform="translate(1.776 1.776)" fill="#ebbb00"/>
    </g>
    <g id="Group_82" data-name="Group 82" transform="translate(431.697 360.665)">
      <path id="Polygon_1-3" data-name="Polygon 1" d="M2.565,1.592a1,1,0,0,1,1.752,0l.206.373a1,1,0,0,0,.394.394l.373.206a1,1,0,0,1,0,1.752l-.373.206a1,1,0,0,0-.394.394l-.206.373a1,1,0,0,1-1.752,0l-.206-.373a1,1,0,0,0-.394-.394l-.373-.206a1,1,0,0,1,0-1.752l.373-.206a1,1,0,0,0,.394-.394Z" transform="translate(0 0)" fill="#ffd73b"/>
      <path id="Polygon_2-3" data-name="Polygon 2" d="M1.232.988a.621.621,0,0,1,1.087,0h0a.621.621,0,0,0,.244.244h0a.621.621,0,0,1,0,1.087h0a.621.621,0,0,0-.244.244h0a.621.621,0,0,1-1.087,0h0A.621.621,0,0,0,.988,2.32h0a.621.621,0,0,1,0-1.087h0A.621.621,0,0,0,1.232.988Z" transform="translate(1.776 1.776)" fill="#ebbb00"/>
    </g>
    <path id="Path_28456" data-name="Path 28456" d="M40.356,0l22.16,48.52S50.138,57.876,40.574,61.376,24.26,62.516,24.26,62.516L0,0Z" transform="matrix(0.998, 0.07, -0.07, 0.998, 404.97, 363.734)" opacity="0.1" fill="url(#linear-gradient)"/>
    <g id="Flat" transform="translate(382 329)">
      <path id="Path_28457" data-name="Path 28457" d="M97.758,152.189V114.871A2.871,2.871,0,0,0,94.888,112H50.871A2.871,2.871,0,0,0,48,114.871v37.319Z" transform="translate(-21.129 -63.388)" fill="#ebebeb"/>
      <path id="Path_28458" data-name="Path 28458" d="M80,144h42.1v29.664H80Z" transform="translate(-49.302 -91.561)" fill="#fff" stroke="#eaeaea" stroke-width="1"/>
      <path id="Path_28459" data-name="Path 28459" d="M63.232,416H79.5v1.914a2.871,2.871,0,0,1-2.871,2.871H26.871A2.871,2.871,0,0,1,24,417.914V416H40.267l1.914.957H61.319Z" transform="translate(0 -331.026)" fill="#b2b1b4"/>
      <path id="Path_28461" data-name="Path 28461" d="M306.764,75.9l-2.3,1.429-1.429-2.3,7.82-33.549a1.914,1.914,0,1,1,3.728.869Z" transform="translate(-245.66 0)" fill="#ffd73b"/>
      <path id="Path_28462" data-name="Path 28462" d="M0,0H3.828V3.828H0Z" transform="translate(63.676 47.999) rotate(-76.881)" fill="#f79726"/>
      <g id="Group_7570" data-name="Group 7570" transform="translate(34.526 63.922)">
        <path id="Path_28463" data-name="Path 28463" d="M128,240h1.914v1.914H128Z" transform="translate(-126.086 -240)" fill="url(#linear-gradient-2)"/>
        <path id="Path_28464" data-name="Path 28464" d="M160,240h13.4v1.914H160Z" transform="translate(-154.259 -240)" fill="url(#linear-gradient-2)"/>
        <path id="Path_28465" data-name="Path 28465" d="M112,272h16.267v1.914H112Z" transform="translate(-112 -268.172)" fill="url(#linear-gradient-2)"/>
        <path id="Path_28466" data-name="Path 28466" d="M112,304h16.267v1.914H112Z" transform="translate(-112 -296.345)" fill="url(#linear-gradient-2)"/>
        <path id="Path_28467" data-name="Path 28467" d="M130.349,341.7l-1.777-.711,1.32-3.3a1.675,1.675,0,0,1,3.053-.127l.714,1.429,1.479-.986a1.679,1.679,0,0,1,2.113.209l1.217,1.218h5.345v1.914H138.37a1.664,1.664,0,0,1-1.184-.49l-1.149-1.149L134.5,340.73a1.675,1.675,0,0,1-2.427-.644l-.6-1.195Z" transform="translate(-126.59 -325.075)" fill="url(#linear-gradient-2)"/>
        <path id="Path_28468" data-name="Path 28468" d="M272,360h1.914v1.914H272Z" transform="translate(-252.862 -345.647)" fill="url(#linear-gradient-2)"/>
      </g>
      <path id="Path_28469" data-name="Path 28469" d="M96,80h21.052v1.914H96Z" transform="translate(-63.388 -35.216)" fill="#fff"/>
      <path id="Path_28470" data-name="Path 28470" d="M288,80h1.914v1.914H288Z" transform="translate(-232.423 -35.216)" fill="#fff"/>
    </g>
  </g>
</svg>
