<svg xmlns="http://www.w3.org/2000/svg" width="143.516" height="143.516" viewBox="0 0 143.516 143.516">
  <g id="call-us" transform="translate(0 0)">
    <path id="Path_55" data-name="Path 55" d="M66.237,0a66.231,66.231,0,0,1,55.31,102.672l10.927,29.8L101.651,122.2A66.233,66.233,0,1,1,66.237,0Z" transform="matrix(0.996, -0.087, 0.087, 0.996, 0, 11.546)" fill="#fff"/>
    <path id="Path_53" data-name="Path 53" d="M57.771,0a57.765,57.765,0,0,1,48.24,89.548l9.53,25.993-26.883-8.96A57.767,57.767,0,1,1,57.771,0Z" transform="matrix(0.996, -0.087, 0.087, 0.996, 9.495, 19.924)" fill="#0064d8"/>
    <path id="Path_54" data-name="Path 54" d="M178.5,171.311v9.6a6.406,6.406,0,0,1-6.385,6.424c-.2,0-.4-.008-.6-.026a63.491,63.491,0,0,1-27.66-9.821,62.458,62.458,0,0,1-19.232-19.194,63.226,63.226,0,0,1-9.839-27.734,6.4,6.4,0,0,1,5.807-6.948c.191-.014.38-.024.572-.024h9.616a6.407,6.407,0,0,1,6.41,5.5,41.114,41.114,0,0,0,2.243,8.988,6.389,6.389,0,0,1-1.442,6.749l-4.07,4.062a51.234,51.234,0,0,0,19.232,19.194l4.07-4.062a6.419,6.419,0,0,1,6.763-1.44,41.141,41.141,0,0,0,9.006,2.239A6.4,6.4,0,0,1,178.5,171.311Z" transform="translate(-74.55 -81.025)" fill="#fff"/>
  </g>
</svg>
