<svg id="classroom" xmlns="http://www.w3.org/2000/svg" width="126.94" height="127.114" viewBox="0 0 126.94 127.114">
  <g id="Group_3340" data-name="Group 3340" transform="translate(52.138 4.163)">
    <g id="Group_3339" data-name="Group 3339">
      <path id="Path_12163" data-name="Path 12163" d="M274.152,16.768H213.114a2.754,2.754,0,0,0-2.755,2.755V40.986l3.055-1.9a7.637,7.637,0,0,1,2.454-.988V22.277H271.4V62H215.868V55.576L210.359,59v5.762a2.754,2.754,0,0,0,2.755,2.755h61.038a2.755,2.755,0,0,0,2.755-2.755V19.523A2.755,2.755,0,0,0,274.152,16.768Z" transform="translate(-210.359 -16.768)" fill="#fff"/>
    </g>
  </g>
  <g id="Group_3342" data-name="Group 3342" transform="translate(63.419 18.646)">
    <g id="Group_3341" data-name="Group 3341">
      <path id="Path_12164" data-name="Path 12164" d="M268.262,75.913a2.119,2.119,0,0,0-2.976-.352L255.8,83.042a7.618,7.618,0,0,1,2.309,2.365,7.7,7.7,0,0,1,.455.852l9.348-7.37A2.118,2.118,0,0,0,268.262,75.913Z" transform="translate(-255.798 -75.106)" fill="#fff"/>
    </g>
  </g>
  <g id="Group_3344" data-name="Group 3344" transform="translate(22.157 0)">
    <g id="Group_3343" data-name="Group 3343" transform="translate(0 0)">
      <circle id="Ellipse_5" data-name="Ellipse 5" cx="7.928" cy="7.928" r="7.928" fill="#fff"/>
    </g>
  </g>
  <g id="Group_3346" data-name="Group 3346" transform="translate(10.603 18.384)">
    <g id="Group_3345" data-name="Group 3345">
      <path id="Path_12165" data-name="Path 12165" d="M94.936,86.63A3.826,3.826,0,0,0,89.668,85.4l-7.747,4.81c-.032-6.425-.015-3.015-.036-7.153a9.073,9.073,0,0,0-9.053-9.007H69.068c-3.215,8.339-2.18,5.243-4.909,12.322l1.148-5a1.594,1.594,0,0,0-.163-1.1L63.59,77.443l1.38-2.51a.563.563,0,0,0-.493-.833H60.686a.563.563,0,0,0-.493.833l1.383,2.515-1.558,2.834a1.6,1.6,0,0,0-.167,1.079l.994,5.008L56.094,74.048h-3.84A9.073,9.073,0,0,0,43.2,83.055l-.141,28.1A3.826,3.826,0,0,0,46.866,115h.02a3.825,3.825,0,0,0,3.825-3.806l.141-28.1v-.013a.759.759,0,0,1,1.518.011l0,39.818a12.763,12.763,0,0,1,9.181,3.333V110.708h1.982v17.819a12.8,12.8,0,0,1,.359,13.83,13.935,13.935,0,0,1,3.5.462,12.8,12.8,0,0,1,5.322-2.765c0-69.352-.083-26.472-.083-56.957a.8.8,0,0,1,1.6,0c.013,2.683.056,11.07.07,13.99a3.825,3.825,0,0,0,5.843,3.231L93.7,91.9A3.825,3.825,0,0,0,94.936,86.63Z" transform="translate(-43.06 -74.048)" fill="#fff"/>
    </g>
  </g>
  <g id="Group_3348" data-name="Group 3348" transform="translate(98.083 71.757)">
    <g id="Group_3347" data-name="Group 3347">
      <circle id="Ellipse_6" data-name="Ellipse 6" cx="8.392" cy="8.392" r="8.392" fill="#fff"/>
    </g>
  </g>
  <g id="Group_3350" data-name="Group 3350" transform="translate(95.815 91.216)">
    <g id="Group_3349" data-name="Group 3349">
      <path id="Path_12166" data-name="Path 12166" d="M417.361,376.942a9.6,9.6,0,0,0-9.583-9.535H386.73a12.791,12.791,0,0,1-.446,12.5,14.031,14.031,0,0,1,11.209,6.429h10.075V377.04a.848.848,0,0,1,1.695-.058h0l.047,9.35h8.1Z" transform="translate(-386.284 -367.407)" fill="#fff"/>
    </g>
  </g>
  <g id="Group_3352" data-name="Group 3352" transform="translate(54.299 91.124)">
    <g id="Group_3351" data-name="Group 3351">
      <path id="Path_12167" data-name="Path 12167" d="M236.792,372.975a12.742,12.742,0,0,1,1.463-5.939H219.568a12.794,12.794,0,0,1-.5,12.354,13.98,13.98,0,0,1,10,4.287,13.874,13.874,0,0,1,9.642-3.971A12.808,12.808,0,0,1,236.792,372.975Z" transform="translate(-219.064 -367.036)" fill="#fff"/>
    </g>
  </g>
  <g id="Group_3354" data-name="Group 3354" transform="translate(57.266 71.664)">
    <g id="Group_3353" data-name="Group 3353">
      <path id="Path_12168" data-name="Path 12168" d="M239.408,288.655a8.392,8.392,0,1,0,8.392,8.392A8.392,8.392,0,0,0,239.408,288.655Z" transform="translate(-231.015 -288.655)" fill="#fff"/>
    </g>
  </g>
  <g id="Group_3356" data-name="Group 3356" transform="translate(0 91.123)">
    <g id="Group_3355" data-name="Group 3355" transform="translate(0)">
      <path id="Path_12169" data-name="Path 12169" d="M30.856,372.751a12.747,12.747,0,0,1,1.343-5.705c-.362-.018,1.16-.012-22.216-.012A9.607,9.607,0,0,0,.4,376.568l-.048,9.483h8.1l.047-9.442a.847.847,0,0,1,1.695,0v9.438H21.547A13.948,13.948,0,0,1,32.779,379.5,12.727,12.727,0,0,1,30.856,372.751Z" transform="translate(-0.353 -367.033)" fill="#fff"/>
    </g>
  </g>
  <g id="Group_3358" data-name="Group 3358" transform="translate(12.073 71.664)">
    <g id="Group_3357" data-name="Group 3357">
      <path id="Path_12170" data-name="Path 12170" d="M57.375,288.655a8.392,8.392,0,1,0,8.393,8.392A8.392,8.392,0,0,0,57.375,288.655Z" transform="translate(-48.983 -288.655)" fill="#fff"/>
    </g>
  </g>
  <g id="Group_3360" data-name="Group 3360" transform="translate(23.359 107.876)">
    <g id="Group_3359" data-name="Group 3359">
      <path id="Path_12171" data-name="Path 12171" d="M175.9,444.266a9.6,9.6,0,0,0-9.582-9.535H145.086a9.845,9.845,0,0,0-9.858,9.534l-.068-.221a9.6,9.6,0,0,0-9.582-9.534H104.348a9.845,9.845,0,0,0-9.858,9.534l-.048,9.7h8.1l.047-9.663a.73.73,0,0,1,1.46,0v9.66H125.5v-9.66a.782.782,0,0,1,1.564,0l.047,9.663h16.171l.047-9.442h0a.73.73,0,0,1,1.46,0v9.438h21.448V444.31a.782.782,0,0,1,1.564,0l.047,9.442h8.1Z" transform="translate(-94.442 -434.51)" fill="#fff"/>
    </g>
  </g>
  <g id="Group_3362" data-name="Group 3362" transform="translate(35.101 88.318)">
    <g id="Group_3361" data-name="Group 3361">
      <circle id="Ellipse_7" data-name="Ellipse 7" cx="8.49" cy="8.49" r="8.49" fill="#fff"/>
    </g>
  </g>
  <g id="Group_3364" data-name="Group 3364" transform="translate(76.348 88.539)">
    <g id="Group_3363" data-name="Group 3363">
      <circle id="Ellipse_8" data-name="Ellipse 8" cx="8.49" cy="8.49" r="8.49" fill="#fff"/>
    </g>
  </g>
</svg>
