<svg xmlns="http://www.w3.org/2000/svg" width="58.455" height="64.799" viewBox="0 0 58.455 64.799">
  <g id="countries" transform="translate(-44 -21)">
    <path id="Path_28548" data-name="Path 28548" d="M171,43.391a2.077,2.077,0,1,0-2.075-2.077A2.077,2.077,0,0,0,171,43.391Z" transform="translate(-107.704 -15.724)" fill="#1c2848"/>
    <path id="Path_28549" data-name="Path 28549" d="M156.434,33.476l3.618-4.839a4.8,4.8,0,0,0,.984-3.186,4.6,4.6,0,0,0-9.2,0,4.918,4.918,0,0,0,.988,3.194Zm-.174-11.34a3.455,3.455,0,1,1-3.454,3.455A3.455,3.455,0,0,1,156.261,22.136Z" transform="translate(-92.962 0)" fill="#1c2848"/>
    <path id="Path_28550" data-name="Path 28550" d="M357.408,116.936a2.426,2.426,0,0,0,1.532.812l.4.05a3.547,3.547,0,0,1,2.959,2.492,3.475,3.475,0,0,1-1.021,3.6l-3.99,3.529a2.3,2.3,0,0,0-.775,1.72v.936a1.8,1.8,0,0,0,.824,1.515,3.334,3.334,0,0,1,1.517,2.482l.093.935a1.542,1.542,0,0,0,1.538,1.394h2.336A3.465,3.465,0,0,0,366,134.328l.14-.32A3.348,3.348,0,0,1,369.068,132l.549-.025c.061,0,.122-.007.183-.014l1.331-.134a45.132,45.132,0,0,0-1.482-7.685l-.782,1.046a.689.689,0,0,1-1.1,0L364.41,120.7a5.2,5.2,0,0,1-1.036-3.388,5.125,5.125,0,0,1,.726-2.319,31.044,31.044,0,0,0-4.62-3.747l-2.258,3.872A1.579,1.579,0,0,0,357.408,116.936Z" transform="translate(-269.429 -77.804)" fill="#1c2848"/>
    <path id="Path_28551" data-name="Path 28551" d="M419.78,140.558l2.8-3.744a3.718,3.718,0,0,0,.764-2.47,3.566,3.566,0,0,0-7.128,0,3.817,3.817,0,0,0,.769,2.479Zm-.14-9.024a2.912,2.912,0,1,1-2.912,2.912,2.913,2.913,0,0,1,2.912-2.912Z" transform="translate(-320.895 -94.741)" fill="#1c2848"/>
    <path id="Path_28552" data-name="Path 28552" d="M100.509,98.513q-.129.013-.259.019l-.548.025a1.978,1.978,0,0,0-1.731,1.189l-.14.32a4.844,4.844,0,0,1-4.434,2.9H91.059a2.916,2.916,0,0,1-2.91-2.636l-.093-.935a1.963,1.963,0,0,0-.892-1.461,3.169,3.169,0,0,1-1.455-2.673v-.936a3.676,3.676,0,0,1,1.24-2.753l3.991-3.529a2.093,2.093,0,0,0,.615-2.169,2.168,2.168,0,0,0-1.808-1.523l-.4-.05a3.8,3.8,0,0,1-2.4-1.274,2.961,2.961,0,0,1-.342-3.413l2.29-3.924a34.832,34.832,0,0,0-3.81-2.022,29.87,29.87,0,0,0-12.146-2.8c-.37,0-.776.012-1.2.034l3.062,4.416a4.82,4.82,0,0,1-.144,5.7l-.981,1.274a3.773,3.773,0,0,1-3.455,1.436L69.1,83.585A2.518,2.518,0,0,0,66.6,84.81a3.788,3.788,0,0,1-3.747,1.841l-2.57-.327a2.661,2.661,0,0,0-2.551,1.154,2.193,2.193,0,0,0-.037,2.4l1.7,2.684a1.937,1.937,0,0,0,2.543.67l1.748-.938a5.687,5.687,0,0,1,4.2-.24,5.972,5.972,0,0,1,11.855.764,6.17,6.17,0,0,1-1.256,4.1L77.41,98.367l.633.869q.14.194.29.371l2.123,2.5a2.6,2.6,0,0,1-.4,3.739l-3.218,2.474a3.667,3.667,0,0,0-1.277,1.838l-1.072,3.482a3.675,3.675,0,0,1-.689,1.273l-1.043,1.256a4.6,4.6,0,0,0-1.04,2.475,3.162,3.162,0,0,1-1.922,2.592,2.337,2.337,0,0,1-3.209-1.772l-.983-5.9a3.064,3.064,0,0,0-.583-1.348l-3.6-4.727a5.682,5.682,0,0,1-.96-1.935l-1.189-4.292a3,3,0,0,0-2.094-2.087l-.258-.07a4.842,4.842,0,0,1-2.038-1.143l-2.217-2.089a6.526,6.526,0,0,1-1.171-1.477,3.418,3.418,0,0,0-3.58-1.647L44.683,93.8a28.914,28.914,0,1,0,57.182,6.028c0-.449-.017-.934-.049-1.444Z" transform="translate(0 -42.987)" fill="#1c2848"/>
    <path id="Path_28553" data-name="Path 28553" d="M431.492,148.619a1.534,1.534,0,1,0-1.533-1.534,1.534,1.534,0,0,0,1.533,1.534Z" transform="translate(-332.747 -107.38)" fill="#0064d8"/>
    <path id="Path_28554" data-name="Path 28554" d="M73.667,124.807a2.077,2.077,0,1,0-2.075-2.076A2.077,2.077,0,0,0,73.667,124.807Z" transform="translate(-23.788 -85.915)" fill="#1c2848"/>
    <path id="Path_28555" data-name="Path 28555" d="M54.276,92.381a4.8,4.8,0,0,1,5.078,2.3,5.147,5.147,0,0,0,.924,1.165l2.217,2.089a3.457,3.457,0,0,0,1.456.816l.258.07a4.388,4.388,0,0,1,3.059,3.049l1.189,4.292a4.309,4.309,0,0,0,.728,1.467l3.6,4.726a4.446,4.446,0,0,1,.846,1.958l.983,5.9a.958.958,0,0,0,1.316.727,1.784,1.784,0,0,0,1.084-1.462,5.975,5.975,0,0,1,1.351-3.214l1.044-1.256a2.305,2.305,0,0,0,.432-.8l1.072-3.482a5.038,5.038,0,0,1,1.754-2.526l3.218-2.474a1.218,1.218,0,0,0,.186-1.753l-2.123-2.5c-.124-.147-.244-.3-.356-.456l-.379-.521-2.227,2.978a.689.689,0,0,1-1.1,0l-4.17-5.577a6.435,6.435,0,0,1-1.258-3.431,4.344,4.344,0,0,0-3.448.02l-1.748.938a3.279,3.279,0,0,1-1.553.39A3.32,3.32,0,0,1,64.9,94.283L63.2,91.6a3.572,3.572,0,0,1,.06-3.912,4.032,4.032,0,0,1,3.867-1.749l2.57.327a2.411,2.411,0,0,0,2.385-1.172A3.9,3.9,0,0,1,75.939,83.2l1.113.142a2.389,2.389,0,0,0,2.188-.91l.982-1.274a3.447,3.447,0,0,0,.1-4.078L76.8,72c-.392.039-.79.085-1.188.136a6.485,6.485,0,0,1-.754,1.3l-4.169,5.576a.689.689,0,0,1-1.1,0L66.518,74.9A38.754,38.754,0,0,0,61.9,77.891a6.127,6.127,0,0,1-.462,6.766l-4.169,5.576a.689.689,0,0,1-1.1,0l-2.211-2.957A32.483,32.483,0,0,0,51.733,93.2l2.463-.8A.69.69,0,0,1,54.276,92.381Z" transform="translate(-6.667 -43.969)" fill="#0064d8"/>
    <path id="Path_28556" data-name="Path 28556" d="M234.721,206.151a4.8,4.8,0,0,0,.984-3.186,4.6,4.6,0,0,0-9.2,0,4.918,4.918,0,0,0,.988,3.194l3.612,4.832Zm-7.244-3.046a3.454,3.454,0,1,1,3.454,3.455A3.454,3.454,0,0,1,227.476,203.105Z" transform="translate(-157.336 -153.04)" fill="#1c2848"/>
    <ellipse id="Ellipse_3016" data-name="Ellipse 3016" cx="2.075" cy="2.077" rx="2.075" ry="2.077" transform="translate(71.518 47.989)" fill="#0064d8"/>
    <path id="Path_28557" data-name="Path 28557" d="M59.1,114.888l3.617-4.839a4.8,4.8,0,0,0,.984-3.186,4.6,4.6,0,0,0-9.2,0,4.918,4.918,0,0,0,.989,3.195Zm-.174-11.34A3.455,3.455,0,1,1,55.469,107a3.455,3.455,0,0,1,3.454-3.455Z" transform="translate(-9.044 -70.188)" fill="#1c2848"/>
  </g>
</svg>
