<svg id="courses" xmlns="http://www.w3.org/2000/svg" width="32.308" height="32.308" viewBox="0 0 32.308 32.308">
  <path id="Path_12048" data-name="Path 12048" d="M19.183,0H3.7A3.7,3.7,0,0,0,0,3.7V24.567a3.7,3.7,0,0,0,3.7,3.7h9.935l.3-1.656a3.749,3.749,0,0,1,1.023-1.979l7.929-7.915V3.7a3.7,3.7,0,0,0-3.7-3.7ZM5.385,5.385h5.385a1.346,1.346,0,1,1,0,2.692H5.385a1.346,1.346,0,0,1,0-2.692Zm6.731,13.462H5.385a1.346,1.346,0,0,1,0-2.692h6.731a1.346,1.346,0,0,1,0,2.692ZM17.5,13.462H5.385a1.346,1.346,0,1,1,0-2.692H17.5a1.346,1.346,0,1,1,0,2.692Z" fill="#fff"/>
  <path id="Path_12049" data-name="Path 12049" d="M12.787,28.267a1.01,1.01,0,0,1-.993-1.186l.713-4.045a1.013,1.013,0,0,1,.28-.538l10-9.994a2.054,2.054,0,0,1,3.093-.238l1.665,1.665a2.357,2.357,0,0,1,0,3.332l-10,10a1,1,0,0,1-.538.28l-4.045.713a.962.962,0,0,1-.175.016Zm4.045-1.723h.013Z" transform="translate(4.077 4.041)" fill="#fff"/>
</svg>
