<svg xmlns="http://www.w3.org/2000/svg" xmlns:xlink="http://www.w3.org/1999/xlink" width="71.781" height="74.569" viewBox="0 0 71.781 74.569">
  <defs>
    <linearGradient id="linear-gradient" x1="0.5" x2="0.5" y2="1" gradientUnits="objectBoundingBox">
      <stop offset="0" stop-color="#fff"/>
      <stop offset="1" stop-color="#0064d8"/>
    </linearGradient>
    <linearGradient id="linear-gradient-2" x1="0.5" x2="0.5" y2="1" gradientUnits="objectBoundingBox">
      <stop offset="0" stop-color="#0064d8"/>
      <stop offset="1" stop-color="#1c2848"/>
    </linearGradient>
  </defs>
  <g id="database-white" transform="translate(-401.555 -360.665)">
    <g id="Group_80" data-name="Group 80" transform="translate(459.942 371.908)">
      <path id="Polygon_1" data-name="Polygon 1" d="M5.821,1.592a1,1,0,0,1,1.752,0L8.934,4.065a1,1,0,0,0,.394.394L11.8,5.821a1,1,0,0,1,0,1.752L9.328,8.934a1,1,0,0,0-.394.394L7.573,11.8a1,1,0,0,1-1.752,0L4.459,9.328a1,1,0,0,0-.394-.394L1.592,7.573a1,1,0,0,1,0-1.752L4.065,4.459a1,1,0,0,0,.394-.394Z" fill="#ffd73b"/>
      <path id="Polygon_2" data-name="Polygon 2" d="M2.58,1.592a1,1,0,0,1,1.752,0l.211.384a1,1,0,0,0,.394.394l.384.211a1,1,0,0,1,0,1.752l-.384.211a1,1,0,0,0-.394.394l-.211.384a1,1,0,0,1-1.752,0l-.211-.384a1,1,0,0,0-.394-.394l-.384-.211a1,1,0,0,1,0-1.752l.384-.211a1,1,0,0,0,.394-.394Z" transform="translate(3.456 3.456)" fill="#ebbb00"/>
    </g>
    <g id="Group_81" data-name="Group 81" transform="translate(415.951 414.317)">
      <path id="Polygon_1-2" data-name="Polygon 1" d="M2.565,1.592a1,1,0,0,1,1.752,0l.206.373a1,1,0,0,0,.394.394l.373.206a1,1,0,0,1,0,1.752l-.373.206a1,1,0,0,0-.394.394l-.206.373a1,1,0,0,1-1.752,0l-.206-.373a1,1,0,0,0-.394-.394l-.373-.206a1,1,0,0,1,0-1.752l.373-.206a1,1,0,0,0,.394-.394Z" transform="translate(0)" fill="#ffd73b"/>
      <path id="Polygon_2-2" data-name="Polygon 2" d="M1.232.988a.621.621,0,0,1,1.087,0h0a.621.621,0,0,0,.244.244h0a.621.621,0,0,1,0,1.087h0a.621.621,0,0,0-.244.244h0a.621.621,0,0,1-1.087,0h0A.621.621,0,0,0,.988,2.32h0a.621.621,0,0,1,0-1.087h0A.621.621,0,0,0,1.232.988Z" transform="translate(1.776 1.776)" fill="#ebbb00"/>
    </g>
    <g id="Group_82" data-name="Group 82" transform="translate(431.697 360.665)">
      <path id="Polygon_1-3" data-name="Polygon 1" d="M2.565,1.592a1,1,0,0,1,1.752,0l.206.373a1,1,0,0,0,.394.394l.373.206a1,1,0,0,1,0,1.752l-.373.206a1,1,0,0,0-.394.394l-.206.373a1,1,0,0,1-1.752,0l-.206-.373a1,1,0,0,0-.394-.394l-.373-.206a1,1,0,0,1,0-1.752l.373-.206a1,1,0,0,0,.394-.394Z" transform="translate(0 0)" fill="#ffd73b"/>
      <path id="Polygon_2-3" data-name="Polygon 2" d="M1.232.988a.621.621,0,0,1,1.087,0h0a.621.621,0,0,0,.244.244h0a.621.621,0,0,1,0,1.087h0a.621.621,0,0,0-.244.244h0a.621.621,0,0,1-1.087,0h0A.621.621,0,0,0,.988,2.32h0a.621.621,0,0,1,0-1.087h0A.621.621,0,0,0,1.232.988Z" transform="translate(1.776 1.776)" fill="#ebbb00"/>
    </g>
    <path id="Path_28494" data-name="Path 28494" d="M40.356,0l22.16,48.52S50.138,57.876,40.574,61.376,24.26,62.516,24.26,62.516L0,0Z" transform="matrix(0.998, 0.07, -0.07, 0.998, 405.97, 367.734)" opacity="0.1" fill="url(#linear-gradient)"/>
    <g id="data_transfer" data-name="data transfer" transform="translate(403 366)">
      <g id="Group_7572" data-name="Group 7572">
        <path id="Path_28495" data-name="Path 28495" d="M21,18v6c0,1.66-4.03,3-9,3s-9-1.34-9-3V18c0,1.66,4.03,3,9,3S21,19.66,21,18Z" fill="#ffd73b"/>
        <path id="Path_28496" data-name="Path 28496" d="M21,12v6c0,1.66-4.03,3-9,3s-9-1.34-9-3V12c0,1.66,4.03,3,9,3S21,13.66,21,12Z" fill="#ffd73b"/>
        <path id="Path_28497" data-name="Path 28497" d="M21,6v6c0,1.66-4.03,3-9,3s-9-1.34-9-3V6c0,1.66,4.03,3,9,3S21,7.66,21,6Z" fill="#ffd73b"/>
      </g>
      <path id="Path_28498" data-name="Path 28498" d="M21,6v6c0,1.66-4.03,3-9,3-.69,0-1.36-.03-2-.08,4.01-.3,7-1.49,7-2.92V8.5C19.41,7.96,21,7.04,21,6Z" fill="#ffcd00"/>
      <path id="Path_28499" data-name="Path 28499" d="M21,12v6c0,1.66-4.03,3-9,3-.69,0-1.36-.03-2-.08,4.01-.3,7-1.49,7-2.92V14.5C19.41,13.96,21,13.04,21,12Z" fill="#ffcd00"/>
      <path id="Path_28500" data-name="Path 28500" d="M21,18v6c0,1.66-4.03,3-9,3-.69,0-1.36-.03-2-.08,4.01-.3,7-1.49,7-2.92V20.5C19.41,19.96,21,19.04,21,18Z" fill="#ffcd00"/>
      <ellipse id="Ellipse_3011" data-name="Ellipse 3011" cx="9" cy="3" rx="9" ry="3" transform="translate(3 3)" fill="#ffd73b"/>
      <path id="Path_28501" data-name="Path 28501" d="M21,6c0,1.66-4.03,3-9,3-.69,0-1.36-.03-2-.08,4.01-.3,7-1.49,7-2.92s-2.99-2.62-7-2.92c.64-.05,1.31-.08,2-.08C16.97,3,21,4.34,21,6Z" fill="#ffcd00"/>
      <path id="Path_28502" data-name="Path 28502" d="M61,49v2a2.006,2.006,0,0,1-2,2H33a2.006,2.006,0,0,1-2-2V49Z" fill="#ffd73b"/>
      <path id="Path_28503" data-name="Path 28503" d="M59,33a2.006,2.006,0,0,1,2,2V49H31V35a2.006,2.006,0,0,1,2-2Z" fill="#fff"/>
      <path id="Path_28504" data-name="Path 28504" d="M54,31v4l-1.98.49,1.05,1.75-2.83,2.83-1.75-1.05L48,41H44l-.49-1.98-1.75,1.05-2.83-2.83,1.05-1.75L38,35V31l1.98-.49-1.05-1.75,2.83-2.83,1.75,1.05L44,25h4l.49,1.98,1.75-1.05,2.83,2.83-1.05,1.75Z" fill="#fff"/>
      <path id="Path_28505" data-name="Path 28505" d="M52.4,57l1.47,4H38.13l1.47-4H52.4Z" fill="#ebebeb"/>
      <path id="Path_28506" data-name="Path 28506" d="M48,53l1,4H43l1-4Z" fill="#ebebeb"/>
      <circle id="Ellipse_3012" data-name="Ellipse 3012" cx="3" cy="3" r="3" transform="translate(43 30)" fill="#ffde55"/>
      <path id="Path_28507" data-name="Path 28507" d="M26.12,27.88A3,3,0,0,1,24,33H6a3,3,0,0,1,0-6H7c0-.17.01-.34.02-.5a6,6,0,0,1,11.02-2.75,2.921,2.921,0,0,1,4.44.64A2.785,2.785,0,0,1,22.82,27H24a2.993,2.993,0,0,1,2.12.88Z" fill="#fff"/>
      <path id="Path_28508" data-name="Path 28508" d="M27,30a3,3,0,0,1-3,3H21a3,3,0,0,0,0-6H19.82a2.785,2.785,0,0,0-.34-2.61,3.391,3.391,0,0,0-.99-.97,2.889,2.889,0,0,1,1.98-.38,3.037,3.037,0,0,1,2.01,1.35A2.785,2.785,0,0,1,22.82,27H24a3,3,0,0,1,3,3Z" fill="#ebebeb"/>
      <path id="Path_28509" data-name="Path 28509" d="M61,49v2a2.006,2.006,0,0,1-2,2H55a2.006,2.006,0,0,0,2-2V49Z" fill="#ebbb00"/>
      <path id="Path_28510" data-name="Path 28510" d="M53.87,61h-8L44.4,57h8Z" fill="silver"/>
      <path id="Path_28511" data-name="Path 28511" d="M59,32H55V31a1,1,0,0,0-.757-.97l-.669-.167.355-.591a1,1,0,0,0-.151-1.222L50.95,25.222a1,1,0,0,0-1.222-.151l-.591.355-.167-.669A1,1,0,0,0,48,24H44a1,1,0,0,0-.97.757l-.167.669-.591-.355a1,1,0,0,0-1.222.151L38.222,28.05a1,1,0,0,0-.151,1.222l.355.591-.669.167A1,1,0,0,0,37,31v1H33a3,3,0,0,0-3,3V51a3,3,0,0,0,3,3h9.719l-.5,2H39.6a1,1,0,0,0-.939.656l-1.468,4A1,1,0,0,0,38.13,62H53.87a1,1,0,0,0,.939-1.344l-1.468-4A1,1,0,0,0,52.4,56H49.781l-.5-2H59a3,3,0,0,0,3-3V35a3,3,0,0,0-3-3Zm-20-.219,1.221-.3A1,1,0,0,0,40.835,30l-.647-1.079,1.724-1.724,1.079.647a1,1,0,0,0,1.485-.615l.3-1.22h2.438l.3,1.22A1,1,0,0,0,49,27.84l1.079-.647L51.8,28.917,51.155,30a1,1,0,0,0,.614,1.485l1.221.3v2.438l-1.221.3A1,1,0,0,0,51.155,36l.647,1.079-1.724,1.724L49,38.16a1,1,0,0,0-1.485.614L47.219,40H44.781l-.3-1.221A1,1,0,0,0,43,38.165l-1.079.647-1.724-1.724.647-1.079a1,1,0,0,0-.614-1.485L39,34.219ZM33,34h4v1a1,1,0,0,0,.757.97l.669.167-.355.591a1,1,0,0,0,.151,1.222l2.828,2.828a1,1,0,0,0,1.222.151l.591-.355.167.669A1,1,0,0,0,44,42h4a1,1,0,0,0,.97-.757l.167-.669.591.355a1,1,0,0,0,1.222-.151l2.828-2.828a1,1,0,0,0,.151-1.222l-.355-.591.669-.167A1,1,0,0,0,55,35V34h4a1,1,0,0,1,1,1V48H32V35A1,1,0,0,1,33,34ZM52.438,60H39.563l.733-2H51.7Zm-4.719-4H44.281l.5-2h2.438ZM59,52H33a1,1,0,0,1-1-1V50H60v1A1,1,0,0,1,59,52Z" fill="#181818"/>
      <path id="Path_28512" data-name="Path 28512" d="M46,37a4,4,0,1,0-4-4A4,4,0,0,0,46,37Zm0-6a2,2,0,1,1-2,2A2,2,0,0,1,46,31Z"/>
      <path id="Path_28513" data-name="Path 28513" d="M45,12V22h2V12a5.006,5.006,0,0,0-5-5H24V9H42A3,3,0,0,1,45,12Z" fill="#fff"/>
      <path id="Path_28514" data-name="Path 28514" d="M24,26a3.88,3.88,0,0,0-.684-2.156A4.183,4.183,0,0,0,22,22.575V6c0-2.748-5.184-4-10-4S2,3.252,2,6V24c0,1,.713,1.86,2.039,2.535A3.987,3.987,0,0,0,6,34H24a4,4,0,0,0,0-8Zm-4-4a3.884,3.884,0,0,0-1.729.4,6.982,6.982,0,0,0-1-.938A11.66,11.66,0,0,0,20,20.524ZM12,4c5.25,0,8,1.486,8,2s-2.75,2-8,2S4,6.514,4,6,6.75,4,12,4ZM4,8.524A19.008,19.008,0,0,0,12,10a19.008,19.008,0,0,0,8-1.476V12c0,.514-2.75,2-8,2s-8-1.486-8-2Zm0,6A19.008,19.008,0,0,0,12,16a19.008,19.008,0,0,0,8-1.476V18c0,.514-2.75,2-8,2s-8-1.486-8-2Zm0,6a14.155,14.155,0,0,0,4.37,1.232,7.012,7.012,0,0,0-2.145,3.5C4.448,24.714,4,24.106,4,24ZM24,32H6a2,2,0,0,1,0-4H7a1,1,0,0,0,1-1,5,5,0,0,1,9.2-2.709,1,1,0,0,0,1.5.21,1.981,1.981,0,0,1,1.623-.476,2.036,2.036,0,0,1,1.326.916,1.78,1.78,0,0,1,.23,1.724A1,1,0,0,0,22.816,28H24a2,2,0,0,1,0,4Z"/>
      <path id="Path_28515" data-name="Path 28515" d="M45,44h2v2H45Z" fill="url(#linear-gradient-2)"/>
      <path id="Path_28516" data-name="Path 28516" d="M49,44h2v2H49Z" fill="url(#linear-gradient-2)"/>
      <path id="Path_28517" data-name="Path 28517" d="M41,44h2v2H41Z" fill="url(#linear-gradient-2)"/>
    </g>
  </g>
</svg>
