<svg xmlns="http://www.w3.org/2000/svg" width="61.729" height="61.729" viewBox="0 0 61.729 61.729">
  <g id="event" transform="translate(-2 -2)">
    <path id="Path_28545" data-name="Path 28545" d="M55.5,11.259a4.115,4.115,0,0,0-4.115-4.115H50.355v3.086A2.058,2.058,0,0,1,48.3,12.288H46.239A2.058,2.058,0,0,0,48.3,10.231V4.058a2.058,2.058,0,1,0-4.115,0V7.144H39.038v3.086a2.058,2.058,0,0,1-2.058,2.058H34.922a2.058,2.058,0,0,0,2.058-2.058V4.058a2.058,2.058,0,1,0-4.115,0V7.144H26.692v3.086a2.058,2.058,0,0,1-2.058,2.058H22.576a2.058,2.058,0,0,0,2.058-2.058V4.058a2.058,2.058,0,0,0-4.115,0V7.144H15.375v3.086a2.058,2.058,0,0,1-2.058,2.058H11.259a2.058,2.058,0,0,0,2.058-2.058V4.058a2.058,2.058,0,1,0-4.115,0V7.144H6.115A4.115,4.115,0,0,0,2,11.259v6.173H55.5Z" fill="#0064d8"/>
    <path id="Path_28546" data-name="Path 28546" d="M51.317,40A11.317,11.317,0,1,0,62.634,51.317,11.317,11.317,0,0,0,51.317,40Zm0,13.375a2.044,2.044,0,0,1-.745-.144l-3.756,3.006L45.53,54.629l3.76-3.007a1.965,1.965,0,0,1,1-2.076V43.086h2.058v6.458a2.051,2.051,0,0,1-1.029,3.83Z" transform="translate(1.095 1.095)" fill="#0064d8"/>
    <path id="Path_28547" data-name="Path 28547" d="M6.115,57.067H40.066a13.377,13.377,0,0,1,7.2-17.49H42.124V33.4H48.3v5.8a13.172,13.172,0,0,1,7.2-.28V19H2V52.951a4.114,4.114,0,0,0,4.115,4.115Zm36.009-34.98H48.3v6.173H42.124Zm-11.317,0H36.98v6.173H30.807Zm0,11.317H36.98v6.173H30.807Zm0,11.317H36.98v6.173H30.807ZM19.49,22.086h6.173v6.173H19.49Zm0,11.317h6.173v6.173H19.49Zm0,11.317h6.173v6.173H19.49ZM8.173,22.086h6.173v6.173H8.173Zm0,11.317h6.173v6.173H8.173Zm0,11.317h6.173v6.173H8.173Z" transform="translate(0 0.49)" fill="#1c2848"/>
  </g>
</svg>
