<svg id="paced" xmlns="http://www.w3.org/2000/svg" width="55.001" height="55.001" viewBox="0 0 55.001 55.001">
  <path id="Path_12173" data-name="Path 12173" d="M62.24,40.839h-.775V39.745c8.408-1.1,11.372-3.978,11.5-4.1l-1.383-1.4a9.5,9.5,0,0,1-2.446,1.471,27.541,27.541,0,0,1-7.576,2.033,6.822,6.822,0,0,1,.576-1.832A14.493,14.493,0,0,0,67.8,34.843l-.873-1.76a11.1,11.1,0,0,1-3.267.765A6.849,6.849,0,0,1,68.34,32h3.7a2.556,2.556,0,0,1,2.2,1.234V37.36A22.336,22.336,0,0,1,62.24,40.839ZM56.554,83.072V80.126a.982.982,0,0,1,.982-.982h.907l.786-1.964H53.487L52.7,79.144h.907a.982.982,0,0,1,.982.982v2.946ZM32,73.251V55.572a1.967,1.967,0,0,1,1.964-1.964h27.5a1.967,1.967,0,0,1,1.964,1.964V73.251a1.967,1.967,0,0,1-1.964,1.964H50.613l1.008-4.705a.982.982,0,0,0-.96-1.188H43.786a.982.982,0,0,0-.9.6l-2.27,5.3H33.964A1.967,1.967,0,0,1,32,73.251ZM57.536,58.518h3.929V56.554H57.536Zm-5.893,0h3.929V56.554H51.643Zm-5.893,0h3.929V56.554H45.75Zm-5.893,0h3.929V56.554H39.857Zm-5.893,0h3.929V56.554H33.964ZM61.471,48.434c0-.076-.006-.152-.006-.229V45.033a1.984,1.984,0,0,0-.408.311,1.962,1.962,0,0,0,.413,3.09ZM76.2,34.062v3.83a4.463,4.463,0,0,0,3.056,4.239l.873.291V38.875A4.92,4.92,0,0,0,76.2,34.062ZM82.09,48.206c0,.077,0,.153-.006.229a1.989,1.989,0,0,0,.413-.314,1.962,1.962,0,0,0-.408-3.087Zm-18.661,0V42.774a24.27,24.27,0,0,0,11.015-3.246A6.423,6.423,0,0,0,78.631,44l1.494.5v3.712a8.348,8.348,0,1,1-16.7,0Zm9.822-2.455a1.964,1.964,0,1,0,1.964-1.964A1.964,1.964,0,0,0,73.251,45.75Zm-4.375,3.217L67.8,50.613a6.389,6.389,0,0,0,6.964,0L73.7,48.967a4.423,4.423,0,0,1-4.822,0ZM65.393,45.75a1.964,1.964,0,1,0,1.964-1.964A1.964,1.964,0,0,0,65.393,45.75Zm6.384,12.768a10.3,10.3,0,0,1-2.532-.316,2.956,2.956,0,0,1-1.428,1.9,5.164,5.164,0,0,0,8.457.275l.28-.373a2.972,2.972,0,0,1-.476-.385,2.933,2.933,0,0,1-.838-1.7A10.266,10.266,0,0,1,71.777,58.518ZM44.434,71.286,39.382,83.072H46.92l2.525-11.786Zm17.031,5.893h-.121l-.786,1.964h1.889V77.055A3.921,3.921,0,0,1,61.465,77.179Zm-8.839,3.929H49.35l-.42,1.964h3.7ZM87,85.037H32V87H87Zm0-7.857V70.3H82.09v6.875a.982.982,0,0,1-.982.982H68.34a2.95,2.95,0,0,0-2.946,2.946v1.964H81.108A5.9,5.9,0,0,0,87,77.179Zm-36.809,0-.421,1.964h.814l.786-1.964Zm13.237,3.929H58.518v1.964h4.911Zm.982-2.943v-2.32a3.911,3.911,0,0,0,.982-2.594V60.483h.376a7.131,7.131,0,0,0,12.077,1.075l.807-1.075H82.09A4.916,4.916,0,0,1,87,65.393V68.34H82.09V65.393H80.126V76.2H68.34a4.906,4.906,0,0,0-3.928,1.967Zm2.455-11.272a10.8,10.8,0,0,0,10.111.367l-.856-1.768a8.839,8.839,0,0,1-8.273-.3Z" transform="translate(-32 -32)" fill="#fff"/>
</svg>
