<svg id="phone-call" xmlns="http://www.w3.org/2000/svg" width="28" height="28" viewBox="0 0 28 28">
  <path id="Path_12052" data-name="Path 12052" d="M254.019,14.874a.875.875,0,0,1-.875-.875A12.263,12.263,0,0,0,240.895,1.75a.875.875,0,1,1,0-1.75,14,14,0,0,1,14,14A.875.875,0,0,1,254.019,14.874Z" transform="translate(-226.894)" fill="#fff"/>
  <path id="Path_12053" data-name="Path 12053" d="M250.52,75.375a.875.875,0,0,1-.875-.875,8.76,8.76,0,0,0-8.75-8.75.875.875,0,1,1,0-1.75,10.512,10.512,0,0,1,10.5,10.5A.875.875,0,0,1,250.52,75.375Z" transform="translate(-226.894 -60.5)" fill="#fff"/>
  <path id="Path_12054" data-name="Path 12054" d="M247.02,135.875a.875.875,0,0,1-.875-.875,5.256,5.256,0,0,0-5.25-5.25.875.875,0,0,1,0-1.75,7.008,7.008,0,0,1,7,7A.875.875,0,0,1,247.02,135.875Z" transform="translate(-226.894 -121)" fill="#fff"/>
  <path id="Path_12055" data-name="Path 12055" d="M27.308,19.247,20.9,17.873a.874.874,0,0,0-.8.237L17.75,20.457A23.032,23.032,0,0,1,7.543,10.25L9.89,7.9a.874.874,0,0,0,.237-.8L8.754.692A.875.875,0,0,0,7.9,0,7.8,7.8,0,0,0,4.165.932,7.941,7.941,0,0,0,.083,6.746a7.742,7.742,0,0,0,.395,3.807A28.542,28.542,0,0,0,7.084,20.916a28.542,28.542,0,0,0,10.363,6.606,7.731,7.731,0,0,0,3.807.395,7.941,7.941,0,0,0,5.814-4.082A7.8,7.8,0,0,0,28,20.1.875.875,0,0,0,27.308,19.247ZM4.464,2.826l-.081.021A6.013,6.013,0,0,1,6.944,1.822a.273.273,0,0,1,.308.214L8.285,6.856a.273.273,0,0,1-.074.251l-.552.552A.273.273,0,0,1,7.2,7.523L6.459,4.076a1.642,1.642,0,0,0-1.995-1.25Zm12.552,19.6a1.644,1.644,0,0,1-1.94.283,23.9,23.9,0,0,1-9.788-9.788,1.644,1.644,0,0,1,.283-1.94h0a.26.26,0,0,1,.416.066A24.778,24.778,0,0,0,16.95,22.013a.26.26,0,0,1,.066.416Zm8.138,1.189c.009-.031.016-.062.024-.094a1.639,1.639,0,0,0-1.253-1.982L20.477,20.8a.273.273,0,0,1-.136-.461l.552-.552a.273.273,0,0,1,.251-.074l4.821,1.033a.273.273,0,0,1,.214.308A6.014,6.014,0,0,1,25.154,23.618Z" transform="translate(0 0)" fill="#fff"/>
</svg>
