<svg xmlns="http://www.w3.org/2000/svg" xmlns:xlink="http://www.w3.org/1999/xlink" width="128.467" height="128.008" viewBox="0 0 128.467 128.008">
  <defs>
    <linearGradient id="linear-gradient" x1="0.5" x2="0.5" y2="1" gradientUnits="objectBoundingBox">
      <stop offset="0" stop-color="#fff"/>
      <stop offset="1" stop-color="#0064d8"/>
    </linearGradient>
    <linearGradient id="linear-gradient-2" x1="0.5" x2="0.5" y2="1" gradientUnits="objectBoundingBox">
      <stop offset="0" stop-color="#0064d8"/>
      <stop offset="1" stop-color="#75b5ff"/>
    </linearGradient>
  </defs>
  <g id="run" transform="translate(0 0)">
    <path id="Path_49" data-name="Path 49" d="M69.2,0l38,83.2S85.975,99.244,69.575,105.244,41.6,107.2,41.6,107.2L0,0Z" transform="matrix(0.998, 0.07, -0.07, 0.998, 17.67, 12.262)" opacity="0.1" fill="url(#linear-gradient)"/>
    <g id="_001-speed" data-name="001-speed" transform="translate(0 0)">
      <path id="Path_1" data-name="Path 1" d="M123.739,154.32a5.7,5.7,0,0,0-7.734.871l-11.968,13.438a1.829,1.829,0,0,1-2.584.15l-10.936-9.74-6.835-6.087a1.831,1.831,0,0,0-2.585.151l-6.087,6.833L24.084,217.118a5.7,5.7,0,0,0,.027,7.783,5.492,5.492,0,0,0,7.97-.238l49.912-56.054a1.832,1.832,0,0,1,2.585-.15l10.936,9.74,2.735,2.435a7.322,7.322,0,0,0,10.337-.6l2.435-2.732,13.392-15.038a5.492,5.492,0,0,0-.674-7.944Zm0,0" transform="translate(-17.804 -120.324)" fill="url(#linear-gradient-2)"/>
      <path id="Path_2" data-name="Path 2" d="M109.14,61.053a1.83,1.83,0,0,0-.15-2.585L95.322,46.3,92.586,43.86a7.323,7.323,0,0,0-10.337.6l-2.434,2.735L66.423,62.228a5.492,5.492,0,0,0,.673,7.945A5.7,5.7,0,0,0,74.83,69.3L86.8,55.864a1.83,1.83,0,0,1,2.585-.15l12.3,10.957a1.83,1.83,0,0,0,2.585-.15Zm0,0" transform="translate(-51.314 -33.145)" fill="#1c2848"/>
      <path id="Path_3" data-name="Path 3" d="M272.866,290.56a1.83,1.83,0,0,1,2.585-.15l13.671,12.174,2.733,2.435a7.323,7.323,0,0,1,.6,10.339l-2.425,2.732-13.4,15.034a5.492,5.492,0,0,1-7.968.247,5.7,5.7,0,0,1-.027-7.783L280.6,312.15a1.83,1.83,0,0,0-.148-2.585l-12.3-10.956a1.829,1.829,0,0,1-.15-2.584Zm0,0" transform="translate(-210.766 -228.785)" fill="#1c2848"/>
      <path id="Path_4" data-name="Path 4" d="M341.695,14.645A14.644,14.644,0,1,1,327.051,0a14.644,14.644,0,0,1,14.644,14.645Zm0,0" transform="translate(-246.508 0)" fill="#ffd8b6"/>
      <g id="Group_64" data-name="Group 64" transform="translate(0 45.763)">
        <path id="Path_5" data-name="Path 5" d="M16.475,220.61H1.831a1.83,1.83,0,1,1,0-3.661H16.475a1.83,1.83,0,1,1,0,3.661Zm0,0" transform="translate(0 -216.95)" fill="#0064d8" opacity="0.53"/>
        <path id="Path_6" data-name="Path 6" d="M51.186,255.321H36.542a1.83,1.83,0,1,1,0-3.661H51.186a1.83,1.83,0,1,1,0,3.661Zm0,0" transform="translate(-27.389 -244.339)" fill="#0064d8" opacity="0.53"/>
      </g>
    </g>
    <g id="Group_85" data-name="Group 85" transform="translate(105.5 53)">
      <path id="Polygon_1" data-name="Polygon 1" d="M10.607,1.592a1,1,0,0,1,1.752,0L15.42,7.153a1,1,0,0,0,.394.394l5.561,3.061a1,1,0,0,1,0,1.752L15.814,15.42a1,1,0,0,0-.394.394l-3.061,5.561a1,1,0,0,1-1.752,0L7.547,15.814a1,1,0,0,0-.394-.394L1.592,12.359a1,1,0,0,1,0-1.752L7.153,7.547a1,1,0,0,0,.394-.394Z" fill="#ffd73b"/>
      <path id="Polygon_2" data-name="Polygon 2" d="M5.051,1.592a1,1,0,0,1,1.752,0L7.891,3.569a1,1,0,0,0,.394.394l1.977,1.088a1,1,0,0,1,0,1.752L8.285,7.891a1,1,0,0,0-.394.394L6.8,10.262a1,1,0,0,1-1.752,0L3.963,8.285a1,1,0,0,0-.394-.394L1.592,6.8a1,1,0,0,1,0-1.752L3.569,3.963a1,1,0,0,0,.394-.394Z" transform="translate(5.927 5.927)" fill="#ebbb00"/>
    </g>
    <g id="Group_86" data-name="Group 86" transform="translate(26.5 98)">
      <path id="Polygon_1-2" data-name="Polygon 1" d="M5.024,1.592a1,1,0,0,1,1.752,0l1.079,1.96a1,1,0,0,0,.394.394l1.96,1.079a1,1,0,0,1,0,1.752L8.249,7.855a1,1,0,0,0-.394.394l-1.079,1.96a1,1,0,0,1-1.752,0L3.945,8.249a1,1,0,0,0-.394-.394L1.592,6.776a1,1,0,0,1,0-1.752l1.96-1.079a1,1,0,0,0,.394-.394Z" fill="#ffd73b"/>
      <path id="Polygon_2-2" data-name="Polygon 2" d="M2.169,1.592a1,1,0,0,1,1.752,0l.065.118A1,1,0,0,0,4.38,2.1l.118.065a1,1,0,0,1,0,1.752l-.118.065a1,1,0,0,0-.394.394L3.921,4.5a1,1,0,0,1-1.752,0L2.1,4.38a1,1,0,0,0-.394-.394l-.118-.065a1,1,0,0,1,0-1.752L1.71,2.1A1,1,0,0,0,2.1,1.71Z" transform="translate(3.045 3.045)" fill="#ebbb00"/>
    </g>
    <g id="Group_87" data-name="Group 87" transform="translate(50.5 7)">
      <path id="Polygon_1-3" data-name="Polygon 1" d="M5.024,1.592a1,1,0,0,1,1.752,0l1.079,1.96a1,1,0,0,0,.394.394l1.96,1.079a1,1,0,0,1,0,1.752L8.249,7.855a1,1,0,0,0-.394.394l-1.079,1.96a1,1,0,0,1-1.752,0L3.945,8.249a1,1,0,0,0-.394-.394L1.592,6.776a1,1,0,0,1,0-1.752l1.96-1.079a1,1,0,0,0,.394-.394Z" fill="#ffd73b"/>
      <path id="Polygon_2-3" data-name="Polygon 2" d="M2.169,1.592a1,1,0,0,1,1.752,0l.065.118A1,1,0,0,0,4.38,2.1l.118.065a1,1,0,0,1,0,1.752l-.118.065a1,1,0,0,0-.394.394L3.921,4.5a1,1,0,0,1-1.752,0L2.1,4.38a1,1,0,0,0-.394-.394l-.118-.065a1,1,0,0,1,0-1.752L1.71,2.1A1,1,0,0,0,2.1,1.71Z" transform="translate(3.045 3.045)" fill="#ebbb00"/>
    </g>
  </g>
</svg>
