<svg xmlns="http://www.w3.org/2000/svg" width="60" height="56.214" viewBox="0 0 60 56.214">
  <g id="trainer-home" transform="translate(0 -0.09)">
    <path id="Path_28561" data-name="Path 28561" d="M170.354,309.755a3.962,3.962,0,1,1-3.962-3.963A3.962,3.962,0,0,1,170.354,309.755Zm0,0" transform="translate(-141.963 -267.184)" fill="#1c2848"/>
    <path id="Path_28562" data-name="Path 28562" d="M150.039,367.205a.743.743,0,0,0-.609.293,3.111,3.111,0,0,1-4.983,0,.744.744,0,0,0-.609-.295,3.642,3.642,0,0,0-3.666,3.611v5.665a.716.716,0,0,0,.781.678h11.97a.672.672,0,0,0,.73-.678v-5.665a3.6,3.6,0,0,0-3.613-3.611Zm0,0" transform="translate(-122.51 -320.858)" fill="#1c2848"/>
    <path id="Path_28563" data-name="Path 28563" d="M285.034,309.755a3.962,3.962,0,1,1-3.963-3.963A3.963,3.963,0,0,1,285.034,309.755Zm0,0" transform="translate(-242.193 -267.184)" fill="#1c2848"/>
    <path id="Path_28564" data-name="Path 28564" d="M255.172,370.816v5.665a.681.681,0,0,0,.741.678h11.97a.706.706,0,0,0,.77-.678v-5.665A3.632,3.632,0,0,0,265,367.205a.743.743,0,0,0-.609.293,3.111,3.111,0,0,1-4.983,0,.742.742,0,0,0-.609-.295,3.606,3.606,0,0,0-3.626,3.611Zm0,0" transform="translate(-223.02 -320.858)" fill="#1c2848"/>
    <path id="Path_28565" data-name="Path 28565" d="M399.71,309.755a3.962,3.962,0,1,1-3.962-3.963A3.962,3.962,0,0,1,399.71,309.755Zm0,0" transform="translate(-342.42 -267.184)" fill="#1c2848"/>
    <path id="Path_28566" data-name="Path 28566" d="M379.085,367.205a.743.743,0,0,0-.609.293,3.057,3.057,0,0,1-.661.653,3.093,3.093,0,0,1-4.322-.649.746.746,0,0,0-.609-.3,3.68,3.68,0,0,0-3.711,3.611v5.665a.758.758,0,0,0,.826.678h11.97a.636.636,0,0,0,.686-.678v-5.665a3.56,3.56,0,0,0-3.569-3.611Zm0,0" transform="translate(-322.656 -320.858)" fill="#1c2848"/>
    <path id="Path_28567" data-name="Path 28567" d="M50.511,8.422a3.345,3.345,0,0,0,3.339-3.35V3.429a3.339,3.339,0,1,0-6.678,0V5.072A3.344,3.344,0,0,0,50.511,8.422Zm0,0" transform="translate(-41.228)" fill="#1c2848"/>
    <path id="Path_28568" data-name="Path 28568" d="M45.821,243.044l.654-21.837h-9.6l.66,21.842a1.706,1.706,0,0,0,3.41-.041V224.457a.756.756,0,0,1,1.512,0v18.551a1.684,1.684,0,1,0,3.368.036Zm0,0" transform="translate(-32.225 -193.256)" fill="#1c2848"/>
    <path id="Path_28569" data-name="Path 28569" d="M.022,96.183v12.622a1.4,1.4,0,0,0,.439,1.023,1.453,1.453,0,0,0,1.064.4h.02a1.475,1.475,0,0,0,1.5-1.483v-8.386a.756.756,0,1,1,1.512,0v5.1c0,.038.005.051.006.09l.036,1.4h9.694l-.034-.916v-5.677a.756.756,0,0,1,1.512,0v5.1c0,.053.014.107.012.162l-.012.439v2.75a1.512,1.512,0,1,0,3.024,0V96.183c0-.025.032-.05.034-.076a3.512,3.512,0,0,0-3.109-3.864,3.357,3.357,0,0,0-.351-.036H13.506L9.953,95.559c-.015.014-.031.035-.047.047a.719.719,0,0,1-.061.05,1.359,1.359,0,0,1-.131.071c-.024.008-.048.016-.072.023a.657.657,0,0,1-.068.018.638.638,0,0,1-.074.008.676.676,0,0,1-.07,0,1.594,1.594,0,0,1-.144-.015c-.024,0-.048-.013-.071-.02s-.046-.013-.068-.023a.739.739,0,0,1-.068-.035c-.021-.011-.042-.023-.063-.036s-.042-.033-.062-.051-.031-.038-.045-.051L5.491,92.207H3.5A3.524,3.524,0,0,0,0,95.735c0,.118,0,.248.014.366,0,.025.007.057.007.082Zm0,0" transform="translate(0 -80.511)" fill="#1c2848"/>
    <path id="Path_28570" data-name="Path 28570" d="M262.228,213.473a.748.748,0,0,1,.106-.1l-.045.036-7.346,6.545a.756.756,0,1,0,1.006,1.129l6.844-6.1-.5-.448a.756.756,0,0,1-.061-1.067Zm0,0" transform="translate(-222.595 -186.411)" fill="#0064d8"/>
    <path id="Path_28571" data-name="Path 28571" d="M326.366,221.506a.756.756,0,0,0,.5-1.32l-7.346-6.546,0,0a.769.769,0,0,1,.066.065.756.756,0,0,1-.062,1.067l-.5.448,6.844,6.1A.752.752,0,0,0,326.366,221.506Zm0,0" transform="translate(-278.822 -186.64)" fill="#0064d8"/>
    <path id="Path_28572" data-name="Path 28572" d="M230.782,67.376V49.207h-29.61V67.376a1.893,1.893,0,0,0,1.937,1.865h25.825a1.819,1.819,0,0,0,1.849-1.865ZM205.351,54.625h16.254a.756.756,0,1,1,0,1.512H205.351a.756.756,0,0,1,0-1.512Zm21.42,8.442h-21.42a.756.756,0,1,1,0-1.512h21.42a.756.756,0,1,1,0,1.512Zm0-3.4h-21.42a.756.756,0,1,1,0-1.512h21.42a.756.756,0,1,1,0,1.512Zm0,0" transform="translate(-175.824 -42.928)" fill="#0064d8"/>
    <path id="Path_28573" data-name="Path 28573" d="M183.172,1.207h34.272V5.743H183.172Zm0,0" transform="translate(-160.092 -0.976)" fill="#0064d8"/>
  </g>
</svg>
