<svg xmlns="http://www.w3.org/2000/svg" width="22.786" height="23.522" viewBox="0 0 22.786 23.522">
  <path id="twitter" d="M22.786,50.785a8.182,8.182,0,0,1-2.691.938,5.863,5.863,0,0,0,2.055-3.28,8.249,8.249,0,0,1-2.963,1.436A4.291,4.291,0,0,0,15.775,48c-2.584,0-4.668,2.667-4.668,5.936a7.711,7.711,0,0,0,.108,1.353c-3.883-.241-7.321-2.605-9.629-6.209a7.251,7.251,0,0,0-.638,3,6.494,6.494,0,0,0,2.075,4.933,3.892,3.892,0,0,1-2.11-.731v.066c0,2.884,1.615,5.275,3.742,5.832a3.732,3.732,0,0,1-1.225.2,3.281,3.281,0,0,1-.884-.1c.605,2.35,2.323,4.078,4.365,4.134a8.215,8.215,0,0,1-5.792,2.531A6.913,6.913,0,0,1,0,68.858a11.222,11.222,0,0,0,7.167,2.663c8.6,0,13.3-9.043,13.3-16.889,0-.263-.008-.516-.017-.768A11.089,11.089,0,0,0,22.786,50.785Z" transform="translate(0 -48)" fill="#fff"/>
</svg>
