<svg id="instagram" xmlns="http://www.w3.org/2000/svg" width="22.874" height="23.522" viewBox="0 0 22.874 23.522">
  <path id="Path_2784" data-name="Path 2784" d="M15.726,0H7.148A7.253,7.253,0,0,0,0,7.352V16.17a7.253,7.253,0,0,0,7.148,7.352h8.577a7.253,7.253,0,0,0,7.148-7.352V7.352A7.253,7.253,0,0,0,15.726,0Zm5.007,16.174a5.083,5.083,0,0,1-5.007,5.147H7.148A5.083,5.083,0,0,1,2.14,16.174V7.357A5.083,5.083,0,0,1,7.148,2.21h8.577a5.083,5.083,0,0,1,5.007,5.147Z" transform="translate(0.001 0)" fill="#fff"/>
  <path id="Path_2785" data-name="Path 2785" d="M133.878,128a5.878,5.878,0,1,0,5.878,5.878A5.878,5.878,0,0,0,133.878,128Zm0,9.558a3.676,3.676,0,1,1,3.676-3.676,3.676,3.676,0,0,1-3.676,3.676Z" transform="translate(-122.444 -122.118)" fill="#fff"/>
  <circle id="Ellipse_3" data-name="Ellipse 3" cx="0.784" cy="0.784" r="0.784" transform="translate(16.788 4.657)" fill="#fff"/>
</svg>
