<svg xmlns="http://www.w3.org/2000/svg" width="20.793" height="20.795" viewBox="0 0 20.793 20.795">
  <g id="call-us" transform="translate(0.002)">
    <path id="Path_119" data-name="Path 119" d="M12.288,15.528a16.9,16.9,0,0,1-4.006-3.015A16.829,16.829,0,0,1,5.267,8.5L6.341,5.624,2.723,0,1.529,1.194h0c-.007.008-.017.014-.027.024-3,3-1.382,9.156,3.769,14.31s11.3,6.766,14.306,3.763l.023-.028,1.194-1.192-5.623-3.62Z" transform="translate(-0.002)" fill="#fff"/>
    <path id="Path_120" data-name="Path 120" d="M19.634,10.823H21.3A10.836,10.836,0,0,0,10.477,0V1.664a9.172,9.172,0,0,1,9.157,9.159Z" transform="translate(-0.511)" fill="#fff"/>
    <path id="Path_121" data-name="Path 121" d="M16.3,10.993h1.664A7.5,7.5,0,0,0,10.476,3.5V5.164A5.835,5.835,0,0,1,16.3,10.993Z" transform="translate(-0.51 -0.17)" fill="#fff"/>
    <path id="Path_122" data-name="Path 122" d="M12.973,11.159h1.664A4.167,4.167,0,0,0,10.478,7V8.664A2.494,2.494,0,0,1,12.973,11.159Z" transform="translate(-0.511 -0.34)" fill="#fff"/>
  </g>
</svg>
