<svg xmlns="http://www.w3.org/2000/svg" width="16.807" height="16.809" viewBox="0 0 16.807 16.809">
  <g id="course" transform="translate(-0.038)">
    <g id="Group_7822" data-name="Group 7822" transform="translate(13.924 5.88)">
      <g id="Group_7821" data-name="Group 7821">
        <path id="Path_12039" data-name="Path 12039" d="M425.411,179.444a1.478,1.478,0,0,0-2.08.18l-.319.378,2.263,1.9.3-.376A1.474,1.474,0,0,0,425.411,179.444Z" transform="translate(-423.012 -179.099)" fill="silver"/>
      </g>
    </g>
    <g id="Group_7824" data-name="Group 7824" transform="translate(8.987 11.508)">
      <g id="Group_7823" data-name="Group 7823">
        <path id="Path_12040" data-name="Path 12040" d="M273.562,350.534l-.168.2a1.489,1.489,0,0,0-.3.606l-.458,1.916a.493.493,0,0,0,.675.567l1.808-.784a1.489,1.489,0,0,0,.543-.4l.169-.2Z" transform="translate(-272.617 -350.534)" fill="silver"/>
      </g>
    </g>
    <g id="Group_7826" data-name="Group 7826" transform="translate(10.567 7.535)">
      <g id="Group_7825" data-name="Group 7825">
        <path id="Path_12041" data-name="Path 12041" d="M323.455,229.517l-2.722,3.221,2.264,1.9,2.722-3.221Z" transform="translate(-320.733 -229.517)" fill="silver"/>
      </g>
    </g>
    <g id="Group_7828" data-name="Group 7828" transform="translate(9.887 0.075)">
      <g id="Group_7827" data-name="Group 7827">
        <path id="Path_12042" data-name="Path 12042" d="M302.534,4.4l-1.871-1.777a1.453,1.453,0,0,0-.624-.331V5.173h2.924A1.484,1.484,0,0,0,302.534,4.4Z" transform="translate(-300.039 -2.294)" fill="silver"/>
      </g>
    </g>
    <g id="Group_7830" data-name="Group 7830" transform="translate(0.038)">
      <g id="Group_7829" data-name="Group 7829" transform="translate(0)">
        <path id="Path_12043" data-name="Path 12043" d="M8.5,12.085a2.482,2.482,0,0,1,.507-1.008l3.835-4.538V3.94H9.395A.492.492,0,0,1,8.9,3.447V0H1.515A1.479,1.479,0,0,0,.038,1.477V15.332a1.479,1.479,0,0,0,1.477,1.477h9.849a1.479,1.479,0,0,0,1.477-1.477V14.168l-.064.076a2.473,2.473,0,0,1-.9.672l-1.809.784A1.478,1.478,0,0,1,8.042,14Zm-6-9.13H7.425a.492.492,0,1,1,0,.985H2.5a.492.492,0,1,1,0-.985Zm0,2.988H10.38a.492.492,0,0,1,0,.985H2.5a.492.492,0,1,1,0-.985Zm3.94,6.894H2.5a.492.492,0,1,1,0-.985H6.44a.492.492,0,0,1,0,.985ZM2.5,9.882a.492.492,0,1,1,0-.985H8.41a.492.492,0,0,1,0,.985Z" transform="translate(-0.038)" fill="silver"/>
      </g>
    </g>
  </g>
</svg>
