<svg id="blog-quotes" xmlns="http://www.w3.org/2000/svg" width="63.388" height="50.086" viewBox="0 0 63.388 50.086">
  <path id="Path_28293" data-name="Path 28293" d="M0,48.86H15.374C15.112,60.851,11.934,62.213,7.942,62.6l-1.539.2V75.991l1.774-.1c5.212-.314,10.975-1.319,14.819-6.4,3.37-4.453,4.856-11.727,4.856-22.894V25.905H0Z" transform="translate(0 -25.905)" fill="silver"/>
  <path id="Path_28294" data-name="Path 28294" d="M111,25.905V48.86h15.169c-.263,11.991-3.338,13.353-7.33,13.741l-1.437.2V75.991l1.672-.1c5.212-.314,11.026-1.319,14.871-6.4,3.37-4.453,4.907-11.727,4.907-22.894V25.905Z" transform="translate(-75.464 -25.905)" fill="silver"/>
</svg>
