<svg id="blue-quotes" xmlns="http://www.w3.org/2000/svg" width="24.251" height="15.76" viewBox="0 0 24.251 15.76">
  <path id="Path_28123" data-name="Path 28123" d="M10.656,33.128H4.774c.1,3.773,1.316,4.2,2.844,4.324l.589.064v4.149l-.679-.032c-1.994-.1-4.2-.415-5.67-2.013C.568,38.218,0,35.929,0,32.416V25.905H10.656Z" transform="translate(13.596 -25.905)" fill="#0064d8"/>
  <path id="Path_28124" data-name="Path 28124" d="M121.656,25.905v7.223h-5.8c.1,3.773,1.277,4.2,2.8,4.324l.55.064v4.149l-.64-.032c-1.994-.1-4.219-.415-5.689-2.013-1.289-1.4-1.877-3.69-1.877-7.2V25.905Z" transform="translate(-111 -25.905)" fill="#0064d8"/>
</svg>
