<svg xmlns="http://www.w3.org/2000/svg" width="56" height="56" viewBox="0 0 56 56">
  <g id="find" transform="translate(-381.847 -127)">
    <rect id="Rectangle_1104" data-name="Rectangle 1104" width="56" height="56" transform="translate(381.847 127)" fill="#0064d8"/>
    <g id="surface1" transform="translate(400.228 144.581)">
      <path id="Path_31" data-name="Path 31" d="M13.88,12.8A8.484,8.484,0,0,0,12.073,1.492,7.27,7.27,0,0,0,1.5,3.427,8.483,8.483,0,0,0,3.311,14.737a7.17,7.17,0,0,0,8.237.364l5.59,5.947a1.514,1.514,0,0,0,2.243.061,1.783,1.783,0,0,0,.058-2.4c-.019-.022-.038-.042-.058-.062Zm-6.193.554A5.071,5.071,0,0,1,2.8,8.127,5.07,5.07,0,0,1,7.684,2.893a5.069,5.069,0,0,1,4.891,5.223,5.073,5.073,0,0,1-4.884,5.243Zm0,0" transform="translate(-0.109 0)" fill="#fff"/>
    </g>
  </g>
</svg>
