<svg xmlns="http://www.w3.org/2000/svg" width="35.821" height="35.822" viewBox="0 0 35.821 35.822">
  <g id="about-call" transform="translate(-1275.605 -2947.11)">
    <g id="telephone-call" transform="translate(1275.605 2947.11)">
      <path id="Path_9138" data-name="Path 9138" d="M.986,15.2a12.512,12.512,0,0,1-.953-5.31A4.339,4.339,0,0,1,1.386,6.969C2.3,6.11,3.154,5.208,4.048,4.335a2.519,2.519,0,0,1,3.79,0c.72.706,1.433,1.426,2.146,2.146.691.691,1.389,1.382,2.08,2.08a2.526,2.526,0,0,1,.007,3.884c-.873.873-1.739,1.753-2.626,2.611a.534.534,0,0,0-.131.7,15.6,15.6,0,0,0,2.371,3.8,27.245,27.245,0,0,0,6.627,6.03c.553.342,1.157.6,1.731.909a.53.53,0,0,0,.735-.138c.866-.895,1.753-1.775,2.641-2.655a2.5,2.5,0,0,1,3.783,0q2.139,2.117,4.255,4.255a2.529,2.529,0,0,1-.015,3.855c-.807.815-1.659,1.586-2.415,2.437a4.794,4.794,0,0,1-4.088,1.557,16.985,16.985,0,0,1-6.5-1.891A35.387,35.387,0,0,1,6.7,24.74,32.349,32.349,0,0,1,.986,15.2Zm34.843,2.6A17.823,17.823,0,0,0,18.029,0V3.39A14.43,14.43,0,0,1,32.439,17.8Zm-9.747,0h3.39A11.459,11.459,0,0,0,18.029,6.358v3.39A8.047,8.047,0,0,1,26.082,17.8Z" transform="translate(-0.008)" fill="#fff"/>
    </g>
  </g>
</svg>
