<svg xmlns="http://www.w3.org/2000/svg" width="36.187" height="26.544" viewBox="0 0 36.187 26.544">
  <path id="about-mail" d="M3.094,0h30a3.1,3.1,0,0,1,3.081,2.818L20.1,16.451a3.083,3.083,0,0,1-4,0L.012,2.831A3.1,3.1,0,0,1,3.094,0Zm0,26.544A3.076,3.076,0,0,1,1.22,25.91l8.972-9.177a.656.656,0,1,0-.939-.917L.365,24.907A3.078,3.078,0,0,1,0,23.45V4.54L15.251,17.454a4.392,4.392,0,0,0,5.7,0L36.187,4.528V23.45a3.071,3.071,0,0,1-.368,1.462l-8.941-9.1a.656.656,0,0,0-.936.92l9.021,9.179a3.076,3.076,0,0,1-1.869.631Zm0,0" transform="translate(0)" fill="#fff"/>
</svg>
