<svg xmlns="http://www.w3.org/2000/svg" width="26.724" height="40" viewBox="0 0 26.724 40">
  <g id="about-address" transform="translate(0)">
    <path id="Path_9139" data-name="Path 9139" d="M107.075,86.923a5.922,5.922,0,1,0-5.923,5.922A5.929,5.929,0,0,0,107.075,86.923Zm0,0" transform="translate(-87.791 -74.672)" fill="#fff"/>
    <path id="Path_9140" data-name="Path 9140" d="M26.48,32.969c.918-1.2,6.3-8.589,8.109-11.06,2.154-2.938,4.142-5.886,4.142-9.658A12.251,12.251,0,0,0,26.48,0h0A12.249,12.249,0,0,0,14.23,12.25c0,3.773,1.987,6.721,4.141,9.658l8.109,11.06ZM18.215,12.251a8.266,8.266,0,1,1,8.266,8.266A8.276,8.276,0,0,1,18.215,12.251Zm0,0" transform="translate(-13.119)" fill="#fff"/>
    <path id="Path_9141" data-name="Path 9141" d="M17.861,394.2c-.243.331-4.542,6.077-4.542,6.077L8.864,394.2H3.47L0,403.406H26.724l-3.47-9.2Zm0,0" transform="translate(0 -363.406)" fill="#fff"/>
  </g>
</svg>
