<svg xmlns="http://www.w3.org/2000/svg" width="69" height="66.305" viewBox="0 0 69 66.305">
  <g id="skills-team" transform="translate(0 -10.001)">
    <g id="Group_7446" data-name="Group 7446" transform="translate(42.123 60.017)">
      <path id="Path_28419" data-name="Path 28419" d="M338.432,392.817v-5.938c0-3.158-2.048-3.807-4.657-5.373l-3.946,2.555c-.734.428-.9.825-1.452.122l-.68-.722-2.2-2.329-2.2,2.337-.676.714c-.546.7-.714.306-1.448-.122l-3.946-2.555c-2.609,1.566-4.657,2.215-4.657,5.373v5.938c0,.729.336.638.894.638h24.078C338.1,393.454,338.432,393.546,338.432,392.817Zm-14.482-6.77-2.12,4.594Z" transform="translate(-312.566 -381.132)" fill="#f9f7f7" fill-rule="evenodd"/>
    </g>
    <g id="Group_7447" data-name="Group 7447" transform="translate(51.366 64.061)">
      <path id="Path_28420" data-name="Path 28420" d="M388.5,416.6l-2.12-4.594-1.543-.871-1.547.871-2.12,4.594c-.019.046-.034.046,0,.084l1.6,2.73H386.9l1.608-2.73C388.532,416.648,388.517,416.648,388.5,416.6Z" transform="translate(-381.15 -411.138)" fill="#0064d8" fill-rule="evenodd"/>
    </g>
    <g id="Group_7448" data-name="Group 7448" transform="translate(52.541 60.017)">
      <path id="Path_28421" data-name="Path 28421" d="M393.924,386.046l.657-2.585.336-1.279-2.537-1.05-1.192.558-1.322.615.309,1.165.657,2.578h3.091Z" transform="translate(-389.867 -381.132)" fill="#0064d8" fill-rule="evenodd"/>
    </g>
    <g id="Group_7449" data-name="Group 7449" transform="translate(46.78 58.123)">
      <path id="Path_28422" data-name="Path 28422" d="M353.19,371.309l2.2-2.337-1.517-1.466-2.972-.428-3.786,2.268,3.946,2.555c.734.428.9.825,1.448.122Z" transform="translate(-347.12 -367.078)" fill="#f5f5f5" fill-rule="evenodd"/>
    </g>
    <g id="Group_7450" data-name="Group 7450" transform="translate(55.055 58.123)">
      <path id="Path_28423" data-name="Path 28423" d="M412.851,371.9l3.946-2.555-3.786-2.268-2.292.153-2.2,1.741,2.2,2.329.68.722C411.949,372.726,412.118,372.329,412.851,371.9Z" transform="translate(-408.519 -367.078)" fill="#f5f5f5" fill-rule="evenodd"/>
    </g>
    <g id="Group_7451" data-name="Group 7451" transform="translate(47.234 43.124)">
      <path id="Path_28424" data-name="Path 28424" d="M362.8,270.778a9.478,9.478,0,0,0,3.19-4.892,5.227,5.227,0,0,0,.141-1.172v-5.186H364.7c-3.045,0-3.679-3.75-7.4-3.75h-1.811c-2.85,0-.68,4.323-3.958,4.323h-1.031v4.613a5.231,5.231,0,0,0,.141,1.172,9.48,9.48,0,0,0,3.19,4.892,8.814,8.814,0,0,0,2.533,1.5,5.025,5.025,0,0,0,3.916,0A8.814,8.814,0,0,0,362.8,270.778Z" transform="translate(-350.492 -255.779)" fill="#ffe5c1" fill-rule="evenodd"/>
    </g>
    <g id="Group_7452" data-name="Group 7452" transform="translate(47.23 38.874)">
      <path id="Path_28425" data-name="Path 28425" d="M366.108,230.738c0-3.654-3.751-6.14-7.224-6.5h-1.646a4.646,4.646,0,0,0-3.27,1.653c-3.778.332-3.5,5.361-3.5,6.022v3.1H351.5c3.278,0,1.108-4.323,3.958-4.323h1.811c3.725,0,4.359,3.75,7.4,3.75h1.44v-3.712Z" transform="translate(-350.46 -224.243)" fill="#f5f5f5" fill-rule="evenodd"/>
    </g>
    <g id="Group_7453" data-name="Group 7453" transform="translate(54.012 38.874)">
      <path id="Path_28426" data-name="Path 28426" d="M409.647,232.243v-1.5c0-3.654-3.751-6.14-7.224-6.5H400.78c3.385.462,6.926,2.91,6.926,6.461v3.712a3.509,3.509,0,0,0,.5.034h1.44v-2.207Z" transform="translate(-400.78 -224.243)" fill="#f5f5f5" fill-rule="evenodd"/>
    </g>
    <g id="Group_7454" data-name="Group 7454" transform="translate(50.593 45.331)">
      <path id="Path_28427" data-name="Path 28427" d="M387.7,278.884v-2.978h-1.44a3.505,3.505,0,0,1-.5-.034c-2.628-.382-3.392-3.715-6.9-3.715h-1.811a1.541,1.541,0,0,0-1.631,1.336h2.074c3.507,0,4.275,3.708,6.9,4.09l1.146.023c.229,0,.225.084.225.3v.939a5.23,5.23,0,0,1-.141,1.172,9.482,9.482,0,0,1-3.19,4.892c-.073.061-.153.126-.229.187a10.27,10.27,0,0,1-.9.626,8.2,8.2,0,0,1-1.4.684c-.118.046-.233.088-.348.122a5.409,5.409,0,0,1-.737.191,4.72,4.72,0,0,0,1.066.126,5.465,5.465,0,0,0,1.96-.4,8.811,8.811,0,0,0,2.533-1.5,9.478,9.478,0,0,0,3.19-4.892A5.217,5.217,0,0,0,387.7,278.884Z" transform="translate(-375.41 -272.156)" fill="#fed1a3" fill-rule="evenodd"/>
    </g>
    <g id="Group_7455" data-name="Group 7455" transform="translate(48.747 58.123)">
      <path id="Path_28428" data-name="Path 28428" d="M366.236,370.87l1.788-1.9a4.721,4.721,0,0,1-1.066-.126,6.5,6.5,0,0,1-.89-.271,8.812,8.812,0,0,1-2.533-1.5l-1.818,1.088c.214.206.436.4.665.592a10.984,10.984,0,0,0,3.182,1.886l.088.031Q365.95,370.784,366.236,370.87Z" transform="translate(-361.717 -367.078)" fill="#f5f5f5" fill-rule="evenodd"/>
    </g>
    <g id="Group_7456" data-name="Group 7456" transform="translate(55.054 58.123)">
      <path id="Path_28429" data-name="Path 28429" d="M410.982,370.645a10.991,10.991,0,0,0,3.182-1.886c.229-.187.451-.386.665-.592l-1.818-1.088a8.813,8.813,0,0,1-2.533,1.5,5.469,5.469,0,0,1-1.96.4l1.792,1.9c.187-.057.378-.118.573-.191l.1-.034Z" transform="translate(-408.518 -367.079)" fill="#f5f5f5" fill-rule="evenodd"/>
    </g>
    <g id="Group_7457" data-name="Group 7457" transform="translate(54.107 60.017)">
      <path id="Path_28430" data-name="Path 28430" d="M404.227,383.03l-1.792-1.9-.947,1.008,1.016,1.34.313.4c.1.118.069.137.031.286l-.3,1.184-.111.7h1.543l.657-2.585Z" transform="translate(-401.488 -381.132)" fill="#0064d8" fill-rule="evenodd"/>
    </g>
    <g id="Group_7458" data-name="Group 7458" transform="translate(55.055 64.932)">
      <path id="Path_28431" data-name="Path 28431" d="M412.183,422.192l-2.12-4.594h-1.543l1.6,4.594c.019.046.034.046,0,.084l-1.608,2.73h2.059l1.608-2.73C412.213,422.238,412.2,422.238,412.183,422.192Z" transform="translate(-408.519 -417.598)" fill="#0064d8" fill-rule="evenodd"/>
    </g>
    <g id="Group_7459" data-name="Group 7459" transform="translate(60.899 60.391)">
      <path id="Path_28432" data-name="Path 28432" d="M458.979,389.282c0-3.158-2.048-3.807-4.657-5.373l-2.434,1.573c2.258,1.291,3.935,2.093,3.935,4.949v5.426h2.262c.558,0,.894.092.894-.638Z" transform="translate(-451.889 -383.909)" fill="#f5f5f5" fill-rule="evenodd"/>
    </g>
    <g id="Group_7460" data-name="Group 7460" transform="translate(1.011 60.017)">
      <path id="Path_28433" data-name="Path 28433" d="M33.362,392.817v-5.938c0-3.158-2.044-3.807-4.653-5.373l-3.95,2.555c-.73.428-.9.825-1.448.122l-.68-.722-2.2-2.329-2.2,2.337-.676.714c-.55.7-.714.306-1.448-.122l-3.95-2.555c-2.609,1.566-4.653,2.215-4.653,5.373v5.938c0,.729.332.638.894.638H32.468c.562,0,.894.091.894-.638Zm-14.478-6.77-2.12,4.594Z" transform="translate(-7.5 -381.132)" fill="#f5f5f5" fill-rule="evenodd"/>
    </g>
    <g id="Group_7461" data-name="Group 7461" transform="translate(10.253 64.061)">
      <path id="Path_28434" data-name="Path 28434" d="M83.426,416.6l-2.12-4.594-1.54-.871-1.547.871L76.1,416.6c-.019.046-.034.046-.008.084l1.608,2.73h4.126l1.608-2.73C83.46,416.648,83.445,416.648,83.426,416.6Z" transform="translate(-76.076 -411.138)" fill="#0064d8" fill-rule="evenodd"/>
    </g>
    <g id="Group_7462" data-name="Group 7462" transform="translate(11.428 60.017)">
      <path id="Path_28435" data-name="Path 28435" d="M88.854,386.046l.661-2.585.336-1.279-2.537-1.05-1.192.558L84.8,382.3l.309,1.165.657,2.578h3.087Z" transform="translate(-84.801 -381.132)" fill="#0064d8" fill-rule="evenodd"/>
    </g>
    <g id="Group_7463" data-name="Group 7463" transform="translate(5.664 58.123)">
      <path id="Path_28436" data-name="Path 28436" d="M48.1,371.309l2.2-2.337-1.517-1.466-2.976-.428-3.786,2.268,3.95,2.555c.734.428.9.825,1.448.122Z" transform="translate(-42.026 -367.078)" fill="#f5f5f5" fill-rule="evenodd"/>
    </g>
    <g id="Group_7464" data-name="Group 7464" transform="translate(13.942 58.123)">
      <path id="Path_28437" data-name="Path 28437" d="M107.781,371.9l3.95-2.555-3.786-2.268-2.292.153-2.2,1.741,2.2,2.329.68.722C106.883,372.726,107.052,372.329,107.781,371.9Z" transform="translate(-103.453 -367.078)" fill="#f5f5f5" fill-rule="evenodd"/>
    </g>
    <g id="Group_7465" data-name="Group 7465" transform="translate(6.122 43.124)">
      <path id="Path_28438" data-name="Path 28438" d="M57.74,270.778a9.479,9.479,0,0,0,3.19-4.892,5.22,5.22,0,0,0,.137-1.172v-5.186H59.631c-3.045,0-3.683-3.75-7.4-3.75H50.417c-2.85,0-.68,4.323-3.961,4.323H45.428v4.613a5.22,5.22,0,0,0,.137,1.172,9.481,9.481,0,0,0,3.19,4.892,8.813,8.813,0,0,0,2.533,1.5,5.035,5.035,0,0,0,3.92,0A8.813,8.813,0,0,0,57.74,270.778Z" transform="translate(-45.428 -255.779)" fill="#ffe5c1" fill-rule="evenodd"/>
    </g>
    <g id="Group_7466" data-name="Group 7466" transform="translate(6.118 38.874)">
      <path id="Path_28439" data-name="Path 28439" d="M61.038,230.738c0-3.654-3.751-6.14-7.224-6.5H52.168A4.646,4.646,0,0,0,48.9,225.9c-3.778.332-3.5,5.361-3.5,6.022v3.1h1.028c3.282,0,1.112-4.323,3.961-4.323H52.2c3.721,0,4.359,3.75,7.4,3.75h1.436v-3.712Z" transform="translate(-45.394 -224.243)" fill="#f5f5f5" fill-rule="evenodd"/>
    </g>
    <g id="Group_7467" data-name="Group 7467" transform="translate(12.899 38.874)">
      <path id="Path_28440" data-name="Path 28440" d="M104.577,232.243v-1.5c0-3.654-3.751-6.14-7.224-6.5H95.714c3.385.462,6.284,2.558,6.284,6.106v2.929l.638,1.138a3.564,3.564,0,0,0,.5.034h1.436v-2.207Z" transform="translate(-95.714 -224.243)" fill="#595959" fill-rule="evenodd"/>
    </g>
    <g id="Group_7468" data-name="Group 7468" transform="translate(7.631 58.123)">
      <path id="Path_28441" data-name="Path 28441" d="M61.147,370.87l1.788-1.9a4.753,4.753,0,0,1-1.07-.126,6.837,6.837,0,0,1-.89-.271,8.812,8.812,0,0,1-2.533-1.5l-1.818,1.088c.218.206.439.4.665.592a11.057,11.057,0,0,0,3.186,1.886c.027.011.057.019.088.031Q60.861,370.784,61.147,370.87Z" transform="translate(-56.624 -367.078)" fill="#f5f5f5" fill-rule="evenodd"/>
    </g>
    <g id="Group_7469" data-name="Group 7469" transform="translate(13.942 58.123)">
      <path id="Path_28442" data-name="Path 28442" d="M105.912,370.645a11.06,11.06,0,0,0,3.186-1.886c.229-.187.451-.386.665-.592l-1.818-1.088a8.812,8.812,0,0,1-2.533,1.5,5.5,5.5,0,0,1-1.96.4l1.792,1.9c.183-.057.374-.118.573-.191Z" transform="translate(-103.452 -367.079)" fill="#f5f5f5" fill-rule="evenodd"/>
    </g>
    <g id="Group_7470" data-name="Group 7470" transform="translate(12.991 60.017)">
      <path id="Path_28443" data-name="Path 28443" d="M99.138,383.03l-1.792-1.9L96.4,382.14l1.016,1.34.313.4c.1.118.073.137.034.286l-.3,1.184-.111.7h1.54l.661-2.585Z" transform="translate(-96.395 -381.132)" fill="#0064d8" fill-rule="evenodd"/>
    </g>
    <g id="Group_7471" data-name="Group 7471" transform="translate(13.942 64.932)">
      <path id="Path_28444" data-name="Path 28444" d="M107.113,422.192l-2.12-4.594h-1.54l1.6,4.594c.019.046.034.046.008.084l-1.608,2.73h2.059l1.608-2.73C107.147,422.238,107.132,422.238,107.113,422.192Z" transform="translate(-103.453 -417.598)" fill="#0064d8" fill-rule="evenodd"/>
    </g>
    <g id="Group_7472" data-name="Group 7472" transform="translate(19.787 60.391)">
      <path id="Path_28445" data-name="Path 28445" d="M153.909,389.282c0-3.158-2.044-3.807-4.653-5.373l-2.433,1.573c2.254,1.291,3.935,2.093,3.935,4.949v5.426h2.258c.562,0,.894.092.894-.638Z" transform="translate(-146.823 -383.909)" fill="#e2e2e2" fill-rule="evenodd"/>
    </g>
    <g id="Group_7473" data-name="Group 7473" transform="translate(21.377 11.012)">
      <path id="Path_28446" data-name="Path 28446" d="M162.27,21.147a12.457,12.457,0,1,1,0,17.611A12.464,12.464,0,0,1,162.27,21.147Z" transform="translate(-158.622 -17.498)" fill="#0064d8" fill-rule="evenodd"/>
    </g>
    <g id="Group_7474" data-name="Group 7474" transform="translate(31.752 11.012)">
      <path id="Path_28447" data-name="Path 28447" d="M242.328,21.147a12.461,12.461,0,0,1-5.52,20.823q-.6.16-1.2.263A12.459,12.459,0,0,0,250.125,30.7a12.1,12.1,0,0,0,0-1.489,12.457,12.457,0,0,0-9.837-11.437,12.549,12.549,0,0,0-4.684-.1,12.4,12.4,0,0,1,6.723,3.475Z" transform="translate(-235.605 -17.498)" fill="#0064d8" fill-rule="evenodd"/>
    </g>
    <g id="Group_7475" data-name="Group 7475" transform="translate(9.48 45.331)">
      <path id="Path_28448" data-name="Path 28448" d="M80.685,275.872c-2.624-.382-3.392-3.716-6.9-3.716H71.975a1.538,1.538,0,0,0-1.631,1.336h2.074c3.507,0,4.271,3.647,6.9,4.029h.638c.107,0,.092.05.092.153a10,10,0,0,1-.141,2.341c-.008.042-.019.084-.027.126-.592,2.551-1.391,4.2-3.656,5.579a8.029,8.029,0,0,1-1.4.684c-.118.046-.233.088-.348.122a5.317,5.317,0,0,1-.741.191,4.753,4.753,0,0,0,1.07.126,5.5,5.5,0,0,0,1.96-.4,8.813,8.813,0,0,0,2.533-1.5,9.479,9.479,0,0,0,3.19-4.892,5.218,5.218,0,0,0,.137-1.172v-2.978H81.189A3.549,3.549,0,0,1,80.685,275.872Z" transform="translate(-70.344 -272.156)" fill="#fed1a3" fill-rule="evenodd"/>
    </g>
    <g id="Group_7476" data-name="Group 7476" transform="translate(12.899 38.874)">
      <path id="Path_28449" data-name="Path 28449" d="M102,234.255a3.39,3.39,0,0,0,.638.16,3.564,3.564,0,0,0,.5.034h1.436v-3.712c0-3.654-3.751-6.14-7.224-6.5H95.714c3.385.462,6.284,2.558,6.284,6.106Q102,232.3,102,234.255Z" transform="translate(-95.714 -224.243)" fill="#f5f5f5" fill-rule="evenodd"/>
    </g>
    <g id="Group_7477" data-name="Group 7477" transform="translate(21.567 62.969)">
      <path id="Path_28450" data-name="Path 28450" d="M185.9,414.715v-5.938c0-3.154-2.048-3.8-4.657-5.369l-8.278-.374-8.274.374c-2.613,1.566-4.657,2.215-4.657,5.369v5.938c0,.733.336.641.894.641H185C185.563,415.357,185.9,415.448,185.9,414.715Zm-14.482-6.77" transform="translate(-160.033 -403.034)" fill="#0064d8" fill-rule="evenodd"/>
    </g>
    <g id="Group_7478" data-name="Group 7478" transform="translate(30.81 67.009)">
      <path id="Path_28451" data-name="Path 28451" d="M235.965,438.477l-2.116-4.594-1.543-.871-1.547.871-2.12,4.594c-.019.046-.034.05,0,.088l1.6,2.73h4.126l1.608-2.73C236,438.527,235.984,438.523,235.965,438.477Z" transform="translate(-228.617 -433.013)" fill="#fff" fill-rule="evenodd"/>
    </g>
    <g id="Group_7479" data-name="Group 7479" transform="translate(31.985 62.969)">
      <path id="Path_28452" data-name="Path 28452" d="M241.391,407.946l.657-2.581.336-1.279-2.537-1.05-1.192.554-1.322.615.309,1.165.657,2.578h3.091Z" transform="translate(-237.334 -403.035)" fill="#fff" fill-rule="evenodd"/>
    </g>
    <g id="Group_7480" data-name="Group 7480" transform="translate(26.224 61.071)">
      <path id="Path_28453" data-name="Path 28453" d="M200.657,393.182l2.2-2.333-1.517-1.466-2.976-.432-3.782,2.272,3.946,2.555c.734.424.9.825,1.448.118Z" transform="translate(-194.587 -388.951)" fill="#0064d8" fill-rule="evenodd"/>
    </g>
    <g id="Group_7481" data-name="Group 7481" transform="translate(34.498 61.071)">
      <path id="Path_28454" data-name="Path 28454" d="M260.318,393.779l3.946-2.555-3.786-2.272-2.292.153-2.2,1.745,2.2,2.329.68.718C259.417,394.6,259.585,394.2,260.318,393.779Z" transform="translate(-255.986 -388.952)" fill="#0078c8" fill-rule="evenodd"/>
    </g>
    <g id="Group_7482" data-name="Group 7482" transform="translate(26.678 46.072)">
      <path id="Path_28455" data-name="Path 28455" d="M210.272,292.653a9.485,9.485,0,0,0,3.19-4.888,5.28,5.28,0,0,0,.137-1.176V281.4h-1.436c-3.045,0-3.679-3.75-7.4-3.75h-1.811c-2.85,0-.68,4.323-3.958,4.323h-1.032v4.613a5.51,5.51,0,0,0,.137,1.176,9.534,9.534,0,0,0,3.19,4.888,8.915,8.915,0,0,0,2.533,1.5,5.034,5.034,0,0,0,3.92,0A8.91,8.91,0,0,0,210.272,292.653Z" transform="translate(-197.959 -277.654)" fill="#ffe5c1" fill-rule="evenodd"/>
    </g>
    <g id="Group_7483" data-name="Group 7483" transform="translate(26.674 41.822)">
      <path id="Path_28456" data-name="Path 28456" d="M213.57,252.612c0-3.654-3.751-6.14-7.22-6.5H204.7a4.653,4.653,0,0,0-3.27,1.653c-3.782.332-3.5,5.361-3.5,6.022V256.9h1.032c3.278,0,1.108-4.323,3.958-4.323h1.811c3.725,0,4.359,3.75,7.4,3.75h1.436v-3.716Z" transform="translate(-197.926 -246.117)" fill="#f5f5f5" fill-rule="evenodd"/>
    </g>
    <g id="Group_7484" data-name="Group 7484" transform="translate(33.455 41.822)">
      <path id="Path_28457" data-name="Path 28457" d="M257.11,252.612c0-3.654-3.751-6.14-7.22-6.5h-1.643c3.385.462,6.926,2.914,6.926,6.461q-.006,1.856,0,3.712a3,3,0,0,0,.5.038h1.436Q257.11,254.472,257.11,252.612Z" transform="translate(-248.247 -246.117)" fill="#f5f5f5" fill-rule="evenodd"/>
    </g>
    <g id="Group_7485" data-name="Group 7485" transform="translate(30.036 48.283)">
      <path id="Path_28458" data-name="Path 28458" d="M233.222,297.772c-2.628-.382-3.392-3.712-6.9-3.712h-1.811a1.536,1.536,0,0,0-1.631,1.333h2.074c3.507,0,4.271,3.647,6.9,4.029h.642c.1,0,.088.053.088.157a10.222,10.222,0,0,1-.137,2.341c-.011.042-.019.08-.031.122-.592,2.551-1.391,4.2-3.656,5.579a8.053,8.053,0,0,1-1.4.687c-.118.042-.233.084-.348.122a6.625,6.625,0,0,1-.741.191,4.751,4.751,0,0,0,1.07.126,5.566,5.566,0,0,0,1.96-.4,8.915,8.915,0,0,0,2.533-1.5,9.484,9.484,0,0,0,3.19-4.888,5.276,5.276,0,0,0,.137-1.176V297.81h-1.436a3.008,3.008,0,0,1-.5-.038Z" transform="translate(-222.877 -294.06)" fill="#fed1a3" fill-rule="evenodd"/>
    </g>
    <g id="Group_7486" data-name="Group 7486" transform="translate(28.191 61.071)">
      <path id="Path_28459" data-name="Path 28459" d="M213.7,392.744l1.788-1.894a4.751,4.751,0,0,1-1.07-.126,7.507,7.507,0,0,1-.89-.271,8.915,8.915,0,0,1-2.533-1.5l-1.815,1.092c.214.2.435.4.661.592a11.132,11.132,0,0,0,3.186,1.883l.088.034C213.319,392.625,213.513,392.687,213.7,392.744Z" transform="translate(-209.185 -388.952)" fill="#0067b4" fill-rule="evenodd"/>
    </g>
    <g id="Group_7487" data-name="Group 7487" transform="translate(34.498 61.071)">
      <path id="Path_28460" data-name="Path 28460" d="M258.449,392.519a11.113,11.113,0,0,0,3.182-1.883c.229-.191.451-.39.665-.592l-1.818-1.092a8.916,8.916,0,0,1-2.533,1.5,5.567,5.567,0,0,1-1.96.4l1.792,1.894c.187-.053.378-.118.573-.187A.755.755,0,0,1,258.449,392.519Z" transform="translate(-255.985 -388.952)" fill="#0064d8" fill-rule="evenodd"/>
    </g>
    <g id="Group_7488" data-name="Group 7488" transform="translate(33.551 62.969)">
      <path id="Path_28461" data-name="Path 28461" d="M251.694,404.929l-1.792-1.894-.947,1,1.012,1.344.313.393c.1.118.073.138.034.286l-.3,1.188-.111.7h1.543l.657-2.581Z" transform="translate(-248.955 -403.035)" fill="#fff" fill-rule="evenodd"/>
    </g>
    <g id="Group_7489" data-name="Group 7489" transform="translate(34.498 67.88)">
      <path id="Path_28462" data-name="Path 28462" d="M259.646,444.067l-2.116-4.594h-1.543l1.6,4.594c.019.046.034.05.008.088l-1.608,2.73h2.059l1.608-2.73C259.68,444.116,259.665,444.113,259.646,444.067Z" transform="translate(-255.986 -439.473)" fill="#fff" fill-rule="evenodd"/>
    </g>
    <g id="Group_7490" data-name="Group 7490" transform="translate(40.343 63.343)">
      <path id="Path_28463" data-name="Path 28463" d="M306.446,411.18c0-3.154-2.048-3.8-4.657-5.369l-2.434,1.573c2.258,1.287,3.935,2.089,3.935,4.949v5.426h2.258c.562,0,.9.092.9-.641Z" transform="translate(-299.356 -405.811)" fill="#0064d8" fill-rule="evenodd"/>
    </g>
    <g id="Group_7491" data-name="Group 7491" transform="translate(0 10.001)">
      <path id="Path_28464" data-name="Path 28464" d="M207.794,80.437a1.011,1.011,0,0,0,.653.239c.029,0,.057,0,.086,0a1.011,1.011,0,0,0,.689-.358l6.449-7.694a1.011,1.011,0,0,0-1.549-1.3l-5.8,6.916-2.651-2.245a1.011,1.011,0,1,0-1.306,1.543Z" transform="translate(-176.516 -62.746)"/>
      <path id="Path_28465" data-name="Path 28465" d="M164.6,36.924a13.461,13.461,0,1,0-10.756-21.567,1.011,1.011,0,0,0,1.614,1.217,11.444,11.444,0,1,1-1.874,3.775,1.011,1.011,0,1,0-1.945-.549A13.458,13.458,0,0,0,164.6,36.924Z" transform="translate(-130.762 -10.001)"/>
      <path id="Path_28466" data-name="Path 28466" d="M64.89,238.744c-.336-.191-.682-.388-1.038-.6l-2.643-1.585a10,10,0,0,0,2.512-4.481,6.267,6.267,0,0,0,.167-1.4v-6.69c0-3.043-2.29-5.79-5.835-7-3.1-1.054-6.176-.565-7.833,1.2-1.7.3-4.079,1.646-4,6.86,0,.046,0,.084,0,.113v5.509a6.2,6.2,0,0,0,.167,1.4A9.977,9.977,0,0,0,48.9,236.56l-2.6,1.558c-.019.009-.038.022-.057.032-.35.21-.694.406-1.026.594a11.824,11.824,0,0,0-2.707,1.881l-1.862-1.117a10,10,0,0,0,2.513-4.481,6.326,6.326,0,0,0,.163-1.4v-6.69c0-3.042-2.289-5.787-5.831-6.993-3.1-1.055-6.177-.567-7.833,1.2-1.7.3-4.081,1.645-4,6.858,0,.047,0,.086,0,.115v5.51a6.563,6.563,0,0,0,.163,1.4,9.992,9.992,0,0,0,2.515,4.481l-1.86,1.117a11.844,11.844,0,0,0-2.71-1.883c-.336-.191-.682-.387-1.036-.6l-.027-.016-.008,0L20.1,236.559a9.992,9.992,0,0,0,2.513-4.482,6.232,6.232,0,0,0,.163-1.4v-6.69c0-3.042-2.289-5.788-5.831-6.994-3.1-1.056-6.179-.567-7.837,1.2-1.7.3-4.077,1.645-3.995,6.858,0,.047,0,.086,0,.115v5.51a6.229,6.229,0,0,0,.163,1.4,10,10,0,0,0,2.514,4.484l-2.644,1.584c-.354.212-.7.409-1.035.6C2,239.943,0,241.077,0,244.382v5.938a1.72,1.72,0,0,0,.442,1.249,1.567,1.567,0,0,0,1.166.4l.145,0,.151,0H20.556v1.3A1.72,1.72,0,0,0,21,254.52a1.567,1.567,0,0,0,1.166.4h.146l.15,0h1.164a1.011,1.011,0,0,0,0-2.022H22.577V247.33c0-2.044.892-2.632,3.09-3.879l.1-.058.427-.245,1.686,1.092,1.737,1.125.044.026c.121.07.228.144.332.214a2.006,2.006,0,0,0,1.105.42,1.32,1.32,0,0,0,.643-.17l.139.544-1.97,4.268,0,.009a1.043,1.043,0,0,0,.067,1.048l.689,1.173H28.294a1.011,1.011,0,1,0,0,2.021H46.536l.15,0h.146a1.576,1.576,0,0,0,1.17-.4,1.724,1.724,0,0,0,.443-1.252v-1.3h18.8l.146,0a1.567,1.567,0,0,0,1.166-.4A1.717,1.717,0,0,0,69,250.321v-5.938c0-3.3-2-4.439-4.11-5.639Zm-44.581.3-2.57,1.662c-.106.063-.2.124-.284.18L16.9,240.3l-.029-.031-.921-.975q.149-.05.3-.107a9.538,9.538,0,0,0,2.249-1.224Zm-10.6-18.89a1.011,1.011,0,0,0,.712-.39c1.026-1.331,3.439-1.683,5.868-.856,2.058.7,4.461,2.452,4.461,5.081v2.7h-.426c-1,0-1.64-.555-2.607-1.461a6.645,6.645,0,0,0-4.8-2.289H11.111c-2.2,0-2.566,1.787-2.785,2.854-.252,1.228-.372,1.468-1.176,1.468H7.133v-2.094c0-.037,0-.086,0-.147-.049-3.076.819-4.714,2.579-4.869Zm-2.466,11.47a4.206,4.206,0,0,1-.112-.945v-1.395H7.15c2.523,0,2.935-2.005,3.156-3.083.255-1.24.361-1.24.805-1.24h1.811c1.554,0,2.416.807,3.415,1.743a5.668,5.668,0,0,0,3.989,2.007h.426v1.968a4.21,4.21,0,0,1-.112.948,8.694,8.694,0,0,1-5.091,5.667,4.534,4.534,0,0,1-1.606.333,4.536,4.536,0,0,1-1.607-.334,8.694,8.694,0,0,1-5.091-5.669Zm7.78,9.633-.328,1.284H13.18l-.326-1.279,1.088-1.152ZM9.38,237.961a9.534,9.534,0,0,0,2.248,1.224q.154.058.3.108l-1.5,1.591c-.084-.056-.179-.117-.286-.18l-2.569-1.661Zm.027,10.8.7,1.189H2.021v-5.565c0-2.047.891-2.635,3.086-3.883.173-.1.35-.2.53-.3l3.427,2.216.04.025c.121.071.228.144.331.215a2.01,2.01,0,0,0,1.111.431,1.307,1.307,0,0,0,.642-.173l.138.541-1.969,4.267A1.046,1.046,0,0,0,9.406,248.758Zm6.017,1.189h-2.97l-1.064-1.806,1.653-3.58h1.793l1.653,3.58Zm5.133-2.617v2.617H17.769l.7-1.189a1.046,1.046,0,0,0,.049-1.038l-1.97-4.267.139-.545a1.311,1.311,0,0,0,.648.176,2.015,2.015,0,0,0,1.116-.434c.1-.07.208-.143.328-.213l.038-.023,3.427-2.216.529.3a14.853,14.853,0,0,1,1.889,1.2C22.552,242.895,20.556,244.03,20.556,247.33Zm40.865-8.287-2.565,1.66c-.108.063-.2.125-.288.182l-.553-.586-.036-.038-.914-.969c.1-.032.2-.069.3-.106a9.6,9.6,0,0,0,2.249-1.225Zm-10.6-18.892a1.01,1.01,0,0,0,.713-.389c1.024-1.33,3.435-1.683,5.864-.857,2.059.7,4.465,2.453,4.465,5.082v2.7h-.429c-1,0-1.639-.554-2.605-1.46a6.644,6.644,0,0,0-4.8-2.29H52.223c-2.2,0-2.566,1.787-2.784,2.856-.252,1.226-.371,1.466-1.172,1.466h-.022v-2.093c0-.036,0-.086,0-.146-.047-3.077.821-4.715,2.582-4.87Zm-2.465,11.471a4.215,4.215,0,0,1-.116-.946v-1.395h.022c2.52,0,2.931-2.005,3.152-3.082.255-1.24.36-1.24.8-1.24h1.811c1.557,0,2.419.807,3.416,1.742a5.663,5.663,0,0,0,3.988,2.007h.429v1.968a4.256,4.256,0,0,1-.116.949,8.692,8.692,0,0,1-5.093,5.667,4.037,4.037,0,0,1-3.207,0,8.681,8.681,0,0,1-5.09-5.668Zm7.777,9.633-.326,1.283H54.293l-.326-1.279,1.088-1.152Zm-5.644-3.294a9.549,9.549,0,0,0,2.248,1.222c.1.038.2.074.3.108l-1.5,1.59c-.085-.055-.179-.116-.286-.179l-2.566-1.662Zm-9.628,4.031L38.3,243.655c-.108.062-.2.124-.288.179l-1.5-1.59c.1-.034.2-.069.3-.106a9.539,9.539,0,0,0,2.251-1.228ZM30.27,223.1a1.011,1.011,0,0,0,.712-.39c1.025-1.33,3.436-1.681,5.864-.854,2.058.7,4.461,2.451,4.461,5.079v2.7h-.425c-1,0-1.638-.555-2.6-1.46a6.645,6.645,0,0,0-4.8-2.29H31.668c-2.2,0-2.566,1.788-2.785,2.856-.252,1.227-.371,1.467-1.172,1.467h-.021v-2.1c0-.037,0-.086,0-.146-.049-3.076.82-4.714,2.582-4.869ZM27.8,234.585a4.554,4.554,0,0,1-.115-.96v-1.391h.021c2.521,0,2.932-2.005,3.153-3.082.254-1.24.36-1.24.8-1.24h1.811c1.557,0,2.419.808,3.417,1.743a5.663,5.663,0,0,0,3.987,2.007h.425v1.964a4.284,4.284,0,0,1-.112.95,8.712,8.712,0,0,1-5.089,5.667,4.031,4.031,0,0,1-3.214,0,8.7,8.7,0,0,1-5.089-5.657Zm7.779,9.62-.326,1.283h-1.52l-.325-1.279,1.088-1.151Zm-4.6-.372c-.084-.055-.178-.116-.286-.178l-2.565-1.662,1.8-1.083a9.635,9.635,0,0,0,2.253,1.229c.1.036.2.071.3.1Zm5,9.066H33.01l-1.063-1.81,1.651-3.579h1.8l1.65,3.582Zm10.443,0h-8.1l.7-1.189a1.056,1.056,0,0,0,.053-1.032l0-.009L37.109,246.4l.139-.542a1.314,1.314,0,0,0,.646.175,2.021,2.021,0,0,0,1.11-.429c.1-.071.21-.144.332-.214l.044-.026,3.423-2.217c.143.084.286.164.425.244l.109.062c2.2,1.247,3.086,1.834,3.086,3.876Zm4.109-4.124.69,1.173H48.444V247.33c0-3.3-2-4.434-4.109-5.635a0,0,0,0,1,0,0,14.672,14.672,0,0,1,1.887-1.193c.174-.1.352-.2.532-.3l3.424,2.216a.391.391,0,0,0,.039.026c.121.07.228.143.332.213a2.016,2.016,0,0,0,1.113.424,1.318,1.318,0,0,0,.639-.168l.139.544L50.47,247.72s0,0,0,0a1.035,1.035,0,0,0,.063,1.053Zm6,1.173H53.567L52.5,248.139l1.651-3.578h1.8l1.651,3.577Zm10.443,0h-8.1l.7-1.189a1.04,1.04,0,0,0,.081-.977c-.008-.02-.018-.042-.027-.062l-1.97-4.268.139-.543a1.315,1.315,0,0,0,.647.175,2.021,2.021,0,0,0,1.115-.433c.1-.07.209-.143.33-.213l.04-.026,3.423-2.216c.181.105.358.2.532.3,2.2,1.247,3.087,1.834,3.087,3.881Z" transform="translate(0 -188.62)"/>
    </g>
  </g>
</svg>
