<svg id="daily" xmlns="http://www.w3.org/2000/svg" width="65.361" height="65.361" viewBox="0 0 65.361 65.361">
  <path id="Path_28518" data-name="Path 28518" d="M2.254,4.508H63.107a2.254,2.254,0,0,0,0-4.508H2.254a2.254,2.254,0,0,0,0,4.508Z" fill="#181818"/>
  <path id="Path_28519" data-name="Path 28519" d="M63.107,264.828H2.254a2.254,2.254,0,0,0,0,4.508H63.107a2.254,2.254,0,0,0,0-4.508Z" transform="translate(0 -231.02)" fill="#181818"/>
  <path id="Path_28520" data-name="Path 28520" d="M211.862,420.2v.327h11.269V420.2a5.645,5.645,0,0,0-11.269,0Z" transform="translate(-184.816 -361.931)" fill="#181818"/>
  <circle id="Ellipse_3013" data-name="Ellipse 3013" cx="3.381" cy="3.381" r="3.381" transform="translate(29.3 43.95)" fill="#181818"/>
  <path id="Path_28521" data-name="Path 28521" d="M379.586,420.2v.327h11.269V420.2a5.645,5.645,0,0,0-11.269,0Z" transform="translate(-331.129 -361.931)" fill="#181818"/>
  <circle id="Ellipse_3014" data-name="Ellipse 3014" cx="3.381" cy="3.381" r="3.381" transform="translate(50.711 43.95)" fill="#181818"/>
  <path id="Path_28522" data-name="Path 28522" d="M44.138,420.188v.327H55.407v-.327a5.645,5.645,0,0,0-11.269,0Z" transform="translate(-38.503 -361.915)" fill="#181818"/>
  <circle id="Ellipse_3015" data-name="Ellipse 3015" cx="3.381" cy="3.381" r="3.381" transform="translate(7.888 43.95)" fill="#181818"/>
  <path id="Path_28523" data-name="Path 28523" d="M202.1,163.509a1.691,1.691,0,0,1-.7-.147l-7.19-3.054v5.026l4.913,2.085a7.675,7.675,0,0,0,5.95,0l4.913-2.085v-5.026l-7.19,3.054A1.691,1.691,0,0,1,202.1,163.509Z" transform="translate(-169.415 -139.843)" fill="#181818"/>
  <path id="Path_28524" data-name="Path 28524" d="M157.481,87.34l8.576,3.64,8.576-3.64h.011l4.575-1.95L166.056,79.8l-13.162,5.59,4.575,1.95Z" transform="translate(-133.376 -69.614)" fill="#181818"/>
  <path id="Path_28525" data-name="Path 28525" d="M98.23,77.758V52.966H44.138V77.758H98.23ZM55.407,61.981a1.979,1.979,0,0,1,1.172-1.837l13.906-5.905a1.739,1.739,0,0,1,1.4,0l13.906,5.905a2.025,2.025,0,0,1,0,3.674l-4.463,1.893V72.45a1.066,1.066,0,0,1-.09.417.971.971,0,0,1-.113.18,1.708,1.708,0,0,1-.124.18,1.145,1.145,0,0,1-.361.248l-5.6,2.378a9.941,9.941,0,0,1-7.708,0l-5.6-2.378a1.145,1.145,0,0,1-.361-.248,1.721,1.721,0,0,1-.124-.18.976.976,0,0,1-.113-.18,1.066,1.066,0,0,1-.09-.417V65.711L57.661,64.28v5.511a1.127,1.127,0,0,1-2.254,0v-7.81Z" transform="translate(-38.503 -46.204)" fill="#181818"/>
  <path id="Path_28526" data-name="Path 28526" d="M64.234,476.69H1.127A1.127,1.127,0,0,0,0,477.817v2.254A1.127,1.127,0,0,0,1.127,481.2H64.234a1.127,1.127,0,0,0,1.127-1.127v-2.254A1.127,1.127,0,0,0,64.234,476.69Z" transform="translate(0 -415.836)" fill="#181818"/>
</svg>
