<svg xmlns="http://www.w3.org/2000/svg" width="71.284" height="71.284" viewBox="0 0 71.284 71.284">
  <g id="events" transform="translate(-2 -2)">
    <path id="Path_28545" data-name="Path 28545" d="M63.779,12.693A4.752,4.752,0,0,0,59.027,7.94H57.839V11.5a2.376,2.376,0,0,1-2.376,2.376H53.087A2.376,2.376,0,0,0,55.463,11.5V4.376a2.376,2.376,0,0,0-4.752,0V7.94H44.77V11.5a2.376,2.376,0,0,1-2.376,2.376H40.018A2.376,2.376,0,0,0,42.394,11.5V4.376a2.376,2.376,0,1,0-4.752,0V7.94H30.513V11.5a2.376,2.376,0,0,1-2.376,2.376H25.761A2.376,2.376,0,0,0,28.137,11.5V4.376a2.376,2.376,0,0,0-4.752,0V7.94h-5.94V11.5a2.376,2.376,0,0,1-2.376,2.376H12.693A2.376,2.376,0,0,0,15.069,11.5V4.376a2.376,2.376,0,0,0-4.752,0V7.94H6.752A4.752,4.752,0,0,0,2,12.693v7.128H63.779Z" fill="#181818"/>
    <path id="Path_28546" data-name="Path 28546" d="M53.069,40A13.069,13.069,0,1,0,66.137,53.069,13.069,13.069,0,0,0,53.069,40Zm0,15.445a2.36,2.36,0,0,1-.86-.167l-4.338,3.471-1.485-1.856,4.342-3.473a2.269,2.269,0,0,1,1.153-2.4V43.564h2.376v7.458a2.369,2.369,0,0,1-1.188,4.423Z" transform="translate(7.146 7.146)" fill="#181818"/>
    <path id="Path_28547" data-name="Path 28547" d="M6.752,62.958H45.958a15.447,15.447,0,0,1,8.316-20.2H48.334V35.633h7.128v6.693A15.21,15.21,0,0,1,63.779,42V19H2V58.206a4.751,4.751,0,0,0,4.752,4.752ZM48.334,22.564h7.128v7.128H48.334Zm-13.069,0h7.128v7.128H35.266Zm0,13.069h7.128v7.128H35.266Zm0,13.069h7.128V55.83H35.266ZM22.2,22.564h7.128v7.128H22.2Zm0,13.069h7.128v7.128H22.2Zm0,13.069h7.128V55.83H22.2ZM9.128,22.564h7.128v7.128H9.128Zm0,13.069h7.128v7.128H9.128Zm0,13.069h7.128V55.83H9.128Z" transform="translate(0 3.197)" fill="#181818"/>
  </g>
</svg>
