<svg xmlns="http://www.w3.org/2000/svg" width="56" height="42" viewBox="0 0 56 42">
  <g id="homework-black" transform="translate(-4 -11)">
    <path id="Path_28561" data-name="Path 28561" d="M33,50.03A4.924,4.924,0,0,1,36,49H56V11H36a3.009,3.009,0,0,0-3,3ZM43,17a4,4,0,0,1,8,0V41a1,1,0,0,1-.14.51l-3,5a1,1,0,0,1-1.72,0l-3-5A1,1,0,0,1,43,41Z" fill="#1c2848"/>
    <path id="Path_28562" data-name="Path 28562" d="M46,25h2V38.46l1,.67V23H45V39.13l1-.67Z" fill="#1c2848"/>
    <path id="Path_28563" data-name="Path 28563" d="M45.35,41.3,47,44.06l1.65-2.76L47,40.2Z" fill="#1c2848"/>
    <path id="Path_28564" data-name="Path 28564" d="M32,51.03l.03-.03h-.06Z" fill="#1c2848"/>
    <path id="Path_28565" data-name="Path 28565" d="M45,19h4v2H45Z" fill="#1c2848"/>
    <path id="Path_28566" data-name="Path 28566" d="M47,15a2.006,2.006,0,0,0-2,2h4A2.006,2.006,0,0,0,47,15Z" fill="#1c2848"/>
    <path id="Path_28567" data-name="Path 28567" d="M60,15H58V50a1,1,0,0,1-1,1H36a3.01,3.01,0,0,0-2.82,2H60Z" fill="#1c2848"/>
    <path id="Path_28568" data-name="Path 28568" d="M31,14a3.009,3.009,0,0,0-3-3H8V49H28a4.924,4.924,0,0,1,3,1.03ZM10,18H21v2H10Zm4,6H10V22h4Zm15,0H16V22H29Zm0-4H23V18h6Zm0-4H10V14H29Z" fill="#1c2848"/>
    <path id="Path_28569" data-name="Path 28569" d="M4,15V53H30.82A3.01,3.01,0,0,0,28,51H7a1,1,0,0,1-1-1V15Z" fill="#1c2848"/>
  </g>
</svg>
