<svg xmlns="http://www.w3.org/2000/svg" width="50.416" height="50.416" viewBox="0 0 50.416 50.416">
  <g id="teamwork" transform="translate(0 -0.005)" opacity="0.22">
    <g id="Group_7644" data-name="Group 7644" transform="translate(18.812 0.005)">
      <g id="Group_7643" data-name="Group 7643" transform="translate(0 0)">
        <circle id="Ellipse_3022" data-name="Ellipse 3022" cx="6.5" cy="6.5" r="6.5" transform="translate(0.188 0)" fill="#fff"/>
      </g>
    </g>
    <g id="Group_7646" data-name="Group 7646" transform="translate(15.754 15.76)">
      <g id="Group_7645" data-name="Group 7645">
        <path id="Path_28590" data-name="Path 28590" d="M178.893,173.983l-1.431-11.142A3.139,3.139,0,0,0,174.331,160H172.6a1.587,1.587,0,0,0-1.115.46l-2.036,2.036-2.036-2.036A1.587,1.587,0,0,0,166.3,160h-1.724a3.132,3.132,0,0,0-3.132,2.795l-1.434,11.186a1.578,1.578,0,0,0,1.563,1.774h1.7l1.317,16.07a3.14,3.14,0,0,0,3.135,2.836h3.45a3.15,3.15,0,0,0,3.138-2.864l1.314-16.041h1.7a1.571,1.571,0,0,0,1.182-.536A1.552,1.552,0,0,0,178.893,173.983Z" transform="translate(-160 -160.005)" fill="#fff"/>
      </g>
    </g>
    <g id="Group_7648" data-name="Group 7648" transform="translate(34.614 0.005)">
      <g id="Group_7647" data-name="Group 7647" transform="translate(0 0)">
        <ellipse id="Ellipse_3023" data-name="Ellipse 3023" cx="6" cy="6.5" rx="6" ry="6.5" transform="translate(0.387 0)" fill="#fff"/>
      </g>
    </g>
    <g id="Group_7650" data-name="Group 7650" transform="translate(3.15 0.005)">
      <g id="Group_7649" data-name="Group 7649" transform="translate(0 0)">
        <path id="Path_28591" data-name="Path 28591" d="M38.3,0a6.3,6.3,0,1,0,6.3,6.3A6.308,6.308,0,0,0,38.3,0Z" transform="translate(-31.999 -0.005)" fill="#fff"/>
      </g>
    </g>
    <g id="Group_7652" data-name="Group 7652" transform="translate(35.06 15.76)">
      <g id="Group_7651" data-name="Group 7651">
        <path id="Path_28592" data-name="Path 28592" d="M371.4,173.983l-1.431-11.139a3.137,3.137,0,0,0-3.132-2.839h-1.727a1.587,1.587,0,0,0-1.115.46l-2.036,2.036-2.035-2.036a1.585,1.585,0,0,0-1.112-.46H357.09a3,3,0,0,0-.558.1,6.133,6.133,0,0,1,.819,2.37l1.427,11.1a4.715,4.715,0,0,1-1.153,3.737,4.568,4.568,0,0,1-1.563,1.109l1.046,10.25a3.14,3.14,0,0,0,3.135,2.836h3.45a3.15,3.15,0,0,0,3.138-2.864l1.311-12.891h1.7a1.571,1.571,0,0,0,1.182-.536A1.552,1.552,0,0,0,371.4,173.983Z" transform="translate(-356.063 -160.005)" fill="#fff"/>
      </g>
    </g>
    <g id="Group_7654" data-name="Group 7654" transform="translate(-0.001 15.76)">
      <g id="Group_7653" data-name="Group 7653">
        <path id="Path_28593" data-name="Path 28593" d="M13.782,177.3a4.719,4.719,0,0,1-1.141-3.715L14.075,162.4a5.825,5.825,0,0,1,.785-2.294,2.964,2.964,0,0,0-.529-.1H12.6a1.587,1.587,0,0,0-1.115.46L9.452,162.5l-2.036-2.036A1.585,1.585,0,0,0,6.3,160H4.578A3.132,3.132,0,0,0,1.446,162.8L.012,173.986a1.578,1.578,0,0,0,1.563,1.774h1.7l1.317,12.919a3.14,3.14,0,0,0,3.135,2.836h3.45a3.15,3.15,0,0,0,3.138-2.864l1.046-10.225A4.725,4.725,0,0,1,13.782,177.3Z" transform="translate(0.001 -160.005)" fill="#fff"/>
      </g>
    </g>
  </g>
</svg>
