<svg xmlns="http://www.w3.org/2000/svg" width="78.644" height="69.198" viewBox="0 0 78.644 69.198">
  <g id="worldwide" transform="translate(-20.001 -48.348)">
    <path id="Path_28527" data-name="Path 28527" d="M147.062,415.467a32.1,32.1,0,0,1-5.108-3.169,1.083,1.083,0,1,0-1.309,1.726,34.3,34.3,0,0,0,5.454,3.384,1.083,1.083,0,0,0,.963-1.941Z" transform="translate(-100.185 -303.126)" fill="#181818"/>
    <path id="Path_28528" data-name="Path 28528" d="M214.029,445.928a26.552,26.552,0,0,1-5.9-.908,1.083,1.083,0,1,0-.562,2.092,28.745,28.745,0,0,0,6.379.981h.041a1.083,1.083,0,0,0,.039-2.166Z" transform="translate(-155.648 -330.548)" fill="#181818"/>
    <path id="Path_28529" data-name="Path 28529" d="M287.329,436.463a29.383,29.383,0,0,1-5.719,1.791,1.083,1.083,0,0,0,.213,2.145,1.108,1.108,0,0,0,.215-.021,31.569,31.569,0,0,0,6.142-1.922,1.083,1.083,0,1,0-.851-1.992Z" transform="translate(-217.294 -323.375)" fill="#181818"/>
    <path id="Path_28530" data-name="Path 28530" d="M354.985,394.853a1.046,1.046,0,0,0-.766.313,32.288,32.288,0,0,1-4.65,3.814,1.083,1.083,0,1,0,1.212,1.8,34.5,34.5,0,0,0,4.962-4.07,1.083,1.083,0,0,0-.757-1.853Z" transform="translate(-274.257 -288.771)" fill="#181818"/>
    <path id="Path_28531" data-name="Path 28531" d="M406.349,333.62a1.082,1.082,0,0,0-1.422.568,31.038,31.038,0,0,1-2.895,5.26,1.083,1.083,0,1,0,1.788,1.223,33.2,33.2,0,0,0,3.1-5.628,1.083,1.083,0,0,0-.568-1.422Z" transform="translate(-318.219 -237.666)" fill="#181818"/>
    <path id="Path_28532" data-name="Path 28532" d="M102.029,371.755a1.083,1.083,0,0,0-1.748,1.28,33.95,33.95,0,0,0,2.173,2.669,1.083,1.083,0,1,0,1.608-1.451,31.735,31.735,0,0,1-2.034-2.5Z" transform="translate(-66.729 -269.152)" fill="#181818"/>
    <path id="Path_28533" data-name="Path 28533" d="M401.575,215.285a1,1,0,0,0-1.633,0l-7.293,10.328a1,1,0,0,0,.816,1.576h5.893c-.111.8-.252,1.6-.42,2.378a1.083,1.083,0,1,0,2.117.458c.2-.929.362-1.88.487-2.835h6.509a1,1,0,0,0,.816-1.576Z" transform="translate(-310.405 -138.77)" fill="#181818"/>
    <path id="Path_28534" data-name="Path 28534" d="M256.515,48.348a1.083,1.083,0,0,0-.08,2.165,26.552,26.552,0,0,1,5.9.908,1.083,1.083,0,1,0,.562-2.092,28.757,28.757,0,0,0-6.379-.981Z" transform="translate(-196.169)" fill="#181818"/>
    <path id="Path_28535" data-name="Path 28535" d="M183.738,55.5a1.078,1.078,0,0,0,.425-.087,29.408,29.408,0,0,1,5.719-1.791,1.083,1.083,0,1,0-.429-2.123,31.582,31.582,0,0,0-6.142,1.922,1.083,1.083,0,0,0,.426,2.079Z" transform="translate(-135.551 -2.609)" fill="#181818"/>
    <path id="Path_28536" data-name="Path 28536" d="M83.866,132.984a1.083,1.083,0,0,0-1.505.282,33.2,33.2,0,0,0-3.1,5.627,1.083,1.083,0,1,0,1.99.855,31.04,31.04,0,0,1,2.894-5.26,1.083,1.083,0,0,0-.283-1.505Z" transform="translate(-49.315 -70.377)" fill="#181818"/>
    <path id="Path_28537" data-name="Path 28537" d="M127.859,80.967a1.084,1.084,0,0,0-1.5-.292,34.5,34.5,0,0,0-4.961,4.07,1.083,1.083,0,0,0,1.524,1.539,32.287,32.287,0,0,1,4.65-3.814A1.084,1.084,0,0,0,127.859,80.967Z" transform="translate(-84.231 -26.787)" fill="#181818"/>
    <path id="Path_28538" data-name="Path 28538" d="M333.452,72.7a1.083,1.083,0,0,0,.655-1.946,34.3,34.3,0,0,0-5.454-3.384,1.083,1.083,0,1,0-.963,1.94,32.1,32.1,0,0,1,5.108,3.169A1.073,1.073,0,0,0,333.452,72.7Z" transform="translate(-255.92 -15.762)" fill="#181818"/>
    <path id="Path_28539" data-name="Path 28539" d="M387.443,112.186a1.083,1.083,0,0,0-.86,1.807,31.734,31.734,0,0,1,2.033,2.5,1.083,1.083,0,1,0,1.747-1.28,33.943,33.943,0,0,0-2.173-2.669A1.076,1.076,0,0,0,387.443,112.186Z" transform="translate(-305.27 -53.2)" fill="#181818"/>
    <path id="Path_28540" data-name="Path 28540" d="M36.474,205.078a1,1,0,0,0-.888-.54H29.693c.111-.8.252-1.6.42-2.378A1.083,1.083,0,1,0,28,201.7c-.2.929-.362,1.88-.487,2.835H21a1,1,0,0,0-.816,1.576l7.292,10.327a1,1,0,0,0,1.633,0L36.4,206.114a1,1,0,0,0,.071-1.036Z" transform="translate(0 -127.064)" fill="#181818"/>
    <path id="Path_28541" data-name="Path 28541" d="M220.957,173.085a.736.736,0,0,0-.645.442l-.091.208a3.7,3.7,0,0,1-3.386,2.211h-1.517a2.444,2.444,0,0,1-2.439-2.208l-.06-.607a.725.725,0,0,0-.33-.539,2.606,2.606,0,0,1-1.2-2.2v-.608a2.938,2.938,0,0,1,.992-2.2l2.593-2.29a.8.8,0,0,0,.236-.833.856.856,0,0,0-.714-.6l-.262-.032a3.022,3.022,0,0,1-1.909-1.011,2.473,2.473,0,0,1-.286-2.853l.548-.937a20.408,20.408,0,0,1,2.582-3.5l.09-.1a17.306,17.306,0,0,0-10.848-3.809,17.528,17.528,0,0,0-1.807.094l.279.348q.023.028.043.058l2.376,3.426a3.676,3.676,0,0,1-.11,4.354l-.638.827a3.007,3.007,0,0,1-2.751,1.143l-.723-.092a1.085,1.085,0,0,0-1.074.527,3.009,3.009,0,0,1-2.979,1.463l-1.67-.212a1.18,1.18,0,0,0-1.131.511.869.869,0,0,0-.015.953l1.1,1.742a.705.705,0,0,0,.925.243l1.136-.608a3.633,3.633,0,0,1,3.568.086l1.933,1.16a4.618,4.618,0,0,1,3.451,1.912l1.085,1.512c.049.068.1.136.158.2l1.379,1.622a2.237,2.237,0,0,1-.342,3.223l-2.091,1.605a1.829,1.829,0,0,0-.638.918l-.7,2.259a2.934,2.934,0,0,1-.551,1.016l-.677.815a2.433,2.433,0,0,0-.551,1.31,2.6,2.6,0,0,1-1.584,2.134c-.024.01-.05.017-.073.027a17.4,17.4,0,0,0,19.578-13.131Z" transform="translate(-144.99 -86.071)" fill="#181818"/>
    <path id="Path_28542" data-name="Path 28542" d="M161.782,163.982l1.67.212a1.013,1.013,0,0,0,1-.493,3.078,3.078,0,0,1,3.05-1.5l.723.092a1,1,0,0,0,.914-.38l.638-.827a1.683,1.683,0,0,0,.05-1.994l-2.355-3.4-.957-1.188a17.445,17.445,0,0,0-13.013,13.618,3.669,3.669,0,0,1,3.634,1.8,2.8,2.8,0,0,0,.5.631l1.44,1.355a1.7,1.7,0,0,0,.713.4l.167.045a3.4,3.4,0,0,1,2.375,2.364l.772,2.785a2.239,2.239,0,0,0,.38.764l2.339,3.067a3.439,3.439,0,0,1,.655,1.514l.638,3.831a.071.071,0,0,0,.1.053.606.606,0,0,0,.368-.5,4.425,4.425,0,0,1,1-2.383l.678-.815a.945.945,0,0,0,.177-.328l.7-2.259a3.819,3.819,0,0,1,1.331-1.914l2.09-1.605a.237.237,0,0,0,.036-.342l-1.379-1.623c-.092-.108-.179-.22-.259-.332l-1.084-1.511a2.613,2.613,0,0,0-2.118-1.087,1,1,0,0,1-.514-.143l-2.155-1.293a1.623,1.623,0,0,0-1.595-.038l-1.136.608a2.713,2.713,0,0,1-3.559-.936l-1.1-1.742a2.868,2.868,0,0,1,.049-3.144,3.168,3.168,0,0,1,3.039-1.373Z" transform="translate(-111.26 -88.475)" fill="#181818"/>
    <path id="Path_28543" data-name="Path 28543" d="M162.669,260.514l-2.339-3.067a4.23,4.23,0,0,1-.716-1.443l-.772-2.785a1.4,1.4,0,0,0-.973-.969l-.168-.046a3.7,3.7,0,0,1-1.557-.872l-1.441-1.356a4.793,4.793,0,0,1-.86-1.083,1.669,1.669,0,0,0-1.766-.8l-.409.081c-.028.4-.043.8-.043,1.211a17.422,17.422,0,0,0,12.518,16.7,2.057,2.057,0,0,1-.562-1.1l-.638-3.831a1.434,1.434,0,0,0-.273-.631Z" transform="translate(-109.692 -166.437)" fill="#181818"/>
    <path id="Path_28544" data-name="Path 28544" d="M312.786,192.524l-2.592,2.29a.938.938,0,0,0-.317.7v.608a.615.615,0,0,0,.282.518,2.714,2.714,0,0,1,1.235,2.02l.061.607a.45.45,0,0,0,.45.407h1.517a1.7,1.7,0,0,0,1.555-1.016l.091-.207a2.723,2.723,0,0,1,2.384-1.636l.356-.017.091-.007.273-.027a17.359,17.359,0,0,0-4.937-14.266l-.1.114a18.409,18.409,0,0,0-2.328,3.152l-.543.928a.469.469,0,0,0,.06.536,1.025,1.025,0,0,0,.647.343l.262.032a2.856,2.856,0,0,1,2.383,2.006,2.808,2.808,0,0,1-.826,2.913Z" transform="translate(-241.577 -111.8)" fill="#181818"/>
  </g>
</svg>
