<svg xmlns="http://www.w3.org/2000/svg" width="503.184" height="335.449" viewBox="0 0 503.184 335.449">
  <g id="sa" transform="translate(0 -85.337)">
    <rect id="Rectangle_2" data-name="Rectangle 2" width="503.184" height="335.449" transform="translate(0 85.337)" fill="#f0f0f0"/>
    <path id="Path_382" data-name="Path 382" d="M112.061,254.037,0,141.926V366.167Z" transform="translate(0 -0.974)"/>
    <path id="Path_383" data-name="Path 383" d="M158.417,253.223,0,94.7v46.413L112.061,253.224,0,365.354v46.326Z" transform="translate(0 -0.161)" fill="#ffda44"/>
    <path id="Path_384" data-name="Path 384" d="M501.055,285.878h0c.057-.432.79-.863,2.13-1.3V220.245H218.769L83.861,85.337H0v9.2L158.417,253.062,0,411.519v9.267H83.861L218.769,285.878Z" fill="#6da544"/>
    <path id="Path_385" data-name="Path 385" d="M496.8,322.783H234.644L132.552,424.874H505.467V322.783Z" transform="translate(-2.282 -4.088)" fill="#0052b4"/>
    <path id="Path_386" data-name="Path 386" d="M496.8,187.428h8.667V85.337H132.552L234.644,187.428Z" transform="translate(-2.282)" fill="#d80027"/>
  </g>
</svg>
