<svg xmlns="http://www.w3.org/2000/svg" xmlns:xlink="http://www.w3.org/1999/xlink" width="74.36" height="65.575" viewBox="0 0 74.36 65.575">
  <defs>
    <linearGradient id="linear-gradient" x1="0.5" x2="0.5" y2="1" gradientUnits="objectBoundingBox">
      <stop offset="0" stop-color="#0064d8"/>
      <stop offset="1" stop-color="#00326c"/>
    </linearGradient>
  </defs>
  <g id="alerts" transform="translate(-182.951 -1825.665)">
    <g id="notification" transform="translate(193.26 1837)">
      <path id="Path_28137" data-name="Path 28137" d="M46.374,41.6l-2.757-2.75V30.24a9.668,9.668,0,0,0-4.459-8.13V4.973a.743.743,0,0,0-.743-.743H34.7V2.743A.743.743,0,0,0,33.956,2H29.5a.743.743,0,0,0-.743.743V4.229H12.4V2.743A.743.743,0,0,0,11.661,2H7.2a.743.743,0,0,0-.743.743V4.229H2.743A.743.743,0,0,0,2,4.973V36.928a.743.743,0,0,0,.743.743H24.295v1.182L21.538,41.6a.743.743,0,0,0-.156.81.733.733,0,0,0,.684.461h7.5a4.454,4.454,0,0,0,8.784,0h7.5a.733.733,0,0,0,.684-.461.743.743,0,0,0-.156-.81ZM30.24,3.486h2.973V6.459a1.486,1.486,0,1,1-2.973,0Zm-22.295,0h2.973V6.459a1.486,1.486,0,0,1-2.973,0ZM3.486,5.716H6.459v.743a2.973,2.973,0,1,0,5.945,0V5.716H28.754v.743a2.973,2.973,0,1,0,5.945,0V5.716h2.973v5.2H3.486Zm0,30.469V12.4H37.671v8.175a3.716,3.716,0,0,0-7.432,0v.743a9.684,9.684,0,0,0-5.945,8.918v5.945Zm32.7-15.606v.268a9.423,9.423,0,0,0-4.459,0v-.268a2.229,2.229,0,0,1,4.459,0ZM33.956,45.1a2.973,2.973,0,0,1-2.869-2.229h5.737A2.973,2.973,0,0,1,33.956,45.1Zm-10.1-3.716,1.709-1.7a.768.768,0,0,0,.216-.528V30.24a8.175,8.175,0,1,1,16.349,0v8.918a.768.768,0,0,0,.216.528l1.709,1.7Z" transform="translate(0 0)" fill="url(#linear-gradient)"/>
      <path id="Path_28138" data-name="Path 28138" d="M13.2,18H8.743A.743.743,0,0,0,8,18.743V23.2a.743.743,0,0,0,.743.743H13.2a.743.743,0,0,0,.743-.743V18.743A.743.743,0,0,0,13.2,18Zm-.743,4.459H9.486V19.486h2.973Z" transform="translate(-1.541 -4.11)" fill="url(#linear-gradient)"/>
      <path id="Path_28139" data-name="Path 28139" d="M20.973,18a2.973,2.973,0,1,0,2.973,2.973A2.973,2.973,0,0,0,20.973,18Zm0,4.459a1.486,1.486,0,1,1,1.486-1.486A1.486,1.486,0,0,1,20.973,22.459Z" transform="translate(-4.11 -4.11)" fill="url(#linear-gradient)"/>
      <path id="Path_28140" data-name="Path 28140" d="M33.976,20.942A2.973,2.973,0,1,0,31,23.914,2.973,2.973,0,0,0,33.976,20.942Zm-4.459,0A1.486,1.486,0,1,1,31,22.428,1.486,1.486,0,0,1,29.517,20.942Z" transform="translate(-6.686 -4.102)" fill="url(#linear-gradient)"/>
      <path id="Path_28141" data-name="Path 28141" d="M20.973,28a2.973,2.973,0,1,0,2.973,2.973A2.973,2.973,0,0,0,20.973,28Zm0,4.459a1.486,1.486,0,1,1,1.486-1.486A1.486,1.486,0,0,1,20.973,32.459Z" transform="translate(-4.11 -6.678)" fill="url(#linear-gradient)"/>
      <path id="Path_28142" data-name="Path 28142" d="M13.2,28H8.743A.743.743,0,0,0,8,28.743V33.2a.743.743,0,0,0,.743.743H13.2a.743.743,0,0,0,.743-.743V28.743A.743.743,0,0,0,13.2,28Zm-.743,4.459H9.486V29.486h2.973Z" transform="translate(-1.541 -6.678)" fill="url(#linear-gradient)"/>
      <path id="Path_28143" data-name="Path 28143" d="M20.973,38a2.973,2.973,0,1,0,2.973,2.973A2.973,2.973,0,0,0,20.973,38Zm0,4.459a1.486,1.486,0,1,1,1.486-1.486A1.486,1.486,0,0,1,20.973,42.459Z" transform="translate(-4.11 -9.246)" fill="url(#linear-gradient)"/>
      <path id="Path_28144" data-name="Path 28144" d="M13.2,38H8.743A.743.743,0,0,0,8,38.743V43.2a.743.743,0,0,0,.743.743H13.2a.743.743,0,0,0,.743-.743V38.743A.743.743,0,0,0,13.2,38Zm-.743,4.459H9.486V39.486h2.973Z" transform="translate(-1.541 -9.246)" fill="url(#linear-gradient)"/>
    </g>
    <g id="best-price" transform="translate(-227 1463)">
      <g id="Group_80" data-name="Group 80" transform="translate(468.338 375.962)">
        <path id="Polygon_1" data-name="Polygon 1" d="M7.11,1.592a1,1,0,0,1,1.752,0L10.682,4.9a1,1,0,0,0,.394.394L14.381,7.11a1,1,0,0,1,0,1.752l-3.305,1.819a1,1,0,0,0-.394.394L8.862,14.381a1,1,0,0,1-1.752,0L5.291,11.076a1,1,0,0,0-.394-.394L1.592,8.862a1,1,0,0,1,0-1.752L4.9,5.291A1,1,0,0,0,5.291,4.9Z" fill="#ffd73b"/>
        <path id="Polygon_2" data-name="Polygon 2" d="M3.246,1.592A1,1,0,0,1,5,1.592l.447.813a1,1,0,0,0,.394.394l.813.447A1,1,0,0,1,6.652,5l-.813.447a1,1,0,0,0-.394.394L5,6.652a1,1,0,0,1-1.752,0L2.8,5.839A1,1,0,0,0,2.4,5.445L1.592,5a1,1,0,0,1,0-1.752L2.4,2.8A1,1,0,0,0,2.8,2.4Z" transform="translate(4.122 4.122)" fill="#ebbb00"/>
      </g>
      <g id="Group_81" data-name="Group 81" transform="translate(409.951 420.034)">
        <path id="Polygon_1-2" data-name="Polygon 1" d="M3.227,1.592a1,1,0,0,1,1.752,0l.441.8a1,1,0,0,0,.394.394l.8.441a1,1,0,0,1,0,1.752l-.8.441a1,1,0,0,0-.394.394l-.441.8a1,1,0,0,1-1.752,0l-.441-.8a1,1,0,0,0-.394-.394l-.8-.441a1,1,0,0,1,0-1.752l.8-.441a1,1,0,0,0,.394-.394Z" transform="translate(0)" fill="#ffd73b"/>
        <path id="Polygon_2-2" data-name="Polygon 2" d="M1.469,1.178a.74.74,0,0,1,1.3,0h0a.74.74,0,0,0,.292.292h0a.74.74,0,0,1,0,1.3h0a.74.74,0,0,0-.292.292h0a.74.74,0,0,1-1.3,0h0a.74.74,0,0,0-.292-.292h0a.74.74,0,0,1,0-1.3h0a.74.74,0,0,0,.292-.292Z" transform="translate(2.118 2.118)" fill="#ebbb00"/>
      </g>
      <g id="Group_82" data-name="Group 82" transform="translate(437.618 362.665)">
        <path id="Polygon_1-3" data-name="Polygon 1" d="M3.227,1.592a1,1,0,0,1,1.752,0l.441.8a1,1,0,0,0,.394.394l.8.441a1,1,0,0,1,0,1.752l-.8.441a1,1,0,0,0-.394.394l-.441.8a1,1,0,0,1-1.752,0l-.441-.8a1,1,0,0,0-.394-.394l-.8-.441a1,1,0,0,1,0-1.752l.8-.441a1,1,0,0,0,.394-.394Z" transform="translate(0 0)" fill="#ffd73b"/>
        <path id="Polygon_2-3" data-name="Polygon 2" d="M1.469,1.178a.74.74,0,0,1,1.3,0h0a.74.74,0,0,0,.292.292h0a.74.74,0,0,1,0,1.3h0a.74.74,0,0,0-.292.292h0a.74.74,0,0,1-1.3,0h0a.74.74,0,0,0-.292-.292h0a.74.74,0,0,1,0-1.3h0a.74.74,0,0,0,.292-.292Z" transform="translate(2.118 2.118)" fill="#ebbb00"/>
      </g>
    </g>
  </g>
</svg>
