<svg xmlns="http://www.w3.org/2000/svg" xmlns:xlink="http://www.w3.org/1999/xlink" width="74.36" height="65.575" viewBox="0 0 74.36 65.575">
  <defs>
    <linearGradient id="linear-gradient" x1="0.5" x2="0.5" y2="1" gradientUnits="objectBoundingBox">
      <stop offset="0" stop-color="#0064d8"/>
      <stop offset="1" stop-color="#00326c"/>
    </linearGradient>
  </defs>
  <g id="analysis" transform="translate(-182.951 -1825.665)">
    <g id="lecture" transform="translate(196 1840)">
      <path id="Path_28126" data-name="Path 28126" d="M42.881,21.265V1H14.51V7.755H10.768a4.052,4.052,0,1,0-5.68.342A6.086,6.086,0,0,0,1,13.834v2.026a2.7,2.7,0,0,0,2.7,2.7v7.093a2.34,2.34,0,0,0,.237,1.013H1v5.4H3.938a4.02,4.02,0,0,0,1.149,4.395A6.086,6.086,0,0,0,1,42.205v.675H38.828v-.675a6.086,6.086,0,0,0-4.087-5.738,4.02,4.02,0,0,0,1.149-4.395h6.991v-5.4H38.535l-3.242-5.4ZM15.861,2.351H41.53V19.914H15.861V11.808h2.026a2.024,2.024,0,0,0,1.9-1.351h8.23V3.7H17.212V7.755H15.861Zm-4.29,24.318a2.34,2.34,0,0,0,.237-1.013V11.808h2.7v9.457H22.1l-3.242,5.4Zm12.1-5.4h1.8l-3.242,5.4h-1.8Zm3,.638v4.766h-2.86Zm1.351-.638h1.351v5.4H28.02Zm2.7.638,2.86,4.766h-2.86ZM19.79,9.106a2.024,2.024,0,0,0-1.227-1.227V5.053h8.106V9.106ZM7.755,2.351a2.7,2.7,0,1,1-2.7,2.7A2.7,2.7,0,0,1,7.755,2.351Zm-2.7,23.3V13.834H3.7v3.377a1.352,1.352,0,0,1-1.351-1.351V13.834A4.734,4.734,0,0,1,7.079,9.106H17.887a.675.675,0,1,1,0,1.351h-7.43v15.2a1.013,1.013,0,1,1-2.026,0V16.536H7.079v9.119a1.013,1.013,0,1,1-2.026,0Zm2.7,5.066a2.7,2.7,0,1,1-2.7,2.7A2.7,2.7,0,0,1,7.755,30.722ZM2.4,41.53a4.736,4.736,0,0,1,4.681-4.053H8.43a4.736,4.736,0,0,1,4.681,4.053Zm8.024-5.062a4.02,4.02,0,0,0,1.149-4.395H16.1a4.02,4.02,0,0,0,1.149,4.395,6.1,6.1,0,0,0-3.412,2.965,6.107,6.107,0,0,0-3.412-2.965Zm12.193-3.044a2.7,2.7,0,1,1-2.7-2.7A2.7,2.7,0,0,1,22.616,33.424ZM14.558,41.53a4.736,4.736,0,0,1,4.681-4.053h1.351A4.736,4.736,0,0,1,25.27,41.53Zm8.024-5.062a4.02,4.02,0,0,0,1.149-4.395h4.526a4.02,4.02,0,0,0,1.149,4.395,6.1,6.1,0,0,0-3.412,2.965,6.107,6.107,0,0,0-3.412-2.965Zm10.167,1.009a4.736,4.736,0,0,1,4.681,4.053H26.717A4.736,4.736,0,0,1,31.4,37.477Zm-.675-1.351a2.7,2.7,0,1,1,2.7-2.7A2.7,2.7,0,0,1,32.073,36.126Zm9.457-5.4H35.086a4.035,4.035,0,0,0-6.025,0H22.927a4.035,4.035,0,0,0-6.025,0H10.768a4.035,4.035,0,0,0-6.025,0H2.351v-2.7H41.53Zm-4.57-4.053h-1.8l-3.242-5.4h1.8Z" fill="url(#linear-gradient)"/>
      <path id="Path_28127" data-name="Path 28127" d="M39.053,19.755v1.351H37.7V15.7H36.351v5.4H35v1.351H51.212V13H49.861v8.106H48.51V14.351H47.159v6.755H45.808V18.4H44.457v2.7H43.106V17.053H41.755v4.053H40.4V19.755Z" transform="translate(-11.033 -3.894)" fill="url(#linear-gradient)"/>
      <path id="Path_28128" data-name="Path 28128" d="M43,5h1.351V6.351H43Z" transform="translate(-13.629 -1.298)" fill="url(#linear-gradient)"/>
      <path id="Path_28129" data-name="Path 28129" d="M47,5h8.106V6.351H47Z" transform="translate(-14.927 -1.298)" fill="url(#linear-gradient)"/>
      <path id="Path_28130" data-name="Path 28130" d="M43,9H53.808v1.351H43Z" transform="translate(-13.629 -2.596)" fill="url(#linear-gradient)"/>
      <path id="Path_28131" data-name="Path 28131" d="M25,21h1.351v1.351H25Z" transform="translate(-7.788 -6.49)" fill="url(#linear-gradient)"/>
      <path id="Path_28132" data-name="Path 28132" d="M25,25h1.351v1.351H25Z" transform="translate(-7.788 -7.788)" fill="url(#linear-gradient)"/>
    </g>
    <g id="best-price" transform="translate(-227 1463)">
      <g id="Group_80" data-name="Group 80" transform="translate(468.338 375.962)">
        <path id="Polygon_1" data-name="Polygon 1" d="M7.11,1.592a1,1,0,0,1,1.752,0L10.682,4.9a1,1,0,0,0,.394.394L14.381,7.11a1,1,0,0,1,0,1.752l-3.305,1.819a1,1,0,0,0-.394.394L8.862,14.381a1,1,0,0,1-1.752,0L5.291,11.076a1,1,0,0,0-.394-.394L1.592,8.862a1,1,0,0,1,0-1.752L4.9,5.291A1,1,0,0,0,5.291,4.9Z" fill="#ffd73b"/>
        <path id="Polygon_2" data-name="Polygon 2" d="M3.246,1.592A1,1,0,0,1,5,1.592l.447.813a1,1,0,0,0,.394.394l.813.447A1,1,0,0,1,6.652,5l-.813.447a1,1,0,0,0-.394.394L5,6.652a1,1,0,0,1-1.752,0L2.8,5.839A1,1,0,0,0,2.4,5.445L1.592,5a1,1,0,0,1,0-1.752L2.4,2.8A1,1,0,0,0,2.8,2.4Z" transform="translate(4.122 4.122)" fill="#ebbb00"/>
      </g>
      <g id="Group_81" data-name="Group 81" transform="translate(409.951 420.034)">
        <path id="Polygon_1-2" data-name="Polygon 1" d="M3.227,1.592a1,1,0,0,1,1.752,0l.441.8a1,1,0,0,0,.394.394l.8.441a1,1,0,0,1,0,1.752l-.8.441a1,1,0,0,0-.394.394l-.441.8a1,1,0,0,1-1.752,0l-.441-.8a1,1,0,0,0-.394-.394l-.8-.441a1,1,0,0,1,0-1.752l.8-.441a1,1,0,0,0,.394-.394Z" transform="translate(0)" fill="#ffd73b"/>
        <path id="Polygon_2-2" data-name="Polygon 2" d="M1.469,1.178a.74.74,0,0,1,1.3,0h0a.74.74,0,0,0,.292.292h0a.74.74,0,0,1,0,1.3h0a.74.74,0,0,0-.292.292h0a.74.74,0,0,1-1.3,0h0a.74.74,0,0,0-.292-.292h0a.74.74,0,0,1,0-1.3h0a.74.74,0,0,0,.292-.292Z" transform="translate(2.118 2.118)" fill="#ebbb00"/>
      </g>
      <g id="Group_82" data-name="Group 82" transform="translate(437.618 362.665)">
        <path id="Polygon_1-3" data-name="Polygon 1" d="M3.227,1.592a1,1,0,0,1,1.752,0l.441.8a1,1,0,0,0,.394.394l.8.441a1,1,0,0,1,0,1.752l-.8.441a1,1,0,0,0-.394.394l-.441.8a1,1,0,0,1-1.752,0l-.441-.8a1,1,0,0,0-.394-.394l-.8-.441a1,1,0,0,1,0-1.752l.8-.441a1,1,0,0,0,.394-.394Z" transform="translate(0 0)" fill="#ffd73b"/>
        <path id="Polygon_2-3" data-name="Polygon 2" d="M1.469,1.178a.74.74,0,0,1,1.3,0h0a.74.74,0,0,0,.292.292h0a.74.74,0,0,1,0,1.3h0a.74.74,0,0,0-.292.292h0a.74.74,0,0,1-1.3,0h0a.74.74,0,0,0-.292-.292h0a.74.74,0,0,1,0-1.3h0a.74.74,0,0,0,.292-.292Z" transform="translate(2.118 2.118)" fill="#ebbb00"/>
      </g>
    </g>
  </g>
</svg>
