<svg xmlns="http://www.w3.org/2000/svg" xmlns:xlink="http://www.w3.org/1999/xlink" width="182.06" height="182.06" viewBox="0 0 182.06 182.06">
  <defs>
    <filter id="Path_3" x="7.628" y="7.357" width="168.549" height="168.549" filterUnits="userSpaceOnUse">
      <feOffset input="SourceAlpha"/>
      <feGaussianBlur stdDeviation="3" result="blur"/>
      <feFlood flood-color="#fff"/>
      <feComposite operator="in" in2="blur"/>
      <feComposite in="SourceGraphic"/>
    </filter>
  </defs>
  <g id="_12-month" data-name="12-month" transform="translate(-124.297 -953.643)">
    <g id="Group_7584" data-name="Group 7584" transform="translate(-363.208 85.326) rotate(-13)">
      <path id="Path_2" data-name="Path 2" d="M75.9,0A75.913,75.913,0,1,1,0,75.9,75.9,75.9,0,0,1,75.9,0Z" transform="translate(272 989)" fill="#0064d8"/>
      <path id="Path_1" data-name="Path 1" d="M0,0H100.228L97.3,56.107l10.031,8.21-7.1,28.649H0L4.811,70.457l6.455-11.142Z" transform="translate(303.364 1036.613) rotate(19)" fill="#1c2848"/>
      <g id="Group_7583" data-name="Group 7583" transform="translate(285.623 1002.623)">
        <g transform="matrix(0.97, 0.22, -0.22, 0.97, -5.94, -46.9)" filter="url(#Path_3)">
          <g id="Path_3-2" data-name="Path 3" transform="translate(16.63 44.59) rotate(-13)" fill="#fff">
            <path d="M 62.76435089111328 125.0287017822266 C 54.35850143432617 125.0287017822266 46.20434951782227 123.3825149536133 38.52841567993164 120.1358642578125 C 34.8390998840332 118.5754165649414 31.28071784973145 116.6439819335938 27.95211791992188 114.3952178955078 C 24.65500068664551 112.1677322387695 21.55451774597168 109.609619140625 18.73681831359863 106.7919006347656 C 15.91910076141357 103.9741821289063 13.3609676361084 100.8737030029297 11.13348388671875 97.57659912109375 C 8.88471794128418 94.24798583984375 6.95328426361084 90.68959808349609 5.392834186553955 87.00029754638672 C 2.146184206008911 79.32434844970703 0.5000008940696716 71.17020416259766 0.5000008940696716 62.76435089111328 C 0.5000008940696716 54.35850143432617 2.146184206008911 46.20434951782227 5.392834186553955 38.52841567993164 C 6.95328426361084 34.8390998840332 8.88471794128418 31.28071784973145 11.13348388671875 27.95211791992188 C 13.3609676361084 24.65500068664551 15.91910076141357 21.55451774597168 18.73681831359863 18.73681831359863 C 21.55451774597168 15.91910076141357 24.65500068664551 13.3609676361084 27.95211791992188 11.13348388671875 C 31.28071784973145 8.88471794128418 34.8390998840332 6.95328426361084 38.52841567993164 5.392834186553955 C 46.20434951782227 2.146184206008911 54.35850143432617 0.5000008940696716 62.76435089111328 0.5000008940696716 C 71.17020416259766 0.5000008940696716 79.32434844970703 2.146184206008911 87.00029754638672 5.392834186553955 C 90.68959808349609 6.95328426361084 94.24798583984375 8.88471794128418 97.57659912109375 11.13348388671875 C 100.8737030029297 13.3609676361084 103.9741821289063 15.91910076141357 106.7919006347656 18.73681831359863 C 109.609619140625 21.55451774597168 112.1677322387695 24.65500068664551 114.3952178955078 27.95211791992188 C 116.6439819335938 31.28071784973145 118.5754165649414 34.8390998840332 120.1358642578125 38.52841567993164 C 123.3825149536133 46.20434951782227 125.0287017822266 54.35850143432617 125.0287017822266 62.76435089111328 C 125.0287017822266 71.17020416259766 123.3825149536133 79.32434844970703 120.1358642578125 87.00029754638672 C 118.5754165649414 90.68959808349609 116.6439819335938 94.24798583984375 114.3952178955078 97.57659912109375 C 112.1677322387695 100.8737030029297 109.609619140625 103.9741821289063 106.7919006347656 106.7919006347656 C 103.9741821289063 109.609619140625 100.8737030029297 112.1677322387695 97.57659912109375 114.3952178955078 C 94.24798583984375 116.6439819335938 90.68959808349609 118.5754165649414 87.00029754638672 120.1358642578125 C 79.32434844970703 123.3825149536133 71.17020416259766 125.0287017822266 62.76435089111328 125.0287017822266 Z" stroke="none"/>
            <path d="M 62.76435089111328 1 C 54.42576599121094 1 46.33715057373047 2.632904052734375 38.72318267822266 5.85333251953125 C 35.0635986328125 7.401199340820313 31.53386688232422 9.317100524902344 28.23201751708984 11.54778289794922 C 24.96126556396484 13.75745391845703 21.88556671142578 16.29515075683594 19.09034729003906 19.09034729003906 C 16.29515075683594 21.88556671142578 13.75745391845703 24.96126556396484 11.54778289794922 28.23201751708984 C 9.317100524902344 31.53386688232422 7.401199340820313 35.0635986328125 5.85333251953125 38.72318267822266 C 2.632904052734375 46.33715057373047 1 54.42576599121094 1 62.76435089111328 C 1 71.10293579101563 2.632904052734375 79.19155120849609 5.85333251953125 86.80551910400391 C 7.401199340820313 90.46510314941406 9.317100524902344 93.99483489990234 11.54778289794922 97.29668426513672 C 13.75745391845703 100.5674362182617 16.29515075683594 103.6431350708008 19.09034729003906 106.4383544921875 C 21.88556671142578 109.2335510253906 24.96126556396484 111.7712478637695 28.23201751708984 113.9809188842773 C 31.53386688232422 116.2116012573242 35.0635986328125 118.1275024414063 38.72318267822266 119.6753692626953 C 46.33715057373047 122.8957977294922 54.42576599121094 124.5287017822266 62.76435089111328 124.5287017822266 C 71.10293579101563 124.5287017822266 79.19155120849609 122.8957977294922 86.80551910400391 119.6753692626953 C 90.46510314941406 118.1275024414063 93.99483489990234 116.2116012573242 97.29668426513672 113.9809188842773 C 100.5674362182617 111.7712478637695 103.6431350708008 109.2335510253906 106.4383544921875 106.4383544921875 C 109.2335510253906 103.6431350708008 111.7712478637695 100.5674362182617 113.9809188842773 97.29668426513672 C 116.2116012573242 93.99483489990234 118.1275024414063 90.46510314941406 119.6753692626953 86.80551910400391 C 122.8957977294922 79.19155120849609 124.5287017822266 71.10293579101563 124.5287017822266 62.76435089111328 C 124.5287017822266 54.42576599121094 122.8957977294922 46.33715057373047 119.6753692626953 38.72318267822266 C 118.1275024414063 35.0635986328125 116.2116012573242 31.53386688232422 113.9809188842773 28.23201751708984 C 111.7712478637695 24.96126556396484 109.2335510253906 21.88556671142578 106.4383544921875 19.09034729003906 C 103.6431350708008 16.29515075683594 100.5674362182617 13.75745391845703 97.29668426513672 11.54778289794922 C 93.99483489990234 9.317100524902344 90.46510314941406 7.401199340820313 86.80551910400391 5.85333251953125 C 79.19155120849609 2.632904052734375 71.10293579101563 1 62.76435089111328 1 M 62.76435089111328 0 C 97.42814636230469 0 125.5287017822266 28.10054779052734 125.5287017822266 62.76435089111328 C 125.5287017822266 97.42814636230469 97.42814636230469 125.5287017822266 62.76435089111328 125.5287017822266 C 28.10054779052734 125.5287017822266 0 97.42814636230469 0 62.76435089111328 C 0 28.10054779052734 28.10054779052734 0 62.76435089111328 0 Z" stroke="none" fill="#fff"/>
          </g>
        </g>
        <circle id="Ellipse_3" data-name="Ellipse 3" cx="15.569" cy="15.569" r="15.569" transform="translate(32.112 105.094)" fill="#c1ddfc"/>
      </g>
      <g id="calendar_4_" data-name="calendar (4)" transform="translate(323.892 1030.957) rotate(13)">
        <path id="Path_15" data-name="Path 15" d="M45.333,9.5A3.333,3.333,0,0,0,42,6.167h-.833v2.5A1.667,1.667,0,0,1,39.5,10.333H37.833A1.667,1.667,0,0,0,39.5,8.667v-5a1.667,1.667,0,1,0-3.333,0v2.5H32v2.5a1.667,1.667,0,0,1-1.667,1.667H28.667a1.667,1.667,0,0,0,1.667-1.667v-5a1.667,1.667,0,0,0-3.333,0v2.5H22v2.5a1.667,1.667,0,0,1-1.667,1.667H18.667a1.667,1.667,0,0,0,1.667-1.667v-5a1.667,1.667,0,0,0-3.333,0v2.5H12.833v2.5a1.667,1.667,0,0,1-1.667,1.667H9.5a1.667,1.667,0,0,0,1.667-1.667v-5a1.667,1.667,0,1,0-3.333,0v2.5h-2.5A3.333,3.333,0,0,0,2,9.5v5H45.333Z" fill="#1c2848"/>
        <path id="Path_16" data-name="Path 16" d="M49.167,40a9.167,9.167,0,1,0,9.167,9.167A9.167,9.167,0,0,0,49.167,40Zm0,10.833a1.655,1.655,0,0,1-.6-.117l-3.043,2.435-1.042-1.3,3.046-2.436a1.591,1.591,0,0,1,.809-1.682V42.5H50v5.231a1.662,1.662,0,0,1-.833,3.1Z" transform="translate(-6.333 -6.333)" fill="#1c2848"/>
        <path id="Path_17" data-name="Path 17" d="M5.333,49.833h27.5a10.835,10.835,0,0,1,5.833-14.167H34.5v-5h5v4.695a10.669,10.669,0,0,1,5.833-.226V19H2V46.5a3.332,3.332,0,0,0,3.333,3.333ZM34.5,21.5h5v5h-5Zm-9.167,0h5v5h-5Zm0,9.167h5v5h-5Zm0,9.167h5v5h-5ZM16.167,21.5h5v5h-5Zm0,9.167h5v5h-5Zm0,9.167h5v5h-5ZM7,21.5h5v5H7Zm0,9.167h5v5H7Zm0,9.167h5v5H7Z" transform="translate(0 -2.833)" fill="#0064d8"/>
      </g>
    </g>
    <g id="Group_7596" data-name="Group 7596" transform="translate(-1.628 3.972)">
      <g id="Group_7595" data-name="Group 7595" transform="translate(-232.993 645)">
        <g id="Group_80" data-name="Group 80" transform="translate(468.797 389.723)">
          <path id="Polygon_1" data-name="Polygon 1" d="M5.688,1.592a1,1,0,0,1,1.752,0L8.754,3.98a1,1,0,0,0,.394.394l2.388,1.314a1,1,0,0,1,0,1.752L9.148,8.754a1,1,0,0,0-.394.394L7.44,11.536a1,1,0,0,1-1.752,0L4.374,9.148a1,1,0,0,0-.394-.394L1.592,7.44a1,1,0,0,1,0-1.752L3.98,4.374a1,1,0,0,0,.394-.394Z" transform="translate(0 0)" fill="#ffd73b"/>
          <path id="Polygon_2" data-name="Polygon 2" d="M2.512,1.592a1,1,0,0,1,1.752,0l.187.339a1,1,0,0,0,.394.394l.339.187a1,1,0,0,1,0,1.752l-.339.187a1,1,0,0,0-.394.394l-.187.339a1,1,0,0,1-1.752,0l-.187-.339a1,1,0,0,0-.394-.394l-.339-.187a1,1,0,0,1,0-1.752l.339-.187a1,1,0,0,0,.394-.394Z" transform="translate(3.388 3.388)" fill="#ebbb00"/>
        </g>
        <g id="Group_81" data-name="Group 81" transform="translate(434.5 419.588)">
          <path id="Polygon_1-2" data-name="Polygon 1" d="M2.5,1.592a1,1,0,0,1,1.752,0l.181.329a1,1,0,0,0,.394.394l.329.181a1,1,0,0,1,0,1.752l-.329.181a1,1,0,0,0-.394.394l-.181.329a1,1,0,0,1-1.752,0l-.181-.329a1,1,0,0,0-.394-.394l-.329-.181a1,1,0,0,1,0-1.752l.329-.181a1,1,0,0,0,.394-.394Z" fill="#ffd73b"/>
          <path id="Polygon_2-2" data-name="Polygon 2" d="M1.208.968a.608.608,0,0,1,1.066,0h0a.608.608,0,0,0,.24.24h0a.608.608,0,0,1,0,1.066h0a.608.608,0,0,0-.24.24h0a.608.608,0,0,1-1.066,0h0a.608.608,0,0,0-.24-.24h0a.608.608,0,0,1,0-1.066h0a.608.608,0,0,0,.24-.24Z" transform="translate(1.741 1.741)" fill="#ebbb00"/>
        </g>
        <g id="Group_82" data-name="Group 82" transform="translate(460.934 364)">
          <path id="Polygon_1-3" data-name="Polygon 1" d="M2.5,1.592a1,1,0,0,1,1.752,0l.181.329a1,1,0,0,0,.394.394l.329.181a1,1,0,0,1,0,1.752l-.329.181a1,1,0,0,0-.394.394l-.181.329a1,1,0,0,1-1.752,0l-.181-.329a1,1,0,0,0-.394-.394l-.329-.181a1,1,0,0,1,0-1.752l.329-.181a1,1,0,0,0,.394-.394Z" transform="translate(0)" fill="#ffd73b"/>
          <path id="Polygon_2-3" data-name="Polygon 2" d="M1.208.968a.608.608,0,0,1,1.066,0h0a.608.608,0,0,0,.24.24h0a.608.608,0,0,1,0,1.066h0a.608.608,0,0,0-.24.24h0a.608.608,0,0,1-1.066,0h0a.608.608,0,0,0-.24-.24h0a.608.608,0,0,1,0-1.066h0a.608.608,0,0,0,.24-.24Z" transform="translate(1.741 1.741)" fill="#ebbb00"/>
        </g>
      </g>
    </g>
  </g>
</svg>
