<svg xmlns="http://www.w3.org/2000/svg" xmlns:xlink="http://www.w3.org/1999/xlink" width="74.36" height="65.575" viewBox="0 0 74.36 65.575">
  <defs>
    <linearGradient id="linear-gradient" x1="0.5" x2="0.5" y2="1" gradientUnits="objectBoundingBox">
      <stop offset="0" stop-color="#0064d8"/>
      <stop offset="1" stop-color="#00326c"/>
    </linearGradient>
  </defs>
  <g id="budget" transform="translate(-182.951 -1825.665)">
    <g id="_083---Money-Bag" data-name="083---Money-Bag" transform="translate(193 1837)">
      <path id="Shape" d="M24.369,32.9a.812.812,0,0,0,1.624,0c0-2.686-2.485-4.907-5.685-5.233v-.858a.812.812,0,0,0-1.624,0v.858C15.485,27.994,13,30.216,13,32.9s2.485,4.907,5.685,5.233v7.3c-2.3-.291-4.06-1.792-4.06-3.6a.812.812,0,1,0-1.624,0c0,2.686,2.485,4.907,5.685,5.233v.858a.812.812,0,0,0,1.624,0v-.858c3.2-.325,5.685-2.547,5.685-5.233s-2.485-4.907-5.685-5.233V29.3C22.609,29.594,24.369,31.1,24.369,32.9Zm-9.745,0c0-1.807,1.76-3.308,4.06-3.6v7.2C16.384,36.211,14.624,34.71,14.624,32.9Zm9.745,8.933c0,1.807-1.76,3.308-4.06,3.6v-7.2C22.609,38.527,24.369,40.029,24.369,41.836Z" transform="translate(-2.443 -4.886)" fill="url(#linear-gradient)"/>
      <path id="Shape-2" data-name="Shape" d="M2.923,30.155a.812.812,0,0,0-1.078.395A19.815,19.815,0,0,0,0,38.948c0,10.238,5.737,15.43,17.054,15.43A26.26,26.26,0,0,0,23.84,53.6a.812.812,0,0,0-.417-1.57,25.038,25.038,0,0,1-6.369.728c-10.383,0-15.43-4.516-15.43-13.805a17.958,17.958,0,0,1,1.695-7.715A.812.812,0,0,0,2.923,30.155Z" transform="translate(0 -5.653)" fill="url(#linear-gradient)"/>
      <path id="Shape-3" data-name="Shape" d="M52.3,25H34.436A2.436,2.436,0,0,0,32,27.436v23.55a2.436,2.436,0,0,0,2.436,2.436H52.3a2.436,2.436,0,0,0,2.436-2.436V27.436A2.436,2.436,0,0,0,52.3,25Zm.812,25.987a.812.812,0,0,1-.812.812H34.436a.812.812,0,0,1-.812-.812V27.436a.812.812,0,0,1,.812-.812H52.3a.812.812,0,0,1,.812.812Z" transform="translate(-6.013 -4.699)" fill="url(#linear-gradient)"/>
      <path id="Shape-4" data-name="Shape" d="M38.624,36.5H49.993a1.624,1.624,0,0,0,1.624-1.624V31.624A1.624,1.624,0,0,0,49.993,30H38.624A1.624,1.624,0,0,0,37,31.624v3.248A1.624,1.624,0,0,0,38.624,36.5Zm0-4.873H49.993v3.248H38.624Z" transform="translate(-6.953 -5.638)" fill="url(#linear-gradient)"/>
      <path id="Shape-5" data-name="Shape" d="M40.248,41H37.812a.812.812,0,1,0,0,1.624h2.436a.812.812,0,0,0,0-1.624Z" transform="translate(-6.953 -7.705)" fill="url(#linear-gradient)"/>
      <path id="Shape-6" data-name="Shape" d="M40.248,45H37.812a.812.812,0,1,0,0,1.624h2.436a.812.812,0,0,0,0-1.624Z" transform="translate(-6.953 -8.457)" fill="url(#linear-gradient)"/>
      <path id="Shape-7" data-name="Shape" d="M40.248,49H37.812a.812.812,0,0,0,0,1.624h2.436a.812.812,0,0,0,0-1.624Z" transform="translate(-6.953 -9.209)" fill="url(#linear-gradient)"/>
      <path id="Shape-8" data-name="Shape" d="M40.248,53H37.812a.812.812,0,0,0,0,1.624h2.436a.812.812,0,0,0,0-1.624Z" transform="translate(-6.953 -9.96)" fill="url(#linear-gradient)"/>
      <path id="Shape-9" data-name="Shape" d="M47.248,41H44.812a.812.812,0,1,0,0,1.624h2.436a.812.812,0,0,0,0-1.624Z" transform="translate(-8.268 -7.705)" fill="url(#linear-gradient)"/>
      <path id="Shape-10" data-name="Shape" d="M47.248,45H44.812a.812.812,0,1,0,0,1.624h2.436a.812.812,0,0,0,0-1.624Z" transform="translate(-8.268 -8.457)" fill="url(#linear-gradient)"/>
      <path id="Shape-11" data-name="Shape" d="M47.248,49H44.812a.812.812,0,1,0,0,1.624h2.436a.812.812,0,0,0,0-1.624Z" transform="translate(-8.268 -9.209)" fill="url(#linear-gradient)"/>
      <path id="Shape-12" data-name="Shape" d="M47.248,53H44.812a.812.812,0,1,0,0,1.624h2.436a.812.812,0,0,0,0-1.624Z" transform="translate(-8.268 -9.96)" fill="url(#linear-gradient)"/>
      <path id="Shape-13" data-name="Shape" d="M54.248,41H51.812a.812.812,0,0,0,0,1.624h2.436a.812.812,0,0,0,0-1.624Z" transform="translate(-9.584 -7.705)" fill="url(#linear-gradient)"/>
      <path id="Shape-14" data-name="Shape" d="M54.248,45H51.812a.812.812,0,0,0,0,1.624h2.436a.812.812,0,0,0,0-1.624Z" transform="translate(-9.584 -8.457)" fill="url(#linear-gradient)"/>
      <path id="Shape-15" data-name="Shape" d="M54.248,49H51.812a.812.812,0,0,0,0,1.624h2.436a.812.812,0,0,0,0-1.624Z" transform="translate(-9.584 -9.209)" fill="url(#linear-gradient)"/>
      <path id="Shape-16" data-name="Shape" d="M54.248,53H51.812a.812.812,0,0,0,0,1.624h2.436a.812.812,0,0,0,0-1.624Z" transform="translate(-9.584 -9.96)" fill="url(#linear-gradient)"/>
      <path id="Shape-17" data-name="Shape" d="M6.125,1.026c-2.138,1.959,1.618,8,3.832,11.156H9.515a2.828,2.828,0,0,0-2.012.83,2.863,2.863,0,0,0-.831,2.012A2.833,2.833,0,0,0,8.1,17.472a38.248,38.248,0,0,0-2.675,3.155.812.812,0,1,0,1.3.975A39.245,39.245,0,0,1,9.97,17.866h16.6a2.842,2.842,0,0,0,0-5.685h-.442c2.213-3.155,5.97-9.2,3.833-11.156-.983-.9-2.128-.244-3.137.331a6.264,6.264,0,0,1-3.1,1.08,3.146,3.146,0,0,1-2.315-1.023,4.727,4.727,0,0,0-6.74,0,3.146,3.146,0,0,1-2.319,1.023,6.238,6.238,0,0,1-3.094-1.08C8.249.781,7.105.127,6.125,1.026ZM27.432,14.161a1.218,1.218,0,0,1-.863,2.081H9.515a1.218,1.218,0,1,1,0-2.436H26.569a1.226,1.226,0,0,1,.863.356Zm-15.08-10.1a4.727,4.727,0,0,0,3.371-1.414,3.13,3.13,0,0,1,4.629,0,4.73,4.73,0,0,0,3.375,1.414,7.781,7.781,0,0,0,3.905-1.294,3.4,3.4,0,0,1,1.234-.543c.833.763-1.369,5.367-4.736,9.959H22.1V8.121a.812.812,0,1,0-1.624,0v4.06H15.606V8.121a.812.812,0,1,0-1.624,0v4.06H11.958C8.591,7.59,6.389,2.986,7.233,2.211a4.031,4.031,0,0,1,1.218.555,7.764,7.764,0,0,0,3.9,1.294Z" transform="translate(-0.988 -0.001)" fill="url(#linear-gradient)"/>
    </g>
    <g id="best-price" transform="translate(-227 1463)">
      <g id="Group_80" data-name="Group 80" transform="translate(468.338 375.962)">
        <path id="Polygon_1" data-name="Polygon 1" d="M7.11,1.592a1,1,0,0,1,1.752,0L10.682,4.9a1,1,0,0,0,.394.394L14.381,7.11a1,1,0,0,1,0,1.752l-3.305,1.819a1,1,0,0,0-.394.394L8.862,14.381a1,1,0,0,1-1.752,0L5.291,11.076a1,1,0,0,0-.394-.394L1.592,8.862a1,1,0,0,1,0-1.752L4.9,5.291A1,1,0,0,0,5.291,4.9Z" fill="#ffd73b"/>
        <path id="Polygon_2" data-name="Polygon 2" d="M3.246,1.592A1,1,0,0,1,5,1.592l.447.813a1,1,0,0,0,.394.394l.813.447A1,1,0,0,1,6.652,5l-.813.447a1,1,0,0,0-.394.394L5,6.652a1,1,0,0,1-1.752,0L2.8,5.839A1,1,0,0,0,2.4,5.445L1.592,5a1,1,0,0,1,0-1.752L2.4,2.8A1,1,0,0,0,2.8,2.4Z" transform="translate(4.122 4.122)" fill="#ebbb00"/>
      </g>
      <g id="Group_81" data-name="Group 81" transform="translate(409.951 420.034)">
        <path id="Polygon_1-2" data-name="Polygon 1" d="M3.227,1.592a1,1,0,0,1,1.752,0l.441.8a1,1,0,0,0,.394.394l.8.441a1,1,0,0,1,0,1.752l-.8.441a1,1,0,0,0-.394.394l-.441.8a1,1,0,0,1-1.752,0l-.441-.8a1,1,0,0,0-.394-.394l-.8-.441a1,1,0,0,1,0-1.752l.8-.441a1,1,0,0,0,.394-.394Z" transform="translate(0)" fill="#ffd73b"/>
        <path id="Polygon_2-2" data-name="Polygon 2" d="M1.469,1.178a.74.74,0,0,1,1.3,0h0a.74.74,0,0,0,.292.292h0a.74.74,0,0,1,0,1.3h0a.74.74,0,0,0-.292.292h0a.74.74,0,0,1-1.3,0h0a.74.74,0,0,0-.292-.292h0a.74.74,0,0,1,0-1.3h0a.74.74,0,0,0,.292-.292Z" transform="translate(2.118 2.118)" fill="#ebbb00"/>
      </g>
      <g id="Group_82" data-name="Group 82" transform="translate(437.618 362.665)">
        <path id="Polygon_1-3" data-name="Polygon 1" d="M3.227,1.592a1,1,0,0,1,1.752,0l.441.8a1,1,0,0,0,.394.394l.8.441a1,1,0,0,1,0,1.752l-.8.441a1,1,0,0,0-.394.394l-.441.8a1,1,0,0,1-1.752,0l-.441-.8a1,1,0,0,0-.394-.394l-.8-.441a1,1,0,0,1,0-1.752l.8-.441a1,1,0,0,0,.394-.394Z" transform="translate(0 0)" fill="#ffd73b"/>
        <path id="Polygon_2-3" data-name="Polygon 2" d="M1.469,1.178a.74.74,0,0,1,1.3,0h0a.74.74,0,0,0,.292.292h0a.74.74,0,0,1,0,1.3h0a.74.74,0,0,0-.292.292h0a.74.74,0,0,1-1.3,0h0a.74.74,0,0,0-.292-.292h0a.74.74,0,0,1,0-1.3h0a.74.74,0,0,0,.292-.292Z" transform="translate(2.118 2.118)" fill="#ebbb00"/>
      </g>
    </g>
  </g>
</svg>
