<svg xmlns="http://www.w3.org/2000/svg" xmlns:xlink="http://www.w3.org/1999/xlink" width="52.427" height="52.37" viewBox="0 0 52.427 52.37">
  <defs>
    <linearGradient id="linear-gradient" x1="0.5" x2="0.5" y2="1" gradientUnits="objectBoundingBox">
      <stop offset="0" stop-color="#0064d8"/>
      <stop offset="1" stop-color="#00326c"/>
    </linearGradient>
  </defs>
  <g id="data" transform="translate(0 -0.5)">
    <path id="Path_28210" data-name="Path 28210" d="M35.9,133.391a.767.767,0,1,0,1.085-1.085l-1.863-1.863,1.863-1.863A.767.767,0,1,0,35.9,127.5L33.5,129.9a.767.767,0,0,0,0,1.085Zm0,0" transform="translate(-29.867 -113.79)" fill="url(#linear-gradient)"/>
    <path id="Path_28211" data-name="Path 28211" d="M115.019,130.44l-1.863,1.863a.767.767,0,1,0,1.085,1.085l2.406-2.406a.767.767,0,0,0,0-1.085l-2.406-2.406a.767.767,0,0,0-1.085,1.085Zm0,0" transform="translate(-101.368 -113.786)" fill="url(#linear-gradient)"/>
    <path id="Path_28212" data-name="Path 28212" d="M76.9,133.558a.767.767,0,0,0,.995-.434l1.89-4.811a.767.767,0,1,0-1.428-.561l-1.89,4.811a.767.767,0,0,0,.434.995Zm0,0" transform="translate(-68.593 -113.785)" fill="url(#linear-gradient)"/>
    <path id="Path_28213" data-name="Path 28213" d="M38.283,219.749h5.169a.767.767,0,0,0,0-1.535H38.283a.767.767,0,0,0,0,1.535Zm0,0" transform="translate(-33.675 -195.422)" fill="url(#linear-gradient)"/>
    <path id="Path_28214" data-name="Path 28214" d="M125.367,218.215h-9.088a.767.767,0,0,0,0,1.535h9.088a.767.767,0,1,0,0-1.535Zm0,0" transform="translate(-103.684 -195.422)" fill="url(#linear-gradient)"/>
    <path id="Path_28215" data-name="Path 28215" d="M38.283,251.355h2.2a.767.767,0,0,0,0-1.535h-2.2a.767.767,0,0,0,0,1.535Zm0,0" transform="translate(-33.675 -223.791)" fill="url(#linear-gradient)"/>
    <path id="Path_28216" data-name="Path 28216" d="M177.615,249.82a.767.767,0,0,0,0,1.535h1.341a.767.767,0,1,0,0-1.535Zm0,0" transform="translate(-158.74 -223.791)" fill="url(#linear-gradient)"/>
    <path id="Path_28217" data-name="Path 28217" d="M93.433,250.588a.767.767,0,0,0-.767-.767H86.08a.767.767,0,0,0,0,1.535h6.586A.767.767,0,0,0,93.433,250.588Zm0,0" transform="translate(-76.577 -223.791)" fill="url(#linear-gradient)"/>
    <path id="Path_28218" data-name="Path 28218" d="M213.7,250.588a.767.767,0,0,0,.767.768h2.512a.767.767,0,1,0,0-1.535H214.47A.767.767,0,0,0,213.7,250.588Zm0,0" transform="translate(-191.821 -223.791)" fill="url(#linear-gradient)"/>
    <path id="Path_28219" data-name="Path 28219" d="M166.166,150.812h2.649a.767.767,0,1,0,0-1.535h-2.649a.767.767,0,1,0,0,1.535Zm0,0" transform="translate(-148.463 -133.544)" fill="url(#linear-gradient)"/>
    <path id="Path_28220" data-name="Path 28220" d="M221.013,150.812h16.164a.767.767,0,0,0,0-1.535H221.013a.767.767,0,1,0,0,1.535Zm0,0" transform="translate(-197.694 -133.544)" fill="url(#linear-gradient)"/>
    <path id="Path_28221" data-name="Path 28221" d="M297.5,182.246h-6.548a.767.767,0,0,0,0,1.535H297.5a.767.767,0,0,0,0-1.535Zm0,0" transform="translate(-260.47 -163.136)" fill="url(#linear-gradient)"/>
    <path id="Path_28222" data-name="Path 28222" d="M247.244,182.246h-2.251a.767.767,0,0,0,0,1.535h2.251a.767.767,0,0,0,0-1.535Zm0,0" transform="translate(-219.219 -163.136)" fill="url(#linear-gradient)"/>
    <path id="Path_28223" data-name="Path 28223" d="M166.166,183.78h5.514a.767.767,0,0,0,0-1.535h-5.514a.767.767,0,1,0,0,1.535Zm0,0" transform="translate(-148.463 -163.136)" fill="url(#linear-gradient)"/>
    <path id="Path_28224" data-name="Path 28224" d="M105.183,281.16h-5.169a.767.767,0,1,0,0,1.534h5.169a.767.767,0,1,0,0-1.534Zm0,0" transform="translate(-89.084 -251.921)" fill="url(#linear-gradient)"/>
    <path id="Path_28225" data-name="Path 28225" d="M42.254,281.16H38.283a.767.767,0,0,0,0,1.534h3.971a.767.767,0,0,0,0-1.534Zm0,0" transform="translate(-33.675 -251.921)" fill="url(#linear-gradient)"/>
    <path id="Path_28226" data-name="Path 28226" d="M182.809,281.16h-6.752a.767.767,0,1,0,0,1.534h6.752a.767.767,0,1,0,0-1.534Zm0,0" transform="translate(-157.341 -251.921)" fill="url(#linear-gradient)"/>
    <path id="Path_28227" data-name="Path 28227" d="M298.807,242.668h-3.692a.767.767,0,0,0,0,1.535h3.692a.767.767,0,0,0,0-1.535Zm0,0" transform="translate(-264.207 -217.371)" fill="url(#linear-gradient)"/>
    <path id="Path_28228" data-name="Path 28228" d="M393.744,244.2h5.212a.767.767,0,1,0,0-1.535h-5.212a.767.767,0,0,0,0,1.535Zm0,0" transform="translate(-352.738 -217.371)" fill="url(#linear-gradient)"/>
    <path id="Path_28229" data-name="Path 28229" d="M357.818,242.668h-1.194a.767.767,0,1,0,0,1.535h1.194a.767.767,0,0,0,0-1.535Zm0,0" transform="translate(-319.418 -217.371)" fill="url(#linear-gradient)"/>
    <path id="Path_28230" data-name="Path 28230" d="M295.115,325.863h3.692a.767.767,0,0,0,0-1.534h-3.692a.767.767,0,0,0,0,1.534Zm0,0" transform="translate(-264.208 -290.67)" fill="url(#linear-gradient)"/>
    <path id="Path_28231" data-name="Path 28231" d="M393.744,325.863h5.212a.767.767,0,1,0,0-1.534h-5.212a.767.767,0,0,0,0,1.534Zm0,0" transform="translate(-352.738 -290.67)" fill="url(#linear-gradient)"/>
    <path id="Path_28232" data-name="Path 28232" d="M356.627,325.863h1.194a.767.767,0,1,0,0-1.534h-1.194a.767.767,0,1,0,0,1.534Zm0,0" transform="translate(-319.421 -290.67)" fill="url(#linear-gradient)"/>
    <path id="Path_28233" data-name="Path 28233" d="M298.807,405.988h-3.692a.767.767,0,1,0,0,1.534h3.692a.767.767,0,0,0,0-1.534Zm0,0" transform="translate(-264.207 -363.968)" fill="url(#linear-gradient)"/>
    <path id="Path_28234" data-name="Path 28234" d="M398.956,405.988h-5.212a.767.767,0,0,0,0,1.534h5.212a.767.767,0,1,0,0-1.534Zm0,0" transform="translate(-352.737 -363.968)" fill="url(#linear-gradient)"/>
    <path id="Path_28235" data-name="Path 28235" d="M357.818,405.988h-1.194a.767.767,0,1,0,0,1.534h1.194a.767.767,0,1,0,0-1.534Zm0,0" transform="translate(-319.418 -363.968)" fill="url(#linear-gradient)"/>
    <path id="Path_28236" data-name="Path 28236" d="M49.05.5H3.377A3.381,3.381,0,0,0,0,3.877V41a3.381,3.381,0,0,0,3.377,3.377H6.264a.767.767,0,1,0,0-1.534H3.377A1.844,1.844,0,0,1,1.534,41V38.092H29.488v1.322H28.88a1.511,1.511,0,0,0-1.509,1.509v1.922H10.929a.767.767,0,1,0,0,1.534h7.377v2.752H15.99a2.806,2.806,0,0,0-2.8,2.8v1.658a1.28,1.28,0,0,0,1.279,1.279H37.9a1.28,1.28,0,0,0,1.279-1.279V49.934a2.806,2.806,0,0,0-2.8-2.8H34.061v-.97H48.246a1.51,1.51,0,0,0,1.509-1.509v-.361A3.382,3.382,0,0,0,52.368,41l.058-37.126A3.38,3.38,0,0,0,49.05.5ZM28.905,36.265V32.587H48.22v3.678Zm2.117-5.213V29.438H46.1v1.614ZM46.1,37.8v1.615H31.023V37.8Zm-26.262,6.58h7.53v.273a1.51,1.51,0,0,0,1.509,1.509h3.647v.97H19.841Zm16.537,4.287a1.269,1.269,0,0,1,1.268,1.268v1.4H14.721v-1.4a1.27,1.27,0,0,1,1.268-1.268ZM48.22,44.626H28.905V40.949H48.22ZM50.834,41a1.843,1.843,0,0,1-1.079,1.674V40.923a1.511,1.511,0,0,0-1.509-1.509h-.608V38.092h3.2Zm0-4.445h-1.1c.016-.087.025-4,.025-4a1.511,1.511,0,0,0-1.509-1.509h-.608V29.438h.608a1.511,1.511,0,0,0,1.509-1.509V24.2a1.511,1.511,0,0,0-1.509-1.509H43.912a.767.767,0,0,0,0,1.535H48.22V27.9H28.905V24.225H39.138a.767.767,0,0,0,0-1.535H28.88A1.511,1.511,0,0,0,27.37,24.2v3.729a1.511,1.511,0,0,0,1.509,1.509h.608v1.614H28.88a1.511,1.511,0,0,0-1.509,1.509s.01,3.909.025,4H1.534V10.937h49.3Zm0-27.155H1.591V3.877A1.844,1.844,0,0,1,3.433,2.035H48.991a1.844,1.844,0,0,1,1.842,1.842Zm0,0" transform="translate(0 0)" fill="url(#linear-gradient)"/>
    <path id="Path_28237" data-name="Path 28237" d="M35.525,29.262a2.252,2.252,0,1,0,2.252,2.252A2.254,2.254,0,0,0,35.525,29.262Zm0,2.969a.717.717,0,1,1,.717-.717A.718.718,0,0,1,35.525,32.23Zm0,0" transform="translate(-29.867 -25.817)" fill="url(#linear-gradient)"/>
    <path id="Path_28238" data-name="Path 28238" d="M91.51,29.262a2.252,2.252,0,1,0,2.252,2.252A2.254,2.254,0,0,0,91.51,29.262Zm0,2.969a.717.717,0,1,1,.717-.717A.718.718,0,0,1,91.51,32.23Zm0,0" transform="translate(-80.119 -25.817)" fill="url(#linear-gradient)"/>
    <path id="Path_28239" data-name="Path 28239" d="M147.5,29.262a2.252,2.252,0,1,0,2.252,2.252A2.254,2.254,0,0,0,147.5,29.262Zm0,2.969a.717.717,0,1,1,.717-.717A.718.718,0,0,1,147.5,32.23Zm0,0" transform="translate(-130.373 -25.817)" fill="url(#linear-gradient)"/>
  </g>
</svg>
