<svg xmlns="http://www.w3.org/2000/svg" xmlns:xlink="http://www.w3.org/1999/xlink" width="67.333" height="67.354" viewBox="0 0 67.333 67.354">
  <defs>
    <linearGradient id="linear-gradient" x1="0.5" x2="0.5" y2="1" gradientUnits="objectBoundingBox">
      <stop offset="0" stop-color="#0064d8"/>
      <stop offset="1" stop-color="#00326c"/>
    </linearGradient>
  </defs>
  <g id="hand" transform="translate(-0.501)">
    <path id="Path_28240" data-name="Path 28240" d="M220.97,332.44a1.316,1.316,0,1,0-1.861,0A1.317,1.317,0,0,0,220.97,332.44Zm0,0" transform="translate(-189.516 -286.756)" fill="url(#linear-gradient)"/>
    <path id="Path_28241" data-name="Path 28241" d="M188.449,14.467A14.467,14.467,0,1,0,202.916,0,14.483,14.483,0,0,0,188.449,14.467Zm26.3,0A11.837,11.837,0,1,1,202.916,2.631,11.85,11.85,0,0,1,214.752,14.467Zm0,0" transform="translate(-163.223)" fill="url(#linear-gradient)"/>
    <path id="Path_28242" data-name="Path 28242" d="M15.649,251.353a1.315,1.315,0,0,0,1.856.011l6.376-6.282A3.974,3.974,0,0,0,24.818,241l1.372-1.323a3.922,3.922,0,0,1,2.738-1.106H46.412a11.775,11.775,0,0,0,8.256-3.354c.091-.089-.694.837,11.928-14.249a5.261,5.261,0,0,0-8.005-6.828l-7.761,7.976a5.285,5.285,0,0,0-4.089-1.958H32.075a16.967,16.967,0,0,0-6.586-1.315c-6.333,0-11.863,2.925-14.83,8.409a3.929,3.929,0,0,0-3.517,1.09L.885,234.619a1.315,1.315,0,0,0,0,1.855Zm9.839-29.878a14.357,14.357,0,0,1,5.79,1.205,1.313,1.313,0,0,0,.527.11H46.74a2.63,2.63,0,1,1,0,5.261H36.01a1.315,1.315,0,0,0,0,2.63H46.74a5.253,5.253,0,0,0,5.214-5.948c7.507-7.717,8.566-8.8,8.611-8.855a2.631,2.631,0,1,1,4.016,3.4l-11.8,14.1a9.158,9.158,0,0,1-6.375,2.564H28.928a6.539,6.539,0,0,0-4.565,1.844l-1.118,1.079-10.3-10.3c2.408-4.517,6.927-7.087,12.547-7.087ZM9,230.2a1.312,1.312,0,0,1,1.628-.185c.228.139-.426-.456,11.391,11.344a1.318,1.318,0,0,1,.007,1.854l-5.436,5.355L3.671,235.55Zm0,0" transform="translate(0 -184.388)" fill="url(#linear-gradient)"/>
    <path id="Path_28243" data-name="Path 28243" d="M268.5,41.3v1.541a3.945,3.945,0,0,0,1.315,7.665,1.315,1.315,0,0,1,0,2.63,2.379,2.379,0,0,1-1.708-.995,1.315,1.315,0,0,0-2.013,1.693A5.455,5.455,0,0,0,268.5,55.55v1.535a1.315,1.315,0,1,0,2.63,0V55.544a3.945,3.945,0,0,0-1.315-7.665,1.315,1.315,0,0,1,0-2.631,2.112,2.112,0,0,1,1.422.688,1.315,1.315,0,0,0,1.829-1.89,5.081,5.081,0,0,0-1.937-1.211V41.3a1.315,1.315,0,1,0-2.63,0Zm0,0" transform="translate(-230.387 -34.728)" fill="url(#linear-gradient)"/>
  </g>
</svg>
