<svg xmlns="http://www.w3.org/2000/svg" xmlns:xlink="http://www.w3.org/1999/xlink" width="74.36" height="65.575" viewBox="0 0 74.36 65.575">
  <defs>
    <linearGradient id="linear-gradient" x1="0.5" x2="0.5" y2="1" gradientUnits="objectBoundingBox">
      <stop offset="0" stop-color="#0064d8"/>
      <stop offset="1" stop-color="#00326c"/>
    </linearGradient>
  </defs>
  <g id="invoicing" transform="translate(-182.951 -1825.665)">
    <g id="administrator" transform="translate(193 1840)">
      <path id="Path_28120" data-name="Path 28120" d="M45.848,14.587V9.113l-2.021-.5q-.133-.36-.3-.72L44.6,6.113,40.734,2.242l-1.782,1.08q-.359-.167-.72-.3L37.735,1H32.26l-.5,2.021q-.36.133-.72.3L29.261,2.243,25.389,6.114,26.468,7.9q-.167.359-.3.72l-2.02.5V14.02H4.617A3.621,3.621,0,0,0,1,17.637V35a3.621,3.621,0,0,0,3.617,3.617H10.4v2.893H7.51a1.448,1.448,0,0,0-1.447,1.447V44.4A1.448,1.448,0,0,0,7.51,45.848H45.848V42.954a11.587,11.587,0,0,0-8.354-11.108,5.773,5.773,0,0,0,.253-9.423l.074-.072.411-1.672q.36-.133.72-.3l1.783,1.079,3.871-3.871L43.526,15.8q.167-.359.3-.72Zm-41.231.88H29.211a2.173,2.173,0,0,1,2.17,2.17v4.4a5.82,5.82,0,0,0-1.447,1.189V18.36a1.448,1.448,0,0,0-1.447-1.447H5.34A1.448,1.448,0,0,0,3.893,18.36V32.827H2.447V17.637A2.173,2.173,0,0,1,4.617,15.467ZM29.934,11.85a5.092,5.092,0,1,1,2.623,4.425,3.631,3.631,0,0,0-1.985-1.984A5.053,5.053,0,0,1,29.934,11.85Zm7.86,28.188L35.3,44.4h-.075l2.993-10.774c.309.131.61.278.9.438l-.459,2.754-1.651,1.651ZM33.247,44.4l-2.493-4.363.783-1.567L29.886,36.82l-.459-2.754a10,10,0,0,1,.9-.438L33.322,44.4ZM25.594,32.827H24.147V21.254h1.447Zm4.34-.595V30.856a5.777,5.777,0,0,0,1.12.99A11.371,11.371,0,0,0,29.934,32.233Zm-1.447.595H27.041V19.807H22.7v13.02H21.254V22.7h-4.34V32.827H15.467V25.594h-4.34v7.233H5.34V18.36H28.487Zm-8.68,0H18.36v-8.68h1.447Zm-5.787,0H12.574V27.041H14.02ZM2.447,35v-.723h24.2a11.641,11.641,0,0,0-2.378,2.893H4.617A2.173,2.173,0,0,1,2.447,35Zm9.4,3.617h11.7a11.453,11.453,0,0,0-.752,2.893H11.85ZM7.51,44.4V42.954H22.7V44.4Zm16.637,0V42.954a10.1,10.1,0,0,1,3.96-8.014l.429,2.574,1.242,1.242-.663,1.327L31.581,44.4H27.764V38.614H26.317V44.4H24.176ZM44.4,42.954V44.4h-2.17V38.614H40.784V44.4H36.967l2.467-4.318-.663-1.327,1.242-1.242.429-2.574A10.106,10.106,0,0,1,44.4,42.954ZM36.843,33.17l-2.569,9.25L31.7,33.17a9.8,9.8,0,0,1,5.139,0Zm1.771-6.13a4.34,4.34,0,1,1-4.34-4.34A4.344,4.344,0,0,1,38.614,27.041Zm4.166-9.674-2.266,2.266-1.5-.908-.36.187a7.88,7.88,0,0,1-1.248.522l-.388.122-.5,2.047-.077.075a5.675,5.675,0,0,0-3.611-.234V17.973a6.563,6.563,0,1,0-3.952-3.952H25.594V10.247l1.7-.417.122-.388a7.937,7.937,0,0,1,.522-1.248l.187-.36-.908-1.5,2.266-2.266,1.5.908.36-.187a7.88,7.88,0,0,1,1.248-.522l.388-.122.417-1.7H36.6l.417,1.7.388.122a7.937,7.937,0,0,1,1.248.522l.36.187,1.5-.908L42.78,6.335l-.908,1.5.187.36a7.88,7.88,0,0,1,.522,1.248l.122.388,1.7.417v3.206l-1.7.417-.122.387a7.915,7.915,0,0,1-.522,1.249l-.187.36Z" transform="translate(0)" fill="url(#linear-gradient)"/>
      <path id="Path_28121" data-name="Path 28121" d="M46.617,18.233A3.617,3.617,0,1,0,43,14.617,3.621,3.621,0,0,0,46.617,18.233Zm0-5.787a2.17,2.17,0,1,1-2.17,2.17A2.173,2.173,0,0,1,46.617,12.447Z" transform="translate(-11.619 -2.767)" fill="url(#linear-gradient)"/>
      <path id="Path_28122" data-name="Path 28122" d="M9,27h1.447v1.447H9Z" transform="translate(-2.213 -7.193)" fill="url(#linear-gradient)"/>
      <path id="Path_28123" data-name="Path 28123" d="M13,27h1.447v1.447H13Z" transform="translate(-3.32 -7.193)" fill="url(#linear-gradient)"/>
      <path id="Path_28124" data-name="Path 28124" d="M17,27h1.447v1.447H17Z" transform="translate(-4.426 -7.193)" fill="url(#linear-gradient)"/>
      <path id="Path_28125" data-name="Path 28125" d="M9,31h7.233v1.447H9Z" transform="translate(-2.213 -8.3)" fill="url(#linear-gradient)"/>
    </g>
    <g id="best-price" transform="translate(-227 1463)">
      <g id="Group_80" data-name="Group 80" transform="translate(468.338 375.962)">
        <path id="Polygon_1" data-name="Polygon 1" d="M7.11,1.592a1,1,0,0,1,1.752,0L10.682,4.9a1,1,0,0,0,.394.394L14.381,7.11a1,1,0,0,1,0,1.752l-3.305,1.819a1,1,0,0,0-.394.394L8.862,14.381a1,1,0,0,1-1.752,0L5.291,11.076a1,1,0,0,0-.394-.394L1.592,8.862a1,1,0,0,1,0-1.752L4.9,5.291A1,1,0,0,0,5.291,4.9Z" fill="#ffd73b"/>
        <path id="Polygon_2" data-name="Polygon 2" d="M3.246,1.592A1,1,0,0,1,5,1.592l.447.813a1,1,0,0,0,.394.394l.813.447A1,1,0,0,1,6.652,5l-.813.447a1,1,0,0,0-.394.394L5,6.652a1,1,0,0,1-1.752,0L2.8,5.839A1,1,0,0,0,2.4,5.445L1.592,5a1,1,0,0,1,0-1.752L2.4,2.8A1,1,0,0,0,2.8,2.4Z" transform="translate(4.122 4.122)" fill="#ebbb00"/>
      </g>
      <g id="Group_81" data-name="Group 81" transform="translate(409.951 420.034)">
        <path id="Polygon_1-2" data-name="Polygon 1" d="M3.227,1.592a1,1,0,0,1,1.752,0l.441.8a1,1,0,0,0,.394.394l.8.441a1,1,0,0,1,0,1.752l-.8.441a1,1,0,0,0-.394.394l-.441.8a1,1,0,0,1-1.752,0l-.441-.8a1,1,0,0,0-.394-.394l-.8-.441a1,1,0,0,1,0-1.752l.8-.441a1,1,0,0,0,.394-.394Z" transform="translate(0)" fill="#ffd73b"/>
        <path id="Polygon_2-2" data-name="Polygon 2" d="M1.469,1.178a.74.74,0,0,1,1.3,0h0a.74.74,0,0,0,.292.292h0a.74.74,0,0,1,0,1.3h0a.74.74,0,0,0-.292.292h0a.74.74,0,0,1-1.3,0h0a.74.74,0,0,0-.292-.292h0a.74.74,0,0,1,0-1.3h0a.74.74,0,0,0,.292-.292Z" transform="translate(2.118 2.118)" fill="#ebbb00"/>
      </g>
      <g id="Group_82" data-name="Group 82" transform="translate(437.618 362.665)">
        <path id="Polygon_1-3" data-name="Polygon 1" d="M3.227,1.592a1,1,0,0,1,1.752,0l.441.8a1,1,0,0,0,.394.394l.8.441a1,1,0,0,1,0,1.752l-.8.441a1,1,0,0,0-.394.394l-.441.8a1,1,0,0,1-1.752,0l-.441-.8a1,1,0,0,0-.394-.394l-.8-.441a1,1,0,0,1,0-1.752l.8-.441a1,1,0,0,0,.394-.394Z" transform="translate(0 0)" fill="#ffd73b"/>
        <path id="Polygon_2-3" data-name="Polygon 2" d="M1.469,1.178a.74.74,0,0,1,1.3,0h0a.74.74,0,0,0,.292.292h0a.74.74,0,0,1,0,1.3h0a.74.74,0,0,0-.292.292h0a.74.74,0,0,1-1.3,0h0a.74.74,0,0,0-.292-.292h0a.74.74,0,0,1,0-1.3h0a.74.74,0,0,0,.292-.292Z" transform="translate(2.118 2.118)" fill="#ebbb00"/>
      </g>
    </g>
  </g>
</svg>
