<svg xmlns="http://www.w3.org/2000/svg" width="182.088" height="182.088" viewBox="0 0 182.088 182.088">
  <g id="budgets" transform="translate(-124.999 -998.198)">
    <g id="Group_8775" data-name="Group 8775">
      <g id="Group_7601" data-name="Group 7601" transform="translate(0 47.319)">
        <g id="Group_7595" data-name="Group 7595" transform="translate(-234.993 648)">
          <g id="Group_80" data-name="Group 80" transform="translate(468.797 389.723)">
            <path id="Polygon_1" data-name="Polygon 1" d="M5.688,1.592a1,1,0,0,1,1.752,0L8.754,3.98a1,1,0,0,0,.394.394l2.388,1.314a1,1,0,0,1,0,1.752L9.148,8.754a1,1,0,0,0-.394.394L7.44,11.536a1,1,0,0,1-1.752,0L4.374,9.148a1,1,0,0,0-.394-.394L1.592,7.44a1,1,0,0,1,0-1.752L3.98,4.374a1,1,0,0,0,.394-.394Z" fill="#ffd73b"/>
            <path id="Polygon_2" data-name="Polygon 2" d="M2.512,1.592a1,1,0,0,1,1.752,0l.187.339a1,1,0,0,0,.394.394l.339.187a1,1,0,0,1,0,1.752l-.339.187a1,1,0,0,0-.394.394l-.187.339a1,1,0,0,1-1.752,0l-.187-.339a1,1,0,0,0-.394-.394l-.339-.187a1,1,0,0,1,0-1.752l.339-.187a1,1,0,0,0,.394-.394Z" transform="translate(3.388 3.388)" fill="#ebbb00"/>
          </g>
          <g id="Group_81" data-name="Group 81" transform="translate(434.5 416.588)">
            <path id="Polygon_1-2" data-name="Polygon 1" d="M2.5,1.592a1,1,0,0,1,1.752,0l.181.329a1,1,0,0,0,.394.394l.329.181a1,1,0,0,1,0,1.752l-.329.181a1,1,0,0,0-.394.394l-.181.329a1,1,0,0,1-1.752,0l-.181-.329a1,1,0,0,0-.394-.394L1.6,4.248A1,1,0,0,1,1.6,2.5l.329-.181a1,1,0,0,0,.394-.394Z" fill="#ffd73b"/>
            <path id="Polygon_2-2" data-name="Polygon 2" d="M1.208.968a.608.608,0,0,1,1.066,0h0a.608.608,0,0,0,.24.24h0a.608.608,0,0,1,0,1.066h0a.608.608,0,0,0-.24.24h0a.608.608,0,0,1-1.066,0h0a.608.608,0,0,0-.24-.24h0a.608.608,0,0,1,0-1.066h0a.608.608,0,0,0,.24-.24Z" transform="translate(1.741 1.741)" fill="#ebbb00"/>
          </g>
          <g id="Group_82" data-name="Group 82" transform="translate(460.934 368)">
            <path id="Polygon_1-3" data-name="Polygon 1" d="M2.5,1.592a1,1,0,0,1,1.752,0l.181.329a1,1,0,0,0,.394.394l.329.181a1,1,0,0,1,0,1.752l-.329.181a1,1,0,0,0-.394.394l-.181.329a1,1,0,0,1-1.752,0l-.181-.329a1,1,0,0,0-.394-.394L1.6,4.248A1,1,0,0,1,1.6,2.5l.329-.181a1,1,0,0,0,.394-.394Z" fill="#ffd73b"/>
            <path id="Polygon_2-3" data-name="Polygon 2" d="M1.208.968a.608.608,0,0,1,1.066,0h0a.608.608,0,0,0,.24.24h0a.608.608,0,0,1,0,1.066h0a.608.608,0,0,0-.24.24h0a.608.608,0,0,1-1.066,0h0a.608.608,0,0,0-.24-.24h0a.608.608,0,0,1,0-1.066h0a.608.608,0,0,0,.24-.24Z" transform="translate(1.741 1.741)" fill="#ebbb00"/>
          </g>
        </g>
      </g>
    </g>
    <g id="Group_8774" data-name="Group 8774">
      <g id="Group_7599" data-name="Group 7599" transform="translate(-362.505 129.886) rotate(-13)">
        <path id="Path_2" data-name="Path 2" d="M75.9,0A75.913,75.913,0,1,1,0,75.9,75.916,75.916,0,0,1,75.9,0Z" transform="translate(272 989)" fill="#0064d8"/>
        <path id="Path_1" data-name="Path 1" d="M0,0H100.228L97.3,56.107l10.031,8.21-7.1,28.649H0L4.811,70.457l6.455-11.142Z" transform="translate(303.364 1036.613) rotate(19)" fill="#1c2848"/>
        <g id="Group_7583" data-name="Group 7583" transform="translate(285.623 1002.623)">
          <g id="Path_3" data-name="Path 3" transform="matrix(1, -0.004, 0.004, 1, 0.507, 0.04)">
            <path id="Path_35" data-name="Path 35" d="M62.428,124.359A61.635,61.635,0,0,1,27.8,113.782,62.112,62.112,0,0,1,5.364,86.534,61.848,61.848,0,0,1,11.074,27.8,62.113,62.113,0,0,1,38.322,5.364a61.848,61.848,0,0,1,58.732,5.71,62.12,62.12,0,0,1,22.438,27.248,61.845,61.845,0,0,1-5.71,58.732,62.118,62.118,0,0,1-27.248,22.438A61.536,61.536,0,0,1,62.428,124.359Z" fill="#fff"/>
            <path id="Path_36" data-name="Path 36" d="M62.428.995A61.141,61.141,0,0,0,28.081,11.486,61.615,61.615,0,0,0,5.822,38.516a61.351,61.351,0,0,0,5.664,58.259,61.607,61.607,0,0,0,27.03,22.258,61.355,61.355,0,0,0,58.259-5.663,61.608,61.608,0,0,0,22.258-27.03,61.355,61.355,0,0,0-5.663-58.259A61.616,61.616,0,0,0,86.34,5.822,61.047,61.047,0,0,0,62.428.995m0-.995A62.428,62.428,0,1,1,0,62.428,62.428,62.428,0,0,1,62.428,0Z" fill="#fff"/>
            <g id="budget" transform="translate(46.487 37.711) rotate(13.221)">
              <g id="_083---Money-Bag" data-name="083---Money-Bag" transform="translate(-0.004 0.005)">
                <path id="Shape" d="M274.2,542.184c2.1-.265,3.7-1.635,3.7-3.283s-1.605-3.018-3.7-3.283Z" transform="translate(-259.381 -506.675)" fill="#0465c9"/>
                <path id="Shape-2" data-name="Shape" d="M6.7,274.2a28.632,28.632,0,0,0-4.81,6.278l-.35.76A16.378,16.378,0,0,0,0,288.273c0,8.474,4.6,12.594,14.076,12.594a18.718,18.718,0,0,0,8.149-1.526v-20.7a2.217,2.217,0,0,1,1.208-1.965c-.638-.782-1.37-1.6-2.228-2.48ZM20,291.607c0,2.451-2.267,4.476-5.186,4.774v.782a.741.741,0,0,1-1.482,0v-.782c-2.919-.3-5.186-2.323-5.186-4.774a.741.741,0,0,1,1.482,0c0,1.648,1.6,3.018,3.7,3.283v-6.659c-2.919-.3-5.186-2.323-5.186-4.774s2.267-4.476,5.186-4.774V277.9a.741.741,0,0,1,1.482,0v.782c2.919.3,5.186,2.323,5.186,4.774a.741.741,0,0,1-1.482,0c0-1.648-1.6-3.018-3.7-3.283v6.659C17.731,287.131,20,289.156,20,291.607Z" transform="translate(0.004 -259.381)" fill="#0562d4"/>
                <path id="Shape-3" data-name="Shape" d="M178.228,388.092c0,1.648,1.6,3.018,3.7,3.283v-6.567C179.834,385.074,178.228,386.444,178.228,388.092Z" transform="translate(-168.597 -364.015)" fill="#0465c9"/>
                <rect id="Rectangle-path" width="10.372" height="2.963" rx="1.482" transform="translate(27.411 22.225)" fill="#0562d4"/>
                <path id="Shape-4" data-name="Shape" d="M97.08,205.648a1.111,1.111,0,1,0,0,2.222h15.557a1.111,1.111,0,1,0,0-2.222Z" transform="translate(-90.783 -194.536)" fill="#1d254a"/>
                <path id="Shape-5" data-name="Shape" d="M81.3,9.636v-3.7a.741.741,0,1,1,1.482,0v3.7h4.445v-3.7a.741.741,0,1,1,1.482,0v3.7h1.846c3.071-4.189,5.081-8.388,4.321-9.085a3.1,3.1,0,0,0-1.125.5,7.1,7.1,0,0,1-3.56,1.181A4.315,4.315,0,0,1,87.114.938a2.855,2.855,0,0,0-4.223,0,4.312,4.312,0,0,1-3.078,1.289,7.083,7.083,0,0,1-3.556-1.181A3.677,3.677,0,0,0,75.146.54c-.773.707,1.236,4.907,4.308,9.1Z" transform="translate(-70.928 -0.005)" fill="#1d254a"/>
                <path id="Shape-6" data-name="Shape" d="M455.755,342.747h-16.3a.741.741,0,0,0-.741.741v21.484a.741.741,0,0,0,.741.741h16.3a.741.741,0,0,0,.741-.741V343.488a.741.741,0,0,0-.741-.741Zm-14.817,3.7a1.482,1.482,0,0,1,1.482-1.482h10.372a1.482,1.482,0,0,1,1.482,1.482v2.963a1.482,1.482,0,0,1-1.482,1.482H442.42a1.482,1.482,0,0,1-1.482-1.482ZM443.9,363.49h-2.223a.741.741,0,0,1,0-1.482H443.9a.741.741,0,0,1,0,1.482Zm0-2.963h-2.223a.741.741,0,0,1,0-1.482H443.9a.741.741,0,1,1,0,1.482Zm0-2.963h-2.223a.741.741,0,0,1,0-1.482H443.9a.741.741,0,1,1,0,1.482Zm0-2.963h-2.223a.741.741,0,0,1,0-1.482H443.9a.741.741,0,0,1,0,1.482Zm5.186,8.89h-2.222a.741.741,0,0,1,0-1.482h2.222a.741.741,0,1,1,0,1.482Zm0-2.963h-2.222a.741.741,0,1,1,0-1.482h2.222a.741.741,0,0,1,0,1.482Zm0-2.963h-2.222a.741.741,0,0,1,0-1.482h2.222a.741.741,0,1,1,0,1.482Zm0-2.963h-2.222a.741.741,0,0,1,0-1.482h2.222a.741.741,0,1,1,0,1.482Zm5.186,8.89H452.05a.741.741,0,0,1,0-1.482h2.222a.741.741,0,1,1,0,1.482Zm0-2.963H452.05a.741.741,0,1,1,0-1.482h2.222a.741.741,0,0,1,0,1.482Zm0-2.963H452.05a.741.741,0,0,1,0-1.482h2.222a.741.741,0,1,1,0,1.482Zm0-2.963H452.05a.741.741,0,0,1,0-1.482h2.222a.741.741,0,1,1,0,1.482Z" transform="translate(-415.009 -324.226)" fill="#1d254a"/>
              </g>
            </g>
          </g>
          <circle id="Ellipse_3" data-name="Ellipse 3" cx="15.569" cy="15.569" r="15.569" transform="translate(32.112 105.094)" fill="#c1ddfc"/>
        </g>
      </g>
      <g id="Group_80-2" data-name="Group 80" transform="translate(246.902 1074.838)">
        <path id="Polygon_1-4" data-name="Polygon 1" d="M5.821,1.592a1,1,0,0,1,1.752,0L8.934,4.065a1,1,0,0,0,.394.394L11.8,5.821a1,1,0,0,1,0,1.752L9.328,8.934a1,1,0,0,0-.394.394L7.573,11.8a1,1,0,0,1-1.752,0L4.459,9.328a1,1,0,0,0-.394-.394L1.592,7.573a1,1,0,0,1,0-1.752L4.065,4.459a1,1,0,0,0,.394-.394Z" fill="#ffd73b"/>
        <path id="Polygon_2-4" data-name="Polygon 2" d="M2.58,1.592a1,1,0,0,1,1.752,0l.211.384a1,1,0,0,0,.394.394l.384.211a1,1,0,0,1,0,1.752l-.384.211a1,1,0,0,0-.394.394l-.211.384a1,1,0,0,1-1.752,0l-.211-.384a1,1,0,0,0-.394-.394l-.384-.211a1,1,0,0,1,0-1.752l.384-.211a1,1,0,0,0,.394-.394Z" transform="translate(3.456 3.456)" fill="#ebbb00"/>
      </g>
      <g id="Group_81-2" data-name="Group 81" transform="translate(186.911 1109.247)">
        <path id="Polygon_1-5" data-name="Polygon 1" d="M2.565,1.592a1,1,0,0,1,1.752,0l.206.373a1,1,0,0,0,.394.394l.373.206a1,1,0,0,1,0,1.752l-.373.206a1,1,0,0,0-.394.394l-.206.373a1,1,0,0,1-1.752,0l-.206-.373a1,1,0,0,0-.394-.394l-.373-.206a1,1,0,0,1,0-1.752l.373-.206a1,1,0,0,0,.394-.394Z" fill="#ffd73b"/>
        <path id="Polygon_2-5" data-name="Polygon 2" d="M1.232.988a.621.621,0,0,1,1.087,0h0a.621.621,0,0,0,.244.244h0a.621.621,0,0,1,0,1.087h0a.621.621,0,0,0-.244.244h0a.621.621,0,0,1-1.087,0h0A.621.621,0,0,0,.988,2.32h0a.621.621,0,0,1,0-1.087h0A.621.621,0,0,0,1.232.988Z" transform="translate(1.776 1.776)" fill="#ebbb00"/>
      </g>
      <g id="Group_82-2" data-name="Group 82" transform="translate(215.657 1050.595)">
        <path id="Polygon_1-6" data-name="Polygon 1" d="M2.565,1.592a1,1,0,0,1,1.752,0l.206.373a1,1,0,0,0,.394.394l.373.206a1,1,0,0,1,0,1.752l-.373.206a1,1,0,0,0-.394.394l-.206.373a1,1,0,0,1-1.752,0l-.206-.373a1,1,0,0,0-.394-.394l-.373-.206a1,1,0,0,1,0-1.752l.373-.206a1,1,0,0,0,.394-.394Z" fill="#ffd73b"/>
        <path id="Polygon_2-6" data-name="Polygon 2" d="M1.232.988a.621.621,0,0,1,1.087,0h0a.621.621,0,0,0,.244.244h0a.621.621,0,0,1,0,1.087h0a.621.621,0,0,0-.244.244h0a.621.621,0,0,1-1.087,0h0A.621.621,0,0,0,.988,2.32h0a.621.621,0,0,1,0-1.087h0A.621.621,0,0,0,1.232.988Z" transform="translate(1.776 1.776)" fill="#ebbb00"/>
      </g>
    </g>
  </g>
</svg>
