<svg xmlns="http://www.w3.org/2000/svg" xmlns:xlink="http://www.w3.org/1999/xlink" width="74.36" height="65.575" viewBox="0 0 74.36 65.575">
  <defs>
    <linearGradient id="linear-gradient" x1="0.5" x2="0.5" y2="1" gradientUnits="objectBoundingBox">
      <stop offset="0" stop-color="#0064d8"/>
      <stop offset="1" stop-color="#00326c"/>
    </linearGradient>
  </defs>
  <g id="manage" transform="translate(-182.951 -1825.665)">
    <path id="team_1_" data-name="team (1)" d="M49.013,20.554H47.236l-2.648,1.393a3.93,3.93,0,0,0-.942-.388l-3.33-.833v-.379a5.551,5.551,0,0,0,2.372-4.537V14.429A5.68,5.68,0,0,0,37.325,8.7c-.15,0-.3,0-.447.009l.863-2.021L33.555,2.5,31.088,4.107a13.372,13.372,0,0,0-2.959-1.227L27.519,0H21.494l-.609,2.88a13.356,13.356,0,0,0-2.959,1.227L15.458,2.5,11.275,6.684l.849,2.023c-.032,0-.063-.007-.1-.008a5.536,5.536,0,0,0-5.7,5.531v1.581A5.549,5.549,0,0,0,8.7,20.346v.379l-2.172.543-3.938-2.3H0V35.353l7.777,2.592H9.292l.189-.662,2.384,1.431A2.461,2.461,0,0,0,14.238,41.1,2.461,2.461,0,0,0,16.61,43.47a2.461,2.461,0,0,0,2.372,2.372,2.459,2.459,0,0,0,3.844,1.952l.7.618a2.407,2.407,0,0,0,1.591.6h.146a2.407,2.407,0,0,0,2.4-2.375,2.4,2.4,0,0,0,2.372-2.372,2.4,2.4,0,0,0,2.372-2.374,2.431,2.431,0,0,0,2.375-2.426,2.316,2.316,0,0,0-.012-.237l14.242-7.12Zm-7.905-6.125v1.382a3.968,3.968,0,0,1-1.979,3.421l-.4.229,0,2.5,3.95.987-8.694,4.576v-2.13a3.933,3.933,0,0,0-1.132-2.755l2.713-.678v-2.5l-.394-.228A3.964,3.964,0,0,1,33.2,15.811V14.23a3.952,3.952,0,0,1,4.075-3.95,4.087,4.087,0,0,1,3.83,4.15ZM25.7,26.9,22.12,25.759a9.762,9.762,0,0,0-5.066-.231l-.453.1v-.234a2.37,2.37,0,0,1,1.8-2.3l4.528-1.131v-2.5l-.394-.228a3.964,3.964,0,0,1-1.977-3.419V14.229a3.952,3.952,0,0,1,4.075-3.95,4.087,4.087,0,0,1,3.83,4.15v1.382a3.968,3.968,0,0,1-1.979,3.421l-.4.229,0,2.5,4.527,1.131a2.37,2.37,0,0,1,1.8,2.3v2.962l-.2.1h-.484l-4.86-1.389A4.983,4.983,0,0,0,25.7,26.9Zm-8.92-15.071A8.69,8.69,0,0,1,32.2,11.768a5.5,5.5,0,0,0-.581,2.462V15.81a5.549,5.549,0,0,0,2.372,4.536v.379l-3.162.792-3.163-.792v-.379A5.551,5.551,0,0,0,30.04,15.81V14.429A5.68,5.68,0,0,0,24.676,8.7a5.535,5.535,0,0,0-5.7,5.531V15.81a5.549,5.549,0,0,0,2.372,4.536v.379l-3.162.792-3.163-.792v-.379a5.551,5.551,0,0,0,2.372-4.537V14.429a5.827,5.827,0,0,0-.613-2.6ZM13.142,7.051l2.526-2.526,2.223,1.447.425-.261a11.8,11.8,0,0,1,3.423-1.42l.486-.117.55-2.594h3.462l.549,2.593.486.116A11.808,11.808,0,0,1,30.7,5.71l.425.261,2.223-1.447,2.523,2.523-.9,2.1A5.526,5.526,0,0,0,33.3,10.256c-.032.032-.06.066-.092.1a10.266,10.266,0,0,0-17.436.047,5.576,5.576,0,0,0-1.744-1.236ZM10.277,21.961v-2.5l-.394-.228a3.964,3.964,0,0,1-1.977-3.419V14.229a3.952,3.952,0,0,1,4.075-3.95,4.087,4.087,0,0,1,3.83,4.15v1.382a3.968,3.968,0,0,1-1.979,3.421l-.4.229,0,2.5,2.712.678a3.933,3.933,0,0,0-1.132,2.755v.586l-2.466.548.064-.224.03-1.461L8.479,22.411Zm-8.7-1.408h.576L7.843,23.87,4.974,35.345,1.581,34.213ZM8.033,36.364l-1.556-.518L9.264,24.7l1.8,1.051v.226L8.1,36.364Zm5.406,2.276a.892.892,0,0,1,.259-.627l1.39-1.39a.887.887,0,0,1,1.254,1.254l-1.39,1.39a.887.887,0,0,1-1.513-.627Zm2.372,2.372a.892.892,0,0,1,.259-.627L17.459,39a.887.887,0,0,1,1.254,1.254l-1.39,1.39a.887.887,0,0,1-1.513-.627Zm2.372,2.372a.892.892,0,0,1,.259-.627l1.39-1.39a.887.887,0,0,1,1.254,1.254L19.7,44.01a.887.887,0,0,1-1.513-.627Zm3.258,3.258a.887.887,0,0,1-.627-1.513l1.39-1.39a.887.887,0,0,1,1.254,1.254l-1.39,1.39A.892.892,0,0,1,21.44,46.641Zm3.823.791h-.146a.819.819,0,0,1-.545-.207L23.98,46.7l.594-.594a2.458,2.458,0,0,0,.5-.735l.719.6a.825.825,0,0,1-.528,1.458Zm7.089-7.115h-.137a.848.848,0,0,1-.544-.2l-4.287-3.572-1.013,1.215,4.163,3.469a.825.825,0,0,1-.529,1.458h-.173a.825.825,0,0,1-.527-.191l-4.294-3.578L24,40.134,28.162,43.6a.824.824,0,0,1-.528,1.457,1.306,1.306,0,0,1-.832-.3l-1.764-1.471a2.459,2.459,0,0,0-2.123-1.382,2.461,2.461,0,0,0-2.372-2.372,2.461,2.461,0,0,0-2.372-2.372,2.462,2.462,0,0,0-4.2-1.658L12.58,36.9a2.436,2.436,0,0,0-.222.271L9.93,35.709l2.129-7.451L17.4,27.072a8.144,8.144,0,0,1,4.241.192l1.165.372L18.854,29.61a2.635,2.635,0,0,0-1.463,2.369v.156a2.647,2.647,0,0,0,4.011,2.27l2.944-1.765a1.632,1.632,0,0,1,1.9.183l6.679,6.011a.851.851,0,0,1-.569,1.483Zm15.08-9.185-13.318,6.66c-.043-.046-.088-.09-.136-.132L27.3,31.649a3.181,3.181,0,0,0-3.768-.364l-2.945,1.766a1.066,1.066,0,0,1-1.614-.916v-.156a1.061,1.061,0,0,1,.59-.954l4.41-2.2a3.436,3.436,0,0,1,2.464-.229L31.4,30.01l1.2.03,14.825-7.8Zm0,0" transform="translate(190 1838)" fill="url(#linear-gradient)"/>
    <g id="best-price" transform="translate(-227 1463)">
      <g id="Group_80" data-name="Group 80" transform="translate(468.338 375.962)">
        <path id="Polygon_1" data-name="Polygon 1" d="M7.11,1.592a1,1,0,0,1,1.752,0L10.682,4.9a1,1,0,0,0,.394.394L14.381,7.11a1,1,0,0,1,0,1.752l-3.305,1.819a1,1,0,0,0-.394.394L8.862,14.381a1,1,0,0,1-1.752,0L5.291,11.076a1,1,0,0,0-.394-.394L1.592,8.862a1,1,0,0,1,0-1.752L4.9,5.291A1,1,0,0,0,5.291,4.9Z" fill="#ffd73b"/>
        <path id="Polygon_2" data-name="Polygon 2" d="M3.246,1.592A1,1,0,0,1,5,1.592l.447.813a1,1,0,0,0,.394.394l.813.447A1,1,0,0,1,6.652,5l-.813.447a1,1,0,0,0-.394.394L5,6.652a1,1,0,0,1-1.752,0L2.8,5.839A1,1,0,0,0,2.4,5.445L1.592,5a1,1,0,0,1,0-1.752L2.4,2.8A1,1,0,0,0,2.8,2.4Z" transform="translate(4.122 4.122)" fill="#ebbb00"/>
      </g>
      <g id="Group_81" data-name="Group 81" transform="translate(409.951 420.034)">
        <path id="Polygon_1-2" data-name="Polygon 1" d="M3.227,1.592a1,1,0,0,1,1.752,0l.441.8a1,1,0,0,0,.394.394l.8.441a1,1,0,0,1,0,1.752l-.8.441a1,1,0,0,0-.394.394l-.441.8a1,1,0,0,1-1.752,0l-.441-.8a1,1,0,0,0-.394-.394l-.8-.441a1,1,0,0,1,0-1.752l.8-.441a1,1,0,0,0,.394-.394Z" transform="translate(0)" fill="#ffd73b"/>
        <path id="Polygon_2-2" data-name="Polygon 2" d="M1.469,1.178a.74.74,0,0,1,1.3,0h0a.74.74,0,0,0,.292.292h0a.74.74,0,0,1,0,1.3h0a.74.74,0,0,0-.292.292h0a.74.74,0,0,1-1.3,0h0a.74.74,0,0,0-.292-.292h0a.74.74,0,0,1,0-1.3h0a.74.74,0,0,0,.292-.292Z" transform="translate(2.118 2.118)" fill="#ebbb00"/>
      </g>
      <g id="Group_82" data-name="Group 82" transform="translate(437.618 362.665)">
        <path id="Polygon_1-3" data-name="Polygon 1" d="M3.227,1.592a1,1,0,0,1,1.752,0l.441.8a1,1,0,0,0,.394.394l.8.441a1,1,0,0,1,0,1.752l-.8.441a1,1,0,0,0-.394.394l-.441.8a1,1,0,0,1-1.752,0l-.441-.8a1,1,0,0,0-.394-.394l-.8-.441a1,1,0,0,1,0-1.752l.8-.441a1,1,0,0,0,.394-.394Z" transform="translate(0 0)" fill="#ffd73b"/>
        <path id="Polygon_2-3" data-name="Polygon 2" d="M1.469,1.178a.74.74,0,0,1,1.3,0h0a.74.74,0,0,0,.292.292h0a.74.74,0,0,1,0,1.3h0a.74.74,0,0,0-.292.292h0a.74.74,0,0,1-1.3,0h0a.74.74,0,0,0-.292-.292h0a.74.74,0,0,1,0-1.3h0a.74.74,0,0,0,.292-.292Z" transform="translate(2.118 2.118)" fill="#ebbb00"/>
      </g>
    </g>
  </g>
</svg>
