<svg id="message" xmlns="http://www.w3.org/2000/svg" width="29.355" height="30.996" viewBox="0 0 29.355 30.996">
  <path id="Path_221" data-name="Path 221" d="M169.975,182H152.727a1.675,1.675,0,0,0-1.22.53,1.871,1.871,0,0,0-.507,1.287v12.714a1.871,1.871,0,0,0,.507,1.287,1.675,1.675,0,0,0,1.22.53h14.264l3.246,3.373a.829.829,0,0,0,.933.186.913.913,0,0,0,.529-.833V183.817a1.871,1.871,0,0,0-.506-1.286,1.675,1.675,0,0,0-1.219-.531Zm-2.637,12.648H155.3a.917.917,0,0,1,0-1.817h12.037a.917.917,0,0,1,0,1.817Zm-12.9-4.541a.888.888,0,0,1,.863-.911h8.6a.917.917,0,0,1,0,1.817h-8.6a.888.888,0,0,1-.863-.9Zm12.9-2.728H155.3a.85.85,0,0,1-.806-.431.955.955,0,0,1,0-.955.85.85,0,0,1,.806-.431h12.037a.917.917,0,0,1,0,1.817Z" transform="translate(-142.345 -170.981)" fill="#fff"/>
  <path id="Path_222" data-name="Path 222" d="M20.7,9.2V1.818A1.777,1.777,0,0,0,18.975,0H1.727A1.777,1.777,0,0,0,0,1.817V19.072a.913.913,0,0,0,.529.833.829.829,0,0,0,.933-.186l3.246-3.374h2.23V12.836A3.544,3.544,0,0,1,10.377,9.2Zm-4.3-.061a.913.913,0,1,1,.863-.911.888.888,0,0,1-.863.911ZM4.36,3.694H16.4a.85.85,0,0,1,.806.431.955.955,0,0,1,0,.954.85.85,0,0,1-.806.431H4.36a.85.85,0,0,1-.806-.431.955.955,0,0,1,0-.954.85.85,0,0,1,.806-.431Zm1.72,9.078H4.36a.85.85,0,0,1-.806-.431.955.955,0,0,1,0-.954.85.85,0,0,1,.806-.431H6.08a.917.917,0,0,1,0,1.817ZM4.36,9.143a.85.85,0,0,1-.806-.431.955.955,0,0,1,0-.954.85.85,0,0,1,.806-.431h8.6a.85.85,0,0,1,.806.431.955.955,0,0,1,0,.954.85.85,0,0,1-.806.431Z" transform="translate(0 0)" fill="#fff"/>
</svg>
