<svg xmlns="http://www.w3.org/2000/svg" xmlns:xlink="http://www.w3.org/1999/xlink" width="74.36" height="65.575" viewBox="0 0 74.36 65.575">
  <defs>
    <linearGradient id="linear-gradient" x1="0.5" x2="0.5" y2="1" gradientUnits="objectBoundingBox">
      <stop offset="0" stop-color="#0064d8"/>
      <stop offset="1" stop-color="#00326c"/>
    </linearGradient>
  </defs>
  <g id="progress" transform="translate(-182.951 -1825.665)">
    <g id="feedback" transform="translate(191.216 1839.535)">
      <g id="Group_8718" data-name="Group 8718" transform="translate(0.784)">
        <g id="Group_8717" data-name="Group 8717" transform="translate(0)">
          <path id="Path_28133" data-name="Path 28133" d="M44.634,4.7H28.973V3.132A3.141,3.141,0,0,0,25.841,0H3.916A3.141,3.141,0,0,0,.784,3.132V20.359c0,8.613,8.222,8.613,10.963,8.613a.783.783,0,0,0,0-1.566,3.141,3.141,0,0,1-3.132-3.132v-.313A3.294,3.294,0,0,1,11.9,21.142H22.709v1.566H15.662a.74.74,0,0,0-.783.783,7.03,7.03,0,0,0,1.879,4.777,7.57,7.57,0,0,0-.313,2.271,7.913,7.913,0,0,0,4.7,7.2c0,.47-.235,1.409-2.349,1.409a3.877,3.877,0,0,0-3.915,3.915v3.915h1.566V43.067a2.326,2.326,0,0,1,2.193-2.349L22.474,42.6a5.437,5.437,0,0,0,1.018.392v3.993h1.566V42.989a3.877,3.877,0,0,0,1.018-.313L29.913,40.8a2.326,2.326,0,0,1,2.193,2.349v3.915h1.566V43.145a3.877,3.877,0,0,0-3.915-3.915c-2.114,0-2.349-.94-2.349-1.409a7.794,7.794,0,0,0,4.7-7.439v-.548a6.205,6.205,0,0,0-.783-3.132h5.246a3.294,3.294,0,0,1,3.289,2.819,3.159,3.159,0,0,1-2.819,3.445h-.313a.783.783,0,1,0,0,1.566c2.741,0,10.963,0,10.963-8.613V7.83A3.027,3.027,0,0,0,44.634,4.7ZM11.9,19.576A4.9,4.9,0,0,0,7.048,23.8a4.924,4.924,0,0,0,.94,3.289C4.151,26.31,2.35,24.2,2.35,20.359V3.132A1.571,1.571,0,0,1,3.916,1.566H25.841a1.571,1.571,0,0,1,1.566,1.566V18.01a1.571,1.571,0,0,1-1.566,1.566Zm4.62,4.7h8.535a5.479,5.479,0,0,1,5.4,4.7H21.926A5.479,5.479,0,0,1,16.523,24.274Zm9.866,12.137a.752.752,0,0,0-.548.7v.47a2.756,2.756,0,0,0,1.566,2.662l-2.036,1.018a2.861,2.861,0,0,1-2.271,0l-1.958-1.018a2.756,2.756,0,0,0,1.566-2.662v-.392a.752.752,0,0,0-.548-.7,6.341,6.341,0,0,1-4.15-5.951,4.815,4.815,0,0,1,.078-1.1,7.091,7.091,0,0,0,3.837,1.1h8.613A6.165,6.165,0,0,1,26.389,36.411ZM46.2,25.84c0,3.837-1.8,5.951-5.638,6.734a4.924,4.924,0,0,0,.94-3.289,4.838,4.838,0,0,0-4.855-4.228H30.3a7,7,0,0,0-5.246-2.349h-.783V21.142h1.566a3.141,3.141,0,0,0,3.132-3.132V6.264H44.634A1.571,1.571,0,0,1,46.2,7.83V25.84Z" transform="translate(-0.784)" fill="url(#linear-gradient)"/>
        </g>
      </g>
      <g id="Group_8720" data-name="Group 8720" transform="translate(7.048 3.132)">
        <g id="Group_8719" data-name="Group 8719">
          <path id="Path_28134" data-name="Path 28134" d="M76.53,37.481h-.783a.74.74,0,0,1-.783-.783V34.349a2.349,2.349,0,1,0-4.7,0V36.7a.74.74,0,0,1-.783.783A.74.74,0,0,0,68.7,36.7H65.567a.74.74,0,0,0-.783.783v8.613a.74.74,0,0,0,.783.783H68.7a.74.74,0,0,0,.783-.783H76.53a2.307,2.307,0,0,0,2.349-2.349V39.83A2.307,2.307,0,0,0,76.53,37.481Zm-8.613,7.83H66.35V38.264h1.566Zm9.4-1.566a.74.74,0,0,1-.783.783H69.482V39.047A2.307,2.307,0,0,0,71.831,36.7V34.349a.783.783,0,1,1,1.566,0V36.7a2.307,2.307,0,0,0,2.349,2.349h.783a.74.74,0,0,1,.783.783Z" transform="translate(-64.784 -32)" fill="url(#linear-gradient)"/>
        </g>
      </g>
      <g id="Group_8722" data-name="Group 8722" transform="translate(30.539 7.83)">
        <g id="Group_8721" data-name="Group 8721">
          <path id="Path_28135" data-name="Path 28135" d="M318.1,80h-3.132a.74.74,0,0,0-.783.783h-7.047a2.307,2.307,0,0,0-2.349,2.349v3.915a2.307,2.307,0,0,0,2.349,2.349h.783a.74.74,0,0,1,.783.783v2.349a2.349,2.349,0,0,0,4.7,0V90.18a.74.74,0,0,1,.783-.783.74.74,0,0,0,.783.783H318.1a.74.74,0,0,0,.783-.783V80.783A.74.74,0,0,0,318.1,80Zm-3.915,7.83a2.307,2.307,0,0,0-2.349,2.349v2.349a.783.783,0,0,1-1.566,0V90.18a2.307,2.307,0,0,0-2.349-2.349h-.783a.74.74,0,0,1-.783-.783V83.132a.74.74,0,0,1,.783-.783h7.047Zm3.132.783h-1.566V81.566h1.566Z" transform="translate(-304.784 -80)" fill="url(#linear-gradient)"/>
        </g>
      </g>
      <g id="Group_8724" data-name="Group 8724" transform="translate(29.703 20.021)">
        <g id="Group_8723" data-name="Group 8723" transform="translate(0 0)">
          <rect id="Rectangle_1060" data-name="Rectangle 1060" width="2.966" height="2.225" fill="url(#linear-gradient)"/>
        </g>
      </g>
      <g id="Group_8726" data-name="Group 8726" transform="translate(19.577 3.132)">
        <g id="Group_8725" data-name="Group 8725">
          <path id="Path_28136" data-name="Path 28136" d="M195.133,32.783V32h-1.566v.783h-.783v1.566h.783v.783h1.566v-.783h.783V32.783Z" transform="translate(-192.784 -32)" fill="url(#linear-gradient)"/>
        </g>
      </g>
    </g>
    <g id="best-price" transform="translate(-227 1463)">
      <g id="Group_80" data-name="Group 80" transform="translate(468.338 375.962)">
        <path id="Polygon_1" data-name="Polygon 1" d="M7.11,1.592a1,1,0,0,1,1.752,0L10.682,4.9a1,1,0,0,0,.394.394L14.381,7.11a1,1,0,0,1,0,1.752l-3.305,1.819a1,1,0,0,0-.394.394L8.862,14.381a1,1,0,0,1-1.752,0L5.291,11.076a1,1,0,0,0-.394-.394L1.592,8.862a1,1,0,0,1,0-1.752L4.9,5.291A1,1,0,0,0,5.291,4.9Z" fill="#ffd73b"/>
        <path id="Polygon_2" data-name="Polygon 2" d="M3.246,1.592A1,1,0,0,1,5,1.592l.447.813a1,1,0,0,0,.394.394l.813.447A1,1,0,0,1,6.652,5l-.813.447a1,1,0,0,0-.394.394L5,6.652a1,1,0,0,1-1.752,0L2.8,5.839A1,1,0,0,0,2.4,5.445L1.592,5a1,1,0,0,1,0-1.752L2.4,2.8A1,1,0,0,0,2.8,2.4Z" transform="translate(4.122 4.122)" fill="#ebbb00"/>
      </g>
      <g id="Group_81" data-name="Group 81" transform="translate(409.951 420.034)">
        <path id="Polygon_1-2" data-name="Polygon 1" d="M3.227,1.592a1,1,0,0,1,1.752,0l.441.8a1,1,0,0,0,.394.394l.8.441a1,1,0,0,1,0,1.752l-.8.441a1,1,0,0,0-.394.394l-.441.8a1,1,0,0,1-1.752,0l-.441-.8a1,1,0,0,0-.394-.394l-.8-.441a1,1,0,0,1,0-1.752l.8-.441a1,1,0,0,0,.394-.394Z" transform="translate(0)" fill="#ffd73b"/>
        <path id="Polygon_2-2" data-name="Polygon 2" d="M1.469,1.178a.74.74,0,0,1,1.3,0h0a.74.74,0,0,0,.292.292h0a.74.74,0,0,1,0,1.3h0a.74.74,0,0,0-.292.292h0a.74.74,0,0,1-1.3,0h0a.74.74,0,0,0-.292-.292h0a.74.74,0,0,1,0-1.3h0a.74.74,0,0,0,.292-.292Z" transform="translate(2.118 2.118)" fill="#ebbb00"/>
      </g>
      <g id="Group_82" data-name="Group 82" transform="translate(437.618 362.665)">
        <path id="Polygon_1-3" data-name="Polygon 1" d="M3.227,1.592a1,1,0,0,1,1.752,0l.441.8a1,1,0,0,0,.394.394l.8.441a1,1,0,0,1,0,1.752l-.8.441a1,1,0,0,0-.394.394l-.441.8a1,1,0,0,1-1.752,0l-.441-.8a1,1,0,0,0-.394-.394l-.8-.441a1,1,0,0,1,0-1.752l.8-.441a1,1,0,0,0,.394-.394Z" transform="translate(0 0)" fill="#ffd73b"/>
        <path id="Polygon_2-3" data-name="Polygon 2" d="M1.469,1.178a.74.74,0,0,1,1.3,0h0a.74.74,0,0,0,.292.292h0a.74.74,0,0,1,0,1.3h0a.74.74,0,0,0-.292.292h0a.74.74,0,0,1-1.3,0h0a.74.74,0,0,0-.292-.292h0a.74.74,0,0,1,0-1.3h0a.74.74,0,0,0,.292-.292Z" transform="translate(2.118 2.118)" fill="#ebbb00"/>
      </g>
    </g>
  </g>
</svg>
