<svg xmlns="http://www.w3.org/2000/svg" width="23.333" height="24.941" viewBox="0 0 23.333 24.941">
  <g id="requirements" transform="translate(-16.5)">
    <path id="Path_7" data-name="Path 7" d="M262.3,274a5.8,5.8,0,1,0,5.846,5.8A5.8,5.8,0,0,0,262.3,274Zm1.779,5.1-1.949,2.338a.731.731,0,0,1-1.215-.141l-.779-1.559a.731.731,0,0,1,1.307-.654l.28.56,1.233-1.48a.731.731,0,0,1,1.123.936Z" transform="translate(-228.309 -260.653)" fill="#fff"/>
    <path id="Path_8" data-name="Path 8" d="M33.673,4.163,30.708,1.1l0,0A3.677,3.677,0,0,0,28.1,0H18.692A2.195,2.195,0,0,0,16.5,2.192V21.141a2.195,2.195,0,0,0,2.192,2.192h9.372a7.255,7.255,0,0,1,5.924-11.447q.37,0,.731.036v-5.2a3.632,3.632,0,0,0-1.046-2.559ZM24.245,16.319h-3.9a.731.731,0,0,1,0-1.461h3.9a.731.731,0,0,1,0,1.461Zm0-3.9h-3.9a.731.731,0,1,1,0-1.461h3.9a.731.731,0,0,1,0,1.461Zm0-3.9h-3.9a.731.731,0,1,1,0-1.461h3.9a.731.731,0,0,1,0,1.461Zm4.676,3.9h-.779a.731.731,0,1,1,0-1.461h.779a.731.731,0,0,1,0,1.461Zm0-3.9h-.779a.731.731,0,1,1,0-1.461h.779a.731.731,0,0,1,0,1.461Z" fill="#fff"/>
  </g>
</svg>
