<svg xmlns="http://www.w3.org/2000/svg" xmlns:xlink="http://www.w3.org/1999/xlink" width="74.36" height="65.575" viewBox="0 0 74.36 65.575">
  <defs>
    <linearGradient id="linear-gradient" x1="0.5" x2="0.5" y2="1" gradientUnits="objectBoundingBox">
      <stop offset="0" stop-color="#0064d8"/>
      <stop offset="1" stop-color="#00326c"/>
    </linearGradient>
  </defs>
  <g id="saving" transform="translate(-182.951 -1825.665)">
    <g id="cashback" transform="translate(189.5 1835.5)">
      <path id="Path_28103" data-name="Path 28103" d="M54.043,25.061a2.588,2.588,0,0,0-1.923-4.332h-.866V6.866H32.191V17.559a6.063,6.063,0,0,0-1.966,1.034l-2.67,2.137H20.42l-.208-.208A2.594,2.594,0,0,0,20.677,16l2.851-1.711V13.8a4.941,4.941,0,0,0-4.142-4.89l-.228-.038.121-.547-.337-.336A6.714,6.714,0,0,0,14.863,6a6.714,6.714,0,0,0-4.078,1.987l-.337.336.121.547-.228.038A4.941,4.941,0,0,0,6.2,13.8v.49L9.049,16a2.6,2.6,0,0,0,.464,4.523L5.06,24.975A13.769,13.769,0,0,0,1,34.777v.682a13.863,13.863,0,0,0,27.726,0v-.682c0-.1-.012-.2-.015-.3l.719.575a5.816,5.816,0,0,0,2.761,1.2V50.188H51.253V36.325h.866a2.588,2.588,0,0,0,1.923-4.332,2.56,2.56,0,0,0,0-3.466,2.559,2.559,0,0,0,0-3.466Zm-1.057,5.2a.867.867,0,0,1-.866.866H50.386a.866.866,0,0,1,0-1.733h1.733A.867.867,0,0,1,52.986,30.26ZM44.391,48.455H39.054a6.069,6.069,0,0,0-5.129-5.129V33.99a9.5,9.5,0,0,0,14.443,1.353,2.593,2.593,0,0,0,1.152.822v7.16A6.069,6.069,0,0,0,44.391,48.455ZM33.924,23.882a5.708,5.708,0,0,0,1.3-1.37l.034-.05h3.869a3.455,3.455,0,0,0,2.972-1.711,7.712,7.712,0,0,1,5.728,2.935,2.582,2.582,0,0,0,.64,1.376,2.56,2.56,0,0,0,0,3.466,2.56,2.56,0,0,0,0,3.466,2.582,2.582,0,0,0-.64,1.376,7.726,7.726,0,0,1-6.1,2.955,7.807,7.807,0,0,1-7.8-7.8Zm16.462,3.778a.866.866,0,0,1,0-1.733h1.733a.866.866,0,0,1,0,1.733Zm2.6-4.332a.867.867,0,0,1-.866.866H50.386a.866.866,0,1,1,0-1.733h1.733A.867.867,0,0,1,52.986,23.329ZM49.52,11.977A4.346,4.346,0,0,1,46.142,8.6H49.52ZM37.3,8.6a4.346,4.346,0,0,1-3.378,3.378V8.6Zm-3.378,5.129A6.069,6.069,0,0,0,39.054,8.6h5.337a6.069,6.069,0,0,0,5.129,5.129v7.16a2.593,2.593,0,0,0-1.152.822,9.406,9.406,0,0,0-5.784-2.665c0-.016.005-.032.005-.049a1.735,1.735,0,0,0-1.733-1.733H34.014c-.03,0-.06.007-.09.008ZM19.2,17.264A.866.866,0,0,1,19.2,19H10.531a.866.866,0,1,1,0-1.733ZM19.1,10.617a3.212,3.212,0,0,1,2.66,2.71l-3.672,2.2h-.412l1.1-4.967ZM14.863,7.733a4.584,4.584,0,0,1,2.51,1.172L15.9,15.531H13.826L12.353,8.905a4.584,4.584,0,0,1,2.51-1.172Zm-4.238,2.884.321-.054,1.1,4.967h-.412l-3.672-2.2A3.213,3.213,0,0,1,10.625,10.617ZM26.993,35.459a12.13,12.13,0,0,1-24.26,0v-.682A12.048,12.048,0,0,1,6.286,26.2l5.47-5.47H17.97l5.47,5.47a12.048,12.048,0,0,1,3.553,8.578Zm3.52-1.759L28.46,32.057a13.765,13.765,0,0,0-3.795-7.083l-2.512-2.512h6.01l3.146-2.516a4.342,4.342,0,0,1,2.7-.95h6.841a1.735,1.735,0,0,1-1.733,1.733h-4.8l-.548.822a3.983,3.983,0,0,1-3.32,1.777v1.733a5.717,5.717,0,0,0,1.733-.279v9.7A4.072,4.072,0,0,1,30.513,33.7Zm3.411,11.377A4.346,4.346,0,0,1,37.3,48.455H33.924Zm12.218,3.378a4.346,4.346,0,0,1,3.378-3.378v3.378Zm5.977-13.863H50.386a.866.866,0,0,1,0-1.733h1.733a.866.866,0,1,1,0,1.733Z" transform="translate(-0.5 -0.5)" fill="url(#linear-gradient)"/>
      <path id="Path_28104" data-name="Path 28104" d="M47.6,33.664a.867.867,0,0,1-.866-.866H45a2.6,2.6,0,0,0,1.733,2.44V37.13h1.733V35.238A2.593,2.593,0,0,0,47.6,30.2a.866.866,0,1,1,.866-.866H50.2a2.6,2.6,0,0,0-1.733-2.44V25H46.733v1.892a2.593,2.593,0,0,0,.866,5.039.866.866,0,1,1,0,1.733Z" transform="translate(-5.986 -2.647)" fill="url(#linear-gradient)"/>
      <path id="Path_28105" data-name="Path 28105" d="M20.636,48.072l.632,1.613A10.477,10.477,0,0,0,27.883,40H26.15A8.733,8.733,0,0,1,20.636,48.072Z" transform="translate(-2.732 -4.65)" fill="url(#linear-gradient)"/>
      <path id="Path_28106" data-name="Path 28106" d="M17,49.978v1.733a10.446,10.446,0,0,0,1.891-.172l-.315-1.7A8.7,8.7,0,0,1,17,49.978Z" transform="translate(-2.246 -5.964)" fill="url(#linear-gradient)"/>
    </g>
    <g id="best-price" transform="translate(-227 1463)">
      <g id="Group_80" data-name="Group 80" transform="translate(468.338 375.962)">
        <path id="Polygon_1" data-name="Polygon 1" d="M7.11,1.592a1,1,0,0,1,1.752,0L10.682,4.9a1,1,0,0,0,.394.394L14.381,7.11a1,1,0,0,1,0,1.752l-3.305,1.819a1,1,0,0,0-.394.394L8.862,14.381a1,1,0,0,1-1.752,0L5.291,11.076a1,1,0,0,0-.394-.394L1.592,8.862a1,1,0,0,1,0-1.752L4.9,5.291A1,1,0,0,0,5.291,4.9Z" fill="#ffd73b"/>
        <path id="Polygon_2" data-name="Polygon 2" d="M3.246,1.592A1,1,0,0,1,5,1.592l.447.813a1,1,0,0,0,.394.394l.813.447A1,1,0,0,1,6.652,5l-.813.447a1,1,0,0,0-.394.394L5,6.652a1,1,0,0,1-1.752,0L2.8,5.839A1,1,0,0,0,2.4,5.445L1.592,5a1,1,0,0,1,0-1.752L2.4,2.8A1,1,0,0,0,2.8,2.4Z" transform="translate(4.122 4.122)" fill="#ebbb00"/>
      </g>
      <g id="Group_81" data-name="Group 81" transform="translate(409.951 420.034)">
        <path id="Polygon_1-2" data-name="Polygon 1" d="M3.227,1.592a1,1,0,0,1,1.752,0l.441.8a1,1,0,0,0,.394.394l.8.441a1,1,0,0,1,0,1.752l-.8.441a1,1,0,0,0-.394.394l-.441.8a1,1,0,0,1-1.752,0l-.441-.8a1,1,0,0,0-.394-.394l-.8-.441a1,1,0,0,1,0-1.752l.8-.441a1,1,0,0,0,.394-.394Z" transform="translate(0)" fill="#ffd73b"/>
        <path id="Polygon_2-2" data-name="Polygon 2" d="M1.469,1.178a.74.74,0,0,1,1.3,0h0a.74.74,0,0,0,.292.292h0a.74.74,0,0,1,0,1.3h0a.74.74,0,0,0-.292.292h0a.74.74,0,0,1-1.3,0h0a.74.74,0,0,0-.292-.292h0a.74.74,0,0,1,0-1.3h0a.74.74,0,0,0,.292-.292Z" transform="translate(2.118 2.118)" fill="#ebbb00"/>
      </g>
      <g id="Group_82" data-name="Group 82" transform="translate(437.618 362.665)">
        <path id="Polygon_1-3" data-name="Polygon 1" d="M3.227,1.592a1,1,0,0,1,1.752,0l.441.8a1,1,0,0,0,.394.394l.8.441a1,1,0,0,1,0,1.752l-.8.441a1,1,0,0,0-.394.394l-.441.8a1,1,0,0,1-1.752,0l-.441-.8a1,1,0,0,0-.394-.394l-.8-.441a1,1,0,0,1,0-1.752l.8-.441a1,1,0,0,0,.394-.394Z" transform="translate(0 0)" fill="#ffd73b"/>
        <path id="Polygon_2-3" data-name="Polygon 2" d="M1.469,1.178a.74.74,0,0,1,1.3,0h0a.74.74,0,0,0,.292.292h0a.74.74,0,0,1,0,1.3h0a.74.74,0,0,0-.292.292h0a.74.74,0,0,1-1.3,0h0a.74.74,0,0,0-.292-.292h0a.74.74,0,0,1,0-1.3h0a.74.74,0,0,0,.292-.292Z" transform="translate(2.118 2.118)" fill="#ebbb00"/>
      </g>
    </g>
  </g>
</svg>
