<svg xmlns="http://www.w3.org/2000/svg" width="23.773" height="21" viewBox="0 0 23.773 21">
  <path id="tick" d="M22.735,20.727c-1.073-.578-2.269.536-2.971,1.2-1.609,1.568-2.971,3.383-4.5,5.034-1.692,1.815-3.259,3.631-4.992,5.405a14.886,14.886,0,0,0-2.723,3.3,54.159,54.159,0,0,0-4.415-4.291C1.94,30.464-.04,29.8,0,31.991c.083,2.847,2.6,5.9,4.456,7.839a4.712,4.712,0,0,0,3.012,1.733c1.444.083,2.929-1.65,3.8-2.6,1.527-1.65,2.764-3.507,4.167-5.2,1.815-2.228,3.672-4.415,5.446-6.684C21.993,25.678,25.5,22.212,22.735,20.727ZM1.817,31.826a.312.312,0,0,0-.165.041A2.008,2.008,0,0,1,1.2,31.7h0Q1.383,31.578,1.817,31.826Z" transform="translate(-0.001 -20.566)"/>
</svg>
