<svg xmlns="http://www.w3.org/2000/svg" xmlns:xlink="http://www.w3.org/1999/xlink" width="74.36" height="65.575" viewBox="0 0 74.36 65.575">
  <defs>
    <linearGradient id="linear-gradient" x1="0.5" x2="0.5" y2="1" gradientUnits="objectBoundingBox">
      <stop offset="0" stop-color="#0064d8"/>
      <stop offset="1" stop-color="#00326c"/>
    </linearGradient>
  </defs>
  <g id="time" transform="translate(-182.951 -1825.665)">
    <g id="Layer_9" data-name="Layer 9" transform="translate(190.956 1837.984)">
      <path id="Path_28115" data-name="Path 28115" d="M43.457,7.522h1.826V6H41.479a.761.761,0,0,0-.761.761v3.805H42.24V8.5A22.069,22.069,0,0,1,18.245,45.313l-.715,1.339A23.591,23.591,0,0,0,43.457,7.522Z" transform="translate(-3.94 -1.191)" fill="url(#linear-gradient)"/>
      <path id="Path_28116" data-name="Path 28116" d="M10.9,41.892A22.069,22.069,0,0,1,34.9,5.068l.715-1.339A23.591,23.591,0,0,0,9.686,42.859H7.859v1.522h3.805a.761.761,0,0,0,.761-.761V39.815H10.9Z" transform="translate(0 0)" fill="url(#linear-gradient)"/>
      <path id="Path_28117" data-name="Path 28117" d="M9,26.5A17.5,17.5,0,1,0,26.5,9,17.5,17.5,0,0,0,9,26.5Zm33.484,0A15.981,15.981,0,1,1,26.5,10.522,15.981,15.981,0,0,1,42.484,26.5Z" transform="translate(-1.902 -1.908)" fill="url(#linear-gradient)"/>
      <path id="Path_28118" data-name="Path 28118" d="M13,27.459A14.459,14.459,0,1,0,27.459,13,14.459,14.459,0,0,0,13,27.459Zm22.609-7.07,1.522-1.522A12.876,12.876,0,0,1,40.4,26.7H38.113V28.22H40.4a12.876,12.876,0,0,1-3.242,7.815l-1.522-1.522-1.081,1.081,1.522,1.522A12.876,12.876,0,0,1,28.22,40.4V38.113H26.7V40.4a12.876,12.876,0,0,1-7.815-3.242L20.4,35.632l-1.081-1.081L17.8,36.074A12.876,12.876,0,0,1,14.56,28.22h2.245V26.7H14.56A12.876,12.876,0,0,1,17.8,18.883L19.324,20.4,20.4,19.324,18.883,17.8A12.876,12.876,0,0,1,26.7,14.56v2.245H28.22V14.56A12.876,12.876,0,0,1,36.035,17.8l-1.522,1.522Z" transform="translate(-2.858 -2.864)" fill="url(#linear-gradient)"/>
      <path id="Path_28119" data-name="Path 28119" d="M32.522,20H31v9.132a.761.761,0,0,0,.221.54l4.566,4.566,1.081-1.081L32.522,28.82Z" transform="translate(-7.16 -4.537)" fill="url(#linear-gradient)"/>
    </g>
    <g id="best-price" transform="translate(-227 1463)">
      <g id="Group_80" data-name="Group 80" transform="translate(468.338 375.962)">
        <path id="Polygon_1" data-name="Polygon 1" d="M7.11,1.592a1,1,0,0,1,1.752,0L10.682,4.9a1,1,0,0,0,.394.394L14.381,7.11a1,1,0,0,1,0,1.752l-3.305,1.819a1,1,0,0,0-.394.394L8.862,14.381a1,1,0,0,1-1.752,0L5.291,11.076a1,1,0,0,0-.394-.394L1.592,8.862a1,1,0,0,1,0-1.752L4.9,5.291A1,1,0,0,0,5.291,4.9Z" fill="#ffd73b"/>
        <path id="Polygon_2" data-name="Polygon 2" d="M3.246,1.592A1,1,0,0,1,5,1.592l.447.813a1,1,0,0,0,.394.394l.813.447A1,1,0,0,1,6.652,5l-.813.447a1,1,0,0,0-.394.394L5,6.652a1,1,0,0,1-1.752,0L2.8,5.839A1,1,0,0,0,2.4,5.445L1.592,5a1,1,0,0,1,0-1.752L2.4,2.8A1,1,0,0,0,2.8,2.4Z" transform="translate(4.122 4.122)" fill="#ebbb00"/>
      </g>
      <g id="Group_81" data-name="Group 81" transform="translate(409.951 420.034)">
        <path id="Polygon_1-2" data-name="Polygon 1" d="M3.227,1.592a1,1,0,0,1,1.752,0l.441.8a1,1,0,0,0,.394.394l.8.441a1,1,0,0,1,0,1.752l-.8.441a1,1,0,0,0-.394.394l-.441.8a1,1,0,0,1-1.752,0l-.441-.8a1,1,0,0,0-.394-.394l-.8-.441a1,1,0,0,1,0-1.752l.8-.441a1,1,0,0,0,.394-.394Z" transform="translate(0)" fill="#ffd73b"/>
        <path id="Polygon_2-2" data-name="Polygon 2" d="M1.469,1.178a.74.74,0,0,1,1.3,0h0a.74.74,0,0,0,.292.292h0a.74.74,0,0,1,0,1.3h0a.74.74,0,0,0-.292.292h0a.74.74,0,0,1-1.3,0h0a.74.74,0,0,0-.292-.292h0a.74.74,0,0,1,0-1.3h0a.74.74,0,0,0,.292-.292Z" transform="translate(2.118 2.118)" fill="#ebbb00"/>
      </g>
      <g id="Group_82" data-name="Group 82" transform="translate(437.618 362.665)">
        <path id="Polygon_1-3" data-name="Polygon 1" d="M3.227,1.592a1,1,0,0,1,1.752,0l.441.8a1,1,0,0,0,.394.394l.8.441a1,1,0,0,1,0,1.752l-.8.441a1,1,0,0,0-.394.394l-.441.8a1,1,0,0,1-1.752,0l-.441-.8a1,1,0,0,0-.394-.394l-.8-.441a1,1,0,0,1,0-1.752l.8-.441a1,1,0,0,0,.394-.394Z" transform="translate(0 0)" fill="#ffd73b"/>
        <path id="Polygon_2-3" data-name="Polygon 2" d="M1.469,1.178a.74.74,0,0,1,1.3,0h0a.74.74,0,0,0,.292.292h0a.74.74,0,0,1,0,1.3h0a.74.74,0,0,0-.292.292h0a.74.74,0,0,1-1.3,0h0a.74.74,0,0,0-.292-.292h0a.74.74,0,0,1,0-1.3h0a.74.74,0,0,0,.292-.292Z" transform="translate(2.118 2.118)" fill="#ebbb00"/>
      </g>
    </g>
  </g>
</svg>
