<svg xmlns="http://www.w3.org/2000/svg" width="182.088" height="182.088" viewBox="0 0 182.088 182.088">
  <g id="tracking" transform="translate(-124.999 -998.198)">
    <g id="Group_8775" data-name="Group 8775">
      <g id="Group_7601" data-name="Group 7601" transform="translate(0 47.319)">
        <g id="Group_7595" data-name="Group 7595" transform="translate(-234.993 648)">
          <g id="Group_80" data-name="Group 80" transform="translate(468.797 389.723)">
            <path id="Polygon_1" data-name="Polygon 1" d="M5.688,1.592a1,1,0,0,1,1.752,0L8.754,3.98a1,1,0,0,0,.394.394l2.388,1.314a1,1,0,0,1,0,1.752L9.148,8.754a1,1,0,0,0-.394.394L7.44,11.536a1,1,0,0,1-1.752,0L4.374,9.148a1,1,0,0,0-.394-.394L1.592,7.44a1,1,0,0,1,0-1.752L3.98,4.374a1,1,0,0,0,.394-.394Z" fill="#ffd73b"/>
            <path id="Polygon_2" data-name="Polygon 2" d="M2.512,1.592a1,1,0,0,1,1.752,0l.187.339a1,1,0,0,0,.394.394l.339.187a1,1,0,0,1,0,1.752l-.339.187a1,1,0,0,0-.394.394l-.187.339a1,1,0,0,1-1.752,0l-.187-.339a1,1,0,0,0-.394-.394l-.339-.187a1,1,0,0,1,0-1.752l.339-.187a1,1,0,0,0,.394-.394Z" transform="translate(3.388 3.388)" fill="#ebbb00"/>
          </g>
          <g id="Group_81" data-name="Group 81" transform="translate(434.5 416.588)">
            <path id="Polygon_1-2" data-name="Polygon 1" d="M2.5,1.592a1,1,0,0,1,1.752,0l.181.329a1,1,0,0,0,.394.394l.329.181a1,1,0,0,1,0,1.752l-.329.181a1,1,0,0,0-.394.394l-.181.329a1,1,0,0,1-1.752,0l-.181-.329a1,1,0,0,0-.394-.394L1.6,4.248A1,1,0,0,1,1.6,2.5l.329-.181a1,1,0,0,0,.394-.394Z" fill="#ffd73b"/>
            <path id="Polygon_2-2" data-name="Polygon 2" d="M1.208.968a.608.608,0,0,1,1.066,0h0a.608.608,0,0,0,.24.24h0a.608.608,0,0,1,0,1.066h0a.608.608,0,0,0-.24.24h0a.608.608,0,0,1-1.066,0h0a.608.608,0,0,0-.24-.24h0a.608.608,0,0,1,0-1.066h0a.608.608,0,0,0,.24-.24Z" transform="translate(1.741 1.741)" fill="#ebbb00"/>
          </g>
          <g id="Group_82" data-name="Group 82" transform="translate(460.934 368)">
            <path id="Polygon_1-3" data-name="Polygon 1" d="M2.5,1.592a1,1,0,0,1,1.752,0l.181.329a1,1,0,0,0,.394.394l.329.181a1,1,0,0,1,0,1.752l-.329.181a1,1,0,0,0-.394.394l-.181.329a1,1,0,0,1-1.752,0l-.181-.329a1,1,0,0,0-.394-.394L1.6,4.248A1,1,0,0,1,1.6,2.5l.329-.181a1,1,0,0,0,.394-.394Z" fill="#ffd73b"/>
            <path id="Polygon_2-3" data-name="Polygon 2" d="M1.208.968a.608.608,0,0,1,1.066,0h0a.608.608,0,0,0,.24.24h0a.608.608,0,0,1,0,1.066h0a.608.608,0,0,0-.24.24h0a.608.608,0,0,1-1.066,0h0a.608.608,0,0,0-.24-.24h0a.608.608,0,0,1,0-1.066h0a.608.608,0,0,0,.24-.24Z" transform="translate(1.741 1.741)" fill="#ebbb00"/>
          </g>
        </g>
      </g>
    </g>
    <g id="Group_8774" data-name="Group 8774">
      <g id="Group_7599" data-name="Group 7599" transform="translate(-362.505 129.886) rotate(-13)">
        <path id="Path_2" data-name="Path 2" d="M75.9,0A75.913,75.913,0,1,1,0,75.9,75.916,75.916,0,0,1,75.9,0Z" transform="translate(272 989)" fill="#0064d8"/>
        <path id="Path_1" data-name="Path 1" d="M0,0H100.228L97.3,56.107l10.031,8.21-7.1,28.649H0L4.811,70.457l6.455-11.142Z" transform="translate(303.364 1036.613) rotate(19)" fill="#1c2848"/>
        <g id="Group_7583" data-name="Group 7583" transform="translate(285.623 1002.623)">
          <g id="Path_3" data-name="Path 3" transform="matrix(1, -0.004, 0.004, 1, 0.507, 0.04)">
            <path id="Path_35" data-name="Path 35" d="M62.428,124.359A61.635,61.635,0,0,1,27.8,113.782,62.112,62.112,0,0,1,5.364,86.534,61.848,61.848,0,0,1,11.074,27.8,62.113,62.113,0,0,1,38.322,5.364a61.848,61.848,0,0,1,58.732,5.71,62.12,62.12,0,0,1,22.438,27.248,61.845,61.845,0,0,1-5.71,58.732,62.118,62.118,0,0,1-27.248,22.438A61.536,61.536,0,0,1,62.428,124.359Z" fill="#fff"/>
            <path id="Path_36" data-name="Path 36" d="M62.428.995A61.141,61.141,0,0,0,28.081,11.486,61.615,61.615,0,0,0,5.822,38.516a61.351,61.351,0,0,0,5.664,58.259,61.607,61.607,0,0,0,27.03,22.258,61.355,61.355,0,0,0,58.259-5.663,61.608,61.608,0,0,0,22.258-27.03,61.355,61.355,0,0,0-5.663-58.259A61.616,61.616,0,0,0,86.34,5.822,61.047,61.047,0,0,0,62.428.995m0-.995A62.428,62.428,0,1,1,0,62.428,62.428,62.428,0,0,1,62.428,0Z" fill="#fff"/>
            <g id="Solid" transform="translate(-16.923 -32.239) rotate(13.221)">
              <circle id="Ellipse_3" data-name="Ellipse 3" cx="0.716" cy="0.716" r="0.716" transform="translate(85.888 67.991)" fill="#1d254a"/>
              <path id="Path_30132" data-name="Path 30132" d="M711.754,710.619l-3.343-3.343-1.135,1.135,3.343,3.343a.8.8,0,0,0,1.135-1.135Z" transform="translate(-593.903 -618.954)" fill="#1d254a"/>
              <path id="Path_30133" data-name="Path 30133" d="M95.9,80.155A9.3,9.3,0,0,1,113.078,75.2V54.4a1.433,1.433,0,0,0-1.431-1.431H84.457A1.433,1.433,0,0,0,83.026,54.4V79.44H81.6V59.4h-.716a1.433,1.433,0,0,0-1.431,1.431V80.871H95.932Q95.905,80.516,95.9,80.155Zm0-6.44H93.043v-1.43H95.9Zm15.741-9.3h-4.293V62.983h4.293Zm0-2.862h-4.293V60.121h4.293ZM90.181,54.4h1.431v1.431H90.181Zm-2.862,0H88.75v1.431H87.319Zm-2.862,0h1.431v1.431H84.457Zm0,2.862H97.4a4.292,4.292,0,0,1,8.465,0h5.785V58.69h-5.774a5.149,5.149,0,0,1-.915,2.3h0l-2.746,3.844a.716.716,0,0,1-1.164,0L98.3,60.986a5.148,5.148,0,0,1-.915-2.3H84.457Zm0,2.862H90.9v1.431H84.46Zm0,2.862h5.009v1.431H84.457Zm0,5.724a2.147,2.147,0,0,1,4.17-.716h3.824a2.147,2.147,0,0,1,4.047,0h3.108a2.147,2.147,0,0,1,4.047,0h3.824a2.147,2.147,0,1,1,0,1.431h-3.824a2.147,2.147,0,0,1-4.047,0H96.5a2.147,2.147,0,0,1-4.047,0H88.627a2.147,2.147,0,0,1-4.17-.716Zm3.578,3.578v1.431H85.172V72.285ZM95.19,77.3H85.172V75.862H95.19Z" fill="#0562d4"/>
              <path id="Path_30134" data-name="Path 30134" d="M439.828,100.76l2.164-3.029h0a3.728,3.728,0,0,0,.7-2.18,2.862,2.862,0,0,0-5.724,0,3.728,3.728,0,0,0,.7,2.18Zm0-6.64a1.431,1.431,0,1,1-1.431,1.431,1.431,1.431,0,0,1,1.431-1.431Z" transform="translate(-338.198 -37.578)" fill="#1d254a"/>
              <circle id="Ellipse_4" data-name="Ellipse 4" cx="0.716" cy="0.716" r="0.716" transform="translate(108.785 67.991)" fill="#1d254a"/>
              <circle id="Ellipse_5" data-name="Ellipse 5" cx="0.716" cy="0.716" r="0.716" transform="translate(100.914 67.991)" fill="#1d254a"/>
              <circle id="Ellipse_6" data-name="Ellipse 6" cx="0.716" cy="0.716" r="0.716" transform="translate(93.759 67.991)" fill="#1d254a"/>
              <path id="Path_30135" data-name="Path 30135" d="M97.88,599.44a9.277,9.277,0,0,1-1.724-3.578H79.448v2.147a1.433,1.433,0,0,0,1.431,1.431Z" transform="translate(0 -513.56)" fill="#0562d4"/>
              <path id="Path_30136" data-name="Path 30136" d="M729.945,193.6V173.569a1.433,1.433,0,0,0-1.431-1.431H727.8s-.009,21.229-.027,21.466Z" transform="translate(-613.29 -112.733)" fill="#0562d4"/>
              <path id="Path_30137" data-name="Path 30137" d="M418.353,410.483a7.871,7.871,0,1,0,7.871,7.871,7.871,7.871,0,0,0-7.871-7.871Zm0,14.31a6.44,6.44,0,1,1,6.44-6.44A6.44,6.44,0,0,1,418.353,424.793Z" transform="translate(-313.147 -338.198)" fill="#1d254a"/>
              <path id="Path_30138" data-name="Path 30138" d="M468.457,463.448a5.009,5.009,0,1,0,5.009,5.009,5.009,5.009,0,0,0-5.009-5.009Zm0,2.862a2.149,2.149,0,0,0-2.147,2.147h-1.431a3.582,3.582,0,0,1,3.578-3.578Z" transform="translate(-363.25 -388.302)" fill="#1d254a"/>
              <path id="Path_30139" data-name="Path 30139" d="M667.979,666.844a9.386,9.386,0,0,1-1.135,1.135l1.173,1.173,1.135-1.135Z" transform="translate(-555.655 -580.707)" fill="#1d254a"/>
              <path id="Path_30140" data-name="Path 30140" d="M289.4,689.932a9.316,9.316,0,0,1-2.241-1.38h-4.264l-1.717,5.724H278.07v1.431h15.74v-1.431H290.7Z" transform="translate(-187.888 -601.241)" fill="#1d254a"/>
              <path id="Path_30141" data-name="Path 30141" d="M705.546,599.44a1.433,1.433,0,0,0,1.431-1.431v-2.147h-2.4a9.246,9.246,0,0,1-1.089,2.657l.92.92Z" transform="translate(-590.322 -513.56)" fill="#0562d4"/>
            </g>
          </g>
          <circle id="Ellipse_3-2" data-name="Ellipse 3" cx="15.569" cy="15.569" r="15.569" transform="translate(32.112 105.094)" fill="#c1ddfc"/>
        </g>
      </g>
      <g id="Group_80-2" data-name="Group 80" transform="translate(246.902 1074.838)">
        <path id="Polygon_1-4" data-name="Polygon 1" d="M5.821,1.592a1,1,0,0,1,1.752,0L8.934,4.065a1,1,0,0,0,.394.394L11.8,5.821a1,1,0,0,1,0,1.752L9.328,8.934a1,1,0,0,0-.394.394L7.573,11.8a1,1,0,0,1-1.752,0L4.459,9.328a1,1,0,0,0-.394-.394L1.592,7.573a1,1,0,0,1,0-1.752L4.065,4.459a1,1,0,0,0,.394-.394Z" fill="#ffd73b"/>
        <path id="Polygon_2-4" data-name="Polygon 2" d="M2.58,1.592a1,1,0,0,1,1.752,0l.211.384a1,1,0,0,0,.394.394l.384.211a1,1,0,0,1,0,1.752l-.384.211a1,1,0,0,0-.394.394l-.211.384a1,1,0,0,1-1.752,0l-.211-.384a1,1,0,0,0-.394-.394l-.384-.211a1,1,0,0,1,0-1.752l.384-.211a1,1,0,0,0,.394-.394Z" transform="translate(3.456 3.456)" fill="#ebbb00"/>
      </g>
      <g id="Group_81-2" data-name="Group 81" transform="translate(186.911 1109.247)">
        <path id="Polygon_1-5" data-name="Polygon 1" d="M2.565,1.592a1,1,0,0,1,1.752,0l.206.373a1,1,0,0,0,.394.394l.373.206a1,1,0,0,1,0,1.752l-.373.206a1,1,0,0,0-.394.394l-.206.373a1,1,0,0,1-1.752,0l-.206-.373a1,1,0,0,0-.394-.394l-.373-.206a1,1,0,0,1,0-1.752l.373-.206a1,1,0,0,0,.394-.394Z" fill="#ffd73b"/>
        <path id="Polygon_2-5" data-name="Polygon 2" d="M1.232.988a.621.621,0,0,1,1.087,0h0a.621.621,0,0,0,.244.244h0a.621.621,0,0,1,0,1.087h0a.621.621,0,0,0-.244.244h0a.621.621,0,0,1-1.087,0h0A.621.621,0,0,0,.988,2.32h0a.621.621,0,0,1,0-1.087h0A.621.621,0,0,0,1.232.988Z" transform="translate(1.776 1.776)" fill="#ebbb00"/>
      </g>
      <g id="Group_82-2" data-name="Group 82" transform="translate(215.657 1050.595)">
        <path id="Polygon_1-6" data-name="Polygon 1" d="M2.565,1.592a1,1,0,0,1,1.752,0l.206.373a1,1,0,0,0,.394.394l.373.206a1,1,0,0,1,0,1.752l-.373.206a1,1,0,0,0-.394.394l-.206.373a1,1,0,0,1-1.752,0l-.206-.373a1,1,0,0,0-.394-.394l-.373-.206a1,1,0,0,1,0-1.752l.373-.206a1,1,0,0,0,.394-.394Z" fill="#ffd73b"/>
        <path id="Polygon_2-6" data-name="Polygon 2" d="M1.232.988a.621.621,0,0,1,1.087,0h0a.621.621,0,0,0,.244.244h0a.621.621,0,0,1,0,1.087h0a.621.621,0,0,0-.244.244h0a.621.621,0,0,1-1.087,0h0A.621.621,0,0,0,.988,2.32h0a.621.621,0,0,1,0-1.087h0A.621.621,0,0,0,1.232.988Z" transform="translate(1.776 1.776)" fill="#ebbb00"/>
      </g>
    </g>
  </g>
</svg>
