<svg xmlns="http://www.w3.org/2000/svg" width="182.088" height="182.088" viewBox="0 0 182.088 182.088">
  <g id="training" transform="translate(-124.999 -998.198)">
    <g id="Group_8775" data-name="Group 8775">
      <g id="Group_7601" data-name="Group 7601" transform="translate(0 47.319)">
        <g id="Group_7595" data-name="Group 7595" transform="translate(-234.993 648)">
          <g id="Group_80" data-name="Group 80" transform="translate(468.797 389.723)">
            <path id="Polygon_1" data-name="Polygon 1" d="M5.688,1.592a1,1,0,0,1,1.752,0L8.754,3.98a1,1,0,0,0,.394.394l2.388,1.314a1,1,0,0,1,0,1.752L9.148,8.754a1,1,0,0,0-.394.394L7.44,11.536a1,1,0,0,1-1.752,0L4.374,9.148a1,1,0,0,0-.394-.394L1.592,7.44a1,1,0,0,1,0-1.752L3.98,4.374a1,1,0,0,0,.394-.394Z" fill="#ffd73b"/>
            <path id="Polygon_2" data-name="Polygon 2" d="M2.512,1.592a1,1,0,0,1,1.752,0l.187.339a1,1,0,0,0,.394.394l.339.187a1,1,0,0,1,0,1.752l-.339.187a1,1,0,0,0-.394.394l-.187.339a1,1,0,0,1-1.752,0l-.187-.339a1,1,0,0,0-.394-.394l-.339-.187a1,1,0,0,1,0-1.752l.339-.187a1,1,0,0,0,.394-.394Z" transform="translate(3.388 3.388)" fill="#ebbb00"/>
          </g>
          <g id="Group_81" data-name="Group 81" transform="translate(434.5 416.588)">
            <path id="Polygon_1-2" data-name="Polygon 1" d="M2.5,1.592a1,1,0,0,1,1.752,0l.181.329a1,1,0,0,0,.394.394l.329.181a1,1,0,0,1,0,1.752l-.329.181a1,1,0,0,0-.394.394l-.181.329a1,1,0,0,1-1.752,0l-.181-.329a1,1,0,0,0-.394-.394L1.6,4.248A1,1,0,0,1,1.6,2.5l.329-.181a1,1,0,0,0,.394-.394Z" fill="#ffd73b"/>
            <path id="Polygon_2-2" data-name="Polygon 2" d="M1.208.968a.608.608,0,0,1,1.066,0h0a.608.608,0,0,0,.24.24h0a.608.608,0,0,1,0,1.066h0a.608.608,0,0,0-.24.24h0a.608.608,0,0,1-1.066,0h0a.608.608,0,0,0-.24-.24h0a.608.608,0,0,1,0-1.066h0a.608.608,0,0,0,.24-.24Z" transform="translate(1.741 1.741)" fill="#ebbb00"/>
          </g>
          <g id="Group_82" data-name="Group 82" transform="translate(460.934 368)">
            <path id="Polygon_1-3" data-name="Polygon 1" d="M2.5,1.592a1,1,0,0,1,1.752,0l.181.329a1,1,0,0,0,.394.394l.329.181a1,1,0,0,1,0,1.752l-.329.181a1,1,0,0,0-.394.394l-.181.329a1,1,0,0,1-1.752,0l-.181-.329a1,1,0,0,0-.394-.394L1.6,4.248A1,1,0,0,1,1.6,2.5l.329-.181a1,1,0,0,0,.394-.394Z" fill="#ffd73b"/>
            <path id="Polygon_2-3" data-name="Polygon 2" d="M1.208.968a.608.608,0,0,1,1.066,0h0a.608.608,0,0,0,.24.24h0a.608.608,0,0,1,0,1.066h0a.608.608,0,0,0-.24.24h0a.608.608,0,0,1-1.066,0h0a.608.608,0,0,0-.24-.24h0a.608.608,0,0,1,0-1.066h0a.608.608,0,0,0,.24-.24Z" transform="translate(1.741 1.741)" fill="#ebbb00"/>
          </g>
        </g>
      </g>
    </g>
    <g id="Group_8774" data-name="Group 8774">
      <g id="Group_7599" data-name="Group 7599" transform="translate(-362.505 129.886) rotate(-13)">
        <path id="Path_2" data-name="Path 2" d="M75.9,0A75.913,75.913,0,1,1,0,75.9,75.916,75.916,0,0,1,75.9,0Z" transform="translate(272 989)" fill="#0064d8"/>
        <path id="Path_1" data-name="Path 1" d="M0,0H100.228L97.3,56.107l10.031,8.21-7.1,28.649H0L4.811,70.457l6.455-11.142Z" transform="translate(303.364 1036.613) rotate(19)" fill="#1c2848"/>
        <g id="Group_7583" data-name="Group 7583" transform="translate(285.623 1002.623)">
          <g id="Path_3" data-name="Path 3" transform="matrix(1, -0.004, 0.004, 1, 0.507, 0.04)">
            <path id="Path_35" data-name="Path 35" d="M62.428,124.359A61.635,61.635,0,0,1,27.8,113.782,62.112,62.112,0,0,1,5.364,86.534,61.848,61.848,0,0,1,11.074,27.8,62.113,62.113,0,0,1,38.322,5.364a61.848,61.848,0,0,1,58.732,5.71,62.12,62.12,0,0,1,22.438,27.248,61.845,61.845,0,0,1-5.71,58.732,62.118,62.118,0,0,1-27.248,22.438A61.536,61.536,0,0,1,62.428,124.359Z" fill="#fff"/>
            <path id="Path_36" data-name="Path 36" d="M62.428.995A61.141,61.141,0,0,0,28.081,11.486,61.615,61.615,0,0,0,5.822,38.516a61.351,61.351,0,0,0,5.664,58.259,61.607,61.607,0,0,0,27.03,22.258,61.355,61.355,0,0,0,58.259-5.663,61.608,61.608,0,0,0,22.258-27.03,61.355,61.355,0,0,0-5.663-58.259A61.616,61.616,0,0,0,86.34,5.822,61.047,61.047,0,0,0,62.428.995m0-.995A62.428,62.428,0,1,1,0,62.428,62.428,62.428,0,0,1,62.428,0Z" fill="#fff"/>
            <g id="Filled_Outline" data-name="Filled Outline" transform="translate(46.901 37.167) rotate(13.221)">
              <path id="Path_30142" data-name="Path 30142" d="M6.288,20h32.2a1.288,1.288,0,0,1,1.288,1.288V43.827H5V21.288A1.288,1.288,0,0,1,6.288,20Z" transform="translate(-1.068 -6.409)" fill="#1d254a"/>
              <path id="Path_30143" data-name="Path 30143" d="M3,57H40.35v1.288a1.288,1.288,0,0,1-1.288,1.288H4.288A1.288,1.288,0,0,1,3,58.288Z" transform="translate(-0.356 -19.582)" fill="#0562d4"/>
              <path id="Path_30144" data-name="Path 30144" d="M30,5.576h2.576V4.288A1.288,1.288,0,0,0,31.288,3h0A1.288,1.288,0,0,0,30,4.288Z" transform="translate(-9.969 -0.356)" fill="#0562d4"/>
              <path id="Path_30151" data-name="Path 30151" d="M1.288,0H24.471a1.288,1.288,0,0,1,1.288,1.288V28.334a1.288,1.288,0,0,1-1.288,1.288H1.288A1.288,1.288,0,0,1,0,28.334V1.288A1.288,1.288,0,0,1,1.288,0Z" transform="translate(8.44 5.22)" fill="#0562d4"/>
              <path id="Path_30152" data-name="Path 30152" d="M0,0H20.607V24.471H0Z" transform="translate(11.016 7.796)" fill="#fff"/>
              <rect id="Rectangle_1045" data-name="Rectangle 1045" width="15.285" height="1.698" transform="translate(13.889 5.397)" fill="#fff"/>
              <path id="Path_30145" data-name="Path 30145" d="M21,11v2.576H35.167V11" transform="translate(-6.765 -3.204)" fill="#fff"/>
              <path id="Path_30146" data-name="Path 30146" d="M39.35,14.879a1.932,1.932,0,0,0-1.932-1.932H34.842V6.508A1.932,1.932,0,0,0,32.91,4.576H23.251V3.932a1.932,1.932,0,0,0-3.864,0v.644H9.728A1.932,1.932,0,0,0,7.8,6.508v6.44H5.22A1.932,1.932,0,0,0,3.288,14.88V36.774H2v1.932a1.932,1.932,0,0,0,1.932,1.932H38.706a1.932,1.932,0,0,0,1.932-1.932V36.774H39.35ZM20.675,3.932a.644.644,0,1,1,1.288,0v.644H20.675Zm7.084,1.932V7.152H14.879V5.864ZM14.879,8.44h12.88V9.728H14.879Zm14.167,2.576V8.44h1.932V31.622H11.659V8.44h1.932v2.576ZM9.084,6.508a.644.644,0,0,1,.644-.644h3.864V7.152h-3.22V32.91H32.266V7.152h-3.22V5.864H32.91a.644.644,0,0,1,.644.644V33.554a.644.644,0,0,1-.644.644H9.728a.644.644,0,0,1-.644-.644ZM4.576,14.879a.644.644,0,0,1,.644-.644H7.8V33.554a1.932,1.932,0,0,0,1.932,1.932H32.91a1.932,1.932,0,0,0,1.932-1.932V14.235h2.576a.644.644,0,0,1,.644.644V36.774H4.576ZM39.35,38.706a.644.644,0,0,1-.644.644H3.932a.644.644,0,0,1-.644-.644v-.644H39.35Z" fill="#1d254a"/>
              <path id="Path_30147" data-name="Path 30147" d="M21.036,22.235,24.067,19.2l-.911-.911L21.035,20.41l-.833-.833-.911.911Z" transform="translate(-6.157 -5.801)" fill="#1d254a"/>
              <rect id="Rectangle_1046" data-name="Rectangle 1046" width="10.19" height="1.698" transform="translate(18.984 13.889)" fill="#1d254a"/>
              <path id="Path_30148" data-name="Path 30148" d="M21.036,27.414l-.833-.833-.911.911,1.743,1.743L24.067,26.2l-.911-.911Z" transform="translate(-6.157 -8.293)" fill="#1d254a"/>
              <rect id="Rectangle_1047" data-name="Rectangle 1047" width="10.19" height="1.698" transform="translate(18.984 17.285)" fill="#1d254a"/>
              <rect id="Rectangle_1048" data-name="Rectangle 1048" width="10.19" height="1.698" transform="translate(18.984 22.38)" fill="#1d254a"/>
              <rect id="Rectangle_1049" data-name="Rectangle 1049" width="10.19" height="1.698" transform="translate(18.984 27.476)" fill="#1d254a"/>
              <path id="Path_30149" data-name="Path 30149" d="M21.2,35.779l.833-.833.833.833.911-.911-.833-.833.833-.833-.911-.911-.833.833-.833-.833-.911.911.833.833-.833.833Z" transform="translate(-6.513 -10.785)" fill="#1d254a"/>
              <path id="Path_30150" data-name="Path 30150" d="M21.036,41.414l-.833-.833-.911.911,1.743,1.743L24.067,40.2l-.911-.911Z" transform="translate(-6.157 -13.278)" fill="#1d254a"/>
            </g>
          </g>
          <circle id="Ellipse_3" data-name="Ellipse 3" cx="15.569" cy="15.569" r="15.569" transform="translate(32.112 105.094)" fill="#c1ddfc"/>
        </g>
      </g>
      <g id="Group_80-2" data-name="Group 80" transform="translate(246.902 1074.838)">
        <path id="Polygon_1-4" data-name="Polygon 1" d="M5.821,1.592a1,1,0,0,1,1.752,0L8.934,4.065a1,1,0,0,0,.394.394L11.8,5.821a1,1,0,0,1,0,1.752L9.328,8.934a1,1,0,0,0-.394.394L7.573,11.8a1,1,0,0,1-1.752,0L4.459,9.328a1,1,0,0,0-.394-.394L1.592,7.573a1,1,0,0,1,0-1.752L4.065,4.459a1,1,0,0,0,.394-.394Z" fill="#ffd73b"/>
        <path id="Polygon_2-4" data-name="Polygon 2" d="M2.58,1.592a1,1,0,0,1,1.752,0l.211.384a1,1,0,0,0,.394.394l.384.211a1,1,0,0,1,0,1.752l-.384.211a1,1,0,0,0-.394.394l-.211.384a1,1,0,0,1-1.752,0l-.211-.384a1,1,0,0,0-.394-.394l-.384-.211a1,1,0,0,1,0-1.752l.384-.211a1,1,0,0,0,.394-.394Z" transform="translate(3.456 3.456)" fill="#ebbb00"/>
      </g>
      <g id="Group_81-2" data-name="Group 81" transform="translate(186.911 1109.247)">
        <path id="Polygon_1-5" data-name="Polygon 1" d="M2.565,1.592a1,1,0,0,1,1.752,0l.206.373a1,1,0,0,0,.394.394l.373.206a1,1,0,0,1,0,1.752l-.373.206a1,1,0,0,0-.394.394l-.206.373a1,1,0,0,1-1.752,0l-.206-.373a1,1,0,0,0-.394-.394l-.373-.206a1,1,0,0,1,0-1.752l.373-.206a1,1,0,0,0,.394-.394Z" fill="#ffd73b"/>
        <path id="Polygon_2-5" data-name="Polygon 2" d="M1.232.988a.621.621,0,0,1,1.087,0h0a.621.621,0,0,0,.244.244h0a.621.621,0,0,1,0,1.087h0a.621.621,0,0,0-.244.244h0a.621.621,0,0,1-1.087,0h0A.621.621,0,0,0,.988,2.32h0a.621.621,0,0,1,0-1.087h0A.621.621,0,0,0,1.232.988Z" transform="translate(1.776 1.776)" fill="#ebbb00"/>
      </g>
      <g id="Group_82-2" data-name="Group 82" transform="translate(215.657 1050.595)">
        <path id="Polygon_1-6" data-name="Polygon 1" d="M2.565,1.592a1,1,0,0,1,1.752,0l.206.373a1,1,0,0,0,.394.394l.373.206a1,1,0,0,1,0,1.752l-.373.206a1,1,0,0,0-.394.394l-.206.373a1,1,0,0,1-1.752,0l-.206-.373a1,1,0,0,0-.394-.394l-.373-.206a1,1,0,0,1,0-1.752l.373-.206a1,1,0,0,0,.394-.394Z" fill="#ffd73b"/>
        <path id="Polygon_2-6" data-name="Polygon 2" d="M1.232.988a.621.621,0,0,1,1.087,0h0a.621.621,0,0,0,.244.244h0a.621.621,0,0,1,0,1.087h0a.621.621,0,0,0-.244.244h0a.621.621,0,0,1-1.087,0h0A.621.621,0,0,0,.988,2.32h0a.621.621,0,0,1,0-1.087h0A.621.621,0,0,0,1.232.988Z" transform="translate(1.776 1.776)" fill="#ebbb00"/>
      </g>
    </g>
  </g>
</svg>
