<svg id="call-us" xmlns="http://www.w3.org/2000/svg" width="11.288" height="11.289" viewBox="0 0 11.288 11.289">
  <g id="Group_499" data-name="Group 499" transform="translate(0 0)">
    <g id="Group_498" data-name="Group 498">
      <path id="Path_2778" data-name="Path 2778" d="M11.07,8.974,9.818,8.14,8.706,7.4a.493.493,0,0,0-.662.108l-.688.883a.489.489,0,0,1-.626.13A8.014,8.014,0,0,1,4.493,6.794,8.072,8.072,0,0,1,2.768,4.556.489.489,0,0,1,2.9,3.932l.885-.688a.493.493,0,0,0,.108-.662L3.171,1.5,2.314.218a.493.493,0,0,0-.663-.15L.662.662a1.208,1.208,0,0,0-.547.71c-.27.985-.325,3.16,3.16,6.643s5.658,3.429,6.643,3.16a1.207,1.207,0,0,0,.71-.549l.593-.988A.493.493,0,0,0,11.07,8.974Z" transform="translate(-0.003 0.002)" fill="#fff"/>
      <path id="Path_2779" data-name="Path 2779" d="M282.678,62.181a3.311,3.311,0,0,1,3.308,3.308.195.195,0,1,0,.389,0,3.7,3.7,0,0,0-3.7-3.7.195.195,0,0,0,0,.389Z" transform="translate(-276.257 -60.429)" fill="#fff"/>
      <path id="Path_2780" data-name="Path 2780" d="M282.677,115.145a2.145,2.145,0,0,1,2.141,2.141.195.195,0,0,0,.389,0,2.533,2.533,0,0,0-2.53-2.53.195.195,0,1,0,0,.389Z" transform="translate(-276.256 -112.225)" fill="#fff"/>
      <path id="Path_2781" data-name="Path 2781" d="M282.677,168.112a.974.974,0,0,1,.973.973.195.195,0,0,0,.389,0,1.364,1.364,0,0,0-1.362-1.362.195.195,0,1,0,0,.389Z" transform="translate(-276.257 -164.025)" fill="#fff"/>
    </g>
  </g>
</svg>
