<svg xmlns="http://www.w3.org/2000/svg" width="32.723" height="25" viewBox="0 0 32.723 25">
  <g id="detail" transform="translate(0 -35.048)">
    <g id="Group_7671" data-name="Group 7671" transform="translate(0 35.048)">
      <g id="Group_7670" data-name="Group 7670" transform="translate(0 0)">
        <path id="Path_29064" data-name="Path 29064" d="M36,35.049h0a1.154,1.154,0,0,0-.82.34,1.166,1.166,0,0,0-.345.831V53.779a1.175,1.175,0,0,0,1.172,1.171c2.726.007,7.292.575,10.442,3.871V40.445a1.122,1.122,0,0,0-.161-.593C43.7,35.688,38.733,35.055,36,35.049Z" transform="translate(-30.995 -35.049)" fill="#fff"/>
        <path id="Path_29065" data-name="Path 29065" d="M168.366,53.778V36.219a1.166,1.166,0,0,0-.345-.831,1.154,1.154,0,0,0-.82-.34h0c-2.732.007-7.7.639-10.286,4.8a1.122,1.122,0,0,0-.161.593V58.82c3.15-3.3,7.717-3.865,10.442-3.871A1.175,1.175,0,0,0,168.366,53.778Z" transform="translate(-139.48 -35.048)" fill="#fff"/>
        <path id="Path_29066" data-name="Path 29066" d="M184.141,71.8h-.849v14.68a3,3,0,0,1-2.986,2.989c-2.312.006-6.124.458-8.824,3.013a28.189,28.189,0,0,1,12.4.239,1.171,1.171,0,0,0,1.433-1.141V72.972A1.172,1.172,0,0,0,184.141,71.8Z" transform="translate(-152.588 -67.752)" fill="#fff"/>
        <path id="Path_29067" data-name="Path 29067" d="M2.02,86.481V71.8H1.171A1.172,1.172,0,0,0,0,72.972V91.581a1.171,1.171,0,0,0,1.433,1.141,28.187,28.187,0,0,1,12.4-.239c-2.7-2.555-6.512-3.007-8.823-3.013A3,3,0,0,1,2.02,86.481Z" transform="translate(0 -67.752)" fill="#fff"/>
      </g>
    </g>
  </g>
</svg>
