<svg xmlns="http://www.w3.org/2000/svg" width="32" height="38.842" viewBox="0 0 32 38.842">
  <g id="enquire" transform="translate(-62.065 -20.351)">
    <path id="Path_29056" data-name="Path 29056" d="M309.967,386.322a.886.886,0,0,0-.572-.318,1.058,1.058,0,0,0-.639.351l-.164.164,5.125,5.125.063-.065a.58.58,0,0,1,.061-.065.806.806,0,0,0-.019-1.337l-3.834-3.834Z" transform="translate(-226.2 -335.504)" fill="#fff"/>
    <path id="Path_29057" data-name="Path 29057" d="M103.37,180.815c.511-.511.511-.822,0-1.333l-1.893-1.893-.006-.006q-.164-.169-.326-.333l-.333-.34c-.451-.466-.833-.852-1.228-1.221l-.014-.014-.022-.022a.935.935,0,0,0-.6-.315,1.03,1.03,0,0,0-.653.33l-.2.2,5.113,5.113Z" transform="translate(-33.059 -142.208)" fill="#fff"/>
    <path id="Path_29058" data-name="Path 29058" d="M67.725,206.932A30.219,30.219,0,0,0,77.767,214.8a14.487,14.487,0,0,0,5.194,1.566c.086.006.186.006.282.006a2.768,2.768,0,0,0,2.177-.91,18.146,18.146,0,0,1,1.277-1.33l-5.121-5.121L80.184,210.4a2.027,2.027,0,0,1-1.462.648,2.074,2.074,0,0,1-.945-.234c-.029-.015-.06-.032-.09-.051l-.006,0-.034-.019c-.179-.111-.4-.223-.64-.342a10.014,10.014,0,0,1-.9-.494,25.974,25.974,0,0,1-6.281-5.707l-.028-.033a15.775,15.775,0,0,1-2.32-3.791q-.008-.019-.014-.038l-.021-.063,0-.008a1.984,1.984,0,0,1,.474-2.127.654.654,0,0,1,.083-.082l0,0c.453-.407.877-.819,1.337-1.283l-5.116-5.115-1.343,1.343a2.6,2.6,0,0,0-.79,1.7,9.343,9.343,0,0,0,.742,4.09A27.639,27.639,0,0,0,67.725,206.932Z" transform="translate(0 -157.176)" fill="#fff"/>
    <path id="Path_29059" data-name="Path 29059" d="M268.171,70.812l-1.876-1.083-5.03,2.9,1.877,1.083Z" transform="translate(-182.776 -45.307)" fill="#fff"/>
    <path id="Path_29060" data-name="Path 29060" d="M300.021,95.01l5.03-2.9-2-1.154-5.03,2.9Z" transform="translate(-216.503 -64.78)" fill="#fff"/>
    <path id="Path_29061" data-name="Path 29061" d="M259.03,119.973l-5.03-2.9v5.808l5.03,2.9Z" transform="translate(-176.11 -88.743)" fill="#fff"/>
    <path id="Path_29062" data-name="Path 29062" d="M199.724,39.982a.577.577,0,0,1,.265.648l-.727,2.686,2.953-2.07a.578.578,0,0,1,.461-.09,10.538,10.538,0,1,0-2.952-1.175Zm-1.462-12.656a.587.587,0,0,1,.3-.5l6.189-3.57a.582.582,0,0,1,.58,0l6.175,3.57a.568.568,0,0,1,.279.5v7.141a.568.568,0,0,1-.278.5l-6.179,3.571a.57.57,0,0,1-.573,0l-6.194-3.571a.587.587,0,0,1-.3-.5Z" transform="translate(-121.527)" fill="#fff"/>
    <path id="Path_29063" data-name="Path 29063" d="M329,125.779l5.03-2.9v-5.808l-5.03,2.9Z" transform="translate(-244.925 -88.741)" fill="#fff"/>
  </g>
</svg>
