<svg xmlns="http://www.w3.org/2000/svg" width="73.876" height="73.876" viewBox="0 0 73.876 73.876">
  <g id="virtual" transform="translate(0)">
    <path id="Path_17" data-name="Path 17" d="M215.642,204.786v-1.5a10.108,10.108,0,0,1-7.642,0v1.5l3.821,3.821Zm0,0" transform="translate(-174.883 -170.923)" fill="#181818"/>
    <path id="Path_18" data-name="Path 18" d="M154.547,125.095h.088a10.249,10.249,0,0,1-.088-1.274V120a2.547,2.547,0,1,0,0,5.095Zm0,0" transform="translate(-127.799 -100.894)" fill="#181818"/>
    <path id="Path_19" data-name="Path 19" d="M199.285,99.109a3.11,3.11,0,0,0-4.092-2.95l-3.55,1.184-3.549-1.184A3.111,3.111,0,0,0,184,99.109v4.533a7.642,7.642,0,1,0,15.285,0Zm0,0" transform="translate(-154.704 -80.715)" fill="#181818"/>
    <path id="Path_20" data-name="Path 20" d="M243.977,228.55l3.951,3.16,2.518-5.877-2.912-.841Zm0,0" transform="translate(-205.132 -189.17)" fill="#181818"/>
    <path id="Path_21" data-name="Path 21" d="M179.391,225.833l2.518,5.877,3.951-3.16-3.557-3.557Zm0,0" transform="translate(-150.829 -189.17)" fill="#181818"/>
    <path id="Path_22" data-name="Path 22" d="M295.537,123.821a10.249,10.249,0,0,1-.088,1.274h.088a2.547,2.547,0,1,0,0-5.095Zm0,0" transform="translate(-248.409 -100.894)" fill="#181818"/>
    <path id="Path_23" data-name="Path 23" d="M154.88,16.558A5.624,5.624,0,0,1,162,13.029l2.742.913,2.742-.914a5.63,5.63,0,0,1,7.117,3.531h.331a5.039,5.039,0,0,1,2.547.708v-4.53a12.737,12.737,0,1,0-25.474,0v4.53a5.039,5.039,0,0,1,2.547-.708Zm0,0" transform="translate(-127.799)" fill="#181818"/>
    <path id="Path_24" data-name="Path 24" d="M144.759,248.31v-6.032a6.4,6.4,0,0,0-4.6-6.119l-4.933-1.424-3.963,9.246-6.88-5.5-6.879,5.5-3.963-9.246L108.6,236.16a6.4,6.4,0,0,0-4.6,6.118v6.032h5.095v-7.642h2.547v7.642h25.475v-7.642h2.547v7.642Zm0,0" transform="translate(-87.442 -197.361)" fill="#181818"/>
    <path id="Path_25" data-name="Path 25" d="M70.055,112H52.223v3.821a5.1,5.1,0,0,1-5.095,5.095h-.75a10.224,10.224,0,0,1-3.071,4.12V127.6l10.113,2.917a8.959,8.959,0,0,1,6.445,8.567v8.58H14.011v-8.58a8.96,8.96,0,0,1,6.445-8.567L30.569,127.6v-2.564a10.225,10.225,0,0,1-3.071-4.12h-.75a5.1,5.1,0,0,1-5.095-5.095V112H3.821A3.826,3.826,0,0,0,0,115.821v34.391H15.671l3.821,2.547H73.876V115.821A3.826,3.826,0,0,0,70.055,112ZM2.547,114.547H19.106v2.547H2.547Zm0,5.095H19.106v2.547H2.547Zm0,5.095H19.106v2.547H2.547Zm68.781,25.475H62.412v-2.547h8.916Zm0-5.095H62.412v-2.547h8.916Zm0-5.095H62.412v-2.547h8.916Zm0-5.095H62.412V132.38h8.916Zm0,0" transform="translate(0 -94.168)" fill="#181818"/>
    <path id="Path_26" data-name="Path 26" d="M14.9,368H0v3.821a3.826,3.826,0,0,0,3.821,3.821H22.927v5.095H17.832v2.547H56.044v-2.547H50.949V378.19H25.474v-2.547h44.58a3.826,3.826,0,0,0,3.821-3.821v-1.274H18.72Zm-9.8,5.095H2.547v-2.547H5.095Zm5.095,0H7.642v-2.547H10.19Zm5.095,0H12.737v-2.547h2.547Zm0,0" transform="translate(0 -309.409)" fill="#181818"/>
  </g>
</svg>
