<svg xmlns="http://www.w3.org/2000/svg" xmlns:xlink="http://www.w3.org/1999/xlink" width="74.522" height="68.098" viewBox="0 0 74.522 68.098">
  <defs>
    <linearGradient id="linear-gradient" x1="0.5" x2="0.5" y2="1" gradientUnits="objectBoundingBox">
      <stop offset="0" stop-color="#1c2848"/>
      <stop offset="1" stop-color="#06080e"/>
    </linearGradient>
  </defs>
  <g id="classroom" transform="translate(-8.987 -10)">
    <g id="flat" transform="translate(8.987 10)">
      <rect id="Rectangle_1094" data-name="Rectangle 1094" width="74.44" height="50.753" rx="1" fill="url(#linear-gradient)"/>
      <path id="Path_28568" data-name="Path 28568" d="M146.248,440h31.479a2.249,2.249,0,0,1,2.249,2.249v2.891H144v-2.891A2.248,2.248,0,0,1,146.248,440Z" transform="translate(-124.727 -377.042)" fill="#cbcbcb"/>
      <path id="Path_28569" data-name="Path 28569" d="M186.982,384h-6.424a5.14,5.14,0,1,1-10.279,0h-6.424L160,392.994h30.836Z" transform="translate(-138.158 -330.036)" fill="#a8a8a8"/>
      <path id="Path_28570" data-name="Path 28570" d="M98.521,344H24v2.57a3.855,3.855,0,0,0,3.855,3.855H94.667a3.855,3.855,0,0,0,3.855-3.855Z" transform="translate(-24 -296.46)" fill="#cbcbcb"/>
      <g id="Group_7925" data-name="Group 7925" transform="translate(24.595 53.964)">
        <path id="Path_28572" data-name="Path 28572" d="M185.353,386.57H177.14l1.1-2.57h6.424a5.121,5.121,0,0,0,.687,2.57Z" transform="translate(-177.14 -384)" fill="#656666"/>
        <path id="Path_28573" data-name="Path 28573" d="M291.933,386.57H283.72a5.121,5.121,0,0,0,.687-2.57h6.424Z" transform="translate(-266.603 -384)" fill="#656666"/>
      </g>
      <g id="classroom-2" data-name="classroom" transform="translate(-1247.269 -2618.925)">
        <g id="Untitled-1" transform="translate(1265.445 2625.031)">
          <g id="Layer_1" data-name="Layer 1" transform="translate(0 0)">
            <rect id="Rectangle_548" data-name="Rectangle 548" width="0.554" height="0.665" transform="translate(29.878 6.973)" fill="#4985e2"/>
            <path id="Path_22094" data-name="Path 22094" d="M118.227,25.715H117.16l.533-.7h0Z" transform="translate(-87.539 -18.686)" fill="#4985e2"/>
            <rect id="Rectangle_549" data-name="Rectangle 549" width="0.443" height="0.531" transform="translate(32.921 3.967)" fill="#4985e2"/>
            <path id="Path_22095" data-name="Path 22095" d="M130.256,14.192H129.4l.428-.561h0Z" transform="translate(-96.685 -10.184)" fill="#4985e2"/>
            <rect id="Rectangle_550" data-name="Rectangle 550" width="0.263" height="0.316" transform="translate(31.015 0.867)" fill="#4985e2"/>
            <path id="Path_22096" data-name="Path 22096" d="M122.691,2.534h-.511l.256-.334h0Z" transform="translate(-91.29 -1.644)" fill="#4985e2"/>
            <path id="Path_22097" data-name="Path 22097" d="M123.4,19.872l-.359-.465,1.239-1.287.359.465Z" transform="translate(-91.941 -13.538)" fill="#525252"/>
            <path id="Path_22098" data-name="Path 22098" d="M124.526,7.321l-.957-1.471.488-.318L125.014,7Z" transform="translate(-92.328 -4.132)" fill="#525252"/>
            <path id="Path_22099" data-name="Path 22099" d="M999.593,481.842a1.794,1.794,0,1,0,1.156,2.256,1.794,1.794,0,0,0-1.156-2.256Zm-.865,2.678a1.011,1.011,0,1,1,.78-.06,1.011,1.011,0,0,1-.78.06Z" transform="translate(-968.827 -476.55)" fill="#878787"/>
            <path id="Path_22100" data-name="Path 22100" d="M1012.358,471.811a1.343,1.343,0,1,0,.783.666,1.343,1.343,0,0,0-.783-.666Zm-.645,2.022a.757.757,0,1,1,.588-.049.757.757,0,0,1-.588.049Z" transform="translate(-978.808 -469.068)" fill="#878787"/>
            <path id="Path_22101" data-name="Path 22101" d="M1005.693,461.192a.856.856,0,1,0,.533.386.857.857,0,0,0-.533-.386Zm-.316,1.316a.268.268,0,1,0,0-.006Z" transform="translate(-974.35 -461.169)" fill="#878787"/>
            <path id="Path_22102" data-name="Path 22102" d="M73.9,73.5H73.57L77,61.5h1.206Z" transform="translate(-54.969 -45.951)" fill="#d38239"/>
            <path id="Path_22103" data-name="Path 22103" d="M96.218,73.5h.329l-3.428-12H91.91Z" transform="translate(-68.673 -45.951)" fill="#d38239"/>
            <rect id="Rectangle_551" data-name="Rectangle 551" width="12.07" height="12.196" transform="translate(17.203 4.549)" fill="#fff"/>
            <rect id="Rectangle_552" data-name="Rectangle 552" width="13.053" height="0.488" transform="translate(16.712 4.079)" fill="#d38239"/>
            <rect id="Rectangle_553" data-name="Rectangle 553" width="13.053" height="0.488" transform="translate(16.712 16.745)" fill="#d38239"/>
            <rect id="Rectangle_554" data-name="Rectangle 554" width="3.257" height="1.029" transform="translate(18.967 6.763)" fill="#f79f03"/>
            <path id="Path_22104" data-name="Path 22104" d="M87.27,25.72v1.546l1.076-.774h0Z" transform="translate(-65.206 -19.217)" fill="#f79f03"/>
            <rect id="Rectangle_555" data-name="Rectangle 555" width="6.032" height="1.029" transform="translate(18.967 8.394)" fill="#4985e2"/>
            <path id="Path_22105" data-name="Path 22105" d="M98.24,32.17v1.546l1.086-.774h0Z" transform="translate(-73.403 -24.036)" fill="#4985e2"/>
            <rect id="Rectangle_556" data-name="Rectangle 556" width="4.067" height="1.029" transform="translate(18.967 10.025)" fill="#b4d1d7"/>
            <path id="Path_22106" data-name="Path 22106" d="M90.47,38.62v1.546l1.076-.774h0Z" transform="translate(-67.596 -28.856)" fill="#b4d1d7"/>
            <rect id="Rectangle_557" data-name="Rectangle 557" width="6.841" height="1.029" transform="translate(18.967 11.653)" fill="#f79f03"/>
            <path id="Path_22107" data-name="Path 22107" d="M101.44,45.06v1.555l1.086-.776h0Z" transform="translate(-75.793 -33.667)" fill="#f79f03"/>
            <rect id="Rectangle_558" data-name="Rectangle 558" width="2.564" height="1.029" transform="translate(18.967 13.284)" fill="#004a6e"/>
            <path id="Path_22108" data-name="Path 22108" d="M84.52,51.51v1.555l1.076-.776h0Z" transform="translate(-63.151 -38.487)" fill="#004a6e"/>
            <path id="Path_22109" data-name="Path 22109" d="M977.08,488.838h-.3l-.071.215h-.19l.347-.974h.139l.347.974h-.2Zm-.252-.152h.2l-.071-.215-.027-.152h0l-.03.154Z" transform="translate(-953.339 -481.276)" fill="#ababab"/>
            <path id="Path_22110" data-name="Path 22110" d="M989.11,494.921a.24.24,0,0,1,0,.073.214.214,0,0,1-.027.066.361.361,0,0,1-.056.053.3.3,0,0,1-.082.033h0a.38.38,0,0,1,.081.023.216.216,0,0,1,.066.045.389.389,0,0,1,.043.071.292.292,0,0,1,.016.1.253.253,0,0,1-.12.218.437.437,0,0,1-.12.05.629.629,0,0,1-.139.018h-.225a.619.619,0,0,1-.078-.016V494.7h.293a.745.745,0,0,1,.131,0,.317.317,0,0,1,.12.038.2.2,0,0,1,.081.071.219.219,0,0,1,.014.111Zm-.407.182h.086a.251.251,0,0,0,.091-.05.119.119,0,0,0,.023-.143.082.082,0,0,0-.036-.036.12.12,0,0,0-.053-.02h-.172v.252Zm.063.415h.066a.27.27,0,0,0,.056-.025.131.131,0,0,0,.041-.043.119.119,0,0,0,.016-.061.125.125,0,0,0-.018-.073.1.1,0,0,0-.046-.038.2.2,0,0,0-.066-.02h-.172v.252h.12Z" transform="translate(-962.268 -486.223)" fill="#4985e2"/>
            <path id="Path_22111" data-name="Path 22111" d="M981.271,501.922a.24.24,0,0,1-.111.045.632.632,0,0,1-.139.016.524.524,0,0,1-.166-.027.391.391,0,0,1-.136-.086.452.452,0,0,1-.093-.157.694.694,0,0,1-.036-.233.6.6,0,0,1,.041-.239.4.4,0,0,1,.1-.154.38.38,0,0,1,.139-.084.478.478,0,0,1,.154-.025.767.767,0,0,1,.141,0,.542.542,0,0,1,.093.025l-.038.161a.207.207,0,0,0-.073-.023.646.646,0,0,0-.106,0,.239.239,0,0,0-.184.081.393.393,0,0,0-.071.252.564.564,0,0,0,.018.136.3.3,0,0,0,.05.106.239.239,0,0,0,.084.066.251.251,0,0,0,.12.025.438.438,0,0,0,.107-.012.274.274,0,0,0,.073-.03Z" transform="translate(-956.378 -490.912)" fill="#b4d1d7"/>
            <path id="Path_22112" data-name="Path 22112" d="M991.438,507.51h.28a.567.567,0,0,1,.218.038.35.35,0,0,1,.15.1.385.385,0,0,1,.081.152.7.7,0,0,1,.027.2.781.781,0,0,1-.025.19.429.429,0,0,1-.084.161.414.414,0,0,1-.152.12.578.578,0,0,1-.233.043h-.263Zm.3.154h-.1v.647h.1a.268.268,0,0,0,.134-.027.22.22,0,0,0,.084-.075.252.252,0,0,0,.043-.109.5.5,0,0,0,.015-.127.583.583,0,0,0,0-.111.337.337,0,0,0-.041-.1.255.255,0,0,0-.081-.075A.285.285,0,0,0,991.735,507.664Z" transform="translate(-964.485 -495.793)" fill="#707070"/>
            <path id="Path_22113" data-name="Path 22113" d="M974.56,514h.573v.167h-.381v.225h.349v.17h-.349v.239h.39v.167h-.58Z" transform="translate(-951.874 -500.643)" fill="#004a6e"/>
            <rect id="Rectangle_559" data-name="Rectangle 559" width="0.084" height="9.423" transform="translate(18.927 6.121)" fill="#ababab"/>
            <path id="Path_22114" data-name="Path 22114" d="M74.56,23.2l.12-.45.12.45Z" transform="translate(-55.709 -16.998)" fill="#ababab"/>
            <rect id="Rectangle_560" data-name="Rectangle 560" width="9.423" height="0.084" transform="translate(18.489 15.023)" fill="#ababab"/>
            <path id="Path_22115" data-name="Path 22115" d="M110.08,59.13l.447.12-.447.12Z" transform="translate(-82.249 -44.18)" fill="#ababab"/>
            <rect id="Rectangle_561" data-name="Rectangle 561" width="0.081" height="0.309" transform="translate(19.438 15.066)" fill="#ababab"/>
            <rect id="Rectangle_562" data-name="Rectangle 562" width="0.084" height="0.465" transform="translate(18.927 15.066)" fill="#ababab"/>
            <rect id="Rectangle_563" data-name="Rectangle 563" width="0.081" height="0.309" transform="translate(19.438 15.066)" fill="#ababab"/>
            <rect id="Rectangle_564" data-name="Rectangle 564" width="0.084" height="0.309" transform="translate(19.948 15.066)" fill="#ababab"/>
            <rect id="Rectangle_565" data-name="Rectangle 565" width="0.084" height="0.309" transform="translate(20.459 15.066)" fill="#ababab"/>
            <rect id="Rectangle_566" data-name="Rectangle 566" width="0.084" height="0.309" transform="translate(20.972 15.066)" fill="#ababab"/>
            <rect id="Rectangle_567" data-name="Rectangle 567" width="0.084" height="0.309" transform="translate(21.483 15.066)" fill="#ababab"/>
            <rect id="Rectangle_568" data-name="Rectangle 568" width="0.084" height="0.309" transform="translate(21.994 15.066)" fill="#ababab"/>
            <rect id="Rectangle_569" data-name="Rectangle 569" width="0.084" height="0.309" transform="translate(22.507 15.066)" fill="#ababab"/>
            <rect id="Rectangle_570" data-name="Rectangle 570" width="0.084" height="0.309" transform="translate(23.017 15.066)" fill="#ababab"/>
            <rect id="Rectangle_571" data-name="Rectangle 571" width="0.084" height="0.309" transform="translate(23.528 15.066)" fill="#ababab"/>
            <rect id="Rectangle_572" data-name="Rectangle 572" width="0.084" height="0.309" transform="translate(24.039 15.066)" fill="#ababab"/>
            <rect id="Rectangle_573" data-name="Rectangle 573" width="0.084" height="0.309" transform="translate(24.552 15.066)" fill="#ababab"/>
            <rect id="Rectangle_574" data-name="Rectangle 574" width="0.084" height="0.309" transform="translate(25.062 15.066)" fill="#ababab"/>
            <rect id="Rectangle_575" data-name="Rectangle 575" width="0.084" height="0.309" transform="translate(25.573 15.066)" fill="#ababab"/>
            <rect id="Rectangle_576" data-name="Rectangle 576" width="0.084" height="0.309" transform="translate(26.086 15.066)" fill="#ababab"/>
            <rect id="Rectangle_577" data-name="Rectangle 577" width="0.084" height="0.309" transform="translate(26.597 15.066)" fill="#ababab"/>
            <rect id="Rectangle_578" data-name="Rectangle 578" width="0.084" height="0.309" transform="translate(27.109 15.066)" fill="#ababab"/>
            <rect id="Rectangle_579" data-name="Rectangle 579" width="0.311" height="0.084" transform="translate(18.656 14.512)" fill="#ababab"/>
            <rect id="Rectangle_580" data-name="Rectangle 580" width="0.311" height="0.084" transform="translate(18.656 14.512)" fill="#ababab"/>
            <rect id="Rectangle_581" data-name="Rectangle 581" width="0.311" height="0.084" transform="translate(18.656 14.001)" fill="#ababab"/>
            <rect id="Rectangle_582" data-name="Rectangle 582" width="0.311" height="0.084" transform="translate(18.656 13.488)" fill="#ababab"/>
            <rect id="Rectangle_583" data-name="Rectangle 583" width="0.311" height="0.081" transform="translate(18.656 12.978)" fill="#ababab"/>
            <rect id="Rectangle_584" data-name="Rectangle 584" width="0.311" height="0.084" transform="translate(18.656 12.467)" fill="#ababab"/>
            <rect id="Rectangle_585" data-name="Rectangle 585" width="0.311" height="0.084" transform="translate(18.656 11.956)" fill="#ababab"/>
            <rect id="Rectangle_586" data-name="Rectangle 586" width="0.311" height="0.084" transform="translate(18.656 11.443)" fill="#ababab"/>
            <rect id="Rectangle_587" data-name="Rectangle 587" width="0.311" height="0.084" transform="translate(18.656 10.933)" fill="#ababab"/>
            <rect id="Rectangle_588" data-name="Rectangle 588" width="0.311" height="0.084" transform="translate(18.656 10.422)" fill="#ababab"/>
            <rect id="Rectangle_589" data-name="Rectangle 589" width="0.311" height="0.084" transform="translate(18.656 9.909)" fill="#ababab"/>
            <rect id="Rectangle_590" data-name="Rectangle 590" width="0.311" height="0.084" transform="translate(18.656 9.398)" fill="#ababab"/>
            <rect id="Rectangle_591" data-name="Rectangle 591" width="0.311" height="0.084" transform="translate(18.656 8.887)" fill="#ababab"/>
            <rect id="Rectangle_592" data-name="Rectangle 592" width="0.311" height="0.084" transform="translate(18.656 8.377)" fill="#ababab"/>
            <rect id="Rectangle_593" data-name="Rectangle 593" width="0.311" height="0.084" transform="translate(18.656 7.864)" fill="#ababab"/>
            <rect id="Rectangle_594" data-name="Rectangle 594" width="0.311" height="0.084" transform="translate(18.656 7.352)" fill="#ababab"/>
            <rect id="Rectangle_595" data-name="Rectangle 595" width="0.311" height="0.084" transform="translate(18.656 6.839)" fill="#ababab"/>
            <path id="Path_22116" data-name="Path 22116" d="M929.087,480.19s.016.642.2.837c0,0-.177.706-.733.706v-1.464Z" transform="translate(-917.503 -475.381)" fill="#fdb171"/>
            <path id="Path_22117" data-name="Path 22117" d="M925.861,480.19s-.012.642-.2.837c0,0,.177.706.733.706v-1.464Z" transform="translate(-915.336 -475.381)" fill="#fdb171"/>
            <path id="Path_22118" data-name="Path 22118" d="M927.027,480.957a.875.875,0,0,1-.667-.44,3.026,3.026,0,0,0,.028-.329l.531.075.529-.075a3,3,0,0,0,.075.56.692.692,0,0,1-.5.21Z" transform="translate(-915.86 -475.38)" fill="#f09c56"/>
            <path id="Path_22119" data-name="Path 22119" d="M934.1,571.108s.506.653.757.951-.109.978-.757.626-.976-.685-1.112-.736-.252-.349-.193-1.165Z" transform="translate(-920.652 -543.07)" fill="#1e2020"/>
            <path id="Path_22120" data-name="Path 22120" d="M930.768,525.451l.344,11.651h-1.77l-.626-10.137s-.012-.519-.159-.615v-1.086Z" transform="translate(-917.503 -509.06)" fill="rgba(0,100,216,0.63)"/>
            <path id="Path_22121" data-name="Path 22121" d="M916.623,571.108s-.506.653-.757.951.111.978.757.626.978-.685,1.115-.736.252-.349.19-1.165Z" transform="translate(-907.959 -543.07)" fill="#1e2020"/>
            <path id="Path_22122" data-name="Path 22122" d="M918.795,525.451l-.347,11.651h1.77l.627-10.137s.035-.56.159-.615v-1.086Z" transform="translate(-909.948 -509.06)" fill="rgba(0,100,216,0.63)"/>
            <path id="Path_22123" data-name="Path 22123" d="M929.834,484.19c.3.161,1.414.706,1.469,1.277s-.327,2.781-.379,4.154.053,5.134.053,5.134H928.56V484.72Z" transform="translate(-917.504 -478.37)" fill="#0064d8"/>
            <path id="Path_22124" data-name="Path 22124" d="M919.162,484.19c-.3.161-1.414.706-1.466,1.277s.324,2.781.379,4.154-.053,5.143-.053,5.143h2.419V484.725Z" transform="translate(-909.382 -478.37)" fill="#0064d8"/>
            <path id="Path_22125" data-name="Path 22125" d="M45.2,22.842,43.82,26.358V23.3l1.092-.612Z" transform="translate(-32.741 -16.954)" fill="#b4d1d7"/>
            <path id="Path_22126" data-name="Path 22126" d="M38.17,22.842,39.6,26.36V23.3l-1.142-.612Z" transform="translate(-28.519 -16.954)" fill="#b4d1d7"/>
            <path id="Path_22127" data-name="Path 22127" d="M924.666,473.559c-.452,0-.905-.563-1.026-1.237a.165.165,0,0,1-.165-.066.563.563,0,0,1-.106-.506.179.179,0,0,1,.3-.07,1,1,0,0,1,.994-1.069Z" transform="translate(-913.611 -468.224)" fill="#fdb171"/>
            <path id="Path_22128" data-name="Path 22128" d="M928.56,473.559c.452,0,.9-.563,1.024-1.237a.166.166,0,0,0,.168-.066.563.563,0,0,0,.1-.506.179.179,0,0,0-.3-.07,1,1,0,0,0-.994-1.069Z" transform="translate(-917.504 -468.224)" fill="#fdb171"/>
            <path id="Path_22129" data-name="Path 22129" d="M923.289,467.65c.045-.524.334-.994,1.328-1.012s1.28.486,1.325,1.012a3.419,3.419,0,0,1-.1,1.049c-.2-.043-.293.2-.293.2.061-.47-.27-1.185-.392-1.089a1.14,1.14,0,0,1-.541.182,1.16,1.16,0,0,1-.543-.182c-.12-.093-.45.62-.392,1.09,0,0-.091-.252-.291-.2a3.462,3.462,0,0,1-.1-1.049Z" transform="translate(-913.561 -465.255)" fill="#713c1f"/>
            <path id="Path_22130" data-name="Path 22130" d="M43.73,22.7l.733-.814.544.286-.672,1.06Z" transform="translate(-32.673 -16.355)" fill="#d8e9ed"/>
            <path id="Path_22131" data-name="Path 22131" d="M39.956,22.7l-.733-.814-.544.286.672,1.06Z" transform="translate(-28.901 -16.355)" fill="#d8e9ed"/>
            <path id="Path_22132" data-name="Path 22132" d="M915.8,488.871v-.179a2.871,2.871,0,0,1,.938-2l-.239,2.181Z" transform="translate(-907.968 -480.238)" fill="#004a6e"/>
            <path id="Path_22133" data-name="Path 22133" d="M936.713,486.69a1.95,1.95,0,0,1,.826,1.607,1.777,1.777,0,0,1-1.14,1.643Z" transform="translate(-923.362 -480.238)" fill="#0064d8"/>
            <path id="Path_22134" data-name="Path 22134" d="M953.53,503.264a1.958,1.958,0,0,1,.757-.359c.239,0,.963-.12,1.044.111s-.1.814-.329.86-.757.177-.926.081a1.679,1.679,0,0,0-.531-.12Z" transform="translate(-936.161 -492.325)" fill="#fdb171"/>
            <path id="Path_22135" data-name="Path 22135" d="M936.59,491.735a11.879,11.879,0,0,0,1.582,3.218,15.068,15.068,0,0,0,2.978-.718l-.222-.988-2.131.309-1.316-3.812Z" transform="translate(-923.504 -482.525)" fill="#0064d8"/>
            <path id="Path_22136" data-name="Path 22136" d="M34.39,55.34v.347l.5.344.248-.207Z" transform="translate(-25.695 -41.348)" fill="#003b5e"/>
            <path id="Path_22137" data-name="Path 22137" d="M957.64,503.008h0l1.856-.283a.091.091,0,0,0,.084-.1.1.1,0,0,0-.12-.071l-1.856.286a.091.091,0,0,0-.086.1.1.1,0,0,0,.12.068Z" transform="translate(-939.141 -492.088)" fill="#707070"/>
            <path id="Path_22138" data-name="Path 22138" d="M34.39,46.263V45.75l1.5,2.315-.478.322Z" transform="translate(-25.695 -34.184)" fill="#003b5e"/>
            <path id="Path_22139" data-name="Path 22139" d="M956.965,502.961a.458.458,0,0,0,.409-.422c-.02-.212-.538.222-.635.268s-.22.268-.22.268Z" transform="translate(-938.396 -492.035)" fill="#fdb171"/>
            <path id="Path_22140" data-name="Path 22140" d="M913.828,485.27s-1.246.359-1.788,2.447a23.074,23.074,0,0,0-.823,3.361c0,.661,2.649,2.7,2.649,2.7l.728-.718-1.77-2.306.468-1.357Z" transform="translate(-904.545 -479.176)" fill="#0064d8"/>
            <rect id="Rectangle_596" data-name="Rectangle 596" width="0.382" height="1.664" transform="translate(11.725 13.772) rotate(-45.59)" fill="#00253b"/>
            <rect id="Rectangle_597" data-name="Rectangle 597" width="1.664" height="0.382" transform="translate(8.973 14.652) rotate(-44.32)" fill="#00253b"/>
            <path id="Path_22141" data-name="Path 22141" d="M1016.039,524.811a8.8,8.8,0,0,1,.7-1.264,1.292,1.292,0,0,0,.056-1.625,2.442,2.442,0,0,0-1.616-.837c-.541.053-.867.91-1.076,1.385a1.752,1.752,0,0,0-.109.957l-.023.64a2.753,2.753,0,0,1,.506.609c.043.073.018.252.056.322s.106.091.12.154a.562.562,0,0,1-.086.422Z" transform="translate(-981.324 -505.929)" fill="#fdb171"/>
            <path id="Path_22142" data-name="Path 22142" d="M1013.461,527.546v-.061l.429-.384a.27.27,0,0,0,.395.025l1.547-1.383a4,4,0,0,1-.268,1.75,2.887,2.887,0,0,0,.189,1.054,11.81,11.81,0,0,1-1.357.293c.12-.323.212-.963-.506-.837-.658.12-.64-.149-.6-.346C1013.4,527.615,1013.461,527.678,1013.461,527.546Z" transform="translate(-980.803 -509.415)" fill="#fdb171"/>
            <path id="Path_22143" data-name="Path 22143" d="M1013.044,522.44c-.1.091-.635.252-.819.757-.1.288-.078.252-.038.359.066.177-.1.359-.195.452-.145.149-.3.233-.1.359s.12.2.041.252.03.147.059.177-.12.093-.05.167.145.071.145.136-.089.311.023.409.429.061.6.063a.64.64,0,0,1,.478.161c.47.506.359.695.359.695a1.156,1.156,0,0,0,.823-.27c.12-.081-.2.078-.233-.149-.046-.374,1.183-2.022.569-2.1-.03,0-1.287-.617-1.287-.617Z" transform="translate(-979.694 -506.95)" fill="#fdb171"/>
            <path id="Path_22144" data-name="Path 22144" d="M1017.641,521.031c-.177-.7-.447-1.409-1.244-1.481s-1.661.161-1.729-.2c0,0-.425.718-.2,1.1.089-.134.978,1.216,1.119,1.415s.061-.379.352-.329.428.652.3.917c-.093.2.193.652.193.652l-.025.182.478-.468S1017.82,521.735,1017.641,521.031Z" transform="translate(-981.645 -504.642)" fill="#1e2020"/>
            <path id="Path_22145" data-name="Path 22145" d="M1013.452,528.737h-.027c-.165,0-.478.038-.6-.063a.22.22,0,0,1-.053-.19s.908.1,1.165-.154c.334-.316.291-.757.49-1.461s.023.456.023.456-.1,1.357-.774,1.385a1.329,1.329,0,0,0-.231.028Z" transform="translate(-980.43 -510.09)" fill="#1e2020"/>
            <path id="Path_22146" data-name="Path 22146" d="M1016.948,544.228s-.12-4.616-.127-5.109-.154-2.809-1.119-3.16l-.252-.4-1.555.649a4.376,4.376,0,0,0-.943,2.091,9.713,9.713,0,0,0,.284,3.071c.252.957.708,3.163.708,3.163Z" transform="translate(-980.545 -516.754)" fill="#4985e2"/>
            <path id="Path_22147" data-name="Path 22147" d="M997.7,604.184a1.407,1.407,0,0,0,.935.316c.252-.063.6-.359.67-.17a1.885,1.885,0,0,1,.106.983.2.2,0,0,1,.023.211c-.043.145-.39.182-.837.179a15.578,15.578,0,0,1-2.169,0c-.372-.1-.718-.252-.757-.435s-.157-.549.177-.506a1.691,1.691,0,0,0,.9-.05,4.17,4.17,0,0,0,.691-.407C997.579,604.161,997.642,604.114,997.7,604.184Z" transform="translate(-967.609 -568.003)" fill="#525252"/>
            <path id="Path_22148" data-name="Path 22148" d="M1004.588,572.5s-2.592-.175-2.592.252l.579,6.3c-.574,1.012-2.047.341-2.047.341s-.645-8.013-.625-8.195c.05-.563,1.516-.862,3.246-.862Z" transform="translate(-970.808 -542.735)" fill="#001533"/>
            <path id="Path_22149" data-name="Path 22149" d="M993.485,606.519a1.493,1.493,0,0,0,1,.336c.27-.066.642-.379.717-.179a2.02,2.02,0,0,1,.12,1.049.222.222,0,0,1,.023.225c-.045.154-.412.2-.892.193a16.553,16.553,0,0,1-2.321,0c-.4-.111-.757-.275-.814-.465s-.167-.586.189-.533a1.8,1.8,0,0,0,.957-.056,4.487,4.487,0,0,0,.736-.432C993.351,606.5,993.415,606.451,993.485,606.519Z" transform="translate(-964.342 -569.749)" fill="#525252"/>
            <path id="Path_22150" data-name="Path 22150" d="M1017,586.1a.41.41,0,0,0,.409.407h0a.407.407,0,0,0,.406-.407v-7.726a.408.408,0,0,0-.408-.407h0a.41.41,0,0,0-.409.407Z" transform="translate(-983.584 -548.44)" fill="#525252"/>
            <path id="Path_22151" data-name="Path 22151" d="M1029,552.443a.611.611,0,0,0,.612.615h0a.615.615,0,0,0,.615-.615l.41-9.048a.615.615,0,0,0-.615-.615h0a.612.612,0,0,0-.612.615Z" transform="translate(-992.55 -522.147)" fill="#525252"/>
            <path id="Path_22152" data-name="Path 22152" d="M1005.94,578.835a.665.665,0,0,1,.665-.665h5.729a.665.665,0,0,1,.665.665h0a.663.663,0,0,1-.665.665h-5.729a.665.665,0,0,1-.665-.665Z" transform="translate(-975.32 -548.59)" fill="#707070"/>
            <path id="Path_22153" data-name="Path 22153" d="M1012,609.375a.463.463,0,0,1,.463-.461h2.571a.463.463,0,0,1,.46.46h0a.461.461,0,0,1-.461.46h-2.556a.461.461,0,0,1-.463-.46Z" transform="translate(-979.848 -571.565)" fill="#707070"/>
            <path id="Path_22154" data-name="Path 22154" d="M1000.861,571.637s-2.769-.187-2.769.268l.617,6.727c-.615,1.09-2.19.359-2.19.359s-.688-8.557-.67-8.758c.056-.6,1.613-1.264,3.468-1.264Z" transform="translate(-967.786 -541.716)" fill="#003b5e"/>
            <path id="Path_22155" data-name="Path 22155" d="M1013.62,567.8s.468,2.045-.165,2.485a7.114,7.114,0,0,1-3.143.478l-1.815-2.669Z" transform="translate(-977.232 -540.842)" fill="#003b5e"/>
            <rect id="Rectangle_598" data-name="Rectangle 598" width="0.685" height="12.305" transform="translate(10.5 23.502)" fill="#974212"/>
            <rect id="Rectangle_599" data-name="Rectangle 599" width="0.685" height="12.932" transform="translate(28.435 25.608)" fill="#974212"/>
            <rect id="Rectangle_600" data-name="Rectangle 600" width="0.685" height="12.305" transform="translate(24.957 23.502)" fill="#974212"/>
            <path id="Path_22156" data-name="Path 22156" d="M931.754,554.646a4.375,4.375,0,0,0-1.873-.506H916a4.374,4.374,0,0,0-1.873.506l-2.846,1.666c-.478.279-.415.506.136.506h5.023a3.827,3.827,0,0,0,1.833-.567l.177-.12a2.781,2.781,0,0,1,1.532-.567h5.928a2.78,2.78,0,0,1,1.532.567l.175.12a3.827,3.827,0,0,0,1.836.567h5.016c.554,0,.615-.227.136-.506Z" transform="translate(-904.352 -530.634)" fill="#c26a1f"/>
            <rect id="Rectangle_601" data-name="Rectangle 601" width="3.504" height="1.153" transform="translate(27.064 25.032)" fill="#c26a1f"/>
            <path id="Path_22157" data-name="Path 22157" d="M26.15,99.01v.981h3.994v-.837Z" transform="translate(-19.539 -73.978)" fill="#c26a1f"/>
            <path id="Path_22158" data-name="Path 22158" d="M931.754,550.67a4.412,4.412,0,0,0-1.873-.506H916a4.411,4.411,0,0,0-1.873.506l-2.846,1.666c-.478.281-.415.506.136.506h5.023a3.8,3.8,0,0,0,1.833-.569l.177-.12a2.782,2.782,0,0,1,1.532-.567h5.928a2.781,2.781,0,0,1,1.532.567l.175.12a3.807,3.807,0,0,0,1.836.569h5.016c.554,0,.615-.227.136-.506Z" transform="translate(-904.352 -527.664)" fill="#974212"/>
            <path id="Path_22159" data-name="Path 22159" d="M897,568.789l1.881-1.872c.013,0,.016-.028.028-.041l.182.066s2.093.392,3.191.738c.957.3.93.629.969,1.2.05.724-.309,4.894-.311,4.961h0a6.243,6.243,0,0,0-1.3.073,8.862,8.862,0,0,1,0-4.533s-.981-.207-4.4-.563a2.349,2.349,0,0,1-.24-.025Z" transform="translate(-893.923 -540.152)" fill="#3357bd"/>
            <path id="Path_22160" data-name="Path 22160" d="M916.633,594.416c.028,1.666-.12,3.468.359,3.888,0,0-.44.225-.67.12-.422-.2-.895-1.636-.895-1.636a2.8,2.8,0,0,0,.093-1.659,2.862,2.862,0,0,0-.193-.631,6.245,6.245,0,0,1,1.3-.073Z" transform="translate(-907.62 -560.724)" fill="#f09f5b"/>
            <path id="Path_22161" data-name="Path 22161" d="M901.682,582.74a.42.42,0,0,1-.428.415h0a.42.42,0,0,1-.428-.415V573.96a.424.424,0,0,1,.428-.42h0a.422.422,0,0,1,.428.42Z" transform="translate(-896.781 -545.13)" fill="#525252"/>
            <path id="Path_22162" data-name="Path 22162" d="M886.543,546.228a.635.635,0,0,1-.642.627h0a.635.635,0,0,1-.645-.627l-.428-9.668a.635.635,0,0,1,.642-.625h0a.635.635,0,0,1,.642.625Z" transform="translate(-884.828 -517.033)" fill="#525252"/>
            <path id="Path_22163" data-name="Path 22163" d="M893.912,574.43a.688.688,0,0,0-.695-.68h-6a.691.691,0,0,0-.7.68h0a.691.691,0,0,0,.7.68h6a.688.688,0,0,0,.695-.68Z" transform="translate(-886.093 -545.287)" fill="#707070"/>
            <path id="Path_22164" data-name="Path 22164" d="M898.643,609.15a.478.478,0,0,0-.478-.47h-2.686a.479.479,0,0,0-.479.47h0a.478.478,0,0,0,.478.47h2.677a.478.478,0,0,0,.479-.47Z" transform="translate(-892.429 -571.386)" fill="#707070"/>
            <path id="Path_22165" data-name="Path 22165" d="M914.819,603.79a1.01,1.01,0,0,0-.3.815,6.88,6.88,0,0,1,.086,1.264l.227.036.045-1.092a1.915,1.915,0,0,1,.506.64c.081.283-.084.456,1.069.524.579.034,1.012,0,.93-.211-.127-.341-.381-.088-.991-.445C916.386,605.312,915.786,605.424,914.819,603.79Z" transform="translate(-907.008 -567.733)" fill="#003b5e"/>
            <path id="Path_22166" data-name="Path 22166" d="M891.9,566.08l1.414.12,1.719.147s2.563.685,3.792,1.039c.957.275.974.561,1.054,1.128.1.725,0,4.9,0,4.973h0a6.243,6.243,0,0,0-1.294.161,8.712,8.712,0,0,1-.274-4.526,41.388,41.388,0,0,0-4.425-.286C890.386,568.722,891.9,566.08,891.9,566.08Z" transform="translate(-889.871 -539.557)" fill="#4985e2"/>
            <path id="Path_22167" data-name="Path 22167" d="M920.593,595.38c.143,1.661.12,3.461.631,3.853,0,0-.42.252-.658.159-.435-.17-1.012-1.57-1.012-1.57a2.766,2.766,0,0,0-.025-1.661,2.586,2.586,0,0,0-.239-.617,6.228,6.228,0,0,1,1.294-.161Z" transform="translate(-910.581 -561.449)" fill="#fdb171"/>
            <path id="Path_22168" data-name="Path 22168" d="M919.561,605a1.01,1.01,0,0,0-.252.837,6.54,6.54,0,0,1,.172,1.246l.231.02-.027-1.092a1.913,1.913,0,0,1,.537.6c.1.275-.053.458,1.1.447.581,0,1.012-.061.915-.273-.149-.334-.39-.063-1.012-.377C921.226,606.421,920.64,606.573,919.561,605Z" transform="translate(-910.582 -568.637)" fill="#004a6e"/>
            <path id="Path_22169" data-name="Path 22169" d="M900,530a2.025,2.025,0,0,1,.688,1.2,8.4,8.4,0,0,1-.012,1.816,5.64,5.64,0,0,0-.041,1.613,2.446,2.446,0,0,1,0,1.689,1.026,1.026,0,0,0,.05-.991,2.248,2.248,0,0,1-.323-1.16,3.288,3.288,0,0,0-.184-1.435,2.3,2.3,0,0,1-.1-1.158,2.926,2.926,0,0,0-.288-1.277c-.1-.068.073-.1.073-.1Z" transform="translate(-895.979 -512.599)" fill="#713c1f"/>
            <path id="Path_22170" data-name="Path 22170" d="M889.18,530.14a2.128,2.128,0,0,0-.252,1.543,7.89,7.89,0,0,0,.561,2.056c.252.59.746,1.173.757,1.7a2.046,2.046,0,0,0,.988,1.659,1.335,1.335,0,0,1-.4-1.069,2.192,2.192,0,0,0-.12-1.326c-.291-.631-.837-1.249-.8-1.686a2.066,2.066,0,0,0-.134-1.18,1.256,1.256,0,0,1,.162-1.057c.084-.111-.529-.506-.529-.506Z" transform="translate(-887.872 -512.703)" fill="#713c1f"/>
            <path id="Path_22171" data-name="Path 22171" d="M891.437,533.118a6.149,6.149,0,0,1,0,.93c-.046.368.175.563.311.823s.066.359,0,.647.239.463.286.665,0,.252.034.386.306.658.134.969-.81-1.516-.81-1.516l-.322-1.452a6.538,6.538,0,0,1-.425-1.316,4.742,4.742,0,0,0,.37-.526Z" transform="translate(-889.166 -514.641)" fill="#713c1f"/>
            <path id="Path_22172" data-name="Path 22172" d="M898.194,534.671a.847.847,0,1,1-.239-.6A.847.847,0,0,1,898.194,534.671Z" transform="translate(-893.549 -515.448)" fill="#713c1f"/>
            <path id="Path_22173" data-name="Path 22173" d="M891.629,536.548a1.467,1.467,0,0,1-.4-.139c-.273-.159-.231-.948-.231-.948h-1.176s.043.789-.233.948a4.6,4.6,0,0,1-.965.252c-.252.078-.018.3-.1.823a8.861,8.861,0,0,0-.066.974l3.171-.02Z" transform="translate(-887.54 -516.678)" fill="#fdb171"/>
            <path id="Path_22174" data-name="Path 22174" d="M891.905,536.66h0a2.293,2.293,0,0,1-.685-.2c-.273-.159-.231-.948-.231-.948h-1.18s.043.789-.233.948a4.6,4.6,0,0,1-.965.252c-.252.078-.018.3-.1.823a8.772,8.772,0,0,0-.066.974l2.9-.021a2.056,2.056,0,0,0,.409.2,1.006,1.006,0,0,0,.139.034Z" transform="translate(-887.533 -516.714)" fill="#fdb171"/>
            <path id="Path_22175" data-name="Path 22175" d="M893.63,536.372h0a3.667,3.667,0,0,0,1.232-.486v-.075h0v-.047h0a.04.04,0,0,1,0-.018h-1.18a2.636,2.636,0,0,1-.05.625Z" transform="translate(-891.404 -516.892)" fill="#f09f5b"/>
            <path id="Path_22176" data-name="Path 22176" d="M888.26,541.352a2.629,2.629,0,0,1,.059-1.076c.1-.239.109-.506.306-.622a3.152,3.152,0,0,1,.6-.141c.2.359,2.2.279,2.043.02.132.025.486.045.631.252a5.391,5.391,0,0,1,.757,1.516c.141.549-.061.774-.239,1.674a10.169,10.169,0,0,0-.227,1.173,13.171,13.171,0,0,0,.313,2.367,4.09,4.09,0,0,1-3.132-.273l.213-.506a5.479,5.479,0,0,0-.856-2.99,5.19,5.19,0,0,1-.533-1.1V541.4Z" transform="translate(-887.342 -519.703)" fill="#fff"/>
            <path id="Path_22177" data-name="Path 22177" d="M897.334,523.08a2.366,2.366,0,0,0,0-.983,1.339,1.339,0,0,0-1.414-.983C895.057,521.156,897.334,523.08,897.334,523.08Z" transform="translate(-892.97 -505.954)" fill="#713c1f"/>
            <path id="Path_22178" data-name="Path 22178" d="M900.008,529.695a.218.218,0,0,1-.023.306l-.184.162a.213.213,0,0,1-.3-.023h0a.222.222,0,0,1,.023-.309l.184-.161a.215.215,0,0,1,.3.025Z" transform="translate(-895.749 -512.313)" fill="#c90e00"/>
            <path id="Path_22179" data-name="Path 22179" d="M892.365,522.284a1.435,1.435,0,0,0-1.7-1.089,1.607,1.607,0,0,0-1.264,1.747,3.057,3.057,0,0,0,.329,1.012c.061.1.586.306.757.631S892.365,522.284,892.365,522.284Z" transform="translate(-888.238 -505.989)" fill="#713c1f"/>
            <path id="Path_22180" data-name="Path 22180" d="M893,532.638a3.676,3.676,0,0,1,.227.757c.084.03.131.119.233.146a1.388,1.388,0,0,0,1.108-.045s.02.1-.111-.03L893,532.628Z" transform="translate(-890.933 -514.564)" fill="#f09f5b"/>
            <path id="Path_22181" data-name="Path 22181" d="M891.478,526.284a1.3,1.3,0,0,0,.544.665,3.125,3.125,0,0,0,1.1.442c.166-.028.3,0,.478-.46a2.048,2.048,0,0,0,.288-1.125c-.053-.434-.02-1.345-.6-1.585a1.205,1.205,0,0,0-1.337.438,1.588,1.588,0,0,0-.306,1.112s-.341-.339-.458-.336-.2.091-.1.316.154.179.179.3.059.239.12.273a.057.057,0,0,0,.086-.037Z" transform="translate(-889.473 -508.238)" fill="#fdb171"/>
            <path id="Path_22182" data-name="Path 22182" d="M893.031,523.716a3.229,3.229,0,0,1-1.316,1.794l-.612-1.034.733-.856Z" transform="translate(-889.514 -507.827)" fill="#713c1f"/>
            <path id="Path_22183" data-name="Path 22183" d="M898,522.61a3.351,3.351,0,0,0,1.054.736,2.092,2.092,0,0,0-.826-1.325Z" transform="translate(-894.669 -506.636)" fill="#713c1f"/>
            <path id="Path_22184" data-name="Path 22184" d="M916,552.026a4.854,4.854,0,0,1,.56-.213.588.588,0,0,1,.374-.012c.2.043.359.089.417.02s.172-.091.177-.175.2-.073.211-.182.187-.165.166-.3-.165-.136-.538-.12a1.4,1.4,0,0,0-.71.157,4.138,4.138,0,0,1-.606.252Z" transform="translate(-908.119 -528.319)" fill="#fdb171"/>
            <path id="Path_22185" data-name="Path 22185" d="M920.752,550.644h0a.073.073,0,0,1-.1-.028l-.819-1.214a.07.07,0,0,1,.12-.073l.819,1.212a.073.073,0,0,1-.012.1Z" transform="translate(-910.972 -527.012)" fill="#3357bd"/>
            <path id="Path_22186" data-name="Path 22186" d="M919.693,551.541c.109,0,.49-.193.536-.1s-.27.222-.327.252a1.664,1.664,0,0,1-.344.078Z" transform="translate(-910.779 -528.599)" fill="#fdb171"/>
            <path id="Path_22187" data-name="Path 22187" d="M900.566,540c.068.028.334,1.18.6,1.654a9.528,9.528,0,0,1,.554,1.426l2.631-.063.129.652-3.094.494-1.249-2.272Z" transform="translate(-896.261 -520.07)" fill="#d8e9ed"/>
            <rect id="Rectangle_602" data-name="Rectangle 602" width="2.93" height="0.218" transform="translate(8.44 23.71)" fill="#fff"/>
            <rect id="Rectangle_603" data-name="Rectangle 603" width="2.624" height="0.116" transform="translate(8.612 23.71)" fill="#fff"/>
            <path id="Path_22188" data-name="Path 22188" d="M910.138,553.6a3.618,3.618,0,0,0,.556-.1c.136-.05,1.349.182,1.383.506s-.316.239-.637.195a10.173,10.173,0,0,0-1.481-.043C909.779,554.174,910.138,553.6,910.138,553.6Z" transform="translate(-903.567 -530.15)" fill="#fdb171"/>
            <path id="Path_22189" data-name="Path 22189" d="M892.19,544.141v.342c-.889.136-1.8.084-2.705.147a7.185,7.185,0,0,0-.757-1.891,5.185,5.185,0,0,1-.533-1.1v-.252l.061-.023a2.64,2.64,0,0,1,.059-1.076c.1-.239.109-.506.306-.622a3.166,3.166,0,0,1,.6-.141c.2.359,2.2.279,2.043.02.131.025.485.045.631.252a5.4,5.4,0,0,1,.757,1.517c.141.549-.061.774-.239,1.674a10.159,10.159,0,0,0-.22,1.162Z" transform="translate(-887.343 -519.711)" fill="#fff"/>
            <path id="Path_22190" data-name="Path 22190" d="M895.473,557.116a1.858,1.858,0,0,0,0,.346l-2.576.757s-.2-.856-.306-1.2S895.473,557.116,895.473,557.116Z" transform="translate(-890.627 -532.685)" fill="#d8e9ed"/>
            <path id="Path_22191" data-name="Path 22191" d="M892.64,544.66s.889,1.931,1.119,2.233a7.02,7.02,0,0,0,1.97,0l-.273.865-2.24.12Z" transform="translate(-890.666 -523.552)" fill="#d8e9ed"/>
            <path id="Path_22192" data-name="Path 22192" d="M887.815,539.9c-.415.091-1.3.111-.878,1.866a9.239,9.239,0,0,0,1.77,3.418c.22.277,4.574-1.2,4.574-1.2l-.12-.844-3.792.567s-.377-.161-.757-1.623a14.577,14.577,0,0,0-.8-2.189Z" transform="translate(-886.32 -519.996)" fill="#fff"/>
            <path id="Path_22193" data-name="Path 22193" d="M997.4,552.847a3.771,3.771,0,0,1-.647-.12c-.161-.066-1.555.252-1.585.672s.381.316.757.252a10.511,10.511,0,0,1,1.722-.073C997.838,553.609,997.4,552.847,997.4,552.847Z" transform="translate(-967.27 -529.57)" fill="#f09f5b"/>
            <rect id="Rectangle_604" data-name="Rectangle 604" width="0.685" height="12.355" transform="translate(8.268 26.185)" fill="#974212"/>
            <path id="Path_22194" data-name="Path 22194" d="M1004.786,551.67c-.665.1-2.3.12-2.782.179l.071,1.119a29.416,29.416,0,0,0,2.946.2A10.989,10.989,0,0,1,1004.786,551.67Z" transform="translate(-972.376 -528.79)" fill="#2c4ba3"/>
            <path id="Path_22195" data-name="Path 22195" d="M996.324,555.3a3.751,3.751,0,0,1-.625-.213c-.149-.086-1.577.048-1.659.452s.336.359.71.349a10.39,10.39,0,0,1,1.714.159C996.664,556.118,996.324,555.3,996.324,555.3Z" transform="translate(-966.422 -531.323)" fill="#fdb171"/>
            <path id="Path_22196" data-name="Path 22196" d="M1004.821,540.981a10.048,10.048,0,0,1-.563,1.734,19.137,19.137,0,0,1-3.082-.145l-.084,1.119a17.713,17.713,0,0,0,4.1.667,12.131,12.131,0,0,0,1.555-3.211c.524-1.588.849-2.474-.046-2.781C1004.642,537.674,1004.857,540.855,1004.821,540.981Z" transform="translate(-971.697 -518.775)" fill="#3357bd"/>
          </g>
        </g>
      </g>
    </g>
  </g>
</svg>
