<svg xmlns="http://www.w3.org/2000/svg" xmlns:xlink="http://www.w3.org/1999/xlink" width="74.522" height="68.098" viewBox="0 0 74.522 68.098">
  <defs>
    <linearGradient id="linear-gradient" x1="0.5" x2="0.5" y2="1" gradientUnits="objectBoundingBox">
      <stop offset="0" stop-color="#1c2848"/>
      <stop offset="1" stop-color="#06080e"/>
    </linearGradient>
  </defs>
  <g id="online" transform="translate(-8.987 -10)">
    <g id="flat" transform="translate(8.987 10)">
      <rect id="Rectangle_1094" data-name="Rectangle 1094" width="74.44" height="50.753" rx="1" fill="url(#linear-gradient)"/>
      <path id="Path_28568" data-name="Path 28568" d="M146.248,440h31.479a2.249,2.249,0,0,1,2.249,2.249v2.891H144v-2.891A2.248,2.248,0,0,1,146.248,440Z" transform="translate(-124.727 -377.042)" fill="#cbcbcb"/>
      <path id="Path_28569" data-name="Path 28569" d="M186.982,384h-6.424a5.14,5.14,0,1,1-10.279,0h-6.424L160,392.994h30.836Z" transform="translate(-138.158 -330.036)" fill="#a8a8a8"/>
      <path id="Path_28570" data-name="Path 28570" d="M98.521,344H24v2.57a3.855,3.855,0,0,0,3.855,3.855H94.667a3.855,3.855,0,0,0,3.855-3.855Z" transform="translate(-24 -296.46)" fill="#cbcbcb"/>
      <g id="Group_7925" data-name="Group 7925" transform="translate(24.595 53.964)">
        <path id="Path_28572" data-name="Path 28572" d="M185.353,386.57H177.14l1.1-2.57h6.424a5.121,5.121,0,0,0,.687,2.57Z" transform="translate(-177.14 -384)" fill="#656666"/>
        <path id="Path_28573" data-name="Path 28573" d="M291.933,386.57H283.72a5.121,5.121,0,0,0,.687-2.57h6.424Z" transform="translate(-266.603 -384)" fill="#656666"/>
      </g>
      <g id="paced" transform="translate(4.278 -1.003)">
        <g id="_5" data-name="5" transform="translate(19.508 8.102)">
          <path id="Path_22201" data-name="Path 22201" d="M894.593,939.3c-.367-1.281-2.194-2.256-4.392-2.256s-4.025.974-4.392,2.256Z" transform="translate(-870.934 -904.077)" fill="#f79f03"/>
          <path id="Path_22202" data-name="Path 22202" d="M809.818,593.366h0a1.115,1.115,0,0,1-1.115,1.115h-7.249a1.115,1.115,0,0,0-1.115,1.115v1.3a1.115,1.115,0,0,0,1.115,1.115H813.2a1.115,1.115,0,0,0,1.116-1.116v-3.526a1.116,1.116,0,0,0-1.116-1.116h-2.272a1.115,1.115,0,0,0-1.115,1.116Z" transform="translate(-789.019 -573.628)" fill="#ef8e00"/>
          <path id="Path_22203" data-name="Path 22203" d="M977.06,730.65v8.61c.2-.016.393-.026.6-.026.147,0,.291.005.435.013v-8.6Z" transform="translate(-958.389 -706.272)" fill="#f79f03"/>
          <path id="Path_22204" data-name="Path 22204" d="M945.8,296.556l-6.152-.086a2.123,2.123,0,0,1-2.1-2.413l1.33-9.664a2.123,2.123,0,0,1,2.1-1.834h4.348a2.123,2.123,0,0,1,2.1,2.413Z" transform="translate(-920.499 -276.819)" fill="#f79f03"/>
          <path id="Path_22205" data-name="Path 22205" d="M1112.97,282.556h-.527a2.123,2.123,0,0,1,2.1,2.413l-1.628,11.576.526.007,1.631-11.585a2.123,2.123,0,0,0-2.1-2.413Z" transform="translate(-1088.139 -276.816)" fill="#ef8e00"/>
          <path id="Path_22206" data-name="Path 22206" d="M811.34,547.832v2.13a2.036,2.036,0,0,1-1.675,2.221,6.828,6.828,0,0,1-1.516.2,2.915,2.915,0,0,0-3.161,2.753,17.009,17.009,0,0,1-1.765,5.224,8.391,8.391,0,0,1-.519.786c-.159.219-.332.451-.508.678-.561.728-1.118,1.4-1.118,1.4l-1.373-.471s.281-.855.639-2c.427-1.355.962-3.114,1.26-4.311.2-.781.07-.221.443-1.9a15.757,15.757,0,0,0,.364-1.635C803.222,547.064,811.34,547.832,811.34,547.832Z" transform="translate(-788.411 -531.026)" fill="#49499b"/>
          <path id="Path_22207" data-name="Path 22207" d="M803.217,711.116a18.208,18.208,0,0,1-2.145,2.859L799.7,713.5s1.351-4.1,1.9-6.306c.194-.781.07-.221.443-1.9q.031-.105.053-.2Z" transform="translate(-788.406 -681.785)" fill="#393972"/>
          <path id="Path_22208" data-name="Path 22208" d="M770.973,548.6v2.13a2.035,2.035,0,0,1-1.675,2.221l-6.006.321a2.345,2.345,0,0,0-1.248.4c-.034.023-.067.047-.1.072a3.006,3.006,0,0,0-1.035,2.077l.035.148.291,1.235.987,4.168.111.537.094.451-.6.227-1.255.474s-.244-.6-.594-1.544a43.894,43.894,0,0,1-2.375-8.383c-.2-1.675,1.319-4.29,5.875-4.29Z" transform="translate(-748.044 -531.794)" fill="#49499b"/>
          <path id="Path_22209" data-name="Path 22209" d="M835.925,575.51s-.863.173-2.137.359a3.064,3.064,0,0,0-2.549,2.1c-.115.313-.222.887-.37,1.432a3.273,3.273,0,0,0-1.135,2.15l.035.148a.538.538,0,0,1-.057.081l-.3-2.445a3.3,3.3,0,0,1,.133-1.353,3.643,3.643,0,0,1,3.567-2.537Z" transform="translate(-816.868 -557.524)" fill="#393972"/>
          <path id="Path_22210" data-name="Path 22210" d="M856.664,890.212c-.476.972-1.2.863-1.2.863s.71,2.883,2.09,2.338c1.223-.484-.329-3.832-.716-4.67a.2.2,0,0,0-.258-.1h0a.2.2,0,0,0-.12.26l.228.537a.928.928,0,0,1-.024.772Z" transform="translate(-841.849 -857.679)" fill="#393972"/>
          <path id="Path_22211" data-name="Path 22211" d="M837.92,887.626s.727.108,1.2-.863a.927.927,0,0,0,.022-.774l-.228-.537a.179.179,0,0,1-.009-.03.464.464,0,0,0-.344-.1.5.5,0,0,1-.48-.291l-.924.348.934,2.834h.007C837.98,887.871,837.92,887.626,837.92,887.626Z" transform="translate(-824.307 -854.23)" fill="#dba775"/>
          <path id="Path_22212" data-name="Path 22212" d="M773.858,908.822a.258.258,0,0,1,.006-.066,3.213,3.213,0,0,1,.425-1.248l-1.07-.367h0a2.562,2.562,0,0,1-1.116,1.367h0a1.511,1.511,0,0,0,.388,1.355,1.231,1.231,0,0,0,.915.358h.7a.657.657,0,0,0-.044-.764.9.9,0,0,1-.2-.635Z" transform="translate(-761.926 -875.422)" fill="#dba775"/>
          <path id="Path_22213" data-name="Path 22213" d="M700.752,941.557h-.865a1.23,1.23,0,0,1-.915-.358,1.511,1.511,0,0,1-.388-1.357s-3.219-.179-3.224,1.3c0,.975,1.265.887,2.5.882h2.89a.237.237,0,0,0,.237-.237h0a.237.237,0,0,0-.235-.23Z" transform="translate(-688.406 -906.757)" fill="#393972"/>
          <path id="Path_22214" data-name="Path 22214" d="M770.34,314.7v-1.142l3.555-.582a1.592,1.592,0,0,0,1.24-1.386c.264-1.429.47-2.613.556-3.342a2.931,2.931,0,0,1,2.064-2.788l-1.061,9.239Z" transform="translate(-760.267 -298.765)" fill="#d0d0ef"/>
          <path id="Path_22215" data-name="Path 22215" d="M775.891,350.675l-5.551,1.277h6.35l.882-7.622-1.185,5.821a.665.665,0,0,1-.5.524Z" transform="translate(-760.267 -336.02)" fill="#aeaeff"/>
          <path id="Path_22216" data-name="Path 22216" d="M961.482,186.31h0a1.607,1.607,0,0,0-1.592,1.622v.787a1.608,1.608,0,0,0,1.592,1.622h0a1.6,1.6,0,0,0,1.592-1.6v-.813a1.919,1.919,0,0,0-1.592-1.618Z" transform="translate(-941.934 -184.573)" fill="#e2bb91"/>
          <path id="Path_22217" data-name="Path 22217" d="M950.863,146.513c.4.162.685.384.838,1.186a8.236,8.236,0,0,1,.116,1.151q.005.128.01.268a.042.042,0,0,1,0-.01c.007.136.018.31.032.511a3.361,3.361,0,0,0,1.2-3.031,1.835,1.835,0,0,0-1.33-1.6,2.347,2.347,0,0,0,.181-.418c.011-.1-.079.142-.911.089a2.125,2.125,0,0,0-2.038.707c-.619.859-.313,1.307-.749,1.627,0,0,.136.191.645.2C949.565,147.2,949.737,146.062,950.863,146.513Z" transform="translate(-930.741 -144.55)" fill="#5e1515"/>
          <path id="Path_22218" data-name="Path 22218" d="M1032.2,217.412a8.218,8.218,0,0,0-.116-1.151c.285-.26.549-.254.561.2a.98.98,0,0,1-.444.952Z" transform="translate(-1011.124 -213.113)" fill="#e2bb91"/>
          <path id="Path_22219" data-name="Path 22219" d="M985.8,255.9c-.08-.76-.122-1.418-.143-1.794a1.621,1.621,0,0,1-.612.907,1.515,1.515,0,0,1-.928.3h-.165l-.056-.007h-.021l-.067-.012H983.8a.259.259,0,0,1-.073-.017h0a1.6,1.6,0,0,1-.217-.073h0v1.982a.784.784,0,0,0,1.464.347A5.128,5.128,0,0,0,985.8,255.9Z" transform="translate(-964.57 -249.553)" fill="#dba775"/>
          <path id="Path_22220" data-name="Path 22220" d="M927.8,304.1l-6.581.215.051-.76.022-.329h.005l1.062-9.241,1.013-.346.442-.151v1.432a.784.784,0,0,0,1.464.347,5.105,5.105,0,0,0,.825-1.622c0-.032-.007-.063-.009-.095h0c.044.019.279.108.431.166l.094.035c.365.136.582.228.582.228Z" transform="translate(-904.872 -287.295)" fill="#e1e1ff"/>
          <path id="Path_22221" data-name="Path 22221" d="M553.2,370.4H543.161l-.672-6.073a.676.676,0,0,1,.672-.749h8.684a.676.676,0,0,1,.672.6Z" transform="translate(-541.89 -354.47)" fill="#c6c6c6"/>
          <path id="Path_22222" data-name="Path 22222" d="M548.332,375.183h8.319a.648.648,0,0,1,.644.576l.609,5.509h.6l-.658-5.961a.648.648,0,0,0-.644-.576h-8.319a.648.648,0,0,0-.619.458A.416.416,0,0,1,548.332,375.183Z" transform="translate(-547.425 -365.156)" fill="#fff"/>
          <rect id="Rectangle_605" data-name="Rectangle 605" width="15.5" height="0.803" transform="translate(1.27 15.932)" fill="#7f7f7f"/>
          <ellipse id="Ellipse_5" data-name="Ellipse 5" cx="0.974" cy="0.92" rx="0.974" ry="0.92" transform="translate(4.857 13.555) rotate(-89.026)" fill="#d3d3d3"/>
          <ellipse id="Ellipse_6" data-name="Ellipse 6" cx="0.589" cy="0.624" rx="0.589" ry="0.624" transform="translate(5.205 11.973)" fill="#fff"/>
          <rect id="Rectangle_606" data-name="Rectangle 606" width="25.865" height="1.377" transform="translate(0 16.735)" fill="#974212"/>
          <path id="Path_22223" data-name="Path 22223" d="M775.617,533.867h-.606L773.07,516.76h1.768Z" transform="translate(-753.032 -498.648)" fill="#974212"/>
          <path id="Path_22224" data-name="Path 22224" d="M367.2,516.76l-1.94,17.1h-.583l.767-17.1Z" transform="translate(-361.629 -498.648)" fill="#974212"/>
          <path id="Path_22225" data-name="Path 22225" d="M892.016,308.032a23.055,23.055,0,0,1-.561,5.365c-.43,1.9-.992,2.189-2.447,2.009-.788-.1-6.037-.8-6.037-.8l-.054-.975,5.886.061a.781.781,0,0,0,.778-.646l.915-7.685A2.589,2.589,0,0,1,892.016,308.032Z" transform="translate(-868.162 -298.671)" fill="#d0d0ef"/>
          <path id="Path_22226" data-name="Path 22226" d="M890.308,344.34s-.787,4.079-1.135,5.5a.7.7,0,0,1-.6.558l-5.649.594,5.99.062a.74.74,0,0,0,.679-.665Z" transform="translate(-868.167 -336.03)" fill="#aeaeff"/>
          <path id="Path_22227" data-name="Path 22227" d="M803.378,497.177l-1.012-.264a1.2,1.2,0,0,0-.439-.031l-.7.081a1.2,1.2,0,0,0-.7.332l-.566.551a.115.115,0,0,0,.11.193l1-.351a.69.69,0,0,1,.486.011l.366.146h-.882a.156.156,0,1,0,0,.307h2.387Z" transform="translate(-788.622 -482.22)" fill="#e2bb91"/>
          <path id="Path_22228" data-name="Path 22228" d="M976.156,293.738c-.1.226-.58,1.252-.776,1.706a1.241,1.241,0,0,1-2.38-.493v-1.289l.442-.151v1.432a.784.784,0,0,0,1.464.347,5.1,5.1,0,0,0,.825-1.622c0-.032-.007-.063-.01-.1h0Z" transform="translate(-954.498 -287.314)" fill="#d0d0ef"/>
        </g>
      </g>
    </g>
  </g>
</svg>
