<svg xmlns="http://www.w3.org/2000/svg" xmlns:xlink="http://www.w3.org/1999/xlink" width="74.522" height="68.098" viewBox="0 0 74.522 68.098">
  <defs>
    <linearGradient id="linear-gradient" x1="0.5" x2="0.5" y2="1" gradientUnits="objectBoundingBox">
      <stop offset="0" stop-color="#1c2848"/>
      <stop offset="1" stop-color="#06080e"/>
    </linearGradient>
  </defs>
  <g id="onsite" transform="translate(-8.987 -10)">
    <g id="flat" transform="translate(8.987 10)">
      <rect id="Rectangle_1094" data-name="Rectangle 1094" width="74.44" height="50.753" rx="1" fill="url(#linear-gradient)"/>
      <path id="Path_28568" data-name="Path 28568" d="M146.248,440h31.479a2.249,2.249,0,0,1,2.249,2.249v2.891H144v-2.891A2.248,2.248,0,0,1,146.248,440Z" transform="translate(-124.727 -377.042)" fill="#cbcbcb"/>
      <path id="Path_28569" data-name="Path 28569" d="M186.982,384h-6.424a5.14,5.14,0,1,1-10.279,0h-6.424L160,392.994h30.836Z" transform="translate(-138.158 -330.036)" fill="#a8a8a8"/>
      <path id="Path_28570" data-name="Path 28570" d="M98.521,344H24v2.57a3.855,3.855,0,0,0,3.855,3.855H94.667a3.855,3.855,0,0,0,3.855-3.855Z" transform="translate(-24 -296.46)" fill="#cbcbcb"/>
      <g id="Group_7925" data-name="Group 7925" transform="translate(24.595 53.964)">
        <path id="Path_28572" data-name="Path 28572" d="M185.353,386.57H177.14l1.1-2.57h6.424a5.121,5.121,0,0,0,.687,2.57Z" transform="translate(-177.14 -384)" fill="#656666"/>
        <path id="Path_28573" data-name="Path 28573" d="M291.933,386.57H283.72a5.121,5.121,0,0,0,.687-2.57h6.424Z" transform="translate(-266.603 -384)" fill="#656666"/>
      </g>
      <g id="onsite-2" data-name="onsite" transform="translate(-134.928 -457.19)">
        <g id="OBJECTS" transform="translate(147.19 470.19)">
          <path id="Path_30048" data-name="Path 30048" d="M204.2,190.236v-2.819h-2.258v2.7h-3.825V185.2H195.86v2.624h-2.482v-3.856h-2.956v3.856h-3.193V179.19h-3.718v4.952h-3.564V181.6h-2.674v6.2H174.53v-3.663h-2.673v6.376h-2.779V183h-2.346v4.828H164.24v16.247h43.113v-13.84Z" transform="translate(-161.453 -179.19)" fill="#fff" opacity="0.13"/>
          <path id="Path_30051" data-name="Path 30051" d="M234.1,350.706l.167-.214-2.178-.811-.167.214Z" transform="translate(-220.078 -326.872)" fill="#363435"/>
          <path id="Path_30052" data-name="Path 30052" d="M234.1,351.4l.084-.107L232,350.48l-.084.107Z" transform="translate(-220.078 -327.564)" fill="#363435" opacity="0.3"/>
          <path id="Path_30053" data-name="Path 30053" d="M246.5,354.674a.376.376,0,1,0,.375-.375.376.376,0,0,0-.375.375Z" transform="translate(-232.708 -330.872)" fill="#434244"/>
          <path id="Path_30054" data-name="Path 30054" d="M246.587,355.239a.332.332,0,0,0-.023.122.359.359,0,0,0,.669.178.374.374,0,0,1-.745-.051.37.37,0,0,1,.1-.249Z" transform="translate(-232.698 -331.687)" fill="#434244" opacity="0.4"/>
          <path id="Path_30055" data-name="Path 30055" d="M216.513,350.757l-.163-.2,2.076-.819.163.2Z" transform="translate(-206.591 -326.923)" fill="#363435"/>
          <path id="Path_30056" data-name="Path 30056" d="M217.042,351.4l-.082-.1,2.076-.819.082.1Z" transform="translate(-207.12 -327.564)" fill="#363435" opacity="0.3"/>
          <path id="Path_30057" data-name="Path 30057" d="M214.026,355.05a.374.374,0,1,1,.265-.11A.374.374,0,0,1,214.026,355.05Z" transform="translate(-204.254 -330.874)" fill="#434244"/>
          <path id="Path_30058" data-name="Path 30058" d="M214.292,355a.38.38,0,0,1-.123.023.359.359,0,0,1-.176-.669.373.373,0,1,0,.3.648Z" transform="translate(-204.269 -330.918)" fill="#434244" opacity="0.4"/>
          <rect id="Rectangle_1038" data-name="Rectangle 1038" width="0.282" height="1.017" transform="translate(11.776 22.951)" fill="#363435"/>
          <rect id="Rectangle_1039" data-name="Rectangle 1039" width="0.142" height="1.017" transform="translate(11.776 22.951)" fill="#363435" opacity="0.3"/>
          <path id="Path_30059" data-name="Path 30059" d="M229.69,357.065a.375.375,0,1,0,.375-.375.375.375,0,0,0-.375.375Z" transform="translate(-218.147 -332.943)" fill="#434244"/>
          <path id="Path_30060" data-name="Path 30060" d="M229.774,357.63a.37.37,0,0,0-.023.122.359.359,0,0,0,.669.178.373.373,0,0,1-.744-.051.368.368,0,0,1,.1-.249Z" transform="translate(-218.135 -333.758)" fill="#434244" opacity="0.4"/>
          <rect id="Rectangle_1040" data-name="Rectangle 1040" width="0.504" height="0.455" transform="translate(11.665 22.684)" fill="#6d6e70"/>
          <rect id="Rectangle_1041" data-name="Rectangle 1041" width="0.185" height="0.455" transform="translate(11.665 22.684)" fill="#6d6e70" opacity="0.3"/>
          <rect id="Rectangle_1042" data-name="Rectangle 1042" width="0.504" height="1.464" transform="translate(11.665 19.587)" fill="#6d6e70"/>
          <rect id="Rectangle_1043" data-name="Rectangle 1043" width="0.185" height="1.464" transform="translate(11.665 19.587)" fill="#6d6e70" opacity="0.3"/>
          <rect id="Rectangle_1044" data-name="Rectangle 1044" width="0.898" height="1.955" transform="translate(11.468 20.934)" fill="#363435"/>
          <rect id="Rectangle_1045" data-name="Rectangle 1045" width="0.369" height="1.955" transform="translate(11.468 20.934)" fill="#363435" opacity="0.3"/>
          <path id="Path_30061" data-name="Path 30061" d="M210.058,267.009a.355.355,0,0,0,.362.367h4.744a.336.336,0,0,0,.338-.355l-.813-7.358a.376.376,0,0,0-.37-.352l-3.541-.023a.387.387,0,0,0-.389.359Z" transform="translate(-201.141 -248.572)" fill="#c47526"/>
          <path id="Path_30062" data-name="Path 30062" d="M210.422,267.436a.355.355,0,0,1-.362-.367l.331-7.358a.387.387,0,0,1,.389-.359h2.1c-4,1.429.757,7.406.757,7.406a4.4,4.4,0,0,1,.611.669Z" transform="translate(-201.142 -248.628)" fill="#c47526" opacity="0.2"/>
          <path id="Path_30063" data-name="Path 30063" d="M210.018,315.06l-.008.361.213,1.24.072-.583Z" transform="translate(-201.1 -296.883)" fill="#8e4d1c"/>
          <path id="Path_30064" data-name="Path 30064" d="M215.5,315.061h-5.43l.278,1.018h5.736Z" transform="translate(-201.151 -296.883)" fill="#b56823"/>
          <path id="Path_30065" data-name="Path 30065" d="M213.57,316.06l-.023.02h-3.212l-.278-1.018h3.549C212.9,315.163,213.017,315.722,213.57,316.06Z" transform="translate(-201.141 -296.884)" fill="#b56823" opacity="0.2"/>
          <path id="Path_30066" data-name="Path 30066" d="M211.381,323.032a.187.187,0,0,0,.176.194h5.658a.185.185,0,0,0,.176-.194v-.3a.187.187,0,0,0-.176-.2h-5.659a.189.189,0,0,0-.176.2Z" transform="translate(-202.286 -303.359)" fill="#e0952f"/>
          <path id="Path_30067" data-name="Path 30067" d="M239.656,349.1l.187-.756-.789-.075-.163.959S239.18,349.87,239.656,349.1Z" transform="translate(-226.117 -325.65)" fill="#fdcba3"/>
          <path id="Path_30068" data-name="Path 30068" d="M237.1,353.984s.05-.071.1-.022.241.225.4.1a1.13,1.13,0,0,1,.373-.237c.106-.019.245.056.241.162s.6.34.815.416.575.134.643.321.157.424-.158.466a13.134,13.134,0,0,1-2.42-.088C236.907,355,237.034,354.118,237.1,353.984Z" transform="translate(-224.477 -330.464)" fill="#141414"/>
          <path id="Path_30069" data-name="Path 30069" d="M243.812,356.047s-.4.039-.488.225l-.313-.087a.625.625,0,0,1,.535-.268Z" transform="translate(-229.685 -332.274)" fill="#323232"/>
          <path id="Path_30070" data-name="Path 30070" d="M239.736,361.276h0c.035.145.021.276-.208.3a13.264,13.264,0,0,1-2.42-.088c-.062-.034-.09-.148-.1-.293a9.041,9.041,0,0,0,2.727.076Z" transform="translate(-224.487 -336.85)" fill="#e6e7e8"/>
          <path id="Path_30071" data-name="Path 30071" d="M217.248,301.159a6.071,6.071,0,0,0,.312,2.167c.333.522,2.9.52,2.9.52l-.419,4.11,1.018.046,1.312-4.4a.709.709,0,0,0-.543-1.092,4.457,4.457,0,0,1-1.453-.439,2.126,2.126,0,0,1-.159-.914S217.423,301.2,217.248,301.159Z" transform="translate(-207.369 -284.838)" fill="#0064d8"/>
          <path id="Path_30072" data-name="Path 30072" d="M233.254,317.119l-.751,2.518a2.432,2.432,0,0,0-.669-.817c-.331-.174-.7.87-.7.871l.25-2.452s-.718,0-1.527-.051a5.4,5.4,0,0,1,1.32-.574C231.223,316.6,233.254,317.119,233.254,317.119Z" transform="translate(-218.294 -298.228)" fill="#0064d8" opacity="0.3"/>
          <path id="Path_30073" data-name="Path 30073" d="M262.486,349.515l-.284-.8-.832.3.383.661S262.071,350.285,262.486,349.515Z" transform="translate(-245.589 -326.04)" fill="#fdcba3"/>
          <path id="Path_30074" data-name="Path 30074" d="M262.71,354.212s.044-.069.1-.025.246.208.393.082a1.027,1.027,0,0,1,.349-.249c.106-.023.239.041.242.145s.6.3.815.365.566.093.643.278.176.4-.126.459a12.707,12.707,0,0,1-2.353.037C262.578,355.214,262.65,354.341,262.71,354.212Z" transform="translate(-246.693 -330.626)" fill="#141414"/>
          <path id="Path_30075" data-name="Path 30075" d="M269.129,356.014s-.383.059-.46.244l-.309-.069a.607.607,0,0,1,.5-.29Z" transform="translate(-251.643 -332.258)" fill="#323232"/>
          <path id="Path_30076" data-name="Path 30076" d="M265.391,361.08h0c.041.134.035.268-.185.306a12.964,12.964,0,0,1-2.353.037c-.061-.029-.1-.134-.112-.28A8.773,8.773,0,0,0,265.391,361.08Z" transform="translate(-246.775 -336.746)" fill="#e6e7e8"/>
          <path id="Path_30077" data-name="Path 30077" d="M216.093,301.19s-.345,2.65.444,2.634c4.645-.084,4.24.21,4.24.21l1.271,4.162,1.1-.416-.906-4.391s-.122-.848-1.315-.937a18.593,18.593,0,0,1-3.408-.468c1.45.051.995-.582.995-.582S216.268,301.226,216.093,301.19Z" transform="translate(-206.304 -284.868)" fill="#0064d8"/>
          <path id="Path_30078" data-name="Path 30078" d="M218.234,301.193a1.17,1.17,0,0,1-.294.1c-1.64.347-1.493,1.4-1.249,1.975s2.872.313,3.345.278.7.1.769.261.99,3.438,1.159,3.8a.922.922,0,0,0,.412.47l-.3.114-1.271-4.162s.4-.294-4.24-.21c-.795.015-.444-2.634-.444-2.634C216.241,301.215,217.534,301.2,218.234,301.193Z" transform="translate(-206.325 -284.866)" fill="#154577" opacity="0.3"/>
          <path id="Path_30079" data-name="Path 30079" d="M243.07,278.666c-.084-.112-.628-1.426-.628-1.426l-.8.449s.71,1.456.821,1.645c.317.546,1.923.578,1.923.578a1.93,1.93,0,0,1,.447-.008.952.952,0,0,0,.5.157.708.708,0,0,0,.509-.26c.118-.134.062-.384.059-.483s-.268-.086-.415-.059-.331.021-.268-.02.118-.107.116-.134-.1-.084-.221,0-.229.159-.325.221A3.335,3.335,0,0,1,243.07,278.666Z" transform="translate(-228.498 -264.122)" fill="#fdcba3"/>
          <path id="Path_30080" data-name="Path 30080" d="M210.651,261.017a8.559,8.559,0,0,1,1.1.4,9.529,9.529,0,0,1,.925,1.951l-1.043.523-.282-.669.134,3.3s-2.449.4-3.252.037l.214-3.585-.433.712L207,263.2s.712-1.573,1.286-1.837a4.176,4.176,0,0,1,1.373-.361,1.411,1.411,0,0,0,.992.015Z" transform="translate(-198.492 -250.055)" fill="#e3ebe8"/>
          <path id="Path_30081" data-name="Path 30081" d="M207,273.552s.053-.119.142-.294h0c.313.6,1.015.231,1.1.114a4,4,0,0,1,.486-.416,10.419,10.419,0,0,0-.084,1.421c-.016,1.054.134,1.824.736,2.091a2.182,2.182,0,0,0,1.79-.134,12.175,12.175,0,0,0,.034-2.207c.018-.2.1-1.021.1-1.021a9.293,9.293,0,0,0,.433,1.094h0l-.108.055-.282-.669.134,3.3s-2.449.4-3.252.037l.214-3.585-.433.712Z" transform="translate(-198.492 -260.41)" fill="#323232" opacity="0.3"/>
          <path id="Path_30082" data-name="Path 30082" d="M226,256.9a.912.912,0,0,1-.35.652s.694.769,1.3.074a.9.9,0,0,1-.134-.659A.948.948,0,0,1,226,256.9Z" transform="translate(-214.647 -246.504)" fill="#fdcba3"/>
          <path id="Path_30083" data-name="Path 30083" d="M228,257.09a1.012,1.012,0,0,0,.036-.19.948.948,0,0,0,.811.065.773.773,0,0,0-.016.181h0a.734.734,0,0,1-.831-.056Z" transform="translate(-216.683 -246.504)" fill="#fdcba3" opacity="0.3"/>
          <path id="Path_30084" data-name="Path 30084" d="M224.9,244.172a.867.867,0,1,0,.356-.91.869.869,0,0,0-.356.91Z" transform="translate(-213.998 -234.557)" fill="#fdcba3"/>
          <path id="Path_30085" data-name="Path 30085" d="M223.421,241.2a1.02,1.02,0,0,0,.254-.565.488.488,0,0,1,.448.013,1.527,1.527,0,0,0,.839.116,1.565,1.565,0,0,1-.368-.134s.669.275.811-.34c.11-.478-.151-.615-.151-.615-.486.134-.61.074-.708.028-.669-.31-1.185-.1-1.176.425a.759.759,0,0,0-.182.965.231.231,0,0,1,.233.107Z" transform="translate(-212.425 -231.486)" fill="#3b1e00"/>
          <path id="Path_30086" data-name="Path 30086" d="M223.513,249.79c.064.148.19.237.278.2s.11-.191.044-.34-.19-.237-.278-.2S223.448,249.642,223.513,249.79Z" transform="translate(-212.763 -240.043)" fill="#fdcba3"/>
          <path id="Path_30087" data-name="Path 30087" d="M205.022,280.319a5.622,5.622,0,0,1-1.579-.851,7.952,7.952,0,0,1,.578-1.187l-.8-.4a6.937,6.937,0,0,0-.742,1.928c.028.486,2.6,1.07,2.6,1.07a1.616,1.616,0,0,0,.81.268,4.09,4.09,0,0,0,.9.063c.2-.071.175-.036.225-.143s-.234-.234-.408-.286-.364-.155-.268-.163a.281.281,0,0,0,.2-.086c.013-.036-.052-.09-.23-.074s-.331,0-.466.007a4.74,4.74,0,0,1-.575-.046Z" transform="translate(-194.573 -264.677)" fill="#fdcba3"/>
          <rect id="Rectangle_1046" data-name="Rectangle 1046" width="3.461" height="0.234" rx="0.117" transform="translate(13.293 16.207)" fill="#414042"/>
          <path id="Path_30088" data-name="Path 30088" d="M242.83,301.564h3.415a.08.08,0,0,1-.076.06h-3.3a.079.079,0,0,1-.077-.071.082.082,0,0,0,.04.011Z" transform="translate(-229.494 -285.183)" fill="#414042" opacity="0.3"/>
          <path id="Path_30089" data-name="Path 30089" d="M249.969,285.188a.076.076,0,0,0,.076.1h3.465a.152.152,0,0,0,.134-.1l.725-2.387a.076.076,0,0,0-.076-.1h-3.464a.152.152,0,0,0-.134.1Z" transform="translate(-235.708 -268.851)" fill="#6d6e71"/>
          <path id="Path_30090" data-name="Path 30090" d="M251.861,285.293h-1.817a.076.076,0,0,1-.076-.1l.725-2.387a.152.152,0,0,1,.134-.1h1.036a1.879,1.879,0,0,0,0,2.591Z" transform="translate(-235.707 -268.852)" fill="#6d6e71" opacity="0.3"/>
          <path id="Path_30091" data-name="Path 30091" d="M293.585,314.863h.476l-2.026-7.343h-.676Z" transform="translate(-271.566 -290.352)" fill="#694410"/>
          <path id="Path_30092" data-name="Path 30092" d="M178.4,314.863h-.478l2.026-7.343h.676Z" transform="translate(-173.303 -290.352)" fill="#694410"/>
          <rect id="Rectangle_1047" data-name="Rectangle 1047" width="19.942" height="0.755" transform="translate(3.586 16.438)" fill="#fff"/>
          <rect id="Rectangle_1048" data-name="Rectangle 1048" width="19.942" height="0.237" transform="translate(3.586 16.957)" fill="#9e9e9e" opacity="0.5"/>
          <path id="Path_30093" data-name="Path 30093" d="M373.9,308.761h.539l-2.286-8.287h-.763Z" transform="translate(-340.887 -284.248)" fill="#414042"/>
          <path id="Path_30094" data-name="Path 30094" d="M372.15,300.47h-.763l.483,1.575a1.2,1.2,0,0,1,.4.154c.435.268,2.062,6.555,2.062,6.555h.112Z" transform="translate(-340.887 -284.245)" fill="#414042" opacity="0.3"/>
          <path id="Path_30095" data-name="Path 30095" d="M320.928,308.761h-.538l2.285-8.287h.763Z" transform="translate(-296.713 -284.248)" fill="#414042"/>
          <path id="Path_30096" data-name="Path 30096" d="M322.661,300.47h.763l-.476,1.575a1.2,1.2,0,0,0-.4.154c-.435.268-2.06,6.555-2.06,6.555h-.112Z" transform="translate(-296.698 -284.245)" fill="#414042" opacity="0.3"/>
          <rect id="Rectangle_1049" data-name="Rectangle 1049" width="9.491" height="13.654" transform="translate(23.868 2.773)" fill="#bcbec0"/>
          <rect id="Rectangle_1050" data-name="Rectangle 1050" width="8.933" height="13.047" transform="translate(24.147 3.01)" fill="#fff"/>
          <path id="Path_30097" data-name="Path 30097" d="M323.9,214.738V201.69h5.9Z" transform="translate(-299.753 -198.68)" fill="#e6e7e8" opacity="0.2"/>
          <line id="Line_4" data-name="Line 4" x1="8.933" transform="translate(24.147 16.058)" fill="#fff"/>
          <rect id="Rectangle_1051" data-name="Rectangle 1051" width="2.751" height="0.712" transform="translate(27.237 2.551)" fill="#414042"/>
          <path id="Path_30098" data-name="Path 30098" d="M357.53,198.972s.88-.467.147-.712h1.2v.712Z" transform="translate(-328.884 -195.709)" fill="#414042" opacity="0.3"/>
          <path id="Path_30099" data-name="Path 30099" d="M372.26,278.507v-1.839l.6-.551.6.551v1.838Z" transform="translate(-341.643 -263.15)" fill="#974212"/>
          <path id="Path_30100" data-name="Path 30100" d="M360.21,271.372v-2.941l.6-.551.6.551v2.941Z" transform="translate(-331.205 -256.015)" fill="#de934b"/>
          <path id="Path_30101" data-name="Path 30101" d="M335.99,274.941v-2.389l.6-.551.6.551v2.389Z" transform="translate(-310.225 -259.583)" fill="#de934b"/>
          <path id="Path_30102" data-name="Path 30102" d="M348.05,261.852v-4.411l.6-.551.6.551v4.411Z" transform="translate(-320.672 -246.495)" fill="#974212"/>
          <path id="Path_30103" data-name="Path 30103" d="M328.96,212.48c-.011,0,0-.017-.029-.02s-.039-.013-.049,0,0,.011-.02.017a.473.473,0,0,1-.092.007c-.012,0-.044,0-.046-.012s0-.023-.013-.023-.021.007-.035,0a.089.089,0,0,0-.034-.017.122.122,0,0,0-.052-.008c-.012,0,0,.012-.023.008s0-.017-.043-.019a.281.281,0,0,0-.086.008.568.568,0,0,0-.068.011c-.013.007-.019.02-.038.023a.075.075,0,0,1-.059-.011c-.031-.017-.009-.019-.046-.023l-.122-.016c-.029,0-.048-.029-.071-.028s-.029.012-.052.022a.22.22,0,0,1-.068.007c-.038,0-.059-.007-.072,0s-.008.023-.032.027a.537.537,0,0,0-.072,0c-.011,0-.023,0-.028.019a.052.052,0,0,0,.009.039s.013.019-.011.023a.243.243,0,0,1-.061,0H327.6c-.009,0-.022.028.008.034s.08,0,.051.015a.3.3,0,0,1-.072.021s-.041-.008-.052.016-.022.023-.041.034-.027.031-.021.036.027.012.027.019a.034.034,0,0,0,.021.022h.031a.343.343,0,0,0-.044.044c-.008.012,0,.025.019.025s.056-.029.071-.036a.133.133,0,0,0,.039-.028c.023-.023.032-.028.046-.031s.016-.017.04-.031.046-.035.052-.031.019,0,0,.011-.02.008-.028.021-.035.023-.022.029a.059.059,0,0,0,.046,0c.017,0,.032,0,.043-.02s.007-.031.023-.035.035,0,.037.011,0,.013.019.015h.04c.022,0,.027,0,.027.012s-.017,0,.007.015.034,0,.043.016.015.019.016.027.007.013.011.032-.009.027,0,.041.017.015.012.039a.38.38,0,0,0-.008.043c0,.019,0,.025-.009.034a.015.015,0,0,0,0,.025.1.1,0,0,1,.035.032c0,.007-.011.019-.011.019s.016.035,0,.035-.048-.011-.039.007a.071.071,0,0,1,0,.041.046.046,0,0,1-.015.04.307.307,0,0,0-.064.067c-.017.028-.041.044-.035.071s-.025.015-.025.046a.088.088,0,0,0,0,.046.046.046,0,0,1,0,.037c0,.015-.019.04,0,.048s.032,0,.035.013.011.015.016.025.02,0,.02.016-.013.039-.011.058a.279.279,0,0,0,.019.062c.007.017.012.012.015.027s0,0-.011.022-.007.028,0,.035.019,0,.023.015a.041.041,0,0,1,.009.029v.028s.015,0,.019.012.016.022.023.019.016-.008,0-.022-.027-.025-.027-.039v-.037a.067.067,0,0,0-.008-.039.035.035,0,0,1-.013-.025.046.046,0,0,0,0-.034c-.008-.016-.015-.023-.008-.039s0-.027.012-.029,0-.025.017-.008.023.028.023.041a.134.134,0,0,0,0,.053l.019.048a.211.211,0,0,0,.027.056c.015.019.023.011.034.036a.81.81,0,0,1,.035.079.089.089,0,0,1,0,.037.09.09,0,0,0,.013.035.1.1,0,0,0,.02.032.089.089,0,0,1,.022.023c.012.016.023.015.039.02l.046.019a.106.106,0,0,1,.04.023.039.039,0,0,0,.041.013c.019,0,.028,0,.032-.009s.025-.016.028-.012a.155.155,0,0,1,.015.027c0,.008.023.009.034.023s.034.017.044.021.007.013.017.016a.185.185,0,0,0,.039,0c.019,0,.029-.011.034,0s0,.031.013.035.017.012.017.016-.007.028,0,.04a.314.314,0,0,1,.031.027c.012.012.027.017.034.027s.023.009.029.015a.064.064,0,0,0,.028.012.015.015,0,0,0,.015-.012c0-.012-.013,0,0,0s.036-.008.025-.015a.048.048,0,0,0-.031-.008.071.071,0,0,1-.029,0c-.016,0-.044,0-.052-.02a.051.051,0,0,1-.012-.039.237.237,0,0,1,.007-.046.078.078,0,0,0,0-.046.028.028,0,0,0,.012-.019.029.029,0,0,0-.016-.025c-.007,0,.023-.016-.016-.016a.156.156,0,0,0-.058,0c-.019.007-.037.019-.041,0s-.008-.023,0-.028a.058.058,0,0,0,.013-.037.1.1,0,0,1,0-.021.027.027,0,0,0,.02-.012c0-.011,0-.011.009-.022s0-.04.007-.041.021-.017,0-.022-.012-.008-.027,0a.042.042,0,0,1-.031.008.023.023,0,0,0-.023.009c-.007.009,0,.022-.012.032s-.023.015-.023.023-.017.017-.035.016a.133.133,0,0,0-.053.008c-.02,0-.027.019-.043-.009a.116.116,0,0,1-.025-.077c0-.039.012-.063.013-.1s0-.031.009-.039.019-.013.019-.025v-.028c0-.012,0-.022.012-.022h.023a.134.134,0,0,0,.032-.023c.009-.009.027-.017.029-.028s0-.012.025-.013a.225.225,0,0,1,.052,0,.143.143,0,0,0,.046,0c.008,0-.007-.017.021-.013s.036.008.038,0a.043.043,0,0,0,0-.013.018.018,0,0,1,.02,0c.011.007.021,0,.023.008s0,.016.009.02a.028.028,0,0,0,.019,0h.012c.012,0,.016-.008.017,0a.153.153,0,0,0,.008.025c.008.025,0,.017,0,.035a.11.11,0,0,1,0,.032.02.02,0,0,0,.013.017v.013c0,.013.016.009.019,0s0-.019.007-.023a.028.028,0,0,0,.011-.021.089.089,0,0,0,0-.036c0-.016-.012-.013-.012-.023v-.022c0-.008-.013-.023,0-.034s.009-.029.025-.046a.583.583,0,0,1,.055-.035c.012-.011,0-.023.016-.029a.1.1,0,0,1,.032-.013c.012,0,.012-.011.015-.019a.019.019,0,0,1,.02-.013c.011,0,.017,0,.023-.009s-.009-.034,0-.048,0-.034,0-.037.037,0,.043-.009a.115.115,0,0,1,.017-.027c.005,0,.009,0,.02-.012s0-.023.016-.031a.2.2,0,0,1,.058-.012c.012,0,.016.013.023,0a.133.133,0,0,0,.013-.034c0-.012,0-.037.027-.037s.02,0,.023-.007,0-.011.011-.012h.032c.007,0,.009-.008.013-.017s0,0,0-.011.017,0,.023,0,.013-.022.022-.022.017,0,.02.008-.011.019-.02.025,0-.009-.009,0-.019.012-.015.023,0,.015.015.017.017,0,.023-.015,0-.019.017-.02h.063s.013-.022,0-.022a.092.092,0,0,1-.037,0v-.016c0-.016-.011-.016,0-.023A.284.284,0,0,1,329.4,213c.007-.009.009-.02-.013-.023s-.025-.009-.039,0-.028,0-.036.011,0,.012-.019.017l-.027.008s-.013,0,0-.011a.111.111,0,0,1,.023-.015.208.208,0,0,1,.046-.028h.032c.011,0,0-.016.023-.017a.266.266,0,0,1,.046,0c.02,0,.031-.009.039,0s0,.016.017.017a.133.133,0,0,0,.041-.008c.015,0,.025,0,.031-.007s.008,0,.011-.016,0-.019.007-.019h.034c.009,0,.017,0,.022-.013a.08.08,0,0,1,.011-.025s.016-.012,0-.02a.094.094,0,0,1-.023-.021c-.011-.009,0-.016-.015-.025s-.019-.011-.022-.017a.142.142,0,0,1-.022-.051.2.2,0,0,0,0-.028c0-.013-.009-.015-.009-.022s0-.019-.012-.015-.019-.007-.027.009,0,.019-.012.023-.016,0-.029,0-.035.019-.035,0v-.025a.091.091,0,0,0,0-.029v-.017a.074.074,0,0,1-.017-.012.015.015,0,0,0,0-.011.015.015,0,0,0-.011,0c-.016,0-.019.012-.036.008s-.011-.008-.028-.011-.017-.008-.027,0-.019,0-.02.019.013.028,0,.031-.021,0-.023.011a.155.155,0,0,0,0,.025c0,.007-.023,0-.028.009a.02.02,0,0,0-.007.017v.019a.047.047,0,0,1-.008.023.126.126,0,0,1-.027.025l-.029.02c-.011.008-.012,0-.023.016l-.02.043a.11.11,0,0,1-.013.037c-.009.019-.023.009-.031.019s0,.02-.017.009-.027-.008-.025-.023a.3.3,0,0,0,0-.035c0-.012-.008,0,.007-.011a.044.044,0,0,0,.02-.023c.005-.011,0-.015,0-.02s0,0-.023,0h-.028a.287.287,0,0,1-.027-.029.05.05,0,0,0-.023-.016c-.013,0-.009,0-.025-.009s0-.023-.022-.017-.025.025-.032.009-.016-.036-.013-.04,0,0,0-.019,0-.011.009-.02-.02,0,.023-.028l.068-.04c.013-.007.011-.013.029-.019a.182.182,0,0,1,.043-.009c.011,0,.035-.028.046-.031a.15.15,0,0,1,.041-.007.032.032,0,0,0,.025-.013c.007-.007,0-.017.007-.019h.019s.009-.011.013-.011h.08a.037.037,0,0,0,.035-.017c0-.011,0-.022.009-.027s.021,0,.027-.019.031-.013,0-.02-.032-.013-.043-.007-.016,0-.028.013a.267.267,0,0,1-.037.027c-.017.011-.008.009-.023.011s-.017-.015-.025-.022-.011,0-.016-.012-.016-.008-.009-.016l.007-.008c.008-.009.02-.016.009-.022s-.007-.025-.027-.015-.028.007-.035.016-.009.009-.015.017a.04.04,0,0,0,0,.027c0,.016.007.027,0,.028s-.02-.008-.029,0,0,.015-.028.015-.029-.008-.041-.009h-.062a.177.177,0,0,1,.005.021Z" transform="translate(-302.84 -207.924)" fill="#6bb2e3"/>
          <path id="Path_30104" data-name="Path 30104" d="M336.6,212c.015,0,.031,0,.039-.015s0-.008,0-.023,0-.017.008-.027.008-.034,0-.036-.009,0-.023.007,0,0-.028.009a.092.092,0,0,1-.048,0c-.019,0-.031-.016-.048-.013a.047.047,0,0,1-.027,0s0-.012-.031-.015-.025-.015-.056,0-.055,0-.067.017a.1.1,0,0,1-.034.022c-.013.008-.041.009-.023.017s.021.016.049.015.023-.013.046-.016.036-.008.044,0,.02.012.007.02-.021.013,0,.019.032,0,.035.012.011.011,0,.012H336.4a.037.037,0,0,0,.023.022c.015,0,0,.009.039,0a.172.172,0,0,1,.052-.009h.052A.132.132,0,0,0,336.6,212Z" transform="translate(-310.453 -207.507)" fill="#6bb2e3"/>
          <path id="Path_30105" data-name="Path 30105" d="M341.478,211.862v-.012a.025.025,0,0,0-.022.013c-.006.013-.008.009-.02.016s-.016,0-.02.012-.022.016-.019.023,0,.008.019.012a.2.2,0,0,0,.049,0l.044.012h.056c.023,0,.032,0,.041.013s.008.023.023.035.008.016,0,.027-.028,0-.035.019-.008.019-.019.023a.116.116,0,0,1-.035,0h-.027c-.027,0-.032.013-.017.02a.24.24,0,0,0,.041.011c.009,0,.032,0,.036.012a.063.063,0,0,0,.015.028c.011.012.02.012.032.019s.032.019.034,0a.244.244,0,0,0,0-.032c0-.015,0-.019.011-.015s.007.012.016.015a.043.043,0,0,0,.036,0,.023.023,0,0,0,.015-.029.026.026,0,0,0-.007-.022c-.007-.008-.017,0-.009-.02s-.007-.021.012-.021.028-.009.032,0,0,.017.009.021.023.009.023,0,0-.011.009-.016.02,0,.023-.016.017-.025,0-.029a.354.354,0,0,1-.046-.012c-.015,0-.027,0-.023-.016a.043.043,0,0,0,0-.02c0-.005.028,0,.016-.013s-.011-.023-.031-.031-.025,0-.036-.012a.07.07,0,0,1-.017-.013c0-.007-.009-.015-.023-.012s-.016.011-.034.012a.052.052,0,0,1-.028,0s0-.021-.019-.021a.134.134,0,0,0-.032,0h-.032c-.009,0-.016.011-.02.019s0,.016-.015.012l-.02-.011s0-.015.008-.015S341.478,211.862,341.478,211.862Z" transform="translate(-314.909 -207.472)" fill="#6bb2e3"/>
          <path id="Path_30106" data-name="Path 30106" d="M342.619,210.624H342.5s0-.007.015-.013a.067.067,0,0,1,.032-.008.18.18,0,0,0,.053,0c.015,0,.019-.017.032-.023l.027-.013a.057.057,0,0,0,.011-.019l-.02-.009c-.008,0-.019,0-.011-.015a.043.043,0,0,1,.027-.009h.043c.008,0,0-.011.02-.013s.016-.012.039-.009a.134.134,0,0,1,.053,0c.043.013.049.013.059.011l.025-.007h.043c.017,0,.051,0,.037.013s-.009.019-.037.02a.136.136,0,0,0-.061.009.107.107,0,0,1-.055.022.6.6,0,0,0-.068.008.071.071,0,0,0-.04.016.075.075,0,0,1-.036.017c-.012,0-.031,0-.034.009a.061.061,0,0,1,0,.012.17.17,0,0,1-.035,0Z" transform="translate(-315.864 -206.301)" fill="#6bb2e3"/>
          <path id="Path_30107" data-name="Path 30107" d="M342.184,210.756a.028.028,0,0,1,.023-.022h.023c.009,0,.011,0,.016-.008s0-.016.009-.016.027,0,.028.008a.016.016,0,0,0,.01.013h.008c.008,0,.028,0,.017.016a.061.061,0,0,1-.031.013h-.079C342.2,210.761,342.179,210.768,342.184,210.756Z" transform="translate(-315.59 -206.493)" fill="#6bb2e3"/>
          <path id="Path_30108" data-name="Path 30108" d="M345.043,210.451h-.052c-.009,0-.016.007-.029.013s-.025,0-.034.011.007.015-.019.019h-.044c-.023.007-.034,0-.046.009s-.023,0-.031.007-.02.023-.009.031.007.009.043.013a.384.384,0,0,0,.08,0,.048.048,0,0,1,.032.008.052.052,0,0,1,.02.022.014.014,0,0,1,.015.009c0,.012-.013.023-.007.032s.009.022.022.023.017,0,.02.007.019,0,.013.027-.015.019-.022.023-.017,0-.008.017.017.008.011.02-.034.012-.039.015a.061.061,0,0,0-.029.043.089.089,0,0,0,.007.044c0,.017-.008.02-.009.028a.155.155,0,0,0,0,.025c0,.015-.008.02,0,.031s0,.015.02.017.032-.008.046,0,.007.019.017.022,0,0,.019,0,.02.008.032-.007a.193.193,0,0,0,.02-.035c.007-.013,0-.025.017-.034s.036,0,.048-.015a.214.214,0,0,0,.017-.035c0-.016,0-.017.02-.02a.157.157,0,0,1,.036,0c.009,0,0-.013.022-.015a.348.348,0,0,1,.046,0,.086.086,0,0,0,.044-.023c.013-.011.019-.027.027-.031a.121.121,0,0,1,.043,0,.075.075,0,0,0,.041,0,.182.182,0,0,0,.037-.015c.013-.008.013-.011.031-.011s.022,0,.023-.012,0-.015-.013-.021-.032-.022-.011-.016a.04.04,0,0,0,.028,0,.031.031,0,0,0,.016.011h.017a.012.012,0,0,0,0-.021l-.027-.015s-.016,0-.008-.009a.034.034,0,0,1,.017-.012s0-.008.035-.008.043,0,.048-.012,0-.013,0-.022a.02.02,0,0,0,.007-.02c0-.011-.023,0,0-.011a.178.178,0,0,0,.031-.011s.015,0,0-.013h-.009s-.012-.012,0-.017a.227.227,0,0,0,.037-.017c.015-.009.013-.017.025-.02s.008,0,.023,0h.04c.008,0,.02,0,.012-.008s0-.016-.023-.017h-.04a.332.332,0,0,1-.046-.008c-.013,0-.017-.009-.023-.013a.115.115,0,0,0-.065-.017.26.26,0,0,1-.065,0,.708.708,0,0,0-.1.007.809.809,0,0,1-.09.013.332.332,0,0,0-.061,0,.3.3,0,0,1-.087,0l-.067.015c-.029,0-.032.009-.051,0a.108.108,0,0,0-.04,0Z" transform="translate(-317.835 -206.239)" fill="#6bb2e3"/>
          <path id="Path_30109" data-name="Path 30109" d="M350.448,213.536c0-.009-.016-.035-.007-.04s-.011,0,.008,0,.019.015.032.017.013,0,.017-.008-.011-.013.013-.013a.171.171,0,0,1,.037,0c.017,0,.023.007.031,0s-.015-.007,0,0,.02,0,.025.012.034,0,.017.015-.015.022-.032.023h-.037c-.008,0-.009,0-.016.009s-.015-.007-.02,0,0,.02-.015.017a.1.1,0,0,1-.034-.016h-.013a.04.04,0,0,1-.008-.016Z" transform="translate(-322.741 -208.898)" fill="#6bb2e3"/>
          <path id="Path_30110" data-name="Path 30110" d="M337.627,226.047a.4.4,0,0,1-.055-.028l-.027-.039a.046.046,0,0,0-.036,0c-.022,0,.013.009-.028.012s-.053.008-.055,0,0-.017-.013-.017h-.091c-.008,0-.013.009-.023,0a.028.028,0,0,1-.016-.015s.009-.017-.017,0-.032,0-.043.019a.151.151,0,0,0-.022.044.084.084,0,0,1-.015.028.215.215,0,0,0-.027.037c-.007.015-.011.021,0,.037s-.008.035,0,.043,0,.032-.012.048a.227.227,0,0,0-.025.035.1.1,0,0,0-.012.032c0,.017-.023.023-.027.035a.046.046,0,0,0,0,.025s-.02.043-.009.063.017.025.019.037.017,0,0,.012-.025,0-.032,0a.014.014,0,0,0-.01.023c.01.011.011.048.029.068a.2.2,0,0,1,.043.049.084.084,0,0,0,.028.04.458.458,0,0,1,.084.134c.013.04.019.053.048.063s.031,0,.051.017a.254.254,0,0,1,.065.1v.091c0,.045-.011.067,0,.1s0,.025.008.052a.134.134,0,0,1,.012.077v.051a.435.435,0,0,1,0,.1.46.46,0,0,0,0,.086c0,.035-.012.068,0,.09s.016.031.032.035.021,0,.023.012a1.106,1.106,0,0,1,.046.157.134.134,0,0,0,.021.069c.013.023.043.019.04.043s-.02.034,0,.044a.134.134,0,0,0,.051.009c.011,0,.009-.013.023-.008a.046.046,0,0,1,.025.025h.028c.02,0,.041.012.052.007s.011-.008.011-.019.011-.009-.008-.019-.015-.013-.035-.02-.009.016-.019-.007a.425.425,0,0,1-.021-.056c0-.008-.009-.015,0-.023a.072.072,0,0,0,.021-.028c.007-.017.011-.039,0-.041a.07.07,0,0,1-.036-.013c-.016-.012-.034-.025-.023-.037s.008-.021.019-.025.008.008.012-.011,0-.011,0-.022-.007-.02,0-.029,0-.016,0-.02-.025,0-.019-.017-.009-.011.007-.019a.034.034,0,0,1,.029,0,.013.013,0,0,0,.023,0,.023.023,0,0,0,.008-.031.057.057,0,0,1-.007-.022.027.027,0,0,1,.016-.009h.032s.036-.013.036-.025.007-.013.007-.025v-.046c0-.016-.009-.019,0-.023a.107.107,0,0,1,.041-.012c.007,0,.007,0,.017-.007s.041-.023.043-.032a.084.084,0,0,1,0-.02l.012-.019a.1.1,0,0,0,.016-.023.392.392,0,0,0,.011-.055A.112.112,0,0,0,338,227.2c.011-.019,0-.039,0-.063s-.016-.027,0-.051,0-.025.028-.041.023-.02.046-.02a.215.215,0,0,0,.072,0,.108.108,0,0,0,.038-.074.11.11,0,0,1,.013-.059.176.176,0,0,0,.02-.1c0-.02-.013-.017,0-.039a.331.331,0,0,1,.023-.044.429.429,0,0,0,.037-.06c.011-.023.032-.051.035-.062s.012,0,.012-.032a.3.3,0,0,0,0-.053.034.034,0,0,0-.013-.029.355.355,0,0,0-.046-.031c-.019-.012-.037-.037-.059-.04s-.013-.009-.046-.007,0,.015-.041,0a.1.1,0,0,1-.052-.032c-.016-.012-.013-.023-.041-.025a.193.193,0,0,0-.049,0,.032.032,0,0,1-.032-.013l-.02-.029a.213.213,0,0,0-.02-.077.174.174,0,0,0-.065-.063.1.1,0,0,1-.035-.017.107.107,0,0,0-.058-.019.07.07,0,0,1-.028,0,.039.039,0,0,1-.039-.034v-.025Z" transform="translate(-311.141 -219.696)" fill="#6bb2e3"/>
          <path id="Path_30111" data-name="Path 30111" d="M353.27,213.481c0-.007,0-.016.015-.011s.031.008.034.02.017.008.027.025,0,.028.013.036.025.008.029.015.021.019.021.031,0,.019.012.019.007-.02.023-.02.023-.016.029-.019a.124.124,0,0,0,.023-.022.133.133,0,0,0,.015-.031.118.118,0,0,0,0-.052.134.134,0,0,1-.017-.051.131.131,0,0,0,0-.023s-.007-.011-.011-.019,0-.008-.008-.013a.034.034,0,0,1-.017-.022.071.071,0,0,0-.012-.021c0-.009-.015-.012-.022-.019s0-.019,0-.031.007,0,.015-.012,0,0,0-.011a.075.075,0,0,1,0-.029c0-.012,0-.015.016-.015h.037a.04.04,0,0,0,.023.009c.015,0,.025.009.036,0a.051.051,0,0,1,.031-.023.309.309,0,0,0,.063-.02.584.584,0,0,0,.055-.034.082.082,0,0,0,.036-.037c.013-.023,0-.041.015-.062a.342.342,0,0,0,.013-.06.049.049,0,0,0-.008-.027c-.011-.016-.017-.02-.015-.034a.089.089,0,0,0,0-.023c0-.014-.041-.036-.044-.052s0-.036-.023-.044-.032,0-.032-.016-.008-.023.007-.023h.025v-.023a.008.008,0,0,0,.008,0,.008.008,0,0,0,0-.009.008.008,0,0,0-.008,0h-.02s0,.007-.015.007h-.023a.131.131,0,0,0-.025-.02s-.031,0-.032-.02,0-.027.013-.029.013,0,.023-.009l.02-.025h.019s0,.028.013.031a.078.078,0,0,0,.028,0h.023a.037.037,0,0,1,.031.012c.013.012.022,0,.023.012s-.017.009,0,.023.031.011.034.017.008.007.009.021-.009.016,0,.029.022.019.023.025a.03.03,0,0,0,.009.022c.009.009.015.009.025,0l.025-.008a.019.019,0,0,0,.013-.023.066.066,0,0,0-.017-.046c-.009-.007-.009,0-.02-.015s0-.012-.019-.032-.028-.017-.034-.023-.022-.013-.013-.028.007-.017.016-.023.016,0,.019-.019-.009-.028-.007-.035,0-.015.012-.015h.027a.1.1,0,0,0,.035,0c.009,0,.015-.017.019-.029a.087.087,0,0,0,0-.032.058.058,0,0,0,.017-.039.232.232,0,0,0,0-.046.183.183,0,0,0,0-.037.126.126,0,0,0-.022-.031c-.007-.011-.015-.013-.021-.031a.22.22,0,0,0-.032-.043l-.031-.023a.051.051,0,0,0-.032-.012.108.108,0,0,1-.029,0c-.012,0-.013-.008-.025-.016s-.017-.016-.028-.016h-.027c-.012,0,0-.027.011-.04s0-.017.015-.046,0-.028.021-.04.016-.016.032-.016h.077c.027,0,.036-.009.055,0s.034.008.037.015a.021.021,0,0,0,.025.008c.012,0,.025,0,.028-.013a.078.078,0,0,0,0-.025.043.043,0,0,1,0-.022c0-.007,0-.019.013-.022h.04s0-.008.013,0,.009.015.02.015h.016l.008-.023s-.015-.012,0-.012.027-.007.031.009,0,.016.008.027.016,0,.013.017-.007.008-.012.02-.011.015-.011.022v.017c0,.008-.012.012-.013.017a.163.163,0,0,0,0,.027.046.046,0,0,0,.016.043c.015.015.035.028.039.04s.023.019.023.031,0,.013.011.023.019.007.027.016.023.017.028.023.015,0,.021,0,.008-.015,0-.028-.009-.009-.009-.02a.157.157,0,0,1,0-.023v-.021c0-.009.016-.02,0-.037s-.029-.011-.031-.025a.066.066,0,0,0,0-.028c0-.007.007-.012-.008-.013H354.2s-.011,0-.009-.021a.346.346,0,0,0,0-.039h.023a.159.159,0,0,1,.037,0s0-.013.011-.007l.016.007s.028,0,.037-.009l.023-.027a.114.114,0,0,1,.023-.032c.013-.013,0-.028,0-.039s0-.012-.013-.017l-.031-.013c-.015,0,0,.019-.015,0l-.013-.023s.008-.016.022-.011,0,0,.012,0a.078.078,0,0,0,.031,0h.013a.262.262,0,0,0,.041-.016l.015-.011.011-.015a.055.055,0,0,0-.023-.031.233.233,0,0,0-.06-.011H354.3a.292.292,0,0,1-.046-.017.3.3,0,0,0-.064-.016h-.044a.24.24,0,0,0-.044,0,.363.363,0,0,0-.051,0c-.036,0-.044.019-.044.019s0,.008-.025.008a.5.5,0,0,1-.072,0h-.05a.153.153,0,0,1-.082,0,.269.269,0,0,0-.09-.031h-.083a.308.308,0,0,1-.058,0c-.02,0-.031-.02-.051-.02h-.041a.192.192,0,0,1-.059,0c-.025,0-.025-.017-.049-.012l-.041.009-.069.023a.124.124,0,0,1-.046,0c-.008,0,.008.015-.019.017s-.034.011-.048,0-.019-.028-.036-.039a.1.1,0,0,0-.055-.015.324.324,0,0,1-.051,0,.354.354,0,0,1-.058-.008.181.181,0,0,0-.04-.007.366.366,0,0,0-.064-.008h-.046c-.008,0-.008-.008-.023,0s-.017.017-.04.017h-.023s-.023-.02,0-.025.023-.008.027-.023,0-.028-.008-.031a.454.454,0,0,0-.069-.011h-.046a.476.476,0,0,1-.107,0,.1.1,0,0,0-.065,0,.1.1,0,0,1-.053.013.17.17,0,0,0-.046,0c-.015,0-.028.031-.028.031a.381.381,0,0,1-.049,0c-.017,0-.053-.008-.053,0s-.008.013,0,.034,0,.023,0,.023h-.034s-.023-.015-.034-.012-.023.009-.02.02a.054.054,0,0,0,.012.034c.013.015.031.012.031.023v.015a.056.056,0,0,1-.025.037c-.011,0-.044.028-.059,0s-.021-.034-.011-.051.034,0,.011-.034-.013-.009-.023-.031,0-.04-.009-.04-.044-.023-.058-.008a.053.053,0,0,0-.017.031c0,.012-.016.034.011.046s.02.016.038.023.013-.008.019.007.025.025-.016.025a.278.278,0,0,1-.116-.017.134.134,0,0,0-.086-.013c-.02.008-.015.019-.059.022h-.079c-.011,0-.011,0-.031.017a.059.059,0,0,1-.061.012c-.012-.008,0-.02-.023-.023s0-.025-.017,0a.08.08,0,0,0,0,.046s.016.012,0,.02a.371.371,0,0,1-.048.015c-.013,0-.029-.012-.041,0s-.06.023-.06.016a.244.244,0,0,0-.025-.046s-.011-.025.016-.025h.067a.019.019,0,0,0,.017-.012.044.044,0,0,0-.035-.028.186.186,0,0,1-.049-.011.269.269,0,0,0-.062-.012.2.2,0,0,1-.072-.025c-.008-.008.015-.022-.039-.022a.907.907,0,0,0-.111.008s-.049.031-.077.046-.031-.007-.051.031-.016.044-.034.064-.023.028-.034.031a.532.532,0,0,0-.1.051c-.028.02-.02.025-.034.034s0,.035-.008.059-.037.032,0,.04a.2.2,0,0,0,.059.008c.015,0,.015-.011.023-.016s.019-.02.029-.023.02-.008.028,0,.008,0,.012.019,0,.023.013.027a.056.056,0,0,1,.023.022s-.02.02,0,.023.023.008.034,0h.011c.019-.008.011.02.019-.008a.089.089,0,0,0,0-.048c0-.008-.009,0,.011-.008a.042.042,0,0,0,.028-.037c0-.012.008-.019,0-.025l-.009-.008a.028.028,0,0,1,0-.04.046.046,0,0,1,.036-.028c.02,0,.028,0,.031-.019a.079.079,0,0,0,0-.028.051.051,0,0,1,.025-.009h.034c.005,0,.016,0,0,.02a.1.1,0,0,0-.011.015.2.2,0,0,0-.028.041.1.1,0,0,0,0,.025l.025.023a.051.051,0,0,0,.027.011h.031a.1.1,0,0,1,.044,0c.017,0,.02-.019.017,0s.039.007,0,.02a.194.194,0,0,1-.064.015h-.049a.057.057,0,0,0-.017.039v.031c0,.013.011.025,0,.032a.115.115,0,0,1-.041.019h-.044a.106.106,0,0,1-.035.016.059.059,0,0,1-.046,0c-.023-.011.013-.013-.023-.011a.187.187,0,0,0-.055.011h-.037a.062.062,0,0,0-.034.008.076.076,0,0,0-.028.027c0,.008-.016,0-.023.011s-.023.013-.027.02a.04.04,0,0,1-.02.028c-.019.013-.023,0-.039.022s-.017.023-.034.025-.02-.008-.028,0,.011,0-.008.009,0,.011-.017.011h-.034c-.008,0-.022-.011-.022,0s-.008-.011,0,.009,0,.027.022.034l.053.019a.855.855,0,0,1-.019.087c-.007.018-.007.032-.031.032h-.05a.1.1,0,0,0-.04-.008c-.023,0-.036-.009-.044,0s-.019,0-.023.025a.111.111,0,0,0,0,.04c0,.017.009,0,0,.028a.188.188,0,0,0-.015.046v.023c0,.009,0,.009.019.012a.193.193,0,0,1,.044.011.04.04,0,0,0,.019.011c.009,0,.012.011.029,0l.032-.011h.04c.016,0,.015,0,.025-.023a.163.163,0,0,1,.023-.044.386.386,0,0,1,.027-.032l.017-.019a.147.147,0,0,0,.031-.023c.007,0,0-.016.007-.027s0-.013.012-.019.017-.012.032-.012h.034a.116.116,0,0,0,.04,0l.034-.009a.041.041,0,0,1,.034.007.035.035,0,0,1,.009.019c0,.013.008.012.017.021a.283.283,0,0,0,.036.032c.013.011.023.007.025.016l.016.023c.008.012,0,.015.011.027s.012.02.022.017.015,0,.015-.015v-.013c0-.013.007-.008.012-.019s.016-.015.007-.023,0-.008-.023-.011a.056.056,0,0,1-.041-.02c-.016-.016-.02-.034-.036-.04s-.025-.008-.032-.017a.035.035,0,0,1-.007-.032c0-.008.016,0,.023-.009s.009-.017.028-.009.034,0,.04.017a.064.064,0,0,0,.034.027.243.243,0,0,1,.041.032c.017.015.027.016.028.036a.115.115,0,0,0,.013.043.1.1,0,0,0,.016.032c.008.012.013.016.015.025a.219.219,0,0,1,0,.029c0,.007.009,0,.021.008s.013-.007.016-.012a.039.039,0,0,0,.009-.029v-.028c0-.008-.011-.023.011-.031a.152.152,0,0,1,.051-.017c.016,0,.025.011.035,0a.069.069,0,0,0,.008-.036c0-.008-.015-.034,0-.043s.025-.009.036-.023,0-.028.015-.035l.031-.013h.031s.016.015.017.023,0,.02.013.02h.015c.015,0,.009-.02.009-.025h0a.042.042,0,0,0,.023-.008c.009-.008.017,0,.027-.012a.156.156,0,0,0,.016-.025s.012-.015.016,0a.115.115,0,0,1,0,.035v.019c0,.008-.016.015,0,.028a.086.086,0,0,0,.031.022.2.2,0,0,1,.036.019s.015.013.013.025.015.019.007.029-.008.007-.023.019-.013.015-.036.013-.034,0-.034-.011,0-.008-.008-.011-.007,0-.009,0a.02.02,0,0,0-.012,0h-.019l-.017-.008h-.017a.031.031,0,0,0-.017,0h-.022c-.005,0,0,0-.011.008h-.064l-.011.015a.011.011,0,0,1-.009,0h-.049a.068.068,0,0,0,0,.029c0,.009.008.016.007.023a.079.079,0,0,0,0,.017c0,.005.013,0,.015.011a.036.036,0,0,1,0,.013h.017a.035.035,0,0,1,.016,0h.008a.023.023,0,0,0,.013.007h.017a.011.011,0,0,1,.007-.009h0a.027.027,0,0,1,.023,0l.032.017a.028.028,0,0,0,.025,0,.025.025,0,0,0,.009-.013s0-.011.009-.009a.054.054,0,0,1,.029.012c0,.009.011,0,.009.017s-.009.021,0,.031.016,0,.016.017-.011.008-.012.02-.008.013,0,.023,0,.009.011.019l.028.016c.016.012.019.016.019.02s.007.012,0,.023-.011.012-.025.013a.133.133,0,0,1-.053-.012c-.012,0-.012-.012-.025-.012h-.025a.153.153,0,0,1-.034,0h-.041a.619.619,0,0,1-.068-.009l-.064-.013a.107.107,0,0,1-.027-.011c-.022-.009-.029-.019-.041-.016a.1.1,0,0,1-.029,0,.025.025,0,0,0-.007.023c0,.016.027,0,0,.019s-.023.017-.046.013,0-.009-.039-.02l-.048-.016a.1.1,0,0,0-.013-.027c0-.007,0-.012-.023-.012h-.041c-.013,0-.044.016-.055-.017s-.02-.028-.012-.046a.089.089,0,0,0,.007-.041c0-.017.041-.009,0-.017s-.046-.013-.064,0-.053,0-.087.011a.443.443,0,0,0-.072.02c-.013,0,0,.009-.036.009s-.037,0-.046.013-.023.007-.041.008-.027.007-.036,0-.008-.022-.02-.022-.016-.008-.028,0a.048.048,0,0,0-.015.028v.016c0,.016-.02.019-.029.031s-.017,0-.023.019-.017.021-.015.046a.063.063,0,0,1-.016.051c-.013.02-.029.013-.044.031a1.444,1.444,0,0,1-.086.145.069.069,0,0,0-.032.058.571.571,0,0,0-.007.079.341.341,0,0,1-.015.091c-.009.021-.023.051-.012.062a.066.066,0,0,1,.013.039.036.036,0,0,0,.019.032c.017.012.017.019.028.035s0,.012.013.025,0,.017.016.027.035-.012.035.016-.009.025,0,.04.017.011.031.02a.1.1,0,0,1,.031.023c.008.011,0,.008.027.023s.027.015.04.015h.036c.013,0,.025-.009.032-.009h.031s.039-.013.044,0,.013.011.025.011h.023c.01,0,.011,0,.016-.016s.011-.012.02-.012a.052.052,0,0,0,.035-.012.079.079,0,0,1,.036,0s.015,0,.02.007a.136.136,0,0,0,.013.019.3.3,0,0,0,.015.029c0,.008.013.011.035.012a.2.2,0,0,1,.039.007c.039.007.052.017.053.022a.115.115,0,0,1,0,.021c0,.008-.012.019-.011.04a.223.223,0,0,1,0,.044c0,.019-.009.009-.009.028s-.023,0,0,.035.023.051.029.056l.019.016c.019.013.009-.008.021.027a.114.114,0,0,1,.007.059.058.058,0,0,0,.013.041c.013.022.02.019.017.037a.118.118,0,0,0,0,.031c0,.016.017-.011.015.025a.6.6,0,0,1-.029.1c0,.017-.013.016-.017.039a.3.3,0,0,0-.011.044c0,.025-.009.037,0,.049a.1.1,0,0,1,.027.048c.009.031.012.048.028.06s.02,0,.023.02-.009.044,0,.068a.285.285,0,0,0,.017.059.371.371,0,0,0,.019.039q.01.024.023.046l.023.037a.072.072,0,0,1,.012.035v.029c0,.009-.013.008-.009.023s0,0,.013.017a.039.039,0,0,0,.032.016c.013,0,.02.009.034,0s.017-.017.029-.017h.044a.145.145,0,0,0,.062,0c.019-.011.034-.013.043-.028s.012-.025.019-.025a.091.091,0,0,0,.041-.028c.011-.012.011-.032.027-.043a.081.081,0,0,0,.031-.034.071.071,0,0,0,0-.039c0-.008-.009-.009,0-.02a.6.6,0,0,1,.04-.051s.007,0,.022-.012.023-.016.027-.029a.174.174,0,0,0,0-.037.225.225,0,0,0,0-.036.032.032,0,0,1,0-.032c.008-.019,0-.028.011-.035s.023-.037.035-.052.025-.012.039-.025.019-.031.028-.035.022,0,.025-.023a.269.269,0,0,0,.008-.075.172.172,0,0,0,0-.055c-.007-.019-.017-.023-.02-.035a.1.1,0,0,1-.013-.052.61.61,0,0,1,.008-.067.071.071,0,0,1,0-.023c0-.017,0-.032.011-.039a1.043,1.043,0,0,0,.056-.1.15.15,0,0,1,.051-.06.426.426,0,0,0,.08-.065.3.3,0,0,0,.036-.043.243.243,0,0,1,.031-.062.092.092,0,0,0,.032-.041c.008-.019.017-.017.017-.046s-.008-.031,0-.044a.055.055,0,0,0,.007-.034.022.022,0,0,0-.022,0c-.015,0,0,0-.022.012s-.013.011-.023.011H351.9l-.025.017H351.8a.032.032,0,0,1-.017-.022c0-.009.008-.016-.011-.025s-.032-.009-.032-.02a.1.1,0,0,0,0-.036c0-.009.007-.013-.015-.023a.093.093,0,0,1-.039-.021l-.009-.011a.055.055,0,0,0-.011-.046c-.017-.025-.036-.027-.04-.037a.083.083,0,0,1,0-.049v-.065c0-.012-.028-.022-.028-.028s-.008-.012,0-.022.011-.007.015-.023a.043.043,0,0,0,0-.025s.007-.013.019,0a.2.2,0,0,1,.032.039c.005.012,0,.012.008.031s.019.019.02.039.011.023.017.037.023.023.034.036a.351.351,0,0,1,.023.044c0,.012.022.011.025.023a.093.093,0,0,1,0,.028v.053a.056.056,0,0,0,.008.028c0,.009.016.015.017.023s-.009.017.012.017h.036c.009,0,0-.015.028-.016a.141.141,0,0,0,.062-.025.076.076,0,0,0,.037-.012c.019-.012.015-.016.025-.025s0-.023.017-.028a.169.169,0,0,1,.043-.019.134.134,0,0,0,.049-.028s.027,0,.035-.016a.048.048,0,0,0,.008-.031c0-.011-.015-.027,0-.035s.02-.009.025-.019.016-.013,0-.029a.221.221,0,0,0-.028-.031l-.011-.008c-.013-.011,0-.011-.032-.025s-.035-.017-.053-.008a.2.2,0,0,1-.051.013s-.016.009-.023,0-.015-.012-.015-.023a.034.034,0,0,0-.016-.034.147.147,0,0,1-.04-.041c-.011-.015-.032-.023-.032-.04a.058.058,0,0,1,0-.029s0-.022.008-.023.041-.009.048.009a.3.3,0,0,1,.017.037.063.063,0,0,0,.025.035.175.175,0,0,0,.025.019l.023.015a.064.064,0,0,0,.04.009h.011s-.009-.032.017-.023a.107.107,0,0,1,.048.025c0,.006,0,0,.011.013s0,0,.023.011.036,0,.041.008a.185.185,0,0,0,.056,0,.133.133,0,0,0,.051-.009c.009,0,.023-.02.035,0a.212.212,0,0,1,.017.025.056.056,0,0,0,.023.031.1.1,0,0,1,.027.025.061.061,0,0,1,.011.019.035.035,0,0,0,.028.021h.048s-.011-.034.016,0,.023.016.028.035.013.037.015.048a.134.134,0,0,1,.009.031c0,.008.008.02,0,.035s.017.046.023.067a.1.1,0,0,0,.027.058c.017.015.016.008.015.025s.012.023.013.036-.007.034.007.043l.013.008c.013.008.013.028.025.02a.056.056,0,0,0,.022-.021c.005-.009,0-.008.012-.016s.031-.009.032-.032a.4.4,0,0,0,0-.048v-.046c0-.013-.011-.027,0-.041a.141.141,0,0,1,.034-.037.556.556,0,0,0,.056-.056c.019-.017.016-.007.031-.036s.034-.031.04-.041,0-.02.007-.028a.085.085,0,0,1,.029-.017c.007,0,0-.019.017-.012s.015.012.031.013h.025c.011,0,.037,0,.039.02s.009.016.015.031a.12.12,0,0,0,.015.029.124.124,0,0,1,.021.031.189.189,0,0,1,.011.035.07.07,0,0,0,.013.032.066.066,0,0,0,.034.013c.009,0,.011,0,.012-.008s-.008-.029.008-.025.032.007.035.019l.008.025s.015.063.015.072a.346.346,0,0,0,.007.074.186.186,0,0,1,0,.034.111.111,0,0,0,0,.029v.016h.011a.065.065,0,0,0,.016.022.023.023,0,0,1,.012.013c0,.009,0,.012.007.017a.111.111,0,0,1,.022.041q0,.014,0,.028a.055.055,0,0,0,.013.032.163.163,0,0,0,.022.021l.025.016a.056.056,0,0,0,.019.011h.009c.009,0,.012.007.012,0v-.016c0-.005-.015-.012-.016-.019s-.016-.009-.011-.022a.112.112,0,0,0,0-.056.072.072,0,0,0-.02-.029l-.023-.017s-.011-.012-.016-.013a.035.035,0,0,1-.013-.009c-.008-.007-.02-.013-.02-.023a.132.132,0,0,0,0-.023v-.012s-.011.007-.016,0a.061.061,0,0,1,0-.023v-.023a.049.049,0,0,0,.011-.02v-.016A.309.309,0,0,0,353.27,213.481Z" transform="translate(-322.492 -207.281)" fill="#6bb2e3"/>
          <path id="Path_30112" data-name="Path 30112" d="M352.724,215.217c-.007,0-.016,0-.016.008v.023s.007,0,.008.011.009.008,0,.013-.017,0-.019.008a.066.066,0,0,0,0,.013h.046c.009,0,.012-.008.025-.008h.029c.008,0,.012,0,.017-.008s0-.016,0-.023.016-.012.017-.016.015-.011,0-.023-.02-.009-.023-.016a.029.029,0,0,1-.011-.022.023.023,0,0,0-.011-.021c-.008-.007-.011,0-.022-.013s-.02-.008-.016-.016a.039.039,0,0,1,.009-.015c0-.007.023-.017.008-.025s0-.009-.015-.009h-.029v-.019h-.041a.028.028,0,0,0,0,.019c0,.009-.012.028-.012.034v.015c0,.015.007.015.022.022s.008,0,.016,0,.013.02.023.023,0,0,.009,0a.025.025,0,0,1,0,.023h-.009Z" transform="translate(-324.674 -210.26)" fill="#6bb2e3"/>
          <path id="Path_30113" data-name="Path 30113" d="M362.256,231.544c0-.007-.015,0-.012-.017a.065.065,0,0,0-.007-.029s-.009-.008-.016,0a.091.091,0,0,0-.013.025c0,.008,0,.022-.011.025a.082.082,0,0,0-.022.021.143.143,0,0,1-.023.022.055.055,0,0,1-.023.02c-.013,0-.011,0-.028.013s-.017.058-.017.074a.2.2,0,0,0,0,.04.037.037,0,0,1,0,.025.145.145,0,0,0-.015.027.064.064,0,0,0,0,.025v.036a.044.044,0,0,0,.008.031l.023.023c.011.012.015.013.027.011a.038.038,0,0,0,.028-.017.07.07,0,0,0,.013-.032.1.1,0,0,1,.013-.035.212.212,0,0,0,.015-.048c0-.019,0-.043.012-.052a.123.123,0,0,0,.025-.037.212.212,0,0,0,.012-.039.3.3,0,0,0,0-.046l.009-.013s.012-.012.012-.019v-.015Z" transform="translate(-332.814 -224.496)" fill="#6bb2e3"/>
          <path id="Path_30114" data-name="Path 30114" d="M378.507,219.3a.136.136,0,0,1-.011-.025s-.007,0-.007-.017v-.021s.007,0,.012-.013a.026.026,0,0,0,0-.022.093.093,0,0,1,.022-.009h.035a.051.051,0,0,0,.029,0l.016-.011s0-.019.007-.022.019,0,.023-.008.013-.009.017-.017a.064.064,0,0,0,0-.023.17.17,0,0,0,0-.023s-.015-.011-.015-.022v-.02c0-.007,0-.017.008-.017s0-.017.015,0a.193.193,0,0,0,.029.032v.054a.052.052,0,0,0,.008.021s.007,0,.008.011a.116.116,0,0,1,0,.023v.019c0,.008-.009.009-.017.013a.019.019,0,0,0-.009.015.016.016,0,0,1-.013.009h-.022c-.007,0-.011-.011-.019,0a.117.117,0,0,1-.012.02.031.031,0,0,1-.021,0,.065.065,0,0,1-.011-.012.011.011,0,0,0-.01,0c-.008,0-.013-.012-.023,0s-.015.008-.008.015.012,0,.013.011-.011.013-.011.013-.007-.007-.012,0,0,.013,0,.023.007.017,0,.023a.033.033,0,0,1-.015.008Z" transform="translate(-347.04 -213.69)" fill="#6bb2e3"/>
          <path id="Path_30115" data-name="Path 30115" d="M377.418,224.21a.026.026,0,0,1,.008-.022.019.019,0,0,0,.008-.02.08.08,0,0,1-.008-.019.083.083,0,0,1,0-.021l-.027-.012s-.008-.015-.013,0a.051.051,0,0,0-.008.031c0,.015.008.028,0,.036s-.015,0-.012.017,0,.02.012.027.019.007.017.015a.075.075,0,0,0,0,.017v.023c0,.008.009.009.016.012s.012.009.013,0a.115.115,0,0,0,0-.022v-.035a.106.106,0,0,0-.006-.028Z" transform="translate(-346.065 -218.1)" fill="#6bb2e3"/>
          <path id="Path_30116" data-name="Path 30116" d="M372.632,227.127l-.017-.013s0-.009-.008,0,0,.009,0,.019,0,.009.007.021a.175.175,0,0,0,.034.032.034.034,0,0,1,.027.019.062.062,0,0,0,.016.023.1.1,0,0,0,.016.017c.007.008.023.046.031.058s.015.013.017.027a.22.22,0,0,0,.011.028.031.031,0,0,0,.017.032c.017.009.019.009.022.015l.037.043.012.013a.023.023,0,0,0,.023,0s0,.017.011-.008.011-.028.011-.035V227.4a.129.129,0,0,0,0-.034v-.013h-.019s-.009,0-.011-.013,0-.016-.007-.022,0,0-.015-.007-.017,0-.013-.011.012-.012,0-.023,0-.017-.012-.022a.044.044,0,0,1-.022-.009.306.306,0,0,0-.029-.029c-.011-.007-.032-.012-.036-.019a.07.07,0,0,0-.017-.016c-.007,0-.012,0-.017-.015s-.012-.016-.012-.02v-.012h-.032Z" transform="translate(-341.941 -220.698)" fill="#6bb2e3"/>
          <path id="Path_30117" data-name="Path 30117" d="M375.685,227.041h0v-.007h.005l-.016-.007-.011-.008-.007-.012a.028.028,0,0,0-.007-.008s0-.009-.007-.009h-.009a.032.032,0,0,0-.007.013.025.025,0,0,1-.008.019c-.008.005-.009,0-.013.012s-.009,0-.011.011,0,.008-.007.015-.011.008-.013.008-.007-.008-.011,0l-.017.032s-.007.013-.012.015h-.029s-.008,0-.008.007a.075.075,0,0,1,0,.017.1.1,0,0,1-.011.016h-.016s-.008-.008-.013-.008-.012-.008-.015,0a.073.073,0,0,0-.011.028.062.062,0,0,1,0,.016c0,.011-.007.022,0,.029a.05.05,0,0,0,.011.015s.011.008.012.013a.138.138,0,0,0,.009.021c.009.022.011.023.017.025a.073.073,0,0,0,.023,0,.012.012,0,0,0,.009.011c.009,0,0,0,.016,0h.027a.017.017,0,0,0,.012,0h.012v.016a.012.012,0,0,0,.012,0,.022.022,0,0,0,.013-.009l.011-.007a.013.013,0,0,0,.009-.009.072.072,0,0,0,0-.016v-.009a.079.079,0,0,1,.011-.027.047.047,0,0,0,.013-.015.02.02,0,0,0,0-.012.062.062,0,0,1,0-.016v-.016c0-.005,0-.013.007-.013l.012.007.013-.008s.012,0,0-.009a.042.042,0,0,1-.016-.012v-.011c0-.011.008-.007,0-.013a.048.048,0,0,1-.012-.011s-.011-.008-.012-.012a.046.046,0,0,1,0-.013h.008v-.007l.009-.007h.017Z" transform="translate(-344.388 -220.595)" fill="#6bb2e3"/>
          <path id="Path_30118" data-name="Path 30118" d="M378.1,226.309c.013,0,0-.02,0-.02s-.008,0,0-.011.008-.02.011-.013a.021.021,0,0,1,0,.013h.012c.005,0,.012-.012,0-.02s-.011-.008-.011-.015v-.023a.161.161,0,0,0,0-.021c0-.008,0-.017-.009-.015s-.016,0-.019.013a.035.035,0,0,0,0,.019h-.023a.008.008,0,0,1,0,.007.033.033,0,0,1-.016,0h-.011s0,.011-.015.011H378a.1.1,0,0,0,0,.02h0c.008,0,.013-.009.019-.009h.021a.023.023,0,0,1,.008.015v.017l.015.008h.009Z" transform="translate(-346.615 -219.897)" fill="#6bb2e3"/>
          <path id="Path_30119" data-name="Path 30119" d="M377.661,228.027a.032.032,0,0,0,.011-.012c0-.007,0-.007.007-.012a.026.026,0,0,0,.007-.012v-.016a.091.091,0,0,1-.017.016l-.019.009h-.067c-.008,0-.012,0-.015.009a.02.02,0,0,1-.013.012h-.011a.2.2,0,0,0,0,.032v.011c0,.011-.013,0-.016.023a.263.263,0,0,0,0,.048.012.012,0,0,1,.012.012.156.156,0,0,1,0,.023.09.09,0,0,1,0,.022v.009c0,.009.009.011.017.009s0-.012.008-.021a.052.052,0,0,0,0-.023v-.039s0-.007.007,0,0,.015.008.021a.019.019,0,0,0,.008.011s.011,0,.011.009-.009.016,0,.019.009,0,.016,0,.011-.008.012-.011.007,0,0-.009.007,0,0-.011-.007,0-.008-.009a.046.046,0,0,0-.008-.028c-.008-.009-.007,0-.008-.009a.016.016,0,0,1,0-.017h.011a.011.011,0,0,1,.011-.011c.011,0,.009.007.011,0s.009-.011,0-.012h-.019c-.013,0-.008-.007-.02,0l-.02.013h-.019l-.008-.013a.082.082,0,0,1,0-.023.016.016,0,0,0,.016,0,.019.019,0,0,1,.012,0h.053a.025.025,0,0,0,.015.007Z" transform="translate(-346.204 -221.449)" fill="#6bb2e3"/>
          <path id="Path_30120" data-name="Path 30120" d="M374.961,230.006a.06.06,0,0,0,0-.023h-.027a.014.014,0,0,0-.009-.012c-.009,0-.011,0-.015-.008a.066.066,0,0,0-.017-.009c-.011,0-.015-.012-.023,0s-.011.009-.015.011h-.029c-.008,0,0,0-.016-.009s-.012-.011-.023-.011a.036.036,0,0,0-.015,0h-.025s-.02.007-.02.009,0,.009.015.011.016,0,.017.007,0,0,0,.008-.011,0,.017,0a.07.07,0,0,1,.036.009s0-.011.019,0,.012.008.022.011h.1Z" transform="translate(-343.78 -223.154)" fill="#6bb2e3"/>
          <path id="Path_30121" data-name="Path 30121" d="M380.689,229.246a.074.074,0,0,1-.014-.019.042.042,0,0,1,0-.013h-.02c-.008,0,.011,0-.007-.011s-.016,0-.017,0a.089.089,0,0,1,0-.017c0-.006.007-.009,0-.016l-.012-.007v-.022h.011v-.012a.013.013,0,0,0-.007-.013H380.6c-.008,0-.012-.011-.013-.013a.046.046,0,0,1,0-.013.019.019,0,0,0-.007-.009c-.007,0-.017-.017-.028-.02l-.021-.011-.025-.011-.028-.012c-.009,0-.015-.011-.034-.012a.087.087,0,0,1-.037-.008.1.1,0,0,0-.023-.012h-.028c-.005,0,0,.013-.007.016s-.011,0-.016,0,0,0-.007.012,0,.013-.013.015H380.3s0-.013-.009-.016,0,0-.012,0h-.056v.016s.011.007.012.011,0,.009.007.009h.009c.009,0,0-.012.011-.009a.051.051,0,0,1,.019.008s0,.007.012.008h.015a.032.032,0,0,0,.02.011.059.059,0,0,1,.023.008.032.032,0,0,0,.013.013h0v.023a.03.03,0,0,0,.007.011s.008.008.007.015,0,.009-.008.011,0,0-.013,0-.012.008-.013.011-.015,0-.007.009a.041.041,0,0,0,.025.008.056.056,0,0,0,.023,0h.013c.013,0,.011,0,.015.007a.072.072,0,0,0,.008.013.051.051,0,0,0,.017.012h.039l.009-.008h0s.015,0,.019-.009a.013.013,0,0,0,0-.013.008.008,0,0,1,.008-.009h.017l.011.008c.011.008.013,0,.019.007s.013.011.013.017a.02.02,0,0,0,.009.019l.019.013a.011.011,0,0,0,0,.009h.031c.009,0,.012,0,.015.009l.017.008h.007a.2.2,0,0,0,.02-.022Z" transform="translate(-348.535 -222.331)" fill="#6bb2e3"/>
          <path id="Path_30122" data-name="Path 30122" d="M380.015,228.662a.031.031,0,0,0,0,.008h.044v-.007h.007v-.007h0a.032.032,0,0,0,0-.007v-.007h0v-.008H380v.009h0v.008h0Z" transform="translate(-348.348 -222.019)" fill="#6bb2e3"/>
          <path id="Path_30123" data-name="Path 30123" d="M376.669,230.937a.074.074,0,0,1,0-.02s0-.008-.009,0,0,0,0,.008,0,.009-.008.017a.07.07,0,0,0-.015.017.063.063,0,0,0,0,.023.131.131,0,0,0,0,.027c0,.013-.008.027-.008.04a.065.065,0,0,1-.007.034l-.019.029c0,.008,0,.011-.015.009s-.021,0-.023-.008,0-.013-.015-.02-.015,0-.023-.008l-.016-.016a.066.066,0,0,0-.017-.013s-.029-.011-.023-.02a.213.213,0,0,1,.016-.019.061.061,0,0,0,.007-.022.007.007,0,0,1,0-.007c.007,0,.015,0,.016-.007a.129.129,0,0,0,.007-.022s.013-.008-.007-.008h-.056c-.007,0-.017-.009-.023-.009h-.015s0-.011-.008-.011-.015-.011-.017,0a.068.068,0,0,0,0,.023c0,.008-.009.011-.013.011h-.028a.056.056,0,0,0-.013.016l-.011.013c-.011.013-.015,0-.019.007a.02.02,0,0,0,0,.016h0v.019a.061.061,0,0,0-.023-.009c-.005,0,0,.019-.009,0s-.016-.025-.023-.023a.036.036,0,0,0-.02,0h0a.021.021,0,0,0-.017.012c-.007.012-.012.007-.013.011h0l-.019.025c0,.007,0,.013-.011.016h-.012a.042.042,0,0,0,0,.017v.011h-.009c-.009,0-.008,0-.008-.008h0s0-.008-.009,0l-.012.009v.009a.029.029,0,0,0,0,.017.111.111,0,0,0-.015.023c0,.011-.008.011-.016.02a.1.1,0,0,1-.028.013.115.115,0,0,1-.032.007h-.011l-.012.008a.06.06,0,0,1-.021,0l-.015.007s-.028,0-.031.008-.007,0-.016.011a.05.05,0,0,1-.016.012h0a.042.042,0,0,1-.009.011h-.008c-.009,0,0,0-.007.011a.039.039,0,0,0,0,.013.021.021,0,0,1,0,.011.09.09,0,0,0-.012.031.076.076,0,0,0,0,.023.033.033,0,0,1,0,.013v.013c0,.005,0,0-.011,0a.012.012,0,0,0,0,.008.016.016,0,0,0,0,.008v.1s-.007.02,0,.027a.21.21,0,0,1,0,.027v.025c0,.012-.008,0-.009.011a.039.039,0,0,0,0,.013.013.013,0,0,1-.011.007h-.013v.019a.021.021,0,0,0,0,.012h.013c.005,0,0,0,.011.008a.079.079,0,0,0,.023,0,.047.047,0,0,0,.017,0l.022-.008h.011a.025.025,0,0,0,.015-.012v0h.1c.009,0,.019,0,.023-.007a.079.079,0,0,1,.011-.019.023.023,0,0,1,.013-.007h.017l.015-.008h.058a.046.046,0,0,1,.023-.009h.058a.063.063,0,0,1,.023,0,.014.014,0,0,1,.011,0,.019.019,0,0,1,.013.009l.031.012v.008h0v.046c0,.011-.008,0,0,0s0,.008.007.011,0,.008.013,0a.059.059,0,0,0,.016-.015l.013-.012c.007,0,0-.008.011-.009s0,0,.007-.009.015,0,.017,0,0-.009,0,0,.009,0,0,.012,0,.008-.009.009H376.4l-.013.022a.016.016,0,0,0-.013.008c0,.008,0,0,0,.008s-.013,0,0,0h.022s0-.015.011-.015h.011v.009l-.009.008s-.01,0-.01.008-.007.008,0,.008h.022v.016a.009.009,0,0,1,0,.013c-.007,0-.009.009,0,.019s0,.009.008.013.025,0,.027.008,0,.007,0,.007h.016a.008.008,0,0,0,.008.008h.013a.016.016,0,0,0,.011,0h0a.01.01,0,0,1,.009-.009h.015v.007h0v.007h.046a.037.037,0,0,0,.007-.012h.065l.009-.011a.221.221,0,0,0,.023-.031.019.019,0,0,1,.012-.02l.017-.019a.475.475,0,0,1,.032-.039c.009,0,.012-.017.023-.023a.072.072,0,0,0,.02-.013.02.02,0,0,1,.012-.016c.012-.007.008-.012.013-.016s.015-.013.015-.016a.047.047,0,0,0,.009-.016.046.046,0,0,1,0-.015.154.154,0,0,1,.012-.019s.017-.015.017-.027-.011-.017,0-.031a.145.145,0,0,0,.013-.041.117.117,0,0,0,0-.031.019.019,0,0,0,0-.017c-.007,0,0-.011-.013-.019l-.016-.016s-.012-.015-.012-.021v-.017a.011.011,0,0,1-.011-.009.05.05,0,0,1,0-.013.065.065,0,0,1,0-.02v-.016H376.8l-.016-.017-.013-.013a.025.025,0,0,1-.009-.019.193.193,0,0,1-.008-.046V231.1a.145.145,0,0,1,0-.027.044.044,0,0,0,0-.019l-.009-.015a.015.015,0,0,0-.01,0h-.021v-.009a.093.093,0,0,1,0-.016.2.2,0,0,0,0-.025.055.055,0,0,0,0-.011v-.011a.03.03,0,0,0,0-.007Z" transform="translate(-344.731 -223.994)" fill="#6bb2e3"/>
          <path id="Path_30124" data-name="Path 30124" d="M380.377,237.788h-.023s-.008-.008-.012,0-.008.012-.008.019v.029c0,.009-.011.016,0,.023s.008.009.016.009a.026.026,0,0,0,.023-.009h.017a.019.019,0,0,0,.015-.013.013.013,0,0,1,.007-.009.1.1,0,0,1,.017-.02c.005,0,.011,0,.011-.011v-.012h-.013l-.031.007Z" transform="translate(-348.632 -229.945)" fill="#6bb2e3"/>
          <path id="Path_30125" data-name="Path 30125" d="M383.68,237.823s.007.012.015.013h.023s.011.016.031,0l.049-.031.028-.023c.013-.011.019-.016.028-.017s.009.007.017,0,.009-.015.017-.019.015-.012.023-.016.017,0,.022-.011a.112.112,0,0,1,.012-.025.048.048,0,0,0,0-.013v-.017c0-.007,0-.008-.009,0a.206.206,0,0,0-.06.04c0,.011-.013.013-.027.023s-.012.019-.028.022a.051.051,0,0,0-.029.009c-.016.009.025-.016-.027.008s-.051.023-.053.028.008,0,0,0S383.68,237.823,383.68,237.823Z" transform="translate(-351.535 -229.836)" fill="#6bb2e3"/>
          <path id="Path_30126" data-name="Path 30126" d="M385.94,236.713a.032.032,0,0,1,.011-.017.042.042,0,0,0,.012-.015.019.019,0,0,0,0-.022.034.034,0,0,1,.009-.029c.009-.011.016-.007.025-.016s.013-.009.013-.02a.242.242,0,0,1,0-.029s0-.031.012-.028.022.008.022.015v.031c0,.007-.008.012,0,.016s0,.008.013.007h.029v.02l-.016.013h-.035c-.005,0,0,0-.009.008a.063.063,0,0,0-.008.016s.007,0-.007.008l-.023.016-.012.009-.016.012h-.011S385.94,236.719,385.94,236.713Z" transform="translate(-353.493 -228.865)" fill="#6bb2e3"/>
          <path id="Path_30127" data-name="Path 30127" d="M365.849,238.538a.041.041,0,0,1-.043-.041v-.288a.043.043,0,1,1,.084,0v.288a.041.041,0,0,1-.041.041Z" transform="translate(-336.052 -230.27)" fill="#244486"/>
          <path id="Path_30128" data-name="Path 30128" d="M362.793,239.834a.04.04,0,0,1-.034-.016l-.145-.19a.043.043,0,0,1,.068-.052l.143.191a.041.041,0,0,1-.008.059.036.036,0,0,1-.025.008Z" transform="translate(-333.282 -231.483)" fill="#244486"/>
          <path id="Path_30129" data-name="Path 30129" d="M368.2,239.864a.047.047,0,0,1-.023,0,.043.043,0,0,1-.013-.058l.114-.191a.043.043,0,1,1,.074.044l-.116.19a.041.041,0,0,1-.036.015Z" transform="translate(-338.086 -231.513)" fill="#244486"/>
          <path id="Path_30130" data-name="Path 30130" d="M370.231,242.113a.042.042,0,0,1-.022-.079l.2-.107a.042.042,0,1,1,.04.074l-.194.108a.036.036,0,0,1-.02,0Z" transform="translate(-339.848 -233.529)" fill="#244486"/>
          <path id="Path_30131" data-name="Path 30131" d="M360.208,242.135a.036.036,0,0,1-.02,0l-.2-.108a.043.043,0,0,1-.016-.058.041.041,0,0,1,.058-.016l.2.107a.043.043,0,0,1,.016.058.041.041,0,0,1-.038.017Z" transform="translate(-330.998 -233.551)" fill="#244486"/>
          <path id="Path_30132" data-name="Path 30132" d="M364.8,252.6h-.494v.134h.155a.092.092,0,0,0,.093.088.091.091,0,0,0,.091-.088h.155Z" transform="translate(-334.757 -242.779)" fill="#244486"/>
          <path id="Path_30133" data-name="Path 30133" d="M363.144,242.085a.562.562,0,0,0-1.034,0c-.122.334.246.669.268.776a1.028,1.028,0,0,1,0,.229h.5a1.026,1.026,0,0,1,0-.229C362.9,242.749,363.265,242.42,363.144,242.085Zm-.875.372a.05.05,0,1,0-.036-.015.05.05,0,0,0,.036.015Zm.093-.373c-.061.091-.059.182-.112.164s-.032-.134.029-.222.158-.157.2-.107-.051.074-.114.164Z" transform="translate(-332.83 -233.375)" fill="#244486"/>
          <rect id="Rectangle_1052" data-name="Rectangle 1052" width="3.626" height="0.116" transform="translate(25.062 8.796)" fill="#d1d3d4"/>
          <rect id="Rectangle_1053" data-name="Rectangle 1053" width="3.626" height="0.116" transform="translate(25.062 9.226)" fill="#d1d3d4"/>
          <rect id="Rectangle_1054" data-name="Rectangle 1054" width="2.534" height="0.116" transform="translate(25.062 9.654)" fill="#d1d3d4"/>
          <path id="Path_30134" data-name="Path 30134" d="M402.817,353.376s.1.409-.714.652c-.26.077-.4.488-.213.535a3.892,3.892,0,0,0,1.279-.011l.147-.092s-.02.114.031.118.322-.032.322-.032a4.9,4.9,0,0,1-.015-.591.32.32,0,0,0-.075-.235l-.043-.3S402.841,353.3,402.817,353.376Z" transform="translate(-367.234 -330.052)"/>
          <path id="Path_30135" data-name="Path 30135" d="M426.385,353.873s.134.093-.118.482c-.308.476-.14.7.048.756a3.43,3.43,0,0,0,.827.012c.235-.023.251-.183.251-.183a1.15,1.15,0,0,0-.044-.395c-.034-.123-.116-.326-.116-.326l-.04-.4a3.451,3.451,0,0,0-.808.054Z" transform="translate(-388.277 -330.454)"/>
          <path id="Path_30136" data-name="Path 30136" d="M411.49,283.4c-.017,0,.114,4.9.134,5.218s.179,4.281.179,4.281a3.492,3.492,0,0,1-1-.008s-.478-4.158-.5-4.415-.257-3.111-.257-3.111-.423,2.868-.436,3.048-.349,4.62-.349,4.62-.9-.046-1.041-.084c0,0,.2-4.3.14-4.633s.451-4.958.451-4.958Z" transform="translate(-372.791 -269.424)" fill="#c2c2c2"/>
          <g id="Group_8811" data-name="Group 8811" transform="translate(36.078 13.938)" opacity="0.3">
            <path id="Path_30137" data-name="Path 30137" d="M415.7,283.411l-2.621-.041a.512.512,0,0,0,.116.173,2.331,2.331,0,0,0,.937.458,4.232,4.232,0,0,1,1.1.051c.359.1.512,1.457.512,1.533h0C415.715,284.441,415.693,283.413,415.7,283.411Z" transform="translate(-413.08 -283.37)" fill="#211f4a"/>
            <path id="Path_30138" data-name="Path 30138" d="M418.9,297.07h-.491l.2.134s-.051.333-.134.819-.162,2.716-.162,2.716h0l.034-.436c.013-.179.436-3.048.436-3.048s.23,2.855.257,3.111c.012.122.126,1.122.242,2.14h0l-.14-4.994S419.184,297.07,418.9,297.07Z" transform="translate(-417.619 -295.237)" fill="#211f4a"/>
          </g>
          <rect id="Rectangle_1055" data-name="Rectangle 1055" width="2.186" height="3.029" transform="translate(37.87 17.807) rotate(-81.5)" fill="#fff"/>
          <path id="Path_30139" data-name="Path 30139" d="M432.7,298.9l.322-2.162-2.819-.421h0a3.889,3.889,0,0,0,.871.64c.242.056,1.126-.214,1.583.157s-.111,1.763-.111,1.763Z" transform="translate(-391.832 -280.65)" fill="#d1d3d4" opacity="0.3"/>
          <path id="Path_30140" data-name="Path 30140" d="M436.327,292.57a.6.6,0,0,1-.071.237,1.748,1.748,0,0,0-.225.379c-.031.116-.08.379-.011.421s.1-.007.123.017.1.134.16.143a.7.7,0,0,0,.169,0,1.2,1.2,0,0,1,.286,0,.282.282,0,0,0,.185-.017.379.379,0,0,0,.079-.367,1.278,1.278,0,0,1-.053-.529c.015-.242-.028-.242-.028-.242Z" transform="translate(-396.843 -277.402)" fill="#fdcba3"/>
          <path id="Path_30141" data-name="Path 30141" d="M372.108,253.442a3.618,3.618,0,0,1-.815-.091c-.146-.077-.1-.183-.078-.294a.425.425,0,0,0,.019-.221c-.02-.071.065-.235.065-.235s-.5-.1-.633-.114-.15-.231.065-.218.72.091.72.091a1.639,1.639,0,0,1-.1-.176c-.013-.039.032-.116.17-.007a1.575,1.575,0,0,0,.4.313,1.226,1.226,0,0,1,.535.416l.419.142-.076.535Z" transform="translate(-340.178 -242.364)" fill="#efc9a2"/>
          <path id="Path_30142" data-name="Path 30142" d="M390.53,239.05s1.12.4,1.2.625.867,3.4.867,3.4l-.058,3.057-.824-.074a20.068,20.068,0,0,0-.059-2.733c-.132-.47-.631-1.882-.631-1.882s-.059,1.191-.029,1.618.176,1.85.176,1.85-2.335.433-3.085-.155c0,0,.143-2.519.134-3L388.2,241s-.578,1.4-.961,1.425a15.164,15.164,0,0,1-2.616-.4c.029-.062.1-.756.1-.756a17.683,17.683,0,0,0,2.128.3,24.1,24.1,0,0,0,1.294-2.249c.09-.044,1.216-.522,1.216-.522Z" transform="translate(-352.355 -230.816)" fill="#49499b"/>
          <path id="Path_30143" data-name="Path 30143" d="M401.344,254.078a6.8,6.8,0,0,0-.448-1.084c-.13-.345-.626-1.69-.626-1.69s-.019.383-.037.559A23.7,23.7,0,0,1,400,255.1c-.4.535-2.091.421-2.25.268a11.361,11.361,0,0,1,.2-2.194c-.009-.234-.134-1.886-.134-1.886s-.551,1.12-.831,1.559-1.411.292-1.44.288a8.378,8.378,0,0,0,1.151.119c.383-.029.961-1.425.961-1.425l.023.749c.015.486-.134,3-.134,3,.751.589,3.085.155,3.085.155s-.147-1.426-.177-1.852.029-1.617.029-1.617.5,1.411.631,1.882a20.034,20.034,0,0,1,.059,2.733S401.325,254.237,401.344,254.078Z" transform="translate(-361.808 -241.645)" fill="#244486" opacity="0.3"/>
          <path id="Path_30144" data-name="Path 30144" d="M417.012,236.434a3.212,3.212,0,0,1-.122-.494.948.948,0,0,0,.1-.686.937.937,0,0,0,.856-.074,1.083,1.083,0,0,0,.372.748s-.618.535-.876.748l-.086.093Z" transform="translate(-380.302 -227.69)" fill="#fdcba3"/>
          <path id="Path_30145" data-name="Path 30145" d="M418.546,235.4a1.379,1.379,0,0,1-.039-.218.937.937,0,0,1-.856.074,1.042,1.042,0,0,1,.017.208h0a.726.726,0,0,0,.878-.064Z" transform="translate(-380.961 -227.69)" fill="#fdcba3" opacity="0.3"/>
          <path id="Path_30146" data-name="Path 30146" d="M415.571,220.553a1,1,0,1,1-.97-1.223,1.122,1.122,0,0,1,.97,1.223Z" transform="translate(-377.479 -213.96)" fill="#fdcba3"/>
          <path id="Path_30147" data-name="Path 30147" d="M413.94,218.56a1.23,1.23,0,0,1-.294-.648.514.514,0,0,0-.514.015.937.937,0,0,1-.963.134s-.387-.251-.278-.578c.26-.771,2.115-.744,2.1-.146a.872.872,0,0,1,.208,1.108.268.268,0,0,0-.259.115Z" transform="translate(-375.956 -211.851)" fill="#003251"/>
          <path id="Path_30148" data-name="Path 30148" d="M426.757,227.021c-.074.171-.218.268-.32.227s-.126-.219-.051-.389.218-.268.321-.227S426.832,226.851,426.757,227.021Z" transform="translate(-388.491 -220.277)" fill="#fdcba3"/>
          <path id="Path_30149" data-name="Path 30149" d="M419.64,244.206l.494-.439-.395.174a.449.449,0,0,1-.1.265Z" transform="translate(-382.684 -235.128)" fill="#e6e7e8"/>
          <path id="Path_30150" data-name="Path 30150" d="M421.035,239.09a3.98,3.98,0,0,1-.656.8l.25.442a4.825,4.825,0,0,0,.641-1.07Z" transform="translate(-383.325 -231.076)" fill="#fff"/>
          <path id="Path_30151" data-name="Path 30151" d="M418.122,245.31l-.234-.245.116-.023S417.967,245.114,418.122,245.31Z" transform="translate(-381.167 -236.232)" fill="#e6e7e8"/>
          <path id="Path_30152" data-name="Path 30152" d="M416.023,239.49a1,1,0,0,0,.169.742l-.2.337a1.776,1.776,0,0,1-.171-.937Z" transform="translate(-379.353 -231.423)" fill="#fff"/>
          <rect id="Rectangle_1059" data-name="Rectangle 1059" width="49.707" height="0.125" rx="0.062" transform="translate(0 25.101)" fill="#c2c2c2"/>
        </g>
      </g>
    </g>
  </g>
</svg>
