<svg xmlns="http://www.w3.org/2000/svg" xmlns:xlink="http://www.w3.org/1999/xlink" width="74.522" height="68.098" viewBox="0 0 74.522 68.098">
  <defs>
    <linearGradient id="linear-gradient" x1="0.5" x2="0.5" y2="1" gradientUnits="objectBoundingBox">
      <stop offset="0" stop-color="#1c2848"/>
      <stop offset="1" stop-color="#06080e"/>
    </linearGradient>
  </defs>
  <g id="virtual" transform="translate(-8.987 -10)">
    <g id="flat" transform="translate(8.987 10)">
      <rect id="Rectangle_1094" data-name="Rectangle 1094" width="74.44" height="50.753" rx="1" fill="url(#linear-gradient)"/>
      <path id="Path_28568" data-name="Path 28568" d="M146.248,440h31.479a2.249,2.249,0,0,1,2.249,2.249v2.891H144v-2.891A2.248,2.248,0,0,1,146.248,440Z" transform="translate(-124.727 -377.042)" fill="#cbcbcb"/>
      <path id="Path_28569" data-name="Path 28569" d="M186.982,384h-6.424a5.14,5.14,0,1,1-10.279,0h-6.424L160,392.994h30.836Z" transform="translate(-138.158 -330.036)" fill="#a8a8a8"/>
      <path id="Path_28570" data-name="Path 28570" d="M98.521,344H24v2.57a3.855,3.855,0,0,0,3.855,3.855H94.667a3.855,3.855,0,0,0,3.855-3.855Z" transform="translate(-24 -296.46)" fill="#cbcbcb"/>
      <g id="Group_7925" data-name="Group 7925" transform="translate(24.595 53.964)">
        <path id="Path_28572" data-name="Path 28572" d="M185.353,386.57H177.14l1.1-2.57h6.424a5.121,5.121,0,0,0,.687,2.57Z" transform="translate(-177.14 -384)" fill="#656666"/>
        <path id="Path_28573" data-name="Path 28573" d="M291.933,386.57H283.72a5.121,5.121,0,0,0,.687-2.57h6.424Z" transform="translate(-266.603 -384)" fill="#656666"/>
      </g>
      <g id="led" transform="translate(-452.064 -2671.524)">
        <g id="_6461" data-name="6461" transform="translate(466.326 2684.524)">
          <path id="Path_22746" data-name="Path 22746" d="M1065.38,925.1l-1.269,15.091s-.133.915.547.917h5.569s-.842-.19-.832-.619c.012-.5,1.483-15.531,1.483-15.531Z" transform="translate(-1051.593 -916.891)" fill="#d86713"/>
          <path id="Path_22747" data-name="Path 22747" d="M1089.64,926.571c-.22,0-4.47.014-5.56,0-.475-.006-.558-.422-.562-.692a1.348,1.348,0,0,1,.015-.224l.033-.392.084-1,.074-.883.1-1.135.081-.958.9-10.723,5.5-.143s-.619,6.288-1.058,10.866c-.049.51-.1,1-.138,1.456l-.041.427c-.041.433-.078.831-.11,1.182l-.047.515c-.056.617-.089,1.012-.089,1.087a.62.62,0,0,0,.011.122C1088.92,926.555,1089.56,926.571,1089.64,926.571Z" transform="translate(-1070.65 -902.625)" fill="#f79f03"/>
          <path id="Path_22748" data-name="Path 22748" d="M422.46,496.11l3.091,12.418.423,1.7,1.44,5.784h26.751l-5.307-19.9Z" transform="translate(-422.032 -496.11)" fill="#f79f03"/>
          <path id="Path_22749" data-name="Path 22749" d="M400.118,496.11l-.428.143,4.813,20.191.57-.432Z" transform="translate(-399.69 -496.11)" fill="#ee9849"/>
          <path id="Path_22750" data-name="Path 22750" d="M655.49,1554.24h26.585l.733-.432H656.06Z" transform="translate(-650.677 -1533.901)" fill="#d86713"/>
          <rect id="Rectangle_608" data-name="Rectangle 608" width="5.756" height="0.274" transform="translate(19.906 24.225) rotate(180)" fill="#f1a34f"/>
          <path id="Path_22751" data-name="Path 22751" d="M450.632,512.345l-4.341-15.972H420.18v-.263h26.441l4.326,16.2Z" transform="translate(-419.795 -496.11)" fill="#f1a34f"/>
          <path id="Path_22752" data-name="Path 22752" d="M1095.96,1576.75l-.03.209-5.414,1.094.074-.883.035-.42Z" transform="translate(-1077.52 -1556.415)" fill="#f79f03"/>
          <path id="Path_22753" data-name="Path 22753" d="M1089.65,1679.7c-.22,0-4.469.014-5.56,0-.475-.006-.558-.422-.562-.692l5.388-1.014c-.056.617-.089,1.012-.089,1.087a.62.62,0,0,0,.011.122C1088.93,1679.69,1089.57,1679.7,1089.65,1679.7Z" transform="translate(-1070.661 -1655.757)" fill="#f79f03" opacity="0.4"/>
          <path id="Path_22754" data-name="Path 22754" d="M622.434,1248.18l-11.751,4.029-1.44-5.784Z" transform="translate(-605.299 -1232.304)" fill="#f79f03" opacity="0.4"/>
          <path id="Path_22755" data-name="Path 22755" d="M422.45,496.11h26.4l4.283,15.995H426.3Z" transform="translate(-422.022 -496.11)" fill="#699dee"/>
          <path id="Path_22756" data-name="Path 22756" d="M1359.47,1416.59a.9.9,0,0,0-.848-.71.568.568,0,0,0-.573.71.9.9,0,0,0,.848.71.568.568,0,0,0,.573-.71Z" transform="translate(-1340.003 -1398.571)" fill="#0064d8"/>
          <path id="Path_22757" data-name="Path 22757" d="M508.913,556.1H484.2l-2.8-11.151-.214-.855L481,543.36l-.146-.584-.283-1.126h24.361l.017.062.293,1.064.16.584.2.729.236.855Z" transform="translate(-479.048 -540.793)" fill="#e9f3fe"/>
          <path id="Path_22758" data-name="Path 22758" d="M508.913,558.115H484.2l-2.8-11.151-.214-.855L481,545.38l-.146-.584-.283-1.126h24.361l.017.062.293,1.064.16.584.2.729.236.855Z" transform="translate(-479.048 -542.774)" fill="#e9f3fe"/>
          <path id="Path_22759" data-name="Path 22759" d="M505.238,542.776H480.849l-.283-1.126h24.352l.027.062Z" transform="translate(-479.045 -540.793)" fill="#afcdfb"/>
          <path id="Path_22760" data-name="Path 22760" d="M516.235,560.433a.161.161,0,0,1,.16-.214.292.292,0,0,1,.267.214.163.163,0,0,1-.16.215A.293.293,0,0,1,516.235,560.433Z" transform="translate(-514.035 -559.013)" fill="#e9f3fe"/>
          <ellipse id="Ellipse_7" data-name="Ellipse 7" cx="0.189" cy="0.242" rx="0.189" ry="0.242" transform="translate(2.817 1.401) rotate(-48.55)" fill="#e9f3fe"/>
          <path id="Path_22761" data-name="Path 22761" d="M594.645,560.433a.16.16,0,0,1,.16-.214.292.292,0,0,1,.267.214.162.162,0,0,1-.16.215.292.292,0,0,1-.267-.215Z" transform="translate(-590.97 -559.013)" fill="#e9f3fe"/>
          <path id="Path_22762" data-name="Path 22762" d="M945.4,829.812h-2.444c-.023-.191-.044-.393-.063-.6-.033-.378-.058-.784-.076-1.207,0-.1-.008-.2-.012-.295,0-.126-.009-.254-.012-.382q-.009-.327-.014-.659c0-.282-.006-.567-.007-.85h0V825.6h0v-.2c0-.609.011-1.208.024-1.765.028-1.232.074-2.258.1-2.75h0c.01-.2.016-.315.016-.315h0c.005,0,.043.008.1.022s.1.025.159.044h0c.056.017.117.037.182.062h0a2.119,2.119,0,0,1,.34.164h.005a.981.981,0,0,1,.422.462c.065.169.215,1.074.4,2.277l.016.1c.1.638.2,1.355.306,2.086.111.775.222,1.567.324,2.3C945.251,828.73,945.331,829.316,945.4,829.812Z" transform="translate(-932.552 -814.471)" fill="#2b478b"/>
          <path id="Path_22763" data-name="Path 22763" d="M879.32,1181.16h-2.845c-.055-.235-.106-.461-.151-.673a7.375,7.375,0,0,1-.2-1.323.385.385,0,0,1,.126-.288.627.627,0,0,1,.2-.12,2.423,2.423,0,0,1,.946-.083c.123.008.247.019.37.034a10.736,10.736,0,0,1,1.3.25s.042.169.092.466c.038.223.079.517.11.865.019.2.032.422.041.656Q879.316,1181.05,879.32,1181.16Z" transform="translate(-867.157 -1165.815)" fill="#233862"/>
          <path id="Path_22764" data-name="Path 22764" d="M804.818,1186.78l-.028.206-.138,1-.023.169-.086.619h-2.965c-.023-.409-.044-.807-.048-1.155v-.113c0-.523.046-.911.2-1.009a3.035,3.035,0,0,1,1.334-.007l.18.023c.35.047.7.1.982.155l.373.069C804.734,1186.76,804.818,1186.78,804.818,1186.78Z" transform="translate(-793.969 -1173.43)" fill="#c65447"/>
          <path id="Path_22765" data-name="Path 22765" d="M801.485,813.083s1.629-1.054,2.8-.514a2.191,2.191,0,0,1,.55.493c.422.465,1.247,7.857,1.247,7.857a6.754,6.754,0,0,1-4.595-.269Z" transform="translate(-793.925 -806.463)" fill="#fff"/>
          <path id="Path_22766" data-name="Path 22766" d="M955.05,819.16s1.65.676,1.872,1.2a31.881,31.881,0,0,1,.949,4.081c0,.375-1.264.084-1.467-.519-.169-.5-.739-2.04-1.039-3.012Z" transform="translate(-944.6 -813.081)" fill="#2b478b"/>
          <path id="Path_22767" data-name="Path 22767" d="M870.336,769.743a1.854,1.854,0,0,1-1.276-.26,3.674,3.674,0,0,0,.272-.96c0-.011,0-.023,0-.033a.961.961,0,0,0,0-.22h.931s.254.116.254.2v.124c0,.107.006.2.012.281a2.54,2.54,0,0,0,.048.384S870.7,769.671,870.336,769.743Z" transform="translate(-860.228 -763.149)" fill="#ffb27d"/>
          <path id="Path_22768" data-name="Path 22768" d="M883.735,777.782a1.286,1.286,0,0,1-1.206-.348.193.193,0,0,1-.019-.023l.023-.01a2.172,2.172,0,0,1,1.191.1C883.725,777.608,883.729,777.7,883.735,777.782Z" transform="translate(-873.425 -772.061)" fill="#e2915a"/>
          <path id="Path_22769" data-name="Path 22769" d="M862.024,671.089c.126.677,1,.656,1.379.613.107-.012.173-.025.173-.025.12-.032.187-.221.218-.468a3.857,3.857,0,0,0-.1-1.393c-.125-.277-.359-.576-1.24-.36S861.862,670.22,862.024,671.089Z" transform="translate(-853.15 -666.121)" fill="#ffb27d"/>
          <path id="Path_22770" data-name="Path 22770" d="M833.272,640.337a2.021,2.021,0,0,0-.608-.5,1.469,1.469,0,0,0-1.138.01c-.72.317-.908.867-.527,1.725.4.907.788.8.788.8s-.082-.051-.074-.333a.329.329,0,0,1,0-.041.19.19,0,0,0-.06-.155c-.089-.08-.133-.321-.058-.388.09-.081.217.017.258.094a.111.111,0,0,0,.159.035c.224-.141.078-.425.293-.6s.648-.028.969-.166C833.7,640.67,833.362,640.463,833.272,640.337Z" transform="translate(-822.694 -637.021)" fill="#233862"/>
          <path id="Path_22771" data-name="Path 22771" d="M783.057,828.558H779.51c.025-.735.058-1.613.092-2.5.009-.231.019-.462.027-.691,0-.1.008-.194.011-.291.078-1.974.156-3.757.173-3.853.038-.217.072-.4.111-.563a1.425,1.425,0,0,1,.552-.945c.029-.023.271-.144.484-.25l.333-.164h0a.339.339,0,0,1,.115.138,2.3,2.3,0,0,1,.128.282,15.2,15.2,0,0,1,.458,1.529h0c.078.307.135.546.151.615.027.116.063.34.1.644h0c.056.414.126.976.2,1.614h0l.023.2c.009.076.017.154.026.232h0c0,.025.006.05.008.075h0c.028.252.056.513.084.779.023.218.355.376.378.6a.678.678,0,0,0,.006.094c0,.094.009.243.015.416,0,.077.005.158.008.242.013.37.029.776.047.971v.035c0,.039,0,.1.005.168C783.054,828.091,783.057,828.309,783.057,828.558Z" transform="translate(-772.363 -813.218)" fill="#2b478b"/>
          <path id="Path_22772" data-name="Path 22772" d="M791.308,963.72s-.056,2,1.442,2.238.5.306.5.306-2.819-.12-2.865-.194S791.308,963.72,791.308,963.72Z" transform="translate(-783.034 -954.921)" fill="#233862"/>
          <path id="Path_22773" data-name="Path 22773" d="M768.757,1107.07s-.028.02-.082.055h0a7.041,7.041,0,0,1-1.9.81c-.1.028-.211.055-.321.079.009-.229.019-.462.027-.691a2.813,2.813,0,0,1-.371-.051l.012-.092c.126-.052.251-.1.371-.148l.282-.109c.406-.154.706-.258.706-.258l1.2.38Z" transform="translate(-759.217 -1095.18)" fill="#233862"/>
          <path id="Path_22774" data-name="Path 22774" d="M720.618,825.045s-.154.038-.4.088h0a9.86,9.86,0,0,1-1.9.211,2.356,2.356,0,0,1-.294-.012,2.846,2.846,0,0,1-.371-.051,1.156,1.156,0,0,1-.593-.28c-1.012-1.031.552-4.73.881-5.09a2.545,2.545,0,0,1,1.472-.619l.046-.006c.136-.016.223-.019.229-.02h0l-.081.263c-.019.064-.043.137-.069.221-.238.779-.7,2.308-.9,3.171a2.221,2.221,0,0,0-.1.609c.079.295.9.446,1.415.513.216.028.38.041.417.044h.008l.03.123.072.294.071.29Z" transform="translate(-710.76 -813.186)" fill="#2b478b"/>
          <path id="Path_22775" data-name="Path 22775" d="M892.345,987.089l-3.475-.146.7-4.332,3.475.146Z" transform="translate(-879.665 -973.456)" fill="#f99746"/>
          <path id="Path_22776" data-name="Path 22776" d="M901.131,1075.21s.677-.047.71.11c.079.367-.582.669-.8.649S900.975,1075.18,901.131,1075.21Z" transform="translate(-891.506 -1064.304)" fill="#ffb27d"/>
          <path id="Path_22777" data-name="Path 22777" d="M1062.08,1031.43s-.647-.2-.717-.056c-.162.339.411.786.624.815S1062.24,1031.45,1062.08,1031.43Z" transform="translate(-1048.888 -1021.253)" fill="#ffb27d"/>
          <path id="Path_22778" data-name="Path 22778" d="M855.716,807.75a1.26,1.26,0,0,0-.427.34s1.064,1.847,1.059,1.83A8.694,8.694,0,0,0,855.716,807.75Z" transform="translate(-846.716 -801.886)" fill="#233862"/>
          <path id="Path_22779" data-name="Path 22779" d="M948.38,809.13a.808.808,0,0,1,.314.321l.126,1.613s-.27-1.184-.407-1.719a.9.9,0,0,1-.033-.215Z" transform="translate(-938.055 -803.24)" fill="#233862"/>
          <path id="Path_22780" data-name="Path 22780" d="M987.57,979.588a.158.158,0,0,1,.186-.106c.158.014,1.047.058,1.047.058s.172,0,.156.107Z" transform="translate(-976.508 -970.385)" fill="#c65447"/>
          <path id="Path_22781" data-name="Path 22781" d="M933.4,763.256a.37.37,0,0,0,.3.072c.11-.019.172-.163.172-.163a.832.832,0,0,0-.472.091Z" transform="translate(-923.357 -758.135)" fill="#fff"/>
          <path id="Path_22782" data-name="Path 22782" d="M1631.26,673.682l-2.567.01-.833-3.187,2.567-.009Z" transform="translate(-1604.747 -667.212)" fill="#fff"/>
          <path id="Path_22783" data-name="Path 22783" d="M1673.68,690.287H1672.6l-.012-.047h1.077Z" transform="translate(-1648.634 -686.587)" fill="#adcbf9"/>
          <path id="Path_22784" data-name="Path 22784" d="M1668.47,697.247h-1.352l-.012-.047h1.352Z" transform="translate(-1643.257 -693.416)" fill="#adcbf9"/>
          <path id="Path_22785" data-name="Path 22785" d="M1667.16,731.717l-1.755.007-.012-.047,1.755-.006Z" transform="translate(-1641.571 -727.237)" fill="#adcbf9"/>
          <path id="Path_22786" data-name="Path 22786" d="M1669.31,739.967l-1.755.006-.012-.047,1.755-.007Z" transform="translate(-1643.691 -735.332)" fill="#adcbf9"/>
          <path id="Path_22787" data-name="Path 22787" d="M1671.46,748.227l-1.755.006-.012-.047,1.755-.007Z" transform="translate(-1645.8 -743.437)" fill="#adcbf9"/>
          <path id="Path_22788" data-name="Path 22788" d="M1673.63,756.487l-1.755.006-.012-.047,1.755-.006Z" transform="translate(-1647.919 -751.541)" fill="#adcbf9"/>
          <path id="Path_22789" data-name="Path 22789" d="M1675.79,764.747l-1.755.006-.012-.047,1.755-.006Z" transform="translate(-1650.038 -759.646)" fill="#adcbf9"/>
          <path id="Path_22790" data-name="Path 22790" d="M1681.04,784.841l-1.755.006-.012-.047,1.755-.007Z" transform="translate(-1655.19 -779.361)" fill="#adcbf9"/>
          <path id="Path_22791" data-name="Path 22791" d="M1683.19,793.1l-1.755.006-.012-.047,1.756-.007Z" transform="translate(-1657.299 -787.462)" fill="#adcbf9"/>
          <path id="Path_22792" data-name="Path 22792" d="M1685.34,801.357l-1.756.006-.012-.047,1.755-.006Z" transform="translate(-1659.418 -795.567)" fill="#adcbf9"/>
          <path id="Path_22793" data-name="Path 22793" d="M1687.5,809.617l-1.756.007-.012-.047,1.755-.006Z" transform="translate(-1661.538 -803.671)" fill="#adcbf9"/>
          <path id="Path_22794" data-name="Path 22794" d="M1689.66,817.877l-1.755.007-.012-.047,1.756-.006Z" transform="translate(-1663.647 -811.776)" fill="#adcbf9"/>
          <path id="Path_22795" data-name="Path 22795" d="M1686.23,884.127l-2.567.009-.832-3.187,2.567-.01Z" transform="translate(-1658.684 -873.698)" fill="#fff"/>
          <path id="Path_22796" data-name="Path 22796" d="M1728.65,900.741h-1.077l-.012-.047h1.077Z" transform="translate(-1702.57 -893.08)" fill="#adcbf9"/>
          <path id="Path_22797" data-name="Path 22797" d="M1723.44,907.7h-1.352l-.013-.047,1.352-.005Z" transform="translate(-1697.193 -899.906)" fill="#adcbf9"/>
          <path id="Path_22798" data-name="Path 22798" d="M1722.13,942.167l-1.755.006-.012-.047,1.755-.007Z" transform="translate(-1695.506 -933.727)" fill="#adcbf9"/>
          <path id="Path_22799" data-name="Path 22799" d="M1724.29,950.427l-1.756.006-.012-.047,1.755-.006Z" transform="translate(-1697.626 -941.832)" fill="#adcbf9"/>
          <path id="Path_22800" data-name="Path 22800" d="M1726.44,958.687l-1.755.007-.012-.047,1.755-.006Z" transform="translate(-1699.746 -949.936)" fill="#adcbf9"/>
          <path id="Path_22801" data-name="Path 22801" d="M1728.59,966.947l-1.755.007-.012-.047,1.755-.006Z" transform="translate(-1701.855 -958.041)" fill="#adcbf9"/>
          <path id="Path_22802" data-name="Path 22802" d="M1730.76,975.2H1729l-.012-.047,1.755-.007Z" transform="translate(-1703.975 -966.136)" fill="#adcbf9"/>
          <path id="Path_22803" data-name="Path 22803" d="M1736,995.3l-1.755.007-.012-.047,1.755-.006Z" transform="translate(-1709.125 -985.858)" fill="#adcbf9"/>
          <path id="Path_22804" data-name="Path 22804" d="M1738.16,1003.56l-1.755.007-.012-.047,1.755-.006Z" transform="translate(-1711.235 -993.966)" fill="#adcbf9"/>
          <path id="Path_22805" data-name="Path 22805" d="M1740.31,1011.81l-1.755.007-.012-.047,1.755-.007Z" transform="translate(-1713.354 -1002.06)" fill="#adcbf9"/>
          <path id="Path_22806" data-name="Path 22806" d="M1742.47,1020.07l-1.755.006-.012-.047,1.755-.007Z" transform="translate(-1715.473 -1010.164)" fill="#adcbf9"/>
          <path id="Path_22807" data-name="Path 22807" d="M1744.64,1028.33l-1.755.006-.012-.047,1.756-.007Z" transform="translate(-1717.593 -1018.269)" fill="#adcbf9"/>
          <path id="Path_22808" data-name="Path 22808" d="M1741.57,1096l-2.567.009-.832-3.187,2.567-.01Z" transform="translate(-1712.982 -1081.585)" fill="#fff"/>
          <path id="Path_22809" data-name="Path 22809" d="M1783.99,1112.61h-1.077l-.013-.047h1.077Z" transform="translate(-1756.869 -1100.963)" fill="#adcbf9"/>
          <path id="Path_22810" data-name="Path 22810" d="M1778.78,1119.57l-1.352.005-.012-.047,1.352-.005Z" transform="translate(-1751.492 -1107.792)" fill="#adcbf9"/>
          <path id="Path_22811" data-name="Path 22811" d="M1777.46,1154.04l-1.755.006-.012-.047,1.756-.006Z" transform="translate(-1749.805 -1141.614)" fill="#adcbf9"/>
          <path id="Path_22812" data-name="Path 22812" d="M1779.63,1162.3l-1.755.006-.012-.047,1.755-.006Z" transform="translate(-1751.924 -1149.718)" fill="#adcbf9"/>
          <path id="Path_22813" data-name="Path 22813" d="M1781.79,1170.55l-1.755.007-.012-.047,1.755-.006Z" transform="translate(-1754.044 -1157.816)" fill="#adcbf9"/>
          <path id="Path_22814" data-name="Path 22814" d="M1783.94,1178.81l-1.755.007-.012-.047,1.755-.006Z" transform="translate(-1756.153 -1165.92)" fill="#adcbf9"/>
          <path id="Path_22815" data-name="Path 22815" d="M1786.09,1187.07l-1.755.007-.012-.047,1.755-.007Z" transform="translate(-1758.273 -1174.022)" fill="#adcbf9"/>
          <path id="Path_22816" data-name="Path 22816" d="M1791.34,1207.17l-1.756.006-.012-.047,1.755-.006Z" transform="translate(-1763.424 -1193.744)" fill="#adcbf9"/>
          <path id="Path_22817" data-name="Path 22817" d="M1793.5,1215.42l-1.756.007-.012-.047,1.755-.006Z" transform="translate(-1765.543 -1201.841)" fill="#adcbf9"/>
          <path id="Path_22818" data-name="Path 22818" d="M1795.66,1223.68l-1.755.007-.012-.047,1.756-.007Z" transform="translate(-1767.653 -1209.943)" fill="#adcbf9"/>
          <path id="Path_22819" data-name="Path 22819" d="M1797.81,1231.94l-1.755.006-.012-.047,1.756-.007Z" transform="translate(-1769.772 -1218.047)" fill="#adcbf9"/>
          <path id="Path_22820" data-name="Path 22820" d="M1799.97,1240.2l-1.756.006-.012-.047,1.755-.007Z" transform="translate(-1771.891 -1226.152)" fill="#adcbf9"/>
          <path id="Path_22821" data-name="Path 22821" d="M1136.56,682.383l-8.979.033L1125,672.523l1.169-1.26,7.482-.028Z" transform="translate(-1111.352 -667.941)" fill="#fff"/>
          <path id="Path_22822" data-name="Path 22822" d="M1286.42,752.859l-3.164.012-.036-.139,3.164-.012Z" transform="translate(-1266.589 -747.891)" fill="#adcbf9"/>
          <path id="Path_22823" data-name="Path 22823" d="M1271.11,773.328l-3.973.015-.036-.139,3.973-.015Z" transform="translate(-1250.776 -767.976)" fill="#adcbf9"/>
          <path id="Path_22824" data-name="Path 22824" d="M1267.23,874.652l-5.16.019-.036-.138,5.16-.019Z" transform="translate(-1245.811 -867.393)" fill="#adcbf9"/>
          <path id="Path_22825" data-name="Path 22825" d="M1273.57,898.934l-5.16.019-.036-.139,5.16-.019Z" transform="translate(-1252.031 -891.217)" fill="#adcbf9"/>
          <path id="Path_22826" data-name="Path 22826" d="M1279.91,923.208l-5.16.019-.036-.139,5.16-.019Z" transform="translate(-1258.252 -915.036)" fill="#adcbf9"/>
          <path id="Path_22827" data-name="Path 22827" d="M1286.26,947.482l-5.16.019-.036-.138,5.16-.019Z" transform="translate(-1264.482 -938.852)" fill="#adcbf9"/>
          <path id="Path_22828" data-name="Path 22828" d="M1292.6,971.759l-5.16.019-.036-.139,5.16-.019Z" transform="translate(-1270.703 -962.672)" fill="#adcbf9"/>
          <path id="Path_22829" data-name="Path 22829" d="M1308.03,1030.84l-5.16.019-.036-.137,5.16-.019Z" transform="translate(-1285.842 -1020.638)" fill="#adcbf9"/>
          <path id="Path_22830" data-name="Path 22830" d="M1314.37,1055.11l-5.16.019-.036-.137,5.16-.019Z" transform="translate(-1292.063 -1044.454)" fill="#adcbf9"/>
          <path id="Path_22831" data-name="Path 22831" d="M1320.71,1079.39l-5.16.019-.036-.138,5.16-.019Z" transform="translate(-1298.284 -1068.277)" fill="#adcbf9"/>
          <path id="Path_22832" data-name="Path 22832" d="M1327.05,1103.67l-5.16.019-.036-.138,5.16-.019Z" transform="translate(-1304.505 -1092.097)" fill="#adcbf9"/>
          <path id="Path_22833" data-name="Path 22833" d="M1333.39,1127.93l-5.16.019-.036-.139,5.16-.019Z" transform="translate(-1310.726 -1115.909)" fill="#adcbf9"/>
          <path id="Path_22834" data-name="Path 22834" d="M1125,673.969l1.5-.005-.328-1.254Z" transform="translate(-1111.352 -669.387)" fill="#adcbf9"/>
          <path id="Path_22835" data-name="Path 22835" d="M1885.79,1538.73h7.333a1.031,1.031,0,0,1,1.031,1.031v.494a1.056,1.056,0,0,1-1.056,1.056h-7.308Z" transform="translate(-1857.826 -1519.111)" fill="#fcecdb"/>
          <path id="Path_22836" data-name="Path 22836" d="M1880.16,1539.8v.388a1.131,1.131,0,0,1-1.132,1.131h-13.7a.164.164,0,0,1-.164-.164v-.058a.164.164,0,0,1,.164-.164h8.349a1.055,1.055,0,0,0,.24-.67v-.494a1.027,1.027,0,0,0-.228-.646h-8.361a.164.164,0,0,1-.164-.164v-.058a.164.164,0,0,1,.164-.164H1879.1a1.061,1.061,0,0,1,1.062,1.062Z" transform="translate(-1837.591 -1519.118)" fill="#699dee"/>
          <path id="Path_22837" data-name="Path 22837" d="M1880.13,1539.51H1873.9a1.033,1.033,0,0,0-.194-.383h-8.362a.164.164,0,0,1-.164-.164v-.058a.164.164,0,0,1,.164-.164H1879.1a1.062,1.062,0,0,1,1.021.77Z" transform="translate(-1837.597 -1519.123)" fill="#548ee2"/>
          <path id="Path_22838" data-name="Path 22838" d="M1885.79,1607.33l1.014.043-1.014.026Z" transform="translate(-1857.826 -1586.42)" fill="#f4d2b8"/>
          <path id="Path_22839" data-name="Path 22839" d="M1885.79,1628.85l2.413.044-2.413.026Z" transform="translate(-1857.826 -1607.535)" fill="#f4d2b8"/>
          <path id="Path_22840" data-name="Path 22840" d="M0,0H7.781A1.035,1.035,0,0,1,8.816,1.035h0a.972.972,0,0,1-.972.972H0Z" transform="translate(37.488 24.203) rotate(180)" fill="#2b478b"/>
          <path id="Path_22841" data-name="Path 22841" d="M0,0H8.856A1.011,1.011,0,0,1,9.867,1.011v.008a.989.989,0,0,1-.989.989H0Z" transform="translate(45.897 24.203) rotate(180)" fill="#fcecdb"/>
          <path id="Path_22842" data-name="Path 22842" d="M2275.15,1766.65h10.765a.15.15,0,0,0,.15-.15h0a.151.151,0,0,0-.15-.151H2275.15a.151.151,0,0,0-.151.151h0a.151.151,0,0,0,.151.15Z" transform="translate(-2239.714 -1742.444)" fill="#2b478b"/>
          <path id="Path_22843" data-name="Path 22843" d="M2275.15,1675.9h10.765a.15.15,0,0,0,.15-.151h0a.151.151,0,0,0-.15-.151H2275.15a.151.151,0,0,0-.151.151h0a.151.151,0,0,0,.151.151Z" transform="translate(-2239.714 -1653.402)" fill="#2b478b"/>
          <path id="Path_22844" data-name="Path 22844" d="M2776.43,1728.99l-1.2.034,1.2.02Z" transform="translate(-2730.53 -1705.79)" fill="#f4d2b8"/>
          <path id="Path_22845" data-name="Path 22845" d="M2690.41,1704.43l-2.846.034,2.846.02Z" transform="translate(-2644.51 -1681.693)" fill="#f4d2b8"/>
          <path id="Path_22846" data-name="Path 22846" d="M2689.13,1705.87a.469.469,0,0,1,.162.229.309.309,0,0,1,.013.079c.007.188,0,.615,0,.615l.36-.213.359.213v-.578a.457.457,0,0,0-.088-.285.139.139,0,0,0-.1-.059Z" transform="translate(-2646.049 -1683.106)" fill="#699dee"/>
          <path id="Path_22847" data-name="Path 22847" d="M2689.13,1705.87a.469.469,0,0,1,.162.229l.721.008s-.028-.2-.177-.237Z" transform="translate(-2646.049 -1683.106)" fill="#568cdb"/>
          <path id="Path_22848" data-name="Path 22848" d="M0,0H7.95A1.179,1.179,0,0,1,9.129,1.179V1.8A1.153,1.153,0,0,1,7.976,2.951H0Z" transform="translate(44.086 19.625) rotate(180)" fill="#fcecdb"/>
          <path id="Path_22849" data-name="Path 22849" d="M1912.58,1383.44v.635a.738.738,0,0,0,.74.729h8.633a.183.183,0,0,1,.183.183v.075a.184.184,0,0,1-.183.183h-14.914a1.263,1.263,0,0,1-1.263-1.263v-.5a1.185,1.185,0,0,1,1.186-1.186h14.992a.183.183,0,0,1,.183.183v.075a.183.183,0,0,1-.183.183h-8.66a.715.715,0,0,0-.525.229A.7.7,0,0,0,1912.58,1383.44Z" transform="translate(-1877.44 -1365.623)" fill="#b5453c"/>
          <path id="Path_22850" data-name="Path 22850" d="M2684.84,1460.63l-1.107.049,1.107.03Z" transform="translate(-2640.752 -1442.481)" fill="#f4d2b8"/>
          <path id="Path_22851" data-name="Path 22851" d="M2605.25,1424.55l-2.633.05,2.633.03Z" transform="translate(-2561.168 -1407.079)" fill="#f4d2b8"/>
          <path id="Path_22852" data-name="Path 22852" d="M2604.07,1426.67a.558.558,0,0,1,.231.247.268.268,0,0,1,.019.086c.01.2,0,.667,0,.667l.513-.231.511.231v-.626a.422.422,0,0,0-.125-.309.213.213,0,0,0-.142-.064Z" transform="translate(-2562.59 -1409.16)" fill="#f99746"/>
          <path id="Path_22853" data-name="Path 22853" d="M2604.07,1426.67a.558.558,0,0,1,.231.247l1.028.009a.328.328,0,0,0-.252-.256Z" transform="translate(-2562.59 -1409.16)" fill="#ed7d2b"/>
          <path id="Path_22854" data-name="Path 22854" d="M2326.24,1317.35a2.951,2.951,0,0,0,1.027,1.1h2.382S2325.9,1316.75,2326.24,1317.35Z" transform="translate(-2289.969 -1301.771)" fill="#233862"/>
          <path id="Path_22855" data-name="Path 22855" d="M2321.07,1546.81a.221.221,0,0,1,.039.235h0a1.462,1.462,0,0,1-.462.508c-.028.023-.053.043-.074.062l-.017.015-.013.011c-.2.188-.127.229-.492.61-.416.433-.7.441-.784.4s.071-.264.226-.521l.023-.038.062-.1c.182-.311.135-.457.092-.919-.035-.376-.584-2.1-.584-2.1l.8-.138a4.87,4.87,0,0,0,.5,1.584c.141.113.3.115.436.2l.029.019a1.019,1.019,0,0,1,.22.175Z" transform="translate(-2282.969 -1525.099)" fill="#ffb27d"/>
          <path id="Path_22856" data-name="Path 22856" d="M2329.65,1639.67a.222.222,0,0,1,.04.235h0a1.7,1.7,0,0,1-.463.506c-.028.023-.052.044-.073.063l-.017.015-.013.012c-.2.188-.127.23-.492.61-.417.433-.7.441-.785.4s.071-.263.226-.522a1.775,1.775,0,0,0,.742-.547c.251-.321.418-.731.589-.969l.028.019A1.027,1.027,0,0,1,2329.65,1639.67Z" transform="translate(-2291.542 -1617.962)" fill="#233862"/>
          <path id="Path_22857" data-name="Path 22857" d="M1957.89,1533.61c-.049.246-.4.2-.793.109s-.3.019-.857-.044-.727-.27-.744-.353.261-.1.557-.134l.113-.013a2.4,2.4,0,0,0,.882-.435,3.544,3.544,0,0,0,.716-.851l.766.06s-.4.61-.557.875a.927.927,0,0,0-.075.522,1.016,1.016,0,0,1-.008.264Z" transform="translate(-1926.216 -1512.405)" fill="#ffb27d"/>
          <path id="Path_22858" data-name="Path 22858" d="M1957.09,1601.44c-.392-.1-.3.019-.857-.044s-.727-.27-.744-.353.26-.1.557-.134v.006a1.573,1.573,0,0,0,.8.248c.379.009.779-.1,1.041-.1a.981.981,0,0,1-.006.262C1957.83,1601.57,1957.48,1601.53,1957.09,1601.44Z" transform="translate(-1926.214 -1580.119)" fill="#233862"/>
          <path id="Path_22859" data-name="Path 22859" d="M2238.63,1299.18l.715,1.925.934,2.514a1.521,1.521,0,0,0,.5-.046,2.153,2.153,0,0,0,.48-.234,27.36,27.36,0,0,0-.743-4.249,2.775,2.775,0,0,0-.417-.9C2239.34,1297.31,2238.63,1299.18,2238.63,1299.18Z" transform="translate(-2204.026 -1282.868)" fill="#233862"/>
          <path id="Path_22860" data-name="Path 22860" d="M2056.68,1180.65a9.787,9.787,0,0,1,3.149.306l.282-.464,2.9-.226s.957,2.123.433,3.476a.49.49,0,0,1-.491.33h-2.33a8.923,8.923,0,0,1-3.262-1.033c-.341-.069-.478.614-.819,1.329a24.893,24.893,0,0,1-3.206,3.171,2.534,2.534,0,0,1-.622-.064.61.61,0,0,1-.267-.169S2055.62,1180.99,2056.68,1180.65Z" transform="translate(-2021.349 -1167.39)" fill="#2b478b"/>
          <path id="Path_22861" data-name="Path 22861" d="M2413.03,735.086c1.033.569,3.129,1.748,3.14,1.74a1.614,1.614,0,0,0,1.207,0c.728-.484,1.119-1.786-.213-2.906-.665-.559-1.136-.7-1.208-1.587-.039-.484-.7-2.081-1.8-1.934a3.063,3.063,0,0,0-1.029.234C2412.18,731.131,2411.48,734.866,2413.03,735.086Z" transform="translate(-2374.249 -725.982)" fill="#233862"/>
          <path id="Path_22862" data-name="Path 22862" d="M2499.64,869.5a1.364,1.364,0,0,0,.851.026,1.514,1.514,0,0,0,.563-.674c-.147-.007-.308-.135-.432-.977l-.063.023-1.051.378s.075.337.126.659C2499.67,869.208,2499.69,869.466,2499.64,869.5Z" transform="translate(-2459.993 -860.885)" fill="#ffb27d"/>
          <path id="Path_22863" data-name="Path 22863" d="M2499.51,869.487s.075.337.126.659a1.3,1.3,0,0,0,.925-1.036Z" transform="translate(-2459.997 -862.091)" fill="#ed975d"/>
          <path id="Path_22864" data-name="Path 22864" d="M2452.71,775.145s1.438-.193,1.3-1.086-.038-1.52-.963-1.435-1.051.453-1.077.762S2452.33,775.171,2452.71,775.145Z" transform="translate(-2413.354 -767.413)" fill="#ffb27d"/>
          <path id="Path_22865" data-name="Path 22865" d="M2454.83,768.731a4.007,4.007,0,0,0,1.546.857,1.2,1.2,0,0,0,.863-.138,2.443,2.443,0,0,1-.591-.8.441.441,0,0,0-.363-.26C2455.84,768.352,2454.99,768.335,2454.83,768.731Z" transform="translate(-2416.158 -763.249)" fill="#233862"/>
          <path id="Path_22866" data-name="Path 22866" d="M2446.64,774.716a2.247,2.247,0,0,0-.4.519,1.735,1.735,0,0,0-.047.925s-.48-.933-.208-1.386a.383.383,0,0,1,.655-.058Z" transform="translate(-2407.394 -769.305)" fill="#233862"/>
          <path id="Path_22867" data-name="Path 22867" d="M2442.17,920.755c.043,2.911.012,2.3.33,2.578a1.217,1.217,0,0,0,.576.125,6.672,6.672,0,0,0,2.521-.252,11.408,11.408,0,0,0,.232-1.621c.018-.092.04-.193.066-.3a1.826,1.826,0,0,0-.226-1.769,7.572,7.572,0,0,0-.982-1.556c-1.215.721-1.313.115-1.313.115a4.418,4.418,0,0,0-1.2,2.68Z" transform="translate(-2403.734 -910.017)" fill="#fff"/>
          <path id="Path_22868" data-name="Path 22868" d="M2276.66,1360.48l.934,2.514a1.513,1.513,0,0,0,.5-.046,2.158,2.158,0,0,0,.48-.234,27.331,27.331,0,0,0-.743-4.249Z" transform="translate(-2241.341 -1342.244)" fill="#2b478b"/>
          <path id="Path_22869" data-name="Path 22869" d="M2380.6,924.14s-1.25.212-1.4.75l-1.011,3.7s.635.115.929-.179a16.269,16.269,0,0,0,1.021-2.725Z" transform="translate(-2340.96 -916.086)" fill="#fff"/>
          <path id="Path_22870" data-name="Path 22870" d="M2490.35,1049.47a6.672,6.672,0,0,0,2.521-.252,11.374,11.374,0,0,0,.232-1.621l-.43-1.212s.071,1.349-.327,1.7-1.629.685-1.822.981a1.085,1.085,0,0,0-.174.4Z" transform="translate(-2451.01 -1036.033)" fill="#ebf3ff"/>
          <path id="Path_22871" data-name="Path 22871" d="M2463.41,1173.11a3.749,3.749,0,0,0-1.022-.118,2.074,2.074,0,0,0-.533.462c-.043.1.316-.075.433-.107a1.044,1.044,0,0,1,.374.082,1.243,1.243,0,0,0,.67.067Z" transform="translate(-2423.046 -1160.24)" fill="#ffb27d"/>
          <path id="Path_22872" data-name="Path 22872" d="M2537.86,918s1.182.073,1.592.644c.576.8,1.719,4.227,1.064,4.684-.737.514-3.356.135-3.356.135a1.069,1.069,0,0,1,.034-.6,18.182,18.182,0,0,1,2.184-.606c.091-.091-1.137-1.773-1.137-2.046S2537.86,918,2537.86,918Z" transform="translate(-2496.905 -910.061)" fill="#fff"/>
          <path id="Path_22873" data-name="Path 22873" d="M2470.13,1187a1.693,1.693,0,0,1-.245.266.178.178,0,0,1-.1.021l.125-.224Z" transform="translate(-2430.836 -1174)" fill="#ffb27d"/>
          <path id="Path_22874" data-name="Path 22874" d="M2462.39,1174l-.536.26a.1.1,0,0,0,.089.034,1.285,1.285,0,0,0,.232-.064Z" transform="translate(-2423.045 -1161.244)" fill="#ffb27d"/>
          <path id="Path_22875" data-name="Path 22875" d="M2187.33,1055.03h-4.242l-1.276-3.173h4.236Z" transform="translate(-2148.278 -1041.396)" fill="#f99746"/>
          <path id="Path_22876" data-name="Path 22876" d="M2246.98,1213.92h5.6v.124h-5.552Z" transform="translate(-2212.219 -1200.413)" fill="#ed7d2b"/>
          <path id="Path_22877" data-name="Path 22877" d="M2306.1,1125.65a.147.147,0,0,1,.144-.2.289.289,0,0,1,.26.2.147.147,0,0,1-.144.2.289.289,0,0,1-.26-.2Z" transform="translate(-2270.222 -1113.606)" fill="#fff"/>
          <circle id="Ellipse_8" data-name="Ellipse 8" cx="0.187" cy="0.187" r="0.187" transform="translate(25.081 2.653) rotate(-76.72)" fill="#f99746"/>
        </g>
      </g>
    </g>
  </g>
</svg>
