<svg xmlns="http://www.w3.org/2000/svg" width="20.054" height="20.054" viewBox="0 0 20.054 20.054">
  <g id="call-us" transform="translate(0.002)">
    <g id="Group_499" data-name="Group 499">
      <g id="Group_498" data-name="Group 498">
        <path id="Path_2778" data-name="Path 2778" d="M19.668,15.947l-2.224-1.482-1.977-1.318a.876.876,0,0,0-1.176.191l-1.222,1.569a.869.869,0,0,1-1.112.231,14.24,14.24,0,0,1-3.976-3.065A14.342,14.342,0,0,1,4.916,8.1a.869.869,0,0,1,.233-1.109L6.721,5.765a.876.876,0,0,0,.191-1.176L5.633,2.673,4.11.389A.876.876,0,0,0,2.931.122L1.174,1.178A2.146,2.146,0,0,0,.2,2.439c-.48,1.751-.577,5.616,5.616,11.8s10.054,6.094,11.8,5.616a2.145,2.145,0,0,0,1.261-.975l1.054-1.756a.876.876,0,0,0-.263-1.177Z" transform="translate(-0.003 0.002)" fill="#fff"/>
        <path id="Path_2779" data-name="Path 2779" d="M282.829,62.483a5.883,5.883,0,0,1,5.878,5.879.346.346,0,0,0,.692,0,6.577,6.577,0,0,0-6.57-6.57.346.346,0,1,0,0,.691Z" transform="translate(-271.419 -59.37)" fill="#fff"/>
        <path id="Path_2780" data-name="Path 2780" d="M282.828,115.448a3.811,3.811,0,0,1,3.8,3.8.346.346,0,1,0,.692,0,4.5,4.5,0,0,0-4.5-4.5.346.346,0,1,0,0,.692Z" transform="translate(-271.418 -110.259)" fill="#fff"/>
        <path id="Path_2781" data-name="Path 2781" d="M282.829,168.414a1.731,1.731,0,0,1,1.729,1.729.346.346,0,1,0,.692,0,2.423,2.423,0,0,0-2.421-2.42.346.346,0,1,0,0,.691Z" transform="translate(-271.419 -161.152)" fill="#fff"/>
      </g>
    </g>
  </g>
</svg>
