<svg xmlns="http://www.w3.org/2000/svg" xmlns:xlink="http://www.w3.org/1999/xlink" width="61.138" height="61.37" viewBox="0 0 61.138 61.37">
  <defs>
    <linearGradient id="linear-gradient" x1="0.5" x2="0.5" y2="1" gradientUnits="objectBoundingBox">
      <stop offset="0" stop-color="#0064d8"/>
      <stop offset="1" stop-color="#00326c"/>
    </linearGradient>
  </defs>
  <g id="form" transform="translate(-1 -1)">
    <path id="Path_28185" data-name="Path 28185" d="M7,33h5.939v1.98H7Z" transform="translate(-0.061 -0.325)" fill="url(#linear-gradient)"/>
    <path id="Path_28186" data-name="Path 28186" d="M15,33H40.736v1.98H15Z" transform="translate(-0.142 -0.325)" fill="url(#linear-gradient)"/>
    <path id="Path_28187" data-name="Path 28187" d="M7,37H40.655v1.98H7Z" transform="translate(-0.061 -0.366)" fill="url(#linear-gradient)"/>
    <path id="Path_28188" data-name="Path 28188" d="M62.138,37.272,60.623,36l-6.957,8.26a10.855,10.855,0,0,0-7.134-3.613V8.919H40.594V4.959h-9.46A6.6,6.6,0,0,0,25.1,1h-2.66A6.6,6.6,0,0,0,16.4,4.959H6.939V8.919H1V62.37H45.543A10.866,10.866,0,0,0,54.873,45.9ZM29.755,12.249a6.545,6.545,0,0,0,1.93-4.659c0-.22-.012-.437-.033-.65h6.962V28.716H34.655V24.1a5.968,5.968,0,0,0-5.1-5.879l-2.074-.3L27.106,16.8a5.943,5.943,0,0,0,2.579-4.475Zm-5.61,11.518h-.756l-.4-.795.775-.775.775.775Zm2.394-1.6L25.319,20.95l1.651-1.1.885.127Zm-2.773-6.322a3.966,3.966,0,0,1-3.959-3.961V10.542a.993.993,0,0,1,.8-.971l1.416-.283a3.39,3.39,0,0,0,1.747-.942,3.39,3.39,0,0,0,1.747.942l1.416.283a.993.993,0,0,1,.8.971v1.344A3.966,3.966,0,0,1,23.766,15.848Zm0,1.98h0a5.884,5.884,0,0,0,1.525-.207l.264.793-1.792,1.194-1.792-1.195.264-.793a5.842,5.842,0,0,0,1.525.208Zm-3.2,2.023,1.651,1.1-1.219,1.219-1.315-2.193Zm-2.975.489L20.6,25.363l.916-.916.224.447-.764,3.821H14.858V24.1A3.981,3.981,0,0,1,17.587,20.34Zm6,5.407h.356l.594,2.97H22.994Zm2.97,2.97-.764-3.821.224-.447.916.916,3.013-5.023A3.981,3.981,0,0,1,32.675,24.1v4.617ZM22.437,2.98H25.1a4.591,4.591,0,0,1,4.295,6.26A2.966,2.966,0,0,0,27.318,7.63L25.9,7.347a1.43,1.43,0,0,1-1.145-1.4v-.99h-1.98v.99a1.43,1.43,0,0,1-1.145,1.4l-1.416.283a2.968,2.968,0,0,0-2.074,1.609,4.591,4.591,0,0,1,4.3-6.26ZM8.919,6.939H15.88c-.021.214-.033.431-.033.65a6.543,6.543,0,0,0,1.93,4.659l.071.071a5.938,5.938,0,0,0,2.579,4.475l-.376,1.128-2.074.3a5.97,5.97,0,0,0-5.1,5.88v4.617H8.919ZM2.98,60.39V10.9H6.939V30.7H40.594V10.9h3.959V40.644A10.789,10.789,0,0,0,40.594,41.8v-1.2H30.7v1.98H39.3a10.989,10.989,0,0,0-2.152,1.98H30.7v1.98h5.161a10.791,10.791,0,0,0-.78,1.98H30.7v1.98h4.01c-.03.327-.05.655-.05.99s.021.663.05.99H30.7v1.98h4.381A10.917,10.917,0,0,0,39.3,60.39Zm51.472-8.909a8.925,8.925,0,1,1-2.07-5.7l-6.9,8.2-4.187-4.186-1.4,1.4,5.711,5.712,7.9-9.386A8.821,8.821,0,0,1,54.451,51.482Z" fill="url(#linear-gradient)"/>
    <path id="Path_28189" data-name="Path 28189" d="M7,46.939h5.939V41H7ZM8.98,42.98h1.98v1.98H8.98Z" transform="translate(-0.061 -0.406)" fill="url(#linear-gradient)"/>
    <path id="Path_28190" data-name="Path 28190" d="M15,41h5.939v1.98H15Z" transform="translate(-0.142 -0.406)" fill="url(#linear-gradient)"/>
    <path id="Path_28191" data-name="Path 28191" d="M15,45h5.939v1.98H15Z" transform="translate(-0.142 -0.447)" fill="url(#linear-gradient)"/>
    <path id="Path_28192" data-name="Path 28192" d="M7,54.939h5.939V49H7ZM8.98,50.98h1.98v1.98H8.98Z" transform="translate(-0.061 -0.488)" fill="url(#linear-gradient)"/>
    <path id="Path_28193" data-name="Path 28193" d="M15,49h5.939v1.98H15Z" transform="translate(-0.142 -0.488)" fill="url(#linear-gradient)"/>
    <path id="Path_28194" data-name="Path 28194" d="M15,53h5.939v1.98H15Z" transform="translate(-0.142 -0.528)" fill="url(#linear-gradient)"/>
    <path id="Path_28195" data-name="Path 28195" d="M23,46.939h5.939V41H23Zm1.98-3.959h1.98v1.98H24.98Z" transform="translate(-0.224 -0.406)" fill="url(#linear-gradient)"/>
    <path id="Path_28196" data-name="Path 28196" d="M23,54.939h5.939V49H23Zm1.98-3.959h1.98v1.98H24.98Z" transform="translate(-0.224 -0.488)" fill="url(#linear-gradient)"/>
    <path id="Path_28197" data-name="Path 28197" d="M7,57h5.939v1.98H7Z" transform="translate(-0.061 -0.569)" fill="url(#linear-gradient)"/>
    <path id="Path_28198" data-name="Path 28198" d="M15,57H28.858v1.98H15Z" transform="translate(-0.142 -0.569)" fill="url(#linear-gradient)"/>
  </g>
</svg>
