<svg xmlns="http://www.w3.org/2000/svg" xmlns:xlink="http://www.w3.org/1999/xlink" width="61.564" height="55.021" viewBox="0 0 61.564 55.021">
  <defs>
    <linearGradient id="linear-gradient" x1="0.5" x2="0.5" y2="1" gradientUnits="objectBoundingBox">
      <stop offset="0" stop-color="#0064d8"/>
      <stop offset="1" stop-color="#00326c"/>
    </linearGradient>
  </defs>
  <g id="online-booking" transform="translate(0 -27.19)">
    <path id="Path_28175" data-name="Path 28175" d="M60.438,163.653H59.1v-22.1a.9.9,0,0,0-1.8,0v22.1H12.229a.9.9,0,0,0,0,1.8h47.53v.836a2.548,2.548,0,0,1-2.545,2.545H4.35A2.548,2.548,0,0,1,1.8,166.295v-.836H8.383a.9.9,0,0,0,0-1.8H4.269V132.236a2.714,2.714,0,0,1,2.711-2.711H17.244a.9.9,0,0,0,0-1.8H6.98a4.521,4.521,0,0,0-4.515,4.515v31.417H1.126A1.128,1.128,0,0,0,0,164.78v1.515a4.355,4.355,0,0,0,4.35,4.35H57.214a4.355,4.355,0,0,0,4.35-4.35V164.78A1.128,1.128,0,0,0,60.438,163.653Z" transform="translate(0 -88.434)" fill="url(#linear-gradient)"/>
    <path id="Path_28176" data-name="Path 28176" d="M362.724,129.526h10.144a2.713,2.713,0,0,1,2.711,2.71v5.473a.9.9,0,0,0,1.8,0v-5.473a4.521,4.521,0,0,0-4.515-4.515H362.724a.9.9,0,1,0,0,1.8Z" transform="translate(-318.284 -88.434)" fill="url(#linear-gradient)"/>
    <path id="Path_28177" data-name="Path 28177" d="M50.482,158.627v28.709a.9.9,0,0,0,.9.9h47.61a.9.9,0,0,0,.9-.9l0-28.712a.9.9,0,0,0-.9-.9H87.8a.9.9,0,1,0,0,1.8H98.089l0,26.907h-45.8v-26.9H62.7a.9.9,0,1,0,0-1.8H51.384a.9.9,0,0,0-.9.9Z" transform="translate(-44.408 -114.824)" fill="url(#linear-gradient)"/>
    <path id="Path_28178" data-name="Path 28178" d="M175.667,49.254A11.044,11.044,0,0,0,186.7,38.222a10.911,10.911,0,0,0-1.2-5.007.9.9,0,1,0-1.608.821,9.122,9.122,0,0,1,1.005,4.186,9.234,9.234,0,1,1-3.181-6.967.9.9,0,1,0,1.184-1.363,11.031,11.031,0,1,0-7.229,19.361Z" transform="translate(-144.825)" fill="url(#linear-gradient)"/>
    <path id="Path_28179" data-name="Path 28179" d="M206.108,70.807a1.191,1.191,0,0,0-1.681,0l-4.907,4.907-1.7-1.7a1.191,1.191,0,0,0-1.681,0l-2.147,2.148a1.188,1.188,0,0,0,0,1.681l3.615,3.615a2.707,2.707,0,0,0,3.829,0l6.821-6.822a1.188,1.188,0,0,0,0-1.681Zm-5.95,9.375a.9.9,0,0,1-1.276,0L195.7,77l1.276-1.276,1.7,1.7a1.191,1.191,0,0,0,1.681,0l4.907-4.907,1.276,1.276Z" transform="translate(-170.341 -38.063)" fill="url(#linear-gradient)"/>
    <path id="Path_28180" data-name="Path 28180" d="M166.781,320.905h17.776a2.146,2.146,0,0,0,2.144-2.144v-2.728a2.146,2.146,0,0,0-2.144-2.144H172.467a.9.9,0,1,0,0,1.8h12.089a.339.339,0,0,1,.339.339v2.728a.339.339,0,0,1-.339.339H166.781a.339.339,0,0,1-.339-.339v-2.728a.339.339,0,0,1,.339-.339h1.841a.9.9,0,1,0,0-1.8h-1.841a2.146,2.146,0,0,0-2.144,2.144v2.728A2.146,2.146,0,0,0,166.781,320.905Z" transform="translate(-144.826 -252.201)" fill="url(#linear-gradient)"/>
    <path id="Path_28181" data-name="Path 28181" d="M99.39,212.936a5.732,5.732,0,1,0-5.732,5.732A5.739,5.739,0,0,0,99.39,212.936Zm-5.732,3.927a3.927,3.927,0,1,1,3.928-3.927A3.932,3.932,0,0,1,93.657,216.864Z" transform="translate(-77.345 -158.353)" fill="url(#linear-gradient)"/>
    <path id="Path_28182" data-name="Path 28182" d="M207.132,237h1.4a.9.9,0,1,0,0-1.8h-1.4a.9.9,0,1,0,0,1.8Z" transform="translate(-181.415 -182.976)" fill="url(#linear-gradient)"/>
    <path id="Path_28183" data-name="Path 28183" d="M267.666,235.2h-18.45a.9.9,0,1,0,0,1.8h18.45a.9.9,0,0,0,0-1.8Z" transform="translate(-218.435 -182.976)" fill="url(#linear-gradient)"/>
    <path id="Path_28184" data-name="Path 28184" d="M231.549,267.258a.9.9,0,0,0-.9-.9H207.132a.9.9,0,0,0,0,1.8h23.514A.9.9,0,0,0,231.549,267.258Z" transform="translate(-181.415 -210.387)" fill="url(#linear-gradient)"/>
  </g>
</svg>
