<svg xmlns="http://www.w3.org/2000/svg" xmlns:xlink="http://www.w3.org/1999/xlink" width="59.324" height="61.37" viewBox="0 0 59.324 61.37">
  <defs>
    <linearGradient id="linear-gradient" x1="0.5" x2="0.5" y2="1" gradientUnits="objectBoundingBox">
      <stop offset="0" stop-color="#0064d8"/>
      <stop offset="1" stop-color="#00326c"/>
    </linearGradient>
  </defs>
  <g id="platform" transform="translate(0 0)">
    <path id="Path_28163" data-name="Path 28163" d="M35.8,208.365H25.4A3.069,3.069,0,0,0,22.5,206.32H20.457V195.069a1.023,1.023,0,0,1,1.023-1.023h13.9l9.737,9.737a1.023,1.023,0,0,0,1.442-1.442l-8.3-8.3h9.809a1.023,1.023,0,0,1,1.023,1.023v9.8a1.023,1.023,0,0,0,2.046,0v-9.8A3.069,3.069,0,0,0,48.074,192H21.48a3.069,3.069,0,0,0-3.069,3.069V206.32H6.137a3.069,3.069,0,0,0-3.069,3.069v11.251H1.023A1.023,1.023,0,0,0,0,221.662v1.023a4.092,4.092,0,0,0,4.091,4.091H24.548a4.092,4.092,0,0,0,4.091-4.091v-1.023a1.023,1.023,0,0,0-1.023-1.023H25.571V214.5h4.091l-1.841,2.455a1.023,1.023,0,0,0,.818,1.637h6.137a1.023,1.023,0,1,0,0-2.046H30.685L32.22,214.5h2.557a1.023,1.023,0,0,0,0-2.046H25.571v-2.046H35.8a1.023,1.023,0,0,0,0-2.046ZM24.548,224.731H4.092a2.046,2.046,0,0,1-2.046-2.046H26.594A2.046,2.046,0,0,1,24.548,224.731ZM5.115,220.639V209.388a1.023,1.023,0,0,1,1.023-1.023H13.9l5.83,5.84a1.027,1.027,0,1,0,1.452-1.452l-4.4-4.388H22.5a1.023,1.023,0,0,1,1.023,1.023v11.251Zm0,0" transform="translate(0 -167.452)" fill="url(#linear-gradient)"/>
    <path id="Path_28164" data-name="Path 28164" d="M244.091,416h-3.068a1.023,1.023,0,1,0,0,2.046h3.068a1.023,1.023,0,1,0,0-2.046Zm0,0" transform="translate(-209.315 -362.813)" fill="url(#linear-gradient)"/>
    <path id="Path_28165" data-name="Path 28165" d="M315.434,327.16H309.3v-4.091A3.069,3.069,0,0,0,306.228,320h-7.16A3.069,3.069,0,0,0,296,323.068v12.274a3.069,3.069,0,0,0,3.069,3.068h7.16a3.075,3.075,0,0,0,1.023-.174v1.2a1.023,1.023,0,0,0,2.046,0v-9.809l6.137,6.137v3.672a1.023,1.023,0,0,0,2.046,0V329.206A2.046,2.046,0,0,0,315.434,327.16Zm-8.183-4.091v9.206h-9.206v-9.206a.959.959,0,0,1,.123-.481l5.288,5.3a1.027,1.027,0,1,0,1.452-1.452l-4.4-4.388h5.717A1.023,1.023,0,0,1,307.251,323.068Zm-1.023,13.3h-7.16a1.023,1.023,0,0,1-1.023-1.023V334.32h9.206v1.023A1.023,1.023,0,0,1,306.228,336.365Zm5.534-7.16h3.672v3.672Zm0,0" transform="translate(-258.155 -279.087)" fill="url(#linear-gradient)"/>
    <path id="Path_28166" data-name="Path 28166" d="M168.641,11.251a1.024,1.024,0,0,0,.1.777l2.046,3.539a1.024,1.024,0,0,0,.614.48,1.074,1.074,0,0,0,.777-.1l1.463-.849a6.729,6.729,0,0,0,1.023.573v1.719a1.023,1.023,0,0,0,1.023,1.023h4.091a1.023,1.023,0,0,0,1.023-1.023V15.67a6.727,6.727,0,0,0,1.023-.573l1.493.86a1.075,1.075,0,0,0,.778.1,1.022,1.022,0,0,0,.613-.481l2.046-3.539a1.033,1.033,0,0,0-.368-1.4l-1.493-.859V8.633l1.483-.859a1.037,1.037,0,0,0,.348-1.391l-2.046-3.539a1.022,1.022,0,0,0-1.391-.378l-1.463.849a6.727,6.727,0,0,0-1.023-.573V1.023A1.023,1.023,0,0,0,179.779,0h-4.091a1.023,1.023,0,0,0-1.023,1.023V2.741a6.729,6.729,0,0,0-1.023.573l-1.463-.86a1.023,1.023,0,0,0-1.391.379l-2.046,3.539a1.033,1.033,0,0,0,.368,1.4l1.483.859V9.778l-1.483.859a1.025,1.025,0,0,0-.47.614Zm4.091-1.125a4.766,4.766,0,0,1,0-1.861,1.023,1.023,0,0,0-.521-1.1l-1.187-.685,1.023-1.78,1.187.7a1.022,1.022,0,0,0,1.176-.112,5.2,5.2,0,0,1,1.616-.931,1.023,1.023,0,0,0,.685-.92V2.046h2.046V3.427a1.023,1.023,0,0,0,.685.961,5.2,5.2,0,0,1,1.616.931,1.023,1.023,0,0,0,1.176.112l1.187-.7,1.023,1.78-1.187.644a1.023,1.023,0,0,0-.5,1.074,4.767,4.767,0,0,1,0,1.862,1.022,1.022,0,0,0,.5,1.156l1.187.685-1.023,1.78-1.187-.7a1.022,1.022,0,0,0-1.176.112,5.2,5.2,0,0,1-1.616.931,1.023,1.023,0,0,0-.685.961v1.34h-2.046V14.984a1.022,1.022,0,0,0-.685-.961,5.2,5.2,0,0,1-1.616-.931,1.023,1.023,0,0,0-1.176-.112l-1.187.7-1.023-1.78,1.187-.644a1.022,1.022,0,0,0,.5-1.115Zm0,0" transform="translate(-147.048 0)" fill="url(#linear-gradient)"/>
    <path id="Path_28167" data-name="Path 28167" d="M219.068,54.137A3.069,3.069,0,1,0,216,51.069,3.069,3.069,0,0,0,219.068,54.137Zm0-4.091a1.023,1.023,0,1,1-1.023,1.023A1.023,1.023,0,0,1,219.068,50.046Zm0,0" transform="translate(-188.383 -41.863)" fill="url(#linear-gradient)"/>
    <path id="Path_28168" data-name="Path 28168" d="M40.144,147.181a1.023,1.023,0,0,0,.726-1.749,5.115,5.115,0,0,0-7.242,0,1.027,1.027,0,1,0,1.452,1.452,3.151,3.151,0,0,1,4.337,0,1.021,1.021,0,0,0,.726.3Zm0,0" transform="translate(-29.066 -125.527)" fill="url(#linear-gradient)"/>
    <path id="Path_28169" data-name="Path 28169" d="M12.885,116.2a7.161,7.161,0,0,1,10.126,0,1.02,1.02,0,1,0,1.442-1.442,9.2,9.2,0,0,0-13.01,0,1.023,1.023,0,0,0,1.442,1.442Zm0,0" transform="translate(-9.765 -97.734)" fill="url(#linear-gradient)"/>
    <path id="Path_28170" data-name="Path 28170" d="M58.046,177.023A1.023,1.023,0,1,1,57.023,176,1.023,1.023,0,0,1,58.046,177.023Zm0,0" transform="translate(-48.84 -153.498)" fill="url(#linear-gradient)"/>
    <path id="Path_28171" data-name="Path 28171" d="M57.023,215.16a1.023,1.023,0,0,0,1.023-1.023v-5.114a1.023,1.023,0,0,0-2.046,0v5.114A1.023,1.023,0,0,0,57.023,215.16Zm0,0" transform="translate(-48.84 -181.406)" fill="url(#linear-gradient)"/>
    <path id="Path_28172" data-name="Path 28172" d="M321.023,66.046h9.206a3.069,3.069,0,0,1,3.069,3.069V99.8a1.023,1.023,0,0,0,2.046,0V69.114A5.114,5.114,0,0,0,330.228,64h-9.206a1.023,1.023,0,0,0,0,2.046Zm0,0" transform="translate(-279.086 -55.817)" fill="url(#linear-gradient)"/>
    <path id="Path_28173" data-name="Path 28173" d="M320.1,113.7l.921.46a1.024,1.024,0,0,1,.562.921v3.846a1.023,1.023,0,1,0,2.046,0v-3.846a3.068,3.068,0,0,0-1.7-2.752l-.91-.45a1.023,1.023,0,1,0-.921,1.821Zm0,0" transform="translate(-278.628 -97.448)" fill="url(#linear-gradient)"/>
    <path id="Path_28174" data-name="Path 28174" d="M57.023,39.16a1.023,1.023,0,0,0,1.023-1.023V35.069a1.023,1.023,0,0,1,1.023-1.023h7.16a1.023,1.023,0,0,0,0-2.046h-7.16A3.069,3.069,0,0,0,56,35.069v3.069A1.023,1.023,0,0,0,57.023,39.16Zm0,0" transform="translate(-48.84 -27.909)" fill="url(#linear-gradient)"/>
  </g>
</svg>
