<svg xmlns="http://www.w3.org/2000/svg" width="79.998" height="66.44" viewBox="0 0 79.998 66.44">
  <g id="back" transform="translate(-0.002 -41.676)">
    <g id="Group_407" data-name="Group 407" transform="translate(0 41.674)">
      <path id="Path_750" data-name="Path 750" d="M75.5,68.624l.125.027H22.1L38.924,51.786a4.42,4.42,0,0,0,0-6.213l-2.619-2.62a4.38,4.38,0,0,0-6.183,0L1.275,71.794a4.41,4.41,0,0,0,0,6.2l28.847,28.847a4.384,4.384,0,0,0,6.183,0l2.619-2.62A4.333,4.333,0,0,0,40.2,101.13a4.2,4.2,0,0,0-1.276-3.03L21.906,81.143H75.563A4.534,4.534,0,0,0,80,76.655V72.949a4.446,4.446,0,0,0-4.5-4.325Z" transform="translate(0 -41.674)" fill="#ffffff"/>
    </g>
  </g>
</svg>
