<svg xmlns="http://www.w3.org/2000/svg" width="26" height="36.174" viewBox="0 0 26 36.174">
  <g id="book" transform="translate(-72)">
    <path id="Path_110" data-name="Path 110" d="M96.87,0H76.663A4.668,4.668,0,0,0,72,4.663V31.087a5.093,5.093,0,0,0,5.087,5.087H96.87a1.13,1.13,0,1,0,0-2.261H77.087a2.826,2.826,0,1,1,0-5.652H96.87A1.13,1.13,0,0,0,98,27.13v-26A1.13,1.13,0,0,0,96.87,0ZM74.261,26.242V4.663a2.4,2.4,0,0,1,2.4-2.4h.071a.353.353,0,0,1,.353.353V25.658a.351.351,0,0,1-.327.352,5.049,5.049,0,0,0-1.989.548A.352.352,0,0,1,74.261,26.242Z" fill="#fff"/>
    <path id="Path_111" data-name="Path 111" d="M148.913,424H129.13a1.13,1.13,0,1,0,0,2.261h19.783a1.13,1.13,0,1,0,0-2.261Z" transform="translate(-52.043 -394.043)" fill="#fff"/>
  </g>
</svg>
