<svg xmlns="http://www.w3.org/2000/svg" width="506" height="84" viewBox="0 0 506 84">
  <g id="bpt-logo-blue" transform="translate(-538 -1500)">
    <g id="bpt-logo-blue-2" data-name="bpt-logo-blue" transform="translate(537 1504)">
      <text id="Best_Practice_Training_" data-name="Best Practice Training®" transform="translate(102 42)" fill="#1c2848" font-size="38" font-family="SegoeUI-Bold, Segoe UI" font-weight="700"><tspan x="0" y="0">Best Practice Training</tspan><tspan y="0" font-size="22.165" baseline-shift="12.66539974366333">®</tspan></text>
      <text id="Delivering_the_highest_standard_of_training" data-name="Delivering the highest standard of training" transform="translate(133 67)" fill="#1c2848" font-size="16" font-family="SegoeUI, Segoe UI"><tspan x="0" y="0">Delivering the highest standard of training</tspan></text>
    </g>
    <g id="Group_8080" data-name="Group 8080" transform="translate(718.5 1328) rotate(90)">
      <g id="Group_8080-2" data-name="Group 8080" transform="translate(75.5 352.5) rotate(-90)">
        <rect id="Rectangle_1126" data-name="Rectangle 1126" width="83" height="14" transform="translate(172 111)" fill="#1c2848"/>
        <rect id="Rectangle_1127" data-name="Rectangle 1127" width="83" height="14" transform="translate(172 132)" fill="#304a6f"/>
        <rect id="Rectangle_1128" data-name="Rectangle 1128" width="83" height="14" transform="translate(172 152)" fill="#1c2848"/>
      </g>
      <rect id="Rectangle_1126-2" data-name="Rectangle 1126" width="83" height="14" transform="translate(173 109)" fill="#1c2848"/>
      <rect id="Rectangle_1127-2" data-name="Rectangle 1127" width="83" height="14" transform="translate(172 131)" fill="#304a6f"/>
      <rect id="Rectangle_1128-2" data-name="Rectangle 1128" width="83" height="14" transform="translate(172 152)" fill="#1c2848"/>
      <rect id="Rectangle_1129" data-name="Rectangle 1129" width="50" height="14" transform="translate(227.5 180.5) rotate(-90)" fill="#0064d8"/>
      <rect id="Rectangle_1131" data-name="Rectangle 1131" width="35" height="15" transform="translate(206.5 145.5) rotate(-90)" fill="#0064d8"/>
      <rect id="Rectangle_1130" data-name="Rectangle 1130" width="49" height="15" transform="translate(172.5 108.5)" fill="#0064d8"/>
      <rect id="Rectangle_1132" data-name="Rectangle 1132" width="35" height="15" transform="translate(206.5 130.5)" fill="#0064d8"/>
    </g>
  </g>
</svg>
