<svg id="call" xmlns="http://www.w3.org/2000/svg" width="30.833" height="30.833" viewBox="0 0 30.833 30.833">
  <path id="Path_1" data-name="Path 1" d="M26.607,15.578H25.035a9.314,9.314,0,0,0-9.3-9.3V4.7A10.885,10.885,0,0,1,26.607,15.578ZM15.731,7.415V8.986a6.6,6.6,0,0,1,6.589,6.591h1.573A8.169,8.169,0,0,0,15.731,7.415ZM15.417,0a15.417,15.417,0,1,0,0,30.833.951.951,0,0,0,0-1.9A13.514,13.514,0,1,1,28.93,15.417,8.76,8.76,0,0,1,24.9,22.925a5.826,5.826,0,0,1-2.793.718,4.468,4.468,0,0,0,1.5-1.443,2.027,2.027,0,0,0,.225-.339,15.333,15.333,0,0,0,.524-2.377c.229-1-4.4-2.967-4.8-1.712a12.008,12.008,0,0,1-.66,2.32c-.26.345-.9.181-1.3-.159-1.054-.9-2.231-2.219-3.264-3.263h0l-.087-.087c-.029-.027-.059-.059-.088-.087v0C13.119,15.464,11.8,14.29,10.9,13.233c-.34-.4-.5-1.04-.159-1.3a12.008,12.008,0,0,1,2.32-.66c1.252-.4-.708-5.029-1.714-4.8A15.245,15.245,0,0,0,8.973,7a2.232,2.232,0,0,0-.339.227c-2.642,1.674-2.983,5.741-.4,8.771.983,1.159,2.008,2.28,3.063,3.375l-.006,0c.029.029.059.057.09.085s.056.059.083.09l.006-.006a29.015,29.015,0,0,0,4.5,4.016c4.439,2.965,7.846,2.137,9.852,1.036,3.464-1.908,5.014-5.982,5.014-9.174A15.434,15.434,0,0,0,15.417,0Z" fill="#181818"/>
</svg>
