<svg xmlns="http://www.w3.org/2000/svg" width="25.398" height="25.398" viewBox="0 0 25.398 25.398">
  <g id="city-red" transform="translate(0)">
    <path id="Path_28618" data-name="Path 28618" d="M19.392,5.991V0L6.007,4.5V9.361L0,10.862V25.4H25.4V4.49ZM6.007,23.91H4.492v-3.8H3v3.8H1.488V12.024L6.007,10.9Zm8.9-.019H13.443V20.86H14.9Zm-2.947,0H10.5V20.86h1.459Zm5.949.019H16.391V19.372H9.008V23.91H7.495V5.574L17.9,2.071Zm6.007,0H22.4V20.122H20.907V23.91H19.392V7.525L23.91,6.4Z" transform="translate(0)" fill="red"/>
    <path id="Path_28619" data-name="Path 28619" d="M181.588,314.637h1.488v2.03h-1.488Z" transform="translate(-172.58 -299.029)" fill="red"/>
    <path id="Path_28620" data-name="Path 28620" d="M300.412,314.637H301.9v2.03h-1.488Z" transform="translate(-285.51 -299.029)" fill="red"/>
    <path id="Path_28621" data-name="Path 28621" d="M241,314.889h1.488v2.03H241Z" transform="translate(-229.045 -299.269)" fill="red"/>
    <path id="Path_28622" data-name="Path 28622" d="M181.588,224.034h1.488v2.03h-1.488Z" transform="translate(-172.58 -212.921)" fill="red"/>
    <path id="Path_28623" data-name="Path 28623" d="M300.412,224.034H301.9v2.03h-1.488Z" transform="translate(-285.51 -212.921)" fill="red"/>
    <path id="Path_28624" data-name="Path 28624" d="M241,224.286h1.488v2.03H241Z" transform="translate(-229.045 -213.16)" fill="red"/>
    <path id="Path_28625" data-name="Path 28625" d="M181.588,133.377h1.488v2.03h-1.488Z" transform="translate(-172.58 -126.761)" fill="red"/>
    <path id="Path_28626" data-name="Path 28626" d="M300.412,93.029H301.9v4.032h-1.488Z" transform="translate(-285.51 -88.414)" fill="red"/>
    <path id="Path_28627" data-name="Path 28627" d="M241,113.455h1.488v3.031H241Z" transform="translate(-229.045 -107.827)" fill="red"/>
    <path id="Path_28628" data-name="Path 28628" d="M421.457,314.889h1.488v2.03h-1.488Z" transform="translate(-400.55 -299.269)" fill="red"/>
    <path id="Path_28629" data-name="Path 28629" d="M60.543,273.606h1.488v3.831H60.543Z" transform="translate(-57.54 -260.033)" fill="red"/>
    <path id="Path_28630" data-name="Path 28630" d="M421.457,187.973h1.488V191.8h-1.488Z" transform="translate(-400.55 -178.648)" fill="red"/>
  </g>
</svg>
