<svg xmlns="http://www.w3.org/2000/svg" width="40" height="40" viewBox="0 0 40 40">
  <g id="computer" transform="translate(-1 -1)">
    <path id="Path_28722" data-name="Path 28722" d="M37.774,1H4.226A3.229,3.229,0,0,0,1,4.226V28.1a3.229,3.229,0,0,0,3.226,3.226H16.3a4.43,4.43,0,0,1,.386,4.516H13.9a3.229,3.229,0,0,0-3.226,3.226v1.29a.645.645,0,0,0,.645.645H30.677a.645.645,0,0,0,.645-.645v-1.29A3.229,3.229,0,0,0,28.1,35.839H25.315a4.513,4.513,0,0,1-.445-1.935,4.452,4.452,0,0,1,.828-2.581H37.774A3.229,3.229,0,0,0,41,28.1V4.226A3.229,3.229,0,0,0,37.774,1ZM4.226,2.29H37.774A1.938,1.938,0,0,1,39.71,4.226V22.29h-1.29V4.871a1.292,1.292,0,0,0-1.29-1.29H4.871a1.292,1.292,0,0,0-1.29,1.29V22.29H2.29V4.226A1.938,1.938,0,0,1,4.226,2.29ZM26.27,10.679a3.124,3.124,0,0,1,1.895-.647,3.167,3.167,0,0,1,2.973,2.147.646.646,0,0,0,.61.434h5.382V13.9h-5.39a.644.644,0,0,0-.608.431,3.2,3.2,0,0,1-2.455,2.108,3.122,3.122,0,0,1-2.41-.606,2.581,2.581,0,0,0,0-5.157Zm10.859.643H32.181A4.415,4.415,0,0,0,24.31,11a.645.645,0,0,0,.561.964h1.29a1.29,1.29,0,1,1,0,2.581H24.87a.646.646,0,0,0-.56.965,4.418,4.418,0,0,0,3.855,2.261,4.614,4.614,0,0,0,.713-.056,4.493,4.493,0,0,0,3.293-2.524h4.958v7.1H4.871V4.871H37.129Zm-7.1,27.742v.645H11.968v-.645A1.938,1.938,0,0,1,13.9,37.129H28.1A1.938,1.938,0,0,1,30.032,39.065Zm-6.108-3.226H18.075a5.7,5.7,0,0,0-.267-4.516h6.383a5.7,5.7,0,0,0-.267,4.516Zm13.85-5.806H4.226A1.938,1.938,0,0,1,2.29,28.1V23.581H39.71V28.1A1.938,1.938,0,0,1,37.774,30.032Z" fill="#fff"/>
    <path id="Path_28723" data-name="Path 28723" d="M30.935,38a1.935,1.935,0,1,0,1.935,1.935A1.938,1.938,0,0,0,30.935,38Zm0,2.581a.645.645,0,1,1,.645-.645A.646.646,0,0,1,30.935,40.581Z" transform="translate(-9.935 -13.129)" fill="#fff"/>
    <path id="Path_28724" data-name="Path 28724" d="M13.645,18.032h.892l.259.518-.961.961a.644.644,0,0,0,0,.912l1.935,1.935a.644.644,0,0,0,.912,0l.961-.961.518.259v.892a.645.645,0,0,0,.645.645h2.581a.645.645,0,0,0,.645-.645v-.892l.518-.259.961.961a.644.644,0,0,0,.912,0l1.935-1.935a.644.644,0,0,0,0-.912L25.4,18.55l.259-.518h.892a.645.645,0,0,0,.645-.645V14.806a.645.645,0,0,0-.645-.645h-.892l-.259-.518.961-.961a.644.644,0,0,0,0-.912L24.424,9.834a.644.644,0,0,0-.912,0l-.961.961-.518-.259V9.645A.645.645,0,0,0,21.387,9H18.806a.645.645,0,0,0-.645.645v.892l-.518.259-.961-.961a.644.644,0,0,0-.912,0L13.834,11.77a.644.644,0,0,0,0,.912l.961.961-.259.518h-.892a.645.645,0,0,0-.645.645v2.581A.645.645,0,0,0,13.645,18.032Zm.645-2.581h.645a.646.646,0,0,0,.577-.357l.645-1.29a.645.645,0,0,0-.121-.745l-.834-.834L16.226,11.2l.834.834a.646.646,0,0,0,.745.121l1.29-.645a.646.646,0,0,0,.357-.577V10.29h1.29v.645a.646.646,0,0,0,.357.577l1.29.645a.647.647,0,0,0,.745-.121l.834-.834,1.023,1.023-.834.834a.645.645,0,0,0-.121.745l.645,1.29a.646.646,0,0,0,.577.357H25.9v1.29h-.645a.646.646,0,0,0-.577.357l-.645,1.29a.645.645,0,0,0,.121.745l.834.834-1.023,1.023-.834-.834a.649.649,0,0,0-.745-.121l-1.29.645a.646.646,0,0,0-.357.577V21.9h-1.29v-.645a.646.646,0,0,0-.357-.577l-1.29-.645a.645.645,0,0,0-.745.121l-.834.834L15.2,19.968l.834-.834a.645.645,0,0,0,.121-.745l-.645-1.29a.646.646,0,0,0-.577-.357H14.29Z" transform="translate(-4.258 -2.839)" fill="#fff"/>
    <path id="Path_28725" data-name="Path 28725" d="M22.226,21.452A3.226,3.226,0,1,0,19,18.226,3.229,3.229,0,0,0,22.226,21.452Zm0-5.161a1.935,1.935,0,1,1-1.935,1.935A1.938,1.938,0,0,1,22.226,16.29Z" transform="translate(-6.387 -4.968)" fill="#fff"/>
  </g>
</svg>
