<svg xmlns="http://www.w3.org/2000/svg" xmlns:xlink="http://www.w3.org/1999/xlink" width="39.682" height="39.667" viewBox="0 0 39.682 39.667">
  <defs>
    <linearGradient id="linear-gradient" x1="0.5" x2="0.5" y2="1" gradientUnits="objectBoundingBox">
      <stop offset="0" stop-color="#0064d8"/>
      <stop offset="1" stop-color="#00326c"/>
    </linearGradient>
  </defs>
  <g id="cv-blue" transform="translate(0 -0.103)">
    <path id="Path_28749" data-name="Path 28749" d="M39.1,4.934H31.256V.684A.581.581,0,0,0,30.675.1H26.906a.581.581,0,1,0,0,1.163h3.188V27.686H9.607V1.266H24.372a.581.581,0,1,0,0-1.163H9.026a.581.581,0,0,0-.581.581v4.25H.581A.581.581,0,0,0,0,5.515V33.082a.581.581,0,0,0,.581.581H7.76a.581.581,0,0,0,0-1.163h-6.6V6.1H8.445V7.341H2.989a.581.581,0,0,0-.581.581V28.267a.581.581,0,0,0,.581.581H36.694a.581.581,0,0,0,.581-.581v-8.26a.581.581,0,1,0-1.163,0v7.679H31.256V10.9h4.856v6.579a.581.581,0,1,0,1.163,0V7.922a.581.581,0,0,0-.581-.581H31.256V6.1H38.52V32.5H10.293a.581.581,0,0,0,0,1.163h6.56V36.2H15.026a2.992,2.992,0,0,0-2.989,2.989.581.581,0,0,0,.581.581H27.064a.581.581,0,0,0,.581-.581A2.992,2.992,0,0,0,24.656,36.2H22.83V33.663H39.1a.581.581,0,0,0,.581-.581V5.515a.581.581,0,0,0-.581-.581ZM8.445,8.5V9.733H5.978V8.5Zm-3.63,0V9.733H3.57V8.5ZM3.57,10.9H8.445V27.686H3.57ZM36.113,8.5V9.733H31.256V8.5Zm-9.725,30.1H13.295a1.829,1.829,0,0,1,1.731-1.245h9.63A1.83,1.83,0,0,1,26.388,38.607ZM18.015,36.2V33.664h3.652V36.2Z" fill="url(#linear-gradient)"/>
    <path id="Path_28750" data-name="Path 28750" d="M235.957,388.218a.581.581,0,1,0,0-1.163h-2.408a.581.581,0,1,0,0,1.163Z" transform="translate(-214.912 -356.961)" fill="url(#linear-gradient)"/>
    <path id="Path_28751" data-name="Path 28751" d="M196.586,217.54h-9.63a.581.581,0,1,0,0,1.163h9.63a.581.581,0,0,0,0-1.163Z" transform="translate(-171.93 -200.585)" fill="url(#linear-gradient)"/>
    <path id="Path_28752" data-name="Path 28752" d="M187.976,279.553h-2.412a.581.581,0,1,0,0,1.163h2.412a.581.581,0,0,0,0-1.163Z" transform="translate(-170.646 -257.791)" fill="url(#linear-gradient)"/>
    <path id="Path_28753" data-name="Path 28753" d="M253.9,279.665h-4.815a.581.581,0,1,0,0,1.163H253.9a.581.581,0,1,0,0-1.163Z" transform="translate(-229.24 -257.895)" fill="url(#linear-gradient)"/>
    <path id="Path_28754" data-name="Path 28754" d="M187.976,248.49h-2.412a.581.581,0,1,0,0,1.163h2.412a.581.581,0,0,0,0-1.163Z" transform="translate(-170.646 -229.136)" fill="url(#linear-gradient)"/>
    <path id="Path_28755" data-name="Path 28755" d="M253.9,248.6h-4.815a.581.581,0,0,0,0,1.163H253.9a.581.581,0,0,0,0-1.163Z" transform="translate(-229.24 -229.24)" fill="url(#linear-gradient)"/>
    <path id="Path_28756" data-name="Path 28756" d="M191.771,62.229a5.4,5.4,0,1,0,5.4,5.4A5.4,5.4,0,0,0,191.771,62.229Zm-1.826,9.215V69.35l0,0,1.238-.313h1.168l1.238.313,0,0v2.094A4.228,4.228,0,0,1,189.945,71.444Zm1.192-4.205v-.806a.634.634,0,1,1,1.268,0v.806a.634.634,0,1,1-1.268,0Zm3.622,3.382V69.332c0-.757-.795-1.2-1.406-1.243a1.785,1.785,0,0,0,.214-.849v-.806a1.8,1.8,0,0,0-3.593,0v.806a1.785,1.785,0,0,0,.214.849c-.611.047-1.406.487-1.406,1.243v1.289a4.234,4.234,0,1,1,5.977,0Z" transform="translate(-171.93 -57.311)" fill="url(#linear-gradient)"/>
  </g>
</svg>
