<svg xmlns="http://www.w3.org/2000/svg" xmlns:xlink="http://www.w3.org/1999/xlink" width="34.475" height="35.06" viewBox="0 0 34.475 35.06">
  <defs>
    <linearGradient id="linear-gradient" x1="0.5" x2="0.5" y2="1" gradientUnits="objectBoundingBox">
      <stop offset="0" stop-color="#0064d8"/>
      <stop offset="1" stop-color="#00326c"/>
    </linearGradient>
  </defs>
  <g id="data" transform="translate(-4)">
    <g id="Group_8051" data-name="Group 8051" transform="translate(4)">
      <g id="Group_8050" data-name="Group 8050" transform="translate(0)">
        <path id="Path_28714" data-name="Path 28714" d="M30.295,0H6.922A2.925,2.925,0,0,0,4,2.922v18.7A2.922,2.922,0,0,0,6.192,24.45l.292-1.131a1.753,1.753,0,0,1-1.315-1.7V2.922A1.753,1.753,0,0,1,6.922,1.169H30.295a1.753,1.753,0,0,1,1.753,1.753v.584h1.169V2.922A2.925,2.925,0,0,0,30.295,0Z" transform="translate(-4)" fill="url(#linear-gradient)"/>
      </g>
    </g>
    <g id="Group_8053" data-name="Group 8053" transform="translate(6.463 2.463)">
      <g id="Group_8052" data-name="Group 8052" transform="translate(0 0)">
        <rect id="Rectangle_1116" data-name="Rectangle 1116" width="1.231" height="1.231" fill="url(#linear-gradient)"/>
      </g>
    </g>
    <g id="Group_8055" data-name="Group 8055" transform="translate(8.925 2.463)">
      <g id="Group_8054" data-name="Group 8054" transform="translate(0 0)">
        <rect id="Rectangle_1117" data-name="Rectangle 1117" width="0.616" height="1.231" fill="url(#linear-gradient)"/>
      </g>
    </g>
    <g id="Group_8057" data-name="Group 8057" transform="translate(10.772 2.463)">
      <g id="Group_8056" data-name="Group 8056" transform="translate(0 0)">
        <rect id="Rectangle_1118" data-name="Rectangle 1118" width="1.231" height="1.231" fill="url(#linear-gradient)"/>
      </g>
    </g>
    <g id="Group_8059" data-name="Group 8059" transform="translate(9.843 9.349)">
      <g id="Group_8058" data-name="Group 8058">
        <path id="Path_28715" data-name="Path 28715" d="M112.461,150.96l-5.542-5.542a8.081,8.081,0,0,0,.694-1.641h.929v-1.169h-.678a7.873,7.873,0,0,0-.491-4.187v-5.746H106.2V136.4a8.224,8.224,0,0,0-1.169-1.213v-4.845h-1.169v4.028a8.128,8.128,0,0,0-1.169-.558V128H101.53v5.453a8.091,8.091,0,0,0-1.169-.164v-4.12H99.193v4.12a8.091,8.091,0,0,0-1.169.164v-1.947H96.855v2.3a8.129,8.129,0,0,0-1.169.558v-3.444H94.518v4.261a8.224,8.224,0,0,0-1.169,1.213V132.09H92.181v6.331a7.873,7.873,0,0,0-.491,4.187H84v1.169h7.941a8.164,8.164,0,0,0,12.53,4.352l5.41,5.41a.584.584,0,0,0,.826,0l1.753-1.753A.584.584,0,0,0,112.461,150.96Zm-12.684-2.509a7.012,7.012,0,1,1,7.012-7.012A7.02,7.02,0,0,1,99.777,148.452Zm10.518,3.848-4.915-4.915a8.278,8.278,0,0,0,.879-.974l4.963,4.963Z" transform="translate(-84 -128)" fill="url(#linear-gradient)"/>
      </g>
    </g>
    <g id="Group_8061" data-name="Group 8061" transform="translate(19.777 16.946)">
      <g id="Group_8060" data-name="Group 8060">
        <path id="Path_28716" data-name="Path 28716" d="M225.843,232a5.843,5.843,0,1,0,5.843,5.843A5.843,5.843,0,0,0,225.843,232Zm0,10.518a4.675,4.675,0,0,1-4.042-2.337h8.085A4.675,4.675,0,0,1,225.843,242.518Zm-4.521-3.506a4.632,4.632,0,0,1,1.6-4.812v3.643h1.169v-4.33a4.654,4.654,0,0,1,1.169-.3v4.634h1.169v-4.634a4.654,4.654,0,0,1,1.169.3v4.33h1.169V234.2a4.632,4.632,0,0,1,1.6,4.812Z" transform="translate(-220 -232)" fill="url(#linear-gradient)"/>
      </g>
    </g>
    <g id="Group_8063" data-name="Group 8063" transform="translate(7.506 4.675)">
      <g id="Group_8062" data-name="Group 8062">
        <path id="Path_28717" data-name="Path 28717" d="M78.295,64H54.922A2.925,2.925,0,0,0,52,66.922v18.7a2.925,2.925,0,0,0,2.922,2.922h7.6V87.373h-7.6a1.753,1.753,0,0,1-1.753-1.753v-18.7a1.753,1.753,0,0,1,1.753-1.753H78.295a1.753,1.753,0,0,1,1.753,1.753v18.7a1.753,1.753,0,0,1-.438,1.159l.876.773a2.918,2.918,0,0,0,.73-1.932v-18.7A2.925,2.925,0,0,0,78.295,64Z" transform="translate(-52 -64)" fill="url(#linear-gradient)"/>
      </g>
    </g>
    <g id="Group_8065" data-name="Group 8065" transform="translate(9.541 6.772)">
      <g id="Group_8064" data-name="Group 8064" transform="translate(0 0)">
        <rect id="Rectangle_1119" data-name="Rectangle 1119" width="1.231" height="1.231" fill="url(#linear-gradient)"/>
      </g>
    </g>
    <g id="Group_8067" data-name="Group 8067" transform="translate(12.003 6.772)">
      <g id="Group_8066" data-name="Group 8066" transform="translate(0 0)">
        <rect id="Rectangle_1120" data-name="Rectangle 1120" width="1.231" height="1.231" fill="url(#linear-gradient)"/>
      </g>
    </g>
    <g id="Group_8069" data-name="Group 8069" transform="translate(14.466 6.772)">
      <g id="Group_8068" data-name="Group 8068" transform="translate(0 0)">
        <rect id="Rectangle_1121" data-name="Rectangle 1121" width="1.231" height="1.231" fill="url(#linear-gradient)"/>
      </g>
    </g>
    <g id="Group_8071" data-name="Group 8071" transform="translate(10.772 19.085)">
      <g id="Group_8070" data-name="Group 8070" transform="translate(0 0)">
        <rect id="Rectangle_1122" data-name="Rectangle 1122" width="1.231" height="3.694" fill="url(#linear-gradient)"/>
      </g>
    </g>
    <g id="Group_8073" data-name="Group 8073" transform="translate(13.234 16.006)">
      <g id="Group_8072" data-name="Group 8072" transform="translate(0 0)">
        <rect id="Rectangle_1123" data-name="Rectangle 1123" width="1.231" height="6.772" fill="url(#linear-gradient)"/>
      </g>
    </g>
    <g id="Group_8075" data-name="Group 8075" transform="translate(15.697 17.238)">
      <g id="Group_8074" data-name="Group 8074" transform="translate(0 0)">
        <rect id="Rectangle_1124" data-name="Rectangle 1124" width="1.231" height="5.541" fill="url(#linear-gradient)"/>
      </g>
    </g>
  </g>
</svg>
