<svg xmlns="http://www.w3.org/2000/svg" xmlns:xlink="http://www.w3.org/1999/xlink" width="39.666" height="39.667" viewBox="0 0 39.666 39.667">
  <defs>
    <linearGradient id="linear-gradient" x1="0.5" x2="0.5" y2="1" gradientUnits="objectBoundingBox">
      <stop offset="0" stop-color="#0064d8"/>
      <stop offset="1" stop-color="#00326c"/>
    </linearGradient>
  </defs>
  <g id="data-protection-blue" transform="translate(-1 -1)">
    <path id="Path_28740" data-name="Path 28740" d="M40.027,4.839h-.348a10.8,10.8,0,0,1-7.691-3.185l-.466-.466a.639.639,0,0,0-.9,0l-.466.466a10.8,10.8,0,0,1-7.691,3.185h-.348a.64.64,0,0,0-.64.64v6.248a10.883,10.883,0,0,0,1.752,5.908H16.995V15.715a.638.638,0,0,0-.187-.452l-1.28-1.28a.639.639,0,0,0-.9,0l-1.28,1.28a.638.638,0,0,0-.187.452v1.919H2.919A1.922,1.922,0,0,0,1,19.554V33.629a1.922,1.922,0,0,0,1.919,1.919h9.332l-1.28,1.28H8.677a1.922,1.922,0,0,0-1.919,1.919v1.28a.64.64,0,0,0,.64.64H22.753a.64.64,0,0,0,.64-.64v-1.28a1.922,1.922,0,0,0-1.919-1.919H19.179l-1.28-1.28h9.332a1.922,1.922,0,0,0,1.919-1.919V22.808L30.7,23.913a.639.639,0,0,0,.743,0l4.67-3.336a10.9,10.9,0,0,0,4.555-8.85V5.478a.64.64,0,0,0-.64-.64ZM24.191,18.914c.194.221.4.434.614.64h-7.81v-.64Zm-7.2,1.919h8.957V32.349H4.2V20.833h8.957v1.075a4.478,4.478,0,1,0,3.839,0Zm-2.559,1.5V15.98l.64-.64.64.64v6.356a.638.638,0,0,0,.427.6,3.2,3.2,0,1,1-2.133,0A.639.639,0,0,0,14.435,22.336Zm7.677,16.411v.64H8.038v-.64a.64.64,0,0,1,.64-.64h12.8A.64.64,0,0,1,22.113,38.747Zm-4.743-1.919H12.781l1.28-1.28H16.09Zm10.5-3.2a.64.64,0,0,1-.64.64H2.919a.64.64,0,0,1-.64-.64V19.554a.641.641,0,0,1,.64-.64H13.156v.64h-9.6a.64.64,0,0,0-.64.64v12.8a.64.64,0,0,0,.64.64H26.591a.64.64,0,0,0,.64-.64V21.436l.64.457Zm11.516-21.9a9.617,9.617,0,0,1-4.018,7.809l-4.3,3.07-4.3-3.071a9.614,9.614,0,0,1-4.018-7.809V6.115a12.073,12.073,0,0,0,8.3-3.557l.013-.013.013.013a12.073,12.073,0,0,0,8.3,3.557Z" fill="url(#linear-gradient)"/>
    <path id="Path_28741" data-name="Path 28741" d="M22,41h1.28v1.28H22Z" transform="translate(-7.565 -14.409)" fill="url(#linear-gradient)"/>
    <path id="Path_28742" data-name="Path 28742" d="M42.28,12.2v1.919h-.64a.64.64,0,0,0-.64.64v5.118a.64.64,0,0,0,.64.64h7.677a.64.64,0,0,0,.64-.64V14.758a.64.64,0,0,0-.64-.64h-.64V12.2a3.2,3.2,0,0,0-6.4,0Zm6.4,7.038h-6.4V15.4h6.4ZM47.4,12.2v1.919H43.559V12.2a1.919,1.919,0,0,1,3.839,0Z" transform="translate(-14.409 -2.882)" fill="url(#linear-gradient)"/>
    <path id="Path_28743" data-name="Path 28743" d="M47,21h1.28v1.28H47Z" transform="translate(-16.57 -7.204)" fill="url(#linear-gradient)"/>
    <path id="Path_28744" data-name="Path 28744" d="M22,17h1.28v1.28H22Z" transform="translate(-7.565 -5.764)" fill="url(#linear-gradient)"/>
    <path id="Path_28745" data-name="Path 28745" d="M22,13h1.28v1.28H22Z" transform="translate(-7.565 -4.323)" fill="url(#linear-gradient)"/>
    <path id="Path_28746" data-name="Path 28746" d="M26,13h1.28v1.28H26Z" transform="translate(-9.005 -4.323)" fill="url(#linear-gradient)"/>
    <path id="Path_28747" data-name="Path 28747" d="M30,13h1.28v1.28H30Z" transform="translate(-10.446 -4.323)" fill="url(#linear-gradient)"/>
    <path id="Path_28748" data-name="Path 28748" d="M37,13h1.28v1.28H37Z" transform="translate(-12.968 -4.323)" fill="url(#linear-gradient)"/>
  </g>
</svg>
