<svg xmlns="http://www.w3.org/2000/svg" xmlns:xlink="http://www.w3.org/1999/xlink" width="32.001" height="32" viewBox="0 0 32.001 32">
  <defs>
    <linearGradient id="linear-gradient" x1="0.5" x2="0.5" y2="1" gradientUnits="objectBoundingBox">
      <stop offset="0" stop-color="#0064d8"/>
      <stop offset="1" stop-color="#1c2848"/>
    </linearGradient>
  </defs>
  <g id="emai" transform="translate(-0.001 -0.005)">
    <g id="Group_61" data-name="Group 61" transform="translate(0.001 0.004)">
      <g id="Group_60" data-name="Group 60" transform="translate(0 0)">
        <path id="Path_45" data-name="Path 45" d="M32,12.238a.5.5,0,0,0-.022-.108.533.533,0,0,0-.03-.092.479.479,0,0,0-.053-.082.5.5,0,0,0-.071-.083c-.009-.007-.012-.018-.021-.025L26.668,7.865V3.736a1.6,1.6,0,0,0-1.6-1.6h-5.78L16.973.339a1.581,1.581,0,0,0-1.945,0l-2.315,1.8H6.933a1.6,1.6,0,0,0-1.6,1.6V7.865L.205,11.849c-.009.008-.013.018-.021.025a.5.5,0,0,0-.071.083.476.476,0,0,0-.053.082.526.526,0,0,0-.03.092.505.505,0,0,0-.022.107c0,.011-.006.021-.006.032V30.4a1.582,1.582,0,0,0,.313.941s0,.011.007.015.012.009.017.015A1.592,1.592,0,0,0,1.6,32H30.4a1.593,1.593,0,0,0,1.265-.631c0-.005.011-.007.014-.012s0-.01.007-.015A1.582,1.582,0,0,0,32,30.4V12.27C32,12.259,32,12.249,32,12.238ZM15.68,1.181a.511.511,0,0,1,.636,0l1.23.955H14.454ZM1.734,30.938,15.68,20.1a.512.512,0,0,1,.636,0l13.95,10.833Zm29.2-.832L16.973,19.263a1.583,1.583,0,0,0-1.945,0L1.066,30.106V13.082l8.74,6.787a.534.534,0,1,0,.654-.843l-8.88-6.895L5.333,9.215v4.121a.533.533,0,1,0,1.067,0v-9.6A.533.533,0,0,1,6.933,3.2H25.068a.533.533,0,0,1,.533.533v9.6a.533.533,0,1,0,1.067,0V9.215l3.752,2.916-8.895,6.907a.533.533,0,1,0,.654.843l8.756-6.8V30.106Z" transform="translate(-0.001 -0.004)" fill="url(#linear-gradient)"/>
        <path id="Path_46" data-name="Path 46" d="M166.375,76.771V74.637a6.4,6.4,0,1,0-6.4,6.4.533.533,0,0,0,0-1.067,5.334,5.334,0,1,1,5.334-5.334v2.133a1.067,1.067,0,0,1-2.134,0V74.638a.533.533,0,1,0-1.067,0,2.133,2.133,0,1,1-2.133-2.133.533.533,0,0,0,0-1.067A3.2,3.2,0,1,0,162.131,77a2.128,2.128,0,0,0,4.244-.225Z" transform="translate(-143.975 -63.972)" fill="url(#linear-gradient)"/>
      </g>
    </g>
  </g>
</svg>
