<svg xmlns="http://www.w3.org/2000/svg" width="27.966" height="24.492" viewBox="0 0 27.966 24.492">
  <g id="email" transform="translate(0.25 0.25)">
    <g id="Group_5888" data-name="Group 5888">
      <g id="Group_5887" data-name="Group 5887" transform="translate(0 0)">
        <path id="Path_9112" data-name="Path 9112" d="M27.339,36.459l-3.978-2.81v-4.1a.884.884,0,0,0-.758-.789H5.177a.884.884,0,0,0-.758.789v4.072L.284,36.459A.694.694,0,0,0,0,36.964v15a.915.915,0,0,0,.789.789h26.2c.347,0,.474-.41.474-.789v-15C27.465,36.774,27.5,36.585,27.339,36.459Zm-3.978-1.294,2.715,1.863-2.715,2.052ZM5.682,30.019H22.1V40.058L13.89,46.245,5.682,40.058V30.019ZM4.42,35.133v3.978L1.7,37.027ZM1.263,38.321,10.1,45.014,1.263,50.98ZM2.778,51.485l8.4-5.651,2.241,1.7a.757.757,0,0,0,.442.158c.126,0,.189-.063.316-.158l2.336-1.8L25,51.485ZM26.2,50.759l-8.65-5.809,8.65-6.629Z" transform="translate(0 -28.756)" fill="#181818" stroke="#181818" stroke-width="0.5"/>
        <path id="Path_9113" data-name="Path 9113" d="M136.468,97.937h2.841a.631.631,0,0,0,0-1.263h-2.841a.631.631,0,1,0,0,1.263Z" transform="translate(-127.629 -92.57)" fill="#181818" stroke="#181818" stroke-width="0.5"/>
        <path id="Path_9114" data-name="Path 9114" d="M136.468,144.958h10.1a.631.631,0,1,0,0-1.263h-10.1a.631.631,0,1,0,0,1.263Z" transform="translate(-127.629 -136.75)" fill="#181818" stroke="#181818" stroke-width="0.5"/>
        <path id="Path_9115" data-name="Path 9115" d="M147.2,191.346a.631.631,0,0,0-.631-.631h-10.1a.631.631,0,1,0,0,1.263h10.1A.631.631,0,0,0,147.2,191.346Z" transform="translate(-127.629 -180.929)" fill="#181818" stroke="#181818" stroke-width="0.5"/>
      </g>
    </g>
  </g>
</svg>
