<svg id="email" xmlns="http://www.w3.org/2000/svg" width="41" height="41.002" viewBox="0 0 41 41.002">
  <path id="Path_29025" data-name="Path 29025" d="M42.727,17.169l-3.827-2.9V6.782a.683.683,0,0,0-.683-.683H28.135L22.91,2.136a.683.683,0,0,0-.825,0L16.865,6.1H6.783a.683.683,0,0,0-.683.683v7.485l-3.827,2.9A.683.683,0,0,0,2,17.716v24.6A.683.683,0,0,0,2.683,43H42.317A.683.683,0,0,0,43,42.316v-24.6A.683.683,0,0,0,42.727,17.169ZM3.367,19.092l14.4,10.924L3.367,40.939ZM22.5,28.14,40.285,41.632H4.715Zm4.733,1.876,14.4-10.924V40.939Zm13.953-12.3L38.9,19.449V15.983ZM22.5,3.54,25.874,6.1H19.126ZM37.533,7.466v13.02L26.1,29.157,22.91,26.736a.683.683,0,0,0-.825,0L18.9,29.155,7.467,20.486V7.466ZM6.1,19.449,3.814,17.716,6.1,15.982Z" transform="translate(-2 -1.997)" fill="#fff"/>
  <path id="Path_29026" data-name="Path 29026" d="M29.15,27.3H31.2a.683.683,0,0,0,0-1.367H29.15a4.783,4.783,0,1,1,4.783-4.783v1.367a.683.683,0,1,1-1.367,0V21.15A3.433,3.433,0,1,0,31.518,23.6,2.046,2.046,0,0,0,35.3,22.517V21.15a6.15,6.15,0,1,0-6.15,6.15Zm0-4.1a2.05,2.05,0,1,1,2.05-2.05A2.05,2.05,0,0,1,29.15,23.2Z" transform="translate(-8.65 -6.115)" fill="#fff"/>
</svg>
