<svg xmlns="http://www.w3.org/2000/svg" width="39.667" height="39.667" viewBox="0 0 39.667 39.667">
  <g id="increase" transform="translate(-1 -1)">
    <path id="Path_28718" data-name="Path 28718" d="M38.747,1H8.038A1.922,1.922,0,0,0,6.118,2.919v9.433A9.585,9.585,0,0,0,8.038,30.073v8.034a2.559,2.559,0,1,0,5.118,0V32.989H38.747a1.922,1.922,0,0,0,1.919-1.919V2.919A1.922,1.922,0,0,0,38.747,1ZM8.038,2.28h30.71a.64.64,0,0,1,.64.64V8.677H36.2l.592-2.961a1.8,1.8,0,0,0-1.768-2.157,1.781,1.781,0,0,0-.354.035l-5.452,1.09a1.677,1.677,0,0,0-.856,2.83l.825.826-.365.337H7.4V2.919a.64.64,0,0,1,.64-.64ZM16.995,14.81,6.724,25.081a5.813,5.813,0,0,1-.937-1.092L16.995,12.781l4.462,4.462,9.577-8.867L29.267,6.61a.4.4,0,0,1,.2-.67l5.452-1.09a.534.534,0,0,1,.627.514.507.507,0,0,1-.01.1l-1.09,5.452a.414.414,0,0,1-.67.2L32.043,9.386,21.487,19.3Zm-.64,6.023A5.75,5.75,0,0,1,7.77,25.844l7.839-7.839A5.7,5.7,0,0,1,16.355,20.833Zm-11.516,0a5.742,5.742,0,0,1,7.706-5.412L5.185,22.781a5.715,5.715,0,0,1-.346-1.948ZM7.4,9.957H27.441l-5.951,5.51-4.5-4.5-1.571,1.571A9.514,9.514,0,0,0,7.4,11.8ZM2.28,20.833a8.312,8.312,0,0,1,12.2-7.35l-.962.962a6.992,6.992,0,1,0,3.024,2.624l.45-.45,1.441,1.441A8.316,8.316,0,1,1,2.28,20.833ZM10.6,39.387a1.281,1.281,0,0,1-1.28-1.28V30.335a9.59,9.59,0,0,0,1.28.1,9.591,9.591,0,0,0,1.28-.1v7.773A1.281,1.281,0,0,1,10.6,39.387ZM38.747,31.71H13.156V30.073A9.624,9.624,0,0,0,18.914,25.6V30.43H38.107V13.8H34.269V29.151h-1.28V15.075H29.151V29.151h-1.28V18.914H24.032V29.151h-1.28v-6.4H20a9.263,9.263,0,0,0,.125-3l1.333,1.333,10.556-9.917.857.857a1.663,1.663,0,0,0,1.186.491A1.681,1.681,0,0,0,35.7,11.169l.242-1.212h3.442V31.07a.64.64,0,0,1-.64.64ZM20.194,29.151V24.032h1.28v5.118Zm6.4,0h-1.28V20.194h1.28Zm5.118,0H30.43v-12.8h1.28Zm3.839,0V15.075h1.28V29.151Z" transform="translate(0 0)" fill="#fff"/>
    <path id="Path_28719" data-name="Path 28719" d="M16.839,5H13V8.839h3.839Zm-1.28,2.559H14.28V6.28h1.28Z" transform="translate(-4.323 -1.441)" fill="#fff"/>
    <path id="Path_28720" data-name="Path 28720" d="M24.839,5H21V8.839h3.839Zm-1.28,2.559H22.28V6.28h1.28Z" transform="translate(-7.204 -1.441)" fill="#fff"/>
    <path id="Path_28721" data-name="Path 28721" d="M32.839,5H29V8.839h3.839Zm-1.28,2.559H30.28V6.28h1.28Z" transform="translate(-10.086 -1.441)" fill="#fff"/>
  </g>
</svg>
