<svg id="linked-in" xmlns="http://www.w3.org/2000/svg" width="24.009" height="21.931" viewBox="0 0 24.009 21.931">
  <g id="linked-in-logo-of-two-letters">
    <g id="Group_3228" data-name="Group 3228">
      <path id="Path_18730" data-name="Path 18730" d="M.78,194.052H3.9a.78.78,0,0,0,.78-.78V179.63a.78.78,0,0,0-.78-.78H.78a.78.78,0,0,0-.78.78v13.643A.78.78,0,0,0,.78,194.052Z" transform="translate(0 -172.121)" fill="#1856ff"/>
      <path id="Path_18731" data-name="Path 18731" d="M.78,28.247H3.9a.78.78,0,0,0,.78-.78V24.7a.78.78,0,0,0-.78-.78H.78A.78.78,0,0,0,0,24.7v2.772A.78.78,0,0,0,.78,28.247Z" transform="translate(0 -23.916)" fill="#1856ff"/>
      <path id="Path_18732" data-name="Path 18732" d="M196.493,171.627a4.746,4.746,0,0,0-1.94-1.424,7.026,7.026,0,0,0-2.832-.558,6.935,6.935,0,0,0-5.329,2.4c-.29.318-.5.249-.5-.182v-1.039a.78.78,0,0,0-.78-.78h-2.788a.78.78,0,0,0-.78.78v13.643a.78.78,0,0,0,.78.78h3.121a.78.78,0,0,0,.78-.78v-4.745a15.265,15.265,0,0,1,.358-4.064,3.356,3.356,0,0,1,1.324-1.766,3.753,3.753,0,0,1,2.182-.666,2.785,2.785,0,0,1,1.624.467,2.6,2.6,0,0,1,.974,1.308,13.95,13.95,0,0,1,.3,3.706v5.76a.78.78,0,0,0,.78.78h3.121a.78.78,0,0,0,.78-.78v-7.726a14.631,14.631,0,0,0-.258-3.148A5.156,5.156,0,0,0,196.493,171.627Z" transform="translate(-173.659 -163.315)" fill="#1856ff"/>
    </g>
  </g>
</svg>
