<svg xmlns="http://www.w3.org/2000/svg" width="16.195" height="23.551" viewBox="0 0 16.195 23.551">
  <g id="location" transform="translate(0)">
    <path id="Path_18724" data-name="Path 18724" d="M95.037,4.033A7.992,7.992,0,0,0,88.246,0c-.121,0-.242,0-.362,0a7.992,7.992,0,0,0-6.791,4.031,8.2,8.2,0,0,0-.107,8.1l5.84,10.689.008.014a1.42,1.42,0,0,0,2.463,0l.008-.014,5.84-10.689a8.2,8.2,0,0,0-.107-8.1Zm-6.972,6.639a3.312,3.312,0,1,1,3.312-3.312A3.316,3.316,0,0,1,88.065,10.671Z" transform="translate(-79.968 0)" fill="#fff"/>
  </g>
</svg>
