<svg xmlns="http://www.w3.org/2000/svg" width="35.287" height="25.454" viewBox="0 0 35.287 25.454">
  <g id="mail" transform="translate(0)">
    <g id="Group_387" data-name="Group 387" transform="translate(1.772)">
      <g id="Group_386" data-name="Group 386">
        <path id="Path_1323" data-name="Path 1323" d="M56.134,61H27.049a3.066,3.066,0,0,0-1.328.31l15.8,15.8,3.541-3.4h0l12.4-12.4A3.066,3.066,0,0,0,56.134,61Z" transform="translate(-25.721 -61)" fill="#fff"/>
      </g>
    </g>
    <g id="Group_389" data-name="Group 389" transform="translate(23.31 1.774)">
      <g id="Group_388" data-name="Group 388">
        <path id="Path_1324" data-name="Path 1324" d="M349.88,86.728,338.213,97.683l11.667,10.955a2.734,2.734,0,0,0,.31-1.247V87.975A2.735,2.735,0,0,0,349.88,86.728Z" transform="translate(-338.213 -86.728)" fill="#fff"/>
      </g>
    </g>
    <g id="Group_391" data-name="Group 391" transform="translate(0 1.772)">
      <g id="Group_390" data-name="Group 390">
        <path id="Path_1325" data-name="Path 1325" d="M.31,86.721A2.735,2.735,0,0,0,0,87.968v19.414a2.735,2.735,0,0,0,.31,1.247L11.977,97.674Z" transform="translate(0 -86.721)" fill="#fff"/>
      </g>
    </g>
    <g id="Group_393" data-name="Group 393" transform="translate(1.772 13.477)">
      <g id="Group_392" data-name="Group 392">
        <path id="Path_1326" data-name="Path 1326" d="M45.79,277.211l-3.543,3.4a1.04,1.04,0,0,1-1.462,0l-3.4-3.4L25.714,288.878a3.066,3.066,0,0,0,1.328.31H56.127a3.066,3.066,0,0,0,1.328-.31Z" transform="translate(-25.714 -277.211)" fill="#fff"/>
      </g>
    </g>
  </g>
</svg>
