<svg xmlns="http://www.w3.org/2000/svg" width="21.47" height="28.5" viewBox="0 0 21.47 28.5">
  <g id="name" transform="translate(0.25 0.25)">
    <path id="Path_256" data-name="Path 256" d="M146.485,178.378a3.185,3.185,0,1,0-3.185-3.185A3.185,3.185,0,0,0,146.485,178.378Zm0-5.138a1.955,1.955,0,1,1-1.955,1.955,1.955,1.955,0,0,1,1.955-1.955Zm0,0" transform="translate(-135.999 -163.516)" fill="#181818" stroke="#181818" stroke-width="0.5"/>
    <path id="Path_257" data-name="Path 257" d="M113.564,325.123a4.786,4.786,0,0,0-3.466,1.449,5.115,5.115,0,0,0-1.433,3.62.619.619,0,0,0,.617.617h8.56a.619.619,0,0,0,.617-.617,5.115,5.115,0,0,0-1.433-3.62A4.785,4.785,0,0,0,113.564,325.123Zm-3.62,4.453a3.772,3.772,0,0,1,1.035-2.14,3.633,3.633,0,0,1,5.168,0,3.792,3.792,0,0,1,1.035,2.14Zm0,0" transform="translate(-103.08 -309.082)" fill="#181818" stroke="#181818" stroke-width="0.5"/>
    <path id="Path_258" data-name="Path 258" d="M13.3,0H-1.5A3.085,3.085,0,0,0-4.582,3.084V24.916A3.085,3.085,0,0,0-1.5,28H13.3a3.085,3.085,0,0,0,3.084-3.084V3.084A3.085,3.085,0,0,0,13.3,0Zm1.848,24.916A1.855,1.855,0,0,1,13.3,26.767H-1.5a1.855,1.855,0,0,1-1.851-1.851V3.084A1.855,1.855,0,0,1-1.5,1.233H13.3a1.855,1.855,0,0,1,1.848,1.851Zm0,0" transform="translate(4.582)" fill="#181818" stroke="#181818" stroke-width="0.5"/>
    <path id="Path_259" data-name="Path 259" d="M143.916,60.108h4.937a.617.617,0,1,0,0-1.233h-4.937a.617.617,0,0,0,0,1.233Zm0,0" transform="translate(-136.003 -55.97)" fill="#181818" stroke="#181818" stroke-width="0.5"/>
  </g>
</svg>
