<svg id="open-book" xmlns="http://www.w3.org/2000/svg" width="47.552" height="38.987" viewBox="0 0 47.552 38.987">
  <path id="Path_2800" data-name="Path 2800" d="M250.681,33.958V0l-1.3.109a49.831,49.831,0,0,0-15.1,3.682L232,4.737V38.561l1.661-.69a51.838,51.838,0,0,1,15.624-3.8Zm0,0" transform="translate(-207.375)" fill="#fff"/>
  <path id="Path_2801" data-name="Path 2801" d="M284.1,47.3h-2.547v29.72a.849.849,0,0,1-.779.849l-2.175.178q-.942.078-1.877.193c-.2.024-.4.057-.6.085-.42.056-.84.113-1.258.179-.244.039-.486.085-.729.127-.374.065-.75.131-1.123.2-.255.051-.51.108-.769.163-.356.075-.712.153-1.065.237-.265.063-.529.13-.792.2-.344.085-.686.177-1.027.272-.266.073-.532.15-.8.228-.34.1-.674.2-1.01.309l-.787.255q-.5.17-1,.351c-.255.092-.51.185-.77.283-.117.044-.232.092-.348.137H284.1Zm0,0" transform="translate(-236.551 -42.277)" fill="#fff"/>
  <path id="Path_2802" data-name="Path 2802" d="M41.3.109,40,0V33.96l1.507.128A51.489,51.489,0,0,1,57.115,37.91l1.566.651V4.737L56.4,3.791A49.829,49.829,0,0,0,41.3.109Zm0,0" transform="translate(-35.754)" fill="#fff"/>
  <path id="Path_2803" data-name="Path 2803" d="M0,47.3V81.262H19.476c-.1-.041-.209-.085-.314-.124-.243-.092-.488-.181-.733-.27-.345-.125-.69-.247-1.037-.364q-.377-.128-.756-.248-.517-.17-1.037-.319c-.255-.075-.51-.15-.764-.221-.349-.1-.7-.188-1.05-.278-.255-.066-.51-.131-.77-.192-.356-.085-.714-.163-1.071-.24-.255-.055-.51-.111-.764-.162-.37-.073-.742-.138-1.114-.2l-.732-.129c-.41-.065-.822-.12-1.234-.176-.208-.028-.415-.061-.622-.085q-.934-.113-1.868-.193l-2.286-.194a.849.849,0,0,1-.777-.849V47.3Zm0,0" transform="translate(0 -42.277)" fill="#fff"/>
</svg>
