<svg xmlns="http://www.w3.org/2000/svg" width="38.427" height="38.427" viewBox="0 0 38.427 38.427">
  <g id="phone-contact" transform="translate(0)">
    <path id="Path_8" data-name="Path 8" d="M33.16,19.414H31.2a11.608,11.608,0,0,0-11.594-11.6V5.861A13.565,13.565,0,0,1,33.16,19.414ZM19.605,9.241V11.2a8.219,8.219,0,0,1,8.212,8.214h1.96A10.181,10.181,0,0,0,19.605,9.241ZM19.213,0a19.213,19.213,0,1,0,0,38.427,1.186,1.186,0,0,0,0-2.372A16.842,16.842,0,1,1,36.055,19.214c0,3.881-2.066,7.726-5.022,9.357a7.26,7.26,0,0,1-3.481.9,5.568,5.568,0,0,0,1.872-1.8,2.526,2.526,0,0,0,.28-.422,19.109,19.109,0,0,0,.653-2.962c.286-1.252-5.479-3.7-5.981-2.134a14.965,14.965,0,0,1-.822,2.891c-.323.431-1.121.226-1.62-.2-1.314-1.12-2.781-2.766-4.068-4.067h0c-.033-.034-.073-.072-.108-.108s-.073-.073-.109-.108v0c-1.3-1.289-2.948-2.753-4.067-4.069-.423-.5-.628-1.3-.2-1.62a14.965,14.965,0,0,1,2.891-.822c1.56-.5-.882-6.268-2.136-5.981a19,19,0,0,0-2.96.651A2.781,2.781,0,0,0,10.76,9c-3.293,2.087-3.717,7.155-.5,10.931,1.225,1.445,2.5,2.842,3.817,4.207l-.007,0c.036.036.074.071.112.106s.069.073.1.112l.007-.007A36.161,36.161,0,0,0,19.9,29.36c5.532,3.695,9.778,2.663,12.279,1.292,4.317-2.377,6.249-7.456,6.249-11.433A19.236,19.236,0,0,0,19.213,0Z" transform="translate(0)" fill="#fff"/>
  </g>
</svg>
