<svg xmlns="http://www.w3.org/2000/svg" width="34.23" height="34.23" viewBox="0 0 34.23 34.23">
  <g id="phone-ringing" transform="translate(0)">
    <path id="Path_12052" data-name="Path 12052" d="M257.135,18.184a1.07,1.07,0,0,1-1.07-1.07A14.992,14.992,0,0,0,241.09,2.139a1.07,1.07,0,0,1,0-2.139A17.115,17.115,0,0,1,258.2,17.115,1.07,1.07,0,0,1,257.135,18.184Z" transform="translate(-223.974)" fill="#fff"/>
    <path id="Path_12053" data-name="Path 12053" d="M252.856,77.906a1.07,1.07,0,0,1-1.07-1.07,10.709,10.709,0,0,0-10.7-10.7,1.07,1.07,0,0,1,0-2.139,12.85,12.85,0,0,1,12.836,12.836A1.07,1.07,0,0,1,252.856,77.906Z" transform="translate(-223.974 -59.721)" fill="#fff"/>
    <path id="Path_12054" data-name="Path 12054" d="M248.577,137.627a1.07,1.07,0,0,1-1.07-1.07,6.425,6.425,0,0,0-6.418-6.418,1.07,1.07,0,0,1,0-2.139,8.567,8.567,0,0,1,8.557,8.557A1.07,1.07,0,0,1,248.577,137.627Z" transform="translate(-223.974 -119.443)" fill="#fff"/>
    <path id="Path_12055" data-name="Path 12055" d="M33.385,23.529l-7.835-1.679a1.068,1.068,0,0,0-.98.289L21.7,25.009A28.157,28.157,0,0,1,9.222,12.53l2.869-2.869a1.068,1.068,0,0,0,.289-.98L10.7.846A1.07,1.07,0,0,0,9.655,0,9.535,9.535,0,0,0,5.092,1.14,9.708,9.708,0,0,0,.1,8.247,9.465,9.465,0,0,0,.584,12.9,34.892,34.892,0,0,0,8.66,25.57,34.892,34.892,0,0,0,21.33,33.646a9.451,9.451,0,0,0,4.654.483,9.708,9.708,0,0,0,7.107-4.99,9.535,9.535,0,0,0,1.14-4.563A1.07,1.07,0,0,0,33.385,23.529ZM5.457,3.454l-.1.025A7.351,7.351,0,0,1,8.489,2.227a.334.334,0,0,1,.376.261l1.263,5.894a.334.334,0,0,1-.09.306l-.675.675A.334.334,0,0,1,8.8,9.2L7.9,4.983A2.007,2.007,0,0,0,5.457,3.454ZM20.8,27.419a2.01,2.01,0,0,1-2.372.346A29.217,29.217,0,0,1,6.465,15.8a2.01,2.01,0,0,1,.346-2.372h0a.318.318,0,0,1,.508.081,30.292,30.292,0,0,0,13.4,13.4.318.318,0,0,1,.081.508Zm9.948,1.453c.011-.038.02-.076.029-.115a2,2,0,0,0-1.532-2.423l-4.215-.9a.334.334,0,0,1-.166-.563l.675-.675a.334.334,0,0,1,.306-.09l5.894,1.263a.334.334,0,0,1,.261.376A7.352,7.352,0,0,1,30.751,28.873Z" transform="translate(0 0)" fill="#fff"/>
  </g>
</svg>
