<svg xmlns="http://www.w3.org/2000/svg" width="16" height="24" viewBox="0 0 16 24">
  <g id="pin-red" transform="translate(-85.333)">
    <g id="Group_8287" data-name="Group 8287" transform="translate(85.333)">
      <g id="Group_8286" data-name="Group 8286" transform="translate(0)">
        <path id="Path_28637" data-name="Path 28637" d="M93.333,0a8,8,0,0,0-7.04,11.8l6.6,11.94a.5.5,0,0,0,.875,0l6.6-11.944A8,8,0,0,0,93.333,0ZM99.5,11.318,93.333,22.467,87.171,11.322a7,7,0,1,1,12.327,0Z" transform="translate(-85.333)" fill="red"/>
        <path id="Path_28638" data-name="Path 28638" d="M174.667,85.333a4,4,0,1,0,4,4A4,4,0,0,0,174.667,85.333Zm0,7a3,3,0,1,1,3-3A3,3,0,0,1,174.667,92.333Z" transform="translate(-166.667 -81.333)" fill="red"/>
      </g>
    </g>
  </g>
</svg>
