<svg xmlns="http://www.w3.org/2000/svg" width="26.156" height="25.765" viewBox="0 0 26.156 25.765">
  <g id="search-icon" fill="#fff">
    <path d="M24.944,23.591l-6.028-6.028a10.43,10.43,0,1,0-1.359,1.358l6.028,6.028a.961.961,0,1,0,1.358-1.358ZM2.446,10.926a8.459,8.459,0,1,1,.669,3.3,8.448,8.448,0,0,1-.669-3.3Z" stroke="none"/>
    <path d="M 24.2901668548584 25.75664901733398 C 24.18972206115723 25.75664901733398 24.09018516540527 25.74618148803711 23.99307823181152 25.72590827941895 C 23.89597320556641 25.70563697814941 23.80129814147949 25.67555999755859 23.7105770111084 25.63634490966797 C 23.61985778808594 25.59713172912598 23.5330924987793 25.54878044128418 23.45180892944336 25.49195671081543 C 23.37052154541016 25.43513107299805 23.29471969604492 25.36983489990234 23.22592163085938 25.29672813415527 L 17.51989555358887 19.59070205688477 C 17.04649353027344 19.95099258422852 16.54594612121582 20.27051734924316 16.02416610717773 20.54714012145996 C 15.50238418579102 20.82376098632813 14.95936965942383 21.05748176574707 14.40103340148926 21.24616622924805 C 13.84269714355469 21.43485069274902 13.26903820037842 21.57849884033203 12.68596649169922 21.67497634887695 C 12.10289573669434 21.77145195007324 11.51041221618652 21.82075881958008 10.91442680358887 21.82075881958008 C 10.14813995361328 21.82075881958008 9.38961124420166 21.73959732055664 8.650627136230469 21.58247947692871 C 7.911642074584961 21.42536163330078 7.192200660705566 21.19228744506836 6.504085063934326 20.88845825195313 C 5.815969467163086 20.58462715148926 5.1591796875 20.21004295349121 4.545497894287109 19.76990699768066 C 3.931816101074219 19.32976913452148 3.361243009567261 18.82408142089844 2.845561027526855 18.2580451965332 C 2.370862483978271 17.73699378967285 1.951754331588745 17.17744827270508 1.59114146232605 16.58717727661133 C 1.230528473854065 15.99690437316895 0.9284107685089111 15.37590980529785 0.6876935958862305 14.73196220397949 C 0.4469764530658722 14.08801460266113 0.2676598131656647 13.42111396789551 0.152648851275444 12.73903369903564 C 0.03763790801167488 12.05695247650146 -0.01306736748665571 11.35969161987305 0.003438270417973399 10.65501976013184 C 0.01994641497731209 9.950349807739258 0.1032449156045914 9.2562255859375 0.250067800283432 8.580278396606445 C 0.3968906998634338 7.904331684112549 0.6072379946708679 7.246560096740723 0.8778437972068787 6.614590167999268 C 1.148449659347534 5.982620239257813 1.479313850402832 5.376452445983887 1.867170453071594 4.803714275360107 C 2.255027055740356 4.23097562789917 2.699876308441162 3.6916663646698 3.198451995849609 3.193413496017456 C 3.713545799255371 2.67865252494812 4.271075248718262 2.221709251403809 4.863155841827393 1.825847864151001 C 5.455235958099365 1.429986357688904 6.08186674118042 1.095206141471863 6.735164642333984 0.8247712850570679 C 7.388462066650391 0.5543363690376282 8.068426132202148 0.3482466042041779 8.767169952392578 0.2097655087709427 C 9.465914726257324 0.07128447294235229 10.18344116210938 0.0004121150122955441 10.91186428070068 0.0004121150122955441 C 11.59337615966797 0.0004121150122955441 12.26768493652344 0.06366930902004242 12.92727470397949 0.1872705221176147 C 13.58686637878418 0.3108717501163483 14.23173904418945 0.4948169589042664 14.85437870025635 0.7361930012702942 C 15.47701835632324 0.9775691032409668 16.07742691040039 1.276376128196716 16.6480884552002 1.629700779914856 C 17.21874809265137 1.983025431632996 17.7596607208252 2.390867710113525 18.26331329345703 2.850314617156982 C 18.78405380249023 3.325350999832153 19.25299453735352 3.843847036361694 19.66652297973633 4.398332595825195 C 20.08005142211914 4.952818870544434 20.43816947937012 5.543294429779053 20.73726654052734 6.162288188934326 C 21.03636360168457 6.781282424926758 21.27643775939941 7.42879581451416 21.45388031005859 8.097357749938965 C 21.63132476806641 8.765920639038086 21.74613761901855 9.455532073974609 21.79470825195313 10.15871906280518 C 21.84064292907715 10.82375431060791 21.82621383666992 11.48491477966309 21.75358581542969 12.13551712036133 C 21.68095588684082 12.78612041473389 21.55012321472168 13.42616653442383 21.36324882507324 14.04897117614746 C 21.17637252807617 14.67177677154541 20.9334545135498 15.27733898162842 20.63665199279785 15.85897541046143 C 20.3398494720459 16.44061279296875 19.98916244506836 16.99832344055176 19.58675575256348 17.52542686462402 L 25.29841804504395 23.23709869384766 L 25.31329536437988 23.25197792053223 C 25.31502723693848 23.25367546081543 25.31675720214844 23.25537872314453 25.31848335266113 23.25708770751953 C 25.32020950317383 23.25879669189453 25.32192993164063 23.2605094909668 25.32364654541016 23.26222610473633 C 25.32536315917969 23.26394271850586 25.32707786560059 23.26566505432129 25.32878303527832 23.26738739013672 C 25.33048820495605 23.26910972595215 25.33218765258789 23.27083587646484 25.33388137817383 23.27256202697754 L 26.16696357727051 24.10564422607422 L 25.73856735229492 24.10077667236328 C 25.74468994140625 24.1463737487793 25.74866676330566 24.19233512878418 25.75045394897461 24.2385139465332 C 25.75224113464355 24.28469085693359 25.75184059143066 24.33108711242676 25.74920654296875 24.3775463104248 C 25.74657249450684 24.42400741577148 25.7417049407959 24.47053337097168 25.73456192016602 24.51697731018066 C 25.72741508483887 24.56341934204102 25.71799278259277 24.60977745056152 25.70624732971191 24.65590286254883 C 25.67321586608887 24.78563690185547 25.62316513061523 24.90821647644043 25.55855560302734 25.02117538452148 C 25.49394989013672 25.13413429260254 25.41478729248047 25.23747444152832 25.32353591918945 25.3287239074707 C 25.23228454589844 25.41997146606445 25.12894630432129 25.4991340637207 25.01598739624023 25.56374168395996 C 24.90302848815918 25.62834930419922 24.78044509887695 25.67840194702148 24.65070724487305 25.7114315032959 C 24.62125587463379 25.71893119812012 24.59158515930176 25.72550773620605 24.56174659729004 25.73115158081055 C 24.53190994262695 25.73679733276367 24.50190734863281 25.74151039123535 24.47179222106934 25.74528884887695 C 24.44167709350586 25.74906539916992 24.41144752502441 25.75190544128418 24.38115882873535 25.7538013458252 C 24.35087013244629 25.75569534301758 24.32052230834961 25.75664901733398 24.2901668548584 25.75664901733398 Z M 17.58951187133789 18.24433898925781 L 17.9121150970459 18.56694984436035 L 23.93989753723145 24.59473609924316 L 23.9465274810791 24.60135459899902 L 23.95289611816406 24.60822105407715 C 23.97459030151367 24.6316032409668 23.99854469299316 24.65249061584473 24.02426719665527 24.67067337036133 C 24.04998779296875 24.68885612487793 24.07747650146484 24.7043285369873 24.10623931884766 24.71688270568848 C 24.13500213623047 24.72943496704102 24.16504096984863 24.73906326293945 24.19585990905762 24.74555397033691 C 24.22667694091797 24.75204658508301 24.25827789306641 24.75539779663086 24.2901668548584 24.75539779663086 C 24.29970741271973 24.75539779663086 24.30924987792969 24.75509834289551 24.31877899169922 24.7544994354248 C 24.32830429077148 24.75390243530273 24.33781623840332 24.75300788879395 24.34729385375977 24.75181770324707 C 24.35677528381348 24.75062561035156 24.36622047424316 24.7491397857666 24.37561798095703 24.74736022949219 C 24.3850154876709 24.74557876586914 24.39436531066895 24.74350547790527 24.40364837646484 24.74114036560059 C 24.44449615478516 24.73074150085449 24.48308753967285 24.71498489379883 24.51865196228027 24.69464683532715 C 24.55421257019043 24.67430877685547 24.58674430847168 24.64938545227051 24.6154727935791 24.62066078186035 C 24.64420127868652 24.59193420410156 24.66912269592285 24.55940055847168 24.68946266174316 24.52383995056152 C 24.70980072021484 24.48827743530273 24.72555541992188 24.44968795776367 24.73595428466797 24.40884399414063 C 24.7463550567627 24.36800003051758 24.7509708404541 24.32657241821289 24.75011444091797 24.28561210632324 C 24.74925994873047 24.24465370178223 24.7429313659668 24.20416450500488 24.7314395904541 24.16519546508789 C 24.71994972229004 24.1262264251709 24.70329475402832 24.08877944946289 24.68178939819336 24.05390739440918 C 24.6602840423584 24.01903533935547 24.63392639160156 23.98673820495605 24.60302734375 23.95806884765625 L 23.65212059020996 23.07574653625488 L 23.72189140319824 23.07653999328613 L 18.56264686584473 17.91728782653809 L 18.23982429504395 17.59447479248047 L 18.5315990447998 17.24334716796875 C 19.3792896270752 16.22321891784668 19.98916625976563 15.08329582214355 20.36591148376465 13.8913631439209 C 20.7426586151123 12.69943237304688 20.88627433776855 11.455491065979 20.80144309997559 10.22733020782471 C 20.71660995483398 8.999170303344727 20.40332984924316 7.786787509918213 19.86628341674805 6.657972812652588 C 19.32923698425293 5.529158592224121 18.56842422485352 4.483911037445068 17.58852958679199 3.59001898765564 C 17.1310977935791 3.17273736000061 16.63982582092285 2.802324295043945 16.12154197692871 2.481425762176514 C 15.60325717926025 2.160527229309082 15.05795764923096 1.889142870903015 14.49246883392334 1.669919013977051 C 13.92698001861572 1.450695037841797 13.34130191802979 1.283631086349487 12.74225997924805 1.171373248100281 C 12.14321804046631 1.059115529060364 11.53081035614014 1.001663565635681 10.91186428070068 1.001663565635681 C 10.25027179718018 1.001663565635681 9.598578453063965 1.06603217124939 8.963944435119629 1.191805005073547 C 8.329312324523926 1.317577958106995 7.711738586425781 1.504755139350891 7.118386268615723 1.750372052192688 C 6.525033473968506 1.995989084243774 5.955902576446533 2.300045967102051 5.418154239654541 2.659578561782837 C 4.880405426025391 3.019111156463623 4.374039173126221 3.434119462966919 3.906216859817505 3.901638746261597 C 2.968031644821167 4.839213371276855 2.255593538284302 5.918012142181396 1.770493984222412 7.070105075836182 C 1.285394430160522 8.222197532653809 1.027633547782898 9.447585105895996 0.9988024830818176 10.67833518981934 C 0.9699714779853821 11.90908432006836 1.170070290565491 13.14519691467285 1.600690484046936 14.31874084472656 C 2.031310558319092 15.49228668212891 2.692451953887939 16.60326385498047 3.585706233978271 17.58374214172363 C 4.054064273834229 18.09783554077148 4.572283744812012 18.5571174621582 5.129662990570068 18.95686149597168 C 5.687041759490967 19.35660743713379 6.283580780029297 19.69681739807129 6.908577442169189 19.97276306152344 C 7.533573627471924 20.24871063232422 8.187026977539063 20.46039581298828 8.858235359191895 20.60309600830078 C 9.529444694519043 20.74579429626465 10.21840953826904 20.81950569152832 10.91442680358887 20.81950569152832 C 11.49028205871582 20.81950569152832 12.06254100799561 20.76881408691406 12.62474250793457 20.66976356506348 C 13.18694305419922 20.57071495056152 13.73908424377441 20.42330932617188 14.27470207214355 20.22987747192383 C 14.8103199005127 20.03644561767578 15.3294153213501 19.7969913482666 15.82552242279053 19.51385116577148 C 16.32163047790527 19.23070907592773 16.79475212097168 18.90387725830078 17.2384204864502 18.53569221496582 L 17.58951187133789 18.24433898925781 Z M 10.92107582092285 19.90145874023438 C 10.3218936920166 19.90073204040527 9.731714248657227 19.84177207946777 9.157009124755859 19.72726440429688 C 8.582304000854492 19.61275863647461 8.023075103759766 19.44270515441895 7.485796451568604 19.21979713439941 C 6.948517322540283 18.99688911437988 6.433187961578369 18.72112464904785 5.946283340454102 18.39519691467285 C 5.459378242492676 18.06926918029785 5.000897407531738 17.69317817687988 4.577315330505371 17.26960945129395 C 4.153730869293213 16.84603881835938 3.777621030807495 16.38757133483887 3.451675176620483 15.90068626403809 C 3.125729560852051 15.41380214691162 2.849948406219482 14.89850234985352 2.627021551132202 14.36126899719238 C 2.404094934463501 13.82403755187988 2.234022617340088 13.26487255096436 2.119494915008545 12.69025993347168 C 2.004967212677002 12.11564636230469 1.94598400592804 11.52558612823486 1.94523549079895 10.92655944824219 C 1.94523549079895 9.689168930053711 2.196877002716064 8.50947380065918 2.651666641235352 7.435963153839111 C 3.10645604133606 6.362452507019043 3.764393329620361 5.395124912261963 4.576985359191895 4.582466125488281 C 5.389577388763428 3.769807100296021 6.356823921203613 3.111816644668579 7.43023157119751 2.656980514526367 C 8.503639221191406 2.202144384384155 9.683207511901855 1.950462102890015 10.92044448852539 1.950419664382935 L 10.92046451568604 1.950419664382935 C 12.15774154663086 1.950419664382935 13.33735752105713 2.20206093788147 14.41081523895264 2.656850337982178 C 15.48427391052246 3.111639738082886 16.45157623291016 3.769577264785767 17.26422119140625 4.582169055938721 C 18.07686805725098 5.394761085510254 18.73485946655273 6.362007617950439 19.18970108032227 7.435415744781494 C 19.64454078674316 8.508823394775391 19.89623069763184 9.68839168548584 19.89627456665039 10.92562961578369 C 19.89627456665039 12.16291046142578 19.64463424682617 13.34253025054932 19.18984413146973 14.41599082946777 C 18.73505401611328 15.48945331573486 18.07711791992188 16.45675468444824 17.26452827453613 17.2694034576416 C 16.45193481445313 18.08205032348633 15.48468971252441 18.74004554748535 14.41128349304199 19.19488716125488 C 13.33787727355957 19.64972686767578 12.15830993652344 19.90141677856445 10.92107582092285 19.90145874023438 Z M 10.92048454284668 2.951671123504639 C 9.82126522064209 2.951708793640137 8.773280143737793 3.175314426422119 7.819614887237549 3.579403400421143 C 6.865949630737305 3.983492136001587 6.00660228729248 4.568063735961914 5.28465747833252 5.290032863616943 C 4.5627121925354 6.012001991271973 3.978169679641724 6.871369361877441 3.574113607406616 7.825048923492432 C 3.170057058334351 8.778729438781738 2.946486949920654 9.826719284057617 2.946486949920654 10.92593860626221 C 2.947856187820435 12.02379608154297 3.172486543655396 13.0707836151123 3.577287197113037 14.02380275726318 C 3.982088088989258 14.97682476043701 4.567059516906738 15.83587741851807 5.289111614227295 16.55786323547363 C 6.011163711547852 17.27985191345215 6.870296001434326 17.86477088928223 7.823419094085693 18.26952743530273 C 8.776541709899902 18.67428588867188 9.823654174804688 18.89887809753418 10.92166614532471 18.90020751953125 C 12.02072811126709 18.90016937255859 13.06859302520752 18.67655563354492 14.0221700668335 18.27245330810547 C 14.97574615478516 17.86834907531738 15.83503341674805 17.28375625610352 16.55693817138672 16.56175994873047 C 17.27884292602539 15.83976554870605 17.86336326599121 14.98036670684814 18.26740837097168 14.02665233612061 C 18.67145347595215 13.07293796539307 18.89502334594727 12.02490711212158 18.89502334594727 10.92564868927002 C 18.89498710632324 9.826435089111328 18.67137336730957 8.778453826904297 18.26726913452148 7.824790477752686 C 17.8631649017334 6.871128082275391 17.27857208251953 6.011783123016357 16.55657768249512 5.289838790893555 C 15.83458137512207 4.567895412445068 14.97518157958984 3.983353137969971 14.0214672088623 3.579297304153442 C 13.06775283813477 3.175241470336914 12.01972389221191 2.951671123504639 10.92046451568604 2.951671123504639 L 10.92048454284668 2.951671123504639 Z" stroke="none" fill="#fff"/>
  </g>
</svg>
