<svg id="secure-data-blue" xmlns="http://www.w3.org/2000/svg" xmlns:xlink="http://www.w3.org/1999/xlink" width="39.667" height="39.667" viewBox="0 0 39.667 39.667">
  <defs>
    <linearGradient id="linear-gradient" x1="0.5" x2="0.5" y2="1" gradientUnits="objectBoundingBox">
      <stop offset="0" stop-color="#0064d8"/>
      <stop offset="1" stop-color="#00326c"/>
    </linearGradient>
  </defs>
  <g id="Group_8077" data-name="Group 8077">
    <g id="Group_8076" data-name="Group 8076">
      <path id="Path_28726" data-name="Path 28726" d="M43.989,34.133h-.661a.661.661,0,0,0,0,1.322h.661a.661.661,0,0,0,0-1.322Z" transform="translate(-39.361 -31.489)" fill="url(#linear-gradient)"/>
      <path id="Path_28727" data-name="Path 28727" d="M86.656,34.133H86a.661.661,0,1,0,0,1.322h.661a.661.661,0,1,0,0-1.322Z" transform="translate(-78.723 -31.489)" fill="url(#linear-gradient)"/>
      <path id="Path_28728" data-name="Path 28728" d="M129.323,34.133h-.661a.661.661,0,0,0,0,1.322h.661a.661.661,0,1,0,0-1.322Z" transform="translate(-118.084 -31.489)" fill="url(#linear-gradient)"/>
      <path id="Path_28729" data-name="Path 28729" d="M189.178,34.133h-17.85a.661.661,0,0,0,0,1.322h17.85a.661.661,0,1,0,0-1.322Z" transform="translate(-157.445 -31.489)" fill="url(#linear-gradient)"/>
      <path id="Path_28730" data-name="Path 28730" d="M38.344,23.8h-.661V20.494A7.238,7.238,0,0,0,35.7,15.519V3.306A3.309,3.309,0,0,0,32.394,0H3.306A3.309,3.309,0,0,0,0,3.306V29.75a3.31,3.31,0,0,0,3.306,3.306h17.85v1.983a4.633,4.633,0,0,0,4.628,4.628h9.256a4.633,4.633,0,0,0,4.628-4.628V25.122A1.322,1.322,0,0,0,38.344,23.8Zm-1.983-3.306V23.8h-11.9V20.494a5.95,5.95,0,0,1,11.9,0ZM1.322,3.306A1.983,1.983,0,0,1,3.306,1.322H32.394a1.983,1.983,0,0,1,1.983,1.983V5.289H1.322ZM21.156,25.122v6.611H3.306A1.983,1.983,0,0,1,1.322,29.75V6.611H34.378v7.8a7.263,7.263,0,0,0-11.239,6.088V23.8h-.661A1.322,1.322,0,0,0,21.156,25.122Zm17.189,1.322H36.361a.661.661,0,0,0,0,1.322h1.983v1.322H36.361a.661.661,0,0,0,0,1.322h1.983v1.322H36.361a.661.661,0,1,0,0,1.322h1.983v1.322H36.361a.661.661,0,0,0,0,1.322h1.917a3.311,3.311,0,0,1-3.239,2.644H25.783A3.311,3.311,0,0,1,22.544,35.7h1.917a.661.661,0,1,0,0-1.322H22.478V33.055h1.983a.661.661,0,1,0,0-1.322H22.478V30.411h1.983a.661.661,0,1,0,0-1.322H22.478V27.767h1.983a.661.661,0,1,0,0-1.322H22.478V25.122H38.344v1.322Z" fill="url(#linear-gradient)"/>
      <path id="Path_28731" data-name="Path 28731" d="M368.264,370.778v1.444a.661.661,0,1,0,1.322,0v-1.444a1.982,1.982,0,1,0-1.322,0Zm.661-2.523a.661.661,0,1,1-.661.661A.661.661,0,0,1,368.925,368.255Z" transform="translate(-338.514 -338.505)" fill="url(#linear-gradient)"/>
      <path id="Path_28732" data-name="Path 28732" d="M58.472,123.434a.661.661,0,0,0-.661.661v1.983H52.522v-5.289h2.644a.661.661,0,1,0,0-1.322H52.522a1.322,1.322,0,0,0-1.322,1.322v5.289a1.322,1.322,0,0,0,1.322,1.322h5.289a1.322,1.322,0,0,0,1.322-1.322v-1.983A.661.661,0,0,0,58.472,123.434Z" transform="translate(-47.233 -110.211)" fill="url(#linear-gradient)"/>
      <path id="Path_28733" data-name="Path 28733" d="M78.025,122.309a.661.661,0,0,0-.935.935l1.322,1.322a.661.661,0,0,0,.467.194h.03a.661.661,0,0,0,.478-.237l3.306-3.967a.661.661,0,1,0-1.016-.848l-2.843,3.411Z" transform="translate(-70.946 -110.215)" fill="url(#linear-gradient)"/>
      <path id="Path_28734" data-name="Path 28734" d="M58.472,268.5a.661.661,0,0,0-.661.661v1.983H52.522v-5.289h2.644a.661.661,0,0,0,0-1.322H52.522a1.322,1.322,0,0,0-1.322,1.322v5.289a1.322,1.322,0,0,0,1.322,1.322h5.289a1.322,1.322,0,0,0,1.322-1.322v-1.983A.661.661,0,0,0,58.472,268.5Z" transform="translate(-47.233 -244.04)" fill="url(#linear-gradient)"/>
      <path id="Path_28735" data-name="Path 28735" d="M78.025,267.377a.661.661,0,0,0-.935.935l1.322,1.322a.661.661,0,0,0,.467.194h.03a.661.661,0,0,0,.478-.237l3.306-3.967a.661.661,0,0,0-1.016-.847l-2.843,3.411Z" transform="translate(-70.946 -244.044)" fill="url(#linear-gradient)"/>
      <path id="Path_28736" data-name="Path 28736" d="M179.861,129.322h5.289a.661.661,0,0,0,0-1.322h-5.289a.661.661,0,0,0,0,1.322Z" transform="translate(-165.317 -118.083)" fill="url(#linear-gradient)"/>
      <path id="Path_28737" data-name="Path 28737" d="M189.117,171.328a.661.661,0,0,0-.661-.661h-8.594a.661.661,0,1,0,0,1.322h8.594A.661.661,0,0,0,189.117,171.328Z" transform="translate(-165.317 -157.445)" fill="url(#linear-gradient)"/>
      <path id="Path_28738" data-name="Path 28738" d="M185.15,273.067h-5.289a.661.661,0,1,0,0,1.322h5.289a.661.661,0,1,0,0-1.322Z" transform="translate(-165.317 -251.911)" fill="url(#linear-gradient)"/>
      <path id="Path_28739" data-name="Path 28739" d="M184.49,315.733h-4.628a.661.661,0,1,0,0,1.322h4.628a.661.661,0,1,0,0-1.322Z" transform="translate(-165.318 -291.272)" fill="url(#linear-gradient)"/>
    </g>
  </g>
</svg>
