<svg xmlns="http://www.w3.org/2000/svg" xmlns:xlink="http://www.w3.org/1999/xlink" width="39.727" height="39.667" viewBox="0 0 39.727 39.667">
  <defs>
    <linearGradient id="linear-gradient" x1="0.5" x2="0.5" y2="1" gradientUnits="objectBoundingBox">
      <stop offset="0" stop-color="#0064d8"/>
      <stop offset="1" stop-color="#00326c"/>
    </linearGradient>
  </defs>
  <g id="skills-blue" transform="translate(0 -0.377)">
    <g id="Group_8079" data-name="Group 8079" transform="translate(0 0.377)">
      <g id="Group_8078" data-name="Group 8078">
        <path id="Path_28757" data-name="Path 28757" d="M11.738,133.647H4.394c-2.408,0-4.394,2.227-4.394,5v12.52a.569.569,0,0,0,.6.6H3.19v8.848a2.03,2.03,0,0,0,2.047,2.047h5.718A2.03,2.03,0,0,0,13,160.613v-8.788H15.59a.569.569,0,0,0,.6-.6v-12.58A4.737,4.737,0,0,0,11.738,133.647Zm3.25,16.974H13v-6.38a.6.6,0,1,0-1.2,0v16.432a.823.823,0,0,1-.843.843H8.668v-9.872a.6.6,0,0,0-1.2,0v9.872H5.237a.823.823,0,0,1-.843-.843V144.241a.569.569,0,0,0-.6-.6.569.569,0,0,0-.6.6v6.38H1.2V138.643c0-2.107,1.445-3.792,3.19-3.792h7.343a3.538,3.538,0,0,1,3.25,3.792v11.978Z" transform="translate(0 -122.993)" fill="url(#linear-gradient)"/>
        <path id="Path_28758" data-name="Path 28758" d="M44.782,10.248a4.936,4.936,0,0,0,0-9.871,4.907,4.907,0,0,0-4.876,4.936A4.907,4.907,0,0,0,44.782,10.248Zm0-8.668A3.732,3.732,0,1,1,41.05,5.313,3.791,3.791,0,0,1,44.782,1.581Z" transform="translate(-36.716 -0.377)" fill="url(#linear-gradient)"/>
        <path id="Path_28759" data-name="Path 28759" d="M232.89,59.969a3.551,3.551,0,1,0,0-1.2h-6.621V50.458h6.621a3.551,3.551,0,1,0,0-1.2h-7.223a.569.569,0,0,0-.6.6v13.6H222.6v-6.5a.569.569,0,0,0-.6-.6H218.2a.6.6,0,0,0,0,1.2h3.19v13H218.2a.6.6,0,0,0,0,1.2h3.792a.569.569,0,0,0,.6-.6v-6.5h2.468V78.327a.569.569,0,0,0,.6.6h7.223a3.551,3.551,0,1,0,0-1.2h-6.621V69.419h6.621a3.551,3.551,0,1,0,0-1.2h-6.621V59.969Zm3.491-2.949a2.313,2.313,0,0,1,2.348,2.348,2.35,2.35,0,0,1-2.348,2.348,2.348,2.348,0,0,1,0-4.7Zm0-9.51a2.313,2.313,0,0,1,2.348,2.348,2.35,2.35,0,0,1-2.348,2.348,2.348,2.348,0,0,1,0-4.7Zm0,28.471a2.313,2.313,0,0,1,2.348,2.348,2.35,2.35,0,0,1-2.348,2.348,2.348,2.348,0,1,1,0-4.7Zm0-9.51a2.313,2.313,0,0,1,2.348,2.348,2.35,2.35,0,0,1-2.348,2.348,2.348,2.348,0,0,1,0-4.7Z" transform="translate(-200.205 -42.633)" fill="url(#linear-gradient)"/>
      </g>
    </g>
  </g>
</svg>
