<svg id="time" xmlns="http://www.w3.org/2000/svg" width="20.986" height="20.988" viewBox="0 0 20.986 20.988">
  <g id="Group_210" data-name="Group 210" transform="translate(4.547 3.732)">
    <path id="Path_14732" data-name="Path 14732" d="M415.975,91.045l-1.069,1.069a8.783,8.783,0,0,1,1.976,1.976l1.069-1.069Z" transform="translate(-402.446 -91.045)" fill="#041427"/>
    <path id="Path_14733" data-name="Path 14733" d="M118.289,125.616h0a7.345,7.345,0,0,0,7.345-7.345h0a7.345,7.345,0,0,0-7.345-7.345h0a7.345,7.345,0,0,0-7.345,7.345h0A7.345,7.345,0,0,0,118.289,125.616Zm-.7-5.247,4.862-4.862-4.862,4.862-2.328-2.328Z" transform="translate(-110.944 -110.111)" fill="none"/>
  </g>
  <g id="Group_211" data-name="Group 211">
    <path id="Path_14734" data-name="Path 14734" d="M110.106,117.783a7.695,7.695,0,1,0-7.695-7.695A7.7,7.7,0,0,0,110.106,117.783Zm-.35-14.672v1.031a.35.35,0,1,0,.7,0V103.11a6.992,6.992,0,0,1,6.628,6.628H115.7a.35.35,0,1,0,0,.7h1.381a6.992,6.992,0,0,1-6.628,6.628v-1.031a.35.35,0,1,0-.7,0v1.031a6.992,6.992,0,0,1-6.628-6.628h1.031a.35.35,0,1,0,0-.7h-1.031A6.992,6.992,0,0,1,109.756,103.11Z" transform="translate(-98.214 -98.196)" fill="#fff"/>
    <path id="Path_14735" data-name="Path 14735" d="M60.369,6.82l.864-.864a.35.35,0,0,0,0-.495L59.256,3.486a.35.35,0,0,0-.495,0l-.865.862a9.04,9.04,0,0,0-4.722-1.541V.7h2.448a.35.35,0,0,0,0-.7h-5.6a.35.35,0,0,0,0,.7h2.448V2.81a9.083,9.083,0,0,0-7.52,4.535H43.032a.35.35,0,0,0,0,.7h2.1c.009,0,.017,0,.026-.005a.346.346,0,0,0,.305-.175,8.394,8.394,0,1,1,0,8.059.346.346,0,0,0-.3-.177c-.009,0-.017-.005-.027-.005h-2.1a.35.35,0,0,0,0,.7h1.924A9.09,9.09,0,1,0,60.7,7.352Q60.544,7.08,60.369,6.82Zm-1.9-2.051.541-.541L60.491,5.71l-.541.541a9.2,9.2,0,0,0-1.482-1.483Z" transform="translate(-40.933)" fill="#fff"/>
    <path id="Path_14736" data-name="Path 14736" d="M3.516,281.931a.35.35,0,0,0-.35-.35H.368a.35.35,0,1,0,0,.7h2.8A.35.35,0,0,0,3.516,281.931Z" transform="translate(-0.018 -270.039)" fill="#fff"/>
    <path id="Path_14737" data-name="Path 14737" d="M17.433,231.084h2.448a.35.35,0,1,0,0-.7H17.433a.35.35,0,1,0,0,.7Z" transform="translate(-16.383 -220.94)" fill="#fff"/>
    <path id="Path_14738" data-name="Path 14738" d="M20.231,333.128a.35.35,0,0,0-.35-.35H17.433a.35.35,0,1,0,0,.7h2.448A.35.35,0,0,0,20.231,333.128Z" transform="translate(-16.383 -319.137)" fill="#fff"/>
    <path id="Path_14739" data-name="Path 14739" d="M210.264,219.734a.35.35,0,0,0,.495,0l4.862-4.862a.35.35,0,0,0-.495-.495l-4.615,4.614-2.081-2.081a.35.35,0,0,0-.495.495Z" transform="translate(-199.319 -205.496)" fill="#fff"/>
  </g>
</svg>
