<svg id="twitter" xmlns="http://www.w3.org/2000/svg" width="30.945" height="25.143" viewBox="0 0 30.945 25.143">
  <g id="twitter-2" data-name="twitter" transform="translate(0 0)">
    <g id="Group_3223" data-name="Group 3223">
      <path id="Path_18727" data-name="Path 18727" d="M30.945,50.977a13.227,13.227,0,0,1-3.655,1,6.308,6.308,0,0,0,2.791-3.506,12.678,12.678,0,0,1-4.023,1.536,6.344,6.344,0,0,0-10.974,4.338,6.532,6.532,0,0,0,.147,1.447A17.957,17.957,0,0,1,2.155,49.157,6.346,6.346,0,0,0,4.1,57.636a6.265,6.265,0,0,1-2.866-.781v.07a6.373,6.373,0,0,0,5.083,6.234,6.332,6.332,0,0,1-1.663.209,5.609,5.609,0,0,1-1.2-.108,6.4,6.4,0,0,0,5.928,4.419,12.747,12.747,0,0,1-7.866,2.706A11.882,11.882,0,0,1,0,70.3a17.86,17.86,0,0,0,9.732,2.847c11.674,0,18.057-9.67,18.057-18.053,0-.28-.01-.551-.023-.82A12.656,12.656,0,0,0,30.945,50.977Z" transform="translate(0 -48)" fill="#0097d8"/>
    </g>
  </g>
</svg>
