<svg xmlns="http://www.w3.org/2000/svg" width="49.377" height="41.078" viewBox="0 0 49.377 41.078">
  <path id="up-arrow" d="M48.588,59.967,30.756,42.134a2.71,2.71,0,0,0-3.822,0l-1.619,1.619a2.682,2.682,0,0,0-.789,1.911,2.735,2.735,0,0,0,.789,1.933l10.4,10.426H2.668A2.637,2.637,0,0,0,0,60.681V62.97a2.739,2.739,0,0,0,2.668,2.775H35.836L25.315,76.229a2.676,2.676,0,0,0,0,3.795l1.619,1.614a2.711,2.711,0,0,0,3.822,0L48.588,63.8a2.725,2.725,0,0,0,0-3.836Z" transform="translate(0 -41.346)" fill="#1c2848"/>
</svg>
