<svg xmlns="http://www.w3.org/2000/svg" width="75.057" height="75" viewBox="0 0 75.057 75">
  <g id="skills-verification" transform="translate(-0.001 -0.196)">
    <g id="Group_7436" data-name="Group 7436" transform="translate(5.899 6.125)">
      <g id="Group_7435" data-name="Group 7435">
        <g id="Group_7434" data-name="Group 7434">
          <path id="Path_28350" data-name="Path 28350" d="M71.832,103.868A31.628,31.628,0,1,1,94.2,94.6a31.421,31.421,0,0,1-22.364,9.264Z" transform="translate(-40.204 -40.613)" fill="#0064d8"/>
        </g>
        <circle id="Ellipse_32" data-name="Ellipse 32" cx="25.759" cy="25.759" r="25.759" transform="translate(5.868 5.868)" fill="#0064d8"/>
        <path id="Path_28351" data-name="Path 28351" d="M238.721,80.613a26.049,26.049,0,0,0-2.934.165,25.762,25.762,0,0,1,0,51.188,26.042,26.042,0,0,0,2.934.165,25.759,25.759,0,1,0,0-51.519Z" transform="translate(-207.093 -74.745)" fill="#0064d8"/>
      </g>
      <path id="Path_28352" data-name="Path 28352" d="M159.4,201.64a2.94,2.94,0,0,1-2.019-.8l-7.79-7.334c-2.69-2.53,1.226-6.949,4.039-4.3l5.77,5.435,15.738-14.869c2.691-2.529,6.852,1.659,4.039,4.3L161.415,200.84A2.94,2.94,0,0,1,159.4,201.64Z" transform="translate(-132.769 -158.685)" fill="#fff"/>
    </g>
    <g id="Group_7437" data-name="Group 7437" transform="translate(0.001 0.196)">
      <path id="Path_28353" data-name="Path 28353" d="M170.832,15.472a1.163,1.163,0,0,0,1.042-1.457,1.1,1.1,0,1,0-1.042,1.457Z" transform="translate(-144.83 -11.352)"/>
      <path id="Path_28354" data-name="Path 28354" d="M134.193,31.412a1.148,1.148,0,0,0,.97-1.62,1.1,1.1,0,1,0-.97,1.62Z" transform="translate(-113.566 -24.954)"/>
      <path id="Path_28355" data-name="Path 28355" d="M100.557,52.981a1.134,1.134,0,0,0,.874-1.765,1.1,1.1,0,1,0-.874,1.765Z" transform="translate(-84.864 -43.36)"/>
      <path id="Path_28356" data-name="Path 28356" d="M69.951,79.241a1.1,1.1,0,1,0-.031-1.555A1.1,1.1,0,0,0,69.951,79.241Z" transform="translate(-59.4 -66.028)"/>
      <path id="Path_28357" data-name="Path 28357" d="M10.523,182.115a1.165,1.165,0,0,0,1.367-.744,1.1,1.1,0,1,0-1.367.744Z" transform="translate(-8.307 -153.586)"/>
      <path id="Path_28358" data-name="Path 28358" d="M1.147,261.17a1.089,1.089,0,1,0-.047,0C1.116,261.171,1.132,261.171,1.147,261.17Z" transform="translate(-0.001 -221.006)"/>
      <path id="Path_28359" data-name="Path 28359" d="M7.153,299.475A1.1,1.1,0,0,0,5,299.928,1.1,1.1,0,0,0,7.153,299.475Z" transform="translate(-4.246 -254.823)"/>
      <path id="Path_28360" data-name="Path 28360" d="M2.566,221.26a1.067,1.067,0,0,0,.135.009,1.1,1.1,0,1,0-.135-.009Z" transform="translate(-1.365 -186.958)"/>
      <path id="Path_28361" data-name="Path 28361" d="M287.885,5.486a1.176,1.176,0,0,0,1.262-.911,1.1,1.1,0,1,0-1.262.911Z" transform="translate(-244.861 -2.844)"/>
      <path id="Path_28362" data-name="Path 28362" d="M427.218,78.678a1.1,1.1,0,1,0-.789-.334A1.1,1.1,0,0,0,427.218,78.678Z" transform="translate(-363.603 -65.286)"/>
      <path id="Path_28363" data-name="Path 28363" d="M452.7,109.452a1.1,1.1,0,1,0-.9-.468A1.1,1.1,0,0,0,452.7,109.452Z" transform="translate(-385.348 -91.545)"/>
      <path id="Path_28364" data-name="Path 28364" d="M494.834,219.187a1.183,1.183,0,0,0,1.232.951,1.1,1.1,0,1,0-1.232-.951Z" transform="translate(-422.231 -186)"/>
      <path id="Path_28365" data-name="Path 28365" d="M209.583,5.684A1.176,1.176,0,0,0,210.67,4.4a1.1,1.1,0,1,0-1.087,1.281Z" transform="translate(-177.898 -3.001)"/>
      <path id="Path_28366" data-name="Path 28366" d="M486.555,180.275a1.167,1.167,0,0,0,1.37.738,1.1,1.1,0,1,0-1.37-.738Z" transform="translate(-415.134 -152.647)"/>
      <path id="Path_28367" data-name="Path 28367" d="M396.591,52.031a1.1,1.1,0,1,0-.219-1.54A1.1,1.1,0,0,0,396.591,52.031Z" transform="translate(-338.034 -42.737)"/>
      <path id="Path_28368" data-name="Path 28368" d="M17.087,336.976a1.1,1.1,0,0,0-.626,1.424,1.156,1.156,0,0,0,1.425.626,1.1,1.1,0,1,0-.8-2.051Z" transform="translate(-13.982 -287.503)"/>
      <path id="Path_28369" data-name="Path 28369" d="M363.01,30.726a1.142,1.142,0,0,0,1.486-.459,1.1,1.1,0,1,0-1.486.459Z" transform="translate(-309.253 -24.478)"/>
      <circle id="Ellipse_33" data-name="Ellipse 33" cx="1.1" cy="1.1" r="1.1" transform="translate(36.425)"/>
      <path id="Path_28370" data-name="Path 28370" d="M326.484,15.037a1.161,1.161,0,0,0,1.394-.692,1.1,1.1,0,1,0-1.394.692Z" transform="translate(-277.946 -11.03)"/>
      <path id="Path_28371" data-name="Path 28371" d="M44.752,110.243a1.1,1.1,0,1,0-.274-1.532A1.107,1.107,0,0,0,44.752,110.243Z" transform="translate(-37.784 -92.388)"/>
      <path id="Path_28372" data-name="Path 28372" d="M442.372,404.923a1.1,1.1,0,1,0,.157,1.548A1.1,1.1,0,0,0,442.372,404.923Z" transform="translate(-375.94 -345.335)"/>
      <path id="Path_28373" data-name="Path 28373" d="M464.984,371.992a1.1,1.1,0,1,0-1.108,1.9,1.14,1.14,0,0,0,1.505-.4A1.1,1.1,0,0,0,464.984,371.992Z" transform="translate(-395.356 -317.319)"/>
      <path id="Path_28374" data-name="Path 28374" d="M413.329,433.83a1.1,1.1,0,1,0,1.554.088A1.1,1.1,0,0,0,413.329,433.83Z" transform="translate(-352.377 -369.974)"/>
      <path id="Path_28375" data-name="Path 28375" d="M381.685,457.946a1.1,1.1,0,1,0,1.521.329A1.1,1.1,0,0,0,381.685,457.946Z" transform="translate(-325.259 -390.641)"/>
      <path id="Path_28376" data-name="Path 28376" d="M346.634,476.763a1.1,1.1,0,0,0-.566,1.448,1.151,1.151,0,0,0,1.449.568,1.1,1.1,0,1,0-.883-2.016Z" transform="translate(-295.218 -406.767)"/>
      <path id="Path_28377" data-name="Path 28377" d="M474.023,142.267a1.1,1.1,0,1,0-1.978.964,1.143,1.143,0,0,0,1.471.506,1.1,1.1,0,0,0,.506-1.47Z" transform="translate(-402.697 -120.896)"/>
      <path id="Path_28378" data-name="Path 28378" d="M497.754,257.852a1.1,1.1,0,1,0-.084,2.2,1.193,1.193,0,0,0,1.141-1.058A1.1,1.1,0,0,0,497.754,257.852Z" transform="translate(-423.755 -220.051)"/>
      <path id="Path_28379" data-name="Path 28379" d="M493.146,297.525a1.1,1.1,0,1,0-.443,2.155,1.172,1.172,0,0,0,1.3-.855A1.1,1.1,0,0,0,493.146,297.525Z" transform="translate(-419.669 -253.885)"/>
      <path id="Path_28380" data-name="Path 28380" d="M309.019,489.708a1.1,1.1,0,0,0-.794,1.338,1.169,1.169,0,0,0,1.338.8,1.1,1.1,0,0,0-.544-2.133Z" transform="translate(-262.977 -417.863)"/>
      <path id="Path_28381" data-name="Path 28381" d="M482.089,335.908a1.1,1.1,0,1,0-.789,2.054,1.155,1.155,0,0,0,1.422-.632A1.1,1.1,0,0,0,482.089,335.908Z" transform="translate(-410.087 -286.593)"/>
      <path id="Path_28382" data-name="Path 28382" d="M230.051,496.424a1.1,1.1,0,1,0-.176,2.193c.029,0,.06,0,.09,0a1.1,1.1,0,0,0,.087-2.2Z" transform="translate(-195.286 -423.621)"/>
      <path id="Path_28383" data-name="Path 28383" d="M86.322,434.615a1.1,1.1,0,1,0,.094,1.552A1.1,1.1,0,0,0,86.322,434.615Z" transform="translate(-72.097 -370.646)"/>
      <path id="Path_28384" data-name="Path 28384" d="M118.071,458.57a1.1,1.1,0,1,0,.336,1.52A1.1,1.1,0,0,0,118.071,458.57Z" transform="translate(-99.305 -391.176)"/>
      <path id="Path_28385" data-name="Path 28385" d="M269.816,496.333a1.1,1.1,0,0,0,.091,2.2c.032,0,.063,0,.1,0a1.1,1.1,0,0,0-.186-2.192Z" transform="translate(-229.373 -423.542)"/>
      <path id="Path_28386" data-name="Path 28386" d="M153.188,477.221a1.1,1.1,0,0,0-.873,2.02,1.151,1.151,0,0,0,1.447-.574A1.1,1.1,0,0,0,153.188,477.221Z" transform="translate(-129.403 -407.161)"/>
      <path id="Path_28387" data-name="Path 28387" d="M34.371,373a1.1,1.1,0,0,0-.39,1.507,1.138,1.138,0,0,0,1.507.39,1.1,1.1,0,1,0-1.116-1.9Z" transform="translate(-28.866 -318.178)"/>
      <path id="Path_28388" data-name="Path 28388" d="M57.147,405.836a1.1,1.1,0,1,0,1.549.15A1.1,1.1,0,0,0,57.147,405.836Z" transform="translate(-48.421 -346.111)"/>
      <path id="Path_28389" data-name="Path 28389" d="M190.82,489.981a1.1,1.1,0,1,0-.534,2.135,1.173,1.173,0,0,0,1.335-.8A1.1,1.1,0,0,0,190.82,489.981Z" transform="translate(-161.658 -418.098)"/>
      <path id="Path_28390" data-name="Path 28390" d="M26.211,144.3a1.1,1.1,0,1,0-1.469.514A1.148,1.148,0,0,0,26.211,144.3Z" transform="translate(-20.581 -121.809)"/>
      <path id="Path_28391" data-name="Path 28391" d="M66.009,33.118A32.36,32.36,0,0,0,45.86,39.6a1.1,1.1,0,0,0,1.319,1.761A30.566,30.566,0,1,1,43,45.13a1.1,1.1,0,0,0-1.615-1.495A32.729,32.729,0,0,0,64.851,98.564q.3.005.594.005a32.728,32.728,0,0,0,.563-65.451Z" transform="translate(-27.905 -28.284)"/>
      <path id="Path_28392" data-name="Path 28392" d="M99.564,126.832A26.86,26.86,0,1,0,72.7,99.973,26.89,26.89,0,0,0,99.564,126.832Zm0-51.519A24.659,24.659,0,1,1,74.9,99.973,24.687,24.687,0,0,1,99.564,75.314Z" transform="translate(-62.038 -62.416)"/>
      <path id="Path_28393" data-name="Path 28393" d="M142.471,187.943l7.79,7.334a4.055,4.055,0,0,0,5.548,0l6.281-5.931a1.1,1.1,0,0,0-1.511-1.6l-6.28,5.93a1.873,1.873,0,0,1-2.531,0l-7.79-7.334a1.751,1.751,0,0,1,.04-2.576,1.67,1.67,0,0,1,2.491-.126l5.77,5.435a1.1,1.1,0,0,0,1.51,0l15.736-14.867a1.745,1.745,0,0,1,2.559.2,1.678,1.678,0,0,1-.03,2.506l-7.26,6.856a1.1,1.1,0,0,0,1.511,1.6l7.259-6.854a3.848,3.848,0,0,0,.124-5.615,3.939,3.939,0,0,0-5.672-.291L153.033,186.76l-5.015-4.724a3.841,3.841,0,0,0-5.6.221A3.946,3.946,0,0,0,142.471,187.943Z" transform="translate(-120.51 -146.392)"/>
    </g>
  </g>
</svg>
