<svg xmlns="http://www.w3.org/2000/svg" width="60" height="60" viewBox="0 0 60 60">
  <g id="skills-lesson" transform="translate(-0.002)">
    <g id="Group_7443" data-name="Group 7443" transform="translate(0.881 0.879)">
      <g id="Group_7442" data-name="Group 7442" transform="translate(0 3.883)">
        <g id="Group_7441" data-name="Group 7441">
          <path id="Path_28394" data-name="Path 28394" d="M65.744,77.513v-33a3.883,3.883,0,0,0-3.883-3.883H11.385A3.883,3.883,0,0,0,7.5,44.516v33l29.121,2.408Z" transform="translate(-7.502 -40.633)" fill="#0064d8"/>
          <path id="Path_28395" data-name="Path 28395" d="M198.018,398h13.59v9.429h-13.59Z" transform="translate(-175.692 -356.121)" fill="#0064d8"/>
          <path id="Path_28396" data-name="Path 28396" d="M40.633,107.092V75.708a1.941,1.941,0,0,1,1.941-1.941H89.168a1.941,1.941,0,0,1,1.941,1.941v31.378l-25.238,2.093Z" transform="translate(-36.75 -69.884)" fill="#0064d8"/>
          <path id="Path_28397" data-name="Path 28397" d="M271.073,40.633h-2.7a3.883,3.883,0,0,1,3.883,3.883v33l-27.775,2.3,1.349.112,29.121-2.415v-33A3.883,3.883,0,0,0,271.073,40.633Z" transform="translate(-216.714 -40.633)" fill="#0064d8"/>
          <path id="Path_28398" data-name="Path 28398" d="M166.277,471.368h-25.3a.938.938,0,0,0-.937.938v2.008a.938.938,0,0,0,.938.938h25.3a.938.938,0,0,0,.938-.938v-2.008A.938.938,0,0,0,166.277,471.368Z" transform="translate(-124.504 -420.891)" fill="#0064d8"/>
          <path id="Path_28399" data-name="Path 28399" d="M343.663,471.368h-2.7a.938.938,0,0,1,.938.938v2.008a.938.938,0,0,1-.938.938h2.7a.938.938,0,0,0,.937-.938v-2.008A.938.938,0,0,0,343.663,471.368Z" transform="translate(-301.89 -420.891)" fill="#0064d8"/>
          <path id="Path_28400" data-name="Path 28400" d="M434.5,73.768h-2.7a1.941,1.941,0,0,1,1.941,1.941v31.6l2.7-.223V75.709A1.941,1.941,0,0,0,434.5,73.768Z" transform="translate(-382.078 -69.885)" fill="#0064d8"/>
        </g>
      </g>
      <path id="Path_28401" data-name="Path 28401" d="M90.334,36.621V9.441A1.941,1.941,0,0,1,92.275,7.5h34.945a1.941,1.941,0,0,1,1.941,1.941v27.18L109.748,40.5Z" transform="translate(-80.627 -7.5)" fill="#f5f5f5"/>
      <path id="Path_28402" data-name="Path 28402" d="M384.8,7.5h-2.7a1.941,1.941,0,0,1,1.941,1.941V37.16l2.7-.539V9.441A1.941,1.941,0,0,0,384.8,7.5Z" transform="translate(-338.202 -7.5)" fill="#1886ea"/>
      <path id="Path_28403" data-name="Path 28403" d="M239.816,54.025a.969.969,0,0,1-.382-.772V41.6a.971.971,0,0,1,.971-.971h15.531a.971.971,0,0,1,.971.971V53.253a.971.971,0,0,1-.971.971H243.888Z" transform="translate(-212.254 -36.751)" fill="#0064d8"/>
      <circle id="Ellipse_34" data-name="Ellipse 34" cx="3.883" cy="3.883" r="3.883" transform="translate(15.531 9.707)" fill="#fff"/>
      <path id="Path_28404" data-name="Path 28404" d="M359.945,40.633h-2.7a.971.971,0,0,1,.971.971V53.252a.971.971,0,0,1-.971.971h2.7a.971.971,0,0,0,.971-.971V41.6A.971.971,0,0,0,359.945,40.633Z" transform="translate(-316.264 -36.75)" fill="#d3dcfb"/>
      <path id="Path_28405" data-name="Path 28405" d="M139.214,165.167l-2.274.123-.413,1.1a.971.971,0,0,1-1.447.467l-2.342-1.566h0l0,0v0l-6.887,0a5.816,5.816,0,0,0-2.381,4.7v6.293h11.648v-4.732l.865.576a1.941,1.941,0,0,0,2.895-.934l1.751-4.67Z" transform="translate(-109.876 -146.69)" fill="#0064d8"/>
      <path id="Path_28406" data-name="Path 28406" d="M143.781,157.727l2.231,1.785a1.941,1.941,0,0,0,2.426,0l2.231-1.785h0a5.823,5.823,0,0,0-6.888,0Z" transform="translate(-127.811 -139.126)" fill="#e9efff"/>
      <path id="Path_28407" data-name="Path 28407" d="M163.015,90.333a3.875,3.875,0,0,0-1.348.241,3.884,3.884,0,0,1,0,7.284,3.883,3.883,0,1,0,1.348-7.525Z" transform="translate(-143.601 -80.626)" fill="#fff"/>
      <path id="Path_28408" data-name="Path 28408" d="M231.231,165.167l-2.043.11,1.15.192-2.15,5.721a1.942,1.942,0,0,1-.491.735l.3.2a1.941,1.941,0,0,0,2.895-.934l1.751-4.67Z" transform="translate(-201.894 -146.69)" fill="#0064d8"/>
      <path id="Path_28409" data-name="Path 28409" d="M242.153,128.042a1.942,1.942,0,0,0-2.5,1.136l-1.211,3.228,3.685,1.231,1.161-3.1A1.941,1.941,0,0,0,242.153,128.042Z" transform="translate(-211.38 -113.806)" fill="#fcad6d"/>
      <path id="Path_28410" data-name="Path 28410" d="M251.855,128.045a1.94,1.94,0,0,0-2.029.423,1.941,1.941,0,0,1,.468,2.076l-.861,2.3,2.4.8,1.161-3.1A1.941,1.941,0,0,0,251.855,128.045Z" transform="translate(-221.082 -113.809)" fill="#fd995b"/>
      <path id="Path_28411" data-name="Path 28411" d="M195.373,268H166.252l-.918-6,.918-6h29.121Z" transform="translate(-146.838 -226.879)" fill="#d3dcfb"/>
      <path id="Path_28412" data-name="Path 28412" d="M90.334,256h9.707v12H90.334Z" transform="translate(-80.627 -226.879)" fill="#0064d8"/>
      <path id="Path_28413" data-name="Path 28413" d="M398.667,256h2.7v12h-2.7Z" transform="translate(-352.827 -226.879)" fill="#bec8f7"/>
      <circle id="Ellipse_35" data-name="Ellipse 35" cx="1.941" cy="1.941" r="1.941" transform="translate(24.855 36.378) rotate(-76.825)" fill="#e9efff"/>
      <path id="Path_28414" data-name="Path 28414" d="M65.744,355.4H7.5v1.942a3.883,3.883,0,0,0,3.883,3.883H61.861a3.883,3.883,0,0,0,3.883-3.883V355.4Z" transform="translate(-7.502 -314.629)" fill="#e9efff"/>
      <path id="Path_28415" data-name="Path 28415" d="M452.252,355.4v1.942a3.883,3.883,0,0,1-3.883,3.883h2.7a3.883,3.883,0,0,0,3.883-3.883V355.4Z" transform="translate(-396.705 -314.629)" fill="#d3dcfb"/>
    </g>
    <g id="Group_7444" data-name="Group 7444" transform="translate(0.002)">
      <path id="Path_28416" data-name="Path 28416" d="M60,8.644A4.767,4.767,0,0,0,55.24,3.883H50.295V2.82A2.823,2.823,0,0,0,47.474,0H12.529a2.823,2.823,0,0,0-2.82,2.82V3.883H4.764A4.767,4.767,0,0,0,0,8.644V43.59a4.767,4.767,0,0,0,4.762,4.762h4.1a.879.879,0,0,0,0-1.758h-4.1a3.007,3.007,0,0,1-3-3V42.527H58.244V43.59a3.007,3.007,0,0,1-3,3H12.379a.879.879,0,1,0,0,1.758h9.949V54.36H17.35a1.818,1.818,0,0,0-1.816,1.816v2.008A1.818,1.818,0,0,0,17.35,60H35.039a.879.879,0,1,0,0-1.758H17.35a.059.059,0,0,1-.059-.059V56.176a.059.059,0,0,1,.059-.059h25.3a.059.059,0,0,1,.059.059v2.008a.059.059,0,0,1-.059.059h-4.1a.879.879,0,0,0,0,1.758h4.1a1.818,1.818,0,0,0,1.816-1.816V56.176a1.818,1.818,0,0,0-1.816-1.816H37.676V48.352H55.24A4.767,4.767,0,0,0,60,43.59V8.644ZM31.064,54.36H28.939V52.326a.092.092,0,0,1,.092-.092h1.941a.092.092,0,0,1,.092.092V54.36Zm4.853,0h-3.1V52.326a1.852,1.852,0,0,0-1.85-1.85H29.031a1.852,1.852,0,0,0-1.85,1.85V54.36h-3.1V48.352H35.918V54.36Zm18.443-13.59H50.295V9.524h3a1.064,1.064,0,0,1,1.062,1.062Zm-44.652,0H5.642V10.586A1.064,1.064,0,0,1,6.7,9.524h3V40.769Zm1.758-9.89h7.949v9.89H11.467Zm5.824-16.41a3,3,0,1,1,3,3A3.007,3.007,0,0,1,17.291,14.469Zm3,4.762a4.922,4.922,0,0,1,1.884.371l-1.22.976a1.056,1.056,0,0,1-1.327,0L18.413,19.6A4.916,4.916,0,0,1,20.295,19.23Zm-3.429,1.387,1.667,1.333a2.8,2.8,0,0,0,3.524,0l1.729-1.383L25.6,21.778a1.85,1.85,0,0,0,2.758-.89l.115-.308,2.017.674-1.431,3.816a1.057,1.057,0,0,1-.669.638,1.07,1.07,0,0,1-.915-.127L27,25.266v-1.09a.879.879,0,0,0-1.758,0v1.559s0,.008,0,.012v3.374H15.35V24.176a4.929,4.929,0,0,1,1.517-3.559Zm12.4-2.147.01-.028.706-1.883a1.061,1.061,0,0,1,1.19-.671l-.077.309a.88.88,0,0,0,.853,1.092l.03,0c0,.006,0,.012-.006.019l-.863,2.3-2.017-.674Zm4.279-2.705a2.831,2.831,0,0,0-.378-.607l1.575-6.3a.879.879,0,0,0-1.705-.426l-1.437,5.75a2.82,2.82,0,0,0-2.655.8V5.732a.092.092,0,0,1,.092-.092H44.562a.092.092,0,0,1,.092.092V17.381a.092.092,0,0,1-.092.092H33.741a2.8,2.8,0,0,0-.2-1.708ZM21.174,30.879H48.537v9.89H21.174ZM12.529,1.758H47.474A1.064,1.064,0,0,1,48.537,2.82v26.3H27V27.309a2.818,2.818,0,0,0,3.7-1.621l2.422-6.458H44.562a1.852,1.852,0,0,0,1.85-1.85V5.732a1.852,1.852,0,0,0-1.85-1.85H29.031a1.852,1.852,0,0,0-1.85,1.85V17.381a1.838,1.838,0,0,0,.258.94l-.731,1.95a.092.092,0,0,1-.136.045l-2.334-1.56a6.729,6.729,0,0,0-.958-.582,4.762,4.762,0,1,0-5.97,0,6.709,6.709,0,0,0-.912.551.873.873,0,0,0-.119.085,6.7,6.7,0,0,0-2.688,5.364v4.945H11.467V2.82a1.064,1.064,0,0,1,1.062-1.063ZM1.76,8.644a3.007,3.007,0,0,1,3-3H9.709V7.766h-3a2.823,2.823,0,0,0-2.82,2.82V40.769H1.76ZM56.119,40.769V10.586a2.823,2.823,0,0,0-2.82-2.82h-3V5.641H55.24a3.007,3.007,0,0,1,3,3V40.769Z" transform="translate(-0.002)"/>
      <path id="Path_28417" data-name="Path 28417" d="M221.034,283.575H206.241a2.82,2.82,0,0,0-5.359,0h-1.2a.879.879,0,0,0,0,1.758h1.2a2.82,2.82,0,0,0,5.359,0h14.793a.879.879,0,0,0,0-1.758Zm-17.473,1.941a1.062,1.062,0,1,1,1.062-1.063A1.064,1.064,0,0,1,203.562,285.517Z" transform="translate(-175.503 -248.63)"/>
      <path id="Path_28418" data-name="Path 28418" d="M121.959,298.2h-.971a.879.879,0,0,0,0,1.758h.971a.879.879,0,0,0,0-1.758Z" transform="translate(-106.034 -263.255)"/>
    </g>
  </g>
</svg>
