<svg xmlns="http://www.w3.org/2000/svg" width="48.8" height="39.644" viewBox="0 0 48.8 39.644">
  <path id="twitter" d="M48.8,52.692a20.857,20.857,0,0,1-5.763,1.58,9.947,9.947,0,0,0,4.4-5.527,19.991,19.991,0,0,1-6.343,2.422,10,10,0,0,0-17.3,6.84,10.3,10.3,0,0,0,.232,2.282A28.315,28.315,0,0,1,3.4,49.823a10.006,10.006,0,0,0,3.074,13.37,9.879,9.879,0,0,1-4.519-1.231v.109A10.049,10.049,0,0,0,9.971,71.9a9.984,9.984,0,0,1-2.623.329,8.844,8.844,0,0,1-1.893-.171,10.1,10.1,0,0,0,9.353,6.968A20.1,20.1,0,0,1,2.4,83.292,18.736,18.736,0,0,1,0,83.156a28.162,28.162,0,0,0,15.346,4.489c18.408,0,28.472-15.248,28.472-28.465,0-.442-.016-.869-.037-1.292A19.955,19.955,0,0,0,48.8,52.692Z" transform="translate(0 -48.001)" fill="#0097d8"/>
</svg>
