<svg id="linkdin" xmlns="http://www.w3.org/2000/svg" width="43.761" height="39.961" viewBox="0 0 43.761 39.961">
  <g id="linked-in-logo-of-two-letters">
    <g id="Group_3228" data-name="Group 3228">
      <path id="Path_18730" data-name="Path 18730" d="M1.421,206.55H7.107a1.421,1.421,0,0,0,1.421-1.421v-24.86a1.42,1.42,0,0,0-1.421-1.421H1.421A1.42,1.42,0,0,0,0,180.272v24.86a1.421,1.421,0,0,0,1.421,1.418Z" transform="translate(0 -166.589)" fill="#1856ff"/>
      <path id="Path_18731" data-name="Path 18731" d="M1.421,31.808H7.107a1.421,1.421,0,0,0,1.421-1.423V25.337a1.421,1.421,0,0,0-1.421-1.421H1.421A1.42,1.42,0,0,0,0,25.337v5.048a1.42,1.42,0,0,0,1.421,1.423Z" transform="translate(0 -23.916)" fill="#1856ff"/>
      <path id="Path_18732" data-name="Path 18732" d="M208.783,173.257a8.647,8.647,0,0,0-3.536-2.6,12.8,12.8,0,0,0-5.16-1.016,12.636,12.636,0,0,0-9.711,4.374c-.528.58-.911.453-.911-.331v-1.9a1.421,1.421,0,0,0-1.421-1.421h-5.08a1.42,1.42,0,0,0-1.421,1.421v24.86a1.421,1.421,0,0,0,1.421,1.421h5.687a1.421,1.421,0,0,0,1.421-1.421V188a27.811,27.811,0,0,1,.652-7.4,6.116,6.116,0,0,1,2.413-3.217,6.839,6.839,0,0,1,3.976-1.214,5.074,5.074,0,0,1,2.96.849,4.736,4.736,0,0,1,1.776,2.382,25.411,25.411,0,0,1,.552,6.754v10.5a1.421,1.421,0,0,0,1.42,1.421h5.687a1.421,1.421,0,0,0,1.421-1.421V182.575a26.656,26.656,0,0,0-.47-5.736A9.392,9.392,0,0,0,208.783,173.257Z" transform="translate(-167.177 -158.113)" fill="#1856ff"/>
    </g>
  </g>
</svg>
