<svg xmlns="http://www.w3.org/2000/svg" width="64.539" height="71.543" viewBox="0 0 64.539 71.543">
  <g id="countries" transform="translate(-44 -21)">
    <path id="Path_28548" data-name="Path 28548" d="M171.219,43.823a2.293,2.293,0,1,0-2.291-2.293A2.293,2.293,0,0,0,171.219,43.823Z" transform="translate(-105.912 -15.462)" fill="#181818"/>
    <path id="Path_28549" data-name="Path 28549" d="M156.914,34.774l3.994-5.343a5.3,5.3,0,0,0,1.086-3.517,5.083,5.083,0,0,0-10.16,0,5.43,5.43,0,0,0,1.091,3.527Zm-.192-12.52a3.815,3.815,0,1,1-3.813,3.814A3.815,3.815,0,0,1,156.722,22.254Z" transform="translate(-91.414 0)" fill="#181818"/>
    <path id="Path_28550" data-name="Path 28550" d="M357.5,117.528a2.679,2.679,0,0,0,1.691.9l.445.055a3.917,3.917,0,0,1,3.267,2.752,3.837,3.837,0,0,1-1.127,3.977l-4.406,3.9a2.536,2.536,0,0,0-.856,1.9v1.034a1.983,1.983,0,0,0,.91,1.672,3.681,3.681,0,0,1,1.674,2.74l.1,1.032a1.7,1.7,0,0,0,1.7,1.539h2.579a3.825,3.825,0,0,0,3.5-2.29l.155-.353a3.7,3.7,0,0,1,3.236-2.222l.606-.028c.068,0,.135-.008.2-.015l1.47-.148a49.828,49.828,0,0,0-1.637-8.484l-.864,1.155a.761.761,0,0,1-1.219,0l-3.7-4.949a5.743,5.743,0,0,1-1.143-3.741,5.659,5.659,0,0,1,.8-2.561,34.274,34.274,0,0,0-5.1-4.137l-2.493,4.275A1.743,1.743,0,0,0,357.5,117.528Z" transform="translate(-264.945 -76.51)" fill="#181818"/>
    <path id="Path_28551" data-name="Path 28551" d="M420.151,141.564l3.092-4.134a4.105,4.105,0,0,0,.844-2.727,3.937,3.937,0,0,0-7.87,0,4.214,4.214,0,0,0,.849,2.737ZM420,131.6a3.215,3.215,0,1,1-3.215,3.215A3.216,3.216,0,0,1,420,131.6Z" transform="translate(-315.554 -93.164)" fill="#181818"/>
    <path id="Path_28552" data-name="Path 28552" d="M106.39,101.39q-.143.014-.286.021l-.605.027a2.184,2.184,0,0,0-1.912,1.313l-.155.353a5.348,5.348,0,0,1-4.9,3.2H95.956a3.219,3.219,0,0,1-3.213-2.91l-.1-1.032a2.167,2.167,0,0,0-.985-1.614A3.5,3.5,0,0,1,90.049,97.8V96.765a4.059,4.059,0,0,1,1.369-3.039l4.406-3.9a2.311,2.311,0,0,0,.679-2.4,2.394,2.394,0,0,0-2-1.682l-.445-.055a4.2,4.2,0,0,1-2.651-1.406,3.269,3.269,0,0,1-.378-3.768l2.528-4.333a38.458,38.458,0,0,0-4.207-2.233,32.978,32.978,0,0,0-13.411-3.1c-.409,0-.856.013-1.329.038l3.38,4.876a5.322,5.322,0,0,1-.158,6.3l-1.084,1.407a4.166,4.166,0,0,1-3.815,1.585l-1.229-.157a2.78,2.78,0,0,0-2.752,1.352,4.182,4.182,0,0,1-4.137,2.033l-2.838-.361a2.938,2.938,0,0,0-2.816,1.275,2.421,2.421,0,0,0-.041,2.652L61,94.823a2.139,2.139,0,0,0,2.808.74l1.93-1.035a6.279,6.279,0,0,1,4.638-.265,6.593,6.593,0,0,1,13.089.844,6.813,6.813,0,0,1-1.386,4.53l-1.191,1.593.7.959q.154.215.32.409l2.344,2.761a2.867,2.867,0,0,1-.438,4.128l-3.553,2.732a4.048,4.048,0,0,0-1.409,2.029l-1.184,3.844A4.057,4.057,0,0,1,76.9,119.5l-1.152,1.387a5.079,5.079,0,0,0-1.149,2.732,3.491,3.491,0,0,1-2.122,2.862,2.58,2.58,0,0,1-3.543-1.956L67.854,118a3.383,3.383,0,0,0-.643-1.489L63.235,111.3a6.273,6.273,0,0,1-1.06-2.136l-1.312-4.739a3.316,3.316,0,0,0-2.312-2.3l-.285-.078a5.346,5.346,0,0,1-2.25-1.262l-2.448-2.306a7.2,7.2,0,0,1-1.293-1.631,3.774,3.774,0,0,0-3.953-1.818l-3.568,1.161a31.923,31.923,0,1,0,63.133,6.655c0-.5-.019-1.031-.054-1.594Z" transform="translate(0 -42.272)" fill="#181818"/>
    <path id="Path_28553" data-name="Path 28553" d="M431.652,148.939a1.693,1.693,0,1,0-1.693-1.693,1.693,1.693,0,0,0,1.693,1.693Z" transform="translate(-327.209 -105.593)" fill="#181818"/>
    <path id="Path_28554" data-name="Path 28554" d="M73.883,125.239a2.293,2.293,0,1,0-2.291-2.292A2.293,2.293,0,0,0,73.883,125.239Z" transform="translate(-23.392 -84.485)" fill="#181818"/>
    <path id="Path_28555" data-name="Path 28555" d="M54.54,94.5a5.3,5.3,0,0,1,5.607,2.539,5.682,5.682,0,0,0,1.02,1.287l2.448,2.306a3.817,3.817,0,0,0,1.607.9l.285.078a4.845,4.845,0,0,1,3.378,3.367l1.312,4.739a4.757,4.757,0,0,0,.8,1.62l3.976,5.218a4.908,4.908,0,0,1,.934,2.161L77,125.237a1.058,1.058,0,0,0,1.452.8,1.969,1.969,0,0,0,1.2-1.615,6.6,6.6,0,0,1,1.492-3.548l1.152-1.387a2.545,2.545,0,0,0,.477-.881l1.184-3.844a5.563,5.563,0,0,1,1.937-2.788l3.553-2.731a1.345,1.345,0,0,0,.205-1.936L87.3,104.549c-.137-.162-.27-.331-.393-.5l-.419-.575-2.458,3.288a.761.761,0,0,1-1.219,0l-4.6-6.158a7.105,7.105,0,0,1-1.389-3.789,4.8,4.8,0,0,0-3.807.022l-1.93,1.035a3.62,3.62,0,0,1-1.715.43,3.666,3.666,0,0,1-3.1-1.7l-1.875-2.963a3.944,3.944,0,0,1,.067-4.319,4.451,4.451,0,0,1,4.269-1.931l2.838.361A2.662,2.662,0,0,0,74.2,86.456a4.3,4.3,0,0,1,4.258-2.09l1.229.157a2.638,2.638,0,0,0,2.416-1l1.084-1.407a3.805,3.805,0,0,0,.113-4.5L79.412,72c-.432.043-.872.093-1.311.151a7.16,7.16,0,0,1-.833,1.431l-4.6,6.157a.761.761,0,0,1-1.219,0L68.057,75.2a42.788,42.788,0,0,0-5.095,3.3,6.764,6.764,0,0,1-.51,7.47l-4.6,6.157a.761.761,0,0,1-1.219,0l-2.441-3.265a35.864,35.864,0,0,0-2.455,6.544l2.72-.885A.762.762,0,0,1,54.54,94.5Z" transform="translate(-6.556 -43.237)" fill="#181818"/>
    <path id="Path_28556" data-name="Path 28556" d="M235.577,206.946a5.3,5.3,0,0,0,1.086-3.517,5.083,5.083,0,0,0-10.16,0,5.43,5.43,0,0,0,1.091,3.527l3.988,5.334Zm-8-3.363a3.813,3.813,0,1,1,3.814,3.815A3.813,3.813,0,0,1,227.578,203.583Z" transform="translate(-154.717 -150.493)" fill="#181818"/>
    <ellipse id="Ellipse_3016" data-name="Ellipse 3016" cx="2.291" cy="2.293" rx="2.291" ry="2.293" transform="translate(74.382 50.797)" fill="#181818"/>
    <path id="Path_28557" data-name="Path 28557" d="M59.576,116.187l3.994-5.343a5.3,5.3,0,0,0,1.086-3.517,5.083,5.083,0,0,0-10.16,0,5.43,5.43,0,0,0,1.092,3.527Zm-.192-12.52a3.815,3.815,0,1,1-3.813,3.814,3.815,3.815,0,0,1,3.813-3.814Z" transform="translate(-8.893 -69.02)" fill="#181818"/>
  </g>
</svg>
