<svg xmlns="http://www.w3.org/2000/svg" width="81.036" height="79.661" viewBox="0 0 81.036 79.661">
  <g id="online" transform="translate(-3 -3.984)">
    <path id="Path_27" data-name="Path 27" d="M21.859,36.79a8.037,8.037,0,0,1-4.3,0l-.335,1.691h4.974Z" transform="translate(5.648 13.03)" fill="#181818"/>
    <path id="Path_28" data-name="Path 28" d="M20.794,40H18l1.4,1.858Z" transform="translate(5.958 14.305)" fill="#181818"/>
    <path id="Path_29" data-name="Path 29" d="M23.126,24.4a4.61,4.61,0,0,0-.936.112A1.4,1.4,0,0,1,21,24.243a5.541,5.541,0,0,0-8.872,2.948H27.08A4.211,4.211,0,0,0,23.126,24.4Z" transform="translate(3.626 7.553)" fill="#181818"/>
    <path id="Path_30" data-name="Path 30" d="M33.979,38.358a1.8,1.8,0,0,0-.768-2.473,1.773,1.773,0,0,0-2.319.657l-.461.741,2.934,2.18Z" transform="translate(10.895 12.593)" fill="#181818"/>
    <path id="Path_31" data-name="Path 31" d="M17.287,40h-2.1A4.2,4.2,0,0,0,11,44.192v1.4H22.177a1.417,1.417,0,0,1-1.118-.559Z" transform="translate(3.177 14.305)" fill="#181818"/>
    <path id="Path_32" data-name="Path 32" d="M31.407,41.935a1.343,1.343,0,0,1-.908.643,1.323,1.323,0,0,1-1.09-.238l-2.473-1.76H23.89l-3.772,5.03A1.417,1.417,0,0,1,19,46.169H33.545l2.99-5.365L33.5,38.54Z" transform="translate(6.355 13.725)" fill="#181818"/>
    <path id="Path_33" data-name="Path 33" d="M20.589,37.78a5.589,5.589,0,0,0,5.589-5.589V28H15v4.192A5.589,5.589,0,0,0,20.589,37.78Z" transform="translate(4.766 9.538)" fill="#181818"/>
    <path id="Path_34" data-name="Path 34" d="M7,53.532H9.794v-1.4a6.986,6.986,0,0,1,6.986-6.986h1.649L19,42.257a8.383,8.383,0,0,1-3.619-6.888V31.177H12.589a1.4,1.4,0,0,1-1.4-1.4A8.383,8.383,0,0,1,19.575,21.4a8.18,8.18,0,0,1,4.681,1.467,6.8,6.8,0,0,1,.908-.07,6.986,6.986,0,0,1,6.986,6.986v5.589a8.383,8.383,0,0,1-3.619,6.888l.573,2.892h3.046a1.312,1.312,0,0,1,.81.265L34.58,46.56l3.227-5.253a4.559,4.559,0,0,1,4.82-2.068l5.044-10.088,2.487,1.257-5.1,10.2a4.3,4.3,0,0,1,1.034,1.76,4.509,4.509,0,0,1-.363,3.577L41.51,53.532H76.859V20H7ZM74.064,36.766H62.887V33.972H74.064Zm0-5.589H60.093V28.383H74.064Zm-8.383-8.383h8.383v2.794H65.681Zm-13.972,0H62.887v2.794H51.71Zm0,5.589H57.3v2.794H51.71Zm0,5.589h8.383v2.794H51.71Zm0,5.589H74.064v2.794H51.71Zm0,5.589H74.064v2.794H51.71Z" transform="translate(1.589 6.361)" fill="#181818"/>
    <circle id="Ellipse_5" data-name="Ellipse 5" cx="1.397" cy="1.397" r="1.397" transform="translate(42.121 9.595)" fill="#181818"/>
    <path id="Path_35" data-name="Path 35" d="M23,59H48.149v2.794H23Z" transform="translate(7.943 21.851)" fill="#181818"/>
    <path id="Path_36" data-name="Path 36" d="M30,54h5.589v4.192H30Z" transform="translate(10.724 19.865)" fill="#181818"/>
    <path id="Path_37" data-name="Path 37" d="M3,51.4a1.4,1.4,0,0,0,1.4,1.4H82.639a1.4,1.4,0,0,0,1.4-1.4V50H3Z" transform="translate(0 18.276)" fill="#181818"/>
    <path id="Path_38" data-name="Path 38" d="M31.625,17.545l-.168,1.83h5.058l-.168-1.83a6.986,6.986,0,1,0-4.722,0ZM33.986,6.8a4.192,4.192,0,1,1-4.192,4.192A4.192,4.192,0,0,1,33.986,6.8Z" transform="translate(9.532 0)" fill="#181818"/>
    <path id="Path_39" data-name="Path 39" d="M81.242,16H5.794A2.794,2.794,0,0,0,3,18.794V60.71H84.036V18.794A2.794,2.794,0,0,0,81.242,16Zm0,40.518a1.4,1.4,0,0,1-1.4,1.4H7.192a1.4,1.4,0,0,1-1.4-1.4V20.192a1.4,1.4,0,0,1,1.4-1.4H79.845a1.4,1.4,0,0,1,1.4,1.4Z" transform="translate(0 4.772)" fill="#181818"/>
  </g>
</svg>
