<svg id="onsite" xmlns="http://www.w3.org/2000/svg" width="83.223" height="80.449" viewBox="0 0 83.223 80.449">
  <path id="Path_40" data-name="Path 40" d="M328,224h5.548v5.548H328Zm0,0" transform="translate(-271.131 -185.163)" fill="#181818"/>
  <path id="Path_41" data-name="Path 41" d="M328,304h5.548v5.548H328Zm0,0" transform="translate(-271.131 -251.292)" fill="#181818"/>
  <path id="Path_42" data-name="Path 42" d="M128,272h5.548v5.548H128Zm0,0" transform="translate(-105.807 -224.84)" fill="#181818"/>
  <path id="Path_43" data-name="Path 43" d="M208,112h5.548v5.548H208Zm0,0" transform="translate(-171.937 -92.581)" fill="#181818"/>
  <path id="Path_44" data-name="Path 44" d="M128,32h5.548v5.548H128Zm0,0" transform="translate(-105.807 -26.452)" fill="#181818"/>
  <path id="Path_45" data-name="Path 45" d="M128,192h5.548v5.548H128Zm0,0" transform="translate(-105.807 -158.711)" fill="#181818"/>
  <path id="Path_46" data-name="Path 46" d="M208,32h5.548v5.548H208Zm0,0" transform="translate(-171.937 -26.452)" fill="#181818"/>
  <path id="Path_47" data-name="Path 47" d="M128,112h5.548v5.548H128Zm0,0" transform="translate(-105.807 -92.581)" fill="#181818"/>
  <path id="Path_48" data-name="Path 48" d="M328,384h5.548v5.548H328Zm0,0" transform="translate(-271.131 -317.422)" fill="#181818"/>
  <path id="Path_49" data-name="Path 49" d="M248,384h5.548v5.548H248Zm0,0" transform="translate(-205.001 -317.422)" fill="#181818"/>
  <path id="Path_50" data-name="Path 50" d="M248,224h5.548v5.548H248Zm0,0" transform="translate(-205.001 -185.163)" fill="#181818"/>
  <path id="Path_51" data-name="Path 51" d="M248,304h5.548v5.548H248Zm0,0" transform="translate(-205.001 -251.292)" fill="#181818"/>
  <path id="Path_52" data-name="Path 52" d="M69.353,77.675V33.289H36.063V77.675H33.289V31.9a1.387,1.387,0,0,1,1.387-1.387H48.547V0H15.258V77.675H0v2.774H83.223V77.675ZM54.1,37.45a1.387,1.387,0,0,1,1.387-1.387H63.8a1.387,1.387,0,0,1,1.387,1.387v8.322A1.387,1.387,0,0,1,63.8,47.16H55.482A1.387,1.387,0,0,1,54.1,45.773Zm0,13.871a1.387,1.387,0,0,1,1.387-1.387H63.8a1.387,1.387,0,0,1,1.387,1.387v8.322A1.387,1.387,0,0,1,63.8,61.03H55.482A1.387,1.387,0,0,1,54.1,59.643Zm0,13.871A1.387,1.387,0,0,1,55.482,63.8H63.8a1.387,1.387,0,0,1,1.387,1.387v8.322A1.387,1.387,0,0,1,63.8,74.9H55.482A1.387,1.387,0,0,1,54.1,73.514ZM40.224,37.45a1.387,1.387,0,0,1,1.387-1.387h8.322a1.387,1.387,0,0,1,1.387,1.387v8.322a1.387,1.387,0,0,1-1.387,1.387H41.612a1.387,1.387,0,0,1-1.387-1.387Zm0,13.871a1.387,1.387,0,0,1,1.387-1.387h8.322a1.387,1.387,0,0,1,1.387,1.387v8.322a1.387,1.387,0,0,1-1.387,1.387H41.612a1.387,1.387,0,0,1-1.387-1.387Zm0,13.871A1.387,1.387,0,0,1,41.612,63.8h8.322a1.387,1.387,0,0,1,1.387,1.387v8.322A1.387,1.387,0,0,1,49.934,74.9H41.612a1.387,1.387,0,0,1-1.387-1.387ZM33.289,4.161a1.387,1.387,0,0,1,1.387-1.387H43a1.387,1.387,0,0,1,1.387,1.387v8.322A1.387,1.387,0,0,1,43,13.871H34.676a1.387,1.387,0,0,1-1.387-1.387Zm0,13.871a1.387,1.387,0,0,1,1.387-1.387H43a1.387,1.387,0,0,1,1.387,1.387v8.322A1.387,1.387,0,0,1,43,27.741H34.676a1.387,1.387,0,0,1-1.387-1.387ZM19.419,4.161a1.387,1.387,0,0,1,1.387-1.387h8.322a1.387,1.387,0,0,1,1.387,1.387v8.322a1.387,1.387,0,0,1-1.387,1.387H20.806a1.387,1.387,0,0,1-1.387-1.387Zm0,13.871a1.387,1.387,0,0,1,1.387-1.387h8.322a1.387,1.387,0,0,1,1.387,1.387v8.322a1.387,1.387,0,0,1-1.387,1.387H20.806a1.387,1.387,0,0,1-1.387-1.387Zm0,13.871a1.387,1.387,0,0,1,1.387-1.387h8.322A1.387,1.387,0,0,1,30.515,31.9v8.322a1.387,1.387,0,0,1-1.387,1.387H20.806a1.387,1.387,0,0,1-1.387-1.387Zm0,13.871a1.387,1.387,0,0,1,1.387-1.387h8.322a1.387,1.387,0,0,1,1.387,1.387V54.1a1.387,1.387,0,0,1-1.387,1.387H20.806A1.387,1.387,0,0,1,19.419,54.1Zm8.322,31.9V65.191A1.387,1.387,0,0,0,26.354,63.8H23.58a1.387,1.387,0,0,0-1.387,1.387V77.675H19.419V65.191A4.161,4.161,0,0,1,23.58,61.03h2.774a4.161,4.161,0,0,1,4.161,4.161V77.675Zm0,0" fill="#181818"/>
</svg>
