<svg xmlns="http://www.w3.org/2000/svg" width="77.427" height="77.534" viewBox="0 0 77.427 77.534">
  <g id="classroom" transform="translate(-0.353)">
    <g id="Group_7590" data-name="Group 7590" transform="translate(32.155 2.539)">
      <g id="Group_7589" data-name="Group 7589">
        <path id="Path_8" data-name="Path 8" d="M249.27,16.768H212.039a1.68,1.68,0,0,0-1.68,1.68V31.54l1.863-1.157a4.658,4.658,0,0,1,1.5-.6V20.128h33.87V44.36h-33.87V40.439l-3.36,2.086V46.04a1.68,1.68,0,0,0,1.68,1.68H249.27a1.68,1.68,0,0,0,1.68-1.68V18.448A1.68,1.68,0,0,0,249.27,16.768Z" transform="translate(-210.359 -16.768)" fill="#181818"/>
      </g>
    </g>
    <g id="Group_7592" data-name="Group 7592" transform="translate(39.036 11.373)">
      <g id="Group_7591" data-name="Group 7591">
        <path id="Path_9" data-name="Path 9" d="M263.4,75.6a1.292,1.292,0,0,0-1.815-.215L255.8,79.946a4.647,4.647,0,0,1,1.408,1.443,4.7,4.7,0,0,1,.278.52l5.7-4.5A1.292,1.292,0,0,0,263.4,75.6Z" transform="translate(-255.798 -75.106)" fill="#181818"/>
      </g>
    </g>
    <g id="Group_7594" data-name="Group 7594" transform="translate(13.868 0)">
      <g id="Group_7593" data-name="Group 7593" transform="translate(0 0)">
        <circle id="Ellipse_1" data-name="Ellipse 1" cx="4.836" cy="4.836" r="4.836" fill="#181818"/>
      </g>
    </g>
    <g id="Group_7596" data-name="Group 7596" transform="translate(6.82 11.213)">
      <g id="Group_7595" data-name="Group 7595">
        <path id="Path_10" data-name="Path 10" d="M74.7,81.723a2.333,2.333,0,0,0-3.213-.752l-4.726,2.934c-.02-3.919-.009-1.839-.022-4.363a5.534,5.534,0,0,0-5.522-5.494h-2.3c-1.961,5.086-1.329,3.2-2.994,7.516l.7-3.049a.972.972,0,0,0-.1-.671l-.949-1.725.842-1.531a.343.343,0,0,0-.3-.508H53.811a.343.343,0,0,0-.3.508l.843,1.534-.95,1.728a.974.974,0,0,0-.1.658l.606,3.055-2.9-7.516H48.668a5.534,5.534,0,0,0-5.522,5.494L43.06,96.684a2.333,2.333,0,0,0,2.322,2.345h.012a2.333,2.333,0,0,0,2.333-2.322l.086-17.142v-.008a.463.463,0,0,1,.926.007v24.287a7.785,7.785,0,0,1,5.6,2.033V96.409h1.209v10.869a7.807,7.807,0,0,1,.219,8.436A8.5,8.5,0,0,1,57.9,116a7.805,7.805,0,0,1,3.246-1.686c0-42.3-.051-16.147-.051-34.741a.488.488,0,0,1,.977,0c.008,1.637.034,6.752.043,8.533a2.333,2.333,0,0,0,3.564,1.971l8.269-5.134A2.333,2.333,0,0,0,74.7,81.723Z" transform="translate(-43.06 -74.048)" fill="#181818"/>
      </g>
    </g>
    <g id="Group_7598" data-name="Group 7598" transform="translate(60.179 43.768)">
      <g id="Group_7597" data-name="Group 7597">
        <circle id="Ellipse_2" data-name="Ellipse 2" cx="5.119" cy="5.119" r="5.119" fill="#181818"/>
      </g>
    </g>
    <g id="Group_7600" data-name="Group 7600" transform="translate(58.796 55.638)">
      <g id="Group_7599" data-name="Group 7599">
        <path id="Path_11" data-name="Path 11" d="M405.24,373.223a5.858,5.858,0,0,0-5.845-5.816H386.556a7.8,7.8,0,0,1-.272,7.622,8.558,8.558,0,0,1,6.837,3.922h6.145v-5.668a.518.518,0,0,1,1.034-.035h0l.029,5.7h4.94Z" transform="translate(-386.284 -367.407)" fill="#181818"/>
      </g>
    </g>
    <g id="Group_7602" data-name="Group 7602" transform="translate(33.473 55.581)">
      <g id="Group_7601" data-name="Group 7601">
        <path id="Path_12" data-name="Path 12" d="M229.877,370.658a7.772,7.772,0,0,1,.893-3.622h-11.4a7.8,7.8,0,0,1-.308,7.535,8.527,8.527,0,0,1,6.1,2.615,8.462,8.462,0,0,1,5.881-2.422A7.812,7.812,0,0,1,229.877,370.658Z" transform="translate(-219.064 -367.036)" fill="#181818"/>
      </g>
    </g>
    <g id="Group_7604" data-name="Group 7604" transform="translate(35.283 43.712)">
      <g id="Group_7603" data-name="Group 7603">
        <path id="Path_13" data-name="Path 13" d="M236.134,288.655a5.119,5.119,0,1,0,5.119,5.119A5.119,5.119,0,0,0,236.134,288.655Z" transform="translate(-231.015 -288.655)" fill="#181818"/>
      </g>
    </g>
    <g id="Group_7606" data-name="Group 7606" transform="translate(0.353 55.581)">
      <g id="Group_7605" data-name="Group 7605" transform="translate(0)">
        <path id="Path_14" data-name="Path 14" d="M18.959,370.52a7.775,7.775,0,0,1,.819-3.48c-.221-.011.707-.007-13.551-.007a5.86,5.86,0,0,0-5.845,5.816l-.029,5.784h4.94l.029-5.759a.517.517,0,0,1,1.034,0v5.757H13.28a8.507,8.507,0,0,1,6.851-4A7.763,7.763,0,0,1,18.959,370.52Z" transform="translate(-0.353 -367.033)" fill="#181818"/>
      </g>
    </g>
    <g id="Group_7608" data-name="Group 7608" transform="translate(7.717 43.712)">
      <g id="Group_7607" data-name="Group 7607">
        <path id="Path_15" data-name="Path 15" d="M54.1,288.655a5.119,5.119,0,1,0,5.119,5.119A5.119,5.119,0,0,0,54.1,288.655Z" transform="translate(-48.983 -288.655)" fill="#181818"/>
      </g>
    </g>
    <g id="Group_7610" data-name="Group 7610" transform="translate(14.601 65.799)">
      <g id="Group_7609" data-name="Group 7609">
        <path id="Path_16" data-name="Path 16" d="M144.126,440.461a5.858,5.858,0,0,0-5.845-5.816H125.332a6.005,6.005,0,0,0-6.013,5.816l-.042-.135a5.858,5.858,0,0,0-5.845-5.816H100.484a6,6,0,0,0-6.013,5.816l-.029,5.919h4.94l.029-5.894a.445.445,0,0,1,.89,0v5.892h13.083v-5.892a.477.477,0,0,1,.954,0l.029,5.894h9.863l.029-5.759h0a.445.445,0,0,1,.89,0v5.757h13.083v-5.757a.477.477,0,0,1,.954,0l.029,5.759h4.94Z" transform="translate(-94.442 -434.51)" fill="#181818"/>
      </g>
    </g>
    <g id="Group_7612" data-name="Group 7612" transform="translate(21.763 53.87)">
      <g id="Group_7611" data-name="Group 7611">
        <circle id="Ellipse_3" data-name="Ellipse 3" cx="5.179" cy="5.179" r="5.179" fill="#181818"/>
      </g>
    </g>
    <g id="Group_7614" data-name="Group 7614" transform="translate(46.922 54.005)">
      <g id="Group_7613" data-name="Group 7613">
        <circle id="Ellipse_4" data-name="Ellipse 4" cx="5.179" cy="5.179" r="5.179" fill="#181818"/>
      </g>
    </g>
  </g>
</svg>
