<svg xmlns="http://www.w3.org/2000/svg" width="80.208" height="77.521" viewBox="0 0 80.208 77.521">
  <g id="chat" transform="translate(-294 -5708)">
    <path id="Path_28174" data-name="Path 28174" d="M0-12.382S21.234-27.033,41.286-27.033,80.208-12.382,80.208-12.382v62.87H0Z" transform="translate(294 5735.033)" fill="#0064d8"/>
    <g id="chat-2" data-name="chat" transform="translate(315 5713)">
      <circle id="Ellipse_25" data-name="Ellipse 25" cx="4.372" cy="4.372" r="4.372" transform="translate(3.206 32.651)" fill="#fff"/>
      <path id="Path_28188" data-name="Path 28188" d="M11.855,364.5H3.284A3.283,3.283,0,0,0,0,367.777l0,5.212a1.093,1.093,0,0,0,1.093,1.094h12.9A1.093,1.093,0,0,0,15.085,373l.05-5.194a3.279,3.279,0,0,0-3.279-3.306Z" transform="translate(0 -323.104)" fill="#fff"/>
      <circle id="Ellipse_26" data-name="Ellipse 26" cx="4.372" cy="4.372" r="4.372" transform="translate(25.383 32.651)" fill="#fff"/>
      <path id="Path_28189" data-name="Path 28189" d="M316.171,364.5H307.6a3.283,3.283,0,0,0-3.279,3.277l0,5.212a1.093,1.093,0,0,0,1.093,1.094h12.9A1.093,1.093,0,0,0,319.4,373c.05-5.268.049-5.187.05-5.2a3.279,3.279,0,0,0-3.279-3.3Z" transform="translate(-282.14 -323.104)" fill="#fff"/>
      <path id="Path_28190" data-name="Path 28190" d="M11.915,16H5.648a5.648,5.648,0,0,0,0,11.3H9.261l.024,3.376a.583.583,0,0,0,.989.415L15.6,25.93A5.646,5.646,0,0,0,11.915,16ZM4.409,22.777A1.093,1.093,0,1,1,5.5,21.684,1.093,1.093,0,0,1,4.409,22.777Zm4.372,0a1.093,1.093,0,1,1,1.093-1.093A1.093,1.093,0,0,1,8.781,22.777Zm4.372,0a1.093,1.093,0,1,1,1.093-1.093A1.093,1.093,0,0,1,13.154,22.777Z" transform="translate(0 0)" fill="#fff"/>
      <path id="Path_28191" data-name="Path 28191" d="M279.277,30.672,279.3,27.3h3.613a5.648,5.648,0,1,0,0-11.3h-6.267a5.646,5.646,0,0,0-3.681,9.93l5.321,5.157A.583.583,0,0,0,279.277,30.672Zm4.876-10.081a1.093,1.093,0,1,1-1.093,1.093A1.093,1.093,0,0,1,284.154,20.591Zm-4.372,0a1.093,1.093,0,1,1-1.093,1.093A1.093,1.093,0,0,1,279.781,20.591Zm-4.372,2.186a1.093,1.093,0,1,1,1.093-1.093A1.093,1.093,0,0,1,275.409,22.777Z" transform="translate(-251.251 0)" fill="#fff"/>
    </g>
  </g>
</svg>
