<svg xmlns="http://www.w3.org/2000/svg" width="80.208" height="77.521" viewBox="0 0 80.208 77.521">
  <g id="chat-support" transform="translate(-294 -5708)">
    <path id="Path_28174" data-name="Path 28174" d="M0-12.382S21.234-27.033,41.286-27.033,80.208-12.382,80.208-12.382v62.87H0Z" transform="translate(294 5735.033)" fill="#0064d8"/>
    <g id="help" transform="translate(317 5730)">
      <path id="Path_28178" data-name="Path 28178" d="M219.678,208.587a11.125,11.125,0,0,0-6.1-9.907,15.129,15.129,0,0,1-14.9,14.9,11.1,11.1,0,0,0,15.55,4.559l5.4,1.494-1.494-5.4A11.052,11.052,0,0,0,219.678,208.587Zm0,0" transform="translate(-185.365 -185.365)" fill="#fff"/>
      <path id="Path_28179" data-name="Path 28179" d="M26.2,13.1a13.1,13.1,0,1,0-24.388,6.66L.048,26.156l6.394-1.768A13.1,13.1,0,0,0,26.2,13.1ZM11.092,10.053H9.081a4.021,4.021,0,1,1,6.735,2.967l-1.708,1.563v1.568H12.1V13.7l2.361-2.161a1.99,1.99,0,0,0,.654-1.484,2.011,2.011,0,0,0-4.021,0ZM12.1,18.162h2.011v2.011H12.1Zm0,0" fill="#fff"/>
    </g>
  </g>
</svg>
