<svg xmlns="http://www.w3.org/2000/svg" width="55.895" height="55.903" viewBox="0 0 55.895 55.903">
  <g id="book" transform="translate(0.4 0.409)">
    <path id="Path_398" data-name="Path 398" d="M290.229,201.274a.918.918,0,0,0,1.236.4,78.71,78.71,0,0,1,8.125-3.616.918.918,0,0,0-.551-1.752,78.751,78.751,0,0,0-8.4,3.73.918.918,0,0,0-.406,1.236Z" transform="translate(-258.906 -175.146)" fill="#fff" stroke="#fff" stroke-width="0.8"/>
    <path id="Path_399" data-name="Path 399" d="M291.047,99.377a.918.918,0,0,0,.417-.1,78.72,78.72,0,0,1,8.125-3.614.918.918,0,1,0-.551-1.752,78.765,78.765,0,0,0-8.4,3.73.918.918,0,0,0,.417,1.736Z" transform="translate(-258.903 -83.765)" fill="#fff" stroke="#fff" stroke-width="0.8"/>
    <path id="Path_400" data-name="Path 400" d="M54.176,13.774a.918.918,0,0,0-.918.918V50.5A2.755,2.755,0,0,1,50.5,53.258H28.466V51.146a27.059,27.059,0,0,1,8.264-1.561,47.363,47.363,0,0,1,13.484,1.789.918.918,0,0,0,1.208-.87V10.1a.918.918,0,0,0-.72-.9s-.72-.16-1.95-.387a.918.918,0,0,0-.332,1.805c.47.086.863.162,1.166.224V49.282A51.857,51.857,0,0,0,36.73,47.749a28.848,28.848,0,0,0-9.146,1.759,21.511,21.511,0,0,0-8.3-1.759A61.879,61.879,0,0,0,5.509,49.323V10.811A60.441,60.441,0,0,1,19.283,9.182,19.909,19.909,0,0,1,26.629,10.7V46.831a.918.918,0,0,0,1.39.786,105.125,105.125,0,0,1,17.263-8.18.918.918,0,0,0,.63-.87V.918A.918.918,0,0,0,44.671.059,97.679,97.679,0,0,0,29.815,7.486a.918.918,0,0,0,.973,1.557A98.145,98.145,0,0,1,44.076,2.261V37.909a102.9,102.9,0,0,0-15.61,7.326V10.1a.918.918,0,0,0-.509-.821,21.263,21.263,0,0,0-8.674-1.934A59.6,59.6,0,0,0,4.341,9.219a.918.918,0,0,0-.668.882V50.5a.918.918,0,0,0,.918.918.905.905,0,0,0,.252-.037,58.986,58.986,0,0,1,14.44-1.8A19.865,19.865,0,0,1,26.629,51.1v2.16H4.591A2.755,2.755,0,0,1,1.836,50.5V14.692a.918.918,0,0,0-1.836,0V50.5a4.591,4.591,0,0,0,4.591,4.591H50.5A4.591,4.591,0,0,0,55.095,50.5V14.692A.918.918,0,0,0,54.176,13.774Z" transform="translate(0 0)" fill="#fff" stroke="#fff" stroke-width="0.8"/>
    <path id="Path_401" data-name="Path 401" d="M290.23,150.076a.918.918,0,0,0,1.236.4,78.727,78.727,0,0,1,8.125-3.616.918.918,0,0,0-.551-1.752,78.783,78.783,0,0,0-8.4,3.73.918.918,0,0,0-.406,1.238Z" transform="translate(-258.906 -129.456)" fill="#fff" stroke="#fff" stroke-width="0.8"/>
    <path id="Path_402" data-name="Path 402" d="M290.229,252.474a.918.918,0,0,0,1.236.4,78.7,78.7,0,0,1,8.125-3.616.918.918,0,0,0-.551-1.752,78.73,78.73,0,0,0-8.4,3.73.918.918,0,0,0-.406,1.236Z" transform="translate(-258.906 -220.837)" fill="#fff" stroke="#fff" stroke-width="0.8"/>
    <path id="Path_403" data-name="Path 403" d="M98.4,154.133a29.142,29.142,0,0,0-12.383.437.918.918,0,0,0,.237,1.805.933.933,0,0,0,.239-.031,27.675,27.675,0,0,1,11.489-.424.918.918,0,1,0,.419-1.787Z" transform="translate(-76.147 -137.092)" fill="#fff" stroke="#fff" stroke-width="0.8"/>
    <path id="Path_404" data-name="Path 404" d="M98.4,205.337a29.159,29.159,0,0,0-12.383.437.918.918,0,0,0,.237,1.805.936.936,0,0,0,.239-.031,27.671,27.671,0,0,1,11.489-.422.918.918,0,1,0,.419-1.787Z" transform="translate(-76.147 -182.786)" fill="#fff" stroke="#fff" stroke-width="0.8"/>
    <path id="Path_405" data-name="Path 405" d="M290.229,303.675a.918.918,0,0,0,1.236.4,78.711,78.711,0,0,1,8.125-3.616.918.918,0,0,0-.551-1.752,78.723,78.723,0,0,0-8.4,3.73.918.918,0,0,0-.406,1.236Z" transform="translate(-258.906 -266.529)" fill="#fff" stroke="#fff" stroke-width="0.8"/>
    <path id="Path_406" data-name="Path 406" d="M98.4,256.535a29.144,29.144,0,0,0-12.383.437.918.918,0,0,0,.237,1.807.945.945,0,0,0,.239-.033,27.67,27.67,0,0,1,11.489-.424.918.918,0,1,0,.419-1.787Z" transform="translate(-76.15 -228.475)" fill="#fff" stroke="#fff" stroke-width="0.8"/>
    <path id="Path_407" data-name="Path 407" d="M98.4,358.933a29.14,29.14,0,0,0-12.383.437.918.918,0,0,0,.237,1.807.937.937,0,0,0,.239-.033,27.673,27.673,0,0,1,11.489-.424.918.918,0,1,0,.419-1.787Z" transform="translate(-76.15 -319.854)" fill="#fff" stroke="#fff" stroke-width="0.8"/>
    <path id="Path_408" data-name="Path 408" d="M98.4,307.732a29.125,29.125,0,0,0-12.383.437.918.918,0,0,0,.237,1.807.934.934,0,0,0,.239-.033,27.675,27.675,0,0,1,11.489-.422.918.918,0,1,0,.419-1.787Z" transform="translate(-76.15 -274.163)" fill="#fff" stroke="#fff" stroke-width="0.8"/>
  </g>
</svg>
