<svg xmlns="http://www.w3.org/2000/svg" width="53.652" height="54.956" viewBox="0 0 53.652 54.956">
  <g id="details" transform="translate(0)">
    <rect id="Rectangle_1138" data-name="Rectangle 1138" width="24.51" height="3.973" transform="translate(7.422 12.085)" fill="#fff"/>
    <path id="Path_28398" data-name="Path 28398" d="M25.741,22.677a8.636,8.636,0,1,0-3.279,3.285l9.715,9.715L35.456,32.4Zm-3.9-.616a5.29,5.29,0,0,1-7.291,0,5.158,5.158,0,1,1,7.291,0Z" transform="translate(18.196 19.279)" fill="#fff"/>
    <path id="Path_28399" data-name="Path 28399" d="M39.272,48.544H5.1a.98.98,0,0,1-.98-.977V4.878A.979.979,0,0,1,5.1,3.9H39.272a.976.976,0,0,1,.977.98V26.655a10.215,10.215,0,0,1,3.9,1.778V4.878A4.883,4.883,0,0,0,39.272,0H5.1A4.885,4.885,0,0,0,.219,4.878V47.567A4.884,4.884,0,0,0,5.1,52.442H39.272c2.04,0,3-.482,3.732-2.263l-1.77-1.769a5.135,5.135,0,0,1-1.962.134Z" transform="translate(-0.219)" fill="#fff"/>
    <rect id="Rectangle_1139" data-name="Rectangle 1139" width="24.51" height="3.973" transform="translate(7.422 23.283)" fill="#fff"/>
  </g>
</svg>
