<svg xmlns="http://www.w3.org/2000/svg" width="81.643" height="81.643" viewBox="0 0 81.643 81.643">
  <g id="flexible" transform="translate(-13.549 -10.628)">
    <path id="Path_28476" data-name="Path 28476" d="M40.822,0A40.822,40.822,0,1,1,0,40.822,40.822,40.822,0,0,1,40.822,0Z" transform="translate(13.549 10.628)" fill="#fff"/>
    <g id="Group_7779" data-name="Group 7779" transform="translate(-139.451 -2288)">
      <rect id="Rectangle_481" data-name="Rectangle 481" width="12" height="5" transform="translate(186 2360)" fill="#0064d8"/>
      <g id="elastic_2_" data-name="elastic (2)" transform="translate(168 2318)">
        <path id="Path_28492" data-name="Path 28492" d="M55.886,7.589c-.067-.177-.141-.354-.221-.53L56.71,5.23,53.687,2.207,51.858,3.252c-.176-.08-.352-.155-.53-.221L50.773,1H46.5l-.555,2.03c-.177.067-.354.141-.53.221L43.584,2.207,40.561,5.229l1.045,1.829a7.513,7.513,0,0,0-.292.725l-.143.417a9.175,9.175,0,0,1,2.05-.24,9.273,9.273,0,0,1,2.167.265l-.019-.015a3.867,3.867,0,1,1,6.077,4.727l-.016-.013a9.2,9.2,0,0,1,1.045,3.6h-.041a5.374,5.374,0,0,1,2.255.833l2.02-2.02L55.664,13.5c.08-.176.155-.352.221-.53l2.031-.554V8.144Z" transform="translate(-9.962 -1)" fill="#0064d8"/>
        <path id="Path_28493" data-name="Path 28493" d="M30.646,41.976,30,49.729l1.547,1.547,1.547-1.547-.646-7.753Z" transform="translate(-7.57 -10.283)" fill="#0064d8"/>
        <path id="Path_28494" data-name="Path 28494" d="M44.209,16.326a9.9,9.9,0,0,0-.829-2.832,4.63,4.63,0,0,0-7.308-5.683,9.922,9.922,0,0,0-5.836.672A13.141,13.141,0,0,0,6.414,16.149c0,.018,0,.036,0,.053a6.185,6.185,0,0,0,.772,12.322h.453L18.016,38.9V49.407H31.938V38.9L42.313,28.524h.453a6.184,6.184,0,0,0,1.442-12.2ZM39.673,7.641A3.079,3.079,0,0,1,42.5,11.971a10.163,10.163,0,0,0-4.721-3.68A3.08,3.08,0,0,1,39.673,7.641ZM30.391,38.259v9.6H19.563v-9.6L8.375,27.071a1.414,1.414,0,0,1,2-2l6.044,6.044a8.568,8.568,0,0,0,4.813,2.407l2.862.408.807,0c.026,0,.051,0,.077,0h.773l2.972-.416a8.568,8.568,0,0,0,4.813-2.407l6.044-6.044a1.414,1.414,0,0,1,2,2ZM18.843,28.524a6.157,6.157,0,0,0,1.364,3.163,7.005,7.005,0,0,1-2.694-1.666l-1.5-1.5Zm12.269,0h2.827l-1.5,1.5a7.015,7.015,0,0,1-2.694,1.666,6.163,6.163,0,0,0,1.364-3.163Zm-6.134,3.867a4.641,4.641,0,1,1,4.641-4.641A4.645,4.645,0,0,1,24.977,32.391ZM43.4,26.929a2.93,2.93,0,0,0,.141-.859,2.961,2.961,0,0,0-5.055-2.094l-3,3H31.111a6.182,6.182,0,0,0-12.269,0H14.469l-3-3a2.944,2.944,0,0,0-4.914,2.951A4.638,4.638,0,1,1,11,19.683l1.269-.886a6.2,6.2,0,0,0-4.3-2.6c0-.016,0-.032,0-.049A11.6,11.6,0,0,1,29.319,9.887l.382.594.626-.326a8.418,8.418,0,0,1,3.931-.967,8.549,8.549,0,0,1,8.366,6.968,6.192,6.192,0,0,0-6.045,6.181h1.547A4.641,4.641,0,1,1,43.4,26.929Z" transform="translate(-1 -1.453)" fill="#262d3f"/>
        <path id="Path_28495" data-name="Path 28495" d="M35.922,21.387l1,1H20.547l1-1-1.094-1.094L17.586,23.16l2.867,2.867,1.094-1.094-1-1H36.922l-1,1,1.094,1.094,2.867-2.867-2.867-2.867Z" transform="translate(-4.758 -5.371)" fill="#262d3f"/>
        <path id="Path_28496" data-name="Path 28496" d="M28.767,7.613a9.927,9.927,0,0,0-1.677-.434l-.255,1.526a8.51,8.51,0,0,1,1.417.366Z" transform="translate(-6.853 -2.4)" fill="#262d3f"/>
        <path id="Path_28497" data-name="Path 28497" d="M22.1,7a10.02,10.02,0,0,0-9.916,8.38l1.526.255A8.475,8.475,0,0,1,22.1,8.547Z" transform="translate(-3.533 -2.359)" fill="#262d3f"/>
      </g>
    </g>
  </g>
</svg>
