<svg xmlns="http://www.w3.org/2000/svg" xmlns:xlink="http://www.w3.org/1999/xlink" width="132.608" height="129.008" viewBox="0 0 132.608 129.008">
  <defs>
    <linearGradient id="linear-gradient" x1="0.5" x2="0.5" y2="1" gradientUnits="objectBoundingBox">
      <stop offset="0" stop-color="#fff"/>
      <stop offset="1" stop-color="#0064d8"/>
    </linearGradient>
    <linearGradient id="linear-gradient-2" x1="0.5" x2="0.5" y2="1" gradientUnits="objectBoundingBox">
      <stop offset="0" stop-color="#0064d8"/>
      <stop offset="1" stop-color="#5ea8ff"/>
    </linearGradient>
  </defs>
  <g id="price" transform="translate(0)">
    <g id="_003-discount" data-name="003-discount" transform="translate(0)">
      <path id="Path_48" data-name="Path 48" d="M69.2,0l38,83.2S85.975,99.244,69.575,105.244,41.6,107.2,41.6,107.2L0,0Z" transform="matrix(0.998, 0.07, -0.07, 0.998, 25.669, 13.262)" opacity="0.1" fill="url(#linear-gradient)"/>
      <path id="Path_13" data-name="Path 13" d="M36.992,217.815,5.727,205.626a3.017,3.017,0,0,1-1.715-3.907l22.882-58.691a3.017,3.017,0,0,1,3.907-1.715L62.065,153.5a3.017,3.017,0,0,1,1.715,3.907L40.9,216.1a3.017,3.017,0,0,1-3.907,1.715Z" transform="translate(-3.805 -111.844)" fill="url(#linear-gradient-2)"/>
      <path id="Path_14" data-name="Path 14" d="M180.52,186.553l-9.615-3.748-1.072,1.495a4.293,4.293,0,0,0-.684,3.513l2.164,8.936a14,14,0,0,1-.563,8.379l-17.5,44.883,2.194.855a3.017,3.017,0,0,0,3.907-1.715l15.205-39,7.676-19.69A3.017,3.017,0,0,0,180.52,186.553Z" transform="translate(-122.26 -144.895)" fill="#1c2848"/>
      <g id="Group_70" data-name="Group 70" transform="translate(20.025 51.494)">
        <g id="Group_67" data-name="Group 67" transform="translate(0 5.46)">
          <path id="Path_15" data-name="Path 15" d="M101.943,295.819a1.578,1.578,0,0,1-1.134-2.676l17.45-18.028a1.578,1.578,0,0,1,2.268,2.2l-17.45,18.028a1.573,1.573,0,0,1-1.134.481Z" transform="translate(-100.365 -274.633)" fill="#fff"/>
        </g>
        <g id="Group_68" data-name="Group 68" transform="translate(0.862)">
          <path id="Path_16" data-name="Path 16" d="M110.052,261.265a5.338,5.338,0,0,1-1.945-.367,5.54,5.54,0,0,1-3.211-3.408,6.964,6.964,0,0,1,.128-4.839c1.314-3.372,4.837-5.159,7.852-3.984s4.4,4.875,3.084,8.247a6.964,6.964,0,0,1-3.181,3.648A5.8,5.8,0,0,1,110.052,261.265Zm.874-9.806a3.414,3.414,0,0,0-2.961,2.339,3.809,3.809,0,0,0-.092,2.643,2.308,2.308,0,0,0,3.423,1.335,3.811,3.811,0,0,0,1.721-2.008c.682-1.75.1-3.616-1.289-4.159A2.207,2.207,0,0,0,110.925,251.459Z" transform="translate(-104.522 -248.306)" fill="#fff"/>
        </g>
        <g id="Group_69" data-name="Group 69" transform="translate(7.338 19.495)">
          <path id="Path_17" data-name="Path 17" d="M141.256,355.271a5.286,5.286,0,0,1-1.927-.361c-3.015-1.175-4.4-4.875-3.083-8.247a6.965,6.965,0,0,1,3.181-3.648,5.458,5.458,0,0,1,7.882,3.073,6.964,6.964,0,0,1-.128,4.839A6.566,6.566,0,0,1,141.256,355.271Zm.9-9.8a2.666,2.666,0,0,0-1.249.329,3.81,3.81,0,0,0-1.721,2.008c-.682,1.75-.1,3.616,1.289,4.159s3.081-.439,3.764-2.189a3.809,3.809,0,0,0,.091-2.643,2.433,2.433,0,0,0-1.381-1.516A2.174,2.174,0,0,0,142.157,345.473Z" transform="translate(-135.748 -342.312)" fill="#fff"/>
        </g>
      </g>
      <path id="Path_18" data-name="Path 18" d="M300.453,174.51l-30.133,7.3a4.293,4.293,0,0,1-5.183-3.162l-14.773-61a4.293,4.293,0,0,1,.684-3.513L263.076,97.36a4.293,4.293,0,0,1,5.476-1.3l18.1,9.452a4.293,4.293,0,0,1,2.185,2.8l14.777,61.023A4.293,4.293,0,0,1,300.453,174.51Z" transform="translate(-199.137 -75.75)" fill="#1c2848"/>
      <path id="Path_19" data-name="Path 19" d="M350.11,169.325,335.332,108.3a4.294,4.294,0,0,0-2.185-2.8l-18.1-9.452a4.293,4.293,0,0,0-5.476,1.3l-.668.932a4.3,4.3,0,0,1,.788.315l18.1,9.452a4.293,4.293,0,0,1,2.185,2.8l14.777,61.023a4.278,4.278,0,0,1-.541,3.3l2.735-.662A4.294,4.294,0,0,0,350.11,169.325Z" transform="translate(-245.631 -75.749)" fill="url(#linear-gradient-2)"/>
      <g id="Group_74" data-name="Group 74" transform="translate(63.983 54.621)">
        <g id="Group_71" data-name="Group 71" transform="translate(10.663)">
          <path id="Path_20" data-name="Path 20" d="M365.334,291.315a1.58,1.58,0,0,1-1.56-1.83l3.991-24.77a1.578,1.578,0,1,1,3.116.5l-3.991,24.77A1.579,1.579,0,0,1,365.334,291.315Z" transform="translate(-363.754 -263.387)" fill="#fdfdfd"/>
        </g>
        <g id="Group_72" data-name="Group 72" transform="translate(0 1.568)">
          <path id="Path_21" data-name="Path 21" d="M318.527,284.011a5.679,5.679,0,0,1-3.322-1.108,6.963,6.963,0,0,1-2.664-4.041c-.852-3.518,1.014-7,4.159-7.761a5.54,5.54,0,0,1,4.584.957,7.15,7.15,0,0,1,2.144,8.854,5.54,5.54,0,0,1-3.638,2.948A5.35,5.35,0,0,1,318.527,284.011Zm-.578-9.9a2.15,2.15,0,0,0-.506.06c-1.453.352-2.276,2.124-1.834,3.95a3.809,3.809,0,0,0,1.438,2.219,2.307,2.307,0,0,0,3.571-.865,4,4,0,0,0-1.175-4.851A2.572,2.572,0,0,0,317.95,274.109Z" transform="translate(-312.335 -270.95)" fill="#fdfdfd"/>
        </g>
        <g id="Group_73" data-name="Group 73" transform="translate(16.465 13.858)">
          <path id="Path_22" data-name="Path 22" d="M397.946,343.268a6.448,6.448,0,0,1-6.005-5.147,6.964,6.964,0,0,1,.52-4.812,5.54,5.54,0,0,1,3.638-2.948c3.145-.762,6.4,1.481,7.248,5s-1.014,7-4.159,7.761A5.261,5.261,0,0,1,397.946,343.268Zm-.589-9.9a2.187,2.187,0,0,0-.515.061,2.434,2.434,0,0,0-1.571,1.318,3.811,3.811,0,0,0-.263,2.631c.442,1.826,1.985,3.023,3.438,2.673s2.276-2.124,1.833-3.949A3.3,3.3,0,0,0,397.356,333.368Z" transform="translate(-391.732 -330.212)" fill="#fdfdfd"/>
        </g>
      </g>
      <g id="Group_75" data-name="Group 75" transform="translate(38.574 7.703)">
        <path id="Path_23" data-name="Path 23" d="M191.4,72.9a1.579,1.579,0,0,1-1.577-1.519,54.421,54.421,0,0,1,1.423-13c2.18-9.437,6.639-16.687,12.894-20.967a1.579,1.579,0,0,1,1.6-.107,35.543,35.543,0,0,1,8.012,5.941c5.3,5.2,8.115,11.324,8.15,17.719a1.579,1.579,0,0,1-1.57,1.587h-.009a1.579,1.579,0,0,1-1.578-1.57c-.064-11.575-10.569-18.608-13.611-20.4-12.8,9.593-12.166,30.466-12.158,30.68A1.579,1.579,0,0,1,191.46,72.9Z" transform="translate(-189.812 -37.142)" fill="#d0cee7"/>
      </g>
      <g id="Group_76" data-name="Group 76" transform="translate(52.215)">
        <path id="Path_24" data-name="Path 24" d="M257.17,10.859a1.578,1.578,0,0,1-1.578-1.578v-7.7a1.578,1.578,0,0,1,3.157,0v7.7a1.579,1.579,0,0,1-1.579,1.579Z" transform="translate(-255.592)" fill="#d0cee7"/>
      </g>
      <g id="Group_77" data-name="Group 77" transform="translate(36.902 39.651)">
        <path id="Path_25" data-name="Path 25" d="M186.694,195.67a1.571,1.571,0,0,1-.573-.108l-3.364-1.312a1.578,1.578,0,1,1,1.147-2.941l3.364,1.312a1.579,1.579,0,0,1-.574,3.049Z" transform="translate(-181.751 -191.201)" fill="#beb9dd"/>
      </g>
      <g id="Group_78" data-name="Group 78" transform="translate(65.754 29.536)">
        <path id="Path_26" data-name="Path 26" d="M322.455,146.434a1.579,1.579,0,0,1-.37-3.113l3.509-.85a1.578,1.578,0,1,1,.743,3.068l-3.509.85A1.582,1.582,0,0,1,322.455,146.434Z" transform="translate(-320.877 -142.426)" fill="#beb9dd"/>
      </g>
    </g>
    <g id="Group_80" data-name="Group 80" transform="translate(104.5 53)">
      <path id="Polygon_1" data-name="Polygon 1" d="M10.607,1.592a1,1,0,0,1,1.752,0L15.42,7.153a1,1,0,0,0,.394.394l5.561,3.061a1,1,0,0,1,0,1.752L15.814,15.42a1,1,0,0,0-.394.394l-3.061,5.561a1,1,0,0,1-1.752,0L7.547,15.814a1,1,0,0,0-.394-.394L1.592,12.359a1,1,0,0,1,0-1.752L7.153,7.547a1,1,0,0,0,.394-.394Z" fill="#ffd73b"/>
      <path id="Polygon_2" data-name="Polygon 2" d="M5.051,1.592a1,1,0,0,1,1.752,0L7.891,3.569a1,1,0,0,0,.394.394l1.977,1.088a1,1,0,0,1,0,1.752L8.285,7.891a1,1,0,0,0-.394.394L6.8,10.262a1,1,0,0,1-1.752,0L3.963,8.285a1,1,0,0,0-.394-.394L1.592,6.8a1,1,0,0,1,0-1.752L3.569,3.963a1,1,0,0,0,.394-.394Z" transform="translate(5.927 5.927)" fill="#ebbb00"/>
    </g>
    <g id="Group_81" data-name="Group 81" transform="translate(44.5 100)">
      <path id="Polygon_1-2" data-name="Polygon 1" d="M5.024,1.592a1,1,0,0,1,1.752,0l1.079,1.96a1,1,0,0,0,.394.394l1.96,1.079a1,1,0,0,1,0,1.752L8.249,7.855a1,1,0,0,0-.394.394l-1.079,1.96a1,1,0,0,1-1.752,0L3.945,8.249a1,1,0,0,0-.394-.394L1.592,6.776a1,1,0,0,1,0-1.752l1.96-1.079a1,1,0,0,0,.394-.394Z" fill="#ffd73b"/>
      <path id="Polygon_2-2" data-name="Polygon 2" d="M2.169,1.592a1,1,0,0,1,1.752,0l.065.118A1,1,0,0,0,4.38,2.1l.118.065a1,1,0,0,1,0,1.752l-.118.065a1,1,0,0,0-.394.394L3.921,4.5a1,1,0,0,1-1.752,0L2.1,4.38a1,1,0,0,0-.394-.394l-.118-.065a1,1,0,0,1,0-1.752L1.71,2.1A1,1,0,0,0,2.1,1.71Z" transform="translate(3.045 3.045)" fill="#ebbb00"/>
    </g>
    <g id="Group_82" data-name="Group 82" transform="translate(71.5 8)">
      <path id="Polygon_1-3" data-name="Polygon 1" d="M5.024,1.592a1,1,0,0,1,1.752,0l1.079,1.96a1,1,0,0,0,.394.394l1.96,1.079a1,1,0,0,1,0,1.752L8.249,7.855a1,1,0,0,0-.394.394l-1.079,1.96a1,1,0,0,1-1.752,0L3.945,8.249a1,1,0,0,0-.394-.394L1.592,6.776a1,1,0,0,1,0-1.752l1.96-1.079a1,1,0,0,0,.394-.394Z" fill="#ffd73b"/>
      <path id="Polygon_2-3" data-name="Polygon 2" d="M2.169,1.592a1,1,0,0,1,1.752,0l.065.118A1,1,0,0,0,4.38,2.1l.118.065a1,1,0,0,1,0,1.752l-.118.065a1,1,0,0,0-.394.394L3.921,4.5a1,1,0,0,1-1.752,0L2.1,4.38a1,1,0,0,0-.394-.394l-.118-.065a1,1,0,0,1,0-1.752L1.71,2.1A1,1,0,0,0,2.1,1.71Z" transform="translate(3.045 3.045)" fill="#ebbb00"/>
    </g>
  </g>
</svg>
