<svg xmlns="http://www.w3.org/2000/svg" width="45.53" height="48.698" viewBox="0 0 45.53 48.698">
  <g id="led" transform="translate(0.002 -0.004)">
    <g id="Group_1262" data-name="Group 1262">
      <g id="Group_1004" data-name="Group 1004">
        <g id="_002-online-learning" data-name="002-online-learning">
          <path id="Path_6" data-name="Path 6" d="M11,45h1.469v1.572H11Z" transform="translate(-3.656 -10.437)" fill="#181818"/>
          <path id="Path_7" data-name="Path 7" d="M15,45h1.469v1.572H15Z" transform="translate(-4.719 -10.437)" fill="#181818"/>
          <path id="Path_8" data-name="Path 8" d="M7,45H8.469v1.572H7Z" transform="translate(-2.593 -10.437)" fill="#181818"/>
          <path id="Path_9" data-name="Path 9" d="M42.854,7.282H40.6a5.51,5.51,0,0,0,.041-.6V6.5a3.076,3.076,0,0,0-2.624-3.125,7.766,7.766,0,0,0-9.8-1.129,5.089,5.089,0,0,0-2.261,4.277v.16a5.509,5.509,0,0,0,.041.6H4.672A3.81,3.81,0,0,0,1,11.212V36.347a3.81,3.81,0,0,0,3.672,3.928h13.2a4.559,4.559,0,0,1-1.685,3.142H12.744a2.286,2.286,0,0,0-2.2,2.353v1.572a2.286,2.286,0,0,0,2.2,2.359H34.78a2.286,2.286,0,0,0,2.2-2.356V45.771a2.286,2.286,0,0,0-2.2-2.356H31.352a4.559,4.559,0,0,1-1.685-3.142H42.854a3.81,3.81,0,0,0,3.672-3.928V11.212A3.81,3.81,0,0,0,42.854,7.282Zm0,1.572a2.286,2.286,0,0,1,2.2,2.356V32.42H43.591V22.677a5.267,5.267,0,0,0-4.185-5.284l-3.158-.563V15.494a4.8,4.8,0,0,0,1.4-2.712h.8a2.286,2.286,0,0,0,2.2-2.356,2.434,2.434,0,0,0-.5-1.47c.015-.033.032-.064.047-.1ZM35.83,18.342l.3.055-.43,3.686-1.426-1.525Zm-2.523-3.215a3.047,3.047,0,0,1-2.935-3.135V9.6A5.493,5.493,0,0,0,33.31,8.328,5.493,5.493,0,0,0,36.248,9.6v2.39a3.049,3.049,0,0,1-2.937,3.143Zm0,1.572a4.133,4.133,0,0,0,1.469-.275v.8l-1.469,2.1-1.469-2.1v-.8a4.134,4.134,0,0,0,1.472.282Zm-2.523,1.644,1.553,2.214L30.915,22.09l-.43-3.69Zm-1.749.313.8,6.816,3.48-3.722,3.48,3.722.8-6.816,1.579.281a3.723,3.723,0,0,1,2.957,3.735v9.743H24.5V22.677a3.721,3.721,0,0,1,2.958-3.735Zm8.681-9.021h.735a.788.788,0,0,1,0,1.572h-.735ZM27.436,6.52a3.485,3.485,0,0,1,1.55-2.927A6.381,6.381,0,0,1,37.2,4.7l.215.23h.3A1.524,1.524,0,0,1,39.186,6.5v.18A3.779,3.779,0,0,1,38.9,8.12a2.052,2.052,0,0,0-.447-.049h-1.6A4.112,4.112,0,0,1,33.83,6.734l-.52-.556-.52.556A4.112,4.112,0,0,1,29.763,8.07H28.169a2.051,2.051,0,0,0-.447.049,3.779,3.779,0,0,1-.288-1.439Zm.735,4.692a.788.788,0,0,1,0-1.572H28.9v1.572ZM4.672,8.856H26.419c.015.033.032.064.047.1a2.431,2.431,0,0,0-.5,1.47,2.286,2.286,0,0,0,2.2,2.356h.8a4.8,4.8,0,0,0,1.4,2.712V16.83l-3.16.563a5.265,5.265,0,0,0-4.184,5.284V32.42H2.469V11.22a2.286,2.286,0,0,1,2.2-2.356ZM35.514,45.771v1.572a.763.763,0,0,1-.735.786H12.744a.763.763,0,0,1-.735-.786V45.771a.763.763,0,0,1,.735-.786H34.78a.763.763,0,0,1,.735.786ZM29.3,43.415H18.235a6.306,6.306,0,0,0,1.1-3.142H28.2a6.315,6.315,0,0,0,1.092,3.145ZM42.854,38.7H4.672a2.286,2.286,0,0,1-2.2-2.356V33.991H45.061v2.356A2.286,2.286,0,0,1,42.854,38.7Z" transform="translate(-1 -0.999)" fill="#181818"/>
          <path id="Path_10" data-name="Path 10" d="M12.923,24.855a1.84,1.84,0,0,0,.86-.217l3.5-1.871a2.123,2.123,0,0,0,0-3.679l-3.5-1.871a1.815,1.815,0,0,0-1.87.09A2.092,2.092,0,0,0,11,19.057V22.8a1.994,1.994,0,0,0,1.923,2.057Zm-.454-5.8a.494.494,0,0,1,.215-.413.428.428,0,0,1,.441-.022l3.5,1.871a.5.5,0,0,1,0,.869l-3.5,1.871a.441.441,0,0,1-.435-.032.507.507,0,0,1-.221-.4Z" transform="translate(-3.656 -4.43)" fill="#181818"/>
          <path id="Path_11" data-name="Path 11" d="M7.2,27.139H18.947a2.286,2.286,0,0,0,2.2-2.356V15.356A2.286,2.286,0,0,0,18.952,13H7.208A2.285,2.285,0,0,0,5,15.356v9.426a2.286,2.286,0,0,0,2.2,2.357ZM6.468,15.357a.763.763,0,0,1,.735-.786H18.947a.763.763,0,0,1,.735.786v9.426a.763.763,0,0,1-.735.786H7.2a.763.763,0,0,1-.735-.786Z" transform="translate(-2.063 -3.572)" fill="#181818"/>
          <path id="Path_12" data-name="Path 12" d="M5,33H6.469v1.572H5Z" transform="translate(-2.063 -7.863)" fill="#181818"/>
          <path id="Path_13" data-name="Path 13" d="M9,33H22.218v1.572H9Z" transform="translate(-3.125 -7.863)" fill="#181818"/>
          <path id="Path_14" data-name="Path 14" d="M5,37H21.156v1.572H5Z" transform="translate(-2.063 -8.721)" fill="#181818"/>
        </g>
      </g>
    </g>
  </g>
</svg>
