<svg id="led" xmlns="http://www.w3.org/2000/svg" width="65.133" height="38.865" viewBox="0 0 65.133 38.865">
  <path id="Path_12172" data-name="Path 12172" d="M57.352,44.757A3.951,3.951,0,0,0,59.824,41.1V14.033a3.955,3.955,0,0,0-3.95-3.95H9.258a3.956,3.956,0,0,0-3.951,3.95V41.1A3.955,3.955,0,0,0,7.78,44.757H0c0,3.327,1.295,4.191,2.885,4.191H62.248c1.591,0,2.885-.864,2.885-4.191H57.352ZM38.586,47.09H26.552V45.05H38.586ZM45.333,39.3H34.389l-1.511-3.018L33.9,35.262l-.416-1.023H31.651l-.416,1.023,1.025,1.016L30.749,39.3H19.8V38.013a5.531,5.531,0,0,1,1.174-.809c.733-.389,1.459-.793,2.207-1.15.728-.348,1.479-.646,2.221-.957.7-.3,1.4-.571,2.1-.871a.638.638,0,0,0,.29-.3c.154-.389.288-.789.408-1.189.091-.3.154-.606.543-.687a.421.421,0,0,0,.237-.3c.077-.58.135-1.167.18-1.761a.578.578,0,0,0-.139-.378,3.781,3.781,0,0,1-.918-2,9.139,9.139,0,0,0-.383-1.112c-.145-.505-.27-1.015-.382-1.529-.044-.184-.021-.384-.052-.573-.046-.275-.033-.488.3-.6.091-.03.167-.249.171-.383.016-.818.009-1.639.013-2.458,0-.5,0-1.008.033-1.508a3.164,3.164,0,0,1,1.342-2.221,8.44,8.44,0,0,1,3.541-1.55c.667-.156,1.348-.249,2.023-.358a3.179,3.179,0,0,1,.558-.007c.029.047.059.092.091.141a3.533,3.533,0,0,0-.422.307c-.277.275-.25.469.043.72.616.518,1.226,1.041,1.824,1.575a2.288,2.288,0,0,1,.728,1.782q0,1.788,0,3.577c0,.245-.022.487.285.6a.286.286,0,0,1,.128.233c-.051.612-.119,1.217-.184,1.828a.119.119,0,0,1-.021.07,16.251,16.251,0,0,0-1.01,2.643.616.616,0,0,1-.046.1c-.731.856-.5,1.888-.516,2.871a.375.375,0,0,0,.15.292c.3.132.37.384.456.654a10.139,10.139,0,0,0,.438,1.254.812.812,0,0,0,.432.341,66.912,66.912,0,0,1,6.589,2.862,4.185,4.185,0,0,1,1.109.809V39.3h-.01Z" transform="translate(0 -10.083)" fill="#fff"/>
</svg>
