<svg id="onsite" xmlns="http://www.w3.org/2000/svg" width="46.754" height="46.754" viewBox="0 0 46.754 46.754">
  <path id="Path_12174" data-name="Path 12174" d="M435.21,325.383h-1.644V322.37a1.37,1.37,0,1,0-2.74,0v3.013H429v13.058h6.21a1.37,1.37,0,0,0,1.37-1.37V326.753A1.37,1.37,0,0,0,435.21,325.383Z" transform="translate(-389.825 -291.687)" fill="#fff"/>
  <path id="Path_12175" data-name="Path 12175" d="M7.579,325.383H5.753V322.37a1.37,1.37,0,1,0-2.74,0v3.013H1.37A1.37,1.37,0,0,0,0,326.753v10.319a1.37,1.37,0,0,0,1.37,1.37h6.21Z" transform="translate(0 -291.687)" fill="#fff"/>
  <path id="Path_12176" data-name="Path 12176" d="M113,46.754h6.575V39.449a1.37,1.37,0,0,1,1.37-1.37h10.228a1.37,1.37,0,0,1,1.37,1.37v7.305h6.575V1.37A1.37,1.37,0,0,0,137.747,0H114.37A1.37,1.37,0,0,0,113,1.37Zm9.406-14.7h-1.461a1.37,1.37,0,0,1,0-2.74h1.461a1.37,1.37,0,0,1,0,2.74Zm0-5.844h-1.461a1.37,1.37,0,0,1,0-2.74h1.461a1.37,1.37,0,0,1,0,2.74Zm0-5.844h-1.461a1.37,1.37,0,0,1,0-2.74h1.461a1.37,1.37,0,0,1,0,2.74Zm0-5.844h-1.461a1.37,1.37,0,0,1,0-2.74h1.461a1.37,1.37,0,0,1,0,2.74Zm8.766,17.533h-1.461a1.37,1.37,0,0,1,0-2.74h1.461a1.37,1.37,0,0,1,0,2.74Zm0-5.844h-1.461a1.37,1.37,0,0,1,0-2.74h1.461a1.37,1.37,0,0,1,0,2.74Zm0-5.844h-1.461a1.37,1.37,0,0,1,0-2.74h1.461a1.37,1.37,0,0,1,0,2.74Zm0-5.844h-1.461a1.37,1.37,0,0,1,0-2.74h1.461a1.37,1.37,0,0,1,0,2.74ZM120.214,5.936H131.9a1.37,1.37,0,1,1,0,2.74H120.214a1.37,1.37,0,0,1,0-2.74Z" transform="translate(-102.681 0)" fill="#fff"/>
  <path id="Path_12177" data-name="Path 12177" d="M215,452.936h7.488V447H215Z" transform="translate(-195.367 -406.181)" fill="#fff"/>
</svg>
