<svg xmlns="http://www.w3.org/2000/svg" width="73" height="73" viewBox="0 0 73 73">
  <g id="accessibility" transform="translate(1 1)">
    <path id="Path_28462" data-name="Path 28462" d="M35.5,0l6.518,37.58L35.5,71A35.5,35.5,0,0,1,10.4,10.4,35.268,35.268,0,0,1,35.5,0Z" transform="translate(0 0)" fill="#c7cfe1" stroke="#0064d8" stroke-width="2"/>
    <path id="Path_28463" data-name="Path 28463" d="M291.5,35.5q0,1.317-.094,2.617A35.5,35.5,0,0,1,256,71V0a35.5,35.5,0,0,1,35.5,35.5Z" transform="translate(-220.5 0)" fill="#dfe7f4" stroke="#0064d8" stroke-width="2"/>
    <path id="Path_28464" data-name="Path 28464" d="M162.107,251.141l1.283,2.183-1.283,1.977a15.115,15.115,0,0,1-9.689-26.718,2.08,2.08,0,1,1,2.668,3.192,10.955,10.955,0,0,0,7.021,19.366Z" transform="translate(-126.607 -196.468)" fill="#0064d8"/>
    <path id="Path_28465" data-name="Path 28465" d="M267.36,365.73A15.125,15.125,0,0,1,256,370.872v-4.16a10.967,10.967,0,0,0,8.234-3.728,2.08,2.08,0,0,1,3.126,2.746Z" transform="translate(-220.5 -312.039)" fill="#0064d8"/>
    <path id="Path_28466" data-name="Path 28466" d="M212.76,84.735a6,6,0,0,0,3.916,5.625v19.146a2.081,2.081,0,0,0,2.08,2.08l1.283-17L218.756,78.74A6,6,0,0,0,212.76,84.735Z" transform="translate(-183.256 -67.821)" fill="#1c2848" stroke="#293043" stroke-width="1"/>
    <path id="Path_28467" data-name="Path 28467" d="M276.738,116.183H275.3l-4.461-7.718a2.082,2.082,0,0,0-1.8-1.039H258.08v-6.843h9.17a2.08,2.08,0,1,0,0-4.16h-9.17V90.36A6,6,0,0,0,256,78.74v32.846h11.836l4.46,7.718a2.082,2.082,0,0,0,1.8,1.039h2.642a2.08,2.08,0,1,0,0-4.16Z" transform="translate(-220.5 -67.821)" fill="#1c2848"/>
  </g>
</svg>
