<svg id="route" xmlns="http://www.w3.org/2000/svg" width="115" height="115" viewBox="0 0 115 115">
  <g id="Group_7563" data-name="Group 7563" transform="translate(2.246 2.246)">
    <path id="Path_28414" data-name="Path 28414" d="M346.922,198.461a22.358,22.358,0,0,1-3.773,12.464l-18.687,29.314-18.688-29.314a22.462,22.462,0,1,1,41.148-12.464Zm-13.477,0a8.984,8.984,0,1,0-8.984,8.984A8.985,8.985,0,0,0,333.445,198.461Z" transform="translate(-236.414 -138.715)" fill="#f5f5f5"/>
    <circle id="Ellipse_43" data-name="Ellipse 43" cx="4.5" cy="4.5" r="4.5" transform="translate(83.754 101.754)" fill="#293043"/>
    <path id="Path_28415" data-name="Path 28415" d="M54.922,32.461a22.358,22.358,0,0,1-3.773,12.464L32.461,75.586,13.773,44.925A22.462,22.462,0,1,1,54.922,32.461Zm-13.477,0a8.984,8.984,0,1,0-8.984,8.984A8.985,8.985,0,0,0,41.445,32.461Z" transform="translate(-10 -10)" fill="#f5f5f5"/>
    <ellipse id="Ellipse_44" data-name="Ellipse 44" cx="4.5" cy="4" rx="4.5" ry="4" transform="translate(17.754 65.754)" fill="#293043"/>
  </g>
  <g id="Group_7564" data-name="Group 7564" transform="translate(0 0)">
    <path id="Path_28416" data-name="Path 28416" d="M21.28,66.526a6.737,6.737,0,1,0,9.779,8.045H48.516a6.738,6.738,0,0,1,0,13.477H21.563a11.23,11.23,0,0,0,0,22.461H44.023a2.246,2.246,0,0,0,0-4.492H21.563a6.738,6.738,0,0,1,0-13.477H48.516a11.23,11.23,0,0,0,0-22.461H31.059a6.772,6.772,0,0,0-2.925-3.552L45.289,38.379a24.707,24.707,0,1,0-41.164,0Zm3.427,8.045a2.246,2.246,0,1,1,2.246-2.246A2.249,2.249,0,0,1,24.707,74.57Zm0-70.078a20.217,20.217,0,0,1,16.82,31.431q-.026.039-.05.079L24.707,63.516S7.9,35.949,7.887,35.923A20.217,20.217,0,0,1,24.707,4.492Z" transform="translate(0 0)" fill="#181818"/>
    <path id="Path_28417" data-name="Path 28417" d="M71.23,82.461A11.23,11.23,0,1,0,60,71.23,11.243,11.243,0,0,0,71.23,82.461Zm0-17.969a6.738,6.738,0,1,1-6.738,6.738A6.746,6.746,0,0,1,71.23,64.492Z" transform="translate(-46.523 -46.523)"/>
    <path id="Path_28418" data-name="Path 28418" d="M304.3,166a24.709,24.709,0,0,0-20.569,38.4l17.091,26.809a6.773,6.773,0,0,0-2.874,3.523h-19.7a2.246,2.246,0,0,0,0,4.492h19.7a6.738,6.738,0,1,0,9.83-8.015L324.87,204.4A24.709,24.709,0,0,0,304.3,166Zm0,73.223a2.246,2.246,0,1,1,2.246-2.246A2.249,2.249,0,0,1,304.3,239.223Zm16.82-37.3L304.3,228.306l-16.82-26.383a20.215,20.215,0,1,1,33.64,0Z" transform="translate(-214.008 -128.715)" fill="#181818"/>
    <path id="Path_28419" data-name="Path 28419" d="M363.23,226a11.23,11.23,0,1,0,11.23,11.23A11.243,11.243,0,0,0,363.23,226Zm0,17.969a6.738,6.738,0,1,1,6.738-6.738A6.746,6.746,0,0,1,363.23,243.969Z" transform="translate(-272.938 -175.238)"/>
    <ellipse id="Ellipse_45" data-name="Ellipse 45" cx="2" cy="2.5" rx="2" ry="2.5" transform="translate(52 106)"/>
  </g>
</svg>
