<svg xmlns="http://www.w3.org/2000/svg" width="70" height="70" viewBox="0 0 70 70">
  <g id="clock" transform="translate(0)">
    <circle id="Ellipse_46" data-name="Ellipse 46" cx="33.432" cy="33.432" r="33.432" transform="translate(1.568 1.568)" fill="#dfe7f4"/>
    <path id="Path_28424" data-name="Path 28424" d="M289.432,44.9A33.432,33.432,0,0,1,256,78.334V11.47A33.432,33.432,0,0,1,289.432,44.9Z" transform="translate(-221 -9.902)" fill="#c7cfe1"/>
    <path id="Path_28425" data-name="Path 28425" d="M59.749,10.251a35,35,0,0,0-49.5,49.5,35,35,0,0,0,49.5-49.5ZM58.239,55.34l-2.122-2.122a2.05,2.05,0,0,0-2.9,2.9l2.122,2.122a30.77,30.77,0,0,1-18.289,7.589V62.248a2.051,2.051,0,0,0-4.1,0v3.581A30.773,30.773,0,0,1,14.66,58.239l2.122-2.122a2.05,2.05,0,0,0-2.9-2.9L11.761,55.34A30.774,30.774,0,0,1,4.171,37.051H7.752a2.051,2.051,0,0,0,0-4.1H4.171A30.773,30.773,0,0,1,11.761,14.66l2.122,2.122a2.05,2.05,0,1,0,2.9-2.9L14.66,11.761A30.773,30.773,0,0,1,32.949,4.171V7.752a2.051,2.051,0,1,0,4.1,0V4.171A30.774,30.774,0,0,1,55.34,11.761l-2.122,2.122a2.05,2.05,0,0,0,2.9,2.9l2.122-2.122a30.774,30.774,0,0,1,7.589,18.289H60.881a2.051,2.051,0,1,0,0,4.1h4.948A30.773,30.773,0,0,1,58.239,55.34Z" transform="translate(0 0)" fill="#0064d8"/>
    <path id="Path_28426" data-name="Path 28426" d="M291,35a35,35,0,0,1-35,35V60.2a2.052,2.052,0,0,1,2.051,2.051v3.581a30.77,30.77,0,0,0,18.289-7.589l-2.122-2.122a2.05,2.05,0,0,1,2.9-2.9l2.122,2.122a30.773,30.773,0,0,0,7.589-18.289h-4.948a2.051,2.051,0,1,1,0-4.1h4.948a30.773,30.773,0,0,0-7.589-18.289l-2.122,2.122a2.05,2.05,0,1,1-2.9-2.9l2.122-2.122a30.774,30.774,0,0,0-18.289-7.589V7.752A2.052,2.052,0,0,1,256,9.8V0a35,35,0,0,1,35,35Z" transform="translate(-221 0)" fill="#0064d8"/>
    <g id="Group_7569" data-name="Group 7569" transform="translate(32.949 13.904)">
      <path id="Path_28427" data-name="Path 28427" d="M258.042,122.8a2.051,2.051,0,0,1-2.051,2.051h-12.94A2.052,2.052,0,0,1,241,122.8V103.751a2.051,2.051,0,1,1,4.1,0v16.994h10.89A2.051,2.051,0,0,1,258.042,122.8Z" transform="translate(-241 -101.7)" fill="#1c2848"/>
    </g>
    <path id="Path_28428" data-name="Path 28428" d="M270.991,122.8a2.051,2.051,0,0,1-2.051,2.051H256V101.7a2.051,2.051,0,0,1,2.051,2.051v16.994h10.89A2.051,2.051,0,0,1,270.991,122.8Z" transform="translate(-221 -87.796)" fill="#1c2848"/>
  </g>
</svg>
