<svg xmlns="http://www.w3.org/2000/svg" width="54" height="59.469" viewBox="0 0 54 59.469">
  <g id="budget" transform="translate(-3 0.757)">
    <path id="Path_29128" data-name="Path 29128" d="M16.817,25.909a6.909,6.909,0,1,0-6.909,6.909A6.917,6.917,0,0,0,16.817,25.909Zm-4.606-1.535H10.676v-.112a.656.656,0,0,0-.656-.656H9.8A.656.656,0,0,0,9.5,24.849L11,25.6a2.183,2.183,0,0,1-.325,4.039v1.647H9.141V29.636a2.187,2.187,0,0,1-1.535-2.08v-.88H9.141v.88a.656.656,0,0,0,.656.656h.224a.656.656,0,0,0,.292-1.243l-1.5-.748a2.183,2.183,0,0,1,.325-4.039V20.535h1.535v1.647a2.187,2.187,0,0,1,1.535,2.08Z" transform="translate(0 -5.01)" fill="#fff"/>
    <path id="Path_29129" data-name="Path 29129" d="M5,43H9.606V56.817H5Z" transform="translate(-0.465 -10.587)" fill="#fff"/>
    <path id="Path_29130" data-name="Path 29130" d="M17,45h4.606V57.282H17Z" transform="translate(-3.253 -11.052)" fill="#fff"/>
    <path id="Path_29131" data-name="Path 29131" d="M29,33h4.606V54.494H29Z" transform="translate(-6.042 -8.264)" fill="#fff"/>
    <path id="Path_29132" data-name="Path 29132" d="M47.4,34.535a1.4,1.4,0,0,0-.993,2.4l2.21,2.21h5.244l1.3-4.544a1.273,1.273,0,0,0,.048-.344A1.254,1.254,0,0,0,53.96,33h-2.1a1.254,1.254,0,0,0-1.253,1.253v1.818H49.071V34.535Z" transform="translate(-9.992 -8.264)" fill="#fff"/>
    <path id="Path_29133" data-name="Path 29133" d="M56.349,47.1,53.786,43H48.5l-2.562,4.1A6.127,6.127,0,0,0,45,50.355v.322a6.141,6.141,0,1,0,12.282,0v-.322A6.127,6.127,0,0,0,56.349,47.1Zm-2.9,1.273H51.909v-.112a.657.657,0,0,0-.656-.656h-.224a.655.655,0,0,0-.292,1.242l1.5.748a2.183,2.183,0,0,1-.325,4.039v1.647H50.373V53.636a2.187,2.187,0,0,1-1.535-2.08v-.88h1.535v.88a.657.657,0,0,0,.656.656h.224a.655.655,0,0,0,.292-1.242l-1.5-.748a2.183,2.183,0,0,1,.325-4.039V44.535h1.535v1.647a2.187,2.187,0,0,1,1.535,2.08Z" transform="translate(-9.759 -10.587)" fill="#fff"/>
    <path id="Path_29134" data-name="Path 29134" d="M42.535,46.494v-.322A7.663,7.663,0,0,1,43.7,42.1l2.464-3.943-2-2a2.935,2.935,0,0,1,1.442-4.943V25H41V52.635h4.626a7.661,7.661,0,0,1-3.09-6.141Z" transform="translate(-8.83 -6.405)" fill="#fff"/>
    <path id="Path_29135" data-name="Path 29135" d="M28.288,22.494a3.074,3.074,0,0,0,3.071-3.071,3.043,3.043,0,0,0-.12-.8l5.6-3.2a3.058,3.058,0,0,0,4.831-3.688l8.112-8.112V7.909h1.535V1H44.408V2.535H48.7l-8.112,8.112a3.03,3.03,0,0,0-1.55-.435,3.074,3.074,0,0,0-3.071,3.071,3.043,3.043,0,0,0,.12.8l-5.6,3.2a3.054,3.054,0,0,0-5.239,1.868l-2.614.436a8.421,8.421,0,0,1,.253,1.515l2.6-.434a3.07,3.07,0,0,0,2.8,1.825Z" transform="translate(-4.562 -0.828)" fill="#fff"/>
    <g id="Group_80" data-name="Group 80" transform="translate(13.231 -0.757)">
      <path id="Polygon_1" data-name="Polygon 1" d="M4.858,1.592a1,1,0,0,1,1.752,0L7.63,3.444a1,1,0,0,0,.394.394l1.853,1.02a1,1,0,0,1,0,1.752L8.023,7.63a1,1,0,0,0-.394.394L6.61,9.876a1,1,0,0,1-1.752,0L3.838,8.023a1,1,0,0,0-.394-.394L1.592,6.61a1,1,0,0,1,0-1.752l1.853-1.02a1,1,0,0,0,.394-.394Z" fill="#ffd73b"/>
      <path id="Polygon_2" data-name="Polygon 2" d="M2.083,1.592a1,1,0,0,1,1.752,0l.035.063a1,1,0,0,0,.394.394l.063.035a1,1,0,0,1,0,1.752l-.063.035a1,1,0,0,0-.394.394l-.035.063a1,1,0,0,1-1.752,0l-.035-.063a1,1,0,0,0-.394-.394l-.063-.035a1,1,0,0,1,0-1.752l.063-.035a1,1,0,0,0,.394-.394Z" transform="translate(2.959 2.959)" fill="#ebbb00"/>
    </g>
    <g id="Group_7730" data-name="Group 7730" transform="translate(26.067 50.896)">
      <path id="Polygon_1-2" data-name="Polygon 1" d="M3.031,1.592a1,1,0,0,1,1.752,0l.371.675a1,1,0,0,0,.394.394l.675.371a1,1,0,0,1,0,1.752l-.675.371a1,1,0,0,0-.394.394l-.371.675a1,1,0,0,1-1.752,0L2.66,5.549a1,1,0,0,0-.394-.394l-.675-.371a1,1,0,0,1,0-1.752l.675-.371a1,1,0,0,0,.394-.394Z" fill="#ffd73b"/>
      <path id="Polygon_2-2" data-name="Polygon 2" d="M1.4,1.122a.7.7,0,0,1,1.235,0h0a.7.7,0,0,0,.278.278h0a.7.7,0,0,1,0,1.235h0a.7.7,0,0,0-.278.278h0a.7.7,0,0,1-1.235,0h0a.7.7,0,0,0-.278-.278h0a.7.7,0,0,1,0-1.235h0A.7.7,0,0,0,1.4,1.122Z" transform="translate(2.017 2.017)" fill="#ebbb00"/>
    </g>
    <g id="Group_7731" data-name="Group 7731" transform="translate(49.185 25.21)">
      <path id="Polygon_1-3" data-name="Polygon 1" d="M3.031,1.592a1,1,0,0,1,1.752,0l.371.675a1,1,0,0,0,.394.394l.675.371a1,1,0,0,1,0,1.752l-.675.371a1,1,0,0,0-.394.394l-.371.675a1,1,0,0,1-1.752,0L2.66,5.549a1,1,0,0,0-.394-.394l-.675-.371a1,1,0,0,1,0-1.752l.675-.371a1,1,0,0,0,.394-.394Z" fill="#ffd73b"/>
      <path id="Polygon_2-3" data-name="Polygon 2" d="M1.4,1.122a.7.7,0,0,1,1.235,0h0a.7.7,0,0,0,.278.278h0a.7.7,0,0,1,0,1.235h0a.7.7,0,0,0-.278.278h0a.7.7,0,0,1-1.235,0h0a.7.7,0,0,0-.278-.278h0a.7.7,0,0,1,0-1.235h0A.7.7,0,0,0,1.4,1.122Z" transform="translate(2.017 2.017)" fill="#ebbb00"/>
    </g>
  </g>
</svg>
