<svg xmlns="http://www.w3.org/2000/svg" width="55" height="58.469" viewBox="0 0 55 58.469">
  <g id="statistics" transform="translate(-547 -2997.243)">
    <g id="statistics_1_" data-name="statistics (1)" transform="translate(547 3003)">
      <path id="Path_29170" data-name="Path 29170" d="M54.3,232a6.3,6.3,0,1,0,4.986,10.138,11.732,11.732,0,0,1,1.294-3.375c.011-.153.02-.308.02-.464A6.306,6.306,0,0,0,54.3,232Zm-3.938,8.9A4.72,4.72,0,0,1,56.9,234.36l-.87,1.313a3.144,3.144,0,0,0-4.359,4.358Zm3.938,2.12a4.714,4.714,0,0,1-2.6-.786l.87-1.313a3.144,3.144,0,0,0,4.359-4.358l1.313-.87a4.72,4.72,0,0,1-3.938,7.327Zm0,0" transform="translate(-43.276 -209.167)" fill="#fff"/>
      <path id="Path_29171" data-name="Path 29171" d="M15.748,201.3a7.862,7.862,0,1,1,3-7.813,11.806,11.806,0,0,1,1.281-1.253,9.323,9.323,0,0,0-.807-1.9l-.251-.438,1.05-1.469-2.4-2.4-1.469,1.05-.439-.251a9.329,9.329,0,0,0-2.209-.912l-.487-.132-.3-1.784H9.328l-.3,1.783-.487.132a9.375,9.375,0,0,0-2.209.912l-.439.251-1.469-1.05-2.4,2.4,1.05,1.469-.251.439a9.329,9.329,0,0,0-.912,2.209l-.131.487-1.783.3v3.389l1.783.3.132.487a9.374,9.374,0,0,0,.912,2.209l.251.439-1.05,1.469,2.4,2.4,1.469-1.05.439.251a9.329,9.329,0,0,0,2.209.912l.487.132.3,1.783h3.389l.3-1.783.487-.132a9.375,9.375,0,0,0,2.209-.912l.186-.107a11.685,11.685,0,0,1-.151-1.789c0-.007,0-.014,0-.021Zm0,0" transform="translate(0 -165.891)" fill="#fff"/>
      <path id="Path_29172" data-name="Path 29172" d="M186.236,256a10.236,10.236,0,1,0,10.236,10.236A10.248,10.248,0,0,0,186.236,256Zm0,18.9a8.659,8.659,0,0,1-6.7-14.142l1.218,1a7.09,7.09,0,0,0-1.551,3.695h1.525v1.575H179.2a7.1,7.1,0,0,0,6.252,6.252v-1.528h1.575v1.525a7.088,7.088,0,0,0,3.695-1.55l1,1.218A8.678,8.678,0,0,1,186.236,274.9Zm2.362-9.448v1.575h-3.149V262.3h1.575v3.149Zm4.342,6.268-1.218-1a7.09,7.09,0,0,0,1.55-3.695h-1.525v-1.575h1.528a7.1,7.1,0,0,0-6.252-6.252v1.528h-1.575V259.2a7.087,7.087,0,0,0-3.695,1.55l-1-1.218a8.659,8.659,0,0,1,12.185,12.185Zm0,0" transform="translate(-158.678 -230.805)" fill="#fff"/>
      <path id="Path_29173" data-name="Path 29173" d="M40.943,0V1.575h2.036l-4.4,4.4L36.218,3.611,32.506,7.323a2.324,2.324,0,0,0-1.012-.237,2.365,2.365,0,0,0-2.362,2.362,2.335,2.335,0,0,0,.3,1.12l-4.116,4.573a2.35,2.35,0,0,0-.9-.181c-.015,0-.028,0-.043,0L21.2,6.521a2.357,2.357,0,1,0-3.877-1.8,2.322,2.322,0,0,0,.067.536l-4.929,3.9a2.337,2.337,0,0,0-3.653,1.075H4.579a2.362,2.362,0,1,0,0,1.575H8.807a2.356,2.356,0,0,0,4.579-.787,2.321,2.321,0,0,0-.067-.536l4.929-3.9a2.34,2.34,0,0,0,1.436.5c.015,0,.028,0,.043,0l3.166,8.443a2.367,2.367,0,1,0,3.582.677l4.116-4.573a2.359,2.359,0,0,0,3.266-2.181,2.324,2.324,0,0,0-.237-1.012l2.6-2.6L38.58,8.2l5.512-5.512V4.724h1.575V0ZM2.362,11.81a.787.787,0,1,1,.787-.787A.788.788,0,0,1,2.362,11.81Zm8.661,0a.787.787,0,1,1,.787-.787A.788.788,0,0,1,11.023,11.81ZM18.9,4.724a.787.787,0,1,1,.787.787A.788.788,0,0,1,18.9,4.724Zm5.512,13.385a.787.787,0,1,1,.787-.787A.788.788,0,0,1,24.408,18.109Zm7.086-7.874a.787.787,0,1,1,.787-.787A.788.788,0,0,1,31.494,10.236Zm0,0" fill="#fff"/>
      <path id="Path_29174" data-name="Path 29174" d="M304,176v6.536a11.726,11.726,0,0,1,3.149,1.131V176Zm0,0" transform="translate(-274.08 -158.678)" fill="#fff"/>
      <path id="Path_29175" data-name="Path 29175" d="M240,215.992v3.049a11.73,11.73,0,0,1,3.149-.647v-2.4Zm0,0" transform="translate(-216.379 -194.734)" fill="#fff"/>
      <path id="Path_29176" data-name="Path 29176" d="M368,150.035a11.759,11.759,0,0,1,3.112,7.223h.038V136H368Zm0,0" transform="translate(-331.782 -122.615)" fill="#fff"/>
      <path id="Path_29177" data-name="Path 29177" d="M432,72h3.149V99.558H432Zm0,0" transform="translate(-389.483 -64.914)" fill="#fff"/>
    </g>
    <g id="Group_7743" data-name="Group 7743" transform="translate(-8 -41)">
      <g id="Group_7734" data-name="Group 7734" transform="translate(558.231 3038.243)">
        <path id="Polygon_1" data-name="Polygon 1" d="M4.858,1.592a1,1,0,0,1,1.752,0L7.63,3.444a1,1,0,0,0,.394.394l1.853,1.02a1,1,0,0,1,0,1.752L8.023,7.63a1,1,0,0,0-.394.394L6.61,9.876a1,1,0,0,1-1.752,0L3.838,8.023a1,1,0,0,0-.394-.394L1.592,6.61a1,1,0,0,1,0-1.752l1.853-1.02a1,1,0,0,0,.394-.394Z" fill="#ffd73b"/>
        <path id="Polygon_2" data-name="Polygon 2" d="M2.083,1.592a1,1,0,0,1,1.752,0l.035.063a1,1,0,0,0,.394.394l.063.035a1,1,0,0,1,0,1.752l-.063.035a1,1,0,0,0-.394.394l-.035.063a1,1,0,0,1-1.752,0l-.035-.063a1,1,0,0,0-.394-.394l-.063-.035a1,1,0,0,1,0-1.752l.063-.035a1,1,0,0,0,.394-.394Z" transform="translate(2.959 2.959)" fill="#ebbb00"/>
      </g>
      <g id="Group_7735" data-name="Group 7735" transform="translate(585.067 3088.896)">
        <path id="Polygon_1-2" data-name="Polygon 1" d="M3.031,1.592a1,1,0,0,1,1.752,0l.371.675a1,1,0,0,0,.394.394l.675.371a1,1,0,0,1,0,1.752l-.675.371a1,1,0,0,0-.394.394l-.371.675a1,1,0,0,1-1.752,0L2.66,5.549a1,1,0,0,0-.394-.394l-.675-.371a1,1,0,0,1,0-1.752l.675-.371a1,1,0,0,0,.394-.394Z" fill="#ffd73b"/>
        <path id="Polygon_2-2" data-name="Polygon 2" d="M1.4,1.122a.7.7,0,0,1,1.235,0h0a.7.7,0,0,0,.278.278h0a.7.7,0,0,1,0,1.235h0a.7.7,0,0,0-.278.278h0a.7.7,0,0,1-1.235,0h0a.7.7,0,0,0-.278-.278h0a.7.7,0,0,1,0-1.235h0A.7.7,0,0,0,1.4,1.122Z" transform="translate(2.017 2.017)" fill="#ebbb00"/>
      </g>
      <g id="Group_7736" data-name="Group 7736" transform="translate(602.185 3057.21)">
        <path id="Polygon_1-3" data-name="Polygon 1" d="M3.031,1.592a1,1,0,0,1,1.752,0l.371.675a1,1,0,0,0,.394.394l.675.371a1,1,0,0,1,0,1.752l-.675.371a1,1,0,0,0-.394.394l-.371.675a1,1,0,0,1-1.752,0L2.66,5.549a1,1,0,0,0-.394-.394l-.675-.371a1,1,0,0,1,0-1.752l.675-.371a1,1,0,0,0,.394-.394Z" fill="#ffd73b"/>
        <path id="Polygon_2-3" data-name="Polygon 2" d="M1.4,1.122a.7.7,0,0,1,1.235,0h0a.7.7,0,0,0,.278.278h0a.7.7,0,0,1,0,1.235h0a.7.7,0,0,0-.278.278h0a.7.7,0,0,1-1.235,0h0a.7.7,0,0,0-.278-.278h0a.7.7,0,0,1,0-1.235h0A.7.7,0,0,0,1.4,1.122Z" transform="translate(2.017 2.017)" fill="#ebbb00"/>
      </g>
    </g>
  </g>
</svg>
