<svg xmlns="http://www.w3.org/2000/svg" width="50" height="65.469" viewBox="0 0 50 65.469">
  <g id="solid" transform="translate(-554 -2993.243)">
    <g id="solid-2" data-name="solid" transform="translate(498 2974)">
      <path id="Path_29136" data-name="Path 29136" d="M56,147.647a1.714,1.714,0,0,0,.857,1.482v-2.965A1.714,1.714,0,0,0,56,147.647Z" transform="translate(0 -101.933)" fill="#fff"/>
      <path id="Path_29137" data-name="Path 29137" d="M109.143,63.759V38H104a.857.857,0,0,1-.857-.857V32H80v6.627a1.709,1.709,0,0,0,.8-1.055A.857.857,0,0,1,82.464,38,3.426,3.426,0,0,1,80,40.463V47.2a1.709,1.709,0,0,0,.8-1.055.857.857,0,0,1,1.661.427A3.426,3.426,0,0,1,80,49.035V55.77a1.709,1.709,0,0,0,.8-1.055.857.857,0,0,1,1.661.427A3.426,3.426,0,0,1,80,57.606v5.878a1.709,1.709,0,0,0,.8-1.055.857.857,0,1,1,1.661.427A3.426,3.426,0,0,1,80,65.321v4.394h25.653ZM86,39.714h18.857a.857.857,0,0,1,0,1.714H86a.857.857,0,1,1,0-1.714Zm0,5.143h18.857a.857.857,0,0,1,0,1.714H86a.857.857,0,1,1,0-1.714ZM86,50h18.857a.857.857,0,0,1,0,1.714H86A.857.857,0,1,1,86,50Zm6.857,12H86a.857.857,0,1,1,0-1.714h6.857a.857.857,0,1,1,0,1.714Zm12-5.143H86a.857.857,0,1,1,0-1.714h18.857a.857.857,0,0,1,0,1.714Z" transform="translate(-21.429)" fill="#fff"/>
      <path id="Path_29138" data-name="Path 29138" d="M56,227.647a1.714,1.714,0,0,0,.857,1.482v-2.965A1.714,1.714,0,0,0,56,227.647Z" transform="translate(0 -173.361)" fill="#fff"/>
      <path id="Path_29139" data-name="Path 29139" d="M349.28,57.966a.855.855,0,0,1,.25.605V82.262l1.731-2.953a.86.86,0,0,1-.016-.166V56h-3.931l1.965,1.965Z" transform="translate(-260.101 -21.429)" fill="#fff"/>
      <path id="Path_29140" data-name="Path 29140" d="M312,43.314v3.074h3.074Z" transform="translate(-228.571 -10.102)" fill="#fff"/>
      <path id="Path_29141" data-name="Path 29141" d="M56,299.647a1.714,1.714,0,0,0,.857,1.482v-2.965A1.714,1.714,0,0,0,56,299.647Z" transform="translate(0 -237.647)" fill="#fff"/>
      <path id="Path_29142" data-name="Path 29142" d="M56,67.647a1.714,1.714,0,0,0,.857,1.482V66.165A1.714,1.714,0,0,0,56,67.647Z" transform="translate(0 -30.504)" fill="#fff"/>
      <path id="Path_29143" data-name="Path 29143" d="M297.182,459.47l.953-.74-.773-.453Z" transform="translate(-215.341 -380.603)" fill="#fff"/>
      <path id="Path_29144" data-name="Path 29144" d="M0,0H22.286V1.714H0Z" transform="translate(82.555 75.995) rotate(-59.616)" fill="#fff"/>
      <path id="Path_29145" data-name="Path 29145" d="M430.656,217.838a.857.857,0,0,0-1.173.306l-.434.739,1.479.867.433-.739A.858.858,0,0,0,430.656,217.838Z" transform="translate(-333.08 -165.821)" fill="#fff"/>
      <path id="Path_29146" data-name="Path 29146" d="M0,0H.857V1.714H0Z" transform="translate(94.694 55.28) rotate(-59.616)" fill="#fff"/>
      <path id="Path_29147" data-name="Path 29147" d="M118.934,400H96v1.714h21.929Z" transform="translate(-35.714 -328.571)" fill="#fff"/>
      <path id="Path_29148" data-name="Path 29148" d="M359.271,373.8v-5.064L356.3,373.8Z" transform="translate(-268.127 -300.659)" fill="#fff"/>
    </g>
    <g id="Group_7737" data-name="Group 7737" transform="translate(-8 -44)">
      <g id="Group_7734" data-name="Group 7734" transform="translate(568.231 3037.243)">
        <path id="Polygon_1" data-name="Polygon 1" d="M4.858,1.592a1,1,0,0,1,1.752,0L7.63,3.444a1,1,0,0,0,.394.394l1.853,1.02a1,1,0,0,1,0,1.752L8.023,7.63a1,1,0,0,0-.394.394L6.61,9.876a1,1,0,0,1-1.752,0L3.838,8.023a1,1,0,0,0-.394-.394L1.592,6.61a1,1,0,0,1,0-1.752l1.853-1.02a1,1,0,0,0,.394-.394Z" fill="#ffd73b"/>
        <path id="Polygon_2" data-name="Polygon 2" d="M2.083,1.592a1,1,0,0,1,1.752,0l.035.063a1,1,0,0,0,.394.394l.063.035a1,1,0,0,1,0,1.752l-.063.035a1,1,0,0,0-.394.394l-.035.063a1,1,0,0,1-1.752,0l-.035-.063a1,1,0,0,0-.394-.394l-.063-.035a1,1,0,0,1,0-1.752l.063-.035a1,1,0,0,0,.394-.394Z" transform="translate(2.959 2.959)" fill="#ebbb00"/>
      </g>
      <g id="Group_7735" data-name="Group 7735" transform="translate(572.067 3094.896)">
        <path id="Polygon_1-2" data-name="Polygon 1" d="M3.031,1.592a1,1,0,0,1,1.752,0l.371.675a1,1,0,0,0,.394.394l.675.371a1,1,0,0,1,0,1.752l-.675.371a1,1,0,0,0-.394.394l-.371.675a1,1,0,0,1-1.752,0L2.66,5.549a1,1,0,0,0-.394-.394l-.675-.371a1,1,0,0,1,0-1.752l.675-.371a1,1,0,0,0,.394-.394Z" fill="#ffd73b"/>
        <path id="Polygon_2-2" data-name="Polygon 2" d="M1.4,1.122a.7.7,0,0,1,1.235,0h0a.7.7,0,0,0,.278.278h0a.7.7,0,0,1,0,1.235h0a.7.7,0,0,0-.278.278h0a.7.7,0,0,1-1.235,0h0a.7.7,0,0,0-.278-.278h0a.7.7,0,0,1,0-1.235h0A.7.7,0,0,0,1.4,1.122Z" transform="translate(2.017 2.017)" fill="#ebbb00"/>
      </g>
      <g id="Group_7736" data-name="Group 7736" transform="translate(604.185 3063.21)">
        <path id="Polygon_1-3" data-name="Polygon 1" d="M3.031,1.592a1,1,0,0,1,1.752,0l.371.675a1,1,0,0,0,.394.394l.675.371a1,1,0,0,1,0,1.752l-.675.371a1,1,0,0,0-.394.394l-.371.675a1,1,0,0,1-1.752,0L2.66,5.549a1,1,0,0,0-.394-.394l-.675-.371a1,1,0,0,1,0-1.752l.675-.371a1,1,0,0,0,.394-.394Z" fill="#ffd73b"/>
        <path id="Polygon_2-3" data-name="Polygon 2" d="M1.4,1.122a.7.7,0,0,1,1.235,0h0a.7.7,0,0,0,.278.278h0a.7.7,0,0,1,0,1.235h0a.7.7,0,0,0-.278.278h0a.7.7,0,0,1-1.235,0h0a.7.7,0,0,0-.278-.278h0a.7.7,0,0,1,0-1.235h0A.7.7,0,0,0,1.4,1.122Z" transform="translate(2.017 2.017)" fill="#ebbb00"/>
      </g>
    </g>
  </g>
</svg>
