<svg xmlns="http://www.w3.org/2000/svg" width="47.407" height="64.469" viewBox="0 0 47.407 64.469">
  <g id="page" transform="translate(-550 -2993.243)">
    <g id="Page-1" transform="translate(549.998 3001.908)">
      <g id="_033---Insurance" data-name="033---Insurance" transform="translate(0.002 0.092)">
        <path id="Shape" d="M33.18,22.111a4.233,4.233,0,0,0,1.753-3.422V8.164L26.466,4.458,18,8.164V18.689a4.233,4.233,0,0,0,1.753,3.422l6.714,4.843Zm-8.264-1.12a.91.91,0,0,1-.143.012.847.847,0,0,1-.508-.169l-3.387-2.54a.847.847,0,1,1,1.016-1.355l2.67,2,6.277-9.415a.847.847,0,0,1,1.409.94l-6.773,10.16A.847.847,0,0,1,24.916,20.991Z" transform="translate(-2.763 -0.762)" fill="#fff"/>
        <path id="Shape-2" data-name="Shape" d="M34.548,24.188a7.627,7.627,0,0,0,3.158-6.169V5.28L25.853.092,14,5.28V18.019a7.627,7.627,0,0,0,3.158,6.169l8.695,6.271Zm-16.4-1.373a5.926,5.926,0,0,1-2.455-4.8V6.941a.847.847,0,0,1,.508-.776l9.313-4.077a.847.847,0,0,1,.677,0L35.5,6.166a.847.847,0,0,1,.508.776V18.019a5.926,5.926,0,0,1-2.455,4.8l-7.209,5.2a.847.847,0,0,1-.991,0Z" transform="translate(-2.149 -0.092)" fill="#fff"/>
        <path id="Shape-3" data-name="Shape" d="M21.313,48H12v6.773h9.313Zm-2.54,4.233h-.847a.847.847,0,1,1,0-1.693h.847a.847.847,0,1,1,0,1.693Z" transform="translate(-1.843 -7.44)" fill="#fff"/>
        <path id="Shape-4" data-name="Shape" d="M1.933,26.823a1.006,1.006,0,1,0-1.841.813l3.318,7.3A7.323,7.323,0,0,0,4.9,37.091l5.874,5.874h7V41.39A7.184,7.184,0,0,0,16.3,36.9a4.448,4.448,0,0,0-2.036-1.51,18.049,18.049,0,0,1-5.4-3.42,2.2,2.2,0,0,0-2.742-.046A8.351,8.351,0,0,0,7.159,33.2l3.867,3.868a.847.847,0,1,1-1.2,1.2L5.962,34.394A9.991,9.991,0,0,1,3.827,31.24Z" transform="translate(-0.002 -4.098)" fill="#fff"/>
        <path id="Shape-5" data-name="Shape" d="M49.369,34.935l3.318-7.3a1.006,1.006,0,1,0-1.841-.814L48.952,31.24a9.99,9.99,0,0,1-2.135,3.154L42.95,38.262a.847.847,0,0,1-1.2-1.2L45.62,33.2a8.3,8.3,0,0,0,1.049-1.278,2.2,2.2,0,0,0-2.747.053,18.042,18.042,0,0,1-5.4,3.42,4.45,4.45,0,0,0-2.032,1.51A7.184,7.184,0,0,0,35,41.39v1.576h7l5.874-5.874A7.322,7.322,0,0,0,49.369,34.935Z" transform="translate(-5.37 -4.098)" fill="#fff"/>
        <path id="Shape-6" data-name="Shape" d="M42.313,48H33v6.773h9.313Zm-5.926,4.233H35.54a.847.847,0,1,1,0-1.693h.847a.847.847,0,1,1,0,1.693Z" transform="translate(-5.063 -7.44)" fill="#fff"/>
      </g>
    </g>
    <g id="Group_7742" data-name="Group 7742" transform="translate(-15 -48)">
      <g id="Group_7734" data-name="Group 7734" transform="translate(568.231 3041.243)">
        <path id="Polygon_1" data-name="Polygon 1" d="M4.858,1.592a1,1,0,0,1,1.752,0L7.63,3.444a1,1,0,0,0,.394.394l1.853,1.02a1,1,0,0,1,0,1.752L8.023,7.63a1,1,0,0,0-.394.394L6.61,9.876a1,1,0,0,1-1.752,0L3.838,8.023a1,1,0,0,0-.394-.394L1.592,6.61a1,1,0,0,1,0-1.752l1.853-1.02a1,1,0,0,0,.394-.394Z" fill="#ffd73b"/>
        <path id="Polygon_2" data-name="Polygon 2" d="M2.083,1.592a1,1,0,0,1,1.752,0l.035.063a1,1,0,0,0,.394.394l.063.035a1,1,0,0,1,0,1.752l-.063.035a1,1,0,0,0-.394.394l-.035.063a1,1,0,0,1-1.752,0l-.035-.063a1,1,0,0,0-.394-.394l-.063-.035a1,1,0,0,1,0-1.752l.063-.035a1,1,0,0,0,.394-.394Z" transform="translate(2.959 2.959)" fill="#ebbb00"/>
      </g>
      <g id="Group_7735" data-name="Group 7735" transform="translate(585.067 3097.896)">
        <path id="Polygon_1-2" data-name="Polygon 1" d="M3.031,1.592a1,1,0,0,1,1.752,0l.371.675a1,1,0,0,0,.394.394l.675.371a1,1,0,0,1,0,1.752l-.675.371a1,1,0,0,0-.394.394l-.371.675a1,1,0,0,1-1.752,0L2.66,5.549a1,1,0,0,0-.394-.394l-.675-.371a1,1,0,0,1,0-1.752l.675-.371a1,1,0,0,0,.394-.394Z" fill="#ffd73b"/>
        <path id="Polygon_2-2" data-name="Polygon 2" d="M1.4,1.122a.7.7,0,0,1,1.235,0h0a.7.7,0,0,0,.278.278h0a.7.7,0,0,1,0,1.235h0a.7.7,0,0,0-.278.278h0a.7.7,0,0,1-1.235,0h0a.7.7,0,0,0-.278-.278h0a.7.7,0,0,1,0-1.235h0A.7.7,0,0,0,1.4,1.122Z" transform="translate(2.017 2.017)" fill="#ebbb00"/>
      </g>
      <g id="Group_7736" data-name="Group 7736" transform="translate(604.185 3063.21)">
        <path id="Polygon_1-3" data-name="Polygon 1" d="M3.031,1.592a1,1,0,0,1,1.752,0l.371.675a1,1,0,0,0,.394.394l.675.371a1,1,0,0,1,0,1.752l-.675.371a1,1,0,0,0-.394.394l-.371.675a1,1,0,0,1-1.752,0L2.66,5.549a1,1,0,0,0-.394-.394l-.675-.371a1,1,0,0,1,0-1.752l.675-.371a1,1,0,0,0,.394-.394Z" fill="#ffd73b"/>
        <path id="Polygon_2-3" data-name="Polygon 2" d="M1.4,1.122a.7.7,0,0,1,1.235,0h0a.7.7,0,0,0,.278.278h0a.7.7,0,0,1,0,1.235h0a.7.7,0,0,0-.278.278h0a.7.7,0,0,1-1.235,0h0a.7.7,0,0,0-.278-.278h0a.7.7,0,0,1,0-1.235h0A.7.7,0,0,0,1.4,1.122Z" transform="translate(2.017 2.017)" fill="#ebbb00"/>
      </g>
    </g>
  </g>
</svg>
