<svg id="location_" data-name="location " xmlns="http://www.w3.org/2000/svg" xmlns:xlink="http://www.w3.org/1999/xlink" width="64" height="64" viewBox="0 0 64 64">
  <defs>
    <linearGradient id="linear-gradient" x1="0.5" x2="0.5" y2="1" gradientUnits="objectBoundingBox">
      <stop offset="0" stop-color="#293043"/>
      <stop offset="1" stop-color="#00326c"/>
    </linearGradient>
  </defs>
  <path id="Path_28473" data-name="Path 28473" d="M24.471,120a24.471,24.471,0,1,0,24.471,24.471A24.5,24.5,0,0,0,24.471,120Zm13.139,22.588a44.9,44.9,0,0,0-.553-5.506,24.088,24.088,0,0,1,2.544,1.086c2.549,1.274,4.316,2.821,5.107,4.42Zm-3.768,0H26.353V135.1a39.8,39.8,0,0,1,6.658.831A39.8,39.8,0,0,1,33.842,142.588Zm-7.489-11.256v-7.1c1.6.791,3.146,2.558,4.42,5.107a24.02,24.02,0,0,1,1.086,2.544A44.822,44.822,0,0,0,26.353,131.332Zm-3.765-7.1v7.1a44.87,44.87,0,0,0-5.506.553,24.046,24.046,0,0,1,1.086-2.544C19.443,126.791,20.989,125.024,22.588,124.233Zm0,10.866v7.489H15.1a39.8,39.8,0,0,1,.831-6.658A39.8,39.8,0,0,1,22.588,135.1Zm-11.256,7.489h-7.1c.791-1.6,2.558-3.146,5.107-4.42a24.082,24.082,0,0,1,2.544-1.086A44.922,44.922,0,0,0,11.332,142.588Zm0,3.765a44.9,44.9,0,0,0,.553,5.506,24.06,24.06,0,0,1-2.544-1.086c-2.549-1.275-4.316-2.821-5.107-4.42Zm3.768,0h7.489v7.489a39.79,39.79,0,0,1-6.658-.831,39.8,39.8,0,0,1-.831-6.658Zm7.489,11.256v7.1c-1.6-.791-3.146-2.558-4.42-5.107a24.058,24.058,0,0,1-1.086-2.544A44.869,44.869,0,0,0,22.588,157.609Zm3.765,7.1v-7.1a44.869,44.869,0,0,0,5.506-.553,24.062,24.062,0,0,1-1.086,2.544C29.5,162.15,27.952,163.917,26.353,164.708Zm0-10.866v-7.489h7.489a39.8,39.8,0,0,1-.831,6.658A39.79,39.79,0,0,1,26.353,153.842Zm11.256-7.489h7.1c-.791,1.6-2.558,3.146-5.107,4.42a24.06,24.06,0,0,1-2.544,1.086A44.9,44.9,0,0,0,37.609,146.353Zm5.742-10.379a27.2,27.2,0,0,0-7.238-3.146,27.187,27.187,0,0,0-3.146-7.238A20.835,20.835,0,0,1,43.352,135.974ZM15.974,125.589a27.19,27.19,0,0,0-3.146,7.238,27.2,27.2,0,0,0-7.238,3.146A20.835,20.835,0,0,1,15.974,125.589ZM5.589,152.968a27.2,27.2,0,0,0,7.238,3.146,27.213,27.213,0,0,0,3.146,7.238A20.835,20.835,0,0,1,5.589,152.968Zm27.378,10.384a27.2,27.2,0,0,0,3.146-7.238,27.207,27.207,0,0,0,7.238-3.146A20.835,20.835,0,0,1,32.967,163.352Z" transform="translate(0 -104.941)" fill="url(#linear-gradient)"/>
  <path id="Path_28474" data-name="Path 28474" d="M369.406,29.764l1.574-2.369c.8-1.209,7.844-11.982,7.844-17.983a9.412,9.412,0,0,0-18.824,0c0,5.915,7.038,16.76,7.84,17.977Zm.006-26a5.653,5.653,0,0,1,5.647,5.647c0,3.277-3.285,9.471-5.643,13.4-2.359-3.945-5.651-10.164-5.651-13.4a5.653,5.653,0,0,1,5.647-5.647Z" transform="translate(-314.824)" fill="url(#linear-gradient)"/>
  <path id="Path_28475" data-name="Path 28475" d="M420,60h3.765v3.765H420Z" transform="translate(-367.294 -52.471)" fill="url(#linear-gradient)"/>
  <path id="Path_28476" data-name="Path 28476" d="M360.059,277.529a1.884,1.884,0,0,1-1.882-1.882V270h-3.765v5.647a5.653,5.653,0,0,0,5.647,5.647,1.884,1.884,0,0,1,1.882,1.882v11.294a1.884,1.884,0,0,1-1.882,1.882H345v3.765h15.059a5.653,5.653,0,0,0,5.647-5.647V283.176A5.653,5.653,0,0,0,360.059,277.529Z" transform="translate(-301.706 -236.118)" fill="url(#linear-gradient)"/>
  <path id="Path_28477" data-name="Path 28477" d="M3.765,5.647A1.884,1.884,0,0,1,5.647,3.765H30.118A1.884,1.884,0,0,1,32,5.647a5.653,5.653,0,0,0,5.647,5.647h3.765V7.529H37.647a1.884,1.884,0,0,1-1.882-1.882A5.653,5.653,0,0,0,30.118,0H5.647A5.653,5.653,0,0,0,0,5.647V20.706H3.765Z" fill="url(#linear-gradient)"/>
</svg>
