<svg xmlns="http://www.w3.org/2000/svg" width="54" height="58.469" viewBox="0 0 54 58.469">
  <g id="monitor" transform="translate(-550 -2994.243)">
    <g id="focus" transform="translate(550 3001)">
      <path id="Path_29149" data-name="Path 29149" d="M169.193,159.263a9.931,9.931,0,1,1-9.931-9.931A9.931,9.931,0,0,1,169.193,159.263Zm0,0" transform="translate(-135.429 -135.429)" fill="#fff"/>
      <path id="Path_29150" data-name="Path 29150" d="M45.681,21.847H43.593A19.892,19.892,0,0,0,25.82,4.074V1.986a1.986,1.986,0,1,0-3.972,0V4.074A19.892,19.892,0,0,0,4.074,21.847H1.986a1.986,1.986,0,0,0,0,3.972H4.074A19.894,19.894,0,0,0,21.848,43.593v2.087a1.986,1.986,0,1,0,3.972,0V43.593A19.894,19.894,0,0,0,43.593,25.819h2.087a1.986,1.986,0,0,0,0-3.972ZM25.792,39.589a1.961,1.961,0,0,0-3.917,0,15.9,15.9,0,0,1-13.8-13.8,1.962,1.962,0,0,0,0-3.919,15.9,15.9,0,0,1,13.8-13.8,1.962,1.962,0,0,0,3.919,0,15.9,15.9,0,0,1,13.8,13.8,1.962,1.962,0,0,0,0,3.919,15.908,15.908,0,0,1-13.8,13.8Zm0,0" transform="translate(0)" fill="#fff"/>
    </g>
    <g id="Group_7738" data-name="Group 7738" transform="translate(-6 -44)">
      <g id="Group_7734" data-name="Group 7734" transform="translate(558.231 3038.243)">
        <path id="Polygon_1" data-name="Polygon 1" d="M4.858,1.592a1,1,0,0,1,1.752,0L7.63,3.444a1,1,0,0,0,.394.394l1.853,1.02a1,1,0,0,1,0,1.752L8.023,7.63a1,1,0,0,0-.394.394L6.61,9.876a1,1,0,0,1-1.752,0L3.838,8.023a1,1,0,0,0-.394-.394L1.592,6.61a1,1,0,0,1,0-1.752l1.853-1.02a1,1,0,0,0,.394-.394Z" fill="#ffd73b"/>
        <path id="Polygon_2" data-name="Polygon 2" d="M2.083,1.592a1,1,0,0,1,1.752,0l.035.063a1,1,0,0,0,.394.394l.063.035a1,1,0,0,1,0,1.752l-.063.035a1,1,0,0,0-.394.394l-.035.063a1,1,0,0,1-1.752,0l-.035-.063a1,1,0,0,0-.394-.394l-.063-.035a1,1,0,0,1,0-1.752l.063-.035a1,1,0,0,0,.394-.394Z" transform="translate(2.959 2.959)" fill="#ebbb00"/>
      </g>
      <g id="Group_7735" data-name="Group 7735" transform="translate(585.067 3088.896)">
        <path id="Polygon_1-2" data-name="Polygon 1" d="M3.031,1.592a1,1,0,0,1,1.752,0l.371.675a1,1,0,0,0,.394.394l.675.371a1,1,0,0,1,0,1.752l-.675.371a1,1,0,0,0-.394.394l-.371.675a1,1,0,0,1-1.752,0L2.66,5.549a1,1,0,0,0-.394-.394l-.675-.371a1,1,0,0,1,0-1.752l.675-.371a1,1,0,0,0,.394-.394Z" fill="#ffd73b"/>
        <path id="Polygon_2-2" data-name="Polygon 2" d="M1.4,1.122a.7.7,0,0,1,1.235,0h0a.7.7,0,0,0,.278.278h0a.7.7,0,0,1,0,1.235h0a.7.7,0,0,0-.278.278h0a.7.7,0,0,1-1.235,0h0a.7.7,0,0,0-.278-.278h0a.7.7,0,0,1,0-1.235h0A.7.7,0,0,0,1.4,1.122Z" transform="translate(2.017 2.017)" fill="#ebbb00"/>
      </g>
      <g id="Group_7736" data-name="Group 7736" transform="translate(602.185 3057.21)">
        <path id="Polygon_1-3" data-name="Polygon 1" d="M3.031,1.592a1,1,0,0,1,1.752,0l.371.675a1,1,0,0,0,.394.394l.675.371a1,1,0,0,1,0,1.752l-.675.371a1,1,0,0,0-.394.394l-.371.675a1,1,0,0,1-1.752,0L2.66,5.549a1,1,0,0,0-.394-.394l-.675-.371a1,1,0,0,1,0-1.752l.675-.371a1,1,0,0,0,.394-.394Z" fill="#ffd73b"/>
        <path id="Polygon_2-3" data-name="Polygon 2" d="M1.4,1.122a.7.7,0,0,1,1.235,0h0a.7.7,0,0,0,.278.278h0a.7.7,0,0,1,0,1.235h0a.7.7,0,0,0-.278.278h0a.7.7,0,0,1-1.235,0h0a.7.7,0,0,0-.278-.278h0a.7.7,0,0,1,0-1.235h0A.7.7,0,0,0,1.4,1.122Z" transform="translate(2.017 2.017)" fill="#ebbb00"/>
      </g>
    </g>
  </g>
</svg>
