<svg xmlns="http://www.w3.org/2000/svg" width="30.5" height="30.505" viewBox="0 0 30.5 30.505">
  <g id="book" transform="translate(0.25 0.255)">
    <g id="Group_115" data-name="Group 115">
      <g id="Group_114" data-name="Group 114">
        <path id="Path_398" data-name="Path 398" d="M290.184,198.993a.5.5,0,0,0,.673.219,42.861,42.861,0,0,1,4.424-1.969.5.5,0,0,0-.3-.954,42.878,42.878,0,0,0-4.576,2.031.5.5,0,0,0-.221.673Z" transform="translate(-273.128 -184.766)" fill="#fff" stroke="#fff" stroke-width="0.5"/>
        <path id="Path_399" data-name="Path 399" d="M290.631,96.868a.5.5,0,0,0,.227-.054,42.87,42.87,0,0,1,4.424-1.968.5.5,0,1,0-.3-.954,42.883,42.883,0,0,0-4.576,2.031.5.5,0,0,0,.227.945Z" transform="translate(-273.128 -88.367)" fill="#fff" stroke="#fff" stroke-width="0.5"/>
        <path id="Path_400" data-name="Path 400" d="M29.5,7.5A.5.5,0,0,0,29,8V27.5A1.5,1.5,0,0,1,27.5,29h-12V27.85A14.734,14.734,0,0,1,20,27a25.79,25.79,0,0,1,7.342.974A.5.5,0,0,0,28,27.5V5.5a.5.5,0,0,0-.392-.488s-.392-.087-1.062-.211a.5.5,0,0,0-.181.983c.256.047.47.088.635.122V26.835A28.237,28.237,0,0,0,20,26a15.708,15.708,0,0,0-4.98.958A11.713,11.713,0,0,0,10.5,26a33.694,33.694,0,0,0-7.5.857V5.887A32.911,32.911,0,0,1,10.5,5a10.841,10.841,0,0,1,4,.824V25.5a.5.5,0,0,0,.757.428,57.242,57.242,0,0,1,9.4-4.454A.5.5,0,0,0,25,21V.5a.5.5,0,0,0-.676-.468,53.188,53.188,0,0,0-8.089,4.044.5.5,0,0,0,.53.848A53.441,53.441,0,0,1,24,1.231V20.642a56.033,56.033,0,0,0-8.5,3.989V5.5a.5.5,0,0,0-.277-.447A11.578,11.578,0,0,0,10.5,4,32.451,32.451,0,0,0,2.364,5.02.5.5,0,0,0,2,5.5v22a.5.5,0,0,0,.5.5.493.493,0,0,0,.137-.02A32.119,32.119,0,0,1,10.5,27a10.817,10.817,0,0,1,4,.824V29H2.5A1.5,1.5,0,0,1,1,27.5V8A.5.5,0,0,0,0,8V27.5A2.5,2.5,0,0,0,2.5,30h25A2.5,2.5,0,0,0,30,27.5V8A.5.5,0,0,0,29.5,7.5Z" transform="translate(0 0)" fill="#fff" stroke="#fff" stroke-width="0.5"/>
        <path id="Path_401" data-name="Path 401" d="M290.184,147.794a.5.5,0,0,0,.673.218,42.865,42.865,0,0,1,4.424-1.969.5.5,0,0,0-.3-.954,42.893,42.893,0,0,0-4.576,2.031.5.5,0,0,0-.221.674Z" transform="translate(-273.128 -136.566)" fill="#fff" stroke="#fff" stroke-width="0.5"/>
        <path id="Path_402" data-name="Path 402" d="M290.184,250.193a.5.5,0,0,0,.673.219,42.855,42.855,0,0,1,4.424-1.969.5.5,0,1,0-.3-.954,42.879,42.879,0,0,0-4.576,2.031.5.5,0,0,0-.221.673Z" transform="translate(-273.128 -232.966)" fill="#fff" stroke="#fff" stroke-width="0.5"/>
        <path id="Path_403" data-name="Path 403" d="M92.447,153.921a15.869,15.869,0,0,0-6.743.238.5.5,0,0,0,.129.983.509.509,0,0,0,.13-.017,15.069,15.069,0,0,1,6.256-.231.5.5,0,1,0,.228-.973Z" transform="translate(-80.331 -144.642)" fill="#fff" stroke="#fff" stroke-width="0.5"/>
        <path id="Path_404" data-name="Path 404" d="M92.447,205.125a15.878,15.878,0,0,0-6.743.238.5.5,0,0,0,.129.983.509.509,0,0,0,.13-.017,15.068,15.068,0,0,1,6.256-.23.5.5,0,1,0,.228-.973Z" transform="translate(-80.331 -192.846)" fill="#fff" stroke="#fff" stroke-width="0.5"/>
        <path id="Path_405" data-name="Path 405" d="M290.184,301.394a.5.5,0,0,0,.673.219,42.856,42.856,0,0,1,4.424-1.969.5.5,0,1,0-.3-.954,42.876,42.876,0,0,0-4.576,2.031.5.5,0,0,0-.221.673Z" transform="translate(-273.128 -281.167)" fill="#fff" stroke="#fff" stroke-width="0.5"/>
        <path id="Path_406" data-name="Path 406" d="M92.447,256.323a15.869,15.869,0,0,0-6.743.238.5.5,0,0,0,.129.984.508.508,0,0,0,.13-.018,15.068,15.068,0,0,1,6.256-.231.5.5,0,1,0,.228-.973Z" transform="translate(-80.331 -241.044)" fill="#fff" stroke="#fff" stroke-width="0.5"/>
        <path id="Path_407" data-name="Path 407" d="M92.447,358.721a15.868,15.868,0,0,0-6.743.238.5.5,0,0,0,.129.984.509.509,0,0,0,.13-.018,15.068,15.068,0,0,1,6.256-.231.5.5,0,1,0,.228-.973Z" transform="translate(-80.331 -337.442)" fill="#fff" stroke="#fff" stroke-width="0.5"/>
        <path id="Path_408" data-name="Path 408" d="M92.447,307.52a15.859,15.859,0,0,0-6.743.238.5.5,0,0,0,.129.984.508.508,0,0,0,.13-.018,15.068,15.068,0,0,1,6.256-.23.5.5,0,1,0,.228-.973Z" transform="translate(-80.331 -289.241)" fill="#fff" stroke="#fff" stroke-width="0.5"/>
      </g>
    </g>
  </g>
</svg>
