<svg id="company_" data-name="company " xmlns="http://www.w3.org/2000/svg" width="47" height="47" viewBox="0 0 47 47">
  <path id="Path_29006" data-name="Path 29006" d="M46.523,41.672l.337-2.7a49.761,49.761,0,0,0,.382-6.136,7.553,7.553,0,0,0-2.274-5.4v-9H43.889a.826.826,0,0,1-.315-1.587l1-.413-2.321-5.6-1,.413a.825.825,0,0,1-.9-1.345l.762-.764L36.83,4.85l-.765.763a.825.825,0,0,1-1.342-.9l.412-.993L29.53,1.4l-.409.992a.832.832,0,0,1-.929.492.818.818,0,0,1-.66-.8V1H21.468V2.079a.826.826,0,0,1-1.586.316l-.412-1L13.864,3.718l.412.992a.826.826,0,0,1-1.347.9l-.76-.758L7.884,9.139l.758.76a.83.83,0,0,1,.1,1.048.819.819,0,0,1-.993.3l-1-.413-2.321,5.6.988.41a.831.831,0,0,1,.5.927.823.823,0,0,1-.806.66H4.032v7.481a3.556,3.556,0,0,0-1.017,4.73,3.426,3.426,0,0,0,1.812,5.021A4.543,4.543,0,0,0,6.687,38.8l-.249.993-1.34.335A5.409,5.409,0,0,0,1,45.379V48H48V45.379a5.367,5.367,0,0,0-1.477-3.707Zm-34.769-.435,1.085.271L11.8,42.838l-1.154-.866ZM9.339,42.883l1.535,1.152L9.339,46.008,7.8,44.035Zm4.978-.807a3.837,3.837,0,0,1,1.844,3.3v1.105H10.888Zm3.361,3.3a3.837,3.837,0,0,1,1.844-3.3l3.429,4.408H17.677ZM19.952,33.69v.1a5,5,0,0,1-.758-2.659v-.57a3.8,3.8,0,0,1,3.79-3.79h3.032a3.8,3.8,0,0,1,3.79,3.79v.57a5,5,0,0,1-.758,2.659v-.2a2.277,2.277,0,0,0-2.274-2.274H24.5a.758.758,0,1,1,0-1.516h.758V28.29H24.5A2.278,2.278,0,0,0,22.255,30.2,3.789,3.789,0,0,0,19.952,33.69Zm2.274-8.371a5.259,5.259,0,0,0-1.516.459V23.742h1.516Zm6.065.459a5.259,5.259,0,0,0-1.516-.459V23.742H28.29ZM21.468,33.69a2.276,2.276,0,0,1,1.09-1.943A2.276,2.276,0,0,0,24.5,32.839h2.274a.759.759,0,0,1,.758.758v1.516a3.032,3.032,0,1,1-6.065,0ZM24.5,42.883l1.535,1.152L24.5,46.008l-1.535-1.973Zm2.466-.045-1.154-.866,1.1-.736L28,41.507ZM24.5,39.661a4.512,4.512,0,0,0,1.258-.181l.151.6-1.409.939-1.409-.939.151-.6a4.512,4.512,0,0,0,1.258.181Zm-2.415,1.575,1.1.735-1.154.866L21,41.507Zm7.393.84a3.837,3.837,0,0,1,1.844,3.3v1.105H26.049Zm3.361,3.3a3.837,3.837,0,0,1,1.844-3.3l3.429,4.408H32.839Zm5.424-1.169h2.8l-1.4,1.8Zm3.977-1.516H37.084l-.923-1.186.086-.022a3.021,3.021,0,0,0,2.143-2.009,4.47,4.47,0,0,0,2.543,0,3.02,3.02,0,0,0,2.142,2.009l.087.022Zm-2.578-4.548a3.035,3.035,0,0,1-3.032-3.032V33.69a2.271,2.271,0,0,1,1.723-2.206l.062-.016a3.361,3.361,0,0,0,1.875.926l1.753.251a.761.761,0,0,1,.651.75v1.718A3.035,3.035,0,0,1,39.661,38.145Zm6.065-5.306a48.185,48.185,0,0,1-.37,5.947l-.228,1.823a5.42,5.42,0,0,0-1.226-.48l-.459-.114a1.512,1.512,0,0,1-1.1-1.1l-.028-.111a4.541,4.541,0,0,0,1.9-3.688V33.4a2.284,2.284,0,0,0-1.952-2.251L40.5,30.894a1.873,1.873,0,0,1-1.6-1.845V28.29H37.387v.758a3.348,3.348,0,0,0,.183,1.093,3.785,3.785,0,0,0-2.458,3.549v1.423a4.542,4.542,0,0,0,1.9,3.689l-.027.111a1.514,1.514,0,0,1-1.1,1.1l-.458.114a5.412,5.412,0,0,0-1.227.48l-.228-1.823a48.205,48.205,0,0,1-.37-5.948,6.065,6.065,0,1,1,12.129,0ZM7.4,18.066a2.354,2.354,0,0,0-1.007-2.41l1.193-2.88A2.341,2.341,0,0,0,10,9.17l2.2-2.2a2.342,2.342,0,0,0,3.607-2.41l2.878-1.192a2.344,2.344,0,0,0,4.257-.847h3.115a2.343,2.343,0,0,0,4.255.846l2.88,1.192A2.343,2.343,0,0,0,36.8,6.966l2.2,2.2a2.342,2.342,0,0,0,2.411,3.608L42.6,15.654a2.344,2.344,0,0,0,.846,4.256v1.157l-3.159-1.382a15.889,15.889,0,0,0-31.585,0L5.548,21.067V19.909A2.344,2.344,0,0,0,7.4,18.066Zm8.76-1.643-5.833,2.552A14.481,14.481,0,0,1,24.5,7.065a14.227,14.227,0,0,1,6.634,1.65L16.161,10.96Zm1.516-4.158,13.645-2.047v1.5L17.677,13.765ZM32.839,9.776a14.438,14.438,0,0,1,5.833,9.2l-5.833-2.552ZM5.548,22.722l10.613-4.643V28.29h1.516V15.3l13.645-2.047V28.29h1.516V18.078l10.613,4.643v3.562a7.5,7.5,0,0,0-1.516-.676V23.742H40.419V25.3a7.452,7.452,0,0,0-1.516,0V22.226H37.387v3.382a7.5,7.5,0,0,0-1.516.676V20.71H34.355v6.725a7.554,7.554,0,0,0-2.274,5.4,49.74,49.74,0,0,0,.382,6.135l.337,2.7a5.436,5.436,0,0,0-.719.954A5.372,5.372,0,0,0,28.74,40.13l-1.34-.335-.249-.993a4.554,4.554,0,0,0,1.742-2.53l.385-.367a6.586,6.586,0,0,0,2.045-4.771v-.57a5.285,5.285,0,0,0-1.516-3.706V22.226H25.258v3.032H23.742V22.226H19.194v4.633a5.287,5.287,0,0,0-1.516,3.706v.57A6.588,6.588,0,0,0,19.721,35.9l.386.368a4.559,4.559,0,0,0,1.742,2.53l-.249.993-1.34.335a5.372,5.372,0,0,0-3.341,2.495,5.372,5.372,0,0,0-3.341-2.495l-1.34-.335L11.99,38.8a4.554,4.554,0,0,0,1.742-2.53l.385-.367a6.586,6.586,0,0,0,2.044-4.77,5.846,5.846,0,0,0-1.516-3.926v-6.5H13.129V26a5.825,5.825,0,0,0-1.516-.581V22.226H10.1v3.032H8.581V23.742H7.065v1.516H6.085a3.49,3.49,0,0,0-.537.055Zm.537,4.053h4.2a4.365,4.365,0,0,1,4.36,4.36,5,5,0,0,1-.758,2.659v-.2a2.277,2.277,0,0,0-2.274-2.274H9.339a.758.758,0,1,1,0-1.516H10.1V28.29H9.339A2.278,2.278,0,0,0,7.093,30.2a3.758,3.758,0,0,0-1.2.824l-.728-.364a2.053,2.053,0,0,1,.918-3.889ZM4.032,32.429a1.9,1.9,0,0,1,.107-.616,3.645,3.645,0,0,0,.349.206l.573.287A3.78,3.78,0,0,0,4.79,33.69v.263A1.907,1.907,0,0,1,4.032,32.429ZM6.306,33.69A2.276,2.276,0,0,1,7.4,31.747a2.276,2.276,0,0,0,1.942,1.092h2.274a.759.759,0,0,1,.758.758v1.516a3.032,3.032,0,1,1-6.065,0Zm3.032,5.971A4.512,4.512,0,0,0,10.6,39.48l.151.6-1.409.939-1.409-.939.151-.6A4.512,4.512,0,0,0,9.339,39.661ZM6.924,41.237l1.1.735-1.155.866-1.035-1.33ZM2.516,45.379a3.837,3.837,0,0,1,1.844-3.3l3.429,4.408H2.516Zm43.968,1.105H41.211l3.429-4.407a3.837,3.837,0,0,1,1.844,3.3Z" transform="translate(-1 -1)" fill="#fff"/>
  <path id="Path_29007" data-name="Path 29007" d="M29.548,21H25v4.548h4.548Zm-1.516,3.032H26.516V22.516h1.516Z" transform="translate(-6.806 -5.839)" fill="#fff"/>
  <path id="Path_29008" data-name="Path 29008" d="M37.548,21H33v4.548h4.548Zm-1.516,3.032H34.516V22.516h1.516Z" transform="translate(-8.742 -5.839)" fill="#fff"/>
</svg>
