<svg xmlns="http://www.w3.org/2000/svg" xmlns:xlink="http://www.w3.org/1999/xlink" width="65" height="65" viewBox="0 0 65 65">
  <defs>
    <linearGradient id="linear-gradient" x1="0.5" x2="0.5" y2="1" gradientUnits="objectBoundingBox">
      <stop offset="0" stop-color="#293043"/>
      <stop offset="1" stop-color="#00326c"/>
    </linearGradient>
  </defs>
  <g id="customize" transform="translate(0)">
    <g id="Group_7650" data-name="Group 7650" transform="translate(0 0)">
      <path id="Path_28471" data-name="Path 28471" d="M60.807,40.616a14.186,14.186,0,0,0-10.891-4.16L45.961,32.5l16.8-16.8a7.631,7.631,0,0,0,0-10.769L60.072,2.236a7.631,7.631,0,0,0-10.769,0l-16.8,16.8-3.956-3.956A14.28,14.28,0,0,0,7.786,1.574L5.458,2.766l8.83,8.83L11.6,14.288l-8.83-8.83L1.574,7.787A14.28,14.28,0,0,0,15.083,28.544L19.039,32.5,4.5,47.036.021,64.978,17.964,60.5,32.5,45.961l3.956,3.956A14.266,14.266,0,0,0,57.213,63.426l2.329-1.191-8.83-8.83L53.4,50.712l8.83,8.83,1.191-2.329A14.238,14.238,0,0,0,60.807,40.616ZM52,4.928a3.824,3.824,0,0,1,5.384,0L60.072,7.62a3.824,3.824,0,0,1,0,5.384l-1.923,1.923L50.073,6.85ZM47.381,9.542l8.077,8.077-2.692,2.692-8.077-8.077ZM12.116,4.04a10.429,10.429,0,0,1,8.107,1.622L16.98,8.9ZM16.49,24.567l-.921.113A10.478,10.478,0,0,1,4.039,12.116L11.6,19.673l11.32-11.32a10.41,10.41,0,0,1,1.764,7.216l-.113.921,5.241,5.241-8.077,8.077ZM42,14.927l2.692,2.692L11.606,50.7,8.914,48.009ZM5.248,59.751l2-8.018,6.014,6.014ZM16.99,56.086,14.3,53.394,47.381,20.311,50.073,23ZM52.883,60.96a10.429,10.429,0,0,1-8.107-1.622L48.019,56.1Zm8.076-8.077L53.4,45.327l-11.32,11.32A10.41,10.41,0,0,1,40.32,49.43l.113-.921-5.241-5.241,8.077-8.077,5.241,5.241.921-.113A10.478,10.478,0,0,1,60.96,52.884Z" transform="translate(0 0)" fill="url(#linear-gradient)"/>
    </g>
  </g>
</svg>
