<svg xmlns="http://www.w3.org/2000/svg" width="56" height="65.469" viewBox="0 0 56 65.469">
  <g id="elastic" transform="translate(-549 -2991.243)">
    <g id="elastic_1_" data-name="elastic (1)" transform="translate(546 2999)">
      <ellipse id="Ellipse_51" data-name="Ellipse 51" cx="5" cy="4.5" rx="5" ry="4.5" transform="translate(21 24)" fill="#fff"/>
      <path id="Path_29165" data-name="Path 29165" d="M31.727,42.995h-.118l-.574,6.892.771.771.771-.771L32,43h-.2c-.026,0-.053,0-.079,0Z" transform="translate(-5.639 -8.045)" fill="#fff"/>
      <path id="Path_29166" data-name="Path 29166" d="M43.689,31a1.472,1.472,0,0,0-1.033.427L36.414,37.67a8.849,8.849,0,0,1-4.971,2.486l-2.079.292L30,48.078,27.575,50.5,25.15,48.079l.636-7.625-2.079-.3a8.849,8.849,0,0,1-4.971-2.486l-6.242-6.242a1.461,1.461,0,0,0-2.067,2.065L21.983,45.049v9.917H33.167V45.049L44.722,33.493A1.461,1.461,0,0,0,43.689,31Z" transform="translate(-1.408 -5.632)" fill="#fff"/>
      <path id="Path_29167" data-name="Path 29167" d="M44.54,18.58a4.8,4.8,0,0,0-4.793,4.793h-1.6a6.4,6.4,0,0,1,6.244-6.384,8.83,8.83,0,0,0-8.64-7.2,8.694,8.694,0,0,0-4.06,1l-.647.337-.395-.614A11.976,11.976,0,0,0,8.592,16.983c0,.018,0,.034,0,.052a6.4,6.4,0,0,1,4.443,2.685l-1.311.915A4.792,4.792,0,1,0,7.14,28.117a3.027,3.027,0,0,1-.145-.887,3.058,3.058,0,0,1,5.22-2.162l3.1,3.1h4.517a6.385,6.385,0,0,1,12.671,0H37.02l3.1-3.1a3.04,3.04,0,0,1,5.075,3.048,4.79,4.79,0,0,0-.653-9.536ZM22.3,6.741a10.252,10.252,0,0,1,1.732.448L23.5,8.7a8.868,8.868,0,0,0-1.463-.378Zm-10.4,8.775-1.576-.264A10.35,10.35,0,0,1,20.575,6.6V8.2A8.755,8.755,0,0,0,11.909,15.517ZM34.72,23.139l-1.13-1.13,1.033-1.033H17.71l1.033,1.033-1.13,1.13-2.961-2.961,2.961-2.961,1.13,1.13L17.71,19.379H34.623L33.59,18.346l1.13-1.13,2.961,2.961Z" transform="translate(0 -0.402)" fill="#fff"/>
      <path id="Path_29168" data-name="Path 29168" d="M55.638,9.521,55.51,9.1a6.357,6.357,0,0,0-.457-1.094l-.206-.387.9-1.582-1.4-1.4-1.582.9-.387-.206a6.294,6.294,0,0,0-1.094-.457l-.419-.129L50.389,3H48.414l-.48,1.752-.419.129a6.357,6.357,0,0,0-1.094.457l-.387.206-1.582-.9-1.4,1.4.9,1.582-.093.176a10.276,10.276,0,0,1,1.818.173,4.782,4.782,0,0,1,7.548,5.87,10.221,10.221,0,0,1,.856,2.925,6.2,6.2,0,0,1,.645.193l1.016-1.016-.9-1.582.206-.387a6.294,6.294,0,0,0,.457-1.094l.129-.419,1.753-.481V10Z" transform="translate(-8.057)" fill="#fff"/>
      <path id="Path_29169" data-name="Path 29169" d="M53.428,13.473a3.188,3.188,0,0,0-4.876-3.8,10.49,10.49,0,0,1,4.876,3.8Z" transform="translate(-9.163 -1.207)" fill="#fff"/>
    </g>
    <g id="Group_7741" data-name="Group 7741" transform="translate(-11 -46)">
      <g id="Group_7734" data-name="Group 7734" transform="translate(568.231 3037.243)">
        <path id="Polygon_1" data-name="Polygon 1" d="M4.858,1.592a1,1,0,0,1,1.752,0L7.63,3.444a1,1,0,0,0,.394.394l1.853,1.02a1,1,0,0,1,0,1.752L8.023,7.63a1,1,0,0,0-.394.394L6.61,9.876a1,1,0,0,1-1.752,0L3.838,8.023a1,1,0,0,0-.394-.394L1.592,6.61a1,1,0,0,1,0-1.752l1.853-1.02a1,1,0,0,0,.394-.394Z" fill="#ffd73b"/>
        <path id="Polygon_2" data-name="Polygon 2" d="M2.083,1.592a1,1,0,0,1,1.752,0l.035.063a1,1,0,0,0,.394.394l.063.035a1,1,0,0,1,0,1.752l-.063.035a1,1,0,0,0-.394.394l-.035.063a1,1,0,0,1-1.752,0l-.035-.063a1,1,0,0,0-.394-.394l-.063-.035a1,1,0,0,1,0-1.752l.063-.035a1,1,0,0,0,.394-.394Z" transform="translate(2.959 2.959)" fill="#ebbb00"/>
      </g>
      <g id="Group_7735" data-name="Group 7735" transform="translate(572.067 3094.896)">
        <path id="Polygon_1-2" data-name="Polygon 1" d="M3.031,1.592a1,1,0,0,1,1.752,0l.371.675a1,1,0,0,0,.394.394l.675.371a1,1,0,0,1,0,1.752l-.675.371a1,1,0,0,0-.394.394l-.371.675a1,1,0,0,1-1.752,0L2.66,5.549a1,1,0,0,0-.394-.394l-.675-.371a1,1,0,0,1,0-1.752l.675-.371a1,1,0,0,0,.394-.394Z" fill="#ffd73b"/>
        <path id="Polygon_2-2" data-name="Polygon 2" d="M1.4,1.122a.7.7,0,0,1,1.235,0h0a.7.7,0,0,0,.278.278h0a.7.7,0,0,1,0,1.235h0a.7.7,0,0,0-.278.278h0a.7.7,0,0,1-1.235,0h0a.7.7,0,0,0-.278-.278h0a.7.7,0,0,1,0-1.235h0A.7.7,0,0,0,1.4,1.122Z" transform="translate(2.017 2.017)" fill="#ebbb00"/>
      </g>
      <g id="Group_7736" data-name="Group 7736" transform="translate(608.185 3058.21)">
        <path id="Polygon_1-3" data-name="Polygon 1" d="M3.031,1.592a1,1,0,0,1,1.752,0l.371.675a1,1,0,0,0,.394.394l.675.371a1,1,0,0,1,0,1.752l-.675.371a1,1,0,0,0-.394.394l-.371.675a1,1,0,0,1-1.752,0L2.66,5.549a1,1,0,0,0-.394-.394l-.675-.371a1,1,0,0,1,0-1.752l.675-.371a1,1,0,0,0,.394-.394Z" fill="#ffd73b"/>
        <path id="Polygon_2-3" data-name="Polygon 2" d="M1.4,1.122a.7.7,0,0,1,1.235,0h0a.7.7,0,0,0,.278.278h0a.7.7,0,0,1,0,1.235h0a.7.7,0,0,0-.278.278h0a.7.7,0,0,1-1.235,0h0a.7.7,0,0,0-.278-.278h0a.7.7,0,0,1,0-1.235h0A.7.7,0,0,0,1.4,1.122Z" transform="translate(2.017 2.017)" fill="#ebbb00"/>
      </g>
    </g>
  </g>
</svg>
