<svg xmlns="http://www.w3.org/2000/svg" width="51.769" height="58.469" viewBox="0 0 51.769 58.469">
  <g id="group" transform="translate(-550.231 -2994.243)">
    <g id="group-2" data-name="group" transform="translate(545.161 3003)">
      <path id="Path_29151" data-name="Path 29151" d="M43.664,9.18a1.11,1.11,0,0,0,1.556-.209,17.128,17.128,0,0,1,27.253,0,1.11,1.11,0,0,0,1.765-1.347,19.349,19.349,0,0,0-30.783,0A1.11,1.11,0,0,0,43.664,9.18Z" transform="translate(-31.841)" fill="#fff"/>
      <path id="Path_29152" data-name="Path 29152" d="M228.037,81.884a3.467,3.467,0,1,0,3.467-3.467,3.471,3.471,0,0,0-3.467,3.467Z" transform="translate(-189.231 -66.782)" fill="#fff"/>
      <path id="Path_29153" data-name="Path 29153" d="M221.1,131.095l-.882-.271a1.038,1.038,0,0,0-.925.161l-1.742,1.3-1.742-1.3a1.037,1.037,0,0,0-.925-.161l-.882.271a3.433,3.433,0,0,0-2.35,3.261V139.6a1.033,1.033,0,0,0,.17.569l1.758,2.675v7.026a1.036,1.036,0,0,0,1.036,1.036h5.868a1.036,1.036,0,0,0,1.036-1.036v-7.026l1.758-2.675a1.036,1.036,0,0,0,.17-.569v-5.242A3.433,3.433,0,0,0,221.1,131.095Z" transform="translate(-175.276 -111.375)" fill="#fff"/>
      <path id="Path_29154" data-name="Path 29154" d="M25.691,85.351a3.467,3.467,0,1,0-3.467-3.467A3.471,3.471,0,0,0,25.691,85.351Z" transform="translate(-13.954 -66.782)" fill="#fff"/>
      <path id="Path_29155" data-name="Path 29155" d="M15.286,131.095l-.882-.271a1.038,1.038,0,0,0-.925.161l-1.742,1.3L10,130.985a1.037,1.037,0,0,0-.925-.161l-.882.271a3.433,3.433,0,0,0-2.35,3.261V139.6a1.033,1.033,0,0,0,.17.569l1.758,2.675v7.026A1.036,1.036,0,0,0,8.8,150.9h5.868a1.036,1.036,0,0,0,1.036-1.036v-7.026l1.758-2.675a1.035,1.035,0,0,0,.17-.569v-5.242A3.433,3.433,0,0,0,15.286,131.095Z" transform="translate(0 -111.375)" fill="#fff"/>
      <path id="Path_29156" data-name="Path 29156" d="M127.3,43.181a4.472,4.472,0,1,0-4.472,4.472A4.477,4.477,0,0,0,127.3,43.181Z" transform="translate(-95.825 -32.966)" fill="#fff"/>
      <path id="Path_29157" data-name="Path 29157" d="M109.657,111.238l-.007,0-1.276-.392a.4.4,0,0,0-.489.243l-2.684,7.364a.485.485,0,0,1-.911,0l-2.684-7.364a.4.4,0,0,0-.372-.261c-.038,0-1.392.409-1.392.409A3.962,3.962,0,0,0,97.122,115v7.79a.4.4,0,0,0,.065.218l2.8,4.262v10.784a.4.4,0,0,0,.4.4h8.722a.4.4,0,0,0,.4-.4V127.269l2.8-4.262a.4.4,0,0,0,.065-.218v-7.811A3.937,3.937,0,0,0,109.657,111.238Z" transform="translate(-77.739 -94.383)" fill="#fff"/>
      <path id="Path_29158" data-name="Path 29158" d="M142.664,111.514a.591.591,0,0,0-.437-.182H141a.591.591,0,0,0-.437.182.567.567,0,0,0-.075.668l.654.986-.306,2.582.6,1.6a.184.184,0,0,0,.346,0l.6-1.6-.306-2.582.654-.986A.567.567,0,0,0,142.664,111.514Z" transform="translate(-114.61 -94.814)" fill="#fff"/>
    </g>
    <g id="Group_7739" data-name="Group 7739" transform="translate(-8 -44)">
      <g id="Group_7734" data-name="Group 7734" transform="translate(558.231 3038.243)">
        <path id="Polygon_1" data-name="Polygon 1" d="M4.858,1.592a1,1,0,0,1,1.752,0L7.63,3.444a1,1,0,0,0,.394.394l1.853,1.02a1,1,0,0,1,0,1.752L8.023,7.63a1,1,0,0,0-.394.394L6.61,9.876a1,1,0,0,1-1.752,0L3.838,8.023a1,1,0,0,0-.394-.394L1.592,6.61a1,1,0,0,1,0-1.752l1.853-1.02a1,1,0,0,0,.394-.394Z" fill="#ffd73b"/>
        <path id="Polygon_2" data-name="Polygon 2" d="M2.083,1.592a1,1,0,0,1,1.752,0l.035.063a1,1,0,0,0,.394.394l.063.035a1,1,0,0,1,0,1.752l-.063.035a1,1,0,0,0-.394.394l-.035.063a1,1,0,0,1-1.752,0l-.035-.063a1,1,0,0,0-.394-.394l-.063-.035a1,1,0,0,1,0-1.752l.063-.035a1,1,0,0,0,.394-.394Z" transform="translate(2.959 2.959)" fill="#ebbb00"/>
      </g>
      <g id="Group_7735" data-name="Group 7735" transform="translate(585.067 3088.896)">
        <path id="Polygon_1-2" data-name="Polygon 1" d="M3.031,1.592a1,1,0,0,1,1.752,0l.371.675a1,1,0,0,0,.394.394l.675.371a1,1,0,0,1,0,1.752l-.675.371a1,1,0,0,0-.394.394l-.371.675a1,1,0,0,1-1.752,0L2.66,5.549a1,1,0,0,0-.394-.394l-.675-.371a1,1,0,0,1,0-1.752l.675-.371a1,1,0,0,0,.394-.394Z" fill="#ffd73b"/>
        <path id="Polygon_2-2" data-name="Polygon 2" d="M1.4,1.122a.7.7,0,0,1,1.235,0h0a.7.7,0,0,0,.278.278h0a.7.7,0,0,1,0,1.235h0a.7.7,0,0,0-.278.278h0a.7.7,0,0,1-1.235,0h0a.7.7,0,0,0-.278-.278h0a.7.7,0,0,1,0-1.235h0A.7.7,0,0,0,1.4,1.122Z" transform="translate(2.017 2.017)" fill="#ebbb00"/>
      </g>
      <g id="Group_7736" data-name="Group 7736" transform="translate(602.185 3057.21)">
        <path id="Polygon_1-3" data-name="Polygon 1" d="M3.031,1.592a1,1,0,0,1,1.752,0l.371.675a1,1,0,0,0,.394.394l.675.371a1,1,0,0,1,0,1.752l-.675.371a1,1,0,0,0-.394.394l-.371.675a1,1,0,0,1-1.752,0L2.66,5.549a1,1,0,0,0-.394-.394l-.675-.371a1,1,0,0,1,0-1.752l.675-.371a1,1,0,0,0,.394-.394Z" fill="#ffd73b"/>
        <path id="Polygon_2-3" data-name="Polygon 2" d="M1.4,1.122a.7.7,0,0,1,1.235,0h0a.7.7,0,0,0,.278.278h0a.7.7,0,0,1,0,1.235h0a.7.7,0,0,0-.278.278h0a.7.7,0,0,1-1.235,0h0a.7.7,0,0,0-.278-.278h0a.7.7,0,0,1,0-1.235h0A.7.7,0,0,0,1.4,1.122Z" transform="translate(2.017 2.017)" fill="#ebbb00"/>
      </g>
    </g>
  </g>
</svg>
