<svg xmlns="http://www.w3.org/2000/svg" width="23" height="23" viewBox="0 0 23 23">
  <path id="information" d="M11.5,0A11.5,11.5,0,1,0,23,11.5,11.513,11.513,0,0,0,11.5,0Zm.748,18.323c-.546.091-1.633.319-2.186.364a1.345,1.345,0,0,1-1.177-.613,1.437,1.437,0,0,1-.174-1.316l2.174-5.977H8.625a2.7,2.7,0,0,1,2.127-2.513,8.322,8.322,0,0,1,2.185-.362,1.733,1.733,0,0,1,1.177.613,1.437,1.437,0,0,1,.174,1.316l-2.174,5.977h2.259a2.545,2.545,0,0,1-2.126,2.511Zm.689-11.136A1.438,1.438,0,1,1,14.375,5.75a1.438,1.438,0,0,1-1.438,1.438Z" fill="#fff"/>
</svg>
