<svg xmlns="http://www.w3.org/2000/svg" width="34.398" height="30" viewBox="0 0 34.398 30">
  <path id="position" d="M4.823,44.441a3.269,3.269,0,0,1-2.371-1.017,4.3,4.3,0,0,1-1.1-3.28,3.36,3.36,0,0,1,3.312-3.235,2.661,2.661,0,0,1,.367,0,3.352,3.352,0,0,1,3.251,3.231,4.3,4.3,0,0,1-1.1,3.28A3.268,3.268,0,0,1,4.823,44.441Zm0-5.99A1.833,1.833,0,0,0,2.908,40.2a2.861,2.861,0,0,0,.661,2.146,1.72,1.72,0,0,0,2.506,0A2.862,2.862,0,0,0,6.737,40.2a1.832,1.832,0,0,0-1.914-1.743ZM9.011,53.325a.776.776,0,0,0,.622-.9L8.963,48.8a3.971,3.971,0,0,0-4.14-3.058A3.971,3.971,0,0,0,.683,48.8L.013,52.42a.776.776,0,0,0,.759.917h4.6a.776.776,0,1,0,0-1.552H1.708l.5-2.7A2.47,2.47,0,0,1,4.824,47.3,2.47,2.47,0,0,1,7.44,49.085L8.11,52.7a.776.776,0,0,0,.759.634.793.793,0,0,0,.142-.012ZM16.941,40.1a3.269,3.269,0,0,1-2.371-1.017,4.3,4.3,0,0,1-1.1-3.28A3.333,3.333,0,0,1,16.6,32.589a3.634,3.634,0,0,1,.861.024A3.309,3.309,0,0,1,20.4,35.807a4.3,4.3,0,0,1-1.1,3.28A3.268,3.268,0,0,1,16.944,40.1Zm0-5.99a1.832,1.832,0,0,0-1.914,1.747,2.862,2.862,0,0,0,.661,2.146,1.72,1.72,0,0,0,2.506,0,2.861,2.861,0,0,0,.661-2.146,1.832,1.832,0,0,0-1.913-1.743Zm4.188,14.87a.776.776,0,0,0,.622-.9l-.67-3.617a3.971,3.971,0,0,0-4.14-3.058,3.971,3.971,0,0,0-4.14,3.058l-.67,3.617a.776.776,0,0,0,.759.917h4.6a.776.776,0,1,0,0-1.552H13.83l.5-2.7a2.47,2.47,0,0,1,2.615-1.788,2.47,2.47,0,0,1,2.615,1.788l.67,3.617a.775.775,0,0,0,.9.622ZM29.06,35.763a3.268,3.268,0,0,1-2.371-1.017,4.3,4.3,0,0,1-1.1-3.28,3.344,3.344,0,0,1,3.188-3.225,6.568,6.568,0,0,1,.708.018,3.322,3.322,0,0,1,3.037,3.206,4.3,4.3,0,0,1-1.1,3.28,3.268,3.268,0,0,1-2.365,1.022Zm0-5.99a1.832,1.832,0,0,0-1.914,1.747,2.862,2.862,0,0,0,.661,2.146,1.72,1.72,0,0,0,2.506,0,2.862,2.862,0,0,0,.661-2.146,1.833,1.833,0,0,0-1.909-1.739Zm4.188,14.87a.776.776,0,0,0,.622-.9l-.67-3.617a3.971,3.971,0,0,0-4.14-3.058,3.971,3.971,0,0,0-4.14,3.058l-.67,3.617a.776.776,0,0,0,.759.917h4.6a.776.776,0,0,0,0-1.552H25.951l.5-2.7a2.47,2.47,0,0,1,2.615-1.788A2.47,2.47,0,0,1,31.683,40.4l.67,3.617a.775.775,0,0,0,.9.622ZM8.866,57.739a.776.776,0,0,0,.573-.253l3.8-4.157h7.756a.776.776,0,0,0,.569-.248l3.8-4.089h7.755a.776.776,0,0,0,0-1.552H25.018a.774.774,0,0,0-.58.26l-3.787,4.077H12.9a.776.776,0,0,0-.573.253l-3.8,4.157H.776a.776.776,0,1,0,0,1.552Z" transform="translate(0.253 -27.989)" fill="#fff" stroke="#fff" stroke-width="0.5"/>
</svg>
