<svg id="practice" xmlns="http://www.w3.org/2000/svg" width="52" height="52" viewBox="0 0 52 52">
  <path id="Path_29009" data-name="Path 29009" d="M285.616,254.156h-.038a2.658,2.658,0,0,0-2.476,2.016l-.816,3.351a10.957,10.957,0,0,1-5.85,7.271,1,1,0,0,1-1.428-1.074l.644-3.69a2.063,2.063,0,0,0-3.771-1.467l-4.17,6.513a1.53,1.53,0,0,0-1.973.158l-3.024,3.024a.762.762,0,0,0,0,1.077l8.782,8.782a.762.762,0,0,0,1.077,0l3.024-3.024a1.53,1.53,0,0,0,.085-2.068,23.871,23.871,0,0,0,2.815-1.84.762.762,0,0,0-.921-1.214,23.2,23.2,0,0,1-3.01,1.929l-5.741-5.741,4.338-6.776a.54.54,0,0,1,.987.384l-.644,3.69a2.526,2.526,0,0,0,3.6,2.7,12.477,12.477,0,0,0,6.661-8.279l.816-3.351c.263-1.079,1.815-1.129,1.723-.184a22.362,22.362,0,0,1-6.5,13.693.762.762,0,0,0,1.072,1.082,23.888,23.888,0,0,0,6.948-14.628A2.136,2.136,0,0,0,285.616,254.156ZM272.035,278.5l-7.7-7.7,2.492-2.486,7.7,7.7Z" transform="translate(-235.832 -228.342)" fill="#fff"/>
  <path id="Path_29010" data-name="Path 29010" d="M151.418,12.848l1.013.561a.054.054,0,0,1,.02.02l1.585,2.744a.052.052,0,0,1,.007.028l-.02,1.158a1.577,1.577,0,0,0,.788,1.393l2.3,1.325a1.576,1.576,0,0,0,1.6-.014l.993-.6a.053.053,0,0,1,.027-.007h3.169a.053.053,0,0,1,.027.008l.993.6a1.576,1.576,0,0,0,1.6.014l2.3-1.325a1.577,1.577,0,0,0,.788-1.393l-.02-1.158a.053.053,0,0,1,.007-.027l1.585-2.745a.053.053,0,0,1,.02-.02l1.013-.561a1.577,1.577,0,0,0,.812-1.379V8.819A1.577,1.577,0,0,0,171.2,7.44l-1.013-.561a.054.054,0,0,1-.02-.02l-.092-.159a.762.762,0,0,0-1.319.762l.091.158a1.576,1.576,0,0,0,.6.591l1.013.561a.053.053,0,0,1,.027.046v2.65a.053.053,0,0,1-.027.046l-1.013.562a1.576,1.576,0,0,0-.6.59l-1.585,2.745a1.577,1.577,0,0,0-.211.816l.02,1.158a.053.053,0,0,1-.026.047l-2.3,1.325a.053.053,0,0,1-.053,0l-.993-.6a1.577,1.577,0,0,0-.812-.225h-3.169a1.575,1.575,0,0,0-.812.225l-.993.6a.052.052,0,0,1-.053,0l-2.3-1.325a.053.053,0,0,1-.027-.047l.02-1.158a1.577,1.577,0,0,0-.211-.816l-1.585-2.744a1.576,1.576,0,0,0-.6-.591l-1.013-.561a.053.053,0,0,1-.027-.046V8.819a.053.053,0,0,1,.027-.046l1.013-.562a1.576,1.576,0,0,0,.6-.59l1.585-2.745a1.578,1.578,0,0,0,.211-.816l-.02-1.158a.053.053,0,0,1,.026-.047l2.3-1.325a.052.052,0,0,1,.053,0l.993.6a1.577,1.577,0,0,0,.812.225H162.9a1.577,1.577,0,0,0,.812-.225l.993-.6a.052.052,0,0,1,.054,0l2.3,1.325a.053.053,0,0,1,.026.047l-.02,1.158a1.584,1.584,0,0,0,.154.7.762.762,0,0,0,1.376-.654.059.059,0,0,1-.007-.023l.02-1.158a1.577,1.577,0,0,0-.788-1.393l-2.3-1.325a1.576,1.576,0,0,0-1.6.014l-.992.6a.053.053,0,0,1-.028.008h-3.169A.054.054,0,0,1,159.7.822l-.993-.6a1.576,1.576,0,0,0-1.6-.014l-2.3,1.325a1.577,1.577,0,0,0-.788,1.393l.02,1.158a.053.053,0,0,1-.007.027l-1.585,2.745a.053.053,0,0,1-.02.02l-1.013.562a1.577,1.577,0,0,0-.812,1.379v2.65a1.577,1.577,0,0,0,.812,1.379Z" transform="translate(-135.31 0)" fill="#fff"/>
  <path id="Path_29011" data-name="Path 29011" d="M215.25,54.52a4.607,4.607,0,1,0,4.607,4.607A4.612,4.612,0,0,0,215.25,54.52Zm0,7.69a3.083,3.083,0,1,1,3.083-3.083A3.087,3.087,0,0,1,215.25,62.21Z" transform="translate(-189.25 -48.983)" fill="#fff"/>
  <path id="Path_29012" data-name="Path 29012" d="M362.126,186.507a3.428,3.428,0,1,0-3.428-3.428A3.432,3.432,0,0,0,362.126,186.507Zm0-5.332a1.9,1.9,0,1,1-1.9,1.9A1.906,1.906,0,0,1,362.126,181.175Z" transform="translate(-322.268 -161.406)" fill="#fff"/>
  <path id="Path_29013" data-name="Path 29013" d="M319.442,144.119l.013.748-1.044,1.809-.654.363a1.327,1.327,0,0,0-.684,1.16v1.838a1.327,1.327,0,0,0,.683,1.16l.654.363,1.044,1.808-.013.748a1.327,1.327,0,0,0,.663,1.172l1.591.919a1.327,1.327,0,0,0,1.346-.012l.641-.385h2.088l.641.385a1.327,1.327,0,0,0,1.347.012l1.591-.919a1.327,1.327,0,0,0,.663-1.172l-.013-.748,1.044-1.808.655-.363a1.327,1.327,0,0,0,.683-1.16V148.2a1.327,1.327,0,0,0-.683-1.16l-.655-.363L330,144.867l.013-.748a1.327,1.327,0,0,0-.663-1.172l-1.592-.919a1.327,1.327,0,0,0-1.346.012l-.641.385h-2.088l-.641-.385a1.328,1.328,0,0,0-1.346-.012l-1.592.919A1.327,1.327,0,0,0,319.442,144.119Zm1.525.089,1.39-.8.589.354a1.326,1.326,0,0,0,.683.189h2.2a1.328,1.328,0,0,0,.683-.189l.589-.354,1.39.8-.012.687a1.325,1.325,0,0,0,.178.686l1.1,1.9a1.326,1.326,0,0,0,.506.5l.6.333v1.606l-.6.333a1.327,1.327,0,0,0-.505.5l-1.1,1.9a1.326,1.326,0,0,0-.178.687l.012.687-1.39.8-.589-.354a1.326,1.326,0,0,0-.683-.189h-2.2a1.328,1.328,0,0,0-.683.189l-.589.354-1.39-.8.012-.687a1.326,1.326,0,0,0-.178-.686l-1.1-1.9a1.325,1.325,0,0,0-.506-.5l-.6-.333v-1.606l.6-.333a1.324,1.324,0,0,0,.506-.5l1.1-1.9a1.326,1.326,0,0,0,.178-.687Z" transform="translate(-284.87 -127.444)" fill="#fff"/>
  <path id="Path_29014" data-name="Path 29014" d="M89.232,186.507A3.428,3.428,0,1,0,85.8,183.08,3.432,3.432,0,0,0,89.232,186.507Zm0-5.332a1.9,1.9,0,1,1-1.9,1.9A1.906,1.906,0,0,1,89.232,181.175Z" transform="translate(-77.09 -161.406)" fill="#fff"/>
  <path id="Path_29015" data-name="Path 29015" d="M44.859,151.195l.655.363,1.044,1.808-.013.748a1.327,1.327,0,0,0,.663,1.172l1.591.919a1.327,1.327,0,0,0,1.347-.012l.641-.385h2.088l.641.385a1.327,1.327,0,0,0,1.346.012l1.591-.919a1.327,1.327,0,0,0,.663-1.172l-.013-.748,1.044-1.808.655-.363a1.328,1.328,0,0,0,.683-1.16V148.2a1.327,1.327,0,0,0-.683-1.16l-.655-.363L57.1,144.865l.013-.748a1.327,1.327,0,0,0-.663-1.172l-1.591-.919a1.327,1.327,0,0,0-1.346.012l-.642.385H50.787l-.642-.386a1.327,1.327,0,0,0-1.346-.012l-1.591.919a1.327,1.327,0,0,0-.663,1.172l.013.748-1.044,1.808-.654.363a1.327,1.327,0,0,0-.684,1.16v1.838a1.327,1.327,0,0,0,.683,1.16Zm.84-2.882.6-.333a1.326,1.326,0,0,0,.506-.5l1.1-1.9a1.328,1.328,0,0,0,.177-.686l-.012-.687,1.39-.8.589.354a1.326,1.326,0,0,0,.683.19h2.2a1.327,1.327,0,0,0,.683-.189l.589-.354,1.39.8-.012.687a1.327,1.327,0,0,0,.178.686l1.1,1.9a1.326,1.326,0,0,0,.506.5l.6.333v1.606l-.6.333a1.326,1.326,0,0,0-.506.5l-1.1,1.9a1.327,1.327,0,0,0-.177.686l.012.687-1.39.8-.589-.354a1.326,1.326,0,0,0-.683-.19h-2.2a1.327,1.327,0,0,0-.683.189l-.589.354-1.39-.8.012-.687a1.328,1.328,0,0,0-.178-.686l-1.1-1.9a1.327,1.327,0,0,0-.506-.5l-.6-.333v-1.606Z" transform="translate(-39.689 -127.442)" fill="#fff"/>
  <path id="Path_29016" data-name="Path 29016" d="M22.093,267.233a1.53,1.53,0,0,0-1.973-.158l-4.17-6.513a2.064,2.064,0,0,0-3.771,1.467l.644,3.69a1,1,0,0,1-1.428,1.073,10.958,10.958,0,0,1-5.85-7.271L4.73,256.17a2.658,2.658,0,0,0-2.476-2.016H2.216A2.137,2.137,0,0,0,.01,256.494a23.827,23.827,0,0,0,12.14,18.53,1.53,1.53,0,0,0,.084,2.068l3.024,3.024a.762.762,0,0,0,1.077,0l3.38-3.38a.762.762,0,0,0-1.077-1.077L15.8,278.5l-2.486-2.492,7.7-7.7L23.5,270.8l-2.71,2.71a.762.762,0,0,0,1.077,1.077l3.248-3.248a.762.762,0,0,0,0-1.077ZM1.527,256.347a.612.612,0,0,1,.633-.671H2.2a1.114,1.114,0,0,1,1.052.853l.816,3.351a12.476,12.476,0,0,0,6.661,8.28,2.526,2.526,0,0,0,3.6-2.7l-.644-3.69a.54.54,0,0,1,.987-.384l4.338,6.776L13.265,273.9A22.478,22.478,0,0,1,1.527,256.347Z" transform="translate(0 -228.339)" fill="#fff"/>
</svg>
