<svg xmlns="http://www.w3.org/2000/svg" xmlns:xlink="http://www.w3.org/1999/xlink" width="66.508" height="66.507" viewBox="0 0 66.508 66.507">
  <defs>
    <linearGradient id="linear-gradient" x1="0.5" x2="0.5" y2="1" gradientUnits="objectBoundingBox">
      <stop offset="0" stop-color="#293043"/>
      <stop offset="1" stop-color="#00326c"/>
    </linearGradient>
  </defs>
  <g id="presentation" transform="translate(0.502 0.5)">
    <g id="Group_7659" data-name="Group 7659" transform="translate(3.281)">
      <g id="Group_7658" data-name="Group 7658">
        <path id="Path_28478" data-name="Path 28478" d="M35.434,0a9.825,9.825,0,1,0,9.825,9.825A9.837,9.837,0,0,0,35.434,0Zm0,16.376a6.55,6.55,0,1,1,6.55-6.55A6.55,6.55,0,0,1,35.434,16.376Z" transform="translate(-25.609)" stroke="#1f314d" stroke-width="1" fill="url(#linear-gradient)"/>
      </g>
    </g>
    <g id="Group_7661" data-name="Group 7661" transform="translate(26.206 16.375)">
      <g id="Group_7660" data-name="Group 7660">
        <path id="Path_28479" data-name="Path 28479" d="M240.834,128h-32.75a3.275,3.275,0,0,0-3.275,3.275v2.5l3.275,1.637v-4.138h32.75v26.2h-32.75v-3.893l-3.275-.818v4.71a3.275,3.275,0,0,0,3.275,3.275h13.484l-8.338,13.9a1.637,1.637,0,1,0,2.809,1.682l6.783-11.305v10.464a1.637,1.637,0,1,0,3.275,0V165.022l6.784,11.3a1.637,1.637,0,0,0,1.4.8,1.606,1.606,0,0,0,.842-.234,1.634,1.634,0,0,0,.563-2.246l-8.338-13.9h13.483a3.275,3.275,0,0,0,3.275-3.275v-26.2A3.275,3.275,0,0,0,240.834,128Z" transform="translate(-204.809 -128)" stroke="#1f314d" stroke-width="1" fill="url(#linear-gradient)"/>
      </g>
    </g>
    <g id="Group_7663" data-name="Group 7663" transform="translate(0.006 22.925)">
      <g id="Group_7662" data-name="Group 7662" transform="translate(0)">
        <path id="Path_28480" data-name="Path 28480" d="M57.254,182.025A1.625,1.625,0,0,0,55.23,180.9l-20.208,5.774a3.269,3.269,0,0,0-.8-.58l-13.1-6.55a3.281,3.281,0,0,0-1.465-.346H6.556a3.276,3.276,0,0,0-3.223,2.689L.059,199.9a3.275,3.275,0,0,0,3.223,3.861H5.374l1.193,15a3.274,3.274,0,0,0,3.264,3.015h6.55a3.275,3.275,0,0,0,3.255-2.913L22.5,193.112l9.465,2.366a3.275,3.275,0,0,0,4.069-3.178v-2.508l20.1-5.743A1.633,1.633,0,0,0,57.254,182.025ZM32.756,192.3l-13.1-3.275L16.381,218.5H9.831L8.4,200.487H3.281l3.275-18.011h4.912v9.962a1.637,1.637,0,1,0,3.275,0v-9.963h4.912l13.1,6.55Z" transform="translate(-0.006 -179.201)" stroke="#1f314d" stroke-width="1" fill="url(#linear-gradient)"/>
      </g>
    </g>
  </g>
</svg>
