<svg xmlns="http://www.w3.org/2000/svg" width="47" height="63.711" viewBox="0 0 47 63.711">
  <g id="save-money" transform="translate(-554 -2998)">
    <g id="save-money-2" data-name="save-money" transform="translate(553.641 2998)">
      <path id="Path_29159" data-name="Path 29159" d="M104.008,132.467a11.975,11.975,0,1,0,11.975-11.975A11.975,11.975,0,0,0,104.008,132.467Zm11.975.757a3.935,3.935,0,0,1-1-7.747v-1.012a.83.83,0,0,1,1.66,0v.962a3.9,3.9,0,0,1,3.245,3.866.82.82,0,0,1-1.64,0,2.269,2.269,0,1,0-2.266,2.271,3.929,3.929,0,0,1,.661,7.8v.989a.83.83,0,1,1-1.66,0v-1.04a3.972,3.972,0,0,1-2.958-3.815.84.84,0,1,1,1.679,0,2.277,2.277,0,0,0,2.028,2.258.862.862,0,0,1,.13-.011.836.836,0,0,1,.186.021,2.27,2.27,0,0,0-.066-4.54Zm0,0" transform="translate(-91.361 -106.208)" fill="#fff"/>
      <path id="Path_29160" data-name="Path 29160" d="M100.155,354.047l-.019.01-7.7,3.639a5.953,5.953,0,0,1,.107,1.295.829.829,0,0,1-.829.807h-.024l-11.274-.31a.83.83,0,1,1,.045-1.66l10.364.285a4.279,4.279,0,0,0-4.093-3.555l-6.858-.188a9.029,9.029,0,0,1-3.886-1l-.7-.361a10.543,10.543,0,0,0-10.762.606l-.275,9.977,1.179-.631a5.126,5.126,0,0,1,3.821-.418l11.639,3.267a10.871,10.871,0,0,0,6.661-.745l16.125-10.431a3.016,3.016,0,0,0-3.52-.583Zm0,0" transform="translate(-56.316 -310.104)" fill="#fff"/>
      <path id="Path_29161" data-name="Path 29161" d="M.359,355.4l.409-14.844,5.862.162-.409,14.844Zm0,0" transform="translate(0 -300.178)" fill="#fff"/>
      <path id="Path_29162" data-name="Path 29162" d="M199.246,9.84V.83a.83.83,0,1,0-1.66,0V9.84a.83.83,0,1,0,1.66,0Zm0,0" transform="translate(-173.845)" fill="#fff"/>
      <path id="Path_29163" data-name="Path 29163" d="M259.246,45.1V40.83a.83.83,0,1,0-1.66,0V45.1a.83.83,0,1,0,1.66,0Zm0,0" transform="translate(-226.732 -35.258)" fill="#fff"/>
      <path id="Path_29164" data-name="Path 29164" d="M139.246,45.1V40.83a.83.83,0,1,0-1.66,0V45.1a.83.83,0,1,0,1.66,0Zm0,0" transform="translate(-120.958 -35.258)" fill="#fff"/>
    </g>
    <g id="Group_7740" data-name="Group 7740" transform="translate(-12 -41)">
      <g id="Group_7734" data-name="Group 7734" transform="translate(568.231 3045.243)">
        <path id="Polygon_1" data-name="Polygon 1" d="M4.858,1.592a1,1,0,0,1,1.752,0L7.63,3.444a1,1,0,0,0,.394.394l1.853,1.02a1,1,0,0,1,0,1.752L8.023,7.63a1,1,0,0,0-.394.394L6.61,9.876a1,1,0,0,1-1.752,0L3.838,8.023a1,1,0,0,0-.394-.394L1.592,6.61a1,1,0,0,1,0-1.752l1.853-1.02a1,1,0,0,0,.394-.394Z" fill="#ffd73b"/>
        <path id="Polygon_2" data-name="Polygon 2" d="M2.083,1.592a1,1,0,0,1,1.752,0l.035.063a1,1,0,0,0,.394.394l.063.035a1,1,0,0,1,0,1.752l-.063.035a1,1,0,0,0-.394.394l-.035.063a1,1,0,0,1-1.752,0l-.035-.063a1,1,0,0,0-.394-.394l-.063-.035a1,1,0,0,1,0-1.752l.063-.035a1,1,0,0,0,.394-.394Z" transform="translate(2.959 2.959)" fill="#ebbb00"/>
      </g>
      <g id="Group_7735" data-name="Group 7735" transform="translate(572.067 3094.896)">
        <path id="Polygon_1-2" data-name="Polygon 1" d="M3.031,1.592a1,1,0,0,1,1.752,0l.371.675a1,1,0,0,0,.394.394l.675.371a1,1,0,0,1,0,1.752l-.675.371a1,1,0,0,0-.394.394l-.371.675a1,1,0,0,1-1.752,0L2.66,5.549a1,1,0,0,0-.394-.394l-.675-.371a1,1,0,0,1,0-1.752l.675-.371a1,1,0,0,0,.394-.394Z" fill="#ffd73b"/>
        <path id="Polygon_2-2" data-name="Polygon 2" d="M1.4,1.122a.7.7,0,0,1,1.235,0h0a.7.7,0,0,0,.278.278h0a.7.7,0,0,1,0,1.235h0a.7.7,0,0,0-.278.278h0a.7.7,0,0,1-1.235,0h0a.7.7,0,0,0-.278-.278h0a.7.7,0,0,1,0-1.235h0A.7.7,0,0,0,1.4,1.122Z" transform="translate(2.017 2.017)" fill="#ebbb00"/>
      </g>
      <g id="Group_7736" data-name="Group 7736" transform="translate(604.185 3063.21)">
        <path id="Polygon_1-3" data-name="Polygon 1" d="M3.031,1.592a1,1,0,0,1,1.752,0l.371.675a1,1,0,0,0,.394.394l.675.371a1,1,0,0,1,0,1.752l-.675.371a1,1,0,0,0-.394.394l-.371.675a1,1,0,0,1-1.752,0L2.66,5.549a1,1,0,0,0-.394-.394l-.675-.371a1,1,0,0,1,0-1.752l.675-.371a1,1,0,0,0,.394-.394Z" fill="#ffd73b"/>
        <path id="Polygon_2-3" data-name="Polygon 2" d="M1.4,1.122a.7.7,0,0,1,1.235,0h0a.7.7,0,0,0,.278.278h0a.7.7,0,0,1,0,1.235h0a.7.7,0,0,0-.278.278h0a.7.7,0,0,1-1.235,0h0a.7.7,0,0,0-.278-.278h0a.7.7,0,0,1,0-1.235h0A.7.7,0,0,0,1.4,1.122Z" transform="translate(2.017 2.017)" fill="#ebbb00"/>
      </g>
    </g>
  </g>
</svg>
