<svg xmlns="http://www.w3.org/2000/svg" xmlns:xlink="http://www.w3.org/1999/xlink" width="72.72" height="73.538" viewBox="0 0 72.72 73.538">
  <defs>
    <linearGradient id="linear-gradient" x1="0.5" x2="0.5" y2="1" gradientUnits="objectBoundingBox">
      <stop offset="0" stop-color="#fff"/>
      <stop offset="1" stop-color="#0064d8"/>
    </linearGradient>
    <linearGradient id="linear-gradient-2" x1="0.5" x2="0.5" y2="1" gradientUnits="objectBoundingBox">
      <stop offset="0" stop-color="#0064d8"/>
      <stop offset="1" stop-color="#1c2848"/>
    </linearGradient>
  </defs>
  <g id="programme-management" transform="translate(-790.074 -578.921)">
    <path id="Path_28438" data-name="Path 28438" d="M40.356,0l22.16,48.52S50.138,57.876,40.574,61.376s-16.314,1.14-16.314,1.14L0,0Z" transform="translate(794.505 584.916) rotate(4.012)" opacity="0.1" fill="url(#linear-gradient)"/>
    <g id="Flat" transform="translate(798.153 588.542)">
      <g id="Color_copy" data-name="Color copy" transform="translate(0 0)">
        <path id="Path_1" data-name="Path 1" d="M46.366,23a8.366,8.366,0,0,1,8.366,8.366v6.693a3.347,3.347,0,0,1-3.347,3.347H41.347A3.347,3.347,0,0,1,38,38.059V31.366A8.366,8.366,0,0,1,46.366,23Z" transform="translate(-8.718 -6.267)" fill="#656b76"/>
        <path id="Path_2" data-name="Path 2" d="M53.059,33.071V30.663a2.614,2.614,0,0,0-2.624-2.611h-.064A5.63,5.63,0,0,1,46.388,26.4l-.964-.963a2.493,2.493,0,0,1-.731-1.774v-.038a2.609,2.609,0,0,1,.039-.43A8.366,8.366,0,0,0,38,31.4v6.693a3.347,3.347,0,0,0,3.347,3.347h10.04a3.347,3.347,0,0,0,3.347-3.347V36.4A4.161,4.161,0,0,1,53.059,33.071Z" transform="translate(-8.718 -6.299)" fill="#464a51"/>
        <path id="Path_3" data-name="Path 3" d="M42.347,43h8.366a3.347,3.347,0,0,1,3.347,3.347v8.366H39V46.347A3.347,3.347,0,0,1,42.347,43Z" transform="translate(-8.881 -9.535)" fill="#0064d8"/>
        <path id="Path_4" data-name="Path 4" d="M49.876,50.53a6.693,6.693,0,0,1-6.693-6.693v-.292A4.946,4.946,0,0,0,47.61,43H42.347A3.347,3.347,0,0,0,39,46.347v8.366H54.059V50.53Z" transform="translate(-8.881 -9.535)" fill="#016fee"/>
        <path id="Path_5" data-name="Path 5" d="M45,40h5.02v2.51a2.51,2.51,0,0,1-5.02,0Z" transform="translate(-9.862 -9.045)" fill="#ffd8b6"/>
        <path id="Path_6" data-name="Path 6" d="M38.02,51v1.673H34.673a1.673,1.673,0,0,0,0,3.347h6.693V51Z" transform="translate(-7.901 -10.842)" fill="#ffd8b6"/>
        <path id="Path_7" data-name="Path 7" d="M52.02,51v1.673H48.673a1.673,1.673,0,0,0,0,3.347h6.693V51Z" transform="translate(-10.188 -10.842)" fill="#ffd8b6"/>
        <path id="Path_8" data-name="Path 8" d="M49.183,44.183a2.5,2.5,0,0,1-2.008-1.022,5.02,5.02,0,0,0,2.845-2.074V40H45v2.51a2.5,2.5,0,0,0,4.386,1.653C49.317,44.168,49.253,44.183,49.183,44.183Z" transform="translate(-9.862 -9.045)" fill="#ffd8b6"/>
        <path id="Path_9" data-name="Path 9" d="M52.837,49v3.347H52v-2.51A.837.837,0,0,1,52.837,49Z" transform="translate(-11.005 -10.515)" fill="#016fee"/>
        <path id="Path_10" data-name="Path 10" d="M53.693,52.673V51H52.02v1.673a1.673,1.673,0,0,1-1.673,1.673H47a1.673,1.673,0,0,0,1.673,1.673h6.693V54.347A1.673,1.673,0,0,1,53.693,52.673Z" transform="translate(-10.188 -10.842)" fill="#ffd8b6"/>
        <path id="Path_11" data-name="Path 11" d="M41.366,51H38.02v1.673a1.673,1.673,0,0,1-1.673,1.673H33a1.673,1.673,0,0,0,1.673,1.673h6.693Z" transform="translate(-7.901 -10.842)" fill="#ffd8b6"/>
        <path id="Path_12" data-name="Path 12" d="M47.02,39.713A5.02,5.02,0,0,1,42,34.693V30.51a3.482,3.482,0,0,0,3.3-2.382L45.347,28a8.569,8.569,0,0,0,6.06,2.51h.633v4.183A5.02,5.02,0,0,1,47.02,39.713Z" transform="translate(-9.372 -7.084)" fill="#ffd8b6"/>
        <path id="Path_13" data-name="Path 13" d="M51.406,30.51A8.569,8.569,0,0,1,45.346,28l-.042.129A3.482,3.482,0,0,1,42,30.51v4.183A5.02,5.02,0,0,0,51.3,37.3a5.014,5.014,0,0,1-7.628-4.284V31.747A3.478,3.478,0,0,0,45.3,29.8l.043-.129a8.569,8.569,0,0,0,6.06,2.51h.633V30.51Z" transform="translate(-9.372 -7.084)" fill="#ffd8b6"/>
        <circle id="Ellipse_1" data-name="Ellipse 1" cx="0.837" cy="0.837" r="0.837" transform="translate(35.138 25.099)" fill="#464a51"/>
        <circle id="Ellipse_2" data-name="Ellipse 2" cx="0.837" cy="0.837" r="0.837" transform="translate(38.485 25.099)" fill="#464a51"/>
        <path id="Path_14" data-name="Path 14" d="M3,57H51.524v3.347H3Z" transform="translate(-3 -11.822)" fill="#cacaca"/>
        <path id="Path_15" data-name="Path 15" d="M7.183,57H3v3.347H51.524V58.673H8.856A1.673,1.673,0,0,1,7.183,57Z" transform="translate(-3 -11.822)" fill="url(#linear-gradient-2)"/>
        <rect id="Rectangle_1" data-name="Rectangle 1" width="23.426" height="16.733" rx="3" transform="translate(1.673 21.752)" fill="url(#linear-gradient-2)"/>
        <path id="Path_16" data-name="Path 16" d="M30.673,53a1.673,1.673,0,0,1,1.673,1.673v1.673H29V54.673A1.673,1.673,0,0,1,30.673,53Z" transform="translate(-7.248 -11.169)" fill="#e9f1f2"/>
        <path id="Path_17" data-name="Path 17" d="M28.426,42.386v.837a2.51,2.51,0,0,1-2.51,2.51H7.51A2.51,2.51,0,0,1,5,43.223V31.51A2.51,2.51,0,0,1,7.51,29h.837v5.02a8.357,8.357,0,0,0,3.439,6.76A3.347,3.347,0,0,1,15.04,38.2h1.673a1.678,1.678,0,0,1,1.673,1.673v2.51Z" transform="translate(-3.327 -7.248)" fill="url(#linear-gradient-2)"/>
        <path id="Path_18" data-name="Path 18" d="M18.347,40a3.347,3.347,0,0,1,3.347,3.347v9.2H15v-9.2A3.347,3.347,0,0,1,18.347,40Z" transform="translate(-4.96 -9.045)" fill="#e9f1f2"/>
        <path id="Path_19" data-name="Path 19" d="M21.693,49.149v3.422H15v-9.2a3.34,3.34,0,0,1,2.51-3.238V44.2A5.011,5.011,0,0,0,21.693,49.149Z" transform="translate(-4.96 -9.066)" fill="#cacaca"/>
        <path id="Path_20" data-name="Path 20" d="M10.673,53H24.059a1.673,1.673,0,0,1,1.673,1.673v1.673H9V54.673A1.673,1.673,0,0,1,10.673,53Z" transform="translate(-3.98 -11.169)" fill="#cacaca"/>
        <path id="Path_21" data-name="Path 21" d="M25.733,54.673v1.673H9V54.673A1.678,1.678,0,0,1,10.673,53h.151a2.483,2.483,0,0,0,2.359,1.673Z" transform="translate(-3.98 -11.169)" fill="url(#linear-gradient-2)"/>
        <path id="Path_22" data-name="Path 22" d="M30.223,31.51v8.366A1.678,1.678,0,0,1,28.549,38.2V32.347a1.678,1.678,0,0,0-1.673-1.673h-9.2A1.686,1.686,0,0,1,16,29H27.713A2.51,2.51,0,0,1,30.223,31.51Z" transform="translate(-5.124 -7.248)" fill="#e9f1f2"/>
        <path id="Path_23" data-name="Path 23" d="M22.2,35.673H13.837a.837.837,0,1,1,0-1.673H22.2a.837.837,0,1,1,0,1.673Z" transform="translate(-4.634 -8.065)" fill="#fff"/>
        <path id="Path_24" data-name="Path 24" d="M38.033,11.366a5.716,5.716,0,0,0-.075-.929L39.84,9.358l-2.51-4.35L35.456,6.1a6.537,6.537,0,0,0-1.606-.929V3H28.83V5.167a6.537,6.537,0,0,0-1.606.929L25.35,5.008l-2.51,4.35,1.882,1.079a5.764,5.764,0,0,0,0,1.857L22.84,13.374l2.51,4.35,1.874-1.088a6.538,6.538,0,0,0,1.606.929v2.167h5.02V17.566a6.538,6.538,0,0,0,1.606-.929l1.874,1.088,2.51-4.35-1.882-1.079a5.716,5.716,0,0,0,.075-.929Zm-6.693,2.51a2.51,2.51,0,1,1,2.51-2.51A2.51,2.51,0,0,1,31.34,13.876Z" transform="translate(-6.241 -3)" fill="#dfdfdf"/>
        <path id="Path_25" data-name="Path 25" d="M34.687,16.365A10.876,10.876,0,0,1,24.1,7.992L22.84,10.174l1.882,1.079a5.764,5.764,0,0,0,0,1.857L22.84,14.19l2.51,4.35,1.874-1.088a6.538,6.538,0,0,0,1.606.929v2.167h5.02V18.381a6.538,6.538,0,0,0,1.606-.929L37.33,18.54l1.8-3.121A10.925,10.925,0,0,1,34.687,16.365Z" transform="translate(-6.241 -3.816)" fill="#cacaca"/>
        <path id="Path_26" data-name="Path 26" d="M32.183,8a4.183,4.183,0,1,0,4.183,4.183A4.183,4.183,0,0,0,32.183,8Zm0,6.693a2.51,2.51,0,1,1,2.51-2.51A2.51,2.51,0,0,1,32.183,14.693Z" transform="translate(-7.084 -3.817)" fill="#0064d8"/>
        <path id="Path_27" data-name="Path 27" d="M28.27,14.63a4.192,4.192,0,0,0,3.957,2.819,4.111,4.111,0,0,0,1.288-.2A10.763,10.763,0,0,1,28.27,14.63Z" transform="translate(-7.128 -4.9)" fill="#ffb700"/>
        <path id="Path_28" data-name="Path 28" d="M28.27,14.63a4.192,4.192,0,0,0,3.957,2.819,4.111,4.111,0,0,0,1.288-.2A10.763,10.763,0,0,1,28.27,14.63Z" transform="translate(-7.128 -4.9)" fill="#0354b1"/>
        <path id="Path_29" data-name="Path 29" d="M17.725,15.693a5.074,5.074,0,0,0-.084-.915l1.7-.982-1.673-2.9-1.7.982a4.99,4.99,0,0,0-1.59-.914V9H11.032v1.965a4.99,4.99,0,0,0-1.59.914l-1.7-.982L6.072,13.8l1.7.982a4.857,4.857,0,0,0,0,1.831l-1.7.982,1.673,2.9,1.7-.982a4.99,4.99,0,0,0,1.59.914v1.965h3.347V20.421a4.99,4.99,0,0,0,1.59-.914l1.7.982,1.673-2.9-1.7-.982A5.074,5.074,0,0,0,17.725,15.693ZM12.7,17.366a1.673,1.673,0,1,1,1.673-1.673A1.673,1.673,0,0,1,12.7,17.366Z" transform="translate(-3.502 -3.98)" fill="#dfdfdf"/>
        <path id="Path_30" data-name="Path 30" d="M19.272,17.921a8.115,8.115,0,0,1-3.221.653,8.232,8.232,0,0,1-3.731-.887,1.6,1.6,0,0,1-.795-.443.008.008,0,0,1-.008-.008A8.305,8.305,0,0,1,7.76,11.278l-.017-.008L6.07,14.165l1.7.987a5.012,5.012,0,0,0,0,1.824l-1.7.987,1.673,2.895,1.7-.979a5.177,5.177,0,0,0,1.59.912v1.966h3.347V20.791a5.177,5.177,0,0,0,1.59-.912l1.7.979,1.673-2.895Z" transform="translate(-3.502 -4.351)" fill="#cacaca"/>
        <path id="Path_31" data-name="Path 31" d="M13.347,13a3.347,3.347,0,1,0,3.347,3.347A3.347,3.347,0,0,0,13.347,13Zm0,5.02a1.673,1.673,0,1,1,1.673-1.673A1.673,1.673,0,0,1,13.347,18.02Z" transform="translate(-4.144 -4.634)" fill="#0064d8"/>
        <path id="Path_32" data-name="Path 32" d="M12.962,18.479a1.6,1.6,0,0,1-.795-.443l-.008-.008a8.343,8.343,0,0,1-2.075-1.908,3.057,3.057,0,0,0-.084.736A3.347,3.347,0,0,0,15.63,19.3a8,8,0,0,1-2.669-.82Z" transform="translate(-4.144 -5.143)" fill="#0354b1"/>
        <path id="Path_33" data-name="Path 33" d="M47,8.173v5.02a1.673,1.673,0,0,0,1.673,1.673v3.347l5.02-3.347H57.04a1.673,1.673,0,0,0,1.673-1.673V8.173A1.673,1.673,0,0,0,57.04,6.5H48.673A1.673,1.673,0,0,0,47,8.173Z" transform="translate(-10.188 -3.572)" fill="#dfdfdf"/>
        <path id="Path_34" data-name="Path 34" d="M58.713,11.938v1.255a1.678,1.678,0,0,1-1.673,1.673H53.693l-5.02,3.347V14.866A1.678,1.678,0,0,1,47,13.193V8.173A1.678,1.678,0,0,1,48.673,6.5h.837V8.592a3.347,3.347,0,0,0,3.347,3.347Z" transform="translate(-10.188 -3.572)" fill="#d1d1d1"/>
      </g>
    </g>
    <g id="Group_80" data-name="Group 80" transform="translate(850.477 602.09)">
      <path id="Polygon_1" data-name="Polygon 1" d="M5.821,1.592a1,1,0,0,1,1.752,0L8.934,4.065a1,1,0,0,0,.394.394L11.8,5.821a1,1,0,0,1,0,1.752L9.328,8.934a1,1,0,0,0-.394.394L7.573,11.8a1,1,0,0,1-1.752,0L4.459,9.328a1,1,0,0,0-.394-.394L1.592,7.573a1,1,0,0,1,0-1.752L4.065,4.459a1,1,0,0,0,.394-.394Z" fill="#ffd73b"/>
      <path id="Polygon_2" data-name="Polygon 2" d="M2.58,1.592a1,1,0,0,1,1.752,0l.211.384a1,1,0,0,0,.394.394l.384.211a1,1,0,0,1,0,1.752l-.384.211a1,1,0,0,0-.394.394l-.211.384a1,1,0,0,1-1.752,0l-.211-.384a1,1,0,0,0-.394-.394l-.384-.211a1,1,0,0,1,0-1.752l.384-.211a1,1,0,0,0,.394-.394Z" transform="translate(3.456 3.456)" fill="#ebbb00"/>
    </g>
    <g id="Group_81" data-name="Group 81" transform="translate(790.486 636.499)">
      <path id="Polygon_1-2" data-name="Polygon 1" d="M2.565,1.592a1,1,0,0,1,1.752,0l.206.373a1,1,0,0,0,.394.394l.373.206a1,1,0,0,1,0,1.752l-.373.206a1,1,0,0,0-.394.394l-.206.373a1,1,0,0,1-1.752,0l-.206-.373a1,1,0,0,0-.394-.394l-.373-.206a1,1,0,0,1,0-1.752l.373-.206a1,1,0,0,0,.394-.394Z" fill="#ffd73b"/>
      <path id="Polygon_2-2" data-name="Polygon 2" d="M1.232.988a.621.621,0,0,1,1.087,0h0a.621.621,0,0,0,.244.244h0a.621.621,0,0,1,0,1.087h0a.621.621,0,0,0-.244.244h0a.621.621,0,0,1-1.087,0h0A.621.621,0,0,0,.988,2.32h0a.621.621,0,0,1,0-1.087h0A.621.621,0,0,0,1.232.988Z" transform="translate(1.776 1.776)" fill="#ebbb00"/>
    </g>
    <g id="Group_82" data-name="Group 82" transform="translate(819.232 577.847)">
      <path id="Polygon_1-3" data-name="Polygon 1" d="M2.565,1.592a1,1,0,0,1,1.752,0l.206.373a1,1,0,0,0,.394.394l.373.206a1,1,0,0,1,0,1.752l-.373.206a1,1,0,0,0-.394.394l-.206.373a1,1,0,0,1-1.752,0l-.206-.373a1,1,0,0,0-.394-.394l-.373-.206a1,1,0,0,1,0-1.752l.373-.206a1,1,0,0,0,.394-.394Z" fill="#ffd73b"/>
      <path id="Polygon_2-3" data-name="Polygon 2" d="M1.232.988a.621.621,0,0,1,1.087,0h0a.621.621,0,0,0,.244.244h0a.621.621,0,0,1,0,1.087h0a.621.621,0,0,0-.244.244h0a.621.621,0,0,1-1.087,0h0A.621.621,0,0,0,.988,2.32h0a.621.621,0,0,1,0-1.087h0A.621.621,0,0,0,1.232.988Z" transform="translate(1.776 1.776)" fill="#ebbb00"/>
    </g>
  </g>
</svg>
