<svg xmlns="http://www.w3.org/2000/svg" xmlns:xlink="http://www.w3.org/1999/xlink" width="80.384" height="84.569" viewBox="0 0 80.384 84.569">
  <defs>
    <linearGradient id="linear-gradient" x1="0.5" x2="0.5" y2="1" gradientUnits="objectBoundingBox">
      <stop offset="0" stop-color="#fff"/>
      <stop offset="1" stop-color="#0064d8"/>
    </linearGradient>
    <linearGradient id="linear-gradient-2" x1="0.5" x2="0.5" y2="1" gradientUnits="objectBoundingBox">
      <stop offset="0" stop-color="#0064d8"/>
      <stop offset="1" stop-color="#1c2848"/>
    </linearGradient>
    <linearGradient id="linear-gradient-3" x1="0.5" x2="0.5" y2="1" gradientUnits="objectBoundingBox">
      <stop offset="0" stop-color="#0064d8"/>
      <stop offset="1" stop-color="#5ea8ff"/>
    </linearGradient>
  </defs>
  <g id="protection" transform="translate(-397.951 -352.665)">
    <g id="Group_80" data-name="Group 80" transform="translate(464.942 386.908)">
      <path id="Polygon_1" data-name="Polygon 1" d="M5.821,1.592a1,1,0,0,1,1.752,0L8.934,4.065a1,1,0,0,0,.394.394L11.8,5.821a1,1,0,0,1,0,1.752L9.328,8.934a1,1,0,0,0-.394.394L7.573,11.8a1,1,0,0,1-1.752,0L4.459,9.328a1,1,0,0,0-.394-.394L1.592,7.573a1,1,0,0,1,0-1.752L4.065,4.459a1,1,0,0,0,.394-.394Z" fill="#ffd73b"/>
      <path id="Polygon_2" data-name="Polygon 2" d="M2.58,1.592a1,1,0,0,1,1.752,0l.211.384a1,1,0,0,0,.394.394l.384.211a1,1,0,0,1,0,1.752l-.384.211a1,1,0,0,0-.394.394l-.211.384a1,1,0,0,1-1.752,0l-.211-.384a1,1,0,0,0-.394-.394l-.384-.211a1,1,0,0,1,0-1.752l.384-.211a1,1,0,0,0,.394-.394Z" transform="translate(3.456 3.456)" fill="#ebbb00"/>
    </g>
    <g id="Group_81" data-name="Group 81" transform="translate(397.951 424.317)">
      <path id="Polygon_1-2" data-name="Polygon 1" d="M2.565,1.592a1,1,0,0,1,1.752,0l.206.373a1,1,0,0,0,.394.394l.373.206a1,1,0,0,1,0,1.752l-.373.206a1,1,0,0,0-.394.394l-.206.373a1,1,0,0,1-1.752,0l-.206-.373a1,1,0,0,0-.394-.394l-.373-.206a1,1,0,0,1,0-1.752l.373-.206a1,1,0,0,0,.394-.394Z" transform="translate(0)" fill="#ffd73b"/>
      <path id="Polygon_2-2" data-name="Polygon 2" d="M1.232.988a.621.621,0,0,1,1.087,0h0a.621.621,0,0,0,.244.244h0a.621.621,0,0,1,0,1.087h0a.621.621,0,0,0-.244.244h0a.621.621,0,0,1-1.087,0h0A.621.621,0,0,0,.988,2.32h0a.621.621,0,0,1,0-1.087h0A.621.621,0,0,0,1.232.988Z" transform="translate(1.776 1.776)" fill="#ebbb00"/>
    </g>
    <g id="Group_82" data-name="Group 82" transform="translate(431.697 352.665)">
      <path id="Polygon_1-3" data-name="Polygon 1" d="M2.565,1.592a1,1,0,0,1,1.752,0l.206.373a1,1,0,0,0,.394.394l.373.206a1,1,0,0,1,0,1.752l-.373.206a1,1,0,0,0-.394.394l-.206.373a1,1,0,0,1-1.752,0l-.206-.373a1,1,0,0,0-.394-.394l-.373-.206a1,1,0,0,1,0-1.752l.373-.206a1,1,0,0,0,.394-.394Z" transform="translate(0 0)" fill="#ffd73b"/>
      <path id="Polygon_2-3" data-name="Polygon 2" d="M1.232.988a.621.621,0,0,1,1.087,0h0a.621.621,0,0,0,.244.244h0a.621.621,0,0,1,0,1.087h0a.621.621,0,0,0-.244.244h0a.621.621,0,0,1-1.087,0h0A.621.621,0,0,0,.988,2.32h0a.621.621,0,0,1,0-1.087h0A.621.621,0,0,0,1.232.988Z" transform="translate(1.776 1.776)" fill="#ebbb00"/>
    </g>
    <path id="Path_28446" data-name="Path 28446" d="M40.356,0l22.16,48.52S50.138,57.876,40.574,61.376,24.26,62.516,24.26,62.516L0,0Z" transform="matrix(0.998, 0.07, -0.07, 0.998, 406.97, 369.734)" opacity="0.1" fill="url(#linear-gradient)"/>
    <g id="browser" transform="translate(400.198 364)">
      <path id="Path_28447" data-name="Path 28447" d="M49.311,50.361H95.467a3.147,3.147,0,0,1,3.147,3.147V99.664a3.147,3.147,0,0,1-3.147,3.147H49.311a3.147,3.147,0,0,1-3.147-3.147V53.508A3.147,3.147,0,0,1,49.311,50.361Z" transform="translate(-36.722 -44.067)" fill="url(#linear-gradient-2)"/>
      <path id="Path_28448" data-name="Path 28448" d="M49.311,50.361H95.467a3.147,3.147,0,0,1,3.147,3.147v5.245H46.164V53.508A3.147,3.147,0,0,1,49.311,50.361Z" transform="translate(-36.722 -44.067)" fill="url(#linear-gradient-3)"/>
      <rect id="Rectangle_1059" data-name="Rectangle 1059" width="2.098" height="2.098" transform="translate(12.589 9.441)" fill="#da4836"/>
      <rect id="Rectangle_1060" data-name="Rectangle 1060" width="2.098" height="2.098" transform="translate(16.785 9.441)" fill="#f8cf26"/>
      <rect id="Rectangle_1061" data-name="Rectangle 1061" width="2.098" height="2.098" transform="translate(20.981 9.441)" fill="#3dbf50"/>
      <circle id="Ellipse_3009" data-name="Ellipse 3009" cx="14.686" cy="14.686" r="14.686" transform="translate(36.716 0)" fill="#ffd73b"/>
      <circle id="Ellipse_3010" data-name="Ellipse 3010" cx="4.196" cy="4.196" r="4.196" transform="translate(47.207 5.245)" fill="#0064d8"/>
      <g id="Group_7568" data-name="Group 7568" transform="translate(13.638 18.882)">
        <rect id="Rectangle_1062" data-name="Rectangle 1062" width="17.833" height="2.098" transform="translate(22.029 33.568)" fill="#fff"/>
        <rect id="Rectangle_1063" data-name="Rectangle 1063" width="22.029" height="2.098" transform="translate(22.029 29.372)" fill="#fff"/>
        <rect id="Rectangle_1064" data-name="Rectangle 1064" width="22.029" height="2.098" transform="translate(22.029 25.176)" fill="#fff"/>
        <rect id="Rectangle_1065" data-name="Rectangle 1065" width="22.029" height="2.098" transform="translate(22.029 20.98)" fill="#fff"/>
        <rect id="Rectangle_1066" data-name="Rectangle 1066" width="15.735" height="2.098" transform="translate(28.323 16.784)" fill="#fff"/>
        <rect id="Rectangle_1067" data-name="Rectangle 1067" width="2.098" height="2.098" transform="translate(24.127 16.784)" fill="#fff"/>
        <rect id="Rectangle_1068" data-name="Rectangle 1068" width="2.098" height="2.098" fill="#fff"/>
        <rect id="Rectangle_1069" data-name="Rectangle 1069" width="14.686" height="2.098" transform="translate(4.196)" fill="#fff"/>
        <rect id="Rectangle_1070" data-name="Rectangle 1070" width="18.882" height="2.098" transform="translate(0 4.196)" fill="#fff"/>
      </g>
      <g id="Group_7569" data-name="Group 7569" transform="translate(4.197 8.392)">
        <path id="Path_28449" data-name="Path 28449" d="M353.571,431.211H339.934v-2.1h13.637a5.251,5.251,0,0,0,5.245-5.245v-4.2h2.1v4.2A7.351,7.351,0,0,1,353.571,431.211Z" transform="translate(-297.974 -375.614)" fill="#b3b3b3"/>
        <rect id="Rectangle_1071" data-name="Rectangle 1071" width="2.098" height="2.098" transform="translate(37.764 53.5)" fill="#b3b3b3"/>
        <rect id="Rectangle_1072" data-name="Rectangle 1072" width="2.098" height="2.098" transform="translate(0)" fill="#b3b3b3"/>
        <rect id="Rectangle_1073" data-name="Rectangle 1073" width="2.098" height="19.931" transform="translate(0 4.196)" fill="#b3b3b3"/>
      </g>
      <path id="Path_28450" data-name="Path 28450" d="M117.505,245.506h-2.1v-4.2a4.2,4.2,0,0,0-8.392,0v4.2h-2.1v-4.2a6.294,6.294,0,0,1,12.588,0Z" transform="translate(-88.132 -205.644)" fill="#0064d8"/>
      <path id="Path_28455" data-name="Path 28455" d="M0,0H16.784V14.686H0Z" transform="translate(14.687 38.813)" fill="#ebbb00"/>
      <path id="Path_28451" data-name="Path 28451" d="M136.392,338.8a3.147,3.147,0,1,0-4.2,2.955v2.29h2.1v-2.291A3.147,3.147,0,0,0,136.392,338.8Zm-3.147,1.049a1.049,1.049,0,1,1,1.049-1.049A1.049,1.049,0,0,1,133.245,339.845Z" transform="translate(-110.166 -293.689)" fill="#0064d8"/>
      <path id="Path_28452" data-name="Path 28452" d="M326.293,109.115H320a5.246,5.246,0,0,0-5.245,5.245v7.847a14.643,14.643,0,0,0,16.784,0V114.36A5.246,5.246,0,0,0,326.293,109.115Z" transform="translate(-271.744 -95.478)" fill="#0064d8"/>
    </g>
  </g>
</svg>
