<svg xmlns="http://www.w3.org/2000/svg" xmlns:xlink="http://www.w3.org/1999/xlink" width="77.382" height="78.569" viewBox="0 0 77.382 78.569">
  <defs>
    <linearGradient id="linear-gradient" x1="0.5" x2="0.5" y2="1" gradientUnits="objectBoundingBox">
      <stop offset="0" stop-color="#fff"/>
      <stop offset="1" stop-color="#0064d8"/>
    </linearGradient>
    <linearGradient id="linear-gradient-2" x1="0.5" x2="0.5" y2="1" gradientUnits="objectBoundingBox">
      <stop offset="0" stop-color="#0064d8"/>
      <stop offset="1" stop-color="#1c2848"/>
    </linearGradient>
  </defs>
  <g id="best-price" transform="translate(-400.951 -360.665)">
    <path id="Path_28390" data-name="Path 28390" d="M40.356,0l22.16,48.52S50.138,57.876,40.574,61.376,24.26,62.516,24.26,62.516L0,0Z" transform="matrix(0.998, 0.07, -0.07, 0.998, 415.97, 371.734)" opacity="0.1" fill="url(#linear-gradient)"/>
    <g id="Group_80" data-name="Group 80" transform="translate(462.338 380.962)">
      <path id="Polygon_1" data-name="Polygon 1" d="M7.11,1.592a1,1,0,0,1,1.752,0L10.682,4.9a1,1,0,0,0,.394.394L14.381,7.11a1,1,0,0,1,0,1.752l-3.305,1.819a1,1,0,0,0-.394.394L8.862,14.381a1,1,0,0,1-1.752,0L5.291,11.076a1,1,0,0,0-.394-.394L1.592,8.862a1,1,0,0,1,0-1.752L4.9,5.291A1,1,0,0,0,5.291,4.9Z" fill="#ffd73b"/>
      <path id="Polygon_2" data-name="Polygon 2" d="M3.246,1.592A1,1,0,0,1,5,1.592l.447.813a1,1,0,0,0,.394.394l.813.447A1,1,0,0,1,6.652,5l-.813.447a1,1,0,0,0-.394.394L5,6.652a1,1,0,0,1-1.752,0L2.8,5.839A1,1,0,0,0,2.4,5.445L1.592,5a1,1,0,0,1,0-1.752L2.4,2.8A1,1,0,0,0,2.8,2.4Z" transform="translate(4.122 4.122)" fill="#ebbb00"/>
    </g>
    <g id="Group_81" data-name="Group 81" transform="translate(400.951 427.034)">
      <path id="Polygon_1-2" data-name="Polygon 1" d="M3.227,1.592a1,1,0,0,1,1.752,0l.441.8a1,1,0,0,0,.394.394l.8.441a1,1,0,0,1,0,1.752l-.8.441a1,1,0,0,0-.394.394l-.441.8a1,1,0,0,1-1.752,0l-.441-.8a1,1,0,0,0-.394-.394l-.8-.441a1,1,0,0,1,0-1.752l.8-.441a1,1,0,0,0,.394-.394Z" transform="translate(0)" fill="#ffd73b"/>
      <path id="Polygon_2-2" data-name="Polygon 2" d="M1.469,1.178a.74.74,0,0,1,1.3,0h0a.74.74,0,0,0,.292.292h0a.74.74,0,0,1,0,1.3h0a.74.74,0,0,0-.292.292h0a.74.74,0,0,1-1.3,0h0a.74.74,0,0,0-.292-.292h0a.74.74,0,0,1,0-1.3h0a.74.74,0,0,0,.292-.292Z" transform="translate(2.118 2.118)" fill="#ebbb00"/>
    </g>
    <g id="Group_82" data-name="Group 82" transform="translate(437.618 360.665)">
      <path id="Polygon_1-3" data-name="Polygon 1" d="M3.227,1.592a1,1,0,0,1,1.752,0l.441.8a1,1,0,0,0,.394.394l.8.441a1,1,0,0,1,0,1.752l-.8.441a1,1,0,0,0-.394.394l-.441.8a1,1,0,0,1-1.752,0l-.441-.8a1,1,0,0,0-.394-.394l-.8-.441a1,1,0,0,1,0-1.752l.8-.441a1,1,0,0,0,.394-.394Z" transform="translate(0 0)" fill="#ffd73b"/>
      <path id="Polygon_2-3" data-name="Polygon 2" d="M1.469,1.178a.74.74,0,0,1,1.3,0h0a.74.74,0,0,0,.292.292h0a.74.74,0,0,1,0,1.3h0a.74.74,0,0,0-.292.292h0a.74.74,0,0,1-1.3,0h0a.74.74,0,0,0-.292-.292h0a.74.74,0,0,1,0-1.3h0a.74.74,0,0,0,.292-.292Z" transform="translate(2.118 2.118)" fill="#ebbb00"/>
    </g>
    <g id="project-management" transform="translate(409 372)">
      <path id="Path_28372" data-name="Path 28372" d="M72,0h40.118A3.086,3.086,0,0,1,115.2,3.086V51.434H72Zm0,0" transform="translate(-62.742)" fill="#303e64"/>
      <path id="Path_28373" data-name="Path 28373" d="M40,32H83.2V83.434H40Zm0,0" transform="translate(-34.857 -27.885)" fill="url(#linear-gradient-2)"/>
      <path id="Path_28374" data-name="Path 28374" d="M232.917,226.729v-4.541l-3.806-.951a12.957,12.957,0,0,0-1.429-3.444l2.02-3.367-3.211-3.211-3.367,2.02a13.227,13.227,0,0,0-1.558-.792,12.918,12.918,0,0,0-1.887-.636L218.729,208h-4.541l-.951,3.806a12.958,12.958,0,0,0-3.444,1.429l-3.367-2.02-3.211,3.211,2.02,3.367a12.958,12.958,0,0,0-1.43,3.444l-3.806.951v4.541l3.806.951a12.958,12.958,0,0,0,1.43,3.444l-2.02,3.367,3.211,3.211,3.367-2.02a12.959,12.959,0,0,0,3.444,1.43l.951,3.806h4.541l.951-3.806a12.959,12.959,0,0,0,3.444-1.43l3.367,2.02,3.211-3.211-2.02-3.367a12.956,12.956,0,0,0,1.429-3.444Zm-16.459,4.93a7.2,7.2,0,1,1,7.2-7.2A7.2,7.2,0,0,1,216.459,231.659Zm0,0" transform="translate(-174.283 -181.254)" fill="#ffd73b" stroke="#ffd73b" stroke-width="1"/>
      <path id="Path_28375" data-name="Path 28375" d="M328,32v2.057a3.086,3.086,0,1,0,6.172,0V32Zm0,0" transform="translate(-285.824 -27.885)" fill="#253256"/>
      <path id="Path_28376" data-name="Path 28376" d="M52.233,0a3.086,3.086,0,0,0-3.086,3.086V6.172a3.086,3.086,0,0,0,3.086,3.086H11.086A3.086,3.086,0,0,1,8,6.172V3.086A3.086,3.086,0,0,1,11.086,0Zm0,0" transform="translate(-6.971)" fill="#1c2848"/>
      <path id="Path_28377" data-name="Path 28377" d="M10.057,360h15.43l4.115,2.057-4.115,2.057H10.057a2.057,2.057,0,1,1,0-4.115Zm0,0" transform="translate(-6.971 -313.71)" fill="#cacaca"/>
      <path id="Path_28378" data-name="Path 28378" d="M0,112H2.057v20.574H0Zm0,0" transform="translate(0 -97.599)" fill="#0064d8"/>
      <path id="Path_28379" data-name="Path 28379" d="M86.707,112a10.253,10.253,0,0,0-7.274,3.013l7.274,7.274H96.994A10.287,10.287,0,0,0,86.707,112Zm0,0" transform="translate(-69.22 -97.598)" fill="#cacaca"/>
      <g id="Group_7560" data-name="Group 7560" transform="translate(9.258 13.373)">
        <path id="Path_28380" data-name="Path 28380" d="M88,224h2.057v2.057H88Zm0,0" transform="translate(-85.943 -208.57)" fill="#fff"/>
        <path id="Path_28381" data-name="Path 28381" d="M120,224h10.287v2.057H120Zm0,0" transform="translate(-113.828 -208.57)" fill="#fff"/>
        <path id="Path_28382" data-name="Path 28382" d="M72,256H88.459v2.057H72Zm0,0" transform="translate(-72 -236.455)" fill="#fff"/>
        <path id="Path_28383" data-name="Path 28383" d="M248,136h2.057v2.057H248Zm0,0" transform="translate(-225.369 -131.885)" fill="#fff"/>
        <path id="Path_28384" data-name="Path 28384" d="M72,288H85.373v2.057H72Zm0,0" transform="translate(-72 -264.34)" fill="#fff"/>
        <path id="Path_28385" data-name="Path 28385" d="M155.8,111.928l-1.455-1.455,6.172-6.172a1.029,1.029,0,0,1,.727-.3h13.373v2.057H161.669Zm0,0" transform="translate(-143.755 -104)" fill="#fff"/>
        <path id="Path_28386" data-name="Path 28386" d="M328,104h2.057v2.057H328Zm0,0" transform="translate(-295.082 -104)" fill="#fff"/>
        <path id="Path_28387" data-name="Path 28387" d="M280,136h8.229v2.057H280Zm0,0" transform="translate(-253.254 -131.885)" fill="#fff"/>
        <path id="Path_28388" data-name="Path 28388" d="M248,168h12.344v2.057H248Zm0,0" transform="translate(-225.369 -159.771)" fill="#fff"/>
      </g>
      <path id="Path_28389" data-name="Path 28389" d="M134.172,362.057,130.057,360H128v4.115h2.057Zm0,0" transform="translate(-111.541 -313.71)" fill="#0064d8"/>
    </g>
  </g>
</svg>
