<svg xmlns="http://www.w3.org/2000/svg" width="99.818" height="67.752" viewBox="0 0 99.818 67.752">
  <g id="pm-white" transform="translate(-783.574 -581.074)">
    <g id="Flat" transform="translate(798 587)">
      <g id="Color_copy" data-name="Color copy">
        <path id="Path_1" data-name="Path 1" d="M48,23A10,10,0,0,1,58,33v8a4,4,0,0,1-4,4H42a4,4,0,0,1-4-4V33A10,10,0,0,1,48,23Z" fill="#656b76"/>
        <path id="Path_2" data-name="Path 2" d="M56,35V32.121A3.124,3.124,0,0,0,52.864,29h-.076a6.729,6.729,0,0,1-4.761-1.973l-1.153-1.152A2.98,2.98,0,0,1,46,23.754v-.046a3.119,3.119,0,0,1,.047-.514A10,10,0,0,0,38,33v8a4,4,0,0,0,4,4H54a4,4,0,0,0,4-4V38.977A4.974,4.974,0,0,1,56,35Z" fill="#464a51"/>
        <path id="Path_3" data-name="Path 3" d="M43,43H53a4,4,0,0,1,4,4V57H39V47A4,4,0,0,1,43,43Z" fill="#fff"/>
        <path id="Path_4" data-name="Path 4" d="M52,52a8,8,0,0,1-8-8v-.349A5.912,5.912,0,0,0,49.291,43H43a4,4,0,0,0-4,4V57H57V52Z" fill="#fff"/>
        <path id="Path_5" data-name="Path 5" d="M45,40h6v3a3,3,0,0,1-6,0Z" fill="#ffd8b6"/>
        <path id="Path_6" data-name="Path 6" d="M39,51v2H35a2,2,0,0,0,0,4h8V51Z" fill="#ffd8b6"/>
        <path id="Path_7" data-name="Path 7" d="M53,51v2H49a2,2,0,0,0,0,4h8V51Z" fill="#ffd8b6"/>
        <path id="Path_8" data-name="Path 8" d="M50,45a2.988,2.988,0,0,1-2.4-1.221A6,6,0,0,0,51,41.3V40H45v3a2.989,2.989,0,0,0,5.242,1.976C50.16,44.982,50.083,45,50,45Z" fill="#ffd8b6"/>
        <path id="Path_9" data-name="Path 9" d="M53,49v4H52V50A1,1,0,0,1,53,49Z" fill="#fff"/>
        <path id="Path_10" data-name="Path 10" d="M55,53V51H53v2a2,2,0,0,1-2,2H47a2,2,0,0,0,2,2h8V55A2,2,0,0,1,55,53Z" fill="#ffd8b6"/>
        <path id="Path_11" data-name="Path 11" d="M43,51H39v2a2,2,0,0,1-2,2H33a2,2,0,0,0,2,2h8Z" fill="#ffd8b6"/>
        <path id="Path_12" data-name="Path 12" d="M48,42a6,6,0,0,1-6-6V31a4.162,4.162,0,0,0,3.949-2.847L46,28a10.242,10.242,0,0,0,7.243,3H54v5A6,6,0,0,1,48,42Z" fill="#ffd8b6"/>
        <path id="Path_13" data-name="Path 13" d="M53.243,31A10.242,10.242,0,0,1,46,28l-.051.154A4.162,4.162,0,0,1,42,31v5a6,6,0,0,0,11.117,3.121A5.993,5.993,0,0,1,44,34V32.479a4.157,4.157,0,0,0,1.949-2.325L46,30a10.242,10.242,0,0,0,7.243,3H54V31Z" fill="#ffd8b6"/>
        <circle id="Ellipse_1" data-name="Ellipse 1" cx="1" cy="1" r="1" transform="translate(45 33)" fill="#464a51"/>
        <circle id="Ellipse_2" data-name="Ellipse 2" cx="1" cy="1" r="1" transform="translate(49 33)" fill="#464a51"/>
        <path id="Path_14" data-name="Path 14" d="M3,57H61v4H3Z" fill="#cacaca"/>
        <path id="Path_15" data-name="Path 15" d="M8,57H3v4H61V59H10A2,2,0,0,1,8,57Z" fill="#fff"/>
        <rect id="Rectangle_1" data-name="Rectangle 1" width="28" height="20" rx="3" transform="translate(5 29)" fill="#fff"/>
        <path id="Path_16" data-name="Path 16" d="M31,53a2,2,0,0,1,2,2v2H29V55A2,2,0,0,1,31,53Z" fill="#e9f1f2"/>
        <path id="Path_17" data-name="Path 17" d="M33,45v1a3,3,0,0,1-3,3H8a3,3,0,0,1-3-3V32a3,3,0,0,1,3-3H9v6a9.989,9.989,0,0,0,4.11,8.08A4,4,0,0,1,17,40h2a2.006,2.006,0,0,1,2,2v3Z" fill="#dfdfdf"/>
        <path id="Path_18" data-name="Path 18" d="M19,40a4,4,0,0,1,4,4V55H15V44A4,4,0,0,1,19,40Z" fill="#e9f1f2"/>
        <path id="Path_19" data-name="Path 19" d="M23,50.91V55H15V44a3.992,3.992,0,0,1,3-3.87V45A5.99,5.99,0,0,0,23,50.91Z" fill="#cacaca"/>
        <path id="Path_20" data-name="Path 20" d="M11,53H27a2,2,0,0,1,2,2v2H9V55A2,2,0,0,1,11,53Z" fill="#cacaca"/>
        <path id="Path_21" data-name="Path 21" d="M29,55v2H9V55a2.006,2.006,0,0,1,2-2h.18A2.968,2.968,0,0,0,14,55Z" fill="#fff"/>
        <path id="Path_22" data-name="Path 22" d="M33,32V42a2.006,2.006,0,0,1-2-2V33a2.006,2.006,0,0,0-2-2H18a2.015,2.015,0,0,1-2-2H30A3,3,0,0,1,33,32Z" fill="#e9f1f2"/>
        <path id="Path_23" data-name="Path 23" d="M24,36H14a1,1,0,0,1,0-2H24a1,1,0,0,1,0,2Z" fill="#dfdfdf"/>
        <path id="Path_24" data-name="Path 24" d="M41,13a6.832,6.832,0,0,0-.09-1.11l2.25-1.29-3-5.2L37.92,6.7A7.814,7.814,0,0,0,36,5.59V3H30V5.59A7.814,7.814,0,0,0,28.08,6.7L25.84,5.4l-3,5.2,2.25,1.29a6.89,6.89,0,0,0,0,2.22L22.84,15.4l3,5.2,2.24-1.3A7.814,7.814,0,0,0,30,20.41V23h6V20.41a7.814,7.814,0,0,0,1.92-1.11l2.24,1.3,3-5.2-2.25-1.29A6.832,6.832,0,0,0,41,13Zm-8,3a3,3,0,1,1,3-3A3,3,0,0,1,33,16Z" fill="#fff"/>
        <path id="Path_25" data-name="Path 25" d="M37,18A13,13,0,0,1,24.35,7.991L22.84,10.6l2.25,1.29a6.89,6.89,0,0,0,0,2.22L22.84,15.4l3,5.2,2.24-1.3A7.814,7.814,0,0,0,30,20.41V23h6V20.41a7.814,7.814,0,0,0,1.92-1.11l2.24,1.3,2.15-3.73A13.059,13.059,0,0,1,37,18Z" fill="#cacaca"/>
        <path id="Path_26" data-name="Path 26" d="M33,8a5,5,0,1,0,5,5,5,5,0,0,0-5-5Zm0,8a3,3,0,1,1,3-3A3,3,0,0,1,33,16Z" fill="#0064d8"/>
        <path id="Path_27" data-name="Path 27" d="M28.27,14.63A5.01,5.01,0,0,0,33,18a4.914,4.914,0,0,0,1.54-.24,12.865,12.865,0,0,1-6.27-3.13Z" fill="#ffb700"/>
        <path id="Path_28" data-name="Path 28" d="M28.27,14.63A5.01,5.01,0,0,0,33,18a4.914,4.914,0,0,0,1.54-.24,12.865,12.865,0,0,1-6.27-3.13Z" fill="#0354b1"/>
        <path id="Path_29" data-name="Path 29" d="M20,17a6.065,6.065,0,0,0-.1-1.094l2.032-1.174-2-3.464L17.9,12.442A5.965,5.965,0,0,0,16,11.349V9H12v2.349a5.965,5.965,0,0,0-1.9,1.093L8.072,11.268l-2,3.464L8.1,15.906a5.806,5.806,0,0,0,0,2.188L6.072,19.268l2,3.464L10.1,21.558A5.965,5.965,0,0,0,12,22.651V25h4V22.651a5.965,5.965,0,0,0,1.9-1.093l2.033,1.174,2-3.464L19.9,18.094A6.065,6.065,0,0,0,20,17Zm-6,2a2,2,0,1,1,2-2A2,2,0,0,1,14,19Z" fill="#fff"/>
        <path id="Path_30" data-name="Path 30" d="M21.85,19.22A9.7,9.7,0,0,1,18,20a9.839,9.839,0,0,1-4.46-1.06,1.911,1.911,0,0,1-.95-.53.01.01,0,0,1-.01-.01,9.927,9.927,0,0,1-4.49-7.12l-.02-.01-2,3.46L8.1,15.91a5.991,5.991,0,0,0,0,2.18L6.07,19.27l2,3.46,2.03-1.17A6.188,6.188,0,0,0,12,22.65V25h4V22.65a6.188,6.188,0,0,0,1.9-1.09l2.03,1.17,2-3.46Z" fill="#cacaca"/>
        <path id="Path_31" data-name="Path 31" d="M14,13a4,4,0,1,0,4,4A4,4,0,0,0,14,13Zm0,6a2,2,0,1,1,2-2,2,2,0,0,1-2,2Z" fill="#0064d8"/>
        <path id="Path_32" data-name="Path 32" d="M13.54,18.94a1.911,1.911,0,0,1-.95-.53l-.01-.01a9.972,9.972,0,0,1-2.48-2.28A3.654,3.654,0,0,0,10,17a4,4,0,0,0,6.73,2.92,9.564,9.564,0,0,1-3.19-.98Z" fill="#0354b1"/>
        <path id="Path_33" data-name="Path 33" d="M47,8.5v6a2,2,0,0,0,2,2v4l6-4h4a2,2,0,0,0,2-2v-6a2,2,0,0,0-2-2H49A2,2,0,0,0,47,8.5Z" fill="#fff"/>
        <path id="Path_34" data-name="Path 34" d="M61,13v1.5a2.006,2.006,0,0,1-2,2H55l-6,4v-4a2.006,2.006,0,0,1-2-2v-6a2.006,2.006,0,0,1,2-2h1V9a4,4,0,0,0,4,4Z" fill="#fff"/>
      </g>
    </g>
    <g id="Group_85" data-name="Group 85" transform="translate(861.5 605)">
      <path id="Polygon_1" data-name="Polygon 1" d="M10.607,1.592a1,1,0,0,1,1.752,0L15.42,7.153a1,1,0,0,0,.394.394l5.561,3.061a1,1,0,0,1,0,1.752l-5.561,3.06a1,1,0,0,0-.394.394l-3.061,5.561a1,1,0,0,1-1.752,0l-3.06-5.561a1,1,0,0,0-.394-.394L1.592,12.359a1,1,0,0,1,0-1.752l5.561-3.06a1,1,0,0,0,.394-.394Z" fill="#ffd73b"/>
      <path id="Polygon_2" data-name="Polygon 2" d="M5.051,1.592a1,1,0,0,1,1.752,0L7.891,3.569a1,1,0,0,0,.394.394l1.977,1.088a1,1,0,0,1,0,1.752L8.285,7.891a1,1,0,0,0-.394.394L6.8,10.262a1,1,0,0,1-1.752,0L3.963,8.285a1,1,0,0,0-.394-.394L1.592,6.8a1,1,0,0,1,0-1.752L3.569,3.963a1,1,0,0,0,.394-.394Z" transform="translate(5.927 5.927)" fill="#ebbb00"/>
    </g>
    <g id="Group_86" data-name="Group 86" transform="translate(782.5 638.099)">
      <path id="Polygon_1-2" data-name="Polygon 1" d="M5.024,1.592a1,1,0,0,1,1.752,0l1.079,1.96a1,1,0,0,0,.394.394l1.96,1.079a1,1,0,0,1,0,1.752L8.249,7.855a1,1,0,0,0-.394.394l-1.079,1.96a1,1,0,0,1-1.752,0L3.945,8.249a1,1,0,0,0-.394-.394L1.592,6.776a1,1,0,0,1,0-1.752l1.96-1.079a1,1,0,0,0,.394-.394Z" fill="#ffd73b"/>
      <path id="Polygon_2-2" data-name="Polygon 2" d="M2.169,1.592a1,1,0,0,1,1.752,0l.065.118a1,1,0,0,0,.394.39l.118.065a1,1,0,0,1,0,1.752l-.118.065a1,1,0,0,0-.394.394L3.921,4.5a1,1,0,0,1-1.752,0L2.1,4.38a1,1,0,0,0-.394-.394l-.118-.065a1,1,0,0,1,0-1.752L1.71,2.1a1,1,0,0,0,.39-.39Z" transform="translate(3.045 3.045)" fill="#ebbb00"/>
    </g>
    <g id="Group_87" data-name="Group 87" transform="translate(800.5 580)">
      <path id="Polygon_1-3" data-name="Polygon 1" d="M5.024,1.592a1,1,0,0,1,1.752,0l1.079,1.96a1,1,0,0,0,.394.394l1.96,1.079a1,1,0,0,1,0,1.752L8.249,7.855a1,1,0,0,0-.394.394l-1.079,1.96a1,1,0,0,1-1.752,0L3.945,8.249a1,1,0,0,0-.394-.394L1.592,6.776a1,1,0,0,1,0-1.752l1.96-1.079a1,1,0,0,0,.394-.394Z" fill="#ffd73b"/>
      <path id="Polygon_2-3" data-name="Polygon 2" d="M2.169,1.592a1,1,0,0,1,1.752,0l.065.118a1,1,0,0,0,.394.39l.118.065a1,1,0,0,1,0,1.752l-.118.065a1,1,0,0,0-.394.394L3.921,4.5a1,1,0,0,1-1.752,0L2.1,4.38a1,1,0,0,0-.394-.394l-.118-.065a1,1,0,0,1,0-1.752L1.71,2.1a1,1,0,0,0,.39-.39Z" transform="translate(3.045 3.045)" fill="#ebbb00"/>
    </g>
  </g>
</svg>
