<svg xmlns="http://www.w3.org/2000/svg" xmlns:xlink="http://www.w3.org/1999/xlink" width="80.494" height="73.922" viewBox="0 0 80.494 73.922">
  <defs>
    <linearGradient id="linear-gradient" x1="0.5" x2="0.5" y2="1" gradientUnits="objectBoundingBox">
      <stop offset="0" stop-color="#fff"/>
      <stop offset="1" stop-color="#0064d8"/>
    </linearGradient>
  </defs>
  <g id="Group_3" data-name="Group 3" transform="translate(-1065.5 -365.471)">
    <path id="Path_28438" data-name="Path 28438" d="M42.9,0,66.457,51.579S53.3,61.525,43.132,65.246,25.79,66.457,25.79,66.457L0,0Z" transform="translate(1070.21 367.591) rotate(4.012)" opacity="0.1" fill="url(#linear-gradient)"/>
    <g id="Processor_security" data-name="Processor security" transform="translate(1074.77 375.038)">
      <rect id="Rectangle_3" data-name="Rectangle 3" width="23.823" height="23.823" rx="4" transform="translate(15.577 15.577)" fill="#0064d8"/>
      <path id="Path_37" data-name="Path 37" d="M41.907,40.995H25.414a3.665,3.665,0,0,1-3.665-3.665V20.836a3.627,3.627,0,0,1,.485-1.789A3.652,3.652,0,0,0,19,22.669V39.162a3.665,3.665,0,0,0,3.665,3.665H39.158a3.648,3.648,0,0,0,3.18-1.876A3.721,3.721,0,0,1,41.907,40.995Z" transform="translate(-3.423 -3.427)" fill="#0054b5"/>
      <g id="Group_1" data-name="Group 1" transform="translate(0.915 0.916)">
        <circle id="Ellipse_3" data-name="Ellipse 3" cx="1.833" cy="1.833" r="1.833" transform="translate(24.74 2.749)" fill="#ffd73b"/>
        <circle id="Ellipse_4" data-name="Ellipse 4" cx="1.833" cy="1.833" r="1.833" transform="translate(39.401 1.833)" fill="#ffd73b"/>
        <circle id="Ellipse_5" data-name="Ellipse 5" cx="1.833" cy="1.833" r="1.833" transform="translate(11.913 0)" fill="#ffd73b"/>
        <circle id="Ellipse_6" data-name="Ellipse 6" cx="1.833" cy="1.833" r="1.833" transform="translate(32.071 49.479)" fill="#ffd73b"/>
        <circle id="Ellipse_7" data-name="Ellipse 7" cx="1.833" cy="1.833" r="1.833" transform="translate(40.317 43.981)" fill="#ffd73b"/>
        <circle id="Ellipse_8" data-name="Ellipse 8" cx="1.833" cy="1.833" r="1.833" transform="translate(11.913 49.479)" fill="#ffd73b"/>
        <circle id="Ellipse_9" data-name="Ellipse 9" cx="1.833" cy="1.833" r="1.833" transform="matrix(0.963, -0.27, 0.27, 0.963, 45.396, 13.368)" fill="#ffd73b"/>
        <circle id="Ellipse_10" data-name="Ellipse 10" cx="1.833" cy="1.833" r="1.833" transform="matrix(0.963, -0.27, 0.27, 0.963, 49.071, 36.273)" fill="#ffd73b"/>
        <circle id="Ellipse_11" data-name="Ellipse 11" cx="1.833" cy="1.833" r="1.833" transform="matrix(0.963, -0.27, 0.27, 0.963, 49.065, 21.613)" fill="#ffd73b"/>
        <circle id="Ellipse_12" data-name="Ellipse 12" cx="1.833" cy="1.833" r="1.833" transform="matrix(0.27, -0.963, 0.963, 0.27, 3.243, 15.938)" fill="#ffd73b"/>
        <circle id="Ellipse_13" data-name="Ellipse 13" cx="1.833" cy="1.833" r="1.833" transform="translate(3.311 42.661) rotate(-78.049)" fill="#ffd73b"/>
        <path id="Path_38" data-name="Path 38" d="M4.76,35.665a1.833,1.833,0,0,0,1.4-3.092l-.412.344.412-.344a1.833,1.833,0,1,0-1.4,3.092Z" transform="translate(-2.999 -5.428)" fill="#ffd73b"/>
      </g>
      <rect id="Rectangle_4" data-name="Rectangle 4" width="10.995" height="10.995" rx="2" transform="translate(21.991 24.739)" fill="#ffd73b"/>
      <path id="Path_39" data-name="Path 39" d="M27.833,36.33V29A1.838,1.838,0,0,0,26,30.833v7.33A1.838,1.838,0,0,0,27.833,40h7.33A1.838,1.838,0,0,0,37,38.163h-7.33a1.838,1.838,0,0,1-1.833-1.833Z" transform="translate(-4.009 -4.261)" fill="#ebbb00"/>
      <circle id="Ellipse_14" data-name="Ellipse 14" cx="1.833" cy="1.833" r="1.833" transform="matrix(0.963, -0.27, 0.27, 0.963, 25.243, 28.038)" fill="#f1f2f2"/>
      <path id="Path_40" data-name="Path 40" d="M27,11h1.833v1.833H27Z" transform="translate(-4.093 -2.754)" fill="#fff"/>
      <path id="Path_41" data-name="Path 41" d="M53,35h1.833v1.833H53Z" transform="translate(-6.27 -4.763)" fill="#fff"/>
      <path id="Path_42" data-name="Path 42" d="M35,51h1.833v1.833H35Z" transform="translate(-4.763 -6.103)" fill="#fff"/>
      <path id="Path_43" data-name="Path 43" d="M27,54h1.833v1.833H27Z" transform="translate(-4.093 -6.354)" fill="#fff"/>
      <path id="Path_44" data-name="Path 44" d="M11,31h1.833v1.833H11Z" transform="translate(-2.754 -4.428)" fill="#fff"/>
      <path id="Path_45" data-name="Path 45" d="M35,11h1.833v1.833H35Z" transform="translate(-4.763 -2.754)" fill="#fff"/>
      <path id="Path_46" data-name="Path 46" d="M51,27h1.833v1.833H51Z" transform="translate(-6.103 -4.093)" fill="#fff"/>
      <path id="Path_47" data-name="Path 47" d="M46,17h1.833v1.833H46Z" transform="translate(-5.684 -3.256)" fill="#fff"/>
      <path id="Path_48" data-name="Path 48" d="M16,17h1.833v1.833H16Z" transform="translate(-3.172 -3.256)" fill="#fff"/>
      <path id="Path_49" data-name="Path 49" d="M46,45h1.833v1.833H46Z" transform="translate(-5.684 -5.6)" fill="#fff"/>
      <path id="Path_50" data-name="Path 50" d="M16,45h1.833v1.833H16Z" transform="translate(-3.172 -5.6)" fill="#fff"/>
      <path id="Path_51" data-name="Path 51" d="M31.639,31a2.743,2.743,0,0,0-.808,5.335v2h1.833v-2A2.742,2.742,0,0,0,31.639,31Zm1.024,2.713a.917.917,0,1,1-.953-.881h.037a.916.916,0,0,1,.916.88Z" transform="translate(-4.259 -4.428)" fill="#1c2848"/>
      <path id="Path_52" data-name="Path 52" d="M36,27.666V26.581a4.581,4.581,0,1,0-9.163,0v1.085A2.749,2.749,0,0,0,25,30.246v7.33a2.749,2.749,0,0,0,2.749,2.749h7.33a2.749,2.749,0,0,0,2.749-2.749v-7.33A2.749,2.749,0,0,0,36,27.666Zm-7.33-1.085a2.749,2.749,0,1,1,5.5,0V27.5h-5.5Zm7.33,11a.916.916,0,0,1-.916.916h-7.33a.916.916,0,0,1-.916-.916v-7.33a.916.916,0,0,1,.916-.916h7.33a.916.916,0,0,1,.916.916Z" transform="translate(-3.926 -3.675)" fill="#1c2848"/>
      <path id="Path_53" data-name="Path 53" d="M54.228,37.735a2.7,2.7,0,0,0-1.177.275L50.943,35.9H42.316V34.07H46.9V32.237H42.316V30.4h4.8L52.325,27.8a2.743,2.743,0,1,0-.846-1.975,2.658,2.658,0,0,0,.034.333l-4.832,2.416H42.316V26.739h2.749V24.907H42.316V23.074H46.36l3.024-3.024a2.7,2.7,0,0,0,1.178.275,2.749,2.749,0,1,0-2.749-2.749,2.7,2.7,0,0,0,.275,1.177L45.6,21.242H42.316a4.587,4.587,0,0,0-4.581-4.581V14.291l5.237-5.236a2.7,2.7,0,0,0,1.177.275A2.749,2.749,0,1,0,41.4,6.581a2.7,2.7,0,0,0,.275,1.177L35.9,13.531V16.66H34.07V13.912H32.237V16.66H30.4V10.078a2.749,2.749,0,1,0-1.833,0V16.66H26.739V13.912H24.907V16.66H23.074V9.867l-3.94-3.94a2.7,2.7,0,0,0,.275-1.178A2.749,2.749,0,1,0,16.66,7.5a2.7,2.7,0,0,0,1.177-.275l3.4,3.4V16.66a4.587,4.587,0,0,0-4.581,4.581H13.375l-2.487-2.488a2.7,2.7,0,0,0,.275-1.177,2.749,2.749,0,1,0-2.749,2.749,2.7,2.7,0,0,0,1.177-.275l3.024,3.024H16.66v1.833H10.831l-4.8,4a2.706,2.706,0,0,0-1.283-.334A2.75,2.75,0,1,0,7.28,30.251l4.214-3.511H16.66v1.833H13.912V30.4H16.66v1.833H8.414V34.07H16.66V35.9H11.589L7.9,41.44a2.72,2.72,0,0,0-.4-.04,2.774,2.774,0,1,0,2.025.905l3.047-4.57H16.66a4.587,4.587,0,0,0,4.581,4.581v6.035l-3.4,3.4a2.7,2.7,0,0,0-1.177-.275,2.749,2.749,0,1,0,2.749,2.749,2.7,2.7,0,0,0-.275-1.177l3.94-3.94V42.316h1.833v5.5h1.833v-5.5h1.833v7.838l5.565,3.482a2.789,2.789,0,1,0,.979-1.549L30.4,49.139V42.316h1.833v2.749H34.07V42.316H35.9v7.33h6.583a2.749,2.749,0,1,0,0-1.833h-4.75v-5.5a4.587,4.587,0,0,0,4.581-4.581h7.867l1.57,1.571a2.7,2.7,0,0,0-.275,1.177,2.749,2.749,0,1,0,2.749-2.749Zm0-12.828a.916.916,0,1,1-.916.916A.916.916,0,0,1,54.228,24.907ZM50.563,16.66a.916.916,0,1,1-.916.916A.916.916,0,0,1,50.563,16.66Zm-6.414-11a.916.916,0,1,1-.916.916A.916.916,0,0,1,44.149,5.665Zm-14.66.916a.916.916,0,1,1-.916.916A.916.916,0,0,1,29.488,6.581ZM15.744,4.749a.916.916,0,1,1,.916.916A.916.916,0,0,1,15.744,4.749ZM7.5,17.577a.916.916,0,1,1,.916.916A.916.916,0,0,1,7.5,17.577ZM4.749,32.237a.916.916,0,1,1,.916-.916A.916.916,0,0,1,4.749,32.237ZM7.5,45.065a.916.916,0,1,1,.916-.916A.916.916,0,0,1,7.5,45.065ZM16.66,55.144a.916.916,0,1,1,.916-.916A.916.916,0,0,1,16.66,55.144Zm20.158-1.833a.916.916,0,1,1-.916.916A.916.916,0,0,1,36.818,53.311Zm8.246-5.5a.916.916,0,1,1-.916.916A.916.916,0,0,1,45.065,47.814ZM40.484,37.735a2.749,2.749,0,0,1-2.749,2.749H21.242a2.749,2.749,0,0,1-2.749-2.749V21.242a2.749,2.749,0,0,1,2.749-2.749H37.735a2.749,2.749,0,0,1,2.749,2.749ZM54.228,41.4a.916.916,0,1,1,.916-.916A.916.916,0,0,1,54.228,41.4Z" transform="translate(-2 -2)" fill="#fff"/>
    </g>
    <g id="Group_80" data-name="Group 80" transform="translate(1134.042 391.242)">
      <path id="Polygon_1" data-name="Polygon 1" d="M6.12,1.625a1.063,1.063,0,0,1,1.862,0L9.43,4.254a1.063,1.063,0,0,0,.419.419L12.476,6.12a1.063,1.063,0,0,1,0,1.862L9.848,9.43a1.063,1.063,0,0,0-.419.419L7.983,12.476a1.063,1.063,0,0,1-1.862,0L4.672,9.848a1.063,1.063,0,0,0-.419-.419L1.625,7.983a1.063,1.063,0,0,1,0-1.862L4.254,4.672a1.063,1.063,0,0,0,.419-.419Z" transform="translate(-1.074 -1.074)" fill="#ffd73b"/>
      <path id="Polygon_2" data-name="Polygon 2" d="M2.675,1.625a1.063,1.063,0,0,1,1.862,0l.224.408a1.063,1.063,0,0,0,.419.419l.408.224a1.063,1.063,0,0,1,0,1.862l-.408.224a1.063,1.063,0,0,0-.419.419l-.224.408a1.063,1.063,0,0,1-1.862,0l-.224-.408a1.063,1.063,0,0,0-.419-.419l-.408-.224a1.063,1.063,0,0,1,0-1.862l.408-.224a1.063,1.063,0,0,0,.419-.419Z" transform="translate(2.6 2.6)" fill="#ebbb00"/>
    </g>
    <g id="Group_81" data-name="Group 81" transform="translate(1070.269 427.821)">
      <path id="Polygon_1-2" data-name="Polygon 1" d="M2.659,1.625a1.063,1.063,0,0,1,1.862,0l.219.4a1.063,1.063,0,0,0,.419.419l.4.219a1.063,1.063,0,0,1,0,1.862l-.4.219a1.063,1.063,0,0,0-.419.419l-.219.4a1.063,1.063,0,0,1-1.862,0l-.219-.4a1.063,1.063,0,0,0-.419-.419l-.4-.219a1.063,1.063,0,0,1,0-1.862l.4-.219a1.063,1.063,0,0,0,.419-.419Z" transform="translate(-1.074 -1.074)" fill="#ffd73b"/>
      <path id="Polygon_2-2" data-name="Polygon 2" d="M1.268,1.008a.66.66,0,0,1,1.156,0h0a.66.66,0,0,0,.259.259h0a.66.66,0,0,1,0,1.156h0a.66.66,0,0,0-.259.259h0a.66.66,0,0,1-1.156,0h0a.66.66,0,0,0-.259-.258h0a.66.66,0,0,1,0-1.156h0a.66.66,0,0,0,.259-.26Z" transform="translate(0.788 0.788)" fill="#ebbb00"/>
    </g>
    <g id="Group_82" data-name="Group 82" transform="translate(1100.827 365.471)">
      <path id="Polygon_1-3" data-name="Polygon 1" d="M2.659,1.625a1.063,1.063,0,0,1,1.862,0l.219.4a1.063,1.063,0,0,0,.419.419l.4.219a1.063,1.063,0,0,1,0,1.862l-.4.219a1.063,1.063,0,0,0-.419.419l-.219.4a1.063,1.063,0,0,1-1.862,0l-.219-.4a1.063,1.063,0,0,0-.419-.419l-.4-.219a1.063,1.063,0,0,1,0-1.862l.4-.219a1.063,1.063,0,0,0,.419-.419Z" transform="translate(-1.074 -1.074)" fill="#ffd73b"/>
      <path id="Polygon_2-3" data-name="Polygon 2" d="M1.268,1.008a.66.66,0,0,1,1.156,0h0a.66.66,0,0,0,.259.259h0a.66.66,0,0,1,0,1.156h0a.66.66,0,0,0-.259.259h0a.66.66,0,0,1-1.156,0h0a.66.66,0,0,0-.259-.258h0a.66.66,0,0,1,0-1.156h0a.66.66,0,0,0,.259-.26Z" transform="translate(0.788 0.788)" fill="#ebbb00"/>
    </g>
  </g>
</svg>
