<svg xmlns="http://www.w3.org/2000/svg" xmlns:xlink="http://www.w3.org/1999/xlink" width="72.72" height="71.538" viewBox="0 0 72.72 71.538">
  <defs>
    <linearGradient id="linear-gradient" x1="0.5" x2="0.5" y2="1" gradientUnits="objectBoundingBox">
      <stop offset="0" stop-color="#fff"/>
      <stop offset="1" stop-color="#0064d8"/>
    </linearGradient>
  </defs>
  <g id="pm-white" transform="translate(-792.349 -581.921)">
    <g id="Flat" transform="translate(799.002 588.914)">
      <g id="Color_copy" data-name="Color copy" transform="translate(0 0)">
        <path id="Path_1" data-name="Path 1" d="M46.783,23a8.783,8.783,0,0,1,8.783,8.783V38.81a3.513,3.513,0,0,1-3.513,3.513H41.513A3.513,3.513,0,0,1,38,38.81V31.783A8.783,8.783,0,0,1,46.783,23Z" transform="translate(-7.258 -5.433)" fill="#656b76"/>
        <path id="Path_2" data-name="Path 2" d="M53.81,33.564V31.035a2.744,2.744,0,0,0-2.754-2.741h-.067a5.911,5.911,0,0,1-4.181-1.733l-1.013-1.012a2.617,2.617,0,0,1-.768-1.863v-.04a2.739,2.739,0,0,1,.041-.451A8.783,8.783,0,0,0,38,31.807v7.027a3.513,3.513,0,0,0,3.513,3.513h10.54a3.513,3.513,0,0,0,3.513-3.513V37.057A4.369,4.369,0,0,1,53.81,33.564Z" transform="translate(-7.258 -5.457)" fill="#464a51"/>
        <path id="Path_3" data-name="Path 3" d="M42.513,43H51.3a3.513,3.513,0,0,1,3.513,3.513V55.3H39V46.513A3.513,3.513,0,0,1,42.513,43Z" transform="translate(-7.38 -7.866)" fill="#fff"/>
        <path id="Path_4" data-name="Path 4" d="M50.418,50.905a7.027,7.027,0,0,1-7.027-7.027v-.307A5.193,5.193,0,0,0,48.039,43H42.513A3.513,3.513,0,0,0,39,46.513V55.3H54.81V50.905Z" transform="translate(-7.38 -7.866)" fill="#fff"/>
        <path id="Path_5" data-name="Path 5" d="M45,40h5.27v2.635a2.635,2.635,0,0,1-5.27,0Z" transform="translate(-8.109 -7.501)" fill="#ffd8b6"/>
        <path id="Path_6" data-name="Path 6" d="M38.27,51v1.757H34.757a1.757,1.757,0,1,0,0,3.513h7.027V51Z" transform="translate(-6.65 -8.839)" fill="#ffd8b6"/>
        <path id="Path_7" data-name="Path 7" d="M52.27,51v1.757H48.757a1.757,1.757,0,1,0,0,3.513h7.027V51Z" transform="translate(-8.353 -8.839)" fill="#ffd8b6"/>
        <path id="Path_8" data-name="Path 8" d="M49.392,44.392a2.624,2.624,0,0,1-2.108-1.072,5.27,5.27,0,0,0,2.986-2.177V40H45v2.635a2.625,2.625,0,0,0,4.6,1.736C49.532,44.376,49.465,44.392,49.392,44.392Z" transform="translate(-8.109 -7.501)" fill="#ffd8b6"/>
        <path id="Path_9" data-name="Path 9" d="M52.878,49v3.513H52V49.878A.878.878,0,0,1,52.878,49Z" transform="translate(-8.961 -8.596)" fill="#fff"/>
        <path id="Path_10" data-name="Path 10" d="M54.027,52.757V51H52.27v1.757a1.757,1.757,0,0,1-1.757,1.757H47a1.757,1.757,0,0,0,1.757,1.757h7.027V54.513A1.757,1.757,0,0,1,54.027,52.757Z" transform="translate(-8.353 -8.839)" fill="#ffd8b6"/>
        <path id="Path_11" data-name="Path 11" d="M41.783,51H38.27v1.757a1.757,1.757,0,0,1-1.757,1.757H33a1.757,1.757,0,0,0,1.757,1.757h7.027Z" transform="translate(-6.65 -8.839)" fill="#ffd8b6"/>
        <path id="Path_12" data-name="Path 12" d="M47.27,40.3A5.27,5.27,0,0,1,42,35.027V30.635a3.656,3.656,0,0,0,3.469-2.5L45.513,28a9,9,0,0,0,6.362,2.635h.665v4.392A5.27,5.27,0,0,1,47.27,40.3Z" transform="translate(-7.745 -6.041)" fill="#ffd8b6"/>
        <path id="Path_13" data-name="Path 13" d="M51.875,30.635A9,9,0,0,1,45.513,28l-.044.136A3.656,3.656,0,0,1,42,30.635v4.392a5.27,5.27,0,0,0,9.765,2.741,5.264,5.264,0,0,1-8.008-4.5V31.934a3.651,3.651,0,0,0,1.712-2.042l.045-.135a9,9,0,0,0,6.362,2.635h.665V30.635Z" transform="translate(-7.745 -6.041)" fill="#ffd8b6"/>
        <circle id="Ellipse_1" data-name="Ellipse 1" cx="0.878" cy="0.878" r="0.878" transform="translate(36.891 26.35)" fill="#464a51"/>
        <circle id="Ellipse_2" data-name="Ellipse 2" cx="0.878" cy="0.878" r="0.878" transform="translate(40.404 26.35)" fill="#464a51"/>
        <path id="Path_14" data-name="Path 14" d="M3,57H53.944v3.513H3Z" transform="translate(-3 -9.569)" fill="#cacaca"/>
        <path id="Path_15" data-name="Path 15" d="M7.392,57H3v3.513H53.944V58.757H9.148A1.757,1.757,0,0,1,7.392,57Z" transform="translate(-3 -9.569)" fill="#fff"/>
        <rect id="Rectangle_1" data-name="Rectangle 1" width="24.594" height="17.567" rx="3" transform="translate(1.757 22.837)" fill="#fff"/>
        <path id="Path_16" data-name="Path 16" d="M30.757,53a1.757,1.757,0,0,1,1.757,1.757v1.757H29V54.757A1.757,1.757,0,0,1,30.757,53Z" transform="translate(-6.163 -9.083)" fill="#e9f1f2"/>
        <path id="Path_17" data-name="Path 17" d="M29.594,43.054v.878a2.635,2.635,0,0,1-2.635,2.635H7.635A2.635,2.635,0,0,1,5,43.932v-12.3A2.635,2.635,0,0,1,7.635,29h.878v5.27a8.774,8.774,0,0,0,3.61,7.1,3.513,3.513,0,0,1,3.417-2.705H17.3a1.762,1.762,0,0,1,1.757,1.757v2.635Z" transform="translate(-3.243 -6.163)" fill="#dfdfdf"/>
        <path id="Path_18" data-name="Path 18" d="M18.513,40a3.513,3.513,0,0,1,3.513,3.513v9.662H15V43.513A3.513,3.513,0,0,1,18.513,40Z" transform="translate(-4.46 -7.501)" fill="#e9f1f2"/>
        <path id="Path_19" data-name="Path 19" d="M22.027,49.6v3.592H15V43.529a3.506,3.506,0,0,1,2.635-3.4v4.278A5.261,5.261,0,0,0,22.027,49.6Z" transform="translate(-4.46 -7.517)" fill="#cacaca"/>
        <path id="Path_20" data-name="Path 20" d="M10.757,53H24.81a1.757,1.757,0,0,1,1.757,1.757v1.757H9V54.757A1.757,1.757,0,0,1,10.757,53Z" transform="translate(-3.73 -9.083)" fill="#cacaca"/>
        <path id="Path_21" data-name="Path 21" d="M26.567,54.757v1.757H9V54.757A1.762,1.762,0,0,1,10.757,53h.158a2.607,2.607,0,0,0,2.477,1.757Z" transform="translate(-3.73 -9.083)" fill="#fff"/>
        <path id="Path_22" data-name="Path 22" d="M30.932,31.635v8.783a1.762,1.762,0,0,1-1.757-1.757V32.513a1.762,1.762,0,0,0-1.757-1.757H17.757A1.77,1.77,0,0,1,16,29H28.3A2.635,2.635,0,0,1,30.932,31.635Z" transform="translate(-4.582 -6.163)" fill="#e9f1f2"/>
        <path id="Path_23" data-name="Path 23" d="M22.662,35.757H13.878a.878.878,0,0,1,0-1.757h8.783a.878.878,0,1,1,0,1.757Z" transform="translate(-4.217 -6.771)" fill="#dfdfdf"/>
        <path id="Path_24" data-name="Path 24" d="M38.791,11.783a6,6,0,0,0-.079-.975l1.976-1.133L38.053,5.108,36.085,6.25A6.864,6.864,0,0,0,34.4,5.275V3h-5.27V5.275a6.863,6.863,0,0,0-1.686.975L25.475,5.108,22.84,9.675l1.976,1.133a6.052,6.052,0,0,0,0,1.95L22.84,13.891l2.635,4.567,1.967-1.142a6.864,6.864,0,0,0,1.686.975v2.275H34.4V18.292a6.864,6.864,0,0,0,1.686-.975l1.967,1.142,2.635-4.567-1.976-1.133a6,6,0,0,0,.079-.975Zm-7.027,2.635A2.635,2.635,0,1,1,34.4,11.783,2.635,2.635,0,0,1,31.764,14.418Z" transform="translate(-5.414 -3)" fill="#fff"/>
        <path id="Path_25" data-name="Path 25" d="M35.277,16.782A11.418,11.418,0,0,1,24.167,7.991L22.84,10.283l1.976,1.133a6.052,6.052,0,0,0,0,1.95L22.84,14.5l2.635,4.567,1.967-1.142a6.864,6.864,0,0,0,1.686.975v2.275H34.4V18.9a6.864,6.864,0,0,0,1.686-.975l1.967,1.142,1.888-3.276a11.47,11.47,0,0,1-4.664.993Z" transform="translate(-5.414 -3.607)" fill="#cacaca"/>
        <path id="Path_26" data-name="Path 26" d="M32.392,8a4.392,4.392,0,1,0,4.392,4.392A4.392,4.392,0,0,0,32.392,8Zm0,7.027a2.635,2.635,0,1,1,2.635-2.635A2.635,2.635,0,0,1,32.392,15.027Z" transform="translate(-6.041 -3.608)" fill="#0064d8"/>
        <path id="Path_27" data-name="Path 27" d="M28.27,14.63a4.4,4.4,0,0,0,4.155,2.96,4.316,4.316,0,0,0,1.353-.211A11.3,11.3,0,0,1,28.27,14.63Z" transform="translate(-6.074 -4.415)" fill="#ffb700"/>
        <path id="Path_28" data-name="Path 28" d="M28.27,14.63a4.4,4.4,0,0,0,4.155,2.96,4.316,4.316,0,0,0,1.353-.211A11.3,11.3,0,0,1,28.27,14.63Z" transform="translate(-6.074 -4.415)" fill="#0354b1"/>
        <path id="Path_29" data-name="Path 29" d="M18.306,16.027a5.327,5.327,0,0,0-.088-.961L20,14.035l-1.757-3.043-1.785,1.031a5.239,5.239,0,0,0-1.669-.96V9H11.279v2.063a5.239,5.239,0,0,0-1.664.96L7.829,10.992,6.072,14.035l1.781,1.031a5.1,5.1,0,0,0,0,1.922L6.072,18.019l1.757,3.043L9.614,20.03a5.239,5.239,0,0,0,1.664.96v2.063h3.513V20.99a5.239,5.239,0,0,0,1.669-.96l1.786,1.031L20,18.019l-1.786-1.031a5.327,5.327,0,0,0,.088-.961Zm-5.27,1.757a1.757,1.757,0,1,1,1.757-1.757A1.757,1.757,0,0,1,13.036,17.783Z" transform="translate(-3.374 -3.73)" fill="#fff"/>
        <path id="Path_30" data-name="Path 30" d="M19.93,18.253a8.52,8.52,0,0,1-3.382.685,8.642,8.642,0,0,1-3.917-.931,1.679,1.679,0,0,1-.834-.466.009.009,0,0,1-.009-.009,8.719,8.719,0,0,1-3.944-6.254l-.018-.009L6.07,14.309l1.783,1.036a5.262,5.262,0,0,0,0,1.915L6.07,18.3l1.757,3.039L9.61,20.308a5.435,5.435,0,0,0,1.669.957V23.33h3.513V21.266a5.435,5.435,0,0,0,1.669-.957l1.783,1.028L20,18.3Z" transform="translate(-3.373 -4.006)" fill="#cacaca"/>
        <path id="Path_31" data-name="Path 31" d="M13.513,13a3.513,3.513,0,1,0,3.513,3.513A3.513,3.513,0,0,0,13.513,13Zm0,5.27a1.757,1.757,0,1,1,1.757-1.757,1.757,1.757,0,0,1-1.757,1.757Z" transform="translate(-3.852 -4.217)" fill="#0064d8"/>
        <path id="Path_32" data-name="Path 32" d="M13.109,18.6a1.679,1.679,0,0,1-.834-.466l-.009-.009a8.759,8.759,0,0,1-2.178-2,3.209,3.209,0,0,0-.088.773,3.513,3.513,0,0,0,5.911,2.565,8.4,8.4,0,0,1-2.8-.861Z" transform="translate(-3.852 -4.596)" fill="#0354b1"/>
        <path id="Path_33" data-name="Path 33" d="M47,8.257v5.27a1.757,1.757,0,0,0,1.757,1.757V18.8l5.27-3.513H57.54A1.757,1.757,0,0,0,59.3,13.527V8.257A1.757,1.757,0,0,0,57.54,6.5H48.757A1.757,1.757,0,0,0,47,8.257Z" transform="translate(-8.353 -3.426)" fill="#fff"/>
        <path id="Path_34" data-name="Path 34" d="M59.3,12.209v1.318a1.762,1.762,0,0,1-1.757,1.757H54.027L48.757,18.8V15.283A1.762,1.762,0,0,1,47,13.527V8.257A1.762,1.762,0,0,1,48.757,6.5h.878V8.7a3.513,3.513,0,0,0,3.513,3.513Z" transform="translate(-8.353 -3.426)" fill="#fff"/>
      </g>
    </g>
    <g id="Group_80" data-name="Group 80" transform="translate(852.752 605.09)">
      <path id="Polygon_1" data-name="Polygon 1" d="M5.821,1.592a1,1,0,0,1,1.752,0L8.934,4.065a1,1,0,0,0,.394.394L11.8,5.821a1,1,0,0,1,0,1.752L9.328,8.934a1,1,0,0,0-.394.394L7.573,11.8a1,1,0,0,1-1.752,0L4.459,9.328a1,1,0,0,0-.394-.394L1.592,7.573a1,1,0,0,1,0-1.752L4.065,4.459a1,1,0,0,0,.394-.394Z" fill="#ffd73b"/>
      <path id="Polygon_2" data-name="Polygon 2" d="M2.58,1.592a1,1,0,0,1,1.752,0l.211.384a1,1,0,0,0,.394.394l.384.211a1,1,0,0,1,0,1.752l-.384.211a1,1,0,0,0-.394.394l-.211.384a1,1,0,0,1-1.752,0l-.211-.384a1,1,0,0,0-.394-.394l-.384-.211a1,1,0,0,1,0-1.752l.384-.211a1,1,0,0,0,.394-.394Z" transform="translate(3.456 3.456)" fill="#ebbb00"/>
    </g>
    <g id="Group_81" data-name="Group 81" transform="translate(792.761 639.499)">
      <path id="Polygon_1-2" data-name="Polygon 1" d="M2.565,1.592a1,1,0,0,1,1.752,0l.206.373a1,1,0,0,0,.394.394l.373.206a1,1,0,0,1,0,1.752l-.373.206a1,1,0,0,0-.394.394l-.206.373a1,1,0,0,1-1.752,0l-.206-.373a1,1,0,0,0-.394-.394l-.373-.206a1,1,0,0,1,0-1.752l.373-.206a1,1,0,0,0,.394-.394Z" fill="#ffd73b"/>
      <path id="Polygon_2-2" data-name="Polygon 2" d="M1.232.988a.621.621,0,0,1,1.087,0h0a.621.621,0,0,0,.244.244h0a.621.621,0,0,1,0,1.087h0a.621.621,0,0,0-.244.244h0a.621.621,0,0,1-1.087,0h0A.621.621,0,0,0,.988,2.32h0a.621.621,0,0,1,0-1.087h0A.621.621,0,0,0,1.232.988Z" transform="translate(1.776 1.776)" fill="#ebbb00"/>
    </g>
    <g id="Group_82" data-name="Group 82" transform="translate(821.507 580.847)">
      <path id="Polygon_1-3" data-name="Polygon 1" d="M2.565,1.592a1,1,0,0,1,1.752,0l.206.373a1,1,0,0,0,.394.394l.373.206a1,1,0,0,1,0,1.752l-.373.206a1,1,0,0,0-.394.394l-.206.373a1,1,0,0,1-1.752,0l-.206-.373a1,1,0,0,0-.394-.394l-.373-.206a1,1,0,0,1,0-1.752l.373-.206a1,1,0,0,0,.394-.394Z" fill="#ffd73b"/>
      <path id="Polygon_2-3" data-name="Polygon 2" d="M1.232.988a.621.621,0,0,1,1.087,0h0a.621.621,0,0,0,.244.244h0a.621.621,0,0,1,0,1.087h0a.621.621,0,0,0-.244.244h0a.621.621,0,0,1-1.087,0h0A.621.621,0,0,0,.988,2.32h0a.621.621,0,0,1,0-1.087h0A.621.621,0,0,0,1.232.988Z" transform="translate(1.776 1.776)" fill="#ebbb00"/>
    </g>
    <path id="Path_28438" data-name="Path 28438" d="M40.356,0l22.16,48.52S50.138,57.876,40.574,61.376s-16.314,1.14-16.314,1.14L0,0Z" transform="translate(796.78 585.916) rotate(4.012)" opacity="0.1" fill="url(#linear-gradient)"/>
  </g>
</svg>
