<svg id="running" xmlns="http://www.w3.org/2000/svg" width="63.643" height="63.642" viewBox="0 0 63.643 63.642">
  <path id="Path_28518" data-name="Path 28518" d="M2.195,4.389H61.448a2.195,2.195,0,0,0,0-4.389H2.195a2.195,2.195,0,0,0,0,4.389Z" fill="#1c2848"/>
  <path id="Path_28519" data-name="Path 28519" d="M61.448,264.828H2.195a2.195,2.195,0,0,0,0,4.389H61.448a2.195,2.195,0,0,0,0-4.389Z" transform="translate(0 -231.909)" fill="#1c2848"/>
  <path id="Path_28520" data-name="Path 28520" d="M211.862,420.064v.318h10.973v-.318a5.5,5.5,0,0,0-10.973,0Z" transform="translate(-185.527 -363.324)" fill="#0064d8"/>
  <circle id="Ellipse_3013" data-name="Ellipse 3013" cx="3.292" cy="3.292" r="3.292" transform="translate(28.529 42.794)" fill="#1c2848"/>
  <path id="Path_28521" data-name="Path 28521" d="M379.586,420.064v.318h10.973v-.318a5.5,5.5,0,0,0-10.973,0Z" transform="translate(-332.403 -363.324)" fill="#0064d8"/>
  <circle id="Ellipse_3014" data-name="Ellipse 3014" cx="3.292" cy="3.292" r="3.292" transform="translate(49.378 42.794)" fill="#1c2848"/>
  <path id="Path_28522" data-name="Path 28522" d="M44.138,420.049v.318H55.111v-.318a5.5,5.5,0,0,0-10.973,0Z" transform="translate(-38.652 -363.308)" fill="#0064d8"/>
  <circle id="Ellipse_3015" data-name="Ellipse 3015" cx="3.292" cy="3.292" r="3.292" transform="translate(7.681 42.794)" fill="#1c2848"/>
  <path id="Path_28523" data-name="Path 28523" d="M201.888,163.424a1.647,1.647,0,0,1-.68-.143l-7-2.974V165.2l4.784,2.03a7.473,7.473,0,0,0,5.794,0l4.784-2.03v-4.894l-7,2.974A1.647,1.647,0,0,1,201.888,163.424Z" transform="translate(-170.067 -140.381)" fill="#1c2848"/>
  <path id="Path_28524" data-name="Path 28524" d="M157.36,87.142l8.35,3.544,8.35-3.544h.011l4.455-1.9L165.71,79.8l-12.816,5.443,4.455,1.9Z" transform="translate(-133.889 -69.882)" fill="#0064d8"/>
  <path id="Path_28525" data-name="Path 28525" d="M96.808,77.106V52.966H44.138v24.14h52.67Zm-41.7-15.362a1.927,1.927,0,0,1,1.141-1.789l13.54-5.75a1.694,1.694,0,0,1,1.361,0l13.54,5.75a1.972,1.972,0,0,1,0,3.577l-4.345,1.843v6.562a1.038,1.038,0,0,1-.088.406.946.946,0,0,1-.11.176,1.665,1.665,0,0,1-.121.176,1.115,1.115,0,0,1-.351.241l-5.453,2.315a9.679,9.679,0,0,1-7.505,0l-5.453-2.315a1.115,1.115,0,0,1-.351-.241,1.677,1.677,0,0,1-.121-.176.95.95,0,0,1-.11-.176,1.038,1.038,0,0,1-.088-.406V65.376l-3.292-1.394v5.366a1.1,1.1,0,1,1-2.195,0v-7.6Z" transform="translate(-38.652 -46.382)" fill="#1c2848"/>
  <path id="Path_28526" data-name="Path 28526" d="M62.545,476.69H1.1a1.1,1.1,0,0,0-1.1,1.1v2.195a1.1,1.1,0,0,0,1.1,1.1H62.545a1.1,1.1,0,0,0,1.1-1.1v-2.195A1.1,1.1,0,0,0,62.545,476.69Z" transform="translate(0 -417.437)" fill="#1c2848"/>
</svg>
