<svg xmlns="http://www.w3.org/2000/svg" width="23" height="24.727" viewBox="0 0 23 24.727">
  <g id="call" transform="translate(-36.487 -20.012)">
    <path id="Path_28420" data-name="Path 28420" d="M46.816,43.691a7.148,7.148,0,0,0,3.366,1.049,1.97,1.97,0,0,0,.946-.188l2.541-1.467a1.659,1.659,0,0,0,.606-2.263l-1.634-2.83a1.668,1.668,0,0,0-1.009-.774,1.634,1.634,0,0,0-1.263.154l-1.444.833-.007,0a2.142,2.142,0,0,1-1.522.1c-1.015-.257-2.6-1.223-4.418-4.363-1.7-2.951-1.778-4.753-1.541-5.745a2.231,2.231,0,0,1,.889-1.419h0l1.444-.834a1.635,1.635,0,0,0,.765-1.016,1.666,1.666,0,0,0-.166-1.26l-1.634-2.83a1.668,1.668,0,0,0-2.264-.608L37.933,21.7c-.555.32-1.4,1.677-1.444,4.1-.071,3.646,1.686,7.481,3.173,10.057S43.6,41.884,46.816,43.691Z" transform="translate(0)" fill="#181818"/>
    <path id="Path_28421" data-name="Path 28421" d="M366.088,325.019a1.887,1.887,0,0,1,1.627,2.818.314.314,0,0,0,.547.31,2.516,2.516,0,0,0-2.169-3.756.314.314,0,0,0-.005.629Z" transform="translate(-312.037 -288.431)" fill="#181818"/>
    <path id="Path_28422" data-name="Path 28422" d="M354.123,303.043a.314.314,0,0,0,.444-.021,3.985,3.985,0,0,0-3.8-6.575.314.314,0,1,0,.134.614,3.356,3.356,0,0,1,3.2,5.537A.314.314,0,0,0,354.123,303.043Z" transform="translate(-297.584 -261.866)" fill="#181818"/>
    <path id="Path_28423" data-name="Path 28423" d="M336.44,269.2a4.823,4.823,0,0,1,4.708,8.155.314.314,0,1,0,.424.464,5.452,5.452,0,0,0-5.322-9.218.314.314,0,1,0,.189.6Z" transform="translate(-283.85 -235.325)" fill="#181818"/>
  </g>
</svg>
