<svg xmlns="http://www.w3.org/2000/svg" width="16.193" height="23.547" viewBox="0 0 16.193 23.547">
  <g id="pin" transform="translate(-0.001)">
    <path id="Path_18724" data-name="Path 18724" d="M95.037,4.033A7.992,7.992,0,0,0,88.246,0h-.362a7.992,7.992,0,0,0-6.791,4.031,8.2,8.2,0,0,0-.107,8.1l5.84,10.689.008.014a1.42,1.42,0,0,0,2.463,0l.008-.014,5.84-10.689a8.2,8.2,0,0,0-.107-8.1Zm-6.972,6.639A3.312,3.312,0,1,1,91.377,7.36a3.312,3.312,0,0,1-3.312,3.312Z" transform="translate(-79.968)" fill="#181818"/>
  </g>
</svg>
