<svg xmlns="http://www.w3.org/2000/svg" width="30.175" height="25.145" viewBox="0 0 30.175 25.145">
  <g id="find" transform="translate(0 -1)">
    <path id="Path_28582" data-name="Path 28582" d="M27.491,22.713l-4.805-4.805a7.567,7.567,0,1,0-1.778,1.778l4.805,4.805a1.257,1.257,0,1,0,1.778-1.778Z" transform="translate(2.315 1.286)" fill="#fff"/>
    <path id="Path_28583" data-name="Path 28583" d="M1.257,3.515H21.688a1.257,1.257,0,0,0,0-2.515H1.257a1.257,1.257,0,1,0,0,2.515Z" fill="#fff"/>
    <path id="Path_28584" data-name="Path 28584" d="M1.257,8.515h9.115a1.257,1.257,0,0,0,0-2.515H1.257a1.257,1.257,0,1,0,0,2.515Z" transform="translate(0 1.286)" fill="#fff"/>
    <path id="Path_28585" data-name="Path 28585" d="M10.372,16H1.257a1.257,1.257,0,1,0,0,2.515h9.115a1.257,1.257,0,1,0,0-2.515Z" transform="translate(0 3.859)" fill="#fff"/>
    <path id="Path_28586" data-name="Path 28586" d="M1.257,13.515h6.6a1.257,1.257,0,1,0,0-2.515h-6.6a1.257,1.257,0,1,0,0,2.515Z" transform="translate(0 2.573)" fill="#fff"/>
  </g>
</svg>
