<svg xmlns="http://www.w3.org/2000/svg" xmlns:xlink="http://www.w3.org/1999/xlink" width="99.467" height="110.415" viewBox="0 0 99.467 110.415">
  <defs>
    <linearGradient id="linear-gradient" x1="0.5" x2="0.5" y2="1" gradientUnits="objectBoundingBox">
      <stop offset="0" stop-color="#fff"/>
      <stop offset="1" stop-color="#0064d8"/>
    </linearGradient>
    <linearGradient id="linear-gradient-2" x1="0.5" x2="0.5" y2="1" gradientUnits="objectBoundingBox">
      <stop offset="0" stop-color="#0064d8"/>
      <stop offset="1" stop-color="#1c2848"/>
    </linearGradient>
  </defs>
  <g id="improvement" transform="translate(-400.951 -356.665)">
    <g id="Group_80" data-name="Group 80" transform="translate(481.173 397.107)">
      <path id="Polygon_1" data-name="Polygon 1" d="M8.079,1.592a1,1,0,0,1,1.752,0l2.163,3.93a1,1,0,0,0,.394.394l3.93,2.163a1,1,0,0,1,0,1.752l-3.93,2.163a1,1,0,0,0-.394.394l-2.163,3.93a1,1,0,0,1-1.752,0l-2.163-3.93a1,1,0,0,0-.394-.394L1.592,9.831a1,1,0,0,1,0-1.752l3.93-2.163a1,1,0,0,0,.394-.394Z" fill="#ffd73b"/>
      <path id="Polygon_2" data-name="Polygon 2" d="M3.746,1.592a1,1,0,0,1,1.752,0l.625,1.135a1,1,0,0,0,.394.394l1.135.625a1,1,0,0,1,0,1.752l-1.135.625a1,1,0,0,0-.394.394L5.5,7.652a1,1,0,0,1-1.752,0L3.121,6.517a1,1,0,0,0-.394-.394L1.592,5.5a1,1,0,0,1,0-1.752l1.135-.625a1,1,0,0,0,.394-.394Z" transform="translate(4.622 4.622)" fill="#ebbb00"/>
    </g>
    <g id="Group_81" data-name="Group 81" transform="translate(400.951 436.435)">
      <path id="Polygon_1-2" data-name="Polygon 1" d="M3.725,1.592a1,1,0,0,1,1.752,0l.617,1.122a1,1,0,0,0,.394.394l1.122.617a1,1,0,0,1,0,1.752l-1.122.617a1,1,0,0,0-.394.394L5.477,7.61a1,1,0,0,1-1.752,0L3.108,6.489a1,1,0,0,0-.394-.394L1.592,5.477a1,1,0,0,1,0-1.752l1.122-.617a1,1,0,0,0,.394-.394Z" transform="translate(0)" fill="#ffd73b"/>
      <path id="Polygon_2-2" data-name="Polygon 2" d="M1.648,1.321a.83.83,0,0,1,1.454,0h0a.83.83,0,0,0,.327.327h0a.83.83,0,0,1,0,1.454h0a.83.83,0,0,0-.327.327h0a.83.83,0,0,1-1.454,0h0A.83.83,0,0,0,1.321,3.1h0a.83.83,0,0,1,0-1.454h0a.83.83,0,0,0,.327-.327Z" transform="translate(2.375 2.375)" fill="#ebbb00"/>
    </g>
    <g id="Group_82" data-name="Group 82" transform="translate(442.066 356.665)">
      <path id="Polygon_1-3" data-name="Polygon 1" d="M3.725,1.592a1,1,0,0,1,1.752,0l.617,1.122a1,1,0,0,0,.394.394l1.122.617a1,1,0,0,1,0,1.752l-1.122.617a1,1,0,0,0-.394.394L5.477,7.61a1,1,0,0,1-1.752,0L3.108,6.489a1,1,0,0,0-.394-.394L1.592,5.477a1,1,0,0,1,0-1.752l1.122-.617a1,1,0,0,0,.394-.394Z" transform="translate(0 0)" fill="#ffd73b"/>
      <path id="Polygon_2-3" data-name="Polygon 2" d="M1.648,1.321a.83.83,0,0,1,1.454,0h0a.83.83,0,0,0,.327.327h0a.83.83,0,0,1,0,1.454h0a.83.83,0,0,0-.327.327h0a.83.83,0,0,1-1.454,0h0A.83.83,0,0,0,1.321,3.1h0a.83.83,0,0,1,0-1.454h0a.83.83,0,0,0,.327-.327Z" transform="translate(2.375 2.375)" fill="#ebbb00"/>
    </g>
    <path id="Path_28395" data-name="Path 28395" d="M53.965,0,83.6,64.883S67.047,77.395,54.258,82.074,32.442,83.6,32.442,83.6L0,0Z" transform="matrix(0.998, 0.07, -0.07, 0.998, 417.023, 376.816)" opacity="0.1" fill="url(#linear-gradient)"/>
    <g id="analytics_1_" data-name="analytics (1)" transform="translate(410.377 371.823)">
      <path id="Path_28396" data-name="Path 28396" d="M42.643,0h50.21A2.643,2.643,0,0,1,95.5,2.643V67.388a3.964,3.964,0,0,1-3.964,3.964H42.643A2.643,2.643,0,0,1,40,68.709V2.643A2.643,2.643,0,0,1,42.643,0Zm0,0" transform="translate(-33.393)" fill="url(#linear-gradient-2)"/>
      <path id="Path_28397" data-name="Path 28397" d="M0,374.607v-3.964A2.643,2.643,0,0,1,2.643,368H51.532a2.643,2.643,0,0,1,2.643,2.643v3.964a3.964,3.964,0,0,0,3.964,3.964H3.964A3.964,3.964,0,0,1,0,374.607Zm0,0" transform="translate(0 -307.219)"/>
      <path id="Path_28398" data-name="Path 28398" d="M368,296h7.928v27.748H368Zm0,0" transform="translate(-307.219 -247.111)" fill="#ebbb00"/>
      <path id="Path_28399" data-name="Path 28399" d="M280,344h7.928v19.82H280Zm0,0" transform="translate(-233.754 -287.183)" fill="#ebbb00"/>
      <path id="Path_28400" data-name="Path 28400" d="M192,400h7.928v10.571H192Zm0,0" transform="translate(-160.288 -333.934)" fill="#ebbb00"/>
      <path id="Path_28401" data-name="Path 28401" d="M144,456h50.21v2.643H144Zm0,0" transform="translate(-120.216 -380.684)" fill="#ebbb00"/>
      <path id="Path_28402" data-name="Path 28402" d="M192,165.213A13.213,13.213,0,0,0,205.213,152H192Zm0,0" transform="translate(-160.288 -126.895)" fill="#ebebeb"/>
      <path id="Path_28403" data-name="Path 28403" d="M232.491,188.527h-5.285a1.322,1.322,0,0,1-.934-.387l-7.928-7.928,1.868-1.868,7.541,7.541h4.738Zm0,0" transform="translate(-182.281 -148.887)" fill="#fff"/>
      <path id="Path_28404" data-name="Path 28404" d="M320,224h2.643v2.643H320Zm0,0" transform="translate(-267.147 -187.003)" fill="#fff"/>
      <path id="Path_28405" data-name="Path 28405" d="M80,72.776A13.213,13.213,0,0,0,93.213,85.99V72.776L83.87,63.434A13.17,13.17,0,0,0,80,72.776Zm0,0" transform="translate(-66.787 -52.957)" fill="#fff" opacity="0.75"/>
      <path id="Path_28406" data-name="Path 28406" d="M112.776,40a13.17,13.17,0,0,0-9.343,3.87l9.343,9.343H125.99A13.213,13.213,0,0,0,112.776,40Zm0,0" transform="translate(-86.35 -33.393)" fill="#1c2848" opacity="0.75"/>
      <g id="Group_7564" data-name="Group 7564" transform="translate(11.892 11.892)">
        <path id="Path_28407" data-name="Path 28407" d="M112,136h2.643v14.535H112Zm0,0" transform="translate(-105.393 -125.429)" fill="#fff"/>
        <path id="Path_28408" data-name="Path 28408" d="M88,272h2.643v2.643H88Zm0,0" transform="translate(-85.357 -238.967)" fill="#fff"/>
        <path id="Path_28409" data-name="Path 28409" d="M120,272h37v2.643H120Zm0,0" transform="translate(-112.072 -238.967)" fill="#fff"/>
        <path id="Path_28410" data-name="Path 28410" d="M72,304h40.961v2.643H72Zm0,0" transform="translate(-72 -265.681)" fill="#fff"/>
        <path id="Path_28411" data-name="Path 28411" d="M112,240h2.643v2.643H112Zm0,0" transform="translate(-105.393 -212.252)" fill="#fff"/>
        <path id="Path_28412" data-name="Path 28412" d="M176,72h21.141v2.643H176Zm0,0" transform="translate(-158.823 -72)" fill="#fff"/>
        <path id="Path_28413" data-name="Path 28413" d="M320,72h2.643v2.643H320Zm0,0" transform="translate(-279.039 -72)" fill="#fff"/>
      </g>
    </g>
  </g>
</svg>
