<svg xmlns="http://www.w3.org/2000/svg" xmlns:xlink="http://www.w3.org/1999/xlink" width="101.774" height="103.335" viewBox="0 0 101.774 103.335">
  <defs>
    <linearGradient id="linear-gradient" x1="0.5" x2="0.5" y2="1" gradientUnits="objectBoundingBox">
      <stop offset="0" stop-color="#fff"/>
      <stop offset="1" stop-color="#0064d8"/>
    </linearGradient>
    <linearGradient id="linear-gradient-2" x1="0.5" x2="0.5" y2="1" gradientUnits="objectBoundingBox">
      <stop offset="0" stop-color="#0064d8"/>
      <stop offset="1" stop-color="#1c2848"/>
    </linearGradient>
  </defs>
  <g id="project" transform="translate(-400.951 -360.665)">
    <path id="Path_28390" data-name="Path 28390" d="M53.076,0,82.222,63.814S65.942,76.12,53.364,80.722s-21.457,1.5-21.457,1.5L0,0Z" transform="matrix(0.998, 0.07, -0.07, 0.998, 420.704, 375.223)" opacity="0.1" fill="url(#linear-gradient)"/>
    <g id="Group_80" data-name="Group 80" transform="translate(481.688 387.359)">
      <path id="Polygon_1" data-name="Polygon 1" d="M9.628,1.592a1,1,0,0,1,1.752,0l2.713,4.929a1,1,0,0,0,.394.394l4.929,2.713a1,1,0,0,1,0,1.752l-4.929,2.713a1,1,0,0,0-.394.394L11.38,19.416a1,1,0,0,1-1.752,0L6.915,14.487a1,1,0,0,0-.394-.394L1.592,11.38a1,1,0,0,1,0-1.752L6.521,6.915a1,1,0,0,0,.394-.394Z" fill="#ffd73b"/>
      <path id="Polygon_2" data-name="Polygon 2" d="M4.545,1.592a1,1,0,0,1,1.752,0l.909,1.651a1,1,0,0,0,.394.394l1.651.909a1,1,0,0,1,0,1.752L7.6,7.206a1,1,0,0,0-.394.394L6.3,9.251a1,1,0,0,1-1.752,0L3.637,7.6a1,1,0,0,0-.394-.394L1.592,6.3a1,1,0,0,1,0-1.752l1.651-.909a1,1,0,0,0,.394-.394Z" transform="translate(5.421 5.421)" fill="#ebbb00"/>
    </g>
    <g id="Group_81" data-name="Group 81" transform="translate(400.951 447.954)">
      <path id="Polygon_1-2" data-name="Polygon 1" d="M4.521,1.592a1,1,0,0,1,1.752,0l.9,1.635a1,1,0,0,0,.394.394l1.635.9a1,1,0,0,1,0,1.752l-1.635.9a1,1,0,0,0-.394.394L6.273,9.2a1,1,0,0,1-1.752,0l-.9-1.635a1,1,0,0,0-.394-.394l-1.635-.9a1,1,0,0,1,0-1.752l1.635-.9a1,1,0,0,0,.394-.394Z" transform="translate(0)" fill="#ffd73b"/>
      <path id="Polygon_2-2" data-name="Polygon 2" d="M1.933,1.549a.973.973,0,0,1,1.705,0h0a.973.973,0,0,0,.383.383h0a.973.973,0,0,1,0,1.705h0a.973.973,0,0,0-.383.383h0a.973.973,0,0,1-1.705,0h0a.973.973,0,0,0-.383-.383h0a.973.973,0,0,1,0-1.705h0A.973.973,0,0,0,1.933,1.549Z" transform="translate(2.785 2.785)" fill="#ebbb00"/>
    </g>
    <g id="Group_82" data-name="Group 82" transform="translate(449.175 360.665)">
      <path id="Polygon_1-3" data-name="Polygon 1" d="M4.521,1.592a1,1,0,0,1,1.752,0l.9,1.635a1,1,0,0,0,.394.394l1.635.9a1,1,0,0,1,0,1.752l-1.635.9a1,1,0,0,0-.394.394L6.273,9.2a1,1,0,0,1-1.752,0l-.9-1.635a1,1,0,0,0-.394-.394l-1.635-.9a1,1,0,0,1,0-1.752l1.635-.9a1,1,0,0,0,.394-.394Z" transform="translate(0 0)" fill="#ffd73b"/>
      <path id="Polygon_2-3" data-name="Polygon 2" d="M1.933,1.549a.973.973,0,0,1,1.705,0h0a.973.973,0,0,0,.383.383h0a.973.973,0,0,1,0,1.705h0a.973.973,0,0,0-.383.383h0a.973.973,0,0,1-1.705,0h0a.973.973,0,0,0-.383-.383h0a.973.973,0,0,1,0-1.705h0A.973.973,0,0,0,1.933,1.549Z" transform="translate(2.785 2.785)" fill="#ebbb00"/>
    </g>
    <g id="analytics" transform="translate(414.267 375.735)">
      <path id="Path_28372" data-name="Path 28372" d="M72,0h48.678a3.745,3.745,0,0,1,3.744,3.744V62.407H72Zm0,0" transform="translate(-60.767)" fill="#fff" opacity="0.52"/>
      <path id="Path_28373" data-name="Path 28373" d="M40,32H92.422V94.407H40Zm0,0" transform="translate(-33.759 -27.007)" fill="#fff"/>
      <path id="Path_28374" data-name="Path 28374" d="M239.94,230.725v-5.509l-4.618-1.154a15.725,15.725,0,0,0-1.734-4.179l2.451-4.085-3.9-3.9-4.085,2.451a16.045,16.045,0,0,0-1.89-.961,15.669,15.669,0,0,0-2.289-.772L222.725,208h-5.509l-1.154,4.618a15.723,15.723,0,0,0-4.179,1.734L207.8,211.9l-3.9,3.9,2.451,4.085a15.724,15.724,0,0,0-1.734,4.179L200,225.215v5.509l4.618,1.154a15.723,15.723,0,0,0,1.734,4.179l-2.451,4.085,3.9,3.9,4.085-2.451a15.724,15.724,0,0,0,4.179,1.735l1.154,4.618h5.509l1.154-4.618a15.724,15.724,0,0,0,4.179-1.735l4.085,2.451,3.9-3.9-2.451-4.085a15.724,15.724,0,0,0,1.734-4.179Zm-19.97,5.982a8.737,8.737,0,1,1,8.737-8.737A8.737,8.737,0,0,1,219.97,236.707Zm0,0" transform="translate(-168.796 -175.548)" fill="#ffd73b" stroke="#ffd73b" stroke-width="1"/>
      <path id="Path_28375" data-name="Path 28375" d="M328,32v2.5a3.744,3.744,0,0,0,7.489,0V32Zm0,0" transform="translate(-276.826 -27.007)" fill="#fff" opacity="0.53"/>
      <path id="Path_28376" data-name="Path 28376" d="M61.67,0a3.745,3.745,0,0,0-3.744,3.744V7.489a3.745,3.745,0,0,0,3.744,3.744H11.744A3.745,3.745,0,0,1,8,7.489V3.744A3.745,3.745,0,0,1,11.744,0Zm0,0" transform="translate(-6.752)" fill="#1c2848"/>
      <path id="Path_28377" data-name="Path 28377" d="M10.5,360H29.218l4.993,2.5-4.993,2.5H10.5a2.5,2.5,0,1,1,0-4.992Zm0,0" transform="translate(-6.752 -303.834)" fill="url(#linear-gradient-2)"/>
      <path id="Path_28378" data-name="Path 28378" d="M0,112H2.5v24.963H0Zm0,0" transform="translate(0 -94.526)" fill="#0064d8"/>
      <path id="Path_28379" data-name="Path 28379" d="M88.259,112a12.441,12.441,0,0,0-8.825,3.656l8.825,8.825H100.74A12.481,12.481,0,0,0,88.259,112Zm0,0" transform="translate(-67.041 -94.526)" fill="url(#linear-gradient-2)"/>
      <g id="Group_7560" data-name="Group 7560" transform="translate(11.233 16.226)">
        <path id="Path_28380" data-name="Path 28380" d="M88,224h2.5v2.5H88Zm0,0" transform="translate(-85.504 -205.278)" fill="#0064d8"/>
        <path id="Path_28381" data-name="Path 28381" d="M120,224h12.481v2.5H120Zm0,0" transform="translate(-112.511 -205.278)" fill="#0064d8"/>
        <path id="Path_28382" data-name="Path 28382" d="M72,256H91.97v2.5H72Zm0,0" transform="translate(-72 -232.285)" fill="#0064d8"/>
        <path id="Path_28383" data-name="Path 28383" d="M248,136h2.5v2.5H248Zm0,0" transform="translate(-220.541 -131.007)" fill="#0064d8"/>
        <path id="Path_28384" data-name="Path 28384" d="M72,288H88.226v2.5H72Zm0,0" transform="translate(-72 -259.293)" fill="#0064d8"/>
        <path id="Path_28385" data-name="Path 28385" d="M156.108,113.619l-1.765-1.765,7.489-7.489a1.248,1.248,0,0,1,.882-.366h16.226v2.5H163.232Zm0,0" transform="translate(-141.496 -104)" fill="#0064d8"/>
        <path id="Path_28386" data-name="Path 28386" d="M328,104h2.5v2.5H328Zm0,0" transform="translate(-288.059 -104)" fill="#0064d8"/>
        <path id="Path_28387" data-name="Path 28387" d="M280,136h9.985v2.5H280Zm0,0" transform="translate(-247.548 -131.007)" fill="#0064d8"/>
        <path id="Path_28388" data-name="Path 28388" d="M248,168h14.978v2.5H248Zm0,0" transform="translate(-220.541 -158.015)" fill="#0064d8"/>
      </g>
      <path id="Path_28389" data-name="Path 28389" d="M135.489,362.5,130.5,360H128v4.992h2.5Zm0,0" transform="translate(-108.03 -303.834)" fill="#0064d8"/>
    </g>
  </g>
</svg>
