<svg xmlns="http://www.w3.org/2000/svg" xmlns:xlink="http://www.w3.org/1999/xlink" width="99.445" height="100.508" viewBox="0 0 99.445 100.508">
  <defs>
    <linearGradient id="linear-gradient" x1="0.5" x2="0.5" y2="1" gradientUnits="objectBoundingBox">
      <stop offset="0" stop-color="#fff"/>
      <stop offset="1" stop-color="#0064d8"/>
    </linearGradient>
    <linearGradient id="linear-gradient-2" x1="0.5" x2="0.5" y2="1" gradientUnits="objectBoundingBox">
      <stop offset="0" stop-color="#0064d8"/>
      <stop offset="1" stop-color="#1c2848"/>
    </linearGradient>
  </defs>
  <g id="security" transform="translate(-403.555 -360.665)">
    <g id="Group_80" data-name="Group 80" transform="translate(484.947 393.341)">
      <path id="Polygon_1" data-name="Polygon 1" d="M8.15,1.592a1,1,0,0,1,1.752,0l2.188,3.976a1,1,0,0,0,.394.394L16.461,8.15a1,1,0,0,1,0,1.752l-3.976,2.188a1,1,0,0,0-.394.394L9.9,16.461a1,1,0,0,1-1.752,0L5.962,12.485a1,1,0,0,0-.394-.394L1.592,9.9a1,1,0,0,1,0-1.752L5.568,5.962a1,1,0,0,0,.394-.394Z" fill="#ffd73b"/>
      <path id="Polygon_2" data-name="Polygon 2" d="M3.783,1.592a1,1,0,0,1,1.752,0l.638,1.159a1,1,0,0,0,.394.394l1.159.638a1,1,0,0,1,0,1.752l-1.159.638a1,1,0,0,0-.394.394L5.535,7.726a1,1,0,0,1-1.752,0L3.145,6.567a1,1,0,0,0-.394-.394L1.592,5.535a1,1,0,0,1,0-1.752l1.159-.638a1,1,0,0,0,.394-.394Z" transform="translate(4.659 4.659)" fill="#ebbb00"/>
    </g>
    <g id="Group_81" data-name="Group 81" transform="translate(404.089 439.72)">
      <path id="Polygon_1-2" data-name="Polygon 1" d="M3.762,1.592a1,1,0,0,1,1.752,0l.63,1.145a1,1,0,0,0,.394.394l1.145.63a1,1,0,0,1,0,1.752l-1.145.63a1,1,0,0,0-.394.394l-.63,1.145a1,1,0,0,1-1.752,0l-.63-1.145a1,1,0,0,0-.394-.394l-1.145-.63a1,1,0,0,1,0-1.752l1.145-.63a1,1,0,0,0,.394-.394Z" transform="translate(0)" fill="#ffd73b"/>
      <path id="Polygon_2-2" data-name="Polygon 2" d="M1.661,1.331a.836.836,0,0,1,1.466,0h0a.836.836,0,0,0,.329.329h0a.836.836,0,0,1,0,1.466h0a.836.836,0,0,0-.329.329h0a.836.836,0,0,1-1.466,0h0a.836.836,0,0,0-.329-.329h0a.836.836,0,0,1,0-1.466h0a.836.836,0,0,0,.329-.329Z" transform="translate(2.394 2.394)" fill="#ebbb00"/>
    </g>
    <g id="Group_82" data-name="Group 82" transform="translate(442.834 360.665)">
      <path id="Polygon_1-3" data-name="Polygon 1" d="M3.762,1.592a1,1,0,0,1,1.752,0l.63,1.145a1,1,0,0,0,.394.394l1.145.63a1,1,0,0,1,0,1.752l-1.145.63a1,1,0,0,0-.394.394l-.63,1.145a1,1,0,0,1-1.752,0l-.63-1.145a1,1,0,0,0-.394-.394l-1.145-.63a1,1,0,0,1,0-1.752l1.145-.63a1,1,0,0,0,.394-.394Z" transform="translate(0 0)" fill="#ffd73b"/>
      <path id="Polygon_2-3" data-name="Polygon 2" d="M1.661,1.331a.836.836,0,0,1,1.466,0h0a.836.836,0,0,0,.329.329h0a.836.836,0,0,1,0,1.466h0a.836.836,0,0,0-.329.329h0a.836.836,0,0,1-1.466,0h0a.836.836,0,0,0-.329-.329h0a.836.836,0,0,1,0-1.466h0a.836.836,0,0,0,.329-.329Z" transform="translate(2.394 2.394)" fill="#ebbb00"/>
    </g>
    <path id="Path_28438" data-name="Path 28438" d="M54.393,0,84.262,65.4S67.579,78.009,54.688,82.725,32.7,84.263,32.7,84.263L0,0Z" transform="matrix(0.998, 0.07, -0.07, 0.998, 409.506, 370.193)" opacity="0.1" fill="url(#linear-gradient)"/>
    <g id="shield" transform="translate(414.938 369.203)">
      <path id="Path_28439" data-name="Path 28439" d="M133.585,106.155l-27.017,11.375L79.551,106.155V46.434h54.034Z" transform="translate(-72.441 -39.324)" fill="#0064d8"/>
      <rect id="Rectangle_1054" data-name="Rectangle 1054" width="21.329" height="29.861" transform="translate(34.126 12.797)" fill="url(#linear-gradient-2)"/>
      <g id="Group_7566" data-name="Group 7566" transform="translate(12.797 12.797)">
        <rect id="Rectangle_1055" data-name="Rectangle 1055" width="21.329" height="29.861" transform="translate(0)" fill="#fff"/>
        <path id="Path_28440" data-name="Path 28440" d="M256,278.6v28.439l21.329-8.532V278.6Z" transform="translate(-234.671 -248.743)" fill="#fff"/>
      </g>
      <path id="Path_28441" data-name="Path 28441" d="M116.7,278.6v19.907l21.329,8.532V278.6Z" transform="translate(-103.901 -235.946)" fill="url(#linear-gradient-2)"/>
      <g id="Group_7567" data-name="Group 7567">
        <path id="Path_28442" data-name="Path 28442" d="M48.206,361.529,36.6,356.649a5.676,5.676,0,0,1-3.481-5.25V334.325h2.844V351.4a2.834,2.834,0,0,0,1.74,2.621l11.609,4.889Z" transform="translate(-33.117 -283.135)" fill="#b3b3b3"/>
        <rect id="Rectangle_1056" data-name="Rectangle 1056" width="2.844" height="2.844" transform="translate(0 45.502)" fill="#b3b3b3"/>
        <path id="Path_28443" data-name="Path 28443" d="M423.83,27.017h-2.844V5.688a2.843,2.843,0,0,0-2.844-2.844h-4.266V0h4.266a5.688,5.688,0,0,1,5.688,5.688Z" transform="translate(-355.577)" fill="#b3b3b3"/>
        <rect id="Rectangle_1057" data-name="Rectangle 1057" width="2.844" height="2.844" transform="translate(65.409 29.861)" fill="#b3b3b3"/>
      </g>
      <path id="Path_28444" data-name="Path 28444" d="M217.342,162.808H214.5v-5.688a5.688,5.688,0,1,0-11.375,0v5.688h-2.844v-5.688a8.532,8.532,0,1,1,17.063,0Z" transform="translate(-174.684 -125.838)" fill="#0064d8"/>
      <rect id="Rectangle_1058" data-name="Rectangle 1058" width="22.751" height="19.907" transform="translate(22.751 35.548)" fill="#ffd73b"/>
      <path id="Path_28445" data-name="Path 28445" d="M236.671,264.2a4.266,4.266,0,1,0-5.688,4.006v3.1h2.844v-3.106A4.266,4.266,0,0,0,236.671,264.2Zm-4.266,1.422a1.422,1.422,0,1,1,1.422-1.422A1.422,1.422,0,0,1,232.4,265.624Z" transform="translate(-198.278 -220.122)" fill="#0064d8"/>
    </g>
  </g>
</svg>
