<svg xmlns="http://www.w3.org/2000/svg" width="69.428" height="45.279" viewBox="0 0 69.428 45.279">
  <g id="users" transform="translate(0 -85.333)" opacity="0.16">
    <g id="Group_7632" data-name="Group 7632" transform="translate(24.149 85.333)">
      <g id="Group_7631" data-name="Group 7631" transform="translate(0 0)">
        <circle id="Ellipse_3019" data-name="Ellipse 3019" cx="10.565" cy="10.565" r="10.565" fill="#fff"/>
      </g>
    </g>
    <g id="Group_7634" data-name="Group 7634" transform="translate(48.298 97.408)">
      <g id="Group_7633" data-name="Group 7633" transform="translate(0 0)">
        <circle id="Ellipse_3020" data-name="Ellipse 3020" cx="7.546" cy="7.546" r="7.546" fill="#fff"/>
      </g>
    </g>
    <g id="Group_7636" data-name="Group 7636" transform="translate(6.252 97.408)">
      <g id="Group_7635" data-name="Group 7635" transform="translate(0 0)">
        <circle id="Ellipse_3021" data-name="Ellipse 3021" cx="7.546" cy="7.546" r="7.546" fill="#fff"/>
      </g>
    </g>
    <g id="Group_7638" data-name="Group 7638" transform="translate(15.093 109.482)">
      <g id="Group_7637" data-name="Group 7637" transform="translate(0 0)">
        <path id="Path_28587" data-name="Path 28587" d="M126.287,256a19.644,19.644,0,0,0-19.621,19.621,1.51,1.51,0,0,0,1.509,1.509H144.4a1.51,1.51,0,0,0,1.509-1.509A19.644,19.644,0,0,0,126.287,256Z" transform="translate(-106.666 -256)" fill="#fff"/>
      </g>
    </g>
    <g id="Group_7640" data-name="Group 7640" transform="translate(0 115.519)">
      <g id="Group_7639" data-name="Group 7639" transform="translate(0 0)">
        <path id="Path_28588" data-name="Path 28588" d="M16.4,298.993a13.541,13.541,0,0,0-2.816-.326A13.6,13.6,0,0,0,0,312.251a1.51,1.51,0,0,0,1.509,1.509H12.352a4.476,4.476,0,0,1-.278-1.509A22.5,22.5,0,0,1,16.4,298.993Z" transform="translate(0 -298.667)" fill="#fff"/>
      </g>
    </g>
    <g id="Group_7642" data-name="Group 7642" transform="translate(53.028 115.519)">
      <g id="Group_7641" data-name="Group 7641" transform="translate(0 0)">
        <path id="Path_28589" data-name="Path 28589" d="M377.579,298.667a13.543,13.543,0,0,0-2.816.326,22.5,22.5,0,0,1,4.326,13.258,4.476,4.476,0,0,1-.278,1.509h10.843a1.51,1.51,0,0,0,1.509-1.509A13.6,13.6,0,0,0,377.579,298.667Z" transform="translate(-374.763 -298.667)" fill="#fff"/>
      </g>
    </g>
  </g>
</svg>
