<svg xmlns="http://www.w3.org/2000/svg" width="23" height="23.007" viewBox="0 0 23 23.007">
  <g id="view-white" transform="translate(0 0)">
    <path id="Path_28571" data-name="Path 28571" d="M288.793,32.4a.4.4,0,1,1-.4-.4A.4.4,0,0,1,288.793,32.4Zm0,0" transform="translate(-273.72 -30.413)" fill="#fff"/>
    <path id="Path_28572" data-name="Path 28572" d="M224.793,32.4a.4.4,0,1,1-.4-.4A.4.4,0,0,1,224.793,32.4Zm0,0" transform="translate(-212.894 -30.413)" fill="#fff"/>
    <path id="Path_28573" data-name="Path 28573" d="M185.434,394.436l1.468-.209-1.258-1.258Zm0,0" transform="translate(-176.24 -373.484)" fill="#fff"/>
    <path id="Path_28574" data-name="Path 28574" d="M195.313,219.478l8.166-8.166.629.629-8.166,8.166Zm0,0" transform="translate(-185.629 -200.835)" fill="#fff"/>
    <path id="Path_28575" data-name="Path 28575" d="M13.925,11.313l-2.612,2.612h2.612Zm0,0" transform="translate(-10.752 -10.752)" fill="#fff"/>
    <path id="Path_28576" data-name="Path 28576" d="M32,167.14h7.933V160H32Zm.793-6.347h2.38v.793H33.587v2.38h-.793Zm0,3.967h.793v.793h-.793Zm0,0" transform="translate(-30.414 -152.067)" fill="#fff"/>
    <path id="Path_28577" data-name="Path 28577" d="M160.793,32.4a.4.4,0,1,1-.4-.4A.4.4,0,0,1,160.793,32.4Zm0,0" transform="translate(-152.067 -30.413)" fill="#fff"/>
    <path id="Path_28578" data-name="Path 28578" d="M219.313,243.478l8.166-8.166.629.629-8.166,8.166Zm0,0" transform="translate(-208.439 -223.645)" fill="#fff"/>
    <path id="Path_28579" data-name="Path 28579" d="M396.893,144.129l-1.58,1.58,1.819,1.819,1.58-1.58A1.986,1.986,0,0,0,396.893,144.129Zm0,0" transform="translate(-375.712 -136.983)" fill="#fff"/>
    <path id="Path_28580" data-name="Path 28580" d="M371.309,187.938l.629-.629,1.819,1.819-.629.629Zm0,0" transform="translate(-352.899 -178.021)" fill="#fff"/>
    <path id="Path_28581" data-name="Path 28581" d="M8.259,21.888l.49-3.431,7.911-7.911V0H3.966V3.967H0v19.04H16.66V16.427L11.69,21.4Zm7.608-10.781h-4.76v-.793h4.76Zm0-1.587h-4.76V8.727h4.76Zm0-1.587h-4.76V7.14h4.76ZM14.676.793a1.19,1.19,0,1,1-1.19,1.19A1.192,1.192,0,0,1,14.676.793ZM11.5.793a1.19,1.19,0,1,1-1.19,1.19A1.192,1.192,0,0,1,11.5.793ZM8.33.793a1.19,1.19,0,1,1-1.19,1.19A1.192,1.192,0,0,1,8.33.793ZM5.553,3.967H15.866V4.76H5.553ZM.793,5.553H15.866v.793H.793Zm0,1.587h9.52v8.727H.793Zm0,12.693H5.95v.793H.793Zm6.743,2.38H.793V21.42H7.536Zm0-1.587H6.743v-.793h.793Zm0-1.587H.793v-.793H7.536Zm0-1.587H.793V16.66H7.536ZM14.28,21.42h.793V18.643h.793v3.57H14.28Zm-1.587,0h.793v.793h-.793Zm0,0" fill="#fff"/>
  </g>
</svg>
