<svg xmlns="http://www.w3.org/2000/svg" width="64.584" height="51.585" viewBox="0 0 64.584 51.585">
  <g id="tags" transform="translate(0 -51.407)">
    <g id="Group_7539" data-name="Group 7539" transform="translate(0 84.021)">
      <path id="Path_28180" data-name="Path 28180" d="M43.295,328.5l-33.832-.011a9.476,9.476,0,1,1,.027-18.951l11.142.009a1.9,1.9,0,0,1,1.127.372l18.517,13.7a5.51,5.51,0,0,0,3.059,1.085,1.9,1.9,0,0,1-.04,3.791Z" transform="translate(0 -309.542)" fill="#f03800"/>
    </g>
    <g id="Group_7540" data-name="Group 7540" transform="translate(7.585 91.599)">
      <circle id="Ellipse_342" data-name="Ellipse 342" cx="1.896" cy="1.896" r="1.896" transform="translate(0 0)" fill="#e3e7ea"/>
    </g>
    <g id="Group_7541" data-name="Group 7541" transform="translate(6.722 63.718)">
      <path id="Path_28181" data-name="Path 28181" d="M86.911,185.792a1.889,1.889,0,0,0-.358-2.621,6.135,6.135,0,0,1-1.96-2.868l-5.338-17.5L77.9,158.335a1.865,1.865,0,0,0-.7-.973l-8.893-6.575a9.5,9.5,0,0,0-13.278,1.929,8.363,8.363,0,0,0-.755,1.221,9.536,9.536,0,0,0,2.377,11.787,2.138,2.138,0,0,0,.378.3L84.24,186.177a1.935,1.935,0,0,0,2.67-.381Z" transform="translate(-53.182 -148.909)" fill="#fdbf00"/>
    </g>
    <g id="Group_7545" data-name="Group 7545" transform="translate(24.166 51.392)">
      <g id="Group_7543" data-name="Group 7543">
        <g id="Group_7542" data-name="Group 7542">
          <path id="Path_28182" data-name="Path 28182" d="M203.8,97.235a1.9,1.9,0,0,1-2.333-1.27L191.62,63.634a9.462,9.462,0,0,1,18.1-5.525L213,68.726a1.9,1.9,0,0,1-.025,1.194l-7.7,21.692a5.6,5.6,0,0,0-.161,3.312,1.9,1.9,0,0,1-1.311,2.311Z" transform="translate(-191.188 -51.392)" fill="#00a66c"/>
        </g>
      </g>
      <g id="Group_7544" data-name="Group 7544" transform="translate(7.587 7.584)">
        <circle id="Ellipse_343" data-name="Ellipse 343" cx="1.896" cy="1.896" r="1.896" transform="translate(0 0)" fill="#fff5f5"/>
      </g>
    </g>
    <g id="Group_7549" data-name="Group 7549" transform="translate(34.116 51.631)">
      <g id="Group_7548" data-name="Group 7548">
        <g id="Group_7547" data-name="Group 7547">
          <g id="Group_7546" data-name="Group 7546">
            <path id="Path_28183" data-name="Path 28183" d="M279.885,104.623l-.833.011a8.961,8.961,0,0,1-2.816-.535,9.423,9.423,0,0,1-2.683-1.5,9.747,9.747,0,0,1-3.209-4.623c-.012-.038-.114-.388-.124-.427a9.348,9.348,0,0,1,.25-5.556l11.494-32.4a9.48,9.48,0,1,1,17.869,6.338l-11.494,32.4A9.6,9.6,0,0,1,279.885,104.623Z" transform="translate(-269.913 -53.282)" fill="#4086f4"/>
          </g>
        </g>
      </g>
    </g>
    <path id="Path_28184" data-name="Path 28184" d="M323.588,108.4a9.6,9.6,0,0,0,8.455-6.289l11.494-32.4a9.491,9.491,0,0,0-5.765-12.1L319.94,107.882a8.961,8.961,0,0,0,2.816.535Z" transform="translate(-279.5 -5.425)" fill="#4175df"/>
    <g id="Group_7550" data-name="Group 7550" transform="translate(41.713 91.617)">
      <circle id="Ellipse_344" data-name="Ellipse 344" cx="1.896" cy="1.896" r="1.896" transform="translate(0 0)" fill="#e3e7ea"/>
    </g>
    <path id="Path_28185" data-name="Path 28185" d="M342.419,372.921a1.9,1.9,0,0,0-1.153-2.421L340,374.074a1.9,1.9,0,0,0,2.421-1.153Z" transform="translate(-297.023 -278.774)" fill="#e3e7ea"/>
    <g id="Group_7551" data-name="Group 7551" transform="translate(53.207 59.215)">
      <circle id="Ellipse_345" data-name="Ellipse 345" cx="1.896" cy="1.896" r="1.896" transform="translate(0 0)" fill="#fff5f5"/>
    </g>
    <g id="Group_7552" data-name="Group 7552" transform="translate(14.281 71.31)">
      <path id="Path_28186" data-name="Path 28186" d="M116.418,211.971a1.772,1.772,0,0,0,.11-2.013,1.391,1.391,0,0,0-.5-.621,1.79,1.79,0,0,0-1.819-.2,1.83,1.83,0,0,0-.815.6,1.86,1.86,0,0,0,.381,2.67,1.886,1.886,0,0,0,2.647-.429Z" transform="translate(-112.988 -208.973)" fill="#fff5f5"/>
    </g>
    <g id="Group_7553" data-name="Group 7553" transform="translate(14.281 59.324)">
      <path id="Path_28187" data-name="Path 28187" d="M116.418,213.089a1.772,1.772,0,0,0,.11-2.013l-2.323-.824a1.83,1.83,0,0,0-.815.6,1.86,1.86,0,0,0,.381,2.67,1.886,1.886,0,0,0,2.647-.433Z" transform="translate(-112.988 -198.105)" fill="#e3e7ea"/>
      <path id="Path_28188" data-name="Path 28188" d="M433.353,116.571a1.9,1.9,0,0,0-1.153-2.421l-1.268,3.574a1.9,1.9,0,0,0,2.421-1.153Z" transform="translate(-390.745 -114.15)" fill="#e3e7ea"/>
    </g>
  </g>
</svg>
