<svg xmlns="http://www.w3.org/2000/svg" width="50.418" height="50.84" viewBox="0 0 50.418 50.84">
  <g id="book-black" transform="translate(-146.951 -1059)">
    <g id="Group_7595" data-name="Group 7595" transform="translate(-189 687.334)">
      <g id="Group_80" data-name="Group 80" transform="translate(376.909 393.026)">
        <path id="Polygon_1" data-name="Polygon 1" d="M3.854,1.592a1,1,0,0,1,1.752,0L6.269,2.8a1,1,0,0,0,.394.394l1.205.663a1,1,0,0,1,0,1.752l-1.205.663a1,1,0,0,0-.394.394L5.606,7.868a1,1,0,0,1-1.752,0L3.191,6.663A1,1,0,0,0,2.8,6.269L1.592,5.606a1,1,0,0,1,0-1.752L2.8,3.191A1,1,0,0,0,3.191,2.8Z" fill="#ffd73b"/>
        <path id="Polygon_2" data-name="Polygon 2" d="M1.694,1.358a.853.853,0,0,1,1.495,0h0a.853.853,0,0,0,.336.336h0a.853.853,0,0,1,0,1.495h0a.853.853,0,0,0-.336.336h0a.853.853,0,0,1-1.495,0h0a.853.853,0,0,0-.336-.336h0a.853.853,0,0,1,0-1.495h0a.853.853,0,0,0,.336-.336Z" transform="translate(2.441 2.441)" fill="#ebbb00"/>
      </g>
      <g id="Group_81" data-name="Group 81" transform="translate(335.951 415.916)">
        <path id="Polygon_1-2" data-name="Polygon 1" d="M2.419,1.592a1,1,0,0,1,1.752,0l.154.279a1,1,0,0,0,.394.394L5,2.419A1,1,0,0,1,5,4.171l-.279.154a1,1,0,0,0-.394.394L4.171,5A1,1,0,0,1,2.419,5l-.154-.279a1,1,0,0,0-.394-.394l-.279-.154a1,1,0,0,1,0-1.752l.279-.154a1,1,0,0,0,.394-.394Z" transform="translate(0)" fill="#ffd73b"/>
        <path id="Polygon_2-2" data-name="Polygon 2" d="M1.309,1.049a.659.659,0,0,1,1.155,0h0a.659.659,0,0,0,.26.26h0a.659.659,0,0,1,0,1.155h0a.659.659,0,0,0-.26.26h0a.659.659,0,0,1-1.155,0h0a.659.659,0,0,0-.26-.26h0a.659.659,0,0,1,0-1.155h0a.659.659,0,0,0,.26-.26Z" transform="translate(1.502 1.502)" fill="#ebbb00"/>
      </g>
      <g id="Group_82" data-name="Group 82" transform="translate(344.247 371.665)">
        <path id="Polygon_1-3" data-name="Polygon 1" d="M2.42,1.592a1,1,0,0,1,1.752,0l.154.28a1,1,0,0,0,.394.394L5,2.42A1,1,0,0,1,5,4.173l-.28.154a1,1,0,0,0-.394.394L4.173,5A1,1,0,0,1,2.42,5l-.154-.28a1,1,0,0,0-.394-.394l-.28-.154a1,1,0,0,1,0-1.752l.28-.154a1,1,0,0,0,.394-.394Z" transform="translate(0 0)" fill="#ffd73b"/>
        <path id="Polygon_2-3" data-name="Polygon 2" d="M1.181.946a.6.6,0,0,1,1.042,0h0a.6.6,0,0,0,.234.234h0a.6.6,0,0,1,0,1.042h0a.6.6,0,0,0-.234.234h0a.6.6,0,0,1-1.042,0h0a.6.6,0,0,0-.234-.234h0a.6.6,0,0,1,0-1.042h0A.6.6,0,0,0,1.181.946Z" transform="translate(1.701 1.701)" fill="#ebbb00"/>
      </g>
    </g>
    <g id="book_1_" data-name="book (1)" transform="translate(125 982)">
      <path id="Path_28517" data-name="Path 28517" d="M46.024,160.786l0,0v2.716H29.508a1.038,1.038,0,0,1-1.038-1.038v-22.2a1.038,1.038,0,0,1,1.038-1.038H31.97v18.092a2.7,2.7,0,0,0,2.7,2.7h8.776a2.678,2.678,0,0,1,.922.163Z" transform="translate(-5.91 -48.624)" fill="#1c2848"/>
      <path id="Path_28518" data-name="Path 28518" d="M235.591,388.354v2.716h-.059a5.917,5.917,0,0,0-4.153,0h-.059v-2.716l0,0,1.212.44a2.692,2.692,0,0,0,1.843,0l1.212-.44Z" transform="translate(-191.208 -276.189)" fill="#1c2848"/>
      <path id="Path_28519" data-name="Path 28519" d="M298.214,140.268v22.2a1.038,1.038,0,0,1-1.038,1.038H280.662V160.79l0,0,1.66-.6a2.678,2.678,0,0,1,.921-.163h8.776a2.7,2.7,0,0,0,2.7-2.7V139.23h2.462A1.038,1.038,0,0,1,298.214,140.268Z" transform="translate(-236.279 -48.624)" fill="#1c2848"/>
      <path id="Path_28520" data-name="Path 28520" d="M255.991,118.408V93.579a2.7,2.7,0,0,0,.922-.163l2.872-1.044a2.678,2.678,0,0,1,.922-.163h8.776a2.7,2.7,0,0,1,2.7,2.7V114.37a2.7,2.7,0,0,1-2.7,2.7h-8.776a2.678,2.678,0,0,0-.922.163l-1.66.6-1.212.44a2.7,2.7,0,0,1-.922.163Z" transform="translate(-213.744 -5.673)" fill="#d9d9d9"/>
      <path id="Path_28521" data-name="Path 28521" d="M84.259,93.224l-2.872-1.053A2.688,2.688,0,0,0,80.466,92H71.69A2.707,2.707,0,0,0,69,94.716v19.463a2.729,2.729,0,0,0,2.69,2.741h8.776a2.659,2.659,0,0,1,.922.141l1.66.592,1.212.435a2.692,2.692,0,0,0,.921.16V93.387a2.7,2.7,0,0,1-.922-.163Z" transform="translate(-42.933 -5.481)" fill="#d9d9d9"/>
      <path id="Path_28522" data-name="Path 28522" d="M115.65,162.58h8.171v4.586H115.65Z" transform="translate(-85.547 -69.954)" fill="#1c2848"/>
      <path id="Path_28523" data-name="Path 28523" d="M71.6,114.179V94.716A2.707,2.707,0,0,1,74.286,92h-2.6A2.707,2.707,0,0,0,69,94.716v19.463a2.729,2.729,0,0,0,2.69,2.741h2.6A2.729,2.729,0,0,1,71.6,114.179Z" transform="translate(-42.933 -5.481)" fill="silver"/>
      <path id="Path_28524" data-name="Path 28524" d="M31.066,162.468v-22.2a1.037,1.037,0,0,1,.9-1.029v-.01H29.508a1.038,1.038,0,0,0-1.038,1.038v22.2a1.038,1.038,0,0,0,1.038,1.038h2.6A1.038,1.038,0,0,1,31.066,162.468Z" transform="translate(-5.91 -48.624)" fill="silver"/>
      <g id="Group_7636" data-name="Group 7636" transform="translate(22 86)">
        <path id="Path_28525" data-name="Path 28525" d="M296.439,158.038h3.451a.519.519,0,0,0,0-1.038h-3.451a.519.519,0,0,0,0,1.038Z" transform="translate(-272.219 -150.857)" fill="#181818"/>
        <path id="Path_28526" data-name="Path 28526" d="M304.61,206h-8.171a.519.519,0,0,0,0,1.038h8.171a.519.519,0,0,0,0-1.038Z" transform="translate(-272.219 -195.617)" fill="#181818"/>
        <path id="Path_28527" data-name="Path 28527" d="M304.61,255h-8.171a.519.519,0,0,0,0,1.038h8.171a.519.519,0,0,0,0-1.038Z" transform="translate(-272.219 -240.377)" fill="#181818"/>
        <path id="Path_28528" data-name="Path 28528" d="M304.61,304h-8.171a.519.519,0,0,0,0,1.038h8.171a.519.519,0,0,0,0-1.038Z" transform="translate(-272.219 -285.137)" fill="#181818"/>
        <path id="Path_28529" data-name="Path 28529" d="M118.34,255h-8.171a.519.519,0,1,0,0,1.038h8.171a.519.519,0,1,0,0-1.038Z" transform="translate(-102.066 -240.377)" fill="#181818"/>
        <path id="Path_28530" data-name="Path 28530" d="M118.34,304h-8.171a.519.519,0,1,0,0,1.038h8.171a.519.519,0,1,0,0-1.038Z" transform="translate(-102.066 -285.137)" fill="#181818"/>
        <path id="Path_28531" data-name="Path 28531" d="M60.9,90.067H58.947v-.832A3.23,3.23,0,0,0,55.738,86H46.962a3.192,3.192,0,0,0-1.1.2l-2.872,1.048a2.182,2.182,0,0,1-1.488,0L38.633,86.2a3.2,3.2,0,0,0-1.1-.2H32.5a.519.519,0,1,0,0,1.038h5.034a2.162,2.162,0,0,1,.744.141l2.872,1.048a3.22,3.22,0,0,0,.58.155v23.8a2.182,2.182,0,0,1-.225-.067l-2.871-1.021a3.168,3.168,0,0,0-1.1-.173H28.757a2.213,2.213,0,0,1-2.171-2.222V89.235a2.191,2.191,0,0,1,2.171-2.2H31A.519.519,0,0,0,31,86H28.757a3.23,3.23,0,0,0-3.209,3.235v.832H23.6A1.612,1.612,0,0,0,22,91.644v22.2a1.61,1.61,0,0,0,1.6,1.576H40.171a.53.53,0,0,0,.182-.042,5.315,5.315,0,0,1,3.789,0,.527.527,0,0,0,.183.04H60.9a1.61,1.61,0,0,0,1.6-1.576v-2.52a.519.519,0,0,0-1.038,0v2.52a.572.572,0,0,1-.56.537H44.93v-1.856l1.3-.457a2.058,2.058,0,0,1,.729-.109h8.776a3.251,3.251,0,0,0,3.209-3.26V91.105H60.9a.573.573,0,0,1,.56.539v17.747a.519.519,0,0,0,1.038,0V91.644A1.612,1.612,0,0,0,60.9,90.067ZM39.565,114.381H23.6a.572.572,0,0,1-.56-.537v-22.2a.573.573,0,0,1,.56-.539h1.949V108.7a3.252,3.252,0,0,0,3.209,3.26h8.776a2.059,2.059,0,0,1,.73.11l1.3.457Zm4.326-.188a6.646,6.646,0,0,0-3.288,0V112.9l.531.188a3.245,3.245,0,0,0,1.1.194,3.308,3.308,0,0,0,1.117-.194l.535-.188Zm14.017-5.5a2.213,2.213,0,0,1-2.171,2.222H46.962a3.167,3.167,0,0,0-1.1.172l-2.872,1.033a2.1,2.1,0,0,1-.225.056v-23.8a3.207,3.207,0,0,0,.58-.15l2.873-1.053a2.16,2.16,0,0,1,.743-.14h8.776a2.191,2.191,0,0,1,2.171,2.2Z" transform="translate(-22 -86)" fill="#181818"/>
        <path id="Path_28532" data-name="Path 28532" d="M118.653,157h-8.134a.519.519,0,0,0-.519.519v4.586a.519.519,0,0,0,.519.519h8.134a.519.519,0,0,0,.519-.519v-4.586A.519.519,0,0,0,118.653,157Zm-.519,4.586h-7.1v-3.548h7.1Z" transform="translate(-102.386 -150.857)" fill="#181818"/>
      </g>
    </g>
  </g>
</svg>
