<svg xmlns="http://www.w3.org/2000/svg" width="41.712" height="44.616" viewBox="0 0 41.712 44.616">
  <g id="classroom" transform="translate(0.002)">
    <g id="_001-work-1" data-name="001-work-1">
      <g id="Group_268" data-name="Group 268" transform="translate(11.121 31.228)">
        <g id="Group_267" data-name="Group 267">
          <path id="Path_2" data-name="Path 2" d="M155.733,343.5a3.839,3.839,0,0,0,.765-2.3v-1.485a3.485,3.485,0,1,0-6.954,0V341.2a3.84,3.84,0,0,0,.765,2.3,3.447,3.447,0,0,0-2.158,1.443,3.447,3.447,0,0,0-2.158-1.443,3.839,3.839,0,0,0,.765-2.3v-1.486a3.485,3.485,0,1,0-6.954,0V341.2a3.839,3.839,0,0,0,.765,2.3,3.447,3.447,0,0,0-2.158,1.443,3.447,3.447,0,0,0-2.158-1.443,3.84,3.84,0,0,0,.765-2.3v-1.486a3.485,3.485,0,1,0-6.954,0V341.2a3.839,3.839,0,0,0,.765,2.3A3.663,3.663,0,0,0,128,347.158v2.23h1.39v-2.23a2.161,2.161,0,0,1,2.085-2.23h4.17a2.161,2.161,0,0,1,2.085,2.23v2.23h1.39v-2.23a2.161,2.161,0,0,1,2.085-2.23h4.17a2.161,2.161,0,0,1,2.085,2.23v2.23h1.39v-2.23a2.161,2.161,0,0,1,2.085-2.23h4.17a2.161,2.161,0,0,1,2.085,2.23v2.23h1.39v-2.23a3.661,3.661,0,0,0-2.846-3.655Zm-20.087-2.3a2.09,2.09,0,1,1-4.17,0v-1.485a2.09,2.09,0,1,1,4.17,0Zm9.731,0a2.09,2.09,0,1,1-4.17,0v-1.485a2.09,2.09,0,1,1,4.17,0Zm9.731,0a2.09,2.09,0,1,1-4.17,0v-1.485a2.09,2.09,0,1,1,4.17,0Z" transform="translate(-128 -336)" fill="#fff"/>
        </g>
      </g>
      <g id="Group_270" data-name="Group 270" transform="translate(0 7.435)">
        <g id="Group_269" data-name="Group 269">
          <path id="Path_3" data-name="Path 3" d="M16.936,87.486a.654.654,0,0,0-.254-.051H13.9a.7.7,0,0,0-.653.489l-.736,2.168-.024-.071a3.7,3.7,0,0,0-3.452-2.582H9.018a3.846,3.846,0,0,0,.713-2.23v-1.49A3.6,3.6,0,0,0,6.254,80a3.6,3.6,0,0,0-3.477,3.719v1.486a3.846,3.846,0,0,0,.717,2.233H3.477A3.6,3.6,0,0,0,0,91.158v8.921a.721.721,0,0,0,.7.744H2.781v7.212l-1.273,2.041a.788.788,0,0,0-.033.762.691.691,0,0,0,.611.393h8.346a.691.691,0,0,0,.611-.393.788.788,0,0,0-.033-.762l-1.273-2.041V94.312l.175.372a2.82,2.82,0,0,0,2.66,1.678,2.859,2.859,0,0,0,2.521-1.909l1.128-3.018,1.113-2.974a.792.792,0,0,0-.007-.577A.718.718,0,0,0,16.936,87.486ZM4.17,83.719a2.161,2.161,0,0,1,2.085-2.23,2.161,2.161,0,0,1,2.085,2.23v1.486a2.161,2.161,0,0,1-2.085,2.23,2.161,2.161,0,0,1-2.085-2.23ZM2.781,99.331H1.39V97.844H2.781ZM6.954,109.74v-8.921H5.561v8.921H3.385l.669-1.075a.785.785,0,0,0,.12-.413V99.331H8.34v8.921a.785.785,0,0,0,.12.413l.669,1.075ZM13.8,93.894a1.461,1.461,0,0,1-1.287.974,1.441,1.441,0,0,1-1.359-.856L9.662,90.82a.682.682,0,0,0-.783-.4.736.736,0,0,0-.536.727v6.691H4.17v-6.68a.758.758,0,0,0-.339-.67.657.657,0,0,0-.712,0,.758.758,0,0,0-.339.67v5.2H1.39v-5.2A2.312,2.312,0,0,1,2,89.576a2.019,2.019,0,0,1,1.478-.655H5.561V96.36H6.954V88.921H9.036a2.3,2.3,0,0,1,2.144,1.607l.677,1.993a.681.681,0,0,0,1.307,0l.212-.626h1.165Zm1.3-3.486H13.882l.506-1.486h1.267Z" transform="translate(0 -80)" fill="#fff"/>
        </g>
      </g>
      <g id="Group_272" data-name="Group 272" transform="translate(11.121)">
        <g id="Group_271" data-name="Group 271">
          <path id="Path_4" data-name="Path 4" d="M157.888,4.461a.721.721,0,0,0,.7-.744V.744a.721.721,0,0,0-.7-.744H128.7a.721.721,0,0,0-.7.744V3.719a.721.721,0,0,0,.7.744h.7v8.921h1.39V4.461H155.8V20.818H133.561V22.3H142.6v3.286l-4.518,2.76.689,1.29L142.6,27.3v2.44h1.39V27.3l3.822,2.338.689-1.29-4.512-2.76V22.3h14.6V20.818H157.2V4.461Zm-28.5-1.486V1.486h27.8V2.974Z" transform="translate(-128)" fill="#fff"/>
        </g>
      </g>
      <g id="Group_274" data-name="Group 274" transform="translate(18.362 7.457)">
        <g id="Group_273" data-name="Group 273">
          <path id="Path_5" data-name="Path 5" d="M227.216,80.984l-2.781-.744-.338,1.443,1.3.348-5.276,3.95-3.068-2.627a.66.66,0,0,0-.839-.024l-4.866,3.719.808,1.209,4.436-3.39,3.065,2.623a.66.66,0,0,0,.839.028l5.856-4.385v1.543h1.39V81.7a.736.736,0,0,0-.526-.716Z" transform="translate(-211.351 -80.24)" fill="#fff"/>
        </g>
      </g>
    </g>
  </g>
</svg>
