<svg xmlns="http://www.w3.org/2000/svg" xmlns:xlink="http://www.w3.org/1999/xlink" width="82.418" height="64.82" viewBox="0 0 82.418 64.82">
  <defs>
    <linearGradient id="linear-gradient" x1="0.5" x2="0.5" y2="1" gradientUnits="objectBoundingBox">
      <stop offset="0" stop-color="#0064d8"/>
      <stop offset="1" stop-color="#1c2848"/>
    </linearGradient>
  </defs>
  <g id="degree" transform="translate(14.049 12)">
    <path id="Path_18439" data-name="Path 18439" d="M20.617,24.614a1.673,1.673,0,0,1-.669-.14L6,18.338a1.673,1.673,0,0,1,0-3.066L19.946,9.138a1.684,1.684,0,0,1,1.348,0l13.942,6.135a1.673,1.673,0,0,1,0,3.066L21.289,24.473A1.673,1.673,0,0,1,20.617,24.614Z" transform="translate(6.154 9.842)" fill="url(#linear-gradient)"/>
    <path id="Path_18440" data-name="Path 18440" d="M20.175,19.526a5.034,5.034,0,0,1-4.034,0L7,15.5V17.04a3.915,3.915,0,0,0,1.857,3.335,17.786,17.786,0,0,0,9.3,2.927,17.806,17.806,0,0,0,9.3-2.927,3.912,3.912,0,0,0,1.857-3.335V15.5Z" transform="translate(8.617 17.854)" fill="url(#linear-gradient)"/>
    <path id="Path_18441" data-name="Path 18441" d="M46.848,1H6.69A6.7,6.7,0,0,0,0,7.69v35.7a6.7,6.7,0,0,0,6.69,6.69H46.848a6.7,6.7,0,0,0,6.69-6.69V7.69A6.7,6.7,0,0,0,46.848,1Zm0,44.617H6.69a2.233,2.233,0,0,1-2.231-2.231V12.154h44.62V43.386A2.233,2.233,0,0,1,46.848,45.617Z" fill="#181818"/>
    <g id="Group_7659" data-name="Group 7659" transform="translate(-159 -1067)">
      <g id="Group_7595" data-name="Group 7595" transform="translate(-189 687.334)">
        <g id="Group_80" data-name="Group 80" transform="translate(406.909 423.026)">
          <path id="Polygon_1" data-name="Polygon 1" d="M3.854,1.592a1,1,0,0,1,1.752,0L6.269,2.8a1,1,0,0,0,.394.394l1.205.663a1,1,0,0,1,0,1.752l-1.205.663a1,1,0,0,0-.394.394L5.606,7.868a1,1,0,0,1-1.752,0L3.191,6.663A1,1,0,0,0,2.8,6.269L1.592,5.606a1,1,0,0,1,0-1.752L2.8,3.191A1,1,0,0,0,3.191,2.8Z" fill="#ffd73b"/>
          <path id="Polygon_2" data-name="Polygon 2" d="M1.694,1.358a.853.853,0,0,1,1.495,0h0a.853.853,0,0,0,.336.336h0a.853.853,0,0,1,0,1.495h0a.853.853,0,0,0-.336.336h0a.853.853,0,0,1-1.495,0h0a.853.853,0,0,0-.336-.336h0a.853.853,0,0,1,0-1.495h0a.853.853,0,0,0,.336-.336Z" transform="translate(2.441 2.441)" fill="#ebbb00"/>
        </g>
        <g id="Group_81" data-name="Group 81" transform="translate(333.951 408.916)">
          <path id="Polygon_1-2" data-name="Polygon 1" d="M2.419,1.592a1,1,0,0,1,1.752,0l.154.279a1,1,0,0,0,.394.394L5,2.419A1,1,0,0,1,5,4.171l-.279.154a1,1,0,0,0-.394.394L4.171,5A1,1,0,0,1,2.419,5l-.154-.279a1,1,0,0,0-.394-.394l-.279-.154a1,1,0,0,1,0-1.752l.279-.154a1,1,0,0,0,.394-.394Z" transform="translate(0)" fill="#ffd73b"/>
          <path id="Polygon_2-2" data-name="Polygon 2" d="M1.309,1.049a.659.659,0,0,1,1.155,0h0a.659.659,0,0,0,.26.26h0a.659.659,0,0,1,0,1.155h0a.659.659,0,0,0-.26.26h0a.659.659,0,0,1-1.155,0h0a.659.659,0,0,0-.26-.26h0a.659.659,0,0,1,0-1.155h0a.659.659,0,0,0,.26-.26Z" transform="translate(1.502 1.502)" fill="#ebbb00"/>
        </g>
        <g id="Group_82" data-name="Group 82" transform="translate(354.247 367.665)">
          <path id="Polygon_1-3" data-name="Polygon 1" d="M2.42,1.592a1,1,0,0,1,1.752,0l.154.28a1,1,0,0,0,.394.394L5,2.42A1,1,0,0,1,5,4.173l-.28.154a1,1,0,0,0-.394.394L4.173,5A1,1,0,0,1,2.42,5l-.154-.28a1,1,0,0,0-.394-.394l-.28-.154a1,1,0,0,1,0-1.752l.28-.154a1,1,0,0,0,.394-.394Z" transform="translate(0 0)" fill="#ffd73b"/>
          <path id="Polygon_2-3" data-name="Polygon 2" d="M1.181.946a.6.6,0,0,1,1.042,0h0a.6.6,0,0,0,.234.234h0a.6.6,0,0,1,0,1.042h0a.6.6,0,0,0-.234.234h0a.6.6,0,0,1-1.042,0h0a.6.6,0,0,0-.234-.234h0a.6.6,0,0,1,0-1.042h0A.6.6,0,0,0,1.181.946Z" transform="translate(1.701 1.701)" fill="#ebbb00"/>
        </g>
      </g>
    </g>
  </g>
</svg>
