<svg xmlns="http://www.w3.org/2000/svg" width="57.191" height="57.146" viewBox="0 0 57.191 57.146">
  <g id="engaging" transform="translate(0.037 0.173)">
    <g id="Group_7770" data-name="Group 7770" transform="translate(1 1.018)">
      <g id="Group_7769" data-name="Group 7769">
        <path id="Path_28400" data-name="Path 28400" d="M54.518,43.414,43.394,36a3.247,3.247,0,0,0-4.348.706l-3.24,4.166a1.385,1.385,0,0,1-1.776.374l-.616-.34c-2.043-1.114-4.586-2.5-9.708-7.625s-6.512-7.669-7.625-9.708l-.338-.616a1.387,1.387,0,0,1,.366-1.782l4.163-3.239a3.249,3.249,0,0,0,.707-4.348L13.56,2.46a3.23,3.23,0,0,0-4.354-.98L4.555,4.274A6.562,6.562,0,0,0,1.563,8.157c-1.675,6.1-.415,16.637,15.1,32.155C29.008,52.654,38.2,55.973,44.512,55.973a16.226,16.226,0,0,0,4.3-.562A6.555,6.555,0,0,0,52.7,52.419l2.8-4.649a3.23,3.23,0,0,0-.982-4.356Zm-.6,3.416-2.791,4.652a4.733,4.733,0,0,1-2.793,2.165c-5.634,1.547-15.478.266-30.374-14.631S1.783,14.277,3.33,8.642a4.741,4.741,0,0,1,2.17-2.8l4.652-2.791a1.4,1.4,0,0,1,1.889.425l4.03,6.05,3.38,5.071a1.41,1.41,0,0,1-.306,1.887L14.98,19.728a3.205,3.205,0,0,0-.849,4.114l.331.6c1.171,2.147,2.626,4.817,7.939,10.129s7.983,6.767,10.128,7.938l.6.332a3.206,3.206,0,0,0,4.114-.849l3.239-4.164a1.41,1.41,0,0,1,1.887-.306L53.492,44.94a1.4,1.4,0,0,1,.427,1.891Z" transform="translate(-1 -1.018)" fill="#fff" stroke="#fff" stroke-width="2"/>
        <path id="Path_28401" data-name="Path 28401" d="M283.544,71.156a15.587,15.587,0,0,1,15.57,15.57.916.916,0,1,0,1.832,0,17.42,17.42,0,0,0-17.4-17.4.916.916,0,0,0,0,1.832Z" transform="translate(-252.402 -61.993)" fill="#fff" stroke="#fff" stroke-width="2"/>
        <path id="Path_28402" data-name="Path 28402" d="M283.544,122.356a10.086,10.086,0,0,1,10.074,10.074.916.916,0,1,0,1.832,0,11.92,11.92,0,0,0-11.906-11.906.916.916,0,0,0,0,1.832Z" transform="translate(-252.402 -107.698)" fill="#fff" stroke="#fff" stroke-width="2"/>
        <path id="Path_28403" data-name="Path 28403" d="M283.544,173.556a4.585,4.585,0,0,1,4.579,4.579.916.916,0,1,0,1.832,0,6.418,6.418,0,0,0-6.411-6.411.916.916,0,0,0,0,1.832Z" transform="translate(-252.402 -153.403)" fill="#fff" stroke="#fff" stroke-width="2"/>
      </g>
    </g>
  </g>
</svg>
