<svg xmlns="http://www.w3.org/2000/svg" width="42.378" height="45.328" viewBox="0 0 42.378 45.328">
  <g id="onsite" transform="translate(0.002 0)">
    <g id="Group_1260" data-name="Group 1260">
      <g id="_003-training" data-name="003-training">
        <g id="Group_276" data-name="Group 276" transform="translate(18.551 40.631)">
          <g id="Group_275" data-name="Group 275">
            <path id="Path_15" data-name="Path 15" d="M228.649,459h-3.655a.887.887,0,0,0,0,1.77h3.655a.887.887,0,0,0,0-1.77Z" transform="translate(-224.167 -459)" fill="#181818"/>
          </g>
        </g>
        <g id="Group_278" data-name="Group 278" transform="translate(28.302 6.409)">
          <g id="Group_277" data-name="Group 277">
            <path id="Path_16" data-name="Path 16" d="M343.414,72.65a.787.787,0,0,0-1.045-.11.92.92,0,0,0-.3,1.074.818.818,0,0,0,.926.53.872.872,0,0,0,.666-.868.925.925,0,0,0-.242-.626Z" transform="translate(-342.001 -72.391)" fill="#181818"/>
          </g>
        </g>
        <g id="Group_280" data-name="Group 280">
          <g id="Group_279" data-name="Group 279">
            <path id="Path_17" data-name="Path 17" d="M41.543,13.63a.858.858,0,0,0,.827-.885V7.294a.892.892,0,0,0-.455-.79H41.9L29.485.088a.779.779,0,0,0-.72,0L16.357,6.5a.913.913,0,0,0,0,1.6l4.837,2.5v5.47a.942.942,0,0,0,.009.12h-.23a2.957,2.957,0,0,0,0,5.9h.267a8.613,8.613,0,0,0,3.374,6.064H16.906a2.828,2.828,0,0,0-1.345.342V15.429a1.4,1.4,0,0,1,1.345-1.439h2.138a.887.887,0,0,0,0-1.77H16.906a2.9,2.9,0,0,0-2.175,1,2.9,2.9,0,0,0-2.175-1H.827A.857.857,0,0,0,0,13.1V32.488a.858.858,0,0,0,.827.885H1.82v4.335H.827a.8.8,0,0,0-.585.26A.917.917,0,0,0,0,38.6v1.594a4.981,4.981,0,0,0,4.8,5.134H37.571a4.981,4.981,0,0,0,4.8-5.134V38.6a.858.858,0,0,0-.827-.885H40.55V24.7a.829.829,0,1,0-1.655,0V37.71H3.475V33.375H28.634a.858.858,0,0,0,.827-.885V29.655a8.194,8.194,0,0,0,7.558-7.569h.267a2.957,2.957,0,0,0,0-5.9h-.23a.943.943,0,0,0,.009-.12V10.588L40.716,8.7v4.042a.858.858,0,0,0,.827.888ZM21.2,20.314h-.224a1.185,1.185,0,0,1,0-2.359H21.2ZM1.655,13.987h10.9A1.4,1.4,0,0,1,13.9,15.426V28.493a2.827,2.827,0,0,0-1.345-.342H1.655ZM40.716,39.48v.709a3.263,3.263,0,0,1-3.145,3.364H4.8a3.263,3.263,0,0,1-3.145-3.364V39.48ZM1.655,31.6V29.925h10.9A1.4,1.4,0,0,1,13.9,31.364a.942.942,0,0,0,.033.24Zm35.41-13.643h.224a1.185,1.185,0,0,1,0,2.359h-.224ZM27.8,31.6H15.526a.94.94,0,0,0,.033-.24A1.4,1.4,0,0,1,16.9,29.925H27.8Zm7.6-10.433a6.508,6.508,0,0,1-6.278,6.715,6.508,6.508,0,0,1-6.278-6.715V17.419l5.942,2.8a.778.778,0,0,0,.667,0l5.942-2.8Zm0-5.689-6.278,2.955-6.278-2.955V11.443l5.92,3.057a.779.779,0,0,0,.72,0l5.92-3.057v4.042Zm-3.95-7.3h6.468l-8.8,4.54L18.62,7.294,29.129,1.868l8.8,4.54H31.458a.887.887,0,0,0,0,1.77Z" fill="#181818"/>
          </g>
        </g>
        <g id="Group_282" data-name="Group 282" transform="translate(40.716 15.809)">
          <g id="Group_281" data-name="Group 281">
            <path id="Path_18" data-name="Path 18" d="M493.412,178.849a.787.787,0,0,0-1.045-.11.92.92,0,0,0-.3,1.074.818.818,0,0,0,.926.53.872.872,0,0,0,.666-.868.925.925,0,0,0-.242-.626Z" transform="translate(-492 -178.59)" fill="#181818"/>
          </g>
        </g>
        <g id="Group_284" data-name="Group 284" transform="translate(9.667 22.307)">
          <g id="Group_283" data-name="Group 283">
            <path id="Path_19" data-name="Path 19" d="M118.223,252.259a.788.788,0,0,0-1.045-.11.92.92,0,0,0-.305,1.074.818.818,0,0,0,.926.53.872.872,0,0,0,.666-.868.926.926,0,0,0-.242-.626Z" transform="translate(-116.81 -252)" fill="#181818"/>
          </g>
        </g>
        <g id="Group_286" data-name="Group 286" transform="translate(3.889 22.309)">
          <g id="Group_285" data-name="Group 285">
            <path id="Path_20" data-name="Path 20" d="M50.475,252.017H47.827a.887.887,0,0,0,0,1.77h2.648a.887.887,0,0,0,0-1.77Z" transform="translate(-47 -252.017)" fill="#181818"/>
          </g>
        </g>
        <g id="Group_288" data-name="Group 288" transform="translate(3.889 18.06)">
          <g id="Group_287" data-name="Group 287">
            <path id="Path_21" data-name="Path 21" d="M53.6,204.012H47.827a.887.887,0,0,0,0,1.77H53.6a.887.887,0,0,0,0-1.77Z" transform="translate(-47 -204.012)" fill="#181818"/>
          </g>
        </g>
      </g>
    </g>
  </g>
</svg>
