<svg xmlns="http://www.w3.org/2000/svg" width="44.138" height="47.213" viewBox="0 0 44.138 47.213">
  <g id="paced-white" transform="translate(0.001)">
    <g id="Group_1652" data-name="Group 1652">
      <g id="Group_1261" data-name="Group 1261">
        <path id="Path_313" data-name="Path 313" d="M46.135,29.539V26.392a.762.762,0,0,0-.735-.786H35.837V24.82a2.3,2.3,0,0,0-2.207-2.36H32.9V20.884h3.676a2.3,2.3,0,0,0,2.207-2.36V4.36A2.3,2.3,0,0,0,36.572,2H11.562a2.3,2.3,0,0,0-2.21,2.36V18.523a2.3,2.3,0,0,0,2.207,2.36h3.676v1.574H14.5a2.3,2.3,0,0,0-2.207,2.36V25.6H2.735A.762.762,0,0,0,2,26.391v3.147a.762.762,0,0,0,.735.786H4.111l-2.1,18a.8.8,0,0,0,.177.614.7.7,0,0,0,.551.268H4.207a.743.743,0,0,0,.711-.567l4.99-18.318H12.3v2.36a.762.762,0,0,0,.735.786H15.24v1.574a.762.762,0,0,0,.735.786H21.86v4.726H16.712a.762.762,0,0,0-.735.786V44.63a2.384,2.384,0,0,0-1.439,2.625,2.187,2.187,0,0,0,4.35,0,2.384,2.384,0,0,0-1.439-2.625v-2.5h5.884v2.5a2.384,2.384,0,0,0-1.439,2.625,2.187,2.187,0,0,0,4.35,0A2.384,2.384,0,0,0,24.8,44.63v-2.5h5.885v2.5a2.384,2.384,0,0,0-1.439,2.625,2.187,2.187,0,0,0,4.35,0A2.384,2.384,0,0,0,32.16,44.63V41.341a.762.762,0,0,0-.735-.786H26.274V35.834h5.885a.762.762,0,0,0,.735-.786V33.473H35.1a.762.762,0,0,0,.735-.786V30.325h2.391L43.22,48.643a.743.743,0,0,0,.711.567H45.4a.7.7,0,0,0,.551-.268.8.8,0,0,0,.177-.614l-2.1-18H45.4a.712.712,0,0,0,.521-.23.815.815,0,0,0,.216-.557ZM3.66,47.636H3.566L5.589,30.325H8.377ZM12.3,28.753H3.472V27.179H12.3ZM15.245,31.9H13.769V24.818a.762.762,0,0,1,.735-.786h.735Zm1.467,15.737a.788.788,0,1,1,.735-.786.762.762,0,0,1-.735.786Zm14.712-1.574a.788.788,0,1,1-.735.786.762.762,0,0,1,.735-.787Zm-7.352,1.574a.788.788,0,1,1,.735-.786.815.815,0,0,1-.217.558.711.711,0,0,1-.523.229Zm.735-7.081H23.332V35.834H24.8Zm6.62-6.295H16.712V18.523a.762.762,0,0,1,.735-.786h13.24a.762.762,0,0,1,.735.786Zm-11.773-18.1V14.589a4.575,4.575,0,0,1,4.413-4.721,4.575,4.575,0,0,1,4.413,4.721v1.574Zm11.034,0h-.735V14.589a6.1,6.1,0,0,0-5.884-6.295,6.1,6.1,0,0,0-5.885,6.295v1.574h-.735a2.3,2.3,0,0,0-2.207,2.36v.786H11.566a.762.762,0,0,1-.735-.786V4.36a.762.762,0,0,1,.735-.786H36.572a.762.762,0,0,1,.735.786V18.523a.762.762,0,0,1-.735.786H32.9v-.786a2.3,2.3,0,0,0-2.207-2.36ZM34.363,31.9H32.894V24.035h.735a.762.762,0,0,1,.735.786ZM44.569,47.636h-.088L39.757,30.325h2.788Zm.1-18.884H35.837V27.179h8.827Z" transform="translate(-2 -2)" fill="#f6f6f6"/>
        <path id="Path_314" data-name="Path 314" d="M45.207,9.932h1.469V6.786A.762.762,0,0,0,45.941,6H43V7.574h2.207Z" transform="translate(-12.841 -5.13)" fill="#f6f6f6"/>
        <rect id="Rectangle_38" data-name="Rectangle 38" width="1.186" height="1.268" transform="translate(32.388 6.693)" fill="#f6f6f6"/>
      </g>
    </g>
  </g>
</svg>
