<svg xmlns="http://www.w3.org/2000/svg" xmlns:xlink="http://www.w3.org/1999/xlink" width="75.943" height="74.874" viewBox="0 0 75.943 74.874">
  <defs>
    <linearGradient id="linear-gradient" x1="0.5" x2="0.5" y2="1" gradientUnits="objectBoundingBox">
      <stop offset="0" stop-color="#0064d8"/>
      <stop offset="1" stop-color="#1c2848"/>
    </linearGradient>
  </defs>
  <g id="skills" transform="translate(3.002)">
    <path id="Path_18420" data-name="Path 18420" d="M28.148,51.209l.758-.869a3.325,3.325,0,0,0,.656-1.944,9.926,9.926,0,0,1-4.675-8.488V30.64l4.705-3.28.653.455a12.392,12.392,0,0,0,7.117,2.253H43.71v9.84a9.993,9.993,0,0,1-3.529,7.669v2.348L50.005,51.5a12.2,12.2,0,0,0-1.43-1.391c-1.178-1.033-2.514-2.2-2.514-4.053a17.9,17.9,0,0,1,.624-4.608,15.529,15.529,0,0,0,.553-4.006,8.332,8.332,0,0,0-2.008-5.28l-.344-.36v-1.13A11.439,11.439,0,0,0,33.71,18.992,11.439,11.439,0,0,0,22.534,30.676V40.794l-.805.281C21.623,41.111,19,42.137,19,46.057c0,4.347,6.243,7.744,8.649,8.687l-.827,2.3a24.948,24.948,0,0,1-5.187-2.921,5.348,5.348,0,0,0-.282,1.77,3.536,3.536,0,0,0,1.174,2.46h0c.357.385.778.783,1.271,1.24a13.563,13.563,0,0,1,2.792,3.192,8.452,8.452,0,0,0,4.1-5.9l.076-1.022c-.007-1.926-.69-2.644-1.822-3.826Z" transform="translate(2.177 3.151)" fill="#181818"/>
    <path id="Path_18421" data-name="Path 18421" d="M24.843,58.257l-.431-1.346A7.848,7.848,0,0,0,22,53.727v8.945h7.145l.571-7.77a13.645,13.645,0,0,1-3.659,2.721Z" transform="translate(2.706 11.133)" fill="#181818"/>
    <path id="Path_18422" data-name="Path 18422" d="M40.117,30.416H36.125a14.64,14.64,0,0,1-7.753-2.225L26,29.844V37.8a7.066,7.066,0,1,0,14.117,0Z" transform="translate(3.412 5.263)" fill="#181818"/>
    <path id="Path_18423" data-name="Path 18423" d="M12.529,29H10.177A1.205,1.205,0,0,0,9,30.23v6.15h5.395l1.341-1.4a1.186,1.186,0,0,0,.308-1,1.15,1.15,0,0,0-.6-.846L13.7,32.217V30.23A1.206,1.206,0,0,0,12.529,29Z" transform="translate(0.413 5.448)" fill="#181818"/>
    <path id="Path_18424" data-name="Path 18424" d="M21.011,49.746l-3.868.623a2.921,2.921,0,0,1-2.563-.877,3.172,3.172,0,0,1-.874-2.2V37H9V48.568a6.6,6.6,0,0,0,2.094,4.852,6.011,6.011,0,0,0,4.864,1.569l5.442-.7a5.292,5.292,0,0,1-.636-2.528,8.122,8.122,0,0,1,.249-2.012Z" transform="translate(0.413 7.288)" fill="#181818"/>
    <path id="Path_18425" data-name="Path 18425" d="M31.963,49.053l4.013-4.2V43.411a8.881,8.881,0,0,1-6.021.363,5.968,5.968,0,0,1-.516,1.647,6.578,6.578,0,0,1,1.74,3.634Z" transform="translate(4.02 8.762)" fill="#181818"/>
    <path id="Path_18426" data-name="Path 18426" d="M35.773,52.141,37.057,46.1l-.19-.03-3.453,3.61Z" transform="translate(4.72 9.372)" fill="#181818"/>
    <path id="Path_18427" data-name="Path 18427" d="M53.84,47.287a3.172,3.172,0,0,1-.874,2.2,2.914,2.914,0,0,1-2.562.877L39.126,48.555,36.88,59.132l-1.97-2.06,1.147,9.446h7.2v-12.3l2.495.01,5.836.763a6.013,6.013,0,0,0,4.865-1.571,6.6,6.6,0,0,0,2.093-4.853V37H53.84Z" transform="translate(4.982 7.288)" fill="#181818"/>
    <path id="Path_18428" data-name="Path 18428" d="M54.881,29H52.529a1.205,1.205,0,0,0-1.177,1.23v1.987l-1.746.911a1.15,1.15,0,0,0-.6.846,1.186,1.186,0,0,0,.308,1l1.346,1.405h5.395V30.23A1.205,1.205,0,0,0,54.881,29Z" transform="translate(7.47 5.448)" fill="#181818"/>
    <path id="Path_18429" data-name="Path 18429" d="M31.851,50h-.773a.1.1,0,0,1,0,.039l-.993,13.49h4.453L33.041,51.243Z" transform="translate(4.132 10.277)" fill="url(#linear-gradient)"/>
    <path id="Path_18431" data-name="Path 18431" d="M10.411,14.186a2.507,2.507,0,0,1-1.1-2.767,2.328,2.328,0,0,1,4.545,0,2.507,2.507,0,0,1-1.1,2.767v8.949h3.559a2.384,2.384,0,0,1,.985-1.759A11.32,11.32,0,0,0,21.749,8.936,10.664,10.664,0,0,0,11.575.986,10.667,10.667,0,0,0,1.421,8.964,11.317,11.317,0,0,0,5.894,21.392a2.378,2.378,0,0,1,.954,1.739h3.564Z" transform="translate(-0.998 -0.986)" fill="url(#linear-gradient)"/>
    <path id="Path_18432" data-name="Path 18432" d="M15.411,21H6a4.816,4.816,0,0,0,4.705,4.919A4.816,4.816,0,0,0,15.411,21Z" transform="translate(-0.116 3.609)" fill="url(#linear-gradient)"/>
    <path id="Path_18433" data-name="Path 18433" d="M66.881,11.182l-2.888-1.008,1.361-2.846L60.827,2.6,58.1,4.021,57.141,1h-6.4l-.96,3.021L47.055,2.6,42.529,7.329l1.361,2.846L41,11.182v6.695l2.888,1.008-1.361,2.846,4.527,4.732,2.724-1.424.962,3.022h6.4l.962-3.021,2.724,1.424,4.527-4.733-1.361-2.846,2.889-1.008ZM53.94,19.448a4.816,4.816,0,0,1-4.705-4.919,4.71,4.71,0,1,1,9.411,0,4.816,4.816,0,0,1-4.705,4.919Z" transform="translate(6.058 -0.989)" fill="#181818"/>
    <g id="Group_7657" data-name="Group 7657" transform="translate(-159.953 -1037.946)">
      <g id="Group_7595" data-name="Group 7595" transform="translate(-189 687.334)">
        <g id="Group_80" data-name="Group 80" transform="translate(410.909 416.026)">
          <path id="Polygon_1" data-name="Polygon 1" d="M3.854,1.592a1,1,0,0,1,1.752,0L6.269,2.8a1,1,0,0,0,.394.394l1.205.663a1,1,0,0,1,0,1.752l-1.205.663a1,1,0,0,0-.394.394L5.606,7.868a1,1,0,0,1-1.752,0L3.191,6.663A1,1,0,0,0,2.8,6.269L1.592,5.606a1,1,0,0,1,0-1.752L2.8,3.191A1,1,0,0,0,3.191,2.8Z" fill="#ffd73b"/>
          <path id="Polygon_2" data-name="Polygon 2" d="M1.694,1.358a.853.853,0,0,1,1.495,0h0a.853.853,0,0,0,.336.336h0a.853.853,0,0,1,0,1.495h0a.853.853,0,0,0-.336.336h0a.853.853,0,0,1-1.495,0h0a.853.853,0,0,0-.336-.336h0a.853.853,0,0,1,0-1.495h0a.853.853,0,0,0,.336-.336Z" transform="translate(2.441 2.441)" fill="#ebbb00"/>
        </g>
        <g id="Group_81" data-name="Group 81" transform="translate(345.951 412.916)">
          <path id="Polygon_1-2" data-name="Polygon 1" d="M2.419,1.592a1,1,0,0,1,1.752,0l.154.279a1,1,0,0,0,.394.394L5,2.419A1,1,0,0,1,5,4.171l-.279.154a1,1,0,0,0-.394.394L4.171,5A1,1,0,0,1,2.419,5l-.154-.279a1,1,0,0,0-.394-.394l-.279-.154a1,1,0,0,1,0-1.752l.279-.154a1,1,0,0,0,.394-.394Z" transform="translate(0)" fill="#ffd73b"/>
          <path id="Polygon_2-2" data-name="Polygon 2" d="M1.309,1.049a.659.659,0,0,1,1.155,0h0a.659.659,0,0,0,.26.26h0a.659.659,0,0,1,0,1.155h0a.659.659,0,0,0-.26.26h0a.659.659,0,0,1-1.155,0h0a.659.659,0,0,0-.26-.26h0a.659.659,0,0,1,0-1.155h0a.659.659,0,0,0,.26-.26Z" transform="translate(1.502 1.502)" fill="#ebbb00"/>
        </g>
        <g id="Group_82" data-name="Group 82" transform="translate(376.247 352.665)">
          <path id="Polygon_1-3" data-name="Polygon 1" d="M2.42,1.592a1,1,0,0,1,1.752,0l.154.28a1,1,0,0,0,.394.394L5,2.42A1,1,0,0,1,5,4.173l-.28.154a1,1,0,0,0-.394.394L4.173,5A1,1,0,0,1,2.42,5l-.154-.28a1,1,0,0,0-.394-.394l-.28-.154a1,1,0,0,1,0-1.752l.28-.154a1,1,0,0,0,.394-.394Z" transform="translate(0 0)" fill="#ffd73b"/>
          <path id="Polygon_2-3" data-name="Polygon 2" d="M1.181.946a.6.6,0,0,1,1.042,0h0a.6.6,0,0,0,.234.234h0a.6.6,0,0,1,0,1.042h0a.6.6,0,0,0-.234.234h0a.6.6,0,0,1-1.042,0h0a.6.6,0,0,0-.234-.234h0a.6.6,0,0,1,0-1.042h0A.6.6,0,0,0,1.181.946Z" transform="translate(1.701 1.701)" fill="#ebbb00"/>
        </g>
      </g>
    </g>
  </g>
</svg>
