<svg xmlns="http://www.w3.org/2000/svg" width="52.418" height="48.84" viewBox="0 0 52.418 48.84">
  <g id="topic-book" transform="translate(6.049 10.5)">
    <path id="Path_28536" data-name="Path 28536" d="M32.481,48.5H31.93V67.768a1.652,1.652,0,0,1-1.652,1.652H20.92c-2.753,0-2.753,1.115-2.753,1.652a1.652,1.652,0,0,1-3.3,0c0-.536,0-1.652-2.753-1.652H2.753A1.652,1.652,0,0,1,1.1,67.768V48.5H.551A.551.551,0,0,0,0,49.051V71.071a.551.551,0,0,0,.551.551H12.409a6.146,6.146,0,0,0,4.25,2.2,5.179,5.179,0,0,0,3.975-2.2H32.481a.551.551,0,0,0,.551-.551V49.051a.551.551,0,0,0-.551-.551Zm0,0" transform="translate(0 -44.697)" fill="#fff"/>
    <path id="Path_28537" data-name="Path 28537" d="M60.076.5H50.718c-2.136,0-3.65.644-4.4,1.822C45.559,1.144,44.045.5,41.909.5H32.551A.551.551,0,0,0,32,1.051V23.071a.551.551,0,0,0,.551.551h9.359c2.56,0,3.854.925,3.854,2.753a.551.551,0,1,0,1.1,0c0-1.828,1.294-2.753,3.854-2.753h9.359a.551.551,0,0,0,.551-.551V1.051A.551.551,0,0,0,60.076.5ZM42.46,19.218H35.3a.551.551,0,0,1,0-1.1H42.46a.551.551,0,1,1,0,1.1Zm0-3.3H35.3a.551.551,0,0,1,0-1.1H42.46a.551.551,0,1,1,0,1.1Zm0-3.3H35.3a.551.551,0,0,1,0-1.1H42.46a.551.551,0,1,1,0,1.1Zm0-3.3H35.3a.551.551,0,0,1,0-1.1H42.46a.551.551,0,1,1,0,1.1Zm0-3.3H35.3a.551.551,0,0,1,0-1.1H42.46a.551.551,0,1,1,0,1.1Zm4.4,18.167a.551.551,0,1,1-1.1,0V3.8a.551.551,0,1,1,1.1,0Zm10.46-4.955H50.167a.551.551,0,1,1,0-1.1h7.157a.551.551,0,1,1,0,1.1Zm0-3.3H50.167a.551.551,0,0,1,0-1.1h7.157a.551.551,0,1,1,0,1.1Zm0-3.3H50.167a.551.551,0,0,1,0-1.1h7.157a.551.551,0,1,1,0,1.1Zm0-3.3H50.167a.551.551,0,0,1,0-1.1h7.157a.551.551,0,1,1,0,1.1Zm0-3.3H50.167a.551.551,0,0,1,0-1.1h7.157a.551.551,0,1,1,0,1.1Zm0,0" transform="translate(-29.798)" fill="#fff"/>
    <g id="Group_7653" data-name="Group 7653" transform="translate(-155 -1069.5)">
      <g id="Group_7595" data-name="Group 7595" transform="translate(-189 687.334)">
        <g id="Group_80" data-name="Group 80" transform="translate(380.909 393.026)">
          <path id="Polygon_1" data-name="Polygon 1" d="M3.854,1.592a1,1,0,0,1,1.752,0L6.269,2.8a1,1,0,0,0,.394.394l1.205.663a1,1,0,0,1,0,1.752l-1.205.663a1,1,0,0,0-.394.394L5.606,7.868a1,1,0,0,1-1.752,0L3.191,6.663A1,1,0,0,0,2.8,6.269L1.592,5.606a1,1,0,0,1,0-1.752L2.8,3.191A1,1,0,0,0,3.191,2.8Z" fill="#ffd73b"/>
          <path id="Polygon_2" data-name="Polygon 2" d="M1.694,1.358a.853.853,0,0,1,1.495,0h0a.853.853,0,0,0,.336.336h0a.853.853,0,0,1,0,1.495h0a.853.853,0,0,0-.336.336h0a.853.853,0,0,1-1.495,0h0a.853.853,0,0,0-.336-.336h0a.853.853,0,0,1,0-1.495h0a.853.853,0,0,0,.336-.336Z" transform="translate(2.441 2.441)" fill="#ebbb00"/>
        </g>
        <g id="Group_81" data-name="Group 81" transform="translate(337.951 413.916)">
          <path id="Polygon_1-2" data-name="Polygon 1" d="M2.419,1.592a1,1,0,0,1,1.752,0l.154.279a1,1,0,0,0,.394.394L5,2.419A1,1,0,0,1,5,4.171l-.279.154a1,1,0,0,0-.394.394L4.171,5A1,1,0,0,1,2.419,5l-.154-.279a1,1,0,0,0-.394-.394l-.279-.154a1,1,0,0,1,0-1.752l.279-.154a1,1,0,0,0,.394-.394Z" transform="translate(0)" fill="#ffd73b"/>
          <path id="Polygon_2-2" data-name="Polygon 2" d="M1.309,1.049a.659.659,0,0,1,1.155,0h0a.659.659,0,0,0,.26.26h0a.659.659,0,0,1,0,1.155h0a.659.659,0,0,0-.26.26h0a.659.659,0,0,1-1.155,0h0a.659.659,0,0,0-.26-.26h0a.659.659,0,0,1,0-1.155h0a.659.659,0,0,0,.26-.26Z" transform="translate(1.502 1.502)" fill="#ebbb00"/>
        </g>
        <g id="Group_82" data-name="Group 82" transform="translate(347.247 371.665)">
          <path id="Polygon_1-3" data-name="Polygon 1" d="M2.42,1.592a1,1,0,0,1,1.752,0l.154.28a1,1,0,0,0,.394.394L5,2.42A1,1,0,0,1,5,4.173l-.28.154a1,1,0,0,0-.394.394L4.173,5A1,1,0,0,1,2.42,5l-.154-.28a1,1,0,0,0-.394-.394l-.28-.154a1,1,0,0,1,0-1.752l.28-.154a1,1,0,0,0,.394-.394Z" transform="translate(0 0)" fill="#ffd73b"/>
          <path id="Polygon_2-3" data-name="Polygon 2" d="M1.181.946a.6.6,0,0,1,1.042,0h0a.6.6,0,0,0,.234.234h0a.6.6,0,0,1,0,1.042h0a.6.6,0,0,0-.234.234h0a.6.6,0,0,1-1.042,0h0a.6.6,0,0,0-.234-.234h0a.6.6,0,0,1,0-1.042h0A.6.6,0,0,0,1.181.946Z" transform="translate(1.701 1.701)" fill="#ebbb00"/>
        </g>
      </g>
    </g>
  </g>
</svg>
