<svg id="topic-email" xmlns="http://www.w3.org/2000/svg" width="24.828" height="18.912" viewBox="0 0 24.828 18.912">
  <g id="Group_387" data-name="Group 387" transform="translate(1.247)">
    <g id="Group_386" data-name="Group 386">
      <path id="Path_1323" data-name="Path 1323" d="M47.12,61H26.656a2.157,2.157,0,0,0-.935.218L36.839,72.336l2.492-2.4h0l8.723-8.723A2.157,2.157,0,0,0,47.12,61Z" transform="translate(-25.721 -61)" fill="#fff"/>
    </g>
  </g>
  <g id="Group_389" data-name="Group 389" transform="translate(16.401 1.248)">
    <g id="Group_388" data-name="Group 388">
      <path id="Path_1324" data-name="Path 1324" d="M346.422,86.728l-8.209,8.209,8.209,8.209a2.156,2.156,0,0,0,.218-.935V87.663a2.157,2.157,0,0,0-.218-.935Z" transform="translate(-338.213 -86.728)" fill="#fff"/>
    </g>
  </g>
  <g id="Group_391" data-name="Group 391" transform="translate(0 1.247)">
    <g id="Group_390" data-name="Group 390">
      <path id="Path_1325" data-name="Path 1325" d="M.218,86.721A2.157,2.157,0,0,0,0,87.656V102.2a2.157,2.157,0,0,0,.218.935l8.209-8.209Z" transform="translate(0 -86.721)" fill="#fff"/>
    </g>
  </g>
  <g id="Group_393" data-name="Group 393" transform="translate(1.247 10.485)">
    <g id="Group_392" data-name="Group 392">
      <path id="Path_1326" data-name="Path 1326" d="M39.839,277.211l-2.493,2.4a.732.732,0,0,1-1.029,0l-2.4-2.4-8.209,8.209a2.155,2.155,0,0,0,.935.218h20.47a2.155,2.155,0,0,0,.935-.218Z" transform="translate(-25.714 -277.211)" fill="#fff"/>
    </g>
  </g>
</svg>
