<svg xmlns="http://www.w3.org/2000/svg" width="11.383" height="15.769" viewBox="0 0 11.383 15.769">
  <g id="address" transform="translate(-0.145)">
    <path id="Path_28372" data-name="Path 28372" d="M80.25,68.584v3.13h1.138V69.723a.285.285,0,0,1,.285-.285h1.707a.285.285,0,0,1,.285.285v1.992H84.8v-3.13a.285.285,0,0,1,.285-.285h.3l-2.863-2.2-2.863,2.2h.3a.285.285,0,0,1,.285.285Zm0,0" transform="translate(-76.69 -63.746)" fill="#0064d8"/>
    <path id="Path_28373" data-name="Path 28373" d="M144.145,176h1.138v1.707h-1.138Zm0,0" transform="translate(-138.878 -169.739)" fill="#0064d8"/>
    <path id="Path_28374" data-name="Path 28374" d="M5.836,15.769C6.907,14.432,11.528,8.5,11.528,5.691a5.691,5.691,0,1,0-11.383,0c0,2.809,4.621,8.74,5.691,10.077ZM1.963,4.613l3.7-2.846a.284.284,0,0,1,.347,0l3.7,2.846a.285.285,0,0,1-.174.509H8.682v3.13a.285.285,0,0,1-.285.285H3.275a.285.285,0,0,1-.285-.285V5.122H2.137a.285.285,0,0,1-.174-.51Zm0,0" transform="translate(0 0)" fill="#0064d8"/>
  </g>
</svg>
