<svg xmlns="http://www.w3.org/2000/svg" width="12.644" height="12.646" viewBox="0 0 12.644 12.646">
  <g id="call-blue" transform="translate(0.502 0.523)">
    <g id="_003---Call" data-name="003---Call">
      <path id="Shape" d="M5.812,6.859A4.69,4.69,0,0,1,4.4,4.2a.4.4,0,0,1,.115-.332l.9-.9a.4.4,0,0,0,.056-.5L4.032.248A.4.4,0,0,0,3.513.1L1.218,1.182a.4.4,0,0,0-.221.4A11.1,11.1,0,0,0,4.375,8.292a11.093,11.093,0,0,0,6.711,3.378.4.4,0,0,0,.4-.22l1.079-2.295a.4.4,0,0,0-.145-.518L10.2,7.207a.4.4,0,0,0-.5.056l-.9.9a.4.4,0,0,1-.332.115A4.69,4.69,0,0,1,5.812,6.859Z" transform="translate(-0.995 -0.051)" fill="#0064d8" stroke="#0064d8" stroke-width="1"/>
      <path id="Shape-2" data-name="Shape" d="M30.855,13.153a.3.3,0,0,1-.3-.3A2.257,2.257,0,0,0,28.3,10.6a.3.3,0,1,1,0-.6,2.859,2.859,0,0,1,2.854,2.857A.3.3,0,0,1,30.855,13.153Z" transform="translate(-21.821 -7.71)" fill="#0064d8"/>
      <path id="Shape-3" data-name="Shape" d="M32.358,4.659a.3.3,0,0,1-.3-.3A3.761,3.761,0,0,0,28.3.6a.3.3,0,1,1,0-.6,4.363,4.363,0,0,1,4.358,4.358A.3.3,0,0,1,32.358,4.659Z" transform="translate(-21.036 0)" fill="#0064d8"/>
    </g>
  </g>
</svg>
