<svg xmlns="http://www.w3.org/2000/svg" width="28.333" height="28.278" viewBox="0 0 28.333 28.278">
  <path id="comment" d="M14.11,11.179A1.107,1.107,0,1,1,13,12.285,1.107,1.107,0,0,1,14.11,11.179Zm3.872,1.107a1.107,1.107,0,1,0,1.107-1.107,1.107,1.107,0,0,0-1.107,1.107Zm-9.96,0a1.1,1.1,0,1,1,.006,0Zm19.337,10.38a3.32,3.32,0,0,1-4.694,4.7L16.59,21.3a1.106,1.106,0,0,1-.277-.462L14.991,16.48a1.107,1.107,0,0,1,1.354-1.388l4.467,1.237a1.107,1.107,0,0,1,.486.283Zm-9.009-2.739,4.1,4.091,1.566-1.566-4.076-4.068-2.247-.622Zm7.445,4.3-.213-.213-1.566,1.567.212.212a1.107,1.107,0,1,0,1.566-1.564ZM14.781,22.935c-.2.008-.412.013-.616.013a13.392,13.392,0,0,1-5.092-.985,1.108,1.108,0,0,0-.85,0L3.185,24.1l1.7-4.022A1.107,1.107,0,0,0,4.7,18.907a9.383,9.383,0,0,1-2.477-6.3C2.213,6.877,7.575,2.214,14.166,2.214s11.952,4.663,11.952,10.4a9.11,9.11,0,0,1-.993,4.056,1.107,1.107,0,1,0,1.983.981,11.305,11.305,0,0,0,1.223-5.037C28.331,5.657,21.976,0,14.166,0S0,5.657,0,12.609a11.474,11.474,0,0,0,2.581,7.229L.087,25.745A1.107,1.107,0,0,0,1.537,27.2l7.134-3.012a15.634,15.634,0,0,0,5.494.976c.236,0,.472-.006.712-.015a1.107,1.107,0,1,0-.094-2.212Zm0,0" transform="translate(0.002)" fill="#181818"/>
</svg>
