<svg xmlns="http://www.w3.org/2000/svg" width="80.208" height="77.521" viewBox="0 0 80.208 77.521">
  <g id="enquire-now" transform="translate(-294 -5708)">
    <path id="Path_28174" data-name="Path 28174" d="M0-12.382S21.234-27.033,41.286-27.033,80.208-12.382,80.208-12.382v62.87H0Z" transform="translate(294 5735.033)" fill="#0064d8"/>
    <g id="delivery_1_" data-name="delivery (1)" transform="translate(240.601 5696.088)">
      <path id="Path_28180" data-name="Path 28180" d="M326.071,373.03l-.018-.018a.958.958,0,0,0-.628-.342,1.126,1.126,0,0,0-.692.372l-.221.221,5.2,5.205c.041-.042.083-.084.124-.127a.51.51,0,0,1,.056-.06.877.877,0,0,0-.019-1.444Z" transform="translate(-225.965 -312.862)" fill="#fff"/>
      <path id="Path_28181" data-name="Path 28181" d="M96.413,196.571a1.933,1.933,0,0,1-1.394.619,1.981,1.981,0,0,1-.9-.224c-.027-.014-.055-.03-.082-.047l-.009-.005L94,196.9c-.18-.112-.4-.224-.642-.343a9.908,9.908,0,0,1-.89-.486,25.711,25.711,0,0,1-6.218-5.651l-.025-.029a15.592,15.592,0,0,1-2.292-3.745c0-.011-.008-.021-.012-.032l-.021-.062a1.9,1.9,0,0,1,.45-2.038.564.564,0,0,1,.077-.077l0,0c.471-.422.909-.85,1.388-1.335L80.62,177.9l-1.391,1.391a2.656,2.656,0,0,0-.808,1.739,9.35,9.35,0,0,0,.742,4.1,27.511,27.511,0,0,0,4.875,8.113,30.084,30.084,0,0,0,10,7.83,14.463,14.463,0,0,0,5.187,1.563c.088.006.188.006.285.006a2.823,2.823,0,0,0,2.222-.931,18.413,18.413,0,0,1,1.324-1.374l-5.2-5.2Z" transform="translate(0 -134.037)" fill="#fff"/>
      <path id="Path_28182" data-name="Path 28182" d="M119.228,167.786l.2-.2c.538-.538.538-.9,0-1.44l-1.879-1.88-.33-.337-.33-.337c-.449-.463-.828-.847-1.222-1.215l-.012-.012-.021-.021a1.008,1.008,0,0,0-.658-.338,1.1,1.1,0,0,0-.7.351l-.256.256,5.192,5.192Z" transform="translate(-32.7 -119.445)" fill="#fff"/>
      <path id="Path_28183" data-name="Path 28183" d="M328.463,82H326v2.292h3.9Z" transform="translate(-227.331 -45.988)" fill="#fff"/>
      <path id="Path_28184" data-name="Path 28184" d="M214.932,31.912A9.513,9.513,0,0,0,211.956,50.4a.491.491,0,0,1,.332.484l-.165,4.1,2.9-3.91a.491.491,0,0,1,.371-.2,9.494,9.494,0,0,0-.457-18.966Zm5.845,12.979a.973.973,0,0,1-.968.945h-9.755a.917.917,0,0,1-.9-.945V38.756a.477.477,0,0,1,.06-.264l1.925-3.031a.915.915,0,0,1,.78-.431h6.027a.929.929,0,0,1,.788.43l1.95,3.032a.507.507,0,0,1,.094.263Z" transform="translate(-116.788 0)" fill="#fff"/>
      <path id="Path_28185" data-name="Path 28185" d="M269.5,82h-2.529l-1.438,2.292H269.5Z" transform="translate(-171.816 -45.988)" fill="#fff"/>
      <path id="Path_28186" data-name="Path 28186" d="M261,127.567h3.356v-4.5a.488.488,0,0,1,.755-.411l1.9,1.247a.481.481,0,0,1,.211.411v3.256h3.438V122H261Z" transform="translate(-167.653 -82.713)" fill="#fff"/>
      <path id="Path_28187" data-name="Path 28187" d="M314,149.67h.9v-2.991l-.9-.605Z" transform="translate(-216.314 -104.816)" fill="#fff"/>
    </g>
  </g>
</svg>
