<svg id="linkedin" xmlns="http://www.w3.org/2000/svg" width="22.024" height="22.086" viewBox="0 0 22.024 22.086">
  <path id="Path_2786" data-name="Path 2786" d="M22.758,22.689h.006v-8.1c0-3.962-.854-7.018-5.485-7.018a4.809,4.809,0,0,0-4.332,2.38h-.064V7.944H8.489V22.688h4.574v-7.3c0-1.922.364-3.781,2.745-3.781,2.345,0,2.38,2.194,2.38,3.9v7.179Z" transform="translate(-0.74 -0.603)" fill="#fff"/>
  <path id="Path_2787" data-name="Path 2787" d="M.4,7.977H4.976V22.722H.4Z" transform="translate(-0.013 -0.636)" fill="#fff"/>
  <path id="Path_2788" data-name="Path 2788" d="M2.654,0A2.665,2.665,0,1,0,5.31,2.655,2.665,2.665,0,0,0,2.654,0Z" transform="translate(0.02 0)" fill="#fff"/>
</svg>
