<svg xmlns="http://www.w3.org/2000/svg" width="29.868" height="19.912" viewBox="0 0 29.868 19.912">
  <g id="uk" transform="translate(0 -85.33)">
    <rect id="Rectangle_1044" data-name="Rectangle 1044" width="29.868" height="19.912" transform="translate(0 85.33)" fill="#f0f0f0"/>
    <path id="Path_28355" data-name="Path 28355" d="M16.8,85.33H13.067v8.089H0v3.734H13.067v8.089H16.8V97.153H29.868V93.419H16.8Z" transform="translate(0 0)" fill="#d80027"/>
    <g id="Group_7556" data-name="Group 7556" transform="translate(18.181 98.749)">
      <path id="Path_28356" data-name="Path 28356" d="M393.785,315.358l6.9,3.831v-3.831Z" transform="translate(-388.994 -315.358)" fill="#0052b4"/>
      <path id="Path_28357" data-name="Path 28357" d="M311.652,315.358l11.688,6.493v-1.836l-8.383-4.657Z" transform="translate(-311.652 -315.358)" fill="#0052b4"/>
      <path id="Path_28358" data-name="Path 28358" d="M320.226,349.762,311.652,345v4.764Z" transform="translate(-311.652 -343.269)" fill="#0052b4"/>
    </g>
    <path id="Path_28359" data-name="Path 28359" d="M311.652,315.358l11.688,6.493v-1.836l-8.383-4.657Z" transform="translate(-293.471 -216.609)" fill="#f0f0f0"/>
    <path id="Path_28360" data-name="Path 28360" d="M311.652,315.358l11.688,6.493v-1.836l-8.383-4.657Z" transform="translate(-293.471 -216.609)" fill="#d80027"/>
    <g id="Group_7557" data-name="Group 7557" transform="translate(0 98.749)">
      <path id="Path_28361" data-name="Path 28361" d="M5.27,315.356,0,318.284v-2.928Z" transform="translate(0 -315.356)" fill="#0052b4"/>
      <path id="Path_28362" data-name="Path 28362" d="M35.692,329.51v5.667h-10.2Z" transform="translate(-24.004 -328.684)" fill="#0052b4"/>
    </g>
    <path id="Path_28363" data-name="Path 28363" d="M8.383,315.358,0,320.015v1.836H0l11.688-6.493Z" transform="translate(0 -216.609)" fill="#d80027"/>
    <g id="Group_7558" data-name="Group 7558" transform="translate(0 85.33)">
      <path id="Path_28364" data-name="Path 28364" d="M6.9,134.789,0,130.958v3.831Z" transform="translate(0 -128.296)" fill="#0052b4"/>
      <path id="Path_28365" data-name="Path 28365" d="M11.688,91.823,0,85.33v1.836l8.383,4.657Z" transform="translate(0 -85.33)" fill="#0052b4"/>
      <path id="Path_28366" data-name="Path 28366" d="M53.366,85.33l8.574,4.764V85.33Z" transform="translate(-50.253 -85.33)" fill="#0052b4"/>
    </g>
    <path id="Path_28367" data-name="Path 28367" d="M11.688,91.823,0,85.33v1.836l8.383,4.657Z" transform="translate(0 0)" fill="#f0f0f0"/>
    <path id="Path_28368" data-name="Path 28368" d="M11.688,91.823,0,85.33v1.836l8.383,4.657Z" transform="translate(0 0)" fill="#d80027"/>
    <g id="Group_7559" data-name="Group 7559" transform="translate(18.181 85.33)">
      <path id="Path_28369" data-name="Path 28369" d="M421.659,149.374l5.27-2.928v2.928Z" transform="translate(-415.242 -142.881)" fill="#0052b4"/>
      <path id="Path_28370" data-name="Path 28370" d="M311.652,91V85.331h10.2Z" transform="translate(-311.652 -85.331)" fill="#0052b4"/>
    </g>
    <path id="Path_28371" data-name="Path 28371" d="M314.957,91.823l8.383-4.657V85.33h0l-11.687,6.493Z" transform="translate(-293.471 0)" fill="#d80027"/>
  </g>
</svg>
