<svg xmlns="http://www.w3.org/2000/svg" width="113" height="100" viewBox="0 0 113 100">
  <g id="around" transform="translate(0.141 0.141)">
    <path id="Polygon_4" data-name="Polygon 4" d="M77.164,0A13,13,0,0,1,88.482,6.605l20.9,37a13,13,0,0,1,0,12.79l-20.905,37A13,13,0,0,1,77.164,100H35.836a13,13,0,0,1-11.318-6.605l-20.9-37a13,13,0,0,1,0-12.79l20.905-37A13,13,0,0,1,35.836,0Z" transform="translate(-0.141 -0.141)" fill="#0064d8"/>
    <g id="around-2" data-name="around" transform="translate(32.113 25.434)">
      <g id="Group_7524" data-name="Group 7524" transform="translate(0 0)">
        <g id="Group_7523" data-name="Group 7523">
          <path id="Path_28481" data-name="Path 28481" d="M52.03,17.183A24.5,24.5,0,0,0,5.268,31.821l1.584-.5a22.84,22.84,0,1,1,2.635,5.606l-1.393.9a24.585,24.585,0,0,0,20.6,11.16A24.491,24.491,0,0,0,52.03,17.183Z" transform="translate(-4.147 0)" fill="#fff"/>
        </g>
      </g>
      <g id="Group_7526" data-name="Group 7526" transform="translate(9.141 7.504)">
        <g id="Group_7525" data-name="Group 7525" transform="translate(0)">
          <path id="Path_28482" data-name="Path 28482" d="M108.643,81.233l.476-1.59-8.3-2.49a.829.829,0,0,0-.825.208l-1.66,1.66a.83.83,0,0,0,.25,1.345l7.469,3.32.674-1.517-6.365-2.829.455-.455Z" transform="translate(-98.092 -77.117)" fill="#fff"/>
        </g>
      </g>
      <g id="Group_7528" data-name="Group 7528" transform="translate(9.142 5.845)">
        <g id="Group_7527" data-name="Group 7527">
          <path id="Path_28483" data-name="Path 28483" d="M116.354,60.9a.83.83,0,0,0-.83-.83h0a6.792,6.792,0,0,0-4.834,2l-7.038,7.037-2.864-.716a.83.83,0,0,0-.788.218l-1.66,1.66a.829.829,0,0,0,.159,1.3l3.972,2.384,2.384,3.972a.829.829,0,0,0,.61.4.813.813,0,0,0,.1.006.836.836,0,0,0,.588-.242l1.66-1.66a.832.832,0,0,0,.218-.788l-.715-2.861,7.15-7.079A6.847,6.847,0,0,0,116.354,60.9ZM105.81,71.93a.83.83,0,0,0-.222.791l.716,2.864-.576.576-1.943-3.238a.827.827,0,0,0-.285-.285L100.263,70.7l.576-.576,2.864.716a.83.83,0,0,0,.788-.218l7.37-7.37a5.134,5.134,0,0,1,2.767-1.44,5.117,5.117,0,0,1-1.349,2.728Z" transform="translate(-98.094 -60.072)" fill="#fff"/>
        </g>
      </g>
      <g id="Group_7530" data-name="Group 7530" transform="translate(19.169 13.078)">
        <g id="Group_7529" data-name="Group 7529">
          <path id="Path_28484" data-name="Path 28484" d="M207.675,142.81l-2.49-8.407-1.592.471,2.34,7.9-.5.445-2.767-6.419-1.525.657,3.22,7.469a.83.83,0,0,0,.581.481.849.849,0,0,0,.182.02.827.827,0,0,0,.549-.207l1.76-1.552A.831.831,0,0,0,207.675,142.81Z" transform="translate(-201.138 -134.403)" fill="#fff"/>
        </g>
      </g>
      <g id="Group_7532" data-name="Group 7532" transform="translate(0.041 20.244)">
        <g id="Group_7531" data-name="Group 7531" transform="translate(0)">
          <path id="Path_28485" data-name="Path 28485" d="M20.332,233.561c-5.911,2.8-10.548,3.163-12.719.993-3.763-3.763.324-14.7,9.505-25.432l-1.261-1.079C5.787,219.818,1.914,231.2,6.439,235.727A7.164,7.164,0,0,0,11.7,237.62a22.717,22.717,0,0,0,9.34-2.56Z" transform="translate(-4.565 -208.043)" fill="#fff"/>
        </g>
      </g>
      <g id="Group_7534" data-name="Group 7534" transform="translate(28.231 23.273)">
        <g id="Group_7533" data-name="Group 7533">
          <path id="Path_28486" data-name="Path 28486" d="M309.939,244.591a.83.83,0,0,0-.732-.438H306.4l-2.261-4.521a.831.831,0,0,0-.743-.459h-8.3a.83.83,0,0,0-.83.83v6.64a.829.829,0,0,0,.83.83h2.49V256.6a.829.829,0,0,0,.83.83h4.15a.83.83,0,0,0,.588-.244l3.32-3.32a.827.827,0,0,0,.243-.587v-3.068l3.18-4.77A.83.83,0,0,0,309.939,244.591ZM305.2,249.5a.834.834,0,0,0-.139.461v2.976l-2.833,2.833h-2.977v-9.129a.829.829,0,0,0-.83-.83h-2.49v-4.98h6.957l2.261,4.521a.831.831,0,0,0,.743.459h1.769Z" transform="translate(-294.267 -239.173)" fill="#fff"/>
        </g>
      </g>
      <g id="Group_7536" data-name="Group 7536" transform="translate(29.891 9.164)">
        <g id="Group_7535" data-name="Group 7535">
          <path id="Path_28487" data-name="Path 28487" d="M325.917,106.628l-3.081-5.391a.83.83,0,0,0-.72-.418h-4.98a.831.831,0,0,0-.691.369l-1.413,2.121h-2.046v-4.15h4.15a.828.828,0,0,0,.587-.243l3.077-3.077h3.806v-1.66h-4.15a.828.828,0,0,0-.587.243L316.793,97.5h-4.636a.83.83,0,0,0-.83.83v5.809a.83.83,0,0,0,.83.83h3.32a.831.831,0,0,0,.69-.369l1.413-2.121h4.054l3.081,5.391a.83.83,0,0,0,.72.418h3.32v-1.66Z" transform="translate(-311.327 -94.179)" fill="#fff"/>
        </g>
      </g>
      <g id="Group_7538" data-name="Group 7538" transform="translate(11.632 27.423)">
        <g id="Group_7537" data-name="Group 7537">
          <path id="Path_28488" data-name="Path 28488" d="M136.136,284.309H131.5l-2.247-2.247a.828.828,0,0,0-.587-.243h-4.15a.83.83,0,0,0-.83.83v5.81a.83.83,0,0,0,.83.83h3.32v8.3a.83.83,0,0,0,1.328.664l3.32-2.49a.831.831,0,0,0,.332-.664v-2.091l3.838-3.07a.83.83,0,0,0,.311-.648v-4.15A.83.83,0,0,0,136.136,284.309Zm-.83,4.581-3.838,3.07a.831.831,0,0,0-.311.648v2.075l-1.66,1.245v-7.469a.83.83,0,0,0-.83-.83h-3.32v-4.15h2.976l2.247,2.247a.828.828,0,0,0,.587.243h4.15Z" transform="translate(-123.687 -281.819)" fill="#fff"/>
        </g>
      </g>
      <g id="Group_7540" data-name="Group 7540" transform="translate(0.843 13.314)">
        <g id="Group_7539" data-name="Group 7539" transform="translate(0)">
          <path id="Path_28489" data-name="Path 28489" d="M19.329,141.377l-2.49-4.15a.829.829,0,0,0-.711-.4H15.3v1.66h.36l1.915,3.191-2.032,2.032a.828.828,0,0,0-.243.587v2.49h-2.49v1.66h3.32a.83.83,0,0,0,.83-.83v-2.976l2.247-2.247A.831.831,0,0,0,19.329,141.377Z" transform="translate(-12.808 -136.825)" fill="#fff"/>
        </g>
      </g>
      <g id="Group_7542" data-name="Group 7542" transform="translate(15.411 0.865)">
        <g id="Group_7541" data-name="Group 7541">
          <path id="Path_28490" data-name="Path 28490" d="M172.85,8.889V9.9l-2.691.673a.843.843,0,0,0-.259.115l-2.089,1.393-4.549-2.275-.743,1.485,4.98,2.49a.83.83,0,0,0,.831-.052l2.37-1.58,3.181-.8a.83.83,0,0,0,.629-.805V8.889Z" transform="translate(-162.519 -8.889)" fill="#fff"/>
        </g>
      </g>
    </g>
  </g>
</svg>
