<svg xmlns="http://www.w3.org/2000/svg" width="35.333" height="35.295" viewBox="0 0 35.333 35.295">
  <g id="globe" transform="translate(-4.02 -4)">
    <path id="Path_29005" data-name="Path 29005" d="M22.776,37.595a.615.615,0,0,1-.694,0A18.552,18.552,0,0,1,18.03,33.77a31.933,31.933,0,0,0,.947,6.9,18.921,18.921,0,0,1,7.24-1.692V34.521A19.054,19.054,0,0,1,22.776,37.595Z" transform="translate(-5.167 -10.98)" fill="#181818"/>
    <circle id="Ellipse_59" data-name="Ellipse 59" cx="1.894" cy="1.894" r="1.894" transform="translate(15.369 15.992)" fill="#181818"/>
    <path id="Path_29006" data-name="Path 29006" d="M23.2,11.6a6.276,6.276,0,0,1,3.787,1.275V4.08c-2.79.41-5.352,3.509-6.861,8.325a6.265,6.265,0,0,1,3.074-.8Z" transform="translate(-5.942 -0.03)" fill="#181818"/>
    <circle id="Ellipse_60" data-name="Ellipse 60" cx="1.894" cy="1.894" r="1.894" transform="translate(32.41 7.156)" fill="#181818"/>
    <path id="Path_29007" data-name="Path 29007" d="M22.049,18A5.056,5.056,0,0,0,17,23.049c0,3.415,3.85,6.539,5.049,7.429,1.2-.89,5.049-4.014,5.049-7.429A5.056,5.056,0,0,0,22.049,18Zm0,8.205a3.156,3.156,0,1,1,3.156-3.156,3.156,3.156,0,0,1-3.156,3.156Z" transform="translate(-4.787 -5.164)" fill="#181818"/>
    <path id="Path_29008" data-name="Path 29008" d="M11.6,24.154a6.745,6.745,0,0,1-.65-2.79A6.3,6.3,0,0,1,12.5,17.236c.057-.234.12-.461.183-.694A18.309,18.309,0,0,1,8.463,13.43,17.53,17.53,0,0,0,4.02,24.52h7.574C11.594,24.4,11.594,24.274,11.6,24.154Z" transform="translate(0 -3.478)" fill="#181818"/>
    <path id="Path_29009" data-name="Path 29009" d="M26.972,54.056V44.02a17.645,17.645,0,0,0-6.892,1.66C21.532,50.395,24.056,53.645,26.972,54.056Z" transform="translate(-5.923 -14.76)" fill="#181818"/>
    <path id="Path_29010" data-name="Path 29010" d="M11.588,33H4.02A17.566,17.566,0,0,0,8.451,44.077a18.853,18.853,0,0,1,4.2-3.112A33.393,33.393,0,0,1,11.588,33Z" transform="translate(0 -10.696)" fill="#181818"/>
    <path id="Path_29011" data-name="Path 29011" d="M16.106,47.59a17.741,17.741,0,0,0-3.686,2.783A17.443,17.443,0,0,0,20.4,54.88,16.214,16.214,0,0,1,16.106,47.59Z" transform="translate(-3.098 -16.077)" fill="#181818"/>
    <path id="Path_29012" data-name="Path 29012" d="M41.1,7.57a6.368,6.368,0,0,1,.764-1.654A17.388,17.388,0,0,0,38.84,4.85,12.048,12.048,0,0,1,41.1,7.57Z" transform="translate(-12.842 -0.313)" fill="#181818"/>
    <path id="Path_29013" data-name="Path 29013" d="M33,44.02V54.056c2.916-.41,5.441-3.661,6.892-8.376A17.645,17.645,0,0,0,33,44.02Z" transform="translate(-10.688 -14.76)" fill="#181818"/>
    <path id="Path_29014" data-name="Path 29014" d="M33,38.693a18.921,18.921,0,0,1,7.24,1.692A32.625,32.625,0,0,0,41.2,33H33Z" transform="translate(-10.688 -10.696)" fill="#181818"/>
    <path id="Path_29015" data-name="Path 29015" d="M38.93,54.88a17.442,17.442,0,0,0,7.984-4.507,17.741,17.741,0,0,0-3.686-2.783A16.214,16.214,0,0,1,38.93,54.88Z" transform="translate(-12.876 -16.077)" fill="#181818"/>
    <path id="Path_29016" data-name="Path 29016" d="M46.31,40.965a18.853,18.853,0,0,1,4.2,3.112A17.566,17.566,0,0,0,54.938,33H47.37A33.394,33.394,0,0,1,46.31,40.965Z" transform="translate(-15.598 -10.696)" fill="#181818"/>
    <path id="Path_29017" data-name="Path 29017" d="M20.494,4.83A17.37,17.37,0,0,0,12.44,9.349a17.472,17.472,0,0,0,3.705,2.783A16.21,16.21,0,0,1,20.494,4.83Z" transform="translate(-3.105 -0.306)" fill="#181818"/>
    <path id="Path_29018" data-name="Path 29018" d="M45.307,12.59l.05.183a17.246,17.246,0,0,0,3.692,3.705c1.2-.89,5.049-4.014,5.049-7.429a5.049,5.049,0,1,0-10.1,0,6.581,6.581,0,0,0,1.243,3.56Zm3.743-6.7a3.156,3.156,0,1,1-3.156,3.156,3.156,3.156,0,0,1,3.156-3.156Z" transform="translate(-14.746)" fill="#181818"/>
    <path id="Path_29019" data-name="Path 29019" d="M38.712,9.477C37.191,6.321,35.14,4.4,33,4.08V14.109a17.552,17.552,0,0,0,6.665-1.559,7.354,7.354,0,0,1-.953-3.074Z" transform="translate(-10.688 -0.03)" fill="#181818"/>
    <path id="Path_29020" data-name="Path 29020" d="M41.445,26.685a32.2,32.2,0,0,0-.972-7.385,18.707,18.707,0,0,1-6.507,1.654,6.285,6.285,0,0,1,.555,2.575,7.048,7.048,0,0,1-.821,3.156Z" transform="translate(-10.947 -5.643)" fill="#181818"/>
    <path id="Path_29021" data-name="Path 29021" d="M50.547,24.108a.615.615,0,0,1-.694,0,19.245,19.245,0,0,1-2.733-2.3,34.1,34.1,0,0,1,.543,5.567h7.568a17.409,17.409,0,0,0-1.357-6.211,18.629,18.629,0,0,1-3.326,2.948Z" transform="translate(-15.896 -6.329)" fill="#181818"/>
  </g>
</svg>
