<svg xmlns="http://www.w3.org/2000/svg" width="59.458" height="59.413" viewBox="0 0 59.458 59.413">
  <g id="call" transform="translate(0.039 0.178)">
    <g id="Group_7770" data-name="Group 7770" transform="translate(1 1.018)">
      <g id="Group_7769" data-name="Group 7769">
        <path id="Path_28400" data-name="Path 28400" d="M56.72,45.158,45.138,37.439a3.381,3.381,0,0,0-4.527.735l-3.373,4.337a1.442,1.442,0,0,1-1.849.389l-.641-.354c-2.127-1.16-4.775-2.6-10.107-7.939S17.86,26.624,16.7,24.5l-.352-.641A1.444,1.444,0,0,1,16.731,22l4.334-3.372A3.383,3.383,0,0,0,21.8,14.1L14.077,2.519A3.363,3.363,0,0,0,9.544,1.5L4.7,4.408A6.832,6.832,0,0,0,1.586,8.451C-.158,14.8,1.154,25.772,17.307,41.929,30.16,54.779,39.731,58.234,46.3,58.234a16.894,16.894,0,0,0,4.477-.585,6.825,6.825,0,0,0,4.048-3.115l2.915-4.84a3.363,3.363,0,0,0-1.022-4.535Zm-.62,3.557-2.91,4.843a4.928,4.928,0,0,1-2.908,2.254c-5.866,1.611-16.115.277-31.624-15.233S1.815,14.823,3.426,8.956A4.936,4.936,0,0,1,5.685,6.044l4.843-2.906A1.458,1.458,0,0,1,12.5,3.58l4.2,6.3,3.519,5.28a1.468,1.468,0,0,1-.319,1.965L15.555,20.5a3.337,3.337,0,0,0-.884,4.283l.345.625c1.219,2.235,2.734,5.015,8.266,10.546S31.593,43,33.826,44.216l.625.346a3.338,3.338,0,0,0,4.283-.884l3.372-4.335a1.468,1.468,0,0,1,1.965-.319l11.581,7.723a1.458,1.458,0,0,1,.445,1.969Z" transform="translate(-1 -1.018)" fill="#0a0606" stroke="#0a0606" stroke-width="2"/>
        <path id="Path_28401" data-name="Path 28401" d="M283.582,71.231a16.228,16.228,0,0,1,16.211,16.211.954.954,0,1,0,1.907,0,18.137,18.137,0,0,0-18.116-18.116.954.954,0,0,0,0,1.907Z" transform="translate(-251.159 -61.691)" fill="#0a0606" stroke="#0a0606" stroke-width="2"/>
        <path id="Path_28402" data-name="Path 28402" d="M283.582,122.431A10.5,10.5,0,0,1,294.07,132.92a.954.954,0,1,0,1.907,0,12.41,12.41,0,0,0-12.4-12.4.954.954,0,0,0,0,1.907Z" transform="translate(-251.159 -107.17)" fill="#0a0606" stroke="#0a0606" stroke-width="2"/>
        <path id="Path_28403" data-name="Path 28403" d="M283.582,173.631a4.774,4.774,0,0,1,4.767,4.767.954.954,0,1,0,1.907,0,6.682,6.682,0,0,0-6.675-6.675.954.954,0,0,0,0,1.907Z" transform="translate(-251.159 -152.649)" fill="#0a0606" stroke="#0a0606" stroke-width="2"/>
      </g>
    </g>
  </g>
</svg>
