<svg xmlns="http://www.w3.org/2000/svg" width="34.138" height="34.137" viewBox="0 0 34.138 34.137">
  <g id="call-white" transform="translate(0.002)">
    <g id="Group_499" data-name="Group 499" transform="translate(-0.002 0)">
      <g id="Group_498" data-name="Group 498">
        <path id="Path_2778" data-name="Path 2778" d="M33.48,27.148l-3.786-2.523-3.365-2.244a1.491,1.491,0,0,0-2,.325l-2.08,2.671a1.479,1.479,0,0,1-1.893.393,24.241,24.241,0,0,1-6.768-5.218A24.414,24.414,0,0,1,8.367,13.79a1.479,1.479,0,0,1,.4-1.888L11.44,9.815a1.491,1.491,0,0,0,.325-2L9.588,4.552,7,.664A1.491,1.491,0,0,0,4.988.209L2,2.007A3.653,3.653,0,0,0,.339,4.153c-.817,2.981-.982,9.56,9.56,20.087S27.014,34.614,29.987,33.8a3.651,3.651,0,0,0,2.147-1.66l1.794-2.989a1.491,1.491,0,0,0-.448-2Z" transform="translate(-0.001 0.002)" fill="#fff"/>
        <path id="Path_2779" data-name="Path 2779" d="M283.085,62.969a10.015,10.015,0,0,1,10.006,10.008.589.589,0,0,0,1.178,0,11.2,11.2,0,0,0-11.184-11.184.589.589,0,1,0,0,1.176Z" transform="translate(-263.659 -57.669)" fill="#fff"/>
        <path id="Path_2780" data-name="Path 2780" d="M283.077,115.94a6.487,6.487,0,0,1,6.469,6.469.589.589,0,1,0,1.178,0,7.66,7.66,0,0,0-7.66-7.66.589.589,0,1,0,0,1.178Z" transform="translate(-263.651 -107.106)" fill="#fff"/>
        <path id="Path_2781" data-name="Path 2781" d="M283.085,168.9a2.947,2.947,0,0,1,2.943,2.943.589.589,0,1,0,1.178,0,4.125,4.125,0,0,0-4.121-4.12.589.589,0,1,0,0,1.176Z" transform="translate(-263.659 -156.537)" fill="#fff"/>
      </g>
    </g>
  </g>
</svg>
